<svg width="24" height="24" viewBox="0 0 24 24" fill="none" xmlns="http://www.w3.org/2000/svg">
<path fill-rule="evenodd" clip-rule="evenodd" d="M8 7C9.104 7 10 6.104 10 5C10 3.896 9.104 3 8 3C6.896 3 6 3.896 6 5C6 6.104 6.896 7 8 7ZM8 10C6.896 10 6 10.896 6 12C6 13.104 6.896 14 8 14C9.104 14 10 13.104 10 12C10 10.896 9.104 10 8 10ZM6 19C6 17.896 6.896 17 8 17C9.104 17 10 17.896 10 19C10 20.104 9.104 21 8 21C6.896 21 6 20.104 6 19Z" fill="#2F2F2E"/>
<mask id="mask0_220_51292" style="mask-type:alpha" maskUnits="userSpaceOnUse" x="6" y="3" width="4" height="18">
<path fill-rule="evenodd" clip-rule="evenodd" d="M8 7C9.104 7 10 6.104 10 5C10 3.896 9.104 3 8 3C6.896 3 6 3.896 6 5C6 6.104 6.896 7 8 7ZM8 10C6.896 10 6 10.896 6 12C6 13.104 6.896 14 8 14C9.104 14 10 13.104 10 12C10 10.896 9.104 10 8 10ZM6 19C6 17.896 6.896 17 8 17C9.104 17 10 17.896 10 19C10 20.104 9.104 21 8 21C6.896 21 6 20.104 6 19Z" fill="white"/>
</mask>
<g mask="url(#mask0_220_51292)">
<rect x="-4" width="24" height="24" fill="#2F2F2E"/>
</g>
<path fill-rule="evenodd" clip-rule="evenodd" d="M16 7C17.104 7 18 6.104 18 5C18 3.896 17.104 3 16 3C14.896 3 14 3.896 14 5C14 6.104 14.896 7 16 7ZM16 10C14.896 10 14 10.896 14 12C14 13.104 14.896 14 16 14C17.104 14 18 13.104 18 12C18 10.896 17.104 10 16 10ZM14 19C14 17.896 14.896 17 16 17C17.104 17 18 17.896 18 19C18 20.104 17.104 21 16 21C14.896 21 14 20.104 14 19Z" fill="#2F2F2E"/>
<mask id="mask1_220_51292" style="mask-type:alpha" maskUnits="userSpaceOnUse" x="14" y="3" width="4" height="18">
<path fill-rule="evenodd" clip-rule="evenodd" d="M16 7C17.104 7 18 6.104 18 5C18 3.896 17.104 3 16 3C14.896 3 14 3.896 14 5C14 6.104 14.896 7 16 7ZM16 10C14.896 10 14 10.896 14 12C14 13.104 14.896 14 16 14C17.104 14 18 13.104 18 12C18 10.896 17.104 10 16 10ZM14 19C14 17.896 14.896 17 16 17C17.104 17 18 17.896 18 19C18 20.104 17.104 21 16 21C14.896 21 14 20.104 14 19Z" fill="white"/>
</mask>
<g mask="url(#mask1_220_51292)">
<rect x="4" width="24" height="24" fill="#2F2F2E"/>
</g>
</svg>
