<svg width="38" height="42" viewBox="0 0 38 42" fill="none" xmlns="http://www.w3.org/2000/svg">
<path d="M18.9999 0.6875C18.0233 0.6875 17.053 1.01563 16.217 1.61563L13.6295 3.42188L10.6483 3.8125H10.5999L10.5514 3.86094C9.57366 4.08174 8.6785 4.57514 7.96971 5.28392C7.26093 5.99271 6.76753 6.88787 6.54673 7.86562L6.49985 7.91406V7.9625L6.10923 10.9906L4.30298 13.3344L4.25298 13.3828V13.4313C3.16079 15.1766 3.11235 17.4297 4.30298 19.0953L6.15767 21.6828L6.64673 24.3703L1.61704 32.0344L0.00610352 34.4281H7.47642L9.28267 38.6266L10.4061 41.3125L12.017 38.8703L16.9483 31.4484C18.2733 31.9922 19.7686 32.0422 21.0514 31.4484L25.9827 38.8703L27.5936 41.3125L28.717 38.6266L30.5233 34.4281H37.9936L36.3827 32.0344L31.4999 24.6141L31.8905 21.6844L33.6967 19.0969L33.7467 19.0484V19C34.8389 17.2547 34.8874 15.05 33.6967 13.3844L31.8905 10.7953L31.3045 7.86562H31.353C31.3467 7.82812 31.3108 7.80313 31.3045 7.76719C31.0233 5.72344 29.4061 4.06406 27.3499 3.8125H27.2999L24.3702 3.42188L21.7827 1.61563C20.9745 1.02362 20.0015 0.699107 18.9999 0.6875ZM18.9999 3.86094C19.3592 3.86094 19.7139 3.97031 19.9764 4.15469L22.7592 6.15625L23.1014 6.4L23.492 6.45L26.9108 6.9375H26.9577C27.6608 7.01562 28.1483 7.50469 28.228 8.20781V8.30469L28.8639 11.7719L28.9108 12.1141L29.1561 12.4062L31.1577 15.1891C31.5311 15.7078 31.5795 16.5875 31.1092 17.3375L28.9124 20.4141L28.8624 20.8047L28.3749 24.2234V24.2703C28.3489 24.5145 28.2653 24.749 28.1311 24.9547L28.0327 25.0047V25.0516C27.8005 25.3305 27.4674 25.5063 27.1061 25.5406H27.0077L23.4436 26.1766L23.053 26.2234L22.7592 26.4688L19.9764 28.4703C19.4577 28.8438 18.5295 28.8922 17.7795 28.4219L15.2405 26.4688L14.9467 26.225L14.5077 26.175L11.0889 25.6875H11.042C10.8211 25.668 10.6081 25.5956 10.421 25.4765C10.2339 25.3574 10.0782 25.195 9.96704 25.0031C9.86321 24.8229 9.79678 24.6236 9.77173 24.4172V24.3203L9.13735 20.7563L9.08735 20.3656L8.8436 20.0719L6.84204 17.2891C6.4686 16.7703 6.42017 15.8422 6.89048 15.0922L8.8436 12.5531L9.08735 12.2594L9.13579 11.8203L9.57642 8.54844C9.58267 8.525 9.6186 8.525 9.62485 8.5C9.72226 8.12387 9.91851 7.78064 10.1933 7.5059C10.468 7.23116 10.8112 7.03491 11.1874 6.9375C11.2124 6.93125 11.2124 6.89531 11.2358 6.88906L14.5077 6.44844L14.8983 6.40156L15.2405 6.15625L18.0233 4.15469C18.2858 3.97187 18.6405 3.86094 18.9999 3.86094ZM29.7905 27.6406L32.1842 31.3031H28.4217L28.0311 32.2797L26.9577 34.7687L23.6374 29.6906L24.3686 29.1547L27.4467 28.6172V28.6656C27.4827 28.6594 27.5061 28.6234 27.5436 28.6172C28.366 28.4985 29.1414 28.1613 29.7889 27.6406H29.7905ZM8.20923 27.6891C8.8877 28.3059 9.74005 28.6982 10.6499 28.8125H10.6983L13.678 29.2031L14.3608 29.7406L11.0405 34.7687L9.96704 32.2797L9.57642 31.3031H5.81704L8.20923 27.6891Z" fill="#B5B5B5"/>
</svg>
