<svg width="294" height="294" viewBox="0 0 294 294" fill="none" xmlns="http://www.w3.org/2000/svg">
<g clip-path="url(#clip0_6880_534114)">
<path d="M147 294C228.186 294 294 228.186 294 147C294 65.8141 228.186 0 147 0C65.8141 0 0 65.8141 0 147C0 228.186 65.8141 294 147 294Z" fill="#F6F8F6"/>
<path d="M214 213.798C253.966 173.832 253.966 109.034 214 69.0683C174.034 29.1023 109.236 29.1023 69.2701 69.0683C29.3041 109.034 29.3041 173.832 69.2701 213.798C109.236 253.764 174.034 253.764 214 213.798Z" fill="#E9FAF6"/>
<path d="M156.479 244.128H155.871C128.441 243.967 102.714 233.139 83.4301 213.632C64.1466 194.125 53.6124 168.274 53.7698 140.844C53.9272 113.413 64.7587 87.6876 84.2655 68.4041C103.628 49.2619 129.249 38.7422 156.445 38.7422H157.054C184.484 38.9028 210.21 49.7294 229.493 69.2379C248.777 88.7463 259.309 114.596 259.15 142.02C258.991 169.444 248.162 195.178 228.655 214.461C209.293 233.606 183.678 244.128 156.479 244.128ZM156.445 39.4523C129.429 39.4523 103.994 49.8949 84.7635 68.9085C65.3868 88.0571 54.6325 113.606 54.4751 140.847C54.1538 197.076 99.637 243.093 155.871 243.418H156.469C212.435 243.418 258.119 198.058 258.442 142.02C258.603 114.779 248.139 89.1078 228.987 69.7343C209.836 50.3608 184.286 39.6049 157.046 39.4491L156.445 39.4523Z" fill="#A2D8CB"/>
<path d="M156.639 92.1458C128.224 92.1458 100.294 87.3615 75.8678 78.3101C75.7828 78.275 75.7148 78.2082 75.678 78.124C75.6413 78.0397 75.6387 77.9444 75.6707 77.8582C75.7028 77.772 75.767 77.7016 75.8499 77.6619C75.9328 77.6221 76.028 77.6161 76.1152 77.645C100.463 86.6674 128.307 91.4373 156.639 91.4373C184.754 91.4373 212.414 86.7365 236.626 77.8442C236.671 77.8245 236.719 77.814 236.767 77.8136C236.816 77.8132 236.864 77.8227 236.909 77.8417C236.954 77.8606 236.994 77.8885 237.028 77.9237C237.061 77.9589 237.087 78.0006 237.104 78.0463C237.121 78.0919 237.128 78.1405 237.125 78.189C237.122 78.2376 237.11 78.285 237.088 78.3284C237.066 78.3718 237.035 78.4103 236.998 78.4414C236.961 78.4725 236.917 78.4956 236.871 78.5093C212.579 87.4306 184.836 92.1458 156.639 92.1458Z" fill="#A2D8CB"/>
<path d="M75.0535 203.827C74.9709 203.827 74.8912 203.797 74.8281 203.744C74.7649 203.691 74.7223 203.617 74.7074 203.536C74.6926 203.455 74.7065 203.371 74.7468 203.299C74.7871 203.227 74.8512 203.171 74.9282 203.141C99.5872 193.86 127.842 188.956 156.638 188.956C185.279 188.956 213.401 193.811 237.965 202.998C238.008 203.015 238.048 203.039 238.082 203.071C238.116 203.102 238.144 203.14 238.163 203.183C238.182 203.225 238.193 203.271 238.195 203.317C238.196 203.363 238.189 203.41 238.172 203.453C238.139 203.541 238.073 203.613 237.987 203.652C237.902 203.691 237.804 203.695 237.716 203.662C213.232 194.505 185.196 189.664 156.638 189.664C127.927 189.664 99.7656 194.554 75.1852 203.802C75.1432 203.818 75.0986 203.827 75.0535 203.827Z" fill="#A2D8CB"/>
<path d="M156.459 244.128C142.127 244.128 128.666 233.415 118.573 213.962C108.513 194.583 102.972 168.817 102.972 141.433C102.972 114.05 108.513 88.2853 118.573 68.9054C128.674 49.4532 142.127 38.7407 156.459 38.7407C170.791 38.7407 184.245 49.4532 194.344 68.9054C204.405 88.2853 209.946 114.05 209.946 141.433C209.946 168.817 204.405 194.583 194.344 213.962C184.245 233.415 170.79 244.128 156.459 244.128ZM156.459 39.4524C127.357 39.4524 103.681 85.2024 103.681 141.437C103.681 197.671 127.357 243.423 156.459 243.423C185.562 243.423 209.238 197.673 209.238 141.437C209.238 85.2007 185.557 39.4492 156.459 39.4492V39.4524Z" fill="#A2D8CB"/>
<path d="M156.459 243.991C156.413 243.991 156.367 243.982 156.324 243.965C156.28 243.947 156.241 243.921 156.208 243.888C156.175 243.855 156.149 243.816 156.131 243.773C156.113 243.73 156.104 243.684 156.104 243.638V39.3126C156.11 39.2228 156.15 39.1386 156.216 39.0771C156.282 39.0157 156.368 38.9814 156.458 38.9814C156.549 38.9814 156.635 39.0157 156.701 39.0771C156.767 39.1386 156.807 39.2228 156.813 39.3126V243.638C156.813 243.684 156.804 243.73 156.786 243.773C156.769 243.816 156.743 243.855 156.71 243.888C156.677 243.921 156.638 243.947 156.595 243.965C156.552 243.982 156.506 243.991 156.459 243.991Z" fill="#A2D8CB"/>
<path d="M258.816 141.965L54.0541 140.368C53.9643 140.362 53.8801 140.322 53.8186 140.256C53.7571 140.191 53.7229 140.104 53.7229 140.014C53.7229 139.924 53.7571 139.837 53.8186 139.771C53.8801 139.706 53.9643 139.666 54.0541 139.66L258.816 141.257C258.906 141.263 258.99 141.303 259.052 141.368C259.113 141.434 259.147 141.521 259.147 141.611C259.147 141.701 259.113 141.788 259.052 141.853C258.99 141.919 258.906 141.959 258.816 141.965Z" fill="#A2D8CB"/>
<path d="M1.35577 204.847L130.65 204.847V113.164L1.35577 113.164V204.847Z" fill="white"/>
<path d="M126.594 192.933V117.221L5.41248 117.221V192.933H126.594Z" fill="#F7F1EB"/>
<path d="M66.936 200.657C68.1779 200.143 68.7676 198.719 68.2532 197.477C67.7388 196.235 66.315 195.645 65.0731 196.16C63.8312 196.674 63.2415 198.098 63.7559 199.34C64.2703 200.582 65.6941 201.172 66.936 200.657Z" fill="#F6F8F6"/>
<path d="M52.3946 206.79H56.2294C56.2294 207.473 56.364 208.149 56.6253 208.78C56.8867 209.411 57.2698 209.984 57.7527 210.467C58.2356 210.949 58.8089 211.332 59.4399 211.594C60.0708 211.855 60.747 211.989 61.4299 211.989H70.5872C71.9661 211.989 73.2884 211.441 74.2634 210.466C75.2383 209.491 75.7861 208.169 75.7861 206.79H79.6145L83.4413 227.132V228.834H48.5662V227.132L52.3946 206.79Z" fill="white"/>
<path d="M83.4412 231.314H48.566C48.4762 231.308 48.392 231.268 48.3305 231.202C48.2691 231.136 48.2349 231.05 48.2349 230.96C48.2349 230.869 48.2691 230.783 48.3305 230.717C48.392 230.651 48.4762 230.611 48.566 230.605H83.4412C83.4897 230.602 83.5384 230.609 83.5842 230.625C83.63 230.641 83.672 230.667 83.7075 230.7C83.7431 230.733 83.7714 230.774 83.7908 230.818C83.8101 230.863 83.8201 230.911 83.8201 230.96C83.8201 231.008 83.8101 231.056 83.7908 231.101C83.7714 231.146 83.7431 231.186 83.7075 231.219C83.672 231.252 83.63 231.278 83.5842 231.294C83.5384 231.31 83.4897 231.317 83.4412 231.314Z" fill="white"/>
<path d="M96.4608 180.005C96.4608 180.005 106.903 190.448 119.075 191.116C131.246 191.784 136.294 184.764 137.389 179.778C138.485 174.793 132.146 137.659 106.995 121.832C106.997 121.832 91.3616 160.977 96.4608 180.005Z" fill="#F89D26"/>
<path d="M34.8124 178.59C34.8124 178.59 24.0726 196.583 10.7044 188.406C-2.66377 180.229 2.26997 137.618 26.6093 125.268C58.2906 109.203 95.6656 118.493 106.993 121.834L100.026 192.662H31.1221L34.8124 178.59Z" fill="#F89D26"/>
<path d="M35.5804 151.304C35.5506 151.303 35.521 151.299 35.492 151.293C35.4469 151.281 35.4045 151.261 35.3673 151.233C35.3301 151.205 35.2988 151.169 35.2752 151.129C35.2517 151.089 35.2362 151.045 35.2299 150.999C35.2235 150.952 35.2263 150.905 35.2382 150.86L37.3267 142.828C37.336 142.78 37.355 142.735 37.3824 142.695C37.4098 142.655 37.4451 142.621 37.4861 142.595C37.5271 142.57 37.5729 142.553 37.6208 142.545C37.6687 142.538 37.7175 142.54 37.7644 142.552C37.8113 142.565 37.8552 142.586 37.8934 142.616C37.9316 142.646 37.9633 142.683 37.9865 142.726C38.0098 142.768 38.0241 142.815 38.0286 142.863C38.0331 142.911 38.0277 142.96 38.0127 143.006L35.9242 151.039C35.9043 151.115 35.8597 151.182 35.7975 151.23C35.7353 151.278 35.6589 151.304 35.5804 151.304Z" fill="#363E44"/>
<path d="M101.141 181.728H101.107C101.06 181.724 101.015 181.71 100.974 181.689C100.932 181.667 100.895 181.637 100.865 181.601C100.835 181.565 100.813 181.524 100.799 181.479C100.786 181.434 100.781 181.387 100.786 181.34L101.632 172.728C101.647 172.638 101.695 172.558 101.766 172.503C101.838 172.448 101.928 172.422 102.018 172.431C102.108 172.44 102.191 172.483 102.251 172.551C102.31 172.62 102.341 172.708 102.338 172.798L101.491 181.41C101.482 181.496 101.441 181.577 101.377 181.635C101.312 181.694 101.228 181.727 101.141 181.728Z" fill="#363E44"/>
<path d="M103.965 154.421L114.101 180.024C114.752 181.669 115.726 183.166 116.964 184.429C118.203 185.692 119.681 186.694 121.313 187.378C122.944 188.061 124.696 188.411 126.465 188.408C128.233 188.405 129.983 188.048 131.612 187.358C133.366 186.615 134.939 185.504 136.224 184.099C137.51 182.695 138.479 181.03 139.064 179.218C139.649 177.406 139.838 175.489 139.617 173.598C139.396 171.706 138.771 169.885 137.783 168.256L123.708 145.046L103.965 154.421Z" fill="#FFE1B5"/>
<path d="M17.7042 159.062C17.7042 159.062 39.4779 149.951 51.1367 145.424C71.3392 137.577 82.9738 139.748 82.9883 142.653C83.0028 145.805 76.9428 144.009 74.0526 144.924C74.5218 145.156 75.7572 146.105 75.8198 147.663C75.9098 149.969 74.2245 150.69 74.096 150.819C74.2567 150.883 76.0239 151.632 76.3243 153.164C76.6665 154.89 75.958 156.217 74.9089 157.02C75.3138 157.195 76.7452 158 76.9975 159.481C77.2561 161.006 76.4978 162.8 75.0696 163.279C72.438 164.16 64.5723 166.616 60.8805 168.314C53.614 171.654 29.2859 187.244 17.5982 189.082C8.83605 189.432 4.76181 177.194 8.41834 167.554C10.7125 161.483 17.7042 159.062 17.7042 159.062Z" fill="#FFE1B5"/>
<path d="M71.7456 163.066C71.6614 163.066 71.58 163.036 71.5159 162.981C71.4518 162.927 71.409 162.852 71.3953 162.769L70.9905 160.299C70.983 160.253 70.9846 160.206 70.9952 160.161C71.0059 160.116 71.0253 160.073 71.0525 160.035C71.0796 159.998 71.114 159.966 71.1535 159.941C71.193 159.917 71.237 159.9 71.2829 159.893C71.3287 159.885 71.3757 159.887 71.4209 159.898C71.4662 159.908 71.5089 159.928 71.5466 159.955C71.5844 159.982 71.6164 160.016 71.6409 160.056C71.6654 160.095 71.6818 160.139 71.6893 160.185L72.0942 162.654C72.1095 162.747 72.0875 162.842 72.0329 162.918C71.9784 162.994 71.8958 163.046 71.8034 163.061L71.7456 163.066Z" fill="#363E44"/>
<g clip-path="url(#clip1_6880_534114)">
<path d="M91 149.042C88.2396 149.042 86 146.802 86 144.042C86 141.282 88.2396 139.042 91 139.042C93.7604 139.042 96 141.282 96 144.042C96 146.802 93.7604 149.042 91 149.042Z" fill="#009B7C"/>
<path d="M91 146.185C89.8165 146.185 88.8571 145.225 88.8571 144.042C88.8571 142.858 89.8165 141.899 91 141.899C92.1834 141.899 93.1428 142.858 93.1428 144.042C93.1428 145.225 92.1834 146.185 91 146.185Z" fill="#F89D26"/>
</g>
<path d="M70.6644 157.121C70.5789 157.121 70.4963 157.09 70.432 157.033C70.3676 156.977 70.3258 156.899 70.3142 156.815L69.9382 154.01C69.9257 153.916 69.9506 153.822 70.0075 153.747C70.0645 153.673 70.1488 153.624 70.2419 153.611C70.335 153.599 70.4293 153.623 70.504 153.68C70.5787 153.737 70.6277 153.822 70.6403 153.915L71.0162 156.721C71.0226 156.767 71.0197 156.814 71.0078 156.859C70.996 156.904 70.9753 156.946 70.9471 156.983C70.9189 157.02 70.8836 157.051 70.8434 157.074C70.8031 157.097 70.7587 157.112 70.7126 157.118C70.6967 157.121 70.6805 157.122 70.6644 157.121Z" fill="#363E44"/>
<path d="M69.9285 150.811C69.8445 150.811 69.7633 150.781 69.6995 150.726C69.6356 150.672 69.5932 150.597 69.5798 150.514C69.5027 150.049 69.4368 149.63 69.3694 149.211C69.3019 148.791 69.2392 148.385 69.1637 147.926C69.1551 147.879 69.1558 147.831 69.1658 147.785C69.1758 147.739 69.1949 147.695 69.222 147.657C69.2491 147.618 69.2837 147.585 69.3237 147.56C69.3637 147.535 69.4083 147.518 69.4549 147.51C69.5015 147.502 69.5492 147.504 69.5952 147.515C69.6411 147.526 69.6844 147.546 69.7225 147.574C69.7607 147.602 69.7928 147.637 69.8172 147.678C69.8415 147.718 69.8575 147.763 69.8642 147.81C69.9397 148.268 70.004 148.682 70.0698 149.095C70.1357 149.508 70.2016 149.931 70.2787 150.393C70.294 150.486 70.2718 150.581 70.217 150.658C70.1622 150.734 70.0792 150.786 69.9863 150.801L69.9285 150.811Z" fill="#363E44"/>
<path d="M68.8587 145.681C68.7788 145.681 68.7012 145.654 68.6385 145.605C68.5758 145.555 68.5317 145.486 68.5133 145.408L67.9445 142.998C67.9232 142.907 67.9391 142.811 67.9887 142.731C68.0382 142.651 68.1174 142.595 68.2088 142.573C68.3002 142.552 68.3963 142.568 68.476 142.617C68.5557 142.667 68.6125 142.746 68.6338 142.837L69.2025 145.247C69.2242 145.338 69.2088 145.435 69.1597 145.514C69.1106 145.594 69.0318 145.651 68.9406 145.673C68.9137 145.679 68.8862 145.681 68.8587 145.681Z" fill="#363E44"/>
<path d="M80.4564 165.117C80.4159 165.117 80.3758 165.11 80.3375 165.096C80.2489 165.065 80.1765 164.999 80.1362 164.914C80.0958 164.829 80.0908 164.732 80.1222 164.643L93.9675 125.774C93.9911 125.704 94.0364 125.644 94.0968 125.601C94.1572 125.559 94.2295 125.537 94.3033 125.538L124.654 125.803C124.744 125.809 124.828 125.849 124.89 125.915C124.951 125.981 124.986 126.067 124.986 126.157C124.986 126.248 124.951 126.334 124.89 126.4C124.828 126.466 124.744 126.506 124.654 126.512L94.5555 126.248L80.7906 164.881C80.766 164.95 80.7207 165.01 80.6609 165.052C80.6011 165.094 80.5296 165.117 80.4564 165.117Z" fill="white"/>
<path d="M113.087 167.189H82.7375L96.5812 128.32H126.931L113.087 167.189Z" fill="#009B7C"/>
<path d="M117.091 153.7C119.769 155.223 120.092 157.006 119.244 158.497C118.395 159.988 116.697 160.619 114.021 159.094C111.344 157.57 108.703 154.469 109.551 152.978C110.399 151.487 114.414 152.175 117.091 153.7Z" fill="#FFE1B5"/>
<path d="M119.438 148.213C122.54 149.98 122.916 152.045 121.933 153.772C120.95 155.499 118.98 156.233 115.878 154.466C112.775 152.699 109.715 149.105 110.698 147.378C111.681 145.651 116.336 146.446 119.438 148.213Z" fill="#FFE1B5"/>
<path d="M122.01 145.056C124.686 146.581 126.386 145.948 127.234 144.459C128.083 142.969 127.758 141.184 125.082 139.661C122.405 138.138 118.389 137.451 117.54 138.94C116.692 140.429 119.333 143.533 122.01 145.056Z" fill="#FFE1B5"/>
<path d="M118.492 149.876C121.594 151.643 123.562 150.909 124.545 149.182C125.528 147.455 125.151 145.393 122.05 143.626C118.95 141.859 114.294 141.065 113.311 142.792C112.327 144.519 115.388 148.11 118.492 149.876Z" fill="#FFE1B5"/>
<path d="M67.5171 125.087C68.3464 125.286 69.2067 125.32 70.049 125.186C70.8913 125.053 71.6991 124.755 72.4262 124.309C73.1533 123.864 73.7856 123.279 74.2868 122.589C74.788 121.899 75.1484 121.117 75.3475 120.288L80.1945 100.102C80.3165 99.5952 80.2329 99.0611 79.9618 98.6163C79.6908 98.1715 79.2545 97.8523 78.7486 97.7286L69.9446 95.6144C69.4372 95.4926 68.9021 95.5774 68.4571 95.85C68.0121 96.1227 67.6937 96.5609 67.5717 97.0683L62.7248 117.255C62.3224 118.929 62.6012 120.694 63.4999 122.163C64.3985 123.631 65.8434 124.683 67.5171 125.087Z" fill="#FFE1B5"/>
<path d="M81.6694 115.77C78.2956 117.713 69.9512 110.769 69.9512 110.769L65.8689 99.6067C65.9925 98.3103 66.3703 97.051 66.9806 95.9007C67.5909 94.7503 68.4218 93.7315 69.4259 92.9022C70.43 92.073 71.5875 91.4496 72.8325 91.0678C74.0775 90.6859 75.3855 90.553 76.6818 90.6766C77.9782 90.8003 79.2375 91.178 80.3878 91.7883C81.5382 92.3986 82.5571 93.2296 83.3863 94.2336C84.2155 95.2377 84.8389 96.3953 85.2207 97.6402C85.6026 98.8852 85.7355 100.193 85.6119 101.49C85.6119 101.49 85.1058 113.793 81.6694 115.77Z" fill="#FFE1B5"/>
<path d="M84.2254 103.97C84.2254 103.97 86.7172 107.137 86.4971 107.889C86.2336 108.785 83.0959 109.049 83.0959 109.049C83.0959 109.049 84.2977 103.985 84.2254 103.97Z" fill="#FFE1B5"/>
<path d="M77.0278 101.702C78.2156 101.248 79.4891 101.064 80.7566 101.162C81.1807 101.202 80.0578 104.518 79.6738 104.287C78.6154 103.626 77.7126 102.744 77.0278 101.702Z" fill="white"/>
<path d="M80.0797 101.754C80.3809 101.505 80.7492 101.351 81.1378 101.312C81.5265 101.272 81.9181 101.349 82.2632 101.532C82.6083 101.715 82.8914 101.996 83.0766 102.34C83.2619 102.684 83.341 103.075 83.3039 103.464C83.2669 103.853 83.1154 104.222 82.8685 104.525C82.6217 104.828 82.2906 105.051 81.9171 105.165C81.5437 105.28 81.1446 105.281 80.7704 105.169C80.3962 105.057 80.0636 104.836 79.8148 104.535C79.6494 104.335 79.5251 104.105 79.4489 103.857C79.3727 103.609 79.3461 103.348 79.3707 103.09C79.3953 102.831 79.4706 102.58 79.5923 102.351C79.7139 102.122 79.8796 101.919 80.0797 101.754Z" fill="#363E44"/>
<path d="M80.6234 110.885C80.2299 110.885 79.8476 110.753 79.539 110.509C79.2855 110.304 79.0936 110.033 78.9844 109.726C78.8753 109.419 78.8531 109.088 78.9205 108.769C78.9303 108.723 78.949 108.68 78.9754 108.642C79.0019 108.604 79.0356 108.571 79.0747 108.546C79.1138 108.521 79.1575 108.503 79.2032 108.495C79.249 108.487 79.2959 108.487 79.3414 108.497C79.3869 108.507 79.43 108.526 79.4682 108.552C79.5065 108.579 79.5391 108.612 79.5643 108.651C79.5895 108.691 79.6068 108.734 79.6151 108.78C79.6235 108.826 79.6227 108.873 79.6129 108.918C79.5699 109.111 79.5829 109.311 79.6502 109.497C79.7175 109.682 79.8365 109.845 79.993 109.965C80.1495 110.085 80.3371 110.157 80.5336 110.174C80.7301 110.191 80.9274 110.152 81.1022 110.06C81.1844 110.028 81.2758 110.027 81.3585 110.058C81.4413 110.089 81.5094 110.15 81.5496 110.229C81.5898 110.308 81.5991 110.399 81.5758 110.484C81.5525 110.569 81.4982 110.643 81.4235 110.69C81.1758 110.817 80.9017 110.884 80.6234 110.885Z" fill="#363E44"/>
<path d="M78.5863 116.387C78.5543 116.387 78.5225 116.383 78.4916 116.374C74.6615 115.309 69.9093 111.378 69.7085 111.211C69.6727 111.181 69.6432 111.145 69.6215 111.104C69.5999 111.062 69.5865 111.017 69.5823 110.971C69.578 110.925 69.583 110.878 69.5968 110.834C69.6106 110.789 69.633 110.748 69.6627 110.712C69.6925 110.676 69.729 110.647 69.7701 110.625C69.8113 110.604 69.8563 110.59 69.9026 110.586C69.949 110.582 69.9957 110.587 70.0401 110.6C70.0845 110.614 70.1258 110.637 70.1615 110.666C70.2097 110.707 74.9989 114.668 78.6763 115.692C78.7578 115.716 78.828 115.768 78.8742 115.839C78.9203 115.911 78.9394 115.996 78.928 116.08C78.9165 116.164 78.8752 116.242 78.8117 116.298C78.7481 116.354 78.6665 116.386 78.5815 116.387H78.5863Z" fill="#363E44"/>
<path d="M82.9851 96.1412C83.7525 96.4662 84.5972 96.5633 85.4184 96.4208C86.2395 96.2784 87.0021 95.9024 87.6152 95.3379C89.8483 93.2767 92.9538 89.8258 92.6373 86.8087C92.6027 86.3033 92.4131 85.8208 92.0943 85.4271C90.2596 83.104 85.8624 86.444 79.5406 85.8078C73.4486 85.1941 70.7046 81.4042 67.4417 83.21C66.007 84.0037 65.3435 85.4158 65.17 85.7516C62.8726 90.1953 65.7596 93.945 65.7596 93.945C65.7596 93.945 63.6598 91.6541 61.0251 94.8158C58.3903 97.9775 69.8997 103.756 69.8997 103.756L71.9561 102.998L72.3031 98.6185C72.3646 97.8451 72.6088 97.0974 73.0157 96.4369C73.4226 95.7764 73.9805 95.2219 74.6435 94.8191C75.3066 94.4163 76.0558 94.1766 76.8295 94.1199C77.6032 94.0632 78.3793 94.191 79.094 94.4929L82.9851 96.1412Z" fill="#363E44"/>
<path d="M63.941 99.4559C63.6184 100.05 63.4794 100.727 63.5416 101.401C63.6037 102.075 63.8642 102.715 64.29 103.24C64.7159 103.766 65.2881 104.153 65.9342 104.354C66.5802 104.554 67.2712 104.558 67.9198 104.366C68.5683 104.174 69.1453 103.793 69.5777 103.273C70.0101 102.753 70.2786 102.116 70.3492 101.444C70.4197 100.771 70.2892 100.092 69.9742 99.4937C69.6591 98.8951 69.1736 98.4034 68.5791 98.0807C67.7816 97.6483 66.8451 97.5503 65.9753 97.8082C65.1056 98.066 64.3739 98.6587 63.941 99.4559Z" fill="#FFE1B5"/>
<path d="M71.8853 49.2363H74.8654C75.1273 50.6729 75.5033 52.0864 75.99 53.4632L73.4195 54.9525L78.4593 63.6825L81.0426 62.19C81.9908 63.3004 83.0248 64.3345 84.1353 65.2826L82.6428 67.866L91.3728 72.9074L92.8621 70.3369C94.2389 70.8235 95.6523 71.1996 97.0889 71.4615V74.44H107.17V71.4598C108.607 71.198 110.02 70.8219 111.397 70.3353L112.886 72.9057L121.616 67.866L120.124 65.2826C121.236 64.3347 122.273 63.3007 123.223 62.19L125.806 63.6825L130.846 54.9525L128.275 53.4632C128.762 52.0864 129.138 50.6729 129.4 49.2363H132.379V39.1552H129.392C129.13 37.7186 128.754 36.3052 128.267 34.9283L130.838 33.4407L125.793 24.709L123.223 26.2015C122.275 25.0911 121.241 24.057 120.13 23.1089L121.623 20.5256L112.893 15.4858L111.403 18.0563C110.027 17.5696 108.613 17.1936 107.177 16.9317V13.9531H97.0873V16.9317C95.6507 17.1936 94.2373 17.5696 92.8605 18.0563L91.3712 15.4858L82.6412 20.5256L84.1336 23.1089C83.0232 24.057 81.9892 25.0911 81.041 26.2015L78.4577 24.709L73.4195 33.4407L75.99 34.9283C75.5035 36.3052 75.1275 37.7186 74.8654 39.1552H71.8853V49.2363ZM102.675 27.4996C111.421 27.7792 118.546 34.9026 118.824 43.6487C118.898 45.933 118.503 48.2081 117.662 50.3334C116.822 52.4587 115.554 54.389 113.938 56.0049C112.322 57.6208 110.391 58.888 108.266 59.728C106.14 60.568 103.865 60.9631 101.581 60.8887C92.8348 60.6108 85.7113 53.4857 85.4317 44.7396C85.3578 42.4553 85.7533 40.1802 86.5937 38.0549C87.4341 35.9296 88.7016 33.9993 90.3178 32.3834C91.934 30.7675 93.8646 29.5003 95.99 28.6603C98.1155 27.8203 100.391 27.4252 102.675 27.4996Z" fill="#A2D8CB"/>
<path d="M102.129 66.6017C97.168 66.6042 92.3469 64.9598 88.4216 61.9266C84.4963 58.8934 81.689 54.6429 80.4401 49.8421C80.4165 49.7513 80.4299 49.6549 80.4773 49.574C80.5248 49.4931 80.6024 49.4343 80.6932 49.4107C80.7839 49.3871 80.8804 49.4004 80.9613 49.4479C81.0421 49.4953 81.1009 49.573 81.1245 49.6637C82.3343 54.3126 85.0533 58.4282 88.8547 61.3649C92.6562 64.3016 97.325 65.8932 102.129 65.89C114.093 65.89 123.817 56.1574 123.817 44.2014C123.817 33.5484 115.887 24.3251 105.369 22.7459C105.277 22.7306 105.195 22.6798 105.14 22.6043C105.085 22.5288 105.062 22.4348 105.076 22.3426C105.09 22.2503 105.14 22.1672 105.214 22.1113C105.289 22.0554 105.383 22.0312 105.475 22.0438C110.776 22.8463 115.614 25.5226 119.111 29.5871C122.608 33.6516 124.532 38.8349 124.534 44.1966C124.534 56.551 114.483 66.6017 102.129 66.6017Z" fill="#F6F8F6"/>
<path d="M288.698 280.622H143.681V187.469H288.698V280.622ZM144.391 279.914H287.99V188.179H144.389L144.391 279.914Z" fill="#363E44"/>
<path d="M147.4 273.64H284.796V196.5H147.4V273.64Z" fill="#A2D8CB"/>
<path d="M283.794 293.743H148.584C146.203 293.739 143.921 292.792 142.237 291.108C140.553 289.424 139.606 287.142 139.602 284.761V284.407H292.776V284.761C292.772 287.142 291.824 289.424 290.141 291.108C288.457 292.792 286.175 293.739 283.794 293.743ZM140.318 285.116C140.412 287.246 141.323 289.258 142.863 290.733C144.403 292.208 146.452 293.032 148.584 293.034H283.794C285.926 293.032 287.975 292.208 289.515 290.733C291.054 289.258 291.966 287.246 292.059 285.116H140.318Z" fill="#363E44"/>
<path d="M226.574 288.263H205.8C205.752 288.266 205.703 288.26 205.657 288.243C205.611 288.227 205.569 288.201 205.534 288.168C205.498 288.135 205.47 288.095 205.451 288.05C205.431 288.006 205.421 287.957 205.421 287.909C205.421 287.86 205.431 287.812 205.451 287.767C205.47 287.723 205.498 287.683 205.534 287.649C205.569 287.616 205.611 287.591 205.657 287.574C205.703 287.558 205.752 287.551 205.8 287.555H226.571C226.62 287.551 226.668 287.558 226.714 287.574C226.76 287.591 226.802 287.616 226.838 287.649C226.873 287.683 226.901 287.723 226.921 287.767C226.94 287.812 226.95 287.86 226.95 287.909C226.95 287.957 226.94 288.006 226.921 288.05C226.901 288.095 226.873 288.135 226.838 288.168C226.802 288.201 226.76 288.227 226.714 288.243C226.668 288.26 226.62 288.266 226.571 288.263H226.574Z" fill="#363E44"/>
<path d="M240.768 262.377L235.02 273.591H199.534L216.49 235.024L261.037 226.043C274.345 236.857 270.297 273.587 270.297 273.587H240.768V262.377Z" fill="#F89D26"/>
<path d="M241.686 261.525C241.633 261.525 241.581 261.513 241.533 261.49C241.449 261.448 241.385 261.375 241.355 261.287C241.325 261.198 241.331 261.102 241.372 261.018L244.126 255.282C244.146 255.24 244.174 255.202 244.209 255.171C244.244 255.14 244.284 255.115 244.328 255.1C244.372 255.084 244.419 255.077 244.466 255.08C244.512 255.082 244.558 255.093 244.6 255.114C244.642 255.134 244.68 255.162 244.711 255.196C244.743 255.231 244.767 255.272 244.783 255.316C244.798 255.36 244.805 255.406 244.803 255.453C244.8 255.5 244.789 255.545 244.769 255.587L242.017 261.324C241.987 261.386 241.94 261.438 241.881 261.474C241.822 261.51 241.754 261.527 241.686 261.525Z" fill="#363E44"/>
<path d="M221.384 163.639C222.01 158.574 222.83 155.675 225.288 153.773C228.599 151.216 233.036 152.456 233.497 152.592C233.791 152.679 238.052 153.666 239.64 157.77C241.208 161.824 240.575 166.566 237.79 169.852L239.878 179.224C240.038 179.94 240.055 180.68 239.929 181.402C239.803 182.124 239.535 182.814 239.142 183.433C238.749 184.051 238.238 184.587 237.638 185.008C237.038 185.429 236.361 185.727 235.645 185.887L234.964 186.047C234.248 186.207 233.509 186.224 232.787 186.098C232.064 185.971 231.374 185.704 230.756 185.311C230.137 184.918 229.602 184.406 229.181 183.806C228.76 183.207 228.461 182.53 228.301 181.814L226.905 175.548C224.96 175.814 223.328 175.598 222.507 174.766C221.045 173.274 220.653 169.604 221.384 163.639Z" fill="#E2A18D"/>
<path d="M226.793 175.771C226.711 175.77 226.632 175.742 226.568 175.69C226.505 175.637 226.462 175.565 226.446 175.485L225.996 173.179C225.984 173.132 225.982 173.084 225.989 173.036C225.997 172.988 226.014 172.942 226.04 172.901C226.065 172.861 226.099 172.825 226.139 172.798C226.179 172.771 226.224 172.752 226.272 172.742C226.319 172.733 226.368 172.734 226.415 172.744C226.462 172.754 226.507 172.774 226.546 172.802C226.586 172.83 226.619 172.866 226.644 172.907C226.669 172.949 226.685 172.995 226.692 173.043L227.141 175.348C227.159 175.44 227.14 175.536 227.088 175.614C227.035 175.692 226.954 175.746 226.862 175.764C226.839 175.769 226.816 175.771 226.793 175.771Z" fill="#363E44"/>
<path d="M228.39 168.221C228.328 168.221 228.267 168.204 228.213 168.173C228.159 168.142 228.114 168.097 228.083 168.043C228.052 167.99 228.036 167.929 228.036 167.866C228.036 167.804 228.052 167.743 228.083 167.689C228.279 167.349 228.451 167.037 228.631 166.711C228.779 166.441 228.933 166.163 229.113 165.855C229.162 165.779 229.238 165.725 229.326 165.704C229.414 165.683 229.506 165.695 229.585 165.74C229.663 165.784 229.722 165.857 229.749 165.943C229.776 166.029 229.769 166.122 229.73 166.203C229.556 166.51 229.408 166.786 229.257 167.053C229.076 167.374 228.901 167.696 228.703 168.043C228.672 168.098 228.626 168.143 228.571 168.175C228.516 168.206 228.453 168.222 228.39 168.221Z" fill="#363E44"/>
<path d="M245.964 158.521C245.964 157.292 245.476 156.113 244.607 155.245C243.738 154.376 242.559 153.887 241.331 153.887H241.319C241.647 153.177 241.758 152.386 241.638 151.612C241.519 150.839 241.174 150.118 240.648 149.539C240.121 148.961 239.436 148.55 238.677 148.358C237.919 148.166 237.121 148.202 236.382 148.461C236.338 147.669 236.059 146.908 235.58 146.277C235.101 145.645 234.444 145.17 233.694 144.914C232.944 144.657 232.134 144.631 231.368 144.837C230.603 145.044 229.917 145.474 229.397 146.073C228.867 145.245 228.087 144.606 227.17 144.249C226.254 143.892 225.247 143.836 224.297 144.087C223.346 144.339 222.499 144.886 221.879 145.65C221.259 146.414 220.898 147.354 220.847 148.337C220.728 148.326 220.609 148.319 220.489 148.319C219.958 148.308 219.431 148.404 218.937 148.6C218.444 148.795 217.994 149.087 217.615 149.459C217.236 149.831 216.935 150.274 216.729 150.763C216.524 151.253 216.418 151.778 216.418 152.309C216.418 152.84 216.524 153.365 216.729 153.855C216.935 154.344 217.236 154.787 217.615 155.159C217.994 155.531 218.444 155.823 218.937 156.018C219.431 156.214 219.958 156.31 220.489 156.299C220.551 156.299 220.614 156.299 220.677 156.289C220.98 160.175 225.1 160.609 225.345 160.667C224.89 162.45 224.436 164.234 223.983 166.017C224.664 166.207 225.477 166.476 226.158 166.66C226.539 164.786 227.272 164.055 228.314 163.863C229.955 163.561 231.502 165.053 231.665 166.661C231.815 168.13 231.298 169.67 229.898 170.504C231.563 170.53 233.304 170.504 235.118 170.425C236.065 170.382 236.989 170.325 237.891 170.253C238.437 169.89 241.943 167.471 242.611 162.964C243.576 162.687 244.424 162.104 245.029 161.302C245.634 160.501 245.962 159.525 245.964 158.521Z" fill="#B77250"/>
<path d="M202.407 191.137C181.493 197.544 170.795 207.974 174.803 215.536C177.385 220.404 189.612 221.445 206.386 217.292C205.374 210.238 203.814 199.647 202.407 191.137Z" fill="#E2A18D"/>
<path d="M195.251 208.263C183.363 189.971 175.283 176.774 172.629 172.787C172.178 172.077 171.627 171.436 170.994 170.882C167.771 168.099 164.465 169.596 159.748 168.208C154.389 166.642 152.257 162.725 151.073 163.514C150.247 164.063 150.634 165.763 152.626 168.671C150.859 166.637 148.342 163.986 147.222 164.966C145.988 166.166 148.581 169.625 150.25 171.648C148.229 169.204 146.423 168.51 145.935 169.212C145.165 170.318 146.292 172.577 149.089 175.701C146.555 174.083 145.699 174.069 145.419 174.795C144.907 176.121 147.254 178.651 149.672 180.561C152.393 182.715 155.253 183.443 157.062 183.859C164.058 197.534 165.577 200.943 171.474 211.863C178.167 224.275 194.366 220.193 195.251 208.263Z" fill="#E2A18D"/>
<path d="M163.779 170.485C161.072 165.665 161.115 163.357 161.891 162.952C163.199 162.272 167.193 165.437 172.038 171.977C169.701 171.767 166.118 170.694 163.779 170.485Z" fill="#E2A18D"/>
<path d="M156.961 171.571C156.922 171.571 156.883 171.565 156.847 171.553C156.188 171.331 155.551 171.049 154.944 170.709C154.065 170.218 153.254 169.611 152.535 168.905C152.469 168.839 152.432 168.749 152.432 168.656C152.432 168.563 152.469 168.473 152.534 168.407C152.6 168.34 152.689 168.302 152.782 168.301C152.875 168.299 152.965 168.335 153.033 168.399C153.704 169.061 154.46 169.631 155.282 170.093C155.851 170.409 156.448 170.673 157.065 170.881C157.145 170.908 157.213 170.962 157.257 171.034C157.301 171.106 157.317 171.191 157.304 171.274C157.29 171.357 157.247 171.433 157.183 171.487C157.119 171.542 157.037 171.571 156.953 171.571H156.961Z" fill="#363E44"/>
<path d="M154.324 174.223C154.286 174.223 154.248 174.217 154.212 174.204C153.553 173.983 152.916 173.701 152.31 173.362C151.43 172.87 150.62 172.264 149.9 171.558C149.863 171.526 149.834 171.487 149.813 171.444C149.792 171.4 149.78 171.353 149.779 171.304C149.777 171.256 149.785 171.208 149.802 171.163C149.82 171.118 149.846 171.076 149.88 171.042C149.914 171.007 149.954 170.98 149.999 170.962C150.044 170.944 150.092 170.935 150.14 170.936C150.189 170.937 150.236 170.947 150.28 170.967C150.324 170.987 150.364 171.016 150.396 171.052C151.538 172.174 152.92 173.023 154.437 173.534C154.517 173.56 154.585 173.615 154.629 173.687C154.673 173.759 154.689 173.844 154.675 173.928C154.661 174.011 154.618 174.086 154.554 174.141C154.489 174.195 154.407 174.224 154.323 174.223H154.324Z" fill="#363E44"/>
<path d="M153.33 178.649C153.291 178.649 153.253 178.642 153.217 178.63C151.598 178.086 150.124 177.181 148.907 175.982C148.84 175.916 148.802 175.827 148.801 175.733C148.801 175.639 148.837 175.549 148.903 175.482C148.969 175.415 149.058 175.377 149.152 175.376C149.246 175.375 149.336 175.412 149.403 175.478C150.544 176.6 151.926 177.449 153.444 177.958C153.523 177.985 153.59 178.04 153.633 178.112C153.676 178.184 153.692 178.269 153.679 178.352C153.665 178.435 153.623 178.51 153.559 178.564C153.495 178.619 153.414 178.649 153.33 178.649Z" fill="#363E44"/>
<path d="M280.49 227.431C260.741 231.481 247.964 234.485 243.623 235.321C242.863 235.484 242.084 235.538 241.308 235.481C237.385 235.16 236.22 232.024 232.247 229.812C227.738 227.302 223.777 228.441 223.525 227.148C223.35 226.248 224.724 225.397 227.927 224.823C225.443 224.984 222.065 225.043 221.983 223.67C221.972 222.079 225.932 221.538 228.345 221.327C225.426 221.583 223.797 220.845 223.941 220.068C224.169 218.844 226.387 218.119 230.258 217.931C227.55 217.314 226.984 216.762 227.28 216.104C227.82 214.908 231.005 214.819 233.834 215.163C237.019 215.555 239.353 216.964 240.804 217.894C254.341 213.622 263.313 210.882 274.177 207.209C276.4 206.452 280.49 227.431 280.49 227.431Z" fill="#E2A18D"/>
<path d="M269.42 185.625C291.564 202.839 289.502 223.946 281.001 227.288C276.182 229.18 263.699 218.103 252.817 199.276C258.924 194.815 261.88 190.833 269.42 185.625Z" fill="#E2A18D"/>
<path d="M284.512 197.543C284.512 197.543 269.6 175.417 235.261 179.117C214.13 181.393 188.61 196.09 188.61 196.09L197.37 222.867L206.102 220.274L208.975 241.787L271.99 231.05L269.299 213.259L284.512 197.543Z" fill="#8B865C"/>
<path d="M206.104 220.627C206.021 220.627 205.94 220.598 205.877 220.545C205.813 220.492 205.77 220.419 205.755 220.337C205.74 220.256 205.754 220.171 205.795 220.099C205.836 220.027 205.901 219.972 205.978 219.942L211.28 217.936C211.324 217.918 211.371 217.909 211.418 217.909C211.466 217.91 211.513 217.92 211.556 217.938C211.6 217.957 211.639 217.985 211.672 218.019C211.705 218.053 211.73 218.094 211.747 218.138C211.764 218.182 211.772 218.23 211.77 218.277C211.768 218.325 211.757 218.371 211.737 218.414C211.717 218.457 211.689 218.496 211.653 218.527C211.618 218.559 211.577 218.584 211.532 218.599L206.231 220.604C206.19 220.62 206.147 220.627 206.104 220.627Z" fill="#363E44"/>
<path d="M284.512 197.315C284.512 197.315 269.6 175.19 235.261 178.89C214.13 181.166 188.61 195.863 188.61 195.863L197.37 222.64L206.102 220.047L208.975 241.56L271.99 230.823L269.299 213.032L284.512 197.315Z" fill="#1DC49D"/>
<path d="M292.951 25.9507H171.858V117.733H292.951V25.9507Z" fill="#A2D8CB"/>
<path d="M289.153 106.574V29.7505L175.658 29.7505V106.574H289.153Z" fill="#F6F8F6"/>
<path d="M234.684 111.704C234.684 112.155 234.551 112.596 234.3 112.971C234.05 113.345 233.694 113.638 233.277 113.81C232.861 113.983 232.402 114.028 231.96 113.94C231.518 113.852 231.112 113.635 230.793 113.316C230.474 112.997 230.257 112.591 230.169 112.149C230.081 111.707 230.126 111.248 230.299 110.832C230.471 110.415 230.763 110.059 231.138 109.809C231.513 109.558 231.954 109.424 232.405 109.424C232.704 109.424 233.001 109.483 233.277 109.597C233.554 109.712 233.805 109.88 234.017 110.092C234.229 110.303 234.397 110.555 234.511 110.831C234.626 111.108 234.685 111.405 234.684 111.704Z" fill="#F7F1EB"/>
<path d="M292.951 120.222C292.951 121.471 292.705 122.708 292.227 123.862C291.75 125.016 291.049 126.065 290.166 126.948C289.283 127.832 288.234 128.532 287.08 129.01C285.926 129.489 284.689 129.735 283.44 129.735H156.512C153.99 129.735 151.57 128.732 149.786 126.948C148.002 125.165 147 122.745 147 120.222H292.951Z" fill="#A2D8CB"/>
<path d="M261.078 129.103C261.03 129.106 260.981 129.1 260.935 129.083C260.89 129.067 260.848 129.041 260.812 129.008C260.777 128.975 260.748 128.935 260.729 128.89C260.709 128.846 260.699 128.798 260.699 128.749C260.699 128.7 260.709 128.652 260.729 128.608C260.748 128.563 260.777 128.523 260.812 128.49C260.848 128.456 260.89 128.431 260.935 128.414C260.981 128.398 261.03 128.391 261.078 128.395C262.983 128.392 264.81 127.634 266.157 126.287C267.504 124.94 268.262 123.114 268.265 121.209C268.261 121.16 268.268 121.111 268.284 121.065C268.301 121.02 268.326 120.978 268.359 120.942C268.393 120.907 268.433 120.878 268.477 120.859C268.522 120.84 268.57 120.83 268.619 120.83C268.667 120.83 268.716 120.84 268.76 120.859C268.805 120.878 268.845 120.907 268.878 120.942C268.911 120.978 268.937 121.02 268.953 121.065C268.97 121.111 268.976 121.16 268.973 121.209C268.97 123.302 268.138 125.308 266.658 126.788C265.178 128.268 263.171 129.101 261.078 129.103Z" fill="#F6F8F6"/>
<path d="M212.649 126.867H198.419C197.254 126.866 196.137 126.402 195.313 125.578C194.489 124.754 194.025 123.637 194.024 122.471C194.024 122.425 194.033 122.379 194.05 122.336C194.068 122.292 194.094 122.253 194.127 122.22C194.16 122.187 194.199 122.161 194.242 122.143C194.285 122.125 194.331 122.116 194.377 122.116H216.691C216.785 122.116 216.875 122.154 216.942 122.22C217.008 122.287 217.046 122.377 217.046 122.471C217.044 123.637 216.58 124.754 215.756 125.578C214.932 126.402 213.814 126.866 212.649 126.867ZM194.748 122.825C194.838 123.737 195.263 124.583 195.942 125.199C196.62 125.815 197.503 126.157 198.419 126.158H212.649C213.565 126.157 214.448 125.815 215.126 125.199C215.805 124.583 216.23 123.737 216.32 122.825H194.748Z" fill="#F6F8F6"/>
<path d="M256.285 105.907H195.627C199.323 97.0711 203.133 88.9933 206.885 81.7012C223.138 81.9839 235.343 82.6555 249.96 82.7535C252.712 90.0826 254.778 97.8904 256.285 105.907Z" fill="#009B7C"/>
<path d="M197.937 44.3799C179.856 51.8857 171.031 58.2605 174.432 64.8731C176.403 68.708 189.232 68.0589 203.813 62.8922C202.346 56.8805 199.873 51.6126 197.937 44.3799Z" fill="#9E6C5A"/>
<path d="M257.21 43.8594C263.941 51.0519 284.576 70.7098 276.678 78.7136C270.146 85.3327 250.848 65.3615 243.724 58.6204L257.21 43.8594Z" fill="#9E6C5A"/>
<path d="M262.672 42.5077C262.672 42.5077 244.653 33.9399 228.109 35.418C211.564 36.896 195.393 43.3945 195.393 43.3945L203.294 63.4765L200.932 88.791L259.425 83.144L254.994 64.7441L262.672 42.5077Z" fill="white"/>
<path d="M192.44 60.1206C185.964 43.626 181.685 31.8002 180.23 28.2015C179.986 27.5634 179.652 26.9635 179.239 26.4198C177.129 23.679 174.258 24.3313 170.724 22.4581C166.708 20.3374 165.657 16.8721 164.584 17.3074C163.837 17.6095 163.867 19.0281 164.979 21.6644C163.904 19.759 162.333 17.2384 161.284 17.8344C160.106 18.5895 161.605 21.7672 162.604 23.6453C161.393 21.372 160.069 20.5254 159.566 21.0041C158.774 21.7592 159.303 23.7353 161.012 26.6833C159.26 24.982 158.582 24.8309 158.239 25.3627C157.616 26.3266 159.073 28.7268 160.685 30.6435C162.498 32.8027 164.656 33.8566 166.031 34.4751C169.37 46.497 171.493 54.2358 173.998 63.9972C174.119 64.4694 174.337 64.9112 174.638 65.2947C174.939 65.6782 175.316 65.9951 175.746 66.2251C176.175 66.4552 176.648 66.5934 177.134 66.6311C177.62 66.6688 178.109 66.6051 178.569 66.444C183.824 64.6045 186.754 63.4735 192.44 60.1206Z" fill="#9E6C5A"/>
<path d="M190.086 54.44C190.016 54.4383 189.948 54.4159 189.891 54.3756C189.834 54.3352 189.79 54.2788 189.765 54.2135C189.058 52.3928 188.384 50.6437 187.742 48.9665C187.723 48.9224 187.712 48.8748 187.711 48.8264C187.71 48.7781 187.719 48.73 187.738 48.6853C187.756 48.6406 187.783 48.6001 187.818 48.5663C187.853 48.5325 187.894 48.5062 187.939 48.4889C187.984 48.4716 188.032 48.4636 188.081 48.4656C188.129 48.4676 188.176 48.4794 188.22 48.5004C188.263 48.5214 188.302 48.551 188.334 48.5875C188.366 48.624 188.39 48.6666 188.404 48.7127C189.047 50.3835 189.721 52.1314 190.425 53.9565C190.446 54.0102 190.453 54.0681 190.446 54.1252C190.44 54.1823 190.419 54.2369 190.386 54.2844C190.354 54.3318 190.31 54.3706 190.259 54.3974C190.209 54.4242 190.152 54.4383 190.094 54.4384L190.086 54.44Z" fill="#363E44"/>
<path d="M173.555 24.9273C172.184 20.6538 172.591 18.8223 173.28 18.6263C174.432 18.297 177.094 21.4667 179.883 27.4624C178.056 26.913 175.381 25.4751 173.555 24.9273Z" fill="#9E6C5A"/>
<path d="M172.952 32.7337C172.877 32.7336 172.804 32.7098 172.744 32.6657C172.683 32.6215 172.638 32.5593 172.615 32.4879C172.296 31.4787 171.688 30.5851 170.867 29.9174C169.801 29.0781 168.464 28.6575 167.109 28.735C167.063 28.7383 167.016 28.7322 166.972 28.7172C166.928 28.7022 166.887 28.6784 166.852 28.6475C166.817 28.6165 166.789 28.5789 166.769 28.5368C166.749 28.4947 166.737 28.449 166.735 28.4025C166.732 28.356 166.739 28.3095 166.754 28.2655C166.769 28.2216 166.793 28.181 166.824 28.1462C166.854 28.1115 166.892 28.0831 166.934 28.0629C166.976 28.0426 167.021 28.0308 167.068 28.0281C168.598 27.9414 170.108 28.4174 171.312 29.3664C172.241 30.1209 172.929 31.1314 173.29 32.2727C173.307 32.3258 173.312 32.3824 173.304 32.4377C173.295 32.4931 173.273 32.5456 173.24 32.5908C173.207 32.6361 173.164 32.6728 173.114 32.6979C173.064 32.7231 173.008 32.7359 172.952 32.7353V32.7337Z" fill="#363E44"/>
<path d="M177.417 25.384C177.357 25.3845 177.299 25.3696 177.247 25.3406C176.424 24.8908 175.479 24.6385 174.488 24.3767C174.006 24.2481 173.505 24.1132 172.984 23.9493C172.895 23.9212 172.82 23.8587 172.777 23.7755C172.734 23.6924 172.725 23.5954 172.753 23.5059C172.781 23.4164 172.844 23.3418 172.927 23.2984C173.01 23.255 173.107 23.2465 173.197 23.2746C173.704 23.4352 174.196 23.5654 174.671 23.6923C175.709 23.9702 176.689 24.2337 177.587 24.7237C177.657 24.761 177.712 24.8206 177.744 24.893C177.776 24.9654 177.783 25.0464 177.763 25.123C177.743 25.1997 177.699 25.2675 177.636 25.3157C177.573 25.3639 177.496 25.3896 177.417 25.3888V25.384Z" fill="#363E44"/>
<path d="M168.003 24.7522C167.94 24.752 167.878 24.7354 167.824 24.704C167.333 24.418 166.869 24.0873 166.438 23.716C165.814 23.177 165.265 22.5579 164.804 21.8749C164.775 21.8364 164.755 21.7924 164.744 21.7458C164.732 21.6991 164.731 21.6507 164.739 21.6034C164.747 21.5561 164.765 21.5109 164.791 21.4706C164.817 21.4303 164.851 21.3957 164.89 21.3689C164.93 21.342 164.975 21.3235 165.022 21.3145C165.069 21.3054 165.118 21.306 165.164 21.3162C165.211 21.3264 165.256 21.346 165.295 21.3738C165.334 21.4017 165.367 21.4371 165.392 21.478C166.111 22.5518 167.064 23.4478 168.181 24.0983C168.248 24.1379 168.299 24.1983 168.329 24.2701C168.358 24.3419 168.363 24.4213 168.342 24.4962C168.322 24.571 168.278 24.6372 168.217 24.6846C168.155 24.732 168.08 24.758 168.003 24.7586V24.7522Z" fill="#363E44"/>
<path d="M165.475 26.4342C165.413 26.4338 165.352 26.4172 165.299 26.386C164.09 25.6834 163.058 24.7154 162.278 23.5553C162.226 23.4773 162.207 23.3817 162.225 23.2895C162.243 23.1973 162.297 23.1161 162.375 23.0637C162.453 23.0112 162.548 22.992 162.64 23.01C162.733 23.0281 162.814 23.0821 162.866 23.1601C163.586 24.2307 164.539 25.1243 165.654 25.7739C165.734 25.8209 165.793 25.898 165.817 25.9884C165.842 26.0787 165.829 26.1749 165.782 26.2559C165.751 26.3098 165.706 26.3546 165.652 26.3859C165.599 26.4172 165.538 26.4339 165.475 26.4342Z" fill="#363E44"/>
<path d="M163.965 29.7985C163.903 29.7983 163.841 29.7817 163.787 29.7503C163.296 29.4634 162.832 29.1327 162.401 28.7622C161.777 28.2235 161.228 27.6037 160.768 26.9195C160.716 26.8415 160.697 26.7459 160.715 26.6538C160.733 26.5616 160.787 26.4803 160.865 26.4279C160.943 26.3755 161.038 26.3562 161.13 26.3743C161.223 26.3924 161.304 26.4463 161.356 26.5243C162.076 27.5949 163.029 28.4882 164.144 29.1366C164.211 29.1758 164.264 29.2362 164.293 29.3084C164.323 29.3805 164.328 29.4604 164.308 29.5358C164.288 29.6111 164.243 29.6777 164.181 29.7252C164.119 29.7726 164.043 29.7984 163.965 29.7985Z" fill="#363E44"/>
<path d="M269.33 64.0811C261.723 65.7358 243.612 68.7401 241.858 69.1112C238.574 69.7924 221.051 73.9051 221.371 76.5013C221.523 77.74 224.936 77.1006 226.083 76.8516C225.255 77.5103 223.512 78.7377 224.034 80.0342C224.651 81.5588 227.458 80.5418 227.546 80.5547C226.639 81.1379 225.263 82.3428 225.619 83.3308C226.081 84.6161 227.807 84.5984 229.007 84.2449C228.93 84.4458 227.561 85.7905 227.882 86.5648C228.234 87.4243 229.751 87.5802 231.29 87.3906C234.206 86.7865 245.668 85.053 251.277 84.4747C264.451 83.1187 268.514 81.6118 274.766 79.8349C277.216 79.1361 273.063 65.9864 269.33 64.0811Z" fill="#9E6C5A"/>
<path d="M255.486 66.8653C255.398 66.8646 255.313 66.8311 255.248 66.7715C255.184 66.7118 255.143 66.6302 255.135 66.5425C255.127 66.4548 255.152 66.3673 255.205 66.2969C255.258 66.2265 255.335 66.1783 255.422 66.1616C259.117 65.4901 266.748 64.0827 269.259 63.5654C269.348 63.553 269.439 63.575 269.513 63.627C269.586 63.679 269.637 63.7571 269.656 63.8454C269.674 63.9338 269.658 64.0257 269.611 64.1026C269.563 64.1795 269.489 64.2356 269.402 64.2594C266.884 64.7784 259.24 66.1873 255.55 66.8589C255.529 66.8633 255.508 66.8655 255.486 66.8653Z" fill="#363E44"/>
<path d="M226.015 77.0892C225.938 77.0898 225.863 77.065 225.801 77.0186C225.739 76.9722 225.694 76.9068 225.673 76.8324C225.651 76.758 225.655 76.6787 225.684 76.6067C225.712 76.5347 225.763 76.4739 225.829 76.4337C226.441 76.0547 227.078 75.7187 227.736 75.428C228.917 74.9066 230.158 74.5321 231.431 74.3131C231.521 74.3022 231.613 74.3265 231.685 74.3809C231.758 74.4353 231.808 74.5156 231.823 74.6053C231.839 74.695 231.819 74.7872 231.769 74.8628C231.718 74.9385 231.64 74.9919 231.552 75.0119C229.652 75.3344 227.832 76.0218 226.194 77.0362C226.14 77.0694 226.079 77.0877 226.015 77.0892Z" fill="#363E44"/>
<path d="M227.463 80.8358C227.382 80.8372 227.303 80.811 227.239 80.7614C227.175 80.7118 227.13 80.6418 227.111 80.563C227.092 80.4843 227.101 80.4015 227.136 80.3284C227.171 80.2553 227.229 80.1962 227.302 80.161L227.722 79.9683C228.903 79.4473 230.144 79.0734 231.417 78.8549C231.464 78.8443 231.512 78.8434 231.56 78.8521C231.607 78.8609 231.652 78.8793 231.692 78.906C231.732 78.9328 231.766 78.9674 231.793 79.0078C231.819 79.0482 231.837 79.0935 231.845 79.1409C231.853 79.1884 231.851 79.237 231.84 79.2838C231.829 79.3307 231.808 79.3747 231.78 79.4134C231.751 79.452 231.715 79.4843 231.673 79.5085C231.631 79.5326 231.585 79.548 231.537 79.5538C230.32 79.7617 229.133 80.1189 228.003 80.6173C227.866 80.6767 227.734 80.7378 227.604 80.8004C227.56 80.8221 227.512 80.8341 227.463 80.8358Z" fill="#363E44"/>
<path d="M229.079 84.5435C228.995 84.5444 228.913 84.5151 228.848 84.4609C228.783 84.4066 228.74 84.331 228.726 84.2478C228.713 84.1646 228.729 84.0791 228.773 84.0069C228.817 83.9348 228.885 83.8806 228.965 83.8543C229.765 83.5799 230.587 83.3704 231.421 83.2277C231.467 83.2195 231.514 83.2204 231.56 83.2305C231.605 83.2406 231.648 83.2597 231.686 83.2866C231.724 83.3136 231.756 83.3478 231.781 83.3873C231.805 83.4269 231.822 83.4709 231.829 83.5169C231.845 83.6096 231.824 83.7047 231.769 83.7815C231.715 83.8583 231.633 83.9105 231.54 83.9266C230.744 84.063 229.959 84.2628 229.195 84.5242C229.157 84.5369 229.118 84.5434 229.079 84.5435Z" fill="#363E44"/>
<path d="M233.06 7.19096C232.644 6.97087 228.615 4.91929 224.933 6.73952C222.201 8.09385 220.852 10.7238 219.268 15.4776C217.403 21.0748 217.07 24.6816 218.196 26.4022C219.976 29.1173 228.96 28.3638 233.7 24.7555C237.121 22.1496 238.706 17.6352 237.97 13.3666C237.234 9.09795 233.327 7.33234 233.06 7.19096Z" fill="#9E6C5A"/>
<path d="M227.696 43.8433H228.078C230.855 43.8433 233.107 41.5919 233.107 38.8147V23.3211C233.107 20.5439 230.855 18.2926 228.078 18.2926H227.696C224.919 18.2926 222.667 20.5439 222.667 23.3211V38.8147C222.667 41.5919 224.919 43.8433 227.696 43.8433Z" fill="#9E6C5A"/>
<path d="M223.151 28.3862C223.021 28.3862 222.894 28.3862 222.77 28.3862C222.676 28.3837 222.587 28.3441 222.522 28.276C222.458 28.208 222.422 28.117 222.425 28.0231C222.425 27.9764 222.435 27.9304 222.454 27.8876C222.473 27.8448 222.5 27.8061 222.533 27.774C222.567 27.7418 222.607 27.7167 222.651 27.7002C222.695 27.6836 222.741 27.676 222.788 27.6777C225.929 27.758 230.433 26.7989 233.487 24.4742C233.563 24.4246 233.654 24.4055 233.743 24.4206C233.831 24.4357 233.911 24.4839 233.966 24.5556C234.02 24.6273 234.045 24.717 234.036 24.8066C234.027 24.8962 233.984 24.979 233.916 25.0381C230.845 27.3693 226.375 28.3862 223.151 28.3862Z" fill="#363E44"/>
<path d="M247.127 16.8095C251.573 15.8848 254.427 11.531 253.502 7.08502C252.578 2.63909 248.224 -0.21538 243.778 0.709375C239.332 1.63413 236.477 5.98793 237.402 10.4339C238.327 14.8798 242.681 17.7343 247.127 16.8095Z" fill="#363E44"/>
<path d="M248.166 18.1415C247.027 18.1378 245.893 17.9849 244.793 17.6869C242.397 17.0442 240.31 15.7976 238.921 14.1749C237.497 12.5121 236.967 10.6534 237.425 8.93916C238.358 5.45293 243.181 3.70338 248.178 5.03843C250.575 5.68106 252.66 6.92775 254.05 8.55198C255.473 10.2132 256.003 12.0719 255.545 13.7861C255.088 15.5003 253.698 16.8466 251.637 17.576C250.52 17.9591 249.347 18.1503 248.166 18.1415ZM244.809 5.28906C241.49 5.28906 238.749 6.73496 238.113 9.11748C237.716 10.5987 238.196 12.2294 239.462 13.709C240.76 15.2256 242.72 16.3936 244.981 16.9976C247.241 17.6017 249.521 17.568 251.407 16.9029C253.242 16.2602 254.471 15.081 254.867 13.5982C255.264 12.1153 254.784 10.4863 253.518 9.00824C252.22 7.49165 250.26 6.32368 248.001 5.71801C246.96 5.44125 245.886 5.30138 244.809 5.30191V5.28906Z" fill="#363E44"/>
<path d="M247.62 20.2135C246.943 20.2082 246.269 20.1126 245.617 19.9291C243.556 19.362 241.54 18.0013 239.939 16.1104C236.603 12.1598 236.132 7.05099 238.89 4.72148C240.246 3.57601 242.155 3.26594 244.263 3.84591C246.324 4.41141 248.342 5.77378 249.942 7.66309C251.542 9.5524 252.541 11.7759 252.755 13.903C252.973 16.0782 252.347 17.9081 250.988 19.0439C250.082 19.8215 248.922 20.2135 247.62 20.2135ZM239.347 5.26289C236.887 7.34017 237.396 12.0008 240.471 15.6541C241.981 17.4406 243.872 18.7162 245.797 19.2464C247.675 19.7621 249.354 19.5002 250.525 18.5122C251.696 17.5241 252.236 15.9095 252.042 13.9736C251.842 11.9863 250.903 9.90905 249.392 8.12095C247.882 6.33285 245.993 5.05725 244.067 4.52869C242.19 4.01299 240.511 4.27325 239.339 5.26289H239.347Z" fill="#363E44"/>
<path d="M222.897 8.22715C226.37 3.21148 235.428 4.22361 239.208 8.65931C243.246 13.4003 241.898 20.5478 239.208 24.0823C237.613 26.1804 234.263 28.8505 232.607 27.5155C230.602 25.8993 233.621 22.2926 231.627 16.8367C230.093 12.6179 224.275 11.6331 222.897 8.22715Z" fill="#363E44"/>
<path d="M233.977 22.59C235.494 21.2091 235.778 19.0503 234.611 17.7682C233.444 16.486 231.268 16.5661 229.751 17.947C228.234 19.3278 227.95 21.4866 229.117 22.7688C230.284 24.0509 232.46 23.9708 233.977 22.59Z" fill="#9E6C5A"/>
<path d="M232.63 22.0228C232.553 22.0226 232.478 21.9977 232.417 21.9516C232.356 21.9056 232.311 21.8409 232.289 21.7673C232.268 21.6937 232.271 21.6152 232.298 21.5433C232.325 21.4715 232.374 21.4103 232.438 21.3689C232.529 21.3116 232.615 21.2466 232.694 21.1745C233.319 20.6058 233.452 19.7286 232.993 19.2241C232.884 19.1062 232.749 19.0149 232.599 18.9574C232.517 18.9202 232.451 18.8527 232.417 18.7689C232.382 18.6851 232.381 18.5913 232.414 18.5067C232.446 18.4221 232.51 18.3531 232.591 18.3139C232.673 18.2746 232.767 18.2681 232.853 18.2955C233.106 18.3928 233.333 18.5473 233.516 18.747C234.239 19.5422 234.085 20.866 233.171 21.6982C233.061 21.7972 232.944 21.887 232.819 21.9665C232.763 22.0034 232.697 22.023 232.63 22.0228Z" fill="#363E44"/>
<path d="M229.341 17.166C228.438 16.4839 227.396 16.0103 226.288 15.7795C225.916 15.7088 226.054 18.8191 226.438 18.7179C227.507 18.4172 228.497 17.8876 229.341 17.166Z" fill="white"/>
<path d="M225.121 15.6832C225.512 15.6738 225.903 15.7067 226.287 15.7812C226.562 16.2162 226.722 16.7145 226.75 17.2287C226.778 17.7428 226.674 18.2556 226.448 18.718C226.048 18.8245 225.637 18.8859 225.223 18.9011C222.92 18.9702 221.003 17.4167 221.003 17.4167C221.003 17.4167 222.817 15.7523 225.121 15.6832Z" fill="#373E44"/>
<path d="M221.384 22.9882C221.155 22.9864 220.93 22.9342 220.724 22.8353C220.518 22.7365 220.336 22.5934 220.192 22.4162C220.138 22.343 220.115 22.2522 220.127 22.1624C220.138 22.0726 220.184 21.9906 220.254 21.9331C220.323 21.8757 220.413 21.8471 220.503 21.8533C220.593 21.8595 220.678 21.8999 220.739 21.9664C220.845 22.1029 220.992 22.2016 221.159 22.2479C221.325 22.2942 221.502 22.2856 221.663 22.2234C221.785 22.1605 221.889 22.0693 221.968 21.9574C222.047 21.8456 222.098 21.7164 222.116 21.5808C222.132 21.4902 222.181 21.409 222.255 21.3544C222.329 21.2997 222.421 21.2758 222.512 21.2876C222.603 21.2995 222.686 21.3462 222.744 21.418C222.801 21.4897 222.828 21.5809 222.82 21.6724C222.785 21.9293 222.686 22.1732 222.532 22.3822C222.379 22.5912 222.176 22.7586 221.941 22.8693C221.765 22.9466 221.576 22.9871 221.384 22.9882Z" fill="#363E44"/>
<path d="M218.726 19.8059C218.675 19.806 218.625 19.795 218.578 19.7736C218.531 19.7523 218.49 19.7211 218.457 19.6822C217.952 19.091 217.783 18.6042 217.939 18.1929C218.047 17.9587 218.235 17.7711 218.469 17.6644C218.621 17.582 218.761 17.4817 218.889 17.3655C219.117 17.1452 219.286 16.872 219.384 16.5703C219.414 16.4815 219.478 16.4084 219.563 16.3671C219.647 16.3258 219.745 16.3197 219.833 16.3502C219.922 16.3807 219.995 16.4452 220.037 16.5295C220.078 16.6139 220.084 16.7112 220.053 16.8C219.919 17.2108 219.686 17.5822 219.374 17.8813C219.209 18.0342 219.025 18.1664 218.828 18.2749C218.68 18.3616 218.619 18.4002 218.601 18.4468C218.563 18.5512 218.645 18.8098 218.996 19.2227C219.027 19.258 219.05 19.2989 219.064 19.3431C219.078 19.3872 219.084 19.4338 219.08 19.4801C219.076 19.5264 219.063 19.5715 219.042 19.6128C219.021 19.6541 218.992 19.6908 218.956 19.7208C218.893 19.7763 218.811 19.8066 218.726 19.8059Z" fill="#363E44"/>
<path d="M60.4548 255.872L55.2222 243.919L49.5414 246.404C48.2482 244.804 46.7585 243.373 45.1073 242.145L47.3661 236.362L35.2157 231.609L32.9553 237.393C30.9094 237.175 28.8443 237.216 26.8086 237.515L24.3217 231.826L12.3705 237.064L14.8542 242.751C13.2542 244.044 11.8234 245.534 10.5953 247.185L4.81165 244.926L0.0594482 257.077L5.83502 259.337C5.61734 261.383 5.65836 263.448 5.95712 265.484L0.274726 267.971L5.50728 279.925L11.1881 277.438C12.4812 279.038 13.971 280.469 15.6222 281.697L13.3633 287.481L25.5137 292.234L27.7742 286.451C29.8201 286.668 31.8852 286.627 33.9209 286.329L36.4078 292.011L48.3686 286.771L45.8817 281.09C47.4821 279.797 48.913 278.307 50.1407 276.656L55.9243 278.914L60.6781 266.764L54.8945 264.504C55.1122 262.458 55.0711 260.393 54.7724 258.357L60.4548 255.872ZM35.8134 274.358C33.3529 275.435 30.6282 275.759 27.984 275.287C25.3397 274.816 22.8947 273.571 20.958 271.71C19.0213 269.849 17.68 267.455 17.1037 264.832C16.5274 262.208 16.7419 259.473 17.7202 256.971C18.6985 254.47 20.3966 252.315 22.5997 250.779C24.8029 249.242 27.4121 248.394 30.0976 248.34C32.783 248.287 35.4239 249.031 37.6864 250.478C39.9489 251.926 41.7313 254.012 42.8083 256.472C43.5236 258.106 43.9101 259.865 43.9457 261.648C43.9812 263.431 43.6652 265.203 43.0156 266.864C42.3661 268.525 41.3957 270.042 40.1599 271.328C38.9242 272.613 37.4472 273.643 35.8134 274.358Z" fill="#A2D8CB"/>
<path d="M182.201 268.554L172.753 268.419L172.813 264.178C171.639 263.82 170.507 263.335 169.439 262.732L166.398 265.688L159.811 258.911L162.852 255.955C162.277 254.871 161.822 253.728 161.496 252.545L157.255 252.484L157.39 243.035L161.631 243.096C161.988 241.923 162.473 240.791 163.077 239.723L160.121 236.68L166.899 230.093L169.855 233.134C170.938 232.56 172.082 232.106 173.264 231.78L173.325 227.539L182.775 227.674L182.714 231.915C183.888 232.272 185.019 232.756 186.088 233.361L189.129 230.405L195.716 237.181L192.674 240.137C193.25 241.221 193.704 242.365 194.03 243.548L198.272 243.609L198.135 253.057L193.894 252.996C193.536 254.17 193.052 255.301 192.448 256.37L195.402 259.411L188.626 265.998L185.67 262.955C184.586 263.53 183.443 263.985 182.261 264.311L182.201 268.554ZM173.47 267.72L181.502 267.836L181.56 263.765L181.822 263.696C183.128 263.359 184.387 262.859 185.569 262.208L185.805 262.078L188.642 264.997L194.403 259.398L191.566 256.479L191.702 256.246C192.387 255.086 192.923 253.845 193.298 252.551L193.373 252.292L197.444 252.35L197.558 244.317L193.487 244.26L193.42 243.998C193.083 242.692 192.583 241.433 191.931 240.253L191.8 240.015L194.721 237.178L189.122 231.418L186.2 234.249L185.967 234.111C184.807 233.427 183.566 232.891 182.272 232.516L182.012 232.442L182.07 228.369L174.037 228.255L173.979 232.326L173.717 232.394C172.411 232.731 171.152 233.232 169.971 233.883L169.734 234.013L166.897 231.094L161.138 236.691L163.975 239.612L163.838 239.845C163.153 241.004 162.617 242.246 162.243 243.54L162.168 243.799L158.096 243.741L157.982 251.773L162.053 251.831L162.121 252.093C162.458 253.399 162.957 254.657 163.609 255.838L163.74 256.074L160.816 258.919L166.415 264.679L169.334 261.842L169.567 261.98C170.727 262.664 171.969 263.2 173.262 263.574L173.523 263.649L173.47 267.72ZM177.772 257.498H177.634C175.161 257.479 172.796 256.482 171.057 254.724C169.318 252.965 168.347 250.589 168.356 248.116C168.365 245.643 169.354 243.275 171.106 241.529C172.858 239.784 175.23 238.804 177.703 238.804C180.176 238.804 182.548 239.784 184.3 241.529C186.052 243.275 187.041 245.643 187.05 248.116C187.059 250.589 186.088 252.965 184.349 254.724C182.61 256.482 180.245 257.479 177.772 257.498ZM177.772 239.305C176.34 239.306 174.93 239.658 173.667 240.332C172.403 241.005 171.324 241.978 170.524 243.167C169.725 244.355 169.23 245.721 169.082 247.145C168.935 248.569 169.139 250.008 169.678 251.335C170.217 252.662 171.073 253.836 172.172 254.754C173.27 255.672 174.578 256.306 175.979 256.601C177.381 256.895 178.833 256.841 180.208 256.443C181.584 256.044 182.84 255.314 183.867 254.317L184.115 254.571L183.867 254.317C185.116 253.104 185.973 251.547 186.331 249.844C186.689 248.141 186.531 246.37 185.876 244.758C185.221 243.145 184.1 241.765 182.657 240.794C181.213 239.822 179.512 239.304 177.772 239.305Z" fill="white"/>
<g clip-path="url(#clip2_6880_534114)">
<path d="M239.5 60.0293C237.568 60.0293 236 58.4616 236 56.5293C236 54.597 237.568 53.0293 239.5 53.0293C241.432 53.0293 243 54.597 243 56.5293C243 58.4616 241.432 60.0293 239.5 60.0293Z" fill="#009B7C"/>
<path d="M239.5 58.0293C238.672 58.0293 238 57.3577 238 56.5293C238 55.7009 238.672 55.0293 239.5 55.0293C240.328 55.0293 241 55.7009 241 56.5293C241 57.3577 240.328 58.0293 239.5 58.0293Z" fill="#F89D26"/>
</g>
<g clip-path="url(#clip3_6880_534114)">
<path d="M197.05 196.529C197.05 198.434 198.595 199.979 200.5 199.979C202.405 199.979 203.95 198.434 203.95 196.529C203.95 194.625 202.405 193.079 200.5 193.079C198.595 193.079 197.05 194.625 197.05 196.529Z" fill="#009B7C" stroke="white" stroke-width="0.1"/>
<path d="M200.5 198.029C199.672 198.029 199 197.358 199 196.529C199 195.701 199.672 195.029 200.5 195.029C201.328 195.029 202 195.701 202 196.529C202 197.358 201.328 198.029 200.5 198.029Z" fill="#F89D26"/>
</g>
</g>
<defs>
<clipPath id="clip0_6880_534114">
<rect width="294" height="294" fill="white"/>
</clipPath>
<clipPath id="clip1_6880_534114">
<rect width="10" height="10" fill="white" transform="matrix(-1 0 0 1 96 139)"/>
</clipPath>
<clipPath id="clip2_6880_534114">
<rect width="7" height="7" fill="white" transform="matrix(-1 0 0 1 243 53)"/>
</clipPath>
<clipPath id="clip3_6880_534114">
<rect width="7" height="7" fill="white" transform="matrix(-1 0 0 1 204 193)"/>
</clipPath>
</defs>
</svg>
