<svg width="270" height="290" viewBox="0 0 270 290" fill="none" xmlns="http://www.w3.org/2000/svg">
<circle cx="131" cy="146" r="119" fill="#E9FAF6"/>
<path d="M29.7445 279.065C30.0761 286.887 69.9901 291.515 118.875 289.409C141.442 288.432 161.969 286.19 177.505 283.295C180.937 283.537 184.381 283.582 187.819 283.43C207.929 282.581 223.949 275.524 223.609 267.703C223.481 264.604 220.794 261.852 216.356 259.712C211.917 257.572 209.553 252.732 209.783 247.764C209.783 247.543 209.783 247.322 209.783 247.101C209.196 233.625 170.285 224.36 122.871 226.406C75.4576 228.453 37.4824 241.03 38.0691 254.506C38.3242 259.814 29.5999 275.193 29.7445 279.065Z" fill="#DDDDDD"/>
<path d="M107.846 228.164C109.241 228.589 148.661 227.315 150.107 226.279C150.668 225.914 150.813 220.165 150.796 213.218V212.998C150.796 211.571 150.175 187.564 150.175 187.564L122.599 188.413L125.371 213.575V214.008C125.371 214.008 110.516 221.243 109.02 222.5C107.523 223.757 106.452 227.757 107.846 228.164Z" fill="#AD6359"/>
<path d="M107.846 228.173C109.241 228.589 148.661 227.281 150.107 226.279C150.668 225.906 150.821 220.165 150.796 213.219V212.998C150.796 212.607 150.796 210.663 150.677 207.716L124.827 208.701L125.354 213.558V213.983C125.354 213.983 110.491 221.227 108.986 222.475C107.48 223.723 106.452 227.757 107.846 228.173Z" fill="#EBEBEB"/>
<path d="M107.549 228.334C108.952 228.759 148.738 227.434 150.226 226.424C150.787 226.05 150.932 220.25 150.915 213.235L125.261 214.017C125.261 214.017 110.253 221.328 108.739 222.611C107.225 223.893 106.137 227.918 107.549 228.334Z" fill="#F89D26"/>
<path d="M108.067 226.729C114.725 226.347 141.646 225.421 148.262 225.54C148.313 225.54 148.313 225.583 148.262 225.583C141.663 226.109 114.742 226.823 108.067 226.84C107.923 226.84 107.923 226.738 108.067 226.729Z" fill="#2F2F2E"/>
<path d="M111.247 221.09C111.989 221.047 112.731 221.157 113.428 221.414C114.125 221.671 114.76 222.07 115.295 222.585C116.263 223.504 116.838 224.76 116.902 226.092C116.902 226.135 116.834 226.135 116.826 226.092C116.554 224.781 115.865 223.594 114.861 222.707C113.857 221.821 112.592 221.283 111.256 221.175C111.245 221.176 111.233 221.173 111.225 221.166C111.216 221.159 111.21 221.148 111.209 221.137C111.208 221.126 111.211 221.115 111.219 221.106C111.226 221.097 111.236 221.092 111.247 221.09V221.09Z" fill="#2F2F2E"/>
<path d="M122.693 214.764C125.363 214.637 128.483 215.477 130.218 217.6C130.286 217.685 130.167 217.779 130.09 217.736C127.712 216.599 125.221 215.714 122.659 215.095C122.621 215.083 122.589 215.059 122.567 215.027C122.546 214.994 122.536 214.955 122.54 214.916C122.544 214.877 122.561 214.84 122.589 214.813C122.617 214.785 122.654 214.768 122.693 214.764V214.764Z" fill="#2F2F2E"/>
<path d="M120.66 215.639C123.322 215.511 126.451 216.343 128.186 218.475C128.254 218.551 128.135 218.645 128.05 218.611C125.677 217.466 123.188 216.578 120.626 215.961C120.605 215.959 120.585 215.953 120.566 215.942C120.547 215.932 120.531 215.919 120.517 215.902C120.49 215.869 120.477 215.826 120.482 215.783C120.486 215.74 120.508 215.701 120.541 215.674C120.575 215.647 120.618 215.634 120.66 215.639V215.639Z" fill="#2F2F2E"/>
<path d="M118.62 216.505C121.29 216.378 124.419 217.218 126.153 219.341C126.213 219.426 126.102 219.52 126.017 219.486C123.642 218.341 121.15 217.453 118.586 216.836C118.548 216.825 118.516 216.8 118.494 216.768C118.473 216.735 118.463 216.696 118.467 216.657C118.471 216.618 118.488 216.581 118.516 216.554C118.544 216.526 118.581 216.509 118.62 216.505V216.505Z" fill="#2F2F2E"/>
<path d="M116.587 217.38C119.257 217.252 122.387 218.093 124.113 220.216C124.181 220.292 124.062 220.394 123.985 220.352C121.61 219.207 119.118 218.319 116.553 217.702C116.532 217.7 116.512 217.694 116.493 217.684C116.474 217.673 116.458 217.66 116.444 217.643C116.431 217.627 116.421 217.608 116.415 217.587C116.409 217.567 116.407 217.545 116.409 217.524C116.411 217.503 116.417 217.482 116.428 217.464C116.438 217.445 116.452 217.428 116.468 217.415C116.485 217.402 116.504 217.391 116.524 217.385C116.545 217.379 116.566 217.377 116.587 217.38V217.38Z" fill="#2F2F2E"/>
<path d="M146.349 219.273C149.342 219.18 149.495 223.834 146.493 223.919C143.492 224.003 143.347 219.367 146.349 219.273Z" fill="#2F2F2E"/>
<path d="M119.878 211.647C121.383 213.456 123.611 214.551 125.558 215.8C125.604 215.823 125.654 215.835 125.705 215.836C125.757 215.837 125.807 215.825 125.853 215.803C125.899 215.781 125.94 215.748 125.971 215.708C126.003 215.668 126.024 215.621 126.034 215.57C126.046 215.572 126.057 215.571 126.068 215.567C126.079 215.564 126.088 215.557 126.096 215.549C126.103 215.54 126.109 215.53 126.111 215.519C126.114 215.508 126.114 215.496 126.111 215.486C125.836 213.047 124.921 210.724 123.458 208.751C122.608 207.622 120.847 206.577 119.538 207.749C118.228 208.921 119.028 210.594 119.878 211.647ZM119.682 209.439C119.853 206.535 122.548 208.675 123.152 209.533C123.537 210.098 123.883 210.688 124.189 211.299C124.8 212.572 125.345 213.876 125.822 215.205C124.912 214.526 123.943 213.94 122.999 213.303C121.91 212.539 119.623 211.044 119.716 209.439H119.682Z" fill="#2F2F2E"/>
<path d="M135.566 213.473C135.303 211.775 133.305 211.426 131.902 211.775C129.517 212.362 127.329 213.566 125.558 215.265C125.549 215.271 125.542 215.279 125.537 215.289C125.532 215.299 125.53 215.309 125.53 215.32C125.53 215.331 125.532 215.341 125.537 215.351C125.542 215.361 125.549 215.369 125.558 215.375C125.533 215.421 125.519 215.471 125.517 215.523C125.515 215.574 125.525 215.626 125.547 215.673C125.568 215.72 125.6 215.761 125.641 215.794C125.681 215.826 125.729 215.849 125.779 215.859C128.075 216.14 130.49 216.709 132.803 216.284C134.163 216.004 135.822 215.112 135.566 213.473ZM129.351 215.545C128.22 215.435 127.097 215.273 125.949 215.205C127.164 214.486 128.416 213.832 129.699 213.244C130.322 212.965 130.964 212.733 131.621 212.547C132.641 212.267 136.085 212.344 134.359 214.687C133.424 215.978 130.703 215.672 129.351 215.545Z" fill="#2F2F2E"/>
<path d="M123.109 211.639H153.967C153.967 211.639 148.474 169.688 150.303 166.953C151.102 165.748 191.16 169.756 202.878 157.086C213.592 145.494 202.691 123.78 202.691 123.78H169.809C169.809 123.78 169.137 133.121 167.369 136.807C166.612 138.403 129.886 136.127 124.138 146.606C116.477 160.61 123.109 211.639 123.109 211.639Z" fill="#2F2F2E"/>
<path d="M150.711 205.779C147.233 205.677 143.738 205.542 140.26 205.542C136.783 205.542 133.271 205.618 129.776 205.754C128.79 205.754 125.881 205.932 125.405 205.966C124.93 205.976 124.456 206.016 123.985 206.085C123.976 206.089 123.968 206.095 123.963 206.104C123.957 206.112 123.955 206.122 123.955 206.132C123.955 206.142 123.957 206.151 123.963 206.16C123.968 206.168 123.976 206.174 123.985 206.178C124.742 206.314 132.633 206.399 134.368 206.408C137.837 206.408 141.306 206.314 144.776 206.187L150.728 205.966C150.813 205.958 150.83 205.779 150.711 205.779Z" fill="#6F6F6D"/>
<path d="M172.504 133.826C172.641 132.841 172.768 131.856 172.887 130.871C173.151 128.62 173.389 126.353 173.457 124.077C173.457 123.899 173.202 123.916 173.185 124.077C172.972 125.827 172.811 127.584 172.615 129.334C172.419 131.083 172.266 132.833 171.943 134.548C171.841 135.066 171.62 135.932 170.965 135.941C170.073 135.941 169.902 134.76 169.826 134.106C169.659 132.478 169.628 130.839 169.732 129.206C169.834 127.347 170.064 125.487 170.277 123.636C170.277 123.62 170.27 123.605 170.259 123.594C170.248 123.582 170.233 123.576 170.217 123.576C170.201 123.576 170.186 123.582 170.175 123.594C170.164 123.605 170.158 123.62 170.158 123.636C169.392 127.236 168.652 131.007 169.307 134.675C169.336 135.04 169.463 135.39 169.674 135.689C169.885 135.987 170.172 136.224 170.506 136.374V136.374C170.503 136.393 170.503 136.413 170.506 136.433C170.506 136.544 170.506 136.645 170.506 136.747C170.498 136.835 170.498 136.923 170.506 137.011C170.506 137.197 170.506 137.376 170.506 137.563C170.506 137.599 170.521 137.633 170.546 137.659C170.572 137.684 170.606 137.698 170.642 137.698C170.678 137.698 170.713 137.684 170.738 137.659C170.764 137.633 170.778 137.599 170.778 137.563C170.801 137.56 170.822 137.55 170.838 137.535C170.855 137.52 170.867 137.5 170.872 137.478C170.936 137.124 170.936 136.761 170.872 136.408C171.088 136.41 171.301 136.358 171.492 136.255C171.682 136.153 171.843 136.004 171.96 135.822C172.29 135.206 172.476 134.524 172.504 133.826V133.826Z" fill="#6F6F6D"/>
<path d="M169.197 136.493C171.719 138.223 174.087 140.169 176.271 142.31C176.356 142.386 176.271 142.531 176.152 142.454C173.746 140.595 171.271 138.769 168.967 136.782C168.937 136.749 168.92 136.706 168.919 136.662C168.917 136.618 168.931 136.575 168.959 136.54C168.987 136.505 169.026 136.481 169.069 136.473C169.113 136.464 169.158 136.471 169.197 136.493Z" fill="#6F6F6D"/>
<path d="M194.902 138.285C194.193 138.288 193.484 138.231 192.785 138.115C192.161 137.993 191.545 137.837 190.939 137.648C189.682 137.411 188.51 136.849 187.538 136.017C186.736 135.031 186.093 133.925 185.633 132.739C185.062 131.499 184.684 130.179 184.511 128.825C184.507 128.815 184.5 128.808 184.492 128.802C184.484 128.797 184.474 128.794 184.464 128.794C184.454 128.794 184.445 128.797 184.436 128.802C184.428 128.808 184.421 128.815 184.417 128.825C184.505 130.226 184.738 131.615 185.115 132.969C185.324 133.642 185.585 134.298 185.897 134.93C186.277 135.911 186.933 136.761 187.785 137.379C188.637 137.997 189.65 138.355 190.701 138.412C192.084 138.667 193.502 138.667 194.885 138.412C195.021 138.421 194.987 138.285 194.902 138.285Z" fill="#6F6F6D"/>
<path d="M146.969 164.966C147.045 164.601 147.23 164.268 147.501 164.012C147.772 163.755 148.114 163.588 148.483 163.531C149.37 163.438 150.263 163.421 151.153 163.48C153.211 163.48 155.26 163.523 157.318 163.531C165.413 163.531 173.584 163.319 181.543 161.722C185.427 160.988 189.223 159.849 192.87 158.326C195.965 156.992 199.052 155.158 200.973 152.322C203.193 149.052 203.371 144.772 203.295 140.951C203.213 136.824 202.543 132.729 201.305 128.79C200.99 127.788 200.642 126.803 200.242 125.826C200.242 125.767 200.31 125.716 200.335 125.776C201.971 129.514 203.054 133.47 203.55 137.52C203.789 139.509 203.88 141.513 203.822 143.515C203.815 145.482 203.557 147.439 203.057 149.341C200.965 156.491 192.938 159.446 186.441 161.23C178.635 163.421 170.481 164.024 162.403 164.143C158.338 164.202 154.274 164.143 150.218 164.092C149.435 164.092 148.16 163.862 147.667 164.669C147.465 165.138 147.341 165.638 147.301 166.147C147.216 166.716 147.148 167.293 147.105 167.845C146.994 170.002 147.022 172.163 147.191 174.316C147.451 178.698 147.755 183.074 148.1 187.445C148.457 191.844 148.951 196.226 149.265 200.624C149.342 201.703 149.452 202.781 149.554 203.851C149.554 203.979 149.35 204.004 149.333 203.851C148.202 195.164 147.403 186.434 146.825 177.687C146.689 175.522 146.527 173.365 146.468 171.2C146.355 169.109 146.524 167.012 146.969 164.966V164.966Z" fill="#6F6F6D"/>
<path d="M166.731 166.572C169.47 166.544 172.205 166.345 174.92 165.977C177.47 165.655 180.021 165.306 182.572 164.873C187.05 164.258 191.449 163.165 195.693 161.612C197.981 160.733 200.117 159.498 202.019 157.952C202.024 157.948 202.03 157.944 202.036 157.942C202.043 157.94 202.05 157.939 202.056 157.94C202.063 157.94 202.069 157.942 202.076 157.945C202.082 157.947 202.087 157.952 202.091 157.957C202.096 157.962 202.099 157.967 202.102 157.974C202.104 157.98 202.105 157.987 202.104 157.994C202.104 158 202.102 158.007 202.099 158.013C202.096 158.019 202.092 158.024 202.087 158.029C198.865 160.96 194.95 163.026 190.71 164.033C185.875 165.28 180.947 166.132 175.974 166.58C172.895 166.849 169.803 166.94 166.714 166.852C166.69 166.837 166.671 166.815 166.658 166.789C166.645 166.764 166.639 166.735 166.641 166.707C166.642 166.678 166.652 166.651 166.668 166.627C166.683 166.603 166.705 166.584 166.731 166.572V166.572Z" fill="#6F6F6D"/>
<path d="M225.411 289.885C227.112 289.706 268.667 270.752 269.79 269.028C270.223 268.374 267.808 262.167 264.688 254.753C264.016 253.148 263.378 251.458 262.579 249.828C261.575 247.764 260.547 245.718 259.526 243.756C255.13 235.221 251.108 228.232 251.108 228.232L224.748 240.121L232.375 255.662L235.488 262.039L237.843 266.854C237.843 266.854 225.173 281.223 224.144 283.244C223.115 285.265 223.736 290.063 225.411 289.885Z" fill="#E2A18D"/>
<path d="M225.411 289.885C227.112 289.706 268.667 270.752 269.79 269.028C270.223 268.374 267.808 262.167 264.688 254.753C264.016 253.148 263.378 251.458 262.579 249.828C261.575 247.764 260.547 245.718 259.526 243.756C251.397 247.39 239.671 252.52 232.375 255.696L235.488 262.073L237.843 266.888C237.843 266.888 225.173 281.257 224.144 283.278C223.115 285.299 223.736 290.063 225.411 289.885Z" fill="white"/>
<path d="M225.318 289.995C227.018 289.817 268.812 270.761 269.951 269.028C270.47 268.23 266.788 259.177 262.698 249.717L235.488 262.039L237.852 266.88C237.852 266.88 225.097 281.316 224.068 283.363C223.039 285.409 223.617 290.173 225.318 289.995Z" fill="#F89D26"/>
<path d="M225.148 288.051C232.078 284.654 260.351 271.763 267.451 268.96C267.511 268.96 267.528 268.96 267.451 268.96C260.649 272.451 232.282 285.146 225.173 288.127C225.046 288.229 225.003 288.127 225.148 288.051Z" fill="#2F2F2E"/>
<path d="M236.117 265.776C238.668 264.001 242.205 262.888 245.207 263.891C245.326 263.891 245.266 264.094 245.207 264.103C242.185 264.458 239.209 265.133 236.33 266.115C236.284 266.144 236.23 266.153 236.178 266.141C236.126 266.129 236.081 266.097 236.053 266.052C236.025 266.007 236.016 265.952 236.028 265.901C236.04 265.849 236.072 265.804 236.117 265.776V265.776Z" fill="#2F2F2E"/>
<path d="M234.671 267.882C237.222 266.107 240.76 264.994 243.77 265.996C243.88 265.996 243.829 266.2 243.719 266.209C240.696 266.56 237.72 267.235 234.841 268.221C234.799 268.231 234.754 268.226 234.714 268.208C234.674 268.189 234.642 268.158 234.622 268.118C234.603 268.079 234.597 268.035 234.606 267.992C234.615 267.949 234.638 267.91 234.671 267.882V267.882Z" fill="#2F2F2E"/>
<path d="M233.226 269.988C235.777 268.213 239.314 267.101 242.324 268.103C242.435 268.103 242.384 268.307 242.324 268.315C239.299 268.667 236.32 269.341 233.438 270.328C233.393 270.356 233.339 270.365 233.287 270.353C233.235 270.341 233.19 270.309 233.162 270.264C233.134 270.219 233.125 270.165 233.137 270.113C233.149 270.061 233.181 270.016 233.226 269.988V269.988Z" fill="#2F2F2E"/>
<path d="M231.789 272.094C234.34 270.319 237.877 269.207 240.879 270.209C240.998 270.209 240.938 270.413 240.879 270.421C237.856 270.773 234.88 271.448 232.001 272.434C231.956 272.462 231.902 272.471 231.85 272.459C231.798 272.447 231.753 272.415 231.725 272.37C231.697 272.325 231.688 272.271 231.699 272.219C231.711 272.167 231.743 272.122 231.789 272.094V272.094Z" fill="#2F2F2E"/>
<path d="M231.142 265.088C233.778 265.708 236.602 265.173 239.263 264.977C239.322 264.968 239.377 264.944 239.425 264.909C239.473 264.874 239.512 264.828 239.539 264.776C239.567 264.723 239.581 264.665 239.582 264.605C239.583 264.546 239.57 264.487 239.544 264.434C239.554 264.427 239.563 264.417 239.569 264.406C239.575 264.395 239.578 264.383 239.578 264.37C239.578 264.358 239.575 264.345 239.569 264.334C239.563 264.323 239.554 264.314 239.544 264.307C237.592 262.248 235.131 260.74 232.41 259.933C230.819 259.492 228.498 259.738 228.09 261.725C227.682 263.712 229.569 264.723 231.142 265.088ZM229.442 263.186C227.571 260.392 231.551 260.494 232.707 260.867C233.456 261.119 234.186 261.422 234.892 261.776C236.372 262.489 237.715 263.389 239.144 264.239C237.835 264.239 236.534 264.383 235.224 264.451C233.608 264.527 230.42 264.731 229.425 263.186H229.442Z" fill="#2F2F2E"/>
<path d="M246.848 255.917C245.402 254.498 243.336 255.602 242.273 256.859C240.487 259.064 239.313 261.7 238.872 264.502C238.869 264.514 238.869 264.527 238.872 264.539C238.875 264.551 238.881 264.562 238.89 264.571C238.898 264.58 238.909 264.588 238.92 264.592C238.932 264.596 238.945 264.597 238.957 264.596C238.965 264.654 238.987 264.711 239.02 264.76C239.054 264.809 239.098 264.849 239.15 264.878C239.202 264.907 239.26 264.923 239.32 264.926C239.379 264.928 239.438 264.917 239.493 264.893C241.797 263.551 244.433 262.413 246.295 260.409C247.316 259.22 248.225 257.25 246.848 255.917ZM242.554 262.133C241.431 262.821 240.284 263.441 239.195 264.171C239.818 262.668 240.516 261.197 241.287 259.764C241.674 259.074 242.105 258.41 242.579 257.776C243.328 256.817 246.55 254.499 246.593 257.861C246.576 259.713 243.889 261.318 242.554 262.133V262.133Z" fill="#2F2F2E"/>
<path d="M172.683 119.093C172.683 119.093 174.843 130.565 182.887 136.408C182.887 136.408 200.557 195.47 202.852 202.247C206.815 213.915 228.081 253.454 228.081 253.454L260.921 239.374C260.921 239.374 235.853 195.368 233.149 191.971C231.347 189.721 218.056 141.868 218.031 140.603C217.75 126.532 213.031 119.059 213.031 119.059L172.683 119.093Z" fill="#3F3F3F"/>
<path d="M199.247 123.254C199.916 125.561 201.326 127.584 203.261 129.011C205.401 130.529 207.934 131.396 210.556 131.508C210.641 131.521 210.717 131.564 210.773 131.629C210.828 131.693 210.859 131.775 210.859 131.861C210.859 131.946 210.828 132.028 210.773 132.093C210.717 132.157 210.641 132.2 210.556 132.213C205.208 132.213 199.8 128.816 199.018 123.288C199.009 123.186 199.213 123.135 199.247 123.254Z" fill="#2F2F2E"/>
<path d="M177.7 132.773C179.64 133.549 181.493 134.529 183.227 135.694C185.064 136.832 186.764 138.166 188.533 139.388C188.601 139.439 188.533 139.55 188.473 139.507C186.611 138.437 184.672 137.512 182.836 136.408C181 135.398 179.256 134.23 177.623 132.917C177.589 132.858 177.649 132.739 177.7 132.773Z" fill="#2F2F2E"/>
<path d="M176.977 121.632C177.258 122.854 177.615 124.06 177.938 125.275C178.261 126.489 178.482 127.585 178.839 128.672C179.121 129.758 179.712 130.74 180.54 131.499C181.016 131.898 181.526 132.247 182.028 132.612C182.3 132.807 182.589 132.994 182.878 133.189C182.878 133.028 182.793 132.867 182.759 132.697L182.453 131.304C182.232 130.277 182.019 129.24 181.815 128.204C181.407 126.175 181.025 124.111 180.497 122.107C180.502 122.094 180.511 122.083 180.522 122.075C180.534 122.067 180.547 122.063 180.561 122.063C180.575 122.063 180.589 122.067 180.6 122.075C180.611 122.083 180.62 122.094 180.625 122.107C181.229 124.086 181.883 126.047 182.419 128.052C182.683 129.037 183.686 133.903 183.737 134.251C183.788 134.599 183.839 134.964 183.865 135.321C183.932 135.685 183.949 136.056 183.916 136.425C183.916 136.518 183.797 136.51 183.754 136.425C183.587 136.092 183.467 135.737 183.397 135.372C183.286 135.032 183.193 134.675 183.116 134.327C183.083 134.199 183.057 134.068 183.04 133.937C182.538 133.665 182.07 133.291 181.603 132.985C181.135 132.68 180.591 132.34 180.106 131.975C179.222 131.293 178.564 130.361 178.218 129.3C177.87 128.157 177.623 126.987 177.479 125.801C177.258 124.409 177.079 123.016 176.824 121.632C176.824 121.611 176.832 121.592 176.846 121.578C176.861 121.563 176.88 121.555 176.901 121.555C176.921 121.555 176.94 121.563 176.955 121.578C176.969 121.592 176.977 121.611 176.977 121.632V121.632Z" fill="#2F2F2E"/>
<path d="M227.971 246.83C228.711 246.388 236.474 242.771 238.175 241.981C241.661 240.385 253.693 235.468 254.824 235.052C255.198 234.916 255.224 235.119 254.935 235.264C253.158 236.113 246.193 239.315 244.467 240.096C240.981 241.684 228.473 246.813 227.997 246.957C227.982 246.956 227.968 246.95 227.958 246.94C227.947 246.93 227.939 246.917 227.937 246.903C227.934 246.889 227.936 246.874 227.942 246.861C227.948 246.848 227.958 246.837 227.971 246.83V246.83Z" fill="#2F2F2E"/>
<path d="M210.862 120.443C212.34 122.589 213.487 124.945 214.264 127.432C215.045 129.906 215.458 132.481 215.488 135.075C215.497 136.374 215.403 137.671 215.207 138.956C215.148 139.278 215.114 139.601 215.037 139.915L214.935 140.391C214.898 140.523 214.881 140.661 214.884 140.798C214.961 141.393 215.114 142.038 215.258 142.658C215.845 145.155 216.508 147.643 217.172 150.131C219.842 160.075 222.554 170.011 225.403 179.904L227.546 187.326C227.911 188.558 228.277 189.789 228.668 191.012C228.872 191.615 229.068 192.235 229.297 192.795C229.527 193.356 229.841 193.925 230.148 194.494C232.571 199.02 235.198 203.461 237.732 207.936C237.732 207.936 250.674 229.642 253.336 234.652C253.463 234.882 253.404 235.035 253.166 234.72C250.853 231.714 242.418 217.133 237.163 208.268C234.535 203.835 231.942 199.393 229.459 194.859C229.144 194.298 228.855 193.695 228.566 193.109C228.277 192.523 228.115 191.87 227.903 191.258C227.503 190.027 227.129 188.795 226.755 187.556C226.015 185.084 225.284 182.613 224.578 180.142C221.806 170.215 219.068 160.279 216.551 150.292C215.93 147.787 215.309 145.291 214.748 142.768C214.621 142.132 214.476 141.52 214.391 140.832C214.389 140.648 214.415 140.465 214.468 140.289L214.57 139.822C214.646 139.516 214.689 139.193 214.748 138.879C214.958 137.621 215.074 136.35 215.097 135.075C215.105 129.895 213.636 124.82 210.862 120.443V120.443Z" fill="#2F2F2E"/>
<path d="M215.692 123.585L170.021 123.89C170.021 124.74 172.334 88.1473 184.043 66.5265C184.843 65.0574 192.011 63.4269 195.199 66.3227C209.162 79.0268 215.701 124.162 215.692 123.585Z" fill="#1DC49D"/>
<path d="M193.669 77.8209C190.829 83.9182 177.751 107.11 168.899 108.044C158.143 109.165 144.537 106.779 138.585 103.883C135.252 102.261 143.917 85.9733 147.088 87.0603C152.097 88.7587 161.85 89.6079 163.789 89.7523C165.727 89.8966 179.273 79.6297 186.815 74.008C193.618 68.9382 195.344 74.2288 193.669 77.8209Z" fill="#E2A18D"/>
<path d="M136.451 86.7637C137.633 86.7127 137.616 86.0928 135.915 84.8615C134.215 83.6301 126.426 80.1993 127.854 77.5923C129.283 74.9852 140.201 79.9785 142.879 82.2459C145.14 84.3584 147.219 86.6565 149.095 89.116C146.774 88.5725 141.017 87.7742 136.451 86.7637Z" fill="#E2A18D"/>
<path d="M143.517 105.616C136.859 103.917 128.56 102.032 123.279 96.5972C122.677 96.0077 122.291 95.233 122.183 94.3977C119.776 92.003 120.184 90.1517 120.184 90.1517C118.62 87.2304 119.334 85.3961 119.334 85.3961C119.334 85.3961 116.536 82.5513 117.973 80.5811C119.581 78.3562 123.194 82.7806 126.672 83.978C134.64 86.7718 146.748 88.5127 149.129 89.0732L143.517 105.616Z" fill="#E2A18D"/>
<path d="M132.93 92.7927C130.602 91.997 128.329 91.0466 126.128 89.9479C123.782 88.5963 121.542 87.069 119.427 85.3791C119.414 85.3721 119.398 85.3699 119.383 85.3729C119.367 85.376 119.354 85.3841 119.344 85.396C119.334 85.4079 119.328 85.4228 119.328 85.4383C119.328 85.4537 119.333 85.4688 119.342 85.4811C123.11 89.1523 127.817 91.7171 132.947 92.8946C133.007 92.9201 133.049 92.8352 132.93 92.7927Z" fill="#2F2F2E"/>
<path d="M131.944 97.8371C129.725 96.8605 125.83 95.1621 120.235 90.0669C120.235 90.0669 120.184 90.0669 120.235 90.0669C123.329 93.7083 127.378 96.4167 131.927 97.8881C132.038 97.99 132.089 97.905 131.944 97.8371Z" fill="#2F2F2E"/>
<path d="M131.357 100.538C128.041 98.9178 124.963 96.8521 122.208 94.3979C122.208 94.3979 122.157 94.3979 122.208 94.3979C125.669 97.9222 127.31 98.8138 131.349 100.648C131.451 100.742 131.502 100.614 131.357 100.538Z" fill="#2F2F2E"/>
<path d="M171.841 107.9C172.471 107.051 176.493 105.887 187.241 91.578C189.434 88.6568 191.152 85.7355 193.32 82.9756C193.32 82.9756 193.397 82.9756 193.38 83.018C192.334 85.0052 191.161 86.9414 189.919 88.8266L190.2 88.5803C191.037 87.9072 191.837 87.19 192.598 86.4319C192.649 86.3809 192.725 86.4743 192.674 86.5253C191.917 87.2641 191.229 88.0793 190.489 88.8436C190.132 89.2088 189.783 89.5739 189.392 89.9136C189.247 90.041 189.094 90.1853 188.924 90.3127C177.411 106.354 172.488 107.297 171.918 107.976C171.914 107.986 171.909 107.994 171.901 108C171.894 108.007 171.884 108.011 171.875 108.014C171.865 108.016 171.855 108.015 171.845 108.013C171.836 108.01 171.827 108.005 171.82 107.998C171.813 107.99 171.808 107.982 171.805 107.972C171.802 107.963 171.802 107.953 171.804 107.943C171.806 107.933 171.811 107.924 171.817 107.917C171.824 107.909 171.832 107.903 171.841 107.9V107.9Z" fill="#2F2F2E"/>
<path d="M148.194 107.314C148.576 105.717 149.18 104.155 149.716 102.609C150.252 101.064 150.779 99.5436 151.331 98.0236C152.437 94.9494 153.474 91.8244 154.784 88.8267C154.784 88.7587 154.911 88.8267 154.894 88.8691C154.087 92.0621 152.947 95.1872 151.859 98.2868C151.306 99.8494 150.736 101.395 150.158 102.94C149.635 104.45 149.025 105.927 148.33 107.365C148.279 107.433 148.177 107.382 148.194 107.314Z" fill="#2F2F2E"/>
<path d="M184.427 82.3703C178.801 82.2135 160.868 78.1313 156.552 70.3646C152.687 63.3966 166.727 34.9184 173.856 27.1456C176.352 24.4084 185.78 36.9842 185.724 40.304C185.668 43.1911 172.839 63.531 173.515 64.4683C174.648 66.0434 179.296 69.2011 186.683 74.3841C193.6 79.2246 188.377 82.4502 184.427 82.3703Z" fill="#E2A18D"/>
<path d="M181.228 49.7616L168.515 33.1966C168.515 33.1966 150.821 60.441 155.891 70.7127C157.063 73.0716 168.449 81.8631 182.922 82.8894C187.433 83.1975 195.888 80.7253 185.869 73.3979C175.85 66.0706 174.189 64.4434 174.147 64.111C174.105 63.7786 181.228 49.7616 181.228 49.7616Z" fill="#1DC49D"/>
<path d="M166.774 37.7317C167.938 38.8915 168.957 40.2252 170.001 41.49C171.045 42.7549 172.047 43.9964 173.064 45.2601C175.111 47.8015 177.232 50.3219 179.106 53.001C179.117 53.0132 179.122 53.0291 179.121 53.0452C179.12 53.0613 179.112 53.0762 179.1 53.0868C179.088 53.0973 179.072 53.1025 179.056 53.1014C179.04 53.1002 179.025 53.0926 179.014 53.0804C176.711 50.727 174.644 48.1471 172.559 45.5638C171.517 44.2775 170.494 42.9831 169.49 41.6805C168.478 40.4427 167.537 39.1488 166.671 37.8052C166.625 37.7388 166.725 37.6839 166.774 37.7317Z" fill="#2F2F2E"/>
<path d="M183.241 48.3291C185.135 45.8349 189.179 43.0965 189.947 40.8715C190.15 40.3333 190.174 39.7441 190.015 39.1911C189.857 38.6382 189.524 38.1511 189.066 37.802C189.066 37.802 191.535 37.1574 191.916 35.0342C192.1 33.9481 190.514 32.7058 190.514 32.7058C191.072 32.5269 191.571 32.1979 191.954 31.7547C192.337 31.3116 192.59 30.7715 192.686 30.1939C192.845 28.6821 191.234 27.6591 191.234 27.6591C191.234 27.6591 192.857 26.1963 192.514 24.5985C191.834 21.3655 179.027 18.6874 176.066 22.9799C174.677 24.9849 177.841 25.4667 177.841 25.4667C177.841 25.4667 173.127 25.8703 172.515 28.4836C171.902 31.097 176.032 31.4963 176.032 31.4963C176.032 31.4963 171.466 31.9197 171.089 34.6775C170.713 37.4353 174.914 37.2491 174.914 37.2491C174.914 37.2491 171.662 38.5859 171.865 40.7717C172.205 44.3934 178.501 41.2404 181.21 42.5145L181.751 47.4833L183.241 48.3291Z" fill="#E2A18D"/>
<path d="M187.955 50.3497C185.735 52.3368 187.181 57.0075 185.327 59.2069C182.776 62.1876 180.77 56.8886 182.513 51.5641L184.588 47.6577L187.955 50.3497Z" fill="#E2A18D"/>
<path d="M191.029 27.4082C191.07 27.3965 191.111 27.3848 191.064 27.3452C186.917 25.3425 182.256 24.6513 177.705 25.3638C177.566 25.4036 177.545 25.6393 177.704 25.638C182.208 25.5805 186.697 26.1768 191.029 27.4082Z" fill="#2F2F2E"/>
<path d="M190.566 32.6996C190.606 32.6879 190.633 32.6273 190.591 32.604C185.996 30.4462 180.779 30.0023 175.885 31.3527C175.713 31.4018 175.618 31.6235 175.816 31.5755C179.181 30.816 186.519 31.4813 190.566 32.6996Z" fill="#2F2F2E"/>
<path d="M178.38 39.9637C183.338 40.0572 187.734 41.7386 192.079 44.1079C192.13 44.1079 192.172 44.0569 192.13 44.0145C190.344 42.316 187.436 41.0592 185.106 40.2949C182.949 39.5458 180.633 39.373 178.389 39.7939C178.295 39.8279 178.278 39.9637 178.38 39.9637Z" fill="#2F2F2E"/>
<path d="M185.174 72.6836C187.351 73.1761 191.866 70.586 193.397 67.478C193.499 67.2572 193.082 65.0747 192.7 62.3827C192.47 60.7607 192.257 58.9859 192.189 57.2875C192.189 56.9393 181.815 60.3022 181.815 60.3022C182.505 62.3621 182.941 64.4979 183.116 66.6627C183.139 66.8915 183.139 67.1218 183.116 67.3506C183.116 67.3506 183.116 67.427 183.116 67.4695C182.912 68.7857 182.844 72.1486 185.174 72.6836Z" fill="#E2A18D"/>
<path d="M183.074 67.3587C183.074 67.3587 183.074 67.4351 183.074 67.4776C183.431 67.5033 183.789 67.5033 184.145 67.4776C190.319 67.0615 191.594 59.2743 191.798 57.2871C189.945 57.6353 181.799 60.2848 181.799 60.2848C182.492 62.3466 182.929 64.4856 183.1 66.6538C183.11 66.8891 183.102 67.1248 183.074 67.3587V67.3587Z" fill="#2F2F2E"/>
<path d="M193.55 44.2096C194.732 47.9036 192.904 58.6461 190.293 61.1003C186.501 64.6245 180.226 65.0321 177.207 60.4634C174.29 56.039 176.909 42.0526 179.843 39.8362C184.154 36.5667 191.798 38.7407 193.55 44.2096Z" fill="#E2A18D"/>
<path d="M183.142 50.7739C183.142 50.7739 183.193 50.8164 183.184 50.8419C183.048 51.5637 183.006 52.4129 183.627 52.7611C183.627 52.7611 183.627 52.812 183.627 52.8035C182.802 52.5573 182.895 51.4278 183.142 50.7739Z" fill="#2F2F2E"/>
<path d="M183.916 50.1542C185.098 50.2561 184.809 52.6084 183.712 52.515C182.615 52.4216 182.921 50.0353 183.916 50.1542Z" fill="#2F2F2E"/>
<path d="M178.899 50.3662C178.899 50.3662 178.839 50.3662 178.831 50.4257C178.771 51.156 178.567 51.9797 177.878 52.1241C178.695 52.1665 178.95 51.0711 178.899 50.3662Z" fill="#2F2F2E"/>
<path d="M178.338 49.5257C177.181 49.2879 176.79 51.6317 177.87 51.844C178.95 52.0563 179.316 49.721 178.338 49.5257Z" fill="#2F2F2E"/>
<path d="M184.979 49.1608C184.673 49.0419 184.4 48.872 184.128 48.7277C183.856 48.5833 183.508 48.4559 183.321 48.1077C183.277 48.007 183.269 47.8947 183.296 47.7885C183.324 47.6824 183.386 47.5885 183.474 47.5218C183.666 47.409 183.884 47.3496 184.107 47.3496C184.33 47.3496 184.549 47.409 184.741 47.5218C185.159 47.6984 185.496 48.0258 185.684 48.4389C185.88 48.889 185.395 49.3051 184.979 49.1608Z" fill="#2F2F2E"/>
<path d="M177.581 48.2263C177.913 48.2263 178.219 48.1414 178.542 48.0989C178.891 48.0971 179.231 47.9841 179.511 47.7762C179.577 47.688 179.613 47.5807 179.613 47.4705C179.613 47.3603 179.577 47.253 179.511 47.1648C179.363 47.0009 179.174 46.8792 178.963 46.812C178.753 46.7449 178.528 46.7348 178.312 46.7826C177.858 46.8142 177.432 47.0106 177.113 47.3346C177.043 47.4171 177 47.5186 176.988 47.626C176.976 47.7333 176.997 47.8418 177.047 47.9375C177.097 48.0331 177.175 48.1117 177.27 48.1632C177.365 48.2146 177.473 48.2366 177.581 48.2263Z" fill="#2F2F2E"/>
<path d="M182.972 57.6267C182.776 57.7795 182.572 57.9918 182.309 57.9748C182.037 57.9366 181.776 57.8411 181.543 57.6946C181.543 57.6946 181.492 57.6946 181.543 57.6946C181.625 57.8487 181.748 57.9776 181.898 58.0674C182.048 58.1572 182.219 58.2044 182.394 58.2041C182.547 58.1855 182.692 58.1214 182.808 58.0199C182.925 57.9185 183.009 57.7845 183.048 57.6352C183.048 57.6352 183.006 57.6012 182.972 57.6267Z" fill="#2F2F2E"/>
<path d="M182.479 55.351C182.254 55.6075 181.978 55.8151 181.67 55.9612C181.361 56.1072 181.026 56.1886 180.685 56.2002C180.382 56.2242 180.078 56.2013 179.783 56.1323L179.613 56.0899H179.46C179.422 56.0785 179.389 56.0549 179.366 56.0226C179.343 55.9903 179.331 55.9512 179.333 55.9115V55.9115C179.329 55.8862 179.329 55.8604 179.333 55.8351V55.7672C179.384 55.2067 179.545 54.3575 179.545 54.3575C179.333 54.4339 178.219 54.7736 178.278 54.4849C178.656 51.9611 179.291 49.4827 180.174 47.0883C180.174 47.0118 180.327 47.0373 180.31 47.0883C179.97 49.4236 179.222 51.6825 178.848 54.0178C179.241 53.8923 179.651 53.8236 180.064 53.814C180.14 53.814 179.724 55.4445 179.715 55.6992C180.169 55.8031 180.64 55.8145 181.099 55.7328C181.557 55.6511 181.995 55.4779 182.385 55.2237C182.479 55.2491 182.53 55.2916 182.479 55.351Z" fill="#2F2F2E"/>
<path d="M180.149 55.9286C180.407 56.3695 180.777 56.7353 181.22 56.9901C181.463 57.1269 181.743 57.1806 182.019 57.143C182.623 57.0666 182.7 56.5316 182.649 56.056C182.618 55.8072 182.561 55.5624 182.479 55.3257C181.786 55.7689 180.97 55.9801 180.149 55.9286V55.9286Z" fill="#2F2F2E"/>
<path d="M181.22 56.9903C181.463 57.127 181.744 57.1807 182.02 57.1431C182.623 57.0667 182.7 56.5317 182.649 56.0561C182.341 56.0317 182.033 56.1102 181.775 56.2793C181.516 56.4484 181.321 56.6985 181.22 56.9903V56.9903Z" fill="#FF9BBC"/>
<path d="M177.836 43.2244C178.355 42.3752 178.933 41.4666 179.537 41.3562C180.141 41.2458 180.319 42.647 181.578 42.8847C183.278 43.2074 184.299 41.7383 186.68 41.8657C190.157 42.0525 191.322 45.1097 190.804 50.0011C190.336 54.366 192.929 55.0963 192.929 55.0963C192.929 55.0963 195.701 45.6871 193.38 42.1714C191.059 38.6557 185.013 36.4902 180.464 39.0124C178.814 39.9635 177.836 43.2244 177.836 43.2244Z" fill="#2F2F2E"/>
<path d="M190.948 53.1178C190.948 53.1178 193.397 49.6615 194.97 50.5702C196.543 51.4788 194.681 56.4637 192.819 57.143C192.585 57.251 192.331 57.31 192.073 57.3163C191.816 57.3227 191.56 57.2763 191.321 57.18C191.082 57.0838 190.865 56.9397 190.684 56.7566C190.503 56.5735 190.361 56.3553 190.268 56.1155L190.948 53.1178Z" fill="#E2A18D"/>
<path d="M194.4 51.9629C194.4 51.9629 194.4 51.9629 194.4 52.0138C193.802 52.3054 193.272 52.7191 192.844 53.2282C192.417 53.7373 192.101 54.3304 191.917 54.9691C191.994 54.8396 192.099 54.7283 192.223 54.6428C192.347 54.5573 192.488 54.4997 192.637 54.4739C192.785 54.4481 192.938 54.4547 193.084 54.4933C193.23 54.5318 193.365 54.6014 193.482 54.6973C193.482 54.6973 193.482 54.7737 193.439 54.7653C193.212 54.6921 192.968 54.6903 192.74 54.7602C192.512 54.83 192.311 54.9682 192.164 55.1559C191.923 55.4768 191.715 55.8211 191.543 56.1834C191.484 56.3023 191.279 56.2344 191.322 56.107C191.305 54.4001 192.623 52.1157 194.4 51.9629Z" fill="#2F2F2E"/>
<path d="M183.508 37.7388C184.916 37.1933 186.397 36.8557 187.904 36.7367C189.604 36.6348 194.851 37.3906 196.041 38.5285C197.232 39.6665 197.249 44.6683 197.232 45.3986C197.215 46.1289 196.603 50.4938 194.936 51.4535C193.269 52.4131 193.618 44.9316 191.262 42.2905C188.907 39.6495 183.508 37.7388 183.508 37.7388Z" fill="#F89D26"/>
<path opacity="0.1" d="M183.508 37.7386C183.508 37.7386 188.924 39.6493 191.279 42.2903C193.635 44.9314 193.295 52.4128 194.961 51.4617C195.344 51.2021 195.672 50.8697 195.925 50.4836C196.179 50.0974 196.354 49.6651 196.441 49.2113C196.254 47.0119 195.591 43.5641 193.89 41.1014C192.334 38.7916 189.468 37.4838 186.356 36.9233C185.386 37.1162 184.433 37.3889 183.508 37.7386V37.7386Z" fill="#2F2F2E"/>
<path d="M194.23 55.8608C194.23 53.8651 192.53 48.4047 190.616 45.2032C188.703 42.0017 182.564 39.8193 181.688 39.8108C179.554 39.8108 179.026 40.7789 178.703 40.5666C178.38 40.3543 180.659 38.0869 181.254 37.7642C182.197 37.3675 183.217 37.1847 184.239 37.2292C185.157 37.3056 190.803 38.2482 192.742 40.8044C194.681 43.3605 197.13 50.3409 196.475 52.0393C196.322 52.4554 195.744 52.6847 195.531 53.2622C195.251 54.0265 195.029 54.9096 194.757 55.4362C194.485 55.9627 194.23 56.0391 194.23 55.8608Z" fill="#F89D26"/>
<path d="M190.217 43.8021C190.723 43.5377 191.207 43.2308 191.662 42.885C192.128 42.5411 192.553 42.145 192.929 41.7046C192.929 41.7046 193.006 41.7046 192.98 41.7046C192.669 42.2136 192.276 42.6671 191.815 43.0463C191.353 43.4231 190.826 43.711 190.259 43.8955C190.2 43.9295 190.166 43.8361 190.217 43.8021Z" fill="#2F2F2E"/>
<path d="M193.856 51.6828C194.068 51.4781 194.27 51.2627 194.46 51.0374C194.639 50.8118 194.801 50.5734 194.944 50.324L195.344 49.5767C195.506 49.288 195.701 49.0078 195.854 48.7275C195.854 48.7275 195.922 48.7275 195.905 48.7275C195.752 49.0417 195.659 49.3814 195.514 49.6956C195.385 49.9642 195.24 50.2251 195.08 50.4769C194.93 50.722 194.756 50.9523 194.562 51.1648C194.373 51.3841 194.141 51.5631 193.881 51.6913C193.881 51.6913 193.856 51.6913 193.856 51.6828Z" fill="#2F2F2E"/>
<path d="M193.235 49.6867C193.677 49.3591 194.069 48.9702 194.4 48.5318C194.723 48.1072 195.021 47.6826 195.302 47.207C195.302 47.207 195.378 47.207 195.361 47.207C195.16 47.7262 194.897 48.2194 194.579 48.6762C194.417 48.8942 194.232 49.0936 194.026 49.2706C193.796 49.4485 193.545 49.5969 193.278 49.7122C193.278 49.7122 193.201 49.7122 193.235 49.6867Z" fill="#2F2F2E"/>
<path d="M192.572 47.7675C192.787 47.6386 192.978 47.4717 193.133 47.2749C193.32 47.0626 193.507 46.8418 193.678 46.621C193.848 46.4002 194.026 46.2049 194.188 45.9926C194.372 45.7857 194.511 45.5428 194.596 45.2793C194.596 45.2793 194.664 45.2793 194.664 45.2793C194.622 45.5474 194.526 45.8043 194.383 46.0351C194.234 46.2984 194.066 46.551 193.882 46.7909C193.691 47.0188 193.49 47.237 193.278 47.4448C193.1 47.6421 192.866 47.7787 192.606 47.8354C192.555 47.8609 192.521 47.793 192.572 47.7675Z" fill="#2F2F2E"/>
<path d="M192.155 45.3731C192.36 45.2033 192.547 45.0334 192.734 44.8466C192.921 44.6598 193.091 44.4729 193.261 44.2776C193.431 44.0823 193.618 43.87 193.788 43.6577C193.788 43.6577 193.865 43.6577 193.839 43.7002C193.72 43.9435 193.58 44.1764 193.422 44.3965C193.264 44.612 193.091 44.8163 192.904 45.0079C192.719 45.1973 192.523 45.3759 192.317 45.543C192.12 45.723 191.889 45.8617 191.637 45.9506C191.628 45.9511 191.62 45.9495 191.612 45.9459C191.605 45.9424 191.598 45.937 191.593 45.9303C191.588 45.9235 191.585 45.9157 191.583 45.9074C191.582 45.8991 191.583 45.8906 191.586 45.8826C191.761 45.6973 191.952 45.5269 192.155 45.3731V45.3731Z" fill="#2F2F2E"/>
<path d="M188.754 42.5702C188.967 42.341 189.171 42.1117 189.4 41.8994C189.641 41.6873 189.894 41.4889 190.157 41.3049C190.659 40.9323 191.201 40.6162 191.773 40.3623C191.773 40.3623 191.841 40.3623 191.773 40.4217C190.778 41.1606 189.749 41.8654 188.763 42.6212L188.754 42.5702Z" fill="#2F2F2E"/>
<path d="M187.674 40.8128C187.893 40.5896 188.136 40.3903 188.397 40.2183C188.951 39.8673 189.545 39.5823 190.166 39.3691C190.166 39.3691 190.234 39.3691 190.166 39.4201C189.63 39.7343 189.086 40.0315 188.567 40.3712C188.305 40.5349 188.052 40.7135 187.81 40.9062C187.572 41.1015 187.385 41.3478 187.156 41.5516C187.28 41.2746 187.456 41.0239 187.674 40.8128V40.8128Z" fill="#2F2F2E"/>
<path d="M186.067 39.8956C186.27 39.6777 186.492 39.4787 186.73 39.3012C187.189 38.9669 187.701 38.7114 188.244 38.5454C188.244 38.5454 188.303 38.5454 188.244 38.6048C187.741 38.8655 187.261 39.1666 186.807 39.505L186.144 40.04C185.923 40.2183 185.727 40.4561 185.497 40.609C185.497 40.609 185.455 40.609 185.497 40.609C185.665 40.3542 185.856 40.1154 186.067 39.8956V39.8956Z" fill="#2F2F2E"/>
<path d="M184.936 38.8257L185.608 38.3841C185.829 38.2337 186.073 38.1191 186.331 38.0444C186.331 38.0444 186.382 38.0444 186.331 38.1039C185.897 38.4011 185.48 38.7068 185.047 39.0125C184.68 39.3258 184.345 39.6727 184.043 40.0486C184.043 40.0486 184.043 40.0486 184.043 40.0486C184.214 39.562 184.524 39.1365 184.936 38.8257V38.8257Z" fill="#2F2F2E"/>
<path d="M183.457 38.4092C183.869 38.0791 184.339 37.8286 184.843 37.6704C184.843 37.6704 184.902 37.6704 184.843 37.7298C184.38 37.9469 183.952 38.2332 183.576 38.5791C183.189 38.9099 182.841 39.2831 182.538 39.6915H182.496C182.712 39.1952 183.041 38.7561 183.457 38.4092Z" fill="#2F2F2E"/>
<path d="M181.441 39.1739C181.496 39.0699 181.558 38.9705 181.628 38.8766C181.772 38.6905 181.934 38.5198 182.113 38.3671C182.484 38.0644 182.883 37.7971 183.304 37.5688C183.304 37.5688 183.372 37.5689 183.304 37.6283C182.9 37.8662 182.526 38.1513 182.19 38.4775C182.025 38.6361 181.869 38.8033 181.722 38.9785L181.526 39.2503C181.477 39.347 181.417 39.4382 181.348 39.522H181.288C181.315 39.3966 181.367 39.2781 181.441 39.1739V39.1739Z" fill="#2F2F2E"/>
<path d="M180.251 39.1991C180.375 39.0495 180.509 38.9077 180.651 38.7745C180.787 38.6438 180.932 38.5218 181.084 38.4093C181.246 38.2905 181.407 38.1801 181.56 38.0527C181.714 37.9253 181.646 38.0527 181.603 38.1121C181.443 38.2277 181.292 38.3555 181.152 38.4943L180.753 38.8934C180.617 39.0208 180.481 39.1481 180.353 39.284C180.225 39.4199 180.098 39.5727 179.953 39.6916C179.809 39.8105 179.894 39.6916 179.953 39.6916C180.034 39.5168 180.133 39.3515 180.251 39.1991V39.1991Z" fill="#2F2F2E"/>
<path d="M75.5838 194.233C89.5377 195.66 102.008 185.539 103.436 171.628C104.865 157.718 94.7112 145.284 80.7574 143.858C66.8035 142.432 54.3336 152.552 52.9049 166.463C51.4763 180.374 61.63 192.807 75.5838 194.233Z" fill="#E3503C"/>
<path d="M64.0518 140.347C60.5504 139.99 57.2279 138.628 54.4864 136.427C51.7449 134.226 49.702 131.28 48.605 127.945L17.7593 33.8437C16.7375 30.7265 16.3659 27.4341 16.6674 24.1687C16.9689 20.9034 17.937 17.734 19.5123 14.8556C21.0876 11.9772 23.2368 9.45041 25.8277 7.43064C28.4187 5.41088 31.3967 3.94079 34.5786 3.11073C37.7606 2.28067 41.0793 2.10817 44.3308 2.60385C47.5823 3.09953 50.6979 4.25291 53.486 5.99309C56.2742 7.73328 58.676 10.0235 60.5438 12.723C62.4116 15.4225 63.7059 18.4742 64.3473 21.6905L83.7095 118.788C84.2639 121.568 84.1568 124.438 83.3967 127.168C82.6366 129.898 81.2449 132.413 79.3332 134.51C77.4214 136.606 75.0431 138.226 72.3891 139.24C69.7351 140.254 66.8796 140.633 64.0518 140.347L64.0518 140.347Z" fill="#E3503C"/>
<path d="M151.17 87.1286L143.874 107.297C143.874 107.297 162.921 111.305 170.557 108.444C178.193 105.582 188.286 90.6103 193.065 81.821C197.844 73.0318 195.336 65.6861 183.04 75.4605C170.744 85.2348 164.809 88.9883 163.942 89.1582C163.074 89.328 151.17 87.1286 151.17 87.1286Z" fill="#1DC49D"/>
<path d="M151.111 86.9247C153.007 87.12 160.532 88.6231 162.428 88.7845C163.272 88.8851 164.125 88.7092 164.86 88.2834C165.711 87.8248 179.316 78.3647 180.812 77.2437C180.88 77.1928 180.957 77.2862 180.897 77.3372C179.316 78.4581 168.738 86.4746 167.105 87.5956C166.392 88.1429 165.636 88.6314 164.843 89.0562C164.103 89.4137 163.263 89.5067 162.462 89.3195C160.677 88.9713 153.687 87.621 151.238 87.1964C151.196 87.1964 150.838 88.0456 150.796 88.0456H150.694C150.778 87.6538 150.918 87.2762 151.111 86.9247V86.9247Z" fill="#2F2F2E"/>
<g clip-path="url(#clip0_9909_23949)">
<path d="M184.519 88.3529C182.172 88.3529 180.268 86.451 180.268 84.1069C180.268 81.7627 182.172 79.8608 184.519 79.8608C186.867 79.8608 188.771 81.7627 188.771 84.1069C188.771 86.451 186.867 88.3529 184.519 88.3529Z" fill="#009B7C"/>
<path d="M184.519 85.9266C183.513 85.9266 182.697 85.1118 182.697 84.1068C182.697 83.1018 183.513 82.2871 184.519 82.2871C185.526 82.2871 186.341 83.1018 186.341 84.1068C186.341 85.1118 185.526 85.9266 184.519 85.9266Z" fill="#F89D26"/>
</g>
<defs>
<clipPath id="clip0_9909_23949">
<rect width="8.50319" height="8.49206" fill="white" transform="matrix(-1 0 0 1 188.771 79.8252)"/>
</clipPath>
</defs>
</svg>
