<svg width="294" height="294" viewBox="0 0 294 294" fill="none" xmlns="http://www.w3.org/2000/svg">
<g clip-path="url(#clip0_6880_535444)">
<path d="M147 294C228.186 294 294 228.186 294 147C294 65.8141 228.186 0 147 0C65.8141 0 0 65.8141 0 147C0 228.186 65.8141 294 147 294Z" fill="#E9FAF6"/>
<path d="M127.366 6.44121C122.599 4.04231 117.306 2.87534 111.972 3.04677C106.638 3.21819 101.431 4.72254 96.8273 7.42259C92.2235 10.1226 88.3691 13.9324 85.6156 18.5044C82.8622 23.0764 81.2973 28.2651 81.0638 33.5971C80.8303 38.9291 81.9356 44.2347 84.2788 49.0299C86.6221 53.8251 90.1287 57.9573 94.4788 61.0495C98.8288 64.1416 103.884 66.0954 109.183 66.7325C114.482 67.3696 119.856 66.6697 124.815 64.6968L124.68 64.3577C119.778 66.3081 114.465 67 109.226 66.3702C103.988 65.7403 98.9906 63.8089 94.6902 60.752C90.3897 57.6952 86.9232 53.6102 84.6067 48.8697C82.2902 44.1292 81.1975 38.8842 81.4284 33.6131C81.6592 28.342 83.2062 23.2125 85.9282 18.6927C88.6503 14.1729 92.4607 10.4066 97.0119 7.73736C101.563 5.06813 106.71 3.58095 111.984 3.41149C117.257 3.24203 122.489 4.39567 127.202 6.76718L127.366 6.44121Z" fill="#009B7C"/>
<path d="M53.7912 145.869L2.79883 169.356L14.4748 197.571L65.4672 174.083L53.7912 145.869Z" fill="#A2D8CB"/>
<path d="M3.0013 169.268C2.97872 169.257 2.95994 169.24 2.94752 169.218C2.9351 169.197 2.92963 169.171 2.93187 169.146C2.93336 169.13 2.93798 169.114 2.94547 169.099C2.95295 169.084 2.96315 169.071 2.97549 169.061C2.98782 169.05 3.00203 169.042 3.01732 169.036C3.03261 169.031 3.04866 169.029 3.06456 169.03L34.2716 171.315L53.8162 145.834C53.8366 145.807 53.8666 145.789 53.8994 145.784C53.9322 145.779 53.9652 145.788 53.9911 145.808C54.0171 145.828 54.0338 145.859 54.0377 145.892C54.0416 145.925 54.0323 145.959 54.0118 145.987L34.3793 171.571L34.314 171.566L3.04123 169.279C3.02746 169.277 3.01403 169.273 3.0013 169.268Z" fill="#363E44"/>
<path d="M11.8302 156.17C11.1416 155.859 10.4838 155.484 9.8652 155.049C8.59029 154.169 7.5087 153.035 6.68613 151.714C5.86355 150.394 5.31715 148.916 5.0801 147.37C4.09753 140.921 8.69306 134.78 15.3231 133.679C21.9532 132.578 28.1474 136.927 29.1344 143.377C29.3691 144.925 29.2892 146.507 28.8996 148.029C28.5099 149.551 27.8187 150.981 26.8678 152.231C25.146 154.493 22.726 156.113 19.998 156.829C17.27 157.544 14.3929 157.314 11.8304 156.175L11.8302 156.17ZM22.2844 134.799C20.119 133.825 17.7115 133.518 15.36 133.915C8.86169 134.994 4.35742 141.01 5.31964 147.324C5.55108 148.839 6.08561 150.286 6.89076 151.579C7.6959 152.873 8.75485 153.984 10.0032 154.846C12.5798 156.628 15.7467 157.334 18.8492 156.819C21.9516 156.303 24.7525 154.606 26.6726 152.078C27.6031 150.854 28.2793 149.454 28.6601 147.964C29.041 146.473 29.1184 144.924 28.8879 143.409C28.2929 139.48 25.7138 136.345 22.2844 134.799Z" fill="#363E44"/>
<path d="M228.306 285.311C226.512 284.501 224.8 283.518 223.194 282.374C219.882 280.057 217.086 277.051 214.975 273.538C212.864 270.026 211.482 266.08 210.914 261.94C208.559 244.678 220.817 228.05 238.234 224.87C255.652 221.69 271.741 233.141 274.106 250.408C274.669 254.55 274.405 258.797 273.331 262.892C272.258 266.988 270.397 270.845 267.861 274.231C263.27 280.358 256.871 284.785 249.695 286.798C242.519 288.811 234.985 288.292 228.307 285.326L228.306 285.311ZM256.444 227.635C250.801 225.099 244.501 224.357 238.323 225.502C221.251 228.62 209.237 244.908 211.543 261.81C212.098 265.864 213.449 269.729 215.516 273.169C217.582 276.61 220.32 279.555 223.563 281.824C230.256 286.514 238.533 288.299 246.684 286.811C254.834 285.322 262.234 280.674 267.354 273.828C269.836 270.512 271.656 266.735 272.706 262.725C273.755 258.715 274.012 254.556 273.459 250.501C272.034 239.984 265.381 231.665 256.444 227.635Z" fill="#363E44"/>
<path d="M259.401 244.295H138.625V16.4414H165.843H232.183H259.401V244.295Z" fill="#A2D8CB"/>
<path d="M251.147 258.103H146.046C141.546 258.098 137.233 256.309 134.051 253.127C130.87 249.946 129.08 245.632 129.076 241.133V17.4373C129.081 12.9382 130.87 8.62474 134.052 5.44334C137.233 2.26194 141.547 0.472388 146.046 0.467285H251.147C255.646 0.472812 259.959 2.2625 263.14 5.44381C266.322 8.62512 268.111 12.9383 268.117 17.4373V241.133C268.112 245.632 266.322 249.945 263.141 253.127C259.959 256.308 255.646 258.098 251.147 258.103ZM146.046 1.17578C141.734 1.18046 137.601 2.89522 134.552 5.94385C131.504 8.99247 129.789 13.1259 129.784 17.4373V241.133C129.789 245.444 131.504 249.578 134.552 252.626C137.601 255.675 141.734 257.39 146.046 257.394H251.147C255.458 257.39 259.592 255.675 262.64 252.626C265.689 249.578 267.404 245.444 267.408 241.133V17.4373C267.403 13.1261 265.688 8.99285 262.64 5.94432C259.591 2.89579 255.458 1.18088 251.147 1.17578H146.046Z" fill="#363E44"/>
<path d="M152.319 63.7725L187.585 63.7725V28.5069L152.319 28.5069V63.7725Z" fill="white"/>
<path d="M190.972 67.1543H154.998V31.1851H190.972V67.1543ZM155.706 66.4458H190.263V31.8936H155.706V66.4458Z" fill="white"/>
<path d="M152.319 121.382H187.585V86.1163H152.319V121.382Z" fill="white"/>
<path d="M190.972 124.768H154.998V88.7944H190.972V124.768ZM155.706 124.06H190.263V89.5029H155.706V124.06Z" fill="white"/>
<path d="M152.319 178.99H187.585V143.724H152.319V178.99Z" fill="white"/>
<path d="M190.972 182.376H154.998V146.404H190.972V182.376ZM155.706 181.668H190.263V147.111H155.706V181.668Z" fill="white"/>
<path d="M168.566 118.289L153.505 102.069L157.847 98.0369L167.879 108.841L179.873 91.4243L184.752 94.7852L168.566 118.289Z" fill="#F89D26"/>
<path d="M168.566 59.8649L153.505 43.6451L157.847 39.6126L167.879 50.4167L179.873 33L184.752 36.3609L168.566 59.8649Z" fill="#F89D26"/>
<path d="M168.566 175.865L153.505 159.645L157.847 155.613L167.879 166.417L179.873 149L184.752 152.361L168.566 175.865Z" fill="#F89D26"/>
<path d="M229.765 39.8184H196.969V40.5269H229.765V39.8184Z" fill="white"/>
<path d="M226.732 48.915H196.969V49.6235H226.732V48.915Z" fill="white"/>
<path d="M233.667 58.0098H196.969V58.7183H233.667V58.0098Z" fill="white"/>
<path d="M229.765 155.036H196.969V155.745H229.765V155.036Z" fill="white"/>
<path d="M226.732 164.132H196.969V164.841H226.732V164.132Z" fill="white"/>
<path d="M238.86 173.227H196.969V173.936H238.86V173.227Z" fill="white"/>
<path d="M247.956 97.4263H196.969V98.1348H247.956V97.4263Z" fill="white"/>
<path d="M226.732 106.523H196.969V107.231H226.732V106.523Z" fill="white"/>
<path d="M211.572 115.619H196.969V116.328H211.572V115.619Z" fill="white"/>
<path d="M79.9005 52.6005C78.7277 52.6005 77.4906 51.5562 76.9235 49.9914C76.2616 48.1359 76.803 46.2417 78.1317 45.7662C79.4603 45.2906 81.0813 46.4088 81.7448 48.266C82.0531 49.0877 82.1091 49.9828 81.9055 50.8365C81.687 51.6655 81.1986 52.2535 80.5302 52.4928C80.328 52.5645 80.115 52.601 79.9005 52.6005ZM78.7759 46.3638C78.639 46.3632 78.5031 46.3866 78.3742 46.4329C77.428 46.7703 77.0713 48.2917 77.5935 49.7521C78.1156 51.2124 79.3607 52.1619 80.3021 51.8245C80.7439 51.6639 81.0733 51.251 81.2291 50.6549C81.3945 49.9396 81.343 49.1913 81.0813 48.5054C80.6266 47.2442 79.6418 46.3638 78.7727 46.3638H78.7759Z" fill="#363E44"/>
<path d="M78.4497 48.8395C76.7644 44.1146 75.3667 41.5088 72.5954 40.2091C68.8714 38.4644 64.8839 40.6043 64.4678 40.834C64.2044 40.9802 60.3277 42.8374 59.6819 47.1157C59.0393 51.3393 60.6667 55.7525 64.0421 58.3086V72.2952C64.0419 73.0157 64.1836 73.729 64.4591 74.3947C64.7347 75.0603 65.1387 75.6651 65.648 76.1746C66.1573 76.6841 66.762 77.0882 67.4276 77.364C68.0931 77.6397 68.8065 77.7816 69.5269 77.7816H70.2065C70.9275 77.7825 71.6416 77.6412 72.308 77.3659C72.9744 77.0905 73.58 76.6865 74.0901 76.177C74.6002 75.6674 75.0049 75.0623 75.2811 74.3963C75.5572 73.7302 75.6993 73.0163 75.6993 72.2952V61.4349C77.6272 61.2743 79.1421 60.7168 79.751 59.7448C80.8435 57.9969 80.4338 54.3998 78.4497 48.8395Z" fill="#84524D"/>
<path d="M78.8032 32.1313L75.4391 32.6824C75.5609 33.7991 75.3502 34.927 74.8334 35.9244C74.5892 34.3484 73.9884 33.5146 73.5225 32.9973L61.2178 35.0119C61.8274 35.8706 62.1492 36.9005 62.1368 37.9535C62.095 40.1914 60.4885 41.5474 60.2378 41.7514C57.5067 44.7011 56.5717 48.8379 57.8489 52.4736C59.3864 56.8547 63.422 58.4869 64.0373 58.7247C64.9167 58.5983 65.8153 58.4553 66.7331 58.2957C68.4907 57.9857 70.1664 57.6338 71.7568 57.2531C70.2403 56.7535 69.4161 55.3847 69.2442 53.9452C69.0578 52.3676 70.2226 50.6052 71.8613 50.5441C72.9023 50.5055 73.7602 51.0502 74.5266 52.766C75.1386 52.4447 75.8616 52.0045 76.4753 51.6783L74.0237 46.8314C74.2791 46.706 80.1061 43.7323 80.3969 37.8844C80.5319 35.1645 79.4073 33.076 78.8032 32.1313Z" fill="#363E44"/>
<path d="M74.647 51.6187C74.5697 51.6182 74.4947 51.5925 74.4334 51.5454C74.372 51.4984 74.3277 51.4326 74.3072 51.358C74.2867 51.2835 74.291 51.2043 74.3196 51.1325C74.3481 51.0607 74.3994 51.0001 74.4655 50.9601L80.7311 47.2152C80.8116 47.167 80.908 47.1528 80.9989 47.1757C81.0899 47.1986 81.1681 47.2567 81.2163 47.3373C81.2644 47.4178 81.2786 47.5142 81.2557 47.6051C81.2328 47.6961 81.1747 47.7743 81.0942 47.8224L74.8286 51.5689C74.7737 51.6017 74.7109 51.6189 74.647 51.6187Z" fill="#363E44"/>
<path d="M75.7861 61.6434C75.6937 61.643 75.605 61.6068 75.5388 61.5424C75.4726 61.4779 75.4339 61.3903 75.431 61.298L75.37 58.991C75.3678 58.8969 75.4029 58.8058 75.4676 58.7375C75.5323 58.6692 75.6213 58.6292 75.7154 58.6263C75.7621 58.6243 75.8087 58.6318 75.8525 58.6483C75.8962 58.6647 75.9362 58.6898 75.9701 58.722C76.004 58.7542 76.031 58.793 76.0497 58.8358C76.0683 58.8787 76.0781 58.9249 76.0784 58.9717L76.1395 61.2803C76.1417 61.3739 76.1067 61.4646 76.0423 61.5326C75.978 61.6006 75.8893 61.6404 75.7957 61.6434H75.7861Z" fill="#363E44"/>
<path d="M72.6405 54.742C72.5913 54.7422 72.5426 54.7321 72.4975 54.7125C72.4525 54.6928 72.412 54.6641 72.3786 54.6279C72.1151 54.3388 71.8789 54.0721 71.6347 53.7957C71.4371 53.5708 71.2315 53.3395 71.0002 53.0824C70.944 53.0116 70.917 52.9221 70.9246 52.8321C70.9322 52.7421 70.9738 52.6583 71.041 52.5979C71.1081 52.5375 71.1958 52.5049 71.2861 52.5069C71.3765 52.5089 71.4626 52.5452 71.5271 52.6085C71.7601 52.8672 71.9657 53.1001 72.1697 53.3266C72.4107 53.6014 72.6437 53.8648 72.9039 54.1492C72.9504 54.1997 72.9812 54.2627 72.9925 54.3305C73.0038 54.3982 72.9951 54.4678 72.9675 54.5306C72.9399 54.5935 72.8946 54.647 72.8371 54.6845C72.7795 54.7221 72.7123 54.742 72.6437 54.742H72.6405Z" fill="#363E44"/>
<path d="M58.3582 278.199L36.3789 279.04L39.1325 250.15L61.2918 252.7L58.3582 278.199Z" fill="#84524D"/>
<path d="M87.9655 292.535L32.0974 292.81L37.1356 271.014L59.1968 270.904L74.8736 275.75C82.6413 277.853 87.9992 284.724 87.9655 292.535Z" fill="#363E44"/>
<path d="M119.409 274.623L98.7311 282.123L92.5491 253.769L114.432 249.444L119.409 274.623Z" fill="#84524D"/>
<path d="M147.19 292.535L91.3215 292.81L96.3597 271.014L118.673 270.904L134.096 275.75C141.864 277.853 147.222 284.724 147.188 292.535H147.19Z" fill="#363E44"/>
<path d="M96.2681 115.624C98.5173 121.347 117.388 254.766 119.594 262.56H87.612C86.2593 260.354 73.8486 178.558 73.0437 174.053C72.3673 176.667 64.3683 259.854 63.6871 262.47H33.6975C34.2405 253.867 45.819 118.138 47.6119 113.05C62.3119 113.905 81.5681 114.766 96.2681 115.624Z" fill="white"/>
<path d="M105.037 73.5322C126.454 78.0691 137.464 83.2615 135.079 91.2284C133.699 95.8505 120.848 98.127 103.76 95.4424C104.142 88.5342 104.394 81.8799 105.037 73.5322Z" fill="#84524D"/>
<path d="M35.7107 76.3115C9.80011 83.978 -2.13661 90.2886 1.40424 98.5302C3.45742 103.315 18.5366 105.249 39.2853 100.137C38.2812 92.7627 37.1517 85.1926 35.7107 76.3115Z" fill="#84524D"/>
<path d="M21.0024 78.8926C21.0024 78.8926 45.6342 69.0749 66.0391 68.3391C83.4284 67.7125 110.308 72.2977 110.308 72.2977L110.582 101.733L100.045 100.681L103.162 144.922L40.4193 148.109L38.2826 108.599L33.6975 110.849L21.0024 78.8926Z" fill="#009B7C"/>
<path d="M121.493 77.8745C125.466 74.2372 137.166 63.4299 144.688 57.823C152.586 51.9334 165.106 44.389 166.139 46.153C166.728 47.1587 165.233 48.5404 160.998 51.9687C161.385 52.0105 162.482 52.3447 162.874 53.3665C163.456 54.8782 162.41 55.765 162.347 55.8807C162.479 55.8807 163.907 55.9594 164.468 56.9057C164.743 57.3474 164.876 57.8629 164.849 58.3826C164.822 58.9023 164.637 59.4012 164.317 59.812C164.638 59.8296 165.851 60.0208 166.364 60.9462C166.889 61.8989 166.748 63.2741 165.829 63.9392C164.14 65.1586 159.056 68.6882 156.79 70.7076C152.332 74.6806 138.394 90.9165 130.433 94.957C129.41 87.2969 122.511 85.5345 121.493 77.8745Z" fill="#84524D"/>
<path d="M133.482 83.6357C133.418 83.6359 133.354 83.6181 133.299 83.5843C130.322 81.7785 126.42 79.9952 121.371 78.1332C121.324 78.1196 121.281 78.0964 121.243 78.0653C121.206 78.0342 121.175 77.9957 121.153 77.9523C121.132 77.9089 121.119 77.8615 121.116 77.8129C121.113 77.7644 121.12 77.7158 121.137 77.6702C121.154 77.6245 121.18 77.5828 121.213 77.5476C121.247 77.5124 121.287 77.4845 121.332 77.4656C121.377 77.4466 121.425 77.4371 121.474 77.4375C121.522 77.438 121.57 77.4484 121.615 77.4681C126.709 79.3462 130.652 81.1487 133.664 82.9786C133.73 83.0191 133.78 83.0799 133.808 83.1517C133.836 83.2235 133.84 83.3025 133.819 83.3767C133.798 83.4509 133.754 83.5164 133.692 83.5631C133.631 83.6098 133.556 83.6353 133.479 83.6357H133.482Z" fill="#363E44"/>
<path d="M157.411 52.8091C157.345 52.8102 157.279 52.793 157.223 52.7592C157.166 52.7254 157.12 52.6765 157.089 52.6179L156.329 51.1527C156.297 51.0705 156.296 50.9791 156.327 50.8964C156.358 50.8136 156.419 50.7455 156.498 50.7053C156.577 50.6651 156.668 50.6558 156.753 50.6791C156.838 50.7024 156.912 50.7567 156.959 50.8314L157.719 52.2966C157.741 52.3387 157.754 52.3847 157.757 52.4318C157.761 52.479 157.755 52.5265 157.74 52.5714C157.725 52.6163 157.701 52.6578 157.67 52.6933C157.639 52.7289 157.601 52.7579 157.558 52.7785C157.512 52.7994 157.461 52.8099 157.411 52.8091Z" fill="#363E44"/>
<path d="M159.345 56.5217C159.279 56.5228 159.214 56.5056 159.157 56.4718C159.1 56.438 159.054 56.3891 159.023 56.3305L158.264 54.8653C158.239 54.8238 158.223 54.7777 158.217 54.7298C158.211 54.682 158.215 54.6334 158.228 54.5871C158.242 54.5408 158.265 54.4977 158.295 54.4605C158.326 54.4233 158.364 54.3928 158.407 54.3708C158.45 54.3488 158.497 54.3359 158.545 54.3328C158.593 54.3296 158.641 54.3364 158.687 54.3526C158.732 54.3689 158.774 54.3942 158.809 54.4271C158.844 54.46 158.872 54.4998 158.892 54.544L159.652 56.0092C159.674 56.0506 159.688 56.0961 159.693 56.143C159.697 56.1898 159.692 56.2372 159.678 56.2821C159.664 56.3271 159.641 56.3687 159.611 56.4046C159.58 56.4405 159.543 56.47 159.501 56.4911C159.452 56.5132 159.398 56.5237 159.345 56.5217Z" fill="#363E44"/>
<path d="M161.356 60.2798C161.29 60.2813 161.225 60.2644 161.169 60.2309C161.112 60.1974 161.065 60.1487 161.035 60.0903L160.275 58.6251C160.25 58.5835 160.235 58.5374 160.229 58.4896C160.223 58.4418 160.226 58.3932 160.24 58.3469C160.253 58.3005 160.276 58.2574 160.307 58.2202C160.337 58.1831 160.375 58.1525 160.418 58.1306C160.461 58.1086 160.508 58.0957 160.556 58.0925C160.604 58.0894 160.653 58.0962 160.698 58.1124C160.744 58.1286 160.785 58.154 160.82 58.1869C160.856 58.2198 160.884 58.2596 160.903 58.3038L161.663 59.7673C161.685 59.8088 161.699 59.8543 161.703 59.9011C161.707 59.9479 161.702 59.995 161.688 60.0399C161.674 60.0847 161.651 60.1263 161.621 60.1622C161.591 60.1982 161.554 60.2278 161.512 60.2493C161.463 60.2715 161.41 60.282 161.356 60.2798Z" fill="#363E44"/>
<path d="M163.109 63.7272C163.043 63.7284 162.978 63.7111 162.921 63.6774C162.864 63.6436 162.818 63.5947 162.788 63.5361L162.028 62.0709C162.003 62.0293 161.987 61.9833 161.981 61.9354C161.975 61.8876 161.979 61.839 161.992 61.7927C162.006 61.7463 162.029 61.7032 162.059 61.6661C162.09 61.6289 162.128 61.5983 162.171 61.5764C162.214 61.5544 162.261 61.5415 162.309 61.5383C162.357 61.5352 162.405 61.542 162.451 61.5582C162.496 61.5744 162.538 61.5998 162.573 61.6327C162.608 61.6656 162.637 61.7054 162.656 61.7496L163.417 63.2147C163.439 63.2568 163.452 63.3028 163.456 63.35C163.459 63.3972 163.454 63.4447 163.439 63.4896C163.424 63.5345 163.4 63.5759 163.369 63.6115C163.337 63.6471 163.299 63.676 163.257 63.6967C163.21 63.7176 163.16 63.728 163.109 63.7272Z" fill="#363E44"/>
<path d="M22.0099 92.1826C24.8037 72.5665 27.1606 58.7035 27.7212 54.3947C27.836 53.6396 27.8425 52.872 27.7405 52.115C27.1975 48.285 24.0454 47.3307 21.6356 43.5633C18.9045 39.2899 19.7849 35.3361 18.5012 35.1675C17.608 35.0486 16.8561 36.4527 16.485 39.6241C16.485 37.1773 16.3516 33.8597 15.0005 33.8613C13.4389 33.9465 13.1433 37.8633 13.0807 40.2426C13.1562 37.3636 12.3352 35.8101 11.5818 35.998C10.3961 36.2953 9.81456 38.5139 9.86436 42.3231C9.09643 39.7012 8.51967 39.1806 7.89472 39.51C6.75246 40.1108 6.85046 43.2404 7.36134 45.9957C7.93649 49.0963 9.4579 51.2973 10.4508 52.6693C7.06895 66.2045 -0.385476 89.7197 0.838721 96.554C0.922262 97.0199 14.6294 92.3095 22.0099 92.1826Z" fill="#84524D"/>
<path d="M27.7213 54.3931C29.2379 46.7973 29.0354 42.2346 28.1277 41.7864C26.3766 40.9253 25.0512 45.3369 23.7017 49.5172C25.1861 50.9534 26.2368 52.9568 27.7213 54.3931Z" fill="#84524D"/>
<path d="M22.2009 90.1281H22.1495C22.0566 90.1142 21.973 90.0642 21.9168 89.989C21.8605 89.9138 21.8362 89.8194 21.8491 89.7264C22.323 86.4378 22.821 83.0544 23.3303 79.6694C23.3444 79.5765 23.3948 79.493 23.4704 79.4372C23.546 79.3815 23.6407 79.3581 23.7336 79.3722C23.8265 79.3862 23.9099 79.4366 23.9657 79.5122C24.0214 79.5879 24.0448 79.6825 24.0308 79.7754C23.5215 83.1588 23.0235 86.5406 22.5511 89.8276C22.5384 89.9114 22.4961 89.9878 22.4318 90.0429C22.3675 90.098 22.2856 90.1283 22.2009 90.1281Z" fill="#363E44"/>
<path d="M17.6206 43.8591C17.5608 43.8601 17.5017 43.8458 17.4489 43.8177C17.3961 43.7896 17.3512 43.7486 17.3186 43.6984C16.5839 42.5067 16.1761 41.1425 16.1362 39.7431C16.1347 39.6965 16.1424 39.6501 16.1589 39.6066C16.1754 39.563 16.2003 39.5231 16.2323 39.4893C16.2642 39.4554 16.3025 39.4281 16.345 39.4091C16.3876 39.3901 16.4334 39.3796 16.48 39.3784C16.5267 39.376 16.5735 39.3831 16.6175 39.3993C16.6614 39.4154 16.7016 39.4403 16.7357 39.4724C16.7698 39.5046 16.797 39.5433 16.8157 39.5862C16.8344 39.6291 16.8443 39.6754 16.8447 39.7222C16.8804 40.9978 17.2523 42.2414 17.9227 43.3273C17.956 43.381 17.9743 43.4425 17.9757 43.5057C17.9771 43.5688 17.9616 43.6311 17.9308 43.6863C17.9 43.7414 17.8549 43.7872 17.8004 43.819C17.7458 43.8508 17.6838 43.8674 17.6206 43.8671V43.8591Z" fill="#363E44"/>
<path d="M14.0589 45.0075C13.992 45.0081 13.9263 44.9898 13.8694 44.9545C13.8125 44.9192 13.7668 44.8685 13.7376 44.8083C13.0383 43.3602 12.7356 41.7525 12.8605 40.1493C12.8725 40.0594 12.9185 39.9774 12.989 39.9204C13.0596 39.8633 13.1493 39.8354 13.2397 39.8424C13.3302 39.8494 13.4145 39.8907 13.4755 39.958C13.5364 40.0252 13.5693 40.1132 13.5673 40.2039C13.5086 40.9559 13.5508 41.7123 13.6927 42.4531C13.8317 43.1627 14.0623 43.8512 14.3787 44.5015C14.4044 44.5556 14.4161 44.6155 14.4125 44.6754C14.4089 44.7353 14.3902 44.7933 14.3581 44.844C14.326 44.8947 14.2816 44.9364 14.229 44.9653C14.1764 44.9942 14.1173 45.0092 14.0573 45.0091L14.0589 45.0075Z" fill="#363E44"/>
<path d="M11.4756 47.3531C11.4169 47.3527 11.3592 47.3378 11.3076 47.3098C11.2561 47.2818 11.2122 47.2415 11.18 47.1924C10.2321 45.7648 9.6779 44.1122 9.57342 42.4017C9.57057 42.3553 9.57689 42.3087 9.59202 42.2648C9.60716 42.2208 9.6308 42.1802 9.66161 42.1454C9.69241 42.1106 9.72977 42.0821 9.77157 42.0618C9.81336 42.0414 9.85876 42.0294 9.90517 42.0265C9.99891 42.0208 10.0911 42.0525 10.1614 42.1147C10.1963 42.1455 10.2247 42.1829 10.2451 42.2247C10.2655 42.2665 10.2775 42.3119 10.2803 42.3583C10.3755 43.9449 10.8887 45.478 11.768 46.802C11.803 46.8555 11.8229 46.9174 11.8256 46.9812C11.8283 47.045 11.8138 47.1084 11.7835 47.1647C11.7533 47.2209 11.7084 47.268 11.6536 47.3008C11.5989 47.3337 11.5362 47.3512 11.4724 47.3515L11.4756 47.3531Z" fill="#363E44"/>
<path d="M265.278 237.413C269.616 262.018 268.705 282.746 268.705 282.746C268.705 282.746 260.76 263.579 256.422 238.975C252.085 214.371 252.996 193.641 252.996 193.641C252.996 193.641 260.94 212.803 265.278 237.413Z" fill="#009B7C"/>
<path d="M284.571 246.906C277.162 270.767 266.86 288.775 266.86 288.775C266.86 288.775 268.575 268.098 275.984 244.238C283.393 220.377 293.696 202.369 293.696 202.369C293.696 202.369 291.982 223.046 284.571 246.906Z" fill="#009B7C"/>
<path d="M274.302 259.818C274.287 259.82 274.272 259.82 274.257 259.818C274.177 259.808 274.102 259.771 274.047 259.712C273.991 259.654 273.957 259.578 273.95 259.497C273.936 259.336 272.625 244.055 274.98 226.008C277.335 207.962 282.531 193.521 282.584 193.378C282.611 193.301 282.663 193.236 282.732 193.193C282.801 193.151 282.882 193.133 282.963 193.144C283.043 193.154 283.118 193.192 283.173 193.25C283.229 193.309 283.263 193.385 283.27 193.466C283.283 193.619 284.595 208.91 282.238 226.956L281.888 226.91L282.238 226.956C279.882 245.003 274.688 259.444 274.636 259.587C274.611 259.655 274.565 259.714 274.506 259.755C274.446 259.797 274.375 259.819 274.302 259.818ZM282.685 195.275C281.271 199.56 277.567 211.662 275.684 226.098C273.801 240.535 274.27 253.182 274.535 257.685C275.947 253.402 279.652 241.298 281.536 226.863C283.421 212.428 282.95 199.778 282.685 195.275Z" fill="#009B7C"/>
<path d="M266.133 272.645C266.055 272.645 265.98 272.62 265.918 272.573C265.857 272.526 265.812 272.46 265.792 272.385C265.736 272.184 260.23 252.067 258.953 227.363C257.676 202.659 261.075 182.079 261.109 181.875C261.123 181.796 261.163 181.724 261.223 181.67C261.283 181.617 261.359 181.586 261.44 181.582C261.52 181.577 261.599 181.6 261.664 181.647C261.73 181.693 261.777 181.761 261.8 181.838C261.856 182.039 267.362 202.156 268.639 226.861C269.924 251.565 266.517 272.144 266.483 272.35C266.469 272.429 266.429 272.501 266.369 272.555C266.309 272.608 266.232 272.64 266.152 272.644L266.133 272.645ZM261.547 183.7C260.775 189.12 258.596 206.792 259.658 227.326C260.72 247.859 264.712 265.212 266.039 270.524C266.814 265.102 268.992 247.432 267.93 226.898C266.87 206.363 262.878 189.013 261.547 183.7Z" fill="#009B7C"/>
<path d="M275.059 245.804C271.807 270.576 264.712 290.073 264.712 290.073C264.712 290.073 262.892 269.406 266.144 244.633C269.396 219.86 276.49 200.364 276.49 200.364C276.49 200.364 278.312 221.031 275.059 245.804Z" fill="#009B7C"/>
<path d="M253.246 253.009C251.801 257.459 250.978 262.516 250.978 267.879C250.978 278.267 254.051 287.508 258.826 293.409H283.52C288.295 287.508 291.369 278.267 291.369 267.879C291.369 262.516 290.549 257.459 289.1 253.009H253.246Z" fill="#F89D26"/>
<rect x="107.909" y="203.194" width="99.3573" height="67.1231" fill="#F5AB49"/>
<path d="M107.909 270.696L158.535 223.293L207.266 270.696" stroke="#FDEEDB"/>
<path d="M158.535 242.444L107.909 203.573H207.266L158.535 242.444Z" fill="#F89D26" stroke="#FDEEDB"/>
<path d="M149.05 237.5C149.05 243.269 153.731 247.95 159.5 247.95C165.269 247.95 169.95 243.269 169.95 237.5C169.95 231.731 165.269 227.05 159.5 227.05C153.731 227.05 149.05 231.731 149.05 237.5Z" fill="#009B7C" stroke="white" stroke-width="0.1"/>
<path d="M159.5 242C157.014 242 155 239.985 155 237.5C155 235.014 157.014 233 159.5 233C161.985 233 164 235.014 164 237.5C164 239.985 161.985 242 159.5 242Z" fill="#F89D26"/>
</g>
<defs>
<clipPath id="clip0_6880_535444">
<rect width="294" height="294" fill="white"/>
</clipPath>
</defs>
</svg>
