<svg width="294" height="294" viewBox="0 0 294 294" fill="none" xmlns="http://www.w3.org/2000/svg">
<g clip-path="url(#clip0_6880_534248)">
<path d="M147.001 294C228.187 294 294.002 228.186 294.002 147C294.002 65.8141 228.187 0 147.001 0C65.8145 0 0 65.8141 0 147C0 228.186 65.8145 294 147.001 294Z" fill="#E9FAF6"/>
<path d="M259.847 191.59H259.824L249.357 190.121C249.336 190.119 249.316 190.111 249.297 190.101C249.279 190.09 249.263 190.076 249.251 190.059C249.238 190.042 249.228 190.023 249.223 190.003C249.217 189.982 249.216 189.961 249.219 189.94L249.901 185.082C248.436 184.442 247.053 183.628 245.782 182.657L241.868 185.61C241.851 185.623 241.832 185.633 241.812 185.638C241.792 185.644 241.77 185.645 241.749 185.642C241.728 185.639 241.708 185.632 241.69 185.622C241.672 185.611 241.656 185.597 241.643 185.58L235.279 177.136C235.266 177.119 235.257 177.1 235.251 177.079C235.246 177.059 235.244 177.038 235.247 177.017C235.25 176.996 235.257 176.976 235.268 176.958C235.278 176.939 235.293 176.923 235.31 176.911L239.225 173.958C238.643 172.468 238.241 170.914 238.028 169.329L233.172 168.648C233.13 168.642 233.092 168.62 233.066 168.586C233.041 168.552 233.03 168.509 233.036 168.467L234.503 157.993C234.509 157.951 234.532 157.913 234.566 157.888C234.6 157.862 234.643 157.851 234.685 157.857L239.541 158.538C240.181 157.073 240.995 155.69 241.965 154.419L239.021 150.501C238.995 150.467 238.984 150.424 238.99 150.382C238.995 150.34 239.018 150.301 239.051 150.276L247.492 143.909C247.509 143.896 247.528 143.887 247.549 143.882C247.569 143.876 247.59 143.875 247.611 143.878C247.632 143.881 247.652 143.888 247.67 143.899C247.688 143.91 247.704 143.924 247.717 143.941L250.669 147.858C252.158 147.275 253.711 146.873 255.295 146.659L255.976 141.803C255.979 141.782 255.986 141.762 255.997 141.743C256.008 141.725 256.022 141.709 256.039 141.697C256.056 141.684 256.075 141.674 256.095 141.669C256.116 141.663 256.137 141.662 256.158 141.664L266.627 143.134C266.669 143.14 266.707 143.163 266.733 143.197C266.758 143.231 266.769 143.274 266.763 143.316L266.082 148.173C267.546 148.814 268.929 149.628 270.2 150.597L274.114 147.644C274.149 147.62 274.192 147.609 274.234 147.614C274.255 147.616 274.275 147.624 274.293 147.634C274.312 147.645 274.327 147.659 274.34 147.676L280.704 156.12C280.717 156.137 280.726 156.156 280.732 156.177C280.737 156.197 280.738 156.218 280.735 156.239C280.732 156.26 280.725 156.28 280.714 156.298C280.703 156.317 280.689 156.333 280.672 156.345L276.757 159.298C277.34 160.788 277.742 162.341 277.955 163.927L282.81 164.608C282.831 164.61 282.851 164.617 282.869 164.628C282.888 164.639 282.904 164.653 282.917 164.67C282.93 164.687 282.939 164.706 282.944 164.726C282.95 164.747 282.951 164.768 282.948 164.789L281.479 175.261C281.473 175.303 281.451 175.341 281.418 175.367C281.383 175.392 281.34 175.404 281.297 175.399L276.441 174.716C275.8 176.181 274.987 177.565 274.019 178.837L276.971 182.752C276.996 182.786 277.007 182.829 277.001 182.871C276.998 182.892 276.991 182.912 276.98 182.93C276.97 182.949 276.955 182.964 276.939 182.977L268.498 189.344C268.464 189.37 268.421 189.381 268.379 189.375C268.337 189.369 268.299 189.347 268.273 189.313L265.313 185.397C263.824 185.979 262.271 186.381 260.687 186.593L260.006 191.452C260 191.49 259.981 191.525 259.952 191.55C259.923 191.576 259.885 191.59 259.847 191.59ZM249.559 189.823L259.71 191.246L260.386 186.426C260.391 186.392 260.407 186.36 260.432 186.335C260.457 186.31 260.49 186.294 260.524 186.29C262.165 186.079 263.772 185.663 265.308 185.051C265.341 185.038 265.377 185.036 265.411 185.046C265.445 185.055 265.475 185.076 265.496 185.104L268.424 188.99L276.614 182.816L273.685 178.93C273.664 178.902 273.652 178.868 273.652 178.833C273.652 178.798 273.664 178.764 273.685 178.736C274.695 177.426 275.537 175.995 276.19 174.475C276.204 174.443 276.229 174.416 276.259 174.399C276.29 174.382 276.326 174.375 276.36 174.38L281.178 175.057L282.603 164.902L277.785 164.225C277.75 164.221 277.717 164.205 277.692 164.18C277.667 164.155 277.651 164.122 277.647 164.087C277.437 162.446 277.021 160.838 276.409 159.301C276.396 159.268 276.394 159.232 276.403 159.198C276.413 159.164 276.433 159.134 276.462 159.113L280.346 156.185L274.175 147.991L270.292 150.921C270.264 150.943 270.229 150.955 270.194 150.955C270.158 150.955 270.124 150.943 270.096 150.921C268.787 149.91 267.356 149.068 265.837 148.415C265.804 148.401 265.778 148.377 265.761 148.346C265.743 148.315 265.737 148.28 265.742 148.245L266.418 143.425L256.267 142L255.591 146.82C255.586 146.855 255.57 146.887 255.545 146.912C255.52 146.937 255.488 146.953 255.453 146.958C253.812 147.169 252.205 147.585 250.669 148.197C250.636 148.21 250.6 148.212 250.566 148.202C250.532 148.192 250.502 148.172 250.481 148.144L247.55 144.269L239.36 150.443L242.287 154.327C242.309 154.355 242.321 154.39 242.321 154.425C242.321 154.461 242.309 154.495 242.287 154.523C241.278 155.833 240.436 157.264 239.782 158.782C239.768 158.815 239.744 158.842 239.713 158.859C239.683 158.877 239.647 158.884 239.612 158.879L234.794 158.202L233.37 168.357L238.187 169.034C238.222 169.039 238.254 169.055 238.279 169.08C238.304 169.105 238.319 169.137 238.324 169.172C238.534 170.813 238.95 172.421 239.562 173.958C239.575 173.991 239.577 174.027 239.567 174.061C239.558 174.095 239.537 174.125 239.509 174.146L235.624 177.075L241.796 185.268L245.681 182.339C245.709 182.318 245.743 182.307 245.778 182.307C245.813 182.307 245.847 182.318 245.875 182.339C247.184 183.35 248.615 184.192 250.134 184.846C250.166 184.86 250.193 184.884 250.21 184.915C250.227 184.945 250.234 184.981 250.229 185.016L249.559 189.823ZM258.011 177.794C257.485 177.795 256.959 177.758 256.437 177.685C253.58 177.282 250.99 175.785 249.214 173.509C247.438 171.234 246.614 168.358 246.915 165.487C247.217 162.615 248.621 159.973 250.831 158.117C253.041 156.261 255.885 155.335 258.764 155.535C261.643 155.735 264.332 157.045 266.265 159.188C268.198 161.332 269.223 164.143 269.126 167.028C269.028 169.914 267.815 172.648 265.742 174.657C263.668 176.665 260.897 177.79 258.011 177.794ZM257.974 155.784C255.533 155.789 253.165 156.619 251.254 158.138C249.343 159.658 248.001 161.779 247.445 164.157C246.889 166.535 247.153 169.031 248.192 171.24C249.232 173.45 250.987 175.244 253.173 176.33C255.359 177.417 257.848 177.734 260.237 177.229C262.625 176.724 264.773 175.427 266.332 173.548C267.892 171.669 268.771 169.318 268.828 166.877C268.885 164.435 268.116 162.046 266.646 160.096C265.637 158.751 264.326 157.66 262.82 156.911C261.314 156.162 259.653 155.776 257.971 155.784H257.974Z" fill="white"/>
<path d="M23.8167 107.607C24.7794 106.644 24.7794 105.083 23.8167 104.12C22.854 103.156 21.2932 103.156 20.3305 104.12C19.3678 105.083 19.3678 106.644 20.3305 107.607C21.2932 108.57 22.854 108.57 23.8167 107.607Z" fill="white"/>
<path d="M32.4328 106.421C32.7455 105.095 31.9249 103.767 30.5998 103.454C29.2748 103.141 27.9471 103.962 27.6344 105.288C27.3216 106.613 28.1423 107.942 29.4673 108.254C30.7923 108.567 32.12 107.746 32.4328 106.421Z" fill="white"/>
<path d="M40.3948 106.422C40.7075 105.096 39.8869 103.768 38.5619 103.455C37.2368 103.142 35.9091 103.963 35.5964 105.289C35.2837 106.614 36.1043 107.943 37.4293 108.255C38.7544 108.568 40.082 107.747 40.3948 106.422Z" fill="white"/>
<path d="M252.056 22.3892H125.488V197.621H252.056V22.3892Z" fill="#C5E8E0"/>
<path d="M255.779 201.504H129.21C129.168 201.504 129.127 201.487 129.097 201.457C129.066 201.427 129.05 201.386 129.05 201.343V26.1128C129.05 26.0702 129.066 26.0293 129.097 25.9992C129.127 25.9691 129.168 25.9521 129.21 25.9521H255.779C255.821 25.9521 255.862 25.9691 255.892 25.9992C255.922 26.0293 255.939 26.0702 255.939 26.1128V201.343C255.939 201.386 255.922 201.427 255.892 201.457C255.862 201.487 255.821 201.504 255.779 201.504ZM129.371 201.183H255.618V26.2735H129.371V201.183Z" fill="#2F2F2E"/>
<path d="M234.03 49.1172H190.515V53.3762H234.03V49.1172Z" fill="#E9FAF6"/>
<path d="M221.169 59.7573H175.855V64.0163H221.169V59.7573Z" fill="#E9FAF6"/>
<path d="M234.03 70.396H175.855V74.655H234.03V70.396Z" fill="#E9FAF6"/>
<path d="M234.03 98.7695H190.515V103.029H234.03V98.7695Z" fill="#E9FAF6"/>
<path d="M221.169 109.408H175.855V113.667H221.169V109.408Z" fill="#E9FAF6"/>
<path d="M234.03 120.048H175.855V124.307H234.03V120.048Z" fill="#E9FAF6"/>
<path d="M225.036 148.42H190.515V152.679H225.036V148.42Z" fill="#E9FAF6"/>
<path d="M243.951 159.059H175.855V163.318H243.951V159.059Z" fill="#E9FAF6"/>
<path d="M234.03 169.699H175.855V173.958H234.03V169.699Z" fill="#E9FAF6"/>
<path d="M168.056 148.42H136.125V180.364H168.056V148.42Z" fill="white"/>
<path d="M150.378 175.534L140.381 166.438L143.469 162.627L149.808 167.697L159.753 153.25L163.8 156.037L150.378 175.534Z" fill="#F89D26"/>
<path d="M168.056 96.498H136.125V128.441H168.056V96.498Z" fill="white"/>
<path d="M150.378 123.613L140.381 114.515L143.469 110.706L149.808 115.775L159.753 101.327L163.8 104.115L150.378 123.613Z" fill="#F89D26"/>
<path d="M168.056 45.9155H136.125V77.8587H168.056V45.9155Z" fill="white"/>
<path d="M150.378 73.0292L140.381 63.9329L143.469 60.1221L149.808 65.1924L159.753 50.7446L163.8 53.532L150.378 73.0292Z" fill="#F89D26"/>
<path d="M221.169 16.9604H168.541V37.4585H221.169V16.9604Z" fill="#68C4AE"/>
<path d="M194.858 25.1201C192.692 25.1204 190.575 24.4783 188.775 23.2751C186.974 22.0718 185.571 20.3613 184.742 18.3601C183.913 16.3588 183.696 14.1566 184.119 12.032C184.541 9.90739 185.584 7.9558 187.115 6.42405C188.646 4.89231 190.597 3.8492 192.721 3.42667C194.844 3.00414 197.046 3.22116 199.046 4.05029C201.047 4.87941 202.757 6.28339 203.959 8.08467C205.162 9.88595 205.804 12.0036 205.804 14.1698C205.8 17.073 204.646 19.8563 202.594 21.9091C200.542 23.9619 197.76 25.1167 194.858 25.1201ZM194.858 3.53441C192.756 3.53409 190.701 4.1573 188.954 5.32521C187.206 6.49312 185.844 8.15328 185.039 10.0957C184.234 12.0382 184.024 14.1757 184.434 16.2379C184.843 18.3002 185.855 20.1945 187.341 21.6814C188.828 23.1683 190.721 24.1809 192.782 24.5912C194.844 25.0015 196.98 24.7911 198.922 23.9865C200.864 23.182 202.524 21.8194 203.692 20.0712C204.859 18.323 205.483 16.2676 205.483 14.165C205.48 11.3468 204.359 8.64482 202.367 6.65189C200.376 4.65896 197.675 3.53781 194.858 3.53441Z" fill="#68C4AE"/>
<path d="M194.858 21.8717C193.334 21.8721 191.845 21.4205 190.579 20.5741C189.312 19.7278 188.325 18.5247 187.742 17.117C187.159 15.7093 187.006 14.1603 187.303 12.6658C187.6 11.1713 188.334 9.79858 189.411 8.72114C190.488 7.64369 191.86 6.90998 193.354 6.61279C194.848 6.3156 196.396 6.46829 197.804 7.05154C199.211 7.6348 200.413 8.62242 201.259 9.88949C202.105 11.1566 202.557 12.6462 202.556 14.1699C202.554 16.2118 201.742 18.1693 200.299 19.6131C198.855 21.0569 196.899 21.8692 194.858 21.8717ZM194.858 6.78777C193.398 6.78745 191.971 7.22013 190.757 8.0311C189.544 8.84206 188.598 9.99488 188.039 11.3438C187.48 12.6926 187.334 14.177 187.618 15.6091C187.903 17.0412 188.606 18.3567 189.637 19.3893C190.669 20.4219 191.984 21.1251 193.416 21.4101C194.847 21.695 196.331 21.5489 197.68 20.9903C199.028 20.4316 200.181 19.4854 200.991 18.2714C201.802 17.0573 202.235 15.63 202.235 14.1699C202.233 12.213 201.455 10.3368 200.072 8.95286C198.689 7.56895 196.814 6.79032 194.858 6.78777Z" fill="#68C4AE"/>
<path d="M207.105 89.519C206.94 89.5187 206.777 89.4904 206.623 89.4354C206.119 89.2555 205.748 88.8057 205.581 88.1711C205.435 87.4973 205.481 86.7962 205.713 86.1472C205.946 85.4982 206.355 84.9271 206.894 84.4985C207.426 84.1129 207.996 84.0004 208.5 84.1772C209.004 84.3539 209.375 84.8069 209.542 85.4431C209.688 86.1169 209.642 86.818 209.409 87.467C209.177 88.116 208.768 88.6871 208.229 89.1157C207.906 89.3658 207.513 89.507 207.105 89.519ZM208.009 84.4181C207.67 84.4302 207.343 84.5494 207.076 84.7587C206.589 85.1493 206.22 85.6674 206.009 86.2554C205.799 86.8434 205.757 87.4782 205.886 88.0891C206.025 88.6177 206.323 88.9888 206.726 89.1334C207.129 89.278 207.593 89.18 208.036 88.8587C208.523 88.4681 208.892 87.95 209.102 87.362C209.312 86.774 209.355 86.1392 209.226 85.5283C209.088 84.9981 208.789 84.627 208.388 84.4824C208.266 84.4402 208.138 84.4184 208.009 84.4181Z" fill="#2F2F2E"/>
<path d="M208.278 86.5692C209.655 82.7054 210.798 80.5751 213.062 79.5148C216.114 78.0882 219.367 79.8361 219.705 80.0241C219.92 80.1446 223.088 81.6628 223.615 85.165C224.135 88.6175 222.812 92.2259 220.053 94.3144V105.755C220.053 106.944 219.58 108.085 218.739 108.925C217.898 109.766 216.758 110.239 215.569 110.239H215.009C213.82 110.238 212.68 109.766 211.84 108.925C210.999 108.084 210.527 106.944 210.527 105.755V96.8752C208.956 96.7435 207.713 96.2872 207.215 95.492C206.324 94.0638 206.656 91.1173 208.278 86.5692Z" fill="#84524D"/>
<path d="M207.989 72.9087L210.74 73.3585C210.639 74.2716 210.812 75.1942 211.235 76.0093C211.434 74.7241 211.924 74.0445 212.306 73.6156L222.359 75.2623C221.861 75.9663 221.599 76.8098 221.609 77.6721C221.645 79.502 222.957 80.6105 223.161 80.7776C225.396 83.1874 226.157 86.5692 225.114 89.543C223.856 93.124 220.559 94.459 220.056 94.6518C219.338 94.5447 218.604 94.428 217.853 94.3016C216.417 94.0494 215.048 93.7602 213.748 93.4501C214.988 93.0405 215.661 91.9223 215.801 90.7447C215.953 89.4594 214.998 88.0135 213.663 87.9653C212.812 87.9332 212.11 88.3782 211.486 89.7808C210.985 89.5141 210.394 89.159 209.892 88.8923L211.895 84.9338C211.686 84.8326 206.925 82.4018 206.689 77.6207C206.581 75.3924 207.496 73.6847 207.989 72.9087Z" fill="#2F2F2E"/>
<path d="M211.386 88.7155C211.357 88.715 211.329 88.7073 211.304 88.693L206.186 85.6293C206.168 85.6184 206.152 85.604 206.139 85.5869C206.127 85.5698 206.117 85.5504 206.112 85.5298C206.107 85.5092 206.106 85.4878 206.11 85.4668C206.113 85.4458 206.12 85.4257 206.131 85.4076C206.153 85.3712 206.189 85.345 206.23 85.3348C206.271 85.3246 206.315 85.3311 206.351 85.353L211.469 88.4151C211.506 88.4371 211.532 88.4726 211.542 88.5138C211.552 88.5551 211.546 88.5987 211.524 88.6352C211.51 88.6595 211.49 88.6796 211.466 88.6937C211.441 88.7078 211.414 88.7153 211.386 88.7155Z" fill="#2F2F2E"/>
<path d="M210.456 96.9105C210.413 96.9105 210.373 96.8936 210.342 96.8635C210.312 96.8334 210.295 96.7925 210.295 96.7499L210.345 94.8638C210.345 94.8212 210.362 94.7803 210.392 94.7502C210.422 94.7201 210.463 94.7031 210.506 94.7031C210.548 94.7031 210.589 94.7201 210.619 94.7502C210.649 94.7803 210.666 94.8212 210.666 94.8638L210.617 96.7499C210.617 96.7925 210.6 96.8334 210.57 96.8635C210.539 96.8936 210.499 96.9105 210.456 96.9105Z" fill="#2F2F2E"/>
<path d="M213.027 91.2687C212.987 91.269 212.948 91.2541 212.918 91.2269C212.887 91.1981 212.868 91.1581 212.866 91.1156C212.865 91.0732 212.88 91.0317 212.908 91.0004C213.12 90.7674 213.311 90.5522 213.507 90.3289C213.668 90.1425 213.841 89.9513 214.032 89.7393C214.046 89.7222 214.063 89.7081 214.083 89.6979C214.102 89.6876 214.123 89.6814 214.145 89.6797C214.167 89.678 214.189 89.6807 214.209 89.6878C214.23 89.6948 214.249 89.7061 214.265 89.7208C214.282 89.7355 214.295 89.7533 214.304 89.7732C214.313 89.7932 214.318 89.8147 214.318 89.8366C214.319 89.8585 214.315 89.8803 214.306 89.9006C214.298 89.9208 214.286 89.9392 214.27 89.9545C214.081 90.165 213.912 90.3562 213.748 90.5409C213.551 90.7658 213.36 90.9827 213.146 91.2173C213.131 91.2336 213.112 91.2466 213.092 91.2555C213.072 91.2643 213.049 91.2688 213.027 91.2687Z" fill="#2F2F2E"/>
<path d="M224.697 274.072L242.658 274.76L240.408 251.144L222.3 253.229L224.697 274.072Z" fill="#84524D"/>
<path d="M200.503 285.794L246.158 286.017L242.04 268.199L224.012 268.11L211.201 272.071C204.855 273.791 200.478 279.406 200.503 285.794Z" fill="#2F2F2E"/>
<path d="M174.808 271.15L191.705 277.28L196.756 254.101L178.874 250.565L174.808 271.15Z" fill="#84524D"/>
<path d="M152.106 285.794L197.76 286.017L193.644 268.199L175.408 268.109L162.805 272.071C156.457 273.791 152.079 279.406 152.106 285.794Z" fill="#2F2F2E"/>
<path d="M193.717 141.168C191.88 145.846 176.46 254.912 174.656 261.289H200.8C201.906 259.485 212.041 192.616 212.704 188.933C213.257 191.071 219.798 259.077 220.35 261.213H244.857C244.413 254.181 234.951 143.223 233.487 139.063C221.466 139.77 205.731 140.466 193.717 141.168Z" fill="white"/>
<path d="M186.553 106.757C169.049 110.467 160.056 114.713 161.999 121.216C163.123 124.995 173.627 126.857 187.592 124.662C187.284 119.022 187.077 113.584 186.553 106.757Z" fill="#84524D"/>
<path d="M243.204 109.027C264.379 115.293 274.131 120.452 271.239 127.194C269.561 131.105 257.239 132.687 240.283 128.505C241.109 122.479 242.027 116.291 243.204 109.027Z" fill="#84524D"/>
<path d="M255.223 111.335C255.223 111.335 235.094 103.302 218.421 102.707C204.211 102.195 182.245 105.943 182.245 105.943L182.02 130.006L190.632 129.145L188.085 165.313L239.356 167.919L241.108 135.611L244.854 137.452L255.223 111.335Z" fill="#F89D26"/>
<path d="M178.015 114.719C178.284 110.326 178.464 100.294 178.164 92.631C177.843 84.5821 176.211 72.745 174.559 72.9956C173.618 73.1386 173.508 74.7982 173.508 79.2612C173.282 79.0363 172.506 78.5109 171.655 78.7792C170.396 79.1873 170.37 80.3071 170.329 80.4067C170.258 80.3247 169.477 79.4556 168.588 79.5857C168.166 79.638 167.771 79.8184 167.455 80.1025C167.139 80.3866 166.918 80.7608 166.821 81.1746C166.641 80.9754 165.901 80.3071 165.055 80.4565C164.178 80.6171 163.376 81.4092 163.426 82.3361C163.519 84.0359 163.889 89.0837 163.768 91.561C163.534 96.4369 160.377 113.642 161.899 120.779C167.282 117.492 172.623 118.01 178.015 114.719Z" fill="#84524D"/>
<path d="M168.175 112.631C168.139 112.631 168.103 112.619 168.075 112.596C168.046 112.574 168.026 112.542 168.018 112.506C168.01 112.471 168.014 112.434 168.029 112.401C168.045 112.368 168.072 112.342 168.104 112.326C170.683 111.056 174.014 109.876 178.287 108.716C178.329 108.704 178.372 108.71 178.41 108.731C178.447 108.752 178.474 108.787 178.485 108.828C178.496 108.869 178.491 108.913 178.47 108.95C178.449 108.987 178.414 109.014 178.373 109.026C174.118 110.181 170.807 111.355 168.246 112.615C168.224 112.625 168.199 112.631 168.175 112.631Z" fill="#2F2F2E"/>
<path d="M175.04 81.944C174.998 81.9483 174.955 81.9354 174.922 81.9083C174.889 81.8812 174.868 81.842 174.864 81.7994C174.86 81.7568 174.872 81.7142 174.9 81.6811C174.927 81.648 174.966 81.627 175.008 81.6227L176.328 81.3528C176.371 81.3443 176.415 81.353 176.451 81.3771C176.488 81.4012 176.513 81.4387 176.521 81.4813C176.53 81.5239 176.521 81.5682 176.497 81.6043C176.473 81.6405 176.435 81.6656 176.393 81.6741L175.073 81.9344L175.04 81.944Z" fill="#2F2F2E"/>
<path d="M171.687 82.6218C171.65 82.6226 171.613 82.6101 171.584 82.5866C171.554 82.5632 171.534 82.5301 171.527 82.4933C171.522 82.4726 171.522 82.4513 171.526 82.4306C171.53 82.4099 171.538 82.3901 171.55 82.3725C171.562 82.3549 171.577 82.3398 171.594 82.328C171.612 82.3162 171.631 82.3079 171.652 82.3037L172.972 82.0354C173.015 82.0269 173.059 82.0356 173.095 82.0597C173.131 82.0839 173.156 82.1213 173.165 82.1639C173.173 82.2065 173.164 82.2508 173.14 82.2869C173.116 82.3231 173.079 82.3482 173.036 82.3567L171.716 82.625C171.706 82.6252 171.697 82.6241 171.687 82.6218Z" fill="#2F2F2E"/>
<path d="M168.265 83.2761C168.244 83.2782 168.223 83.2762 168.202 83.27C168.182 83.2639 168.163 83.2538 168.147 83.2404C168.13 83.227 168.117 83.2105 168.107 83.1918C168.097 83.1731 168.091 83.1526 168.088 83.1315C168.086 83.1104 168.088 83.0891 168.095 83.0688C168.101 83.0485 168.111 83.0296 168.124 83.0132C168.138 82.9968 168.154 82.9832 168.173 82.9732C168.191 82.9632 168.212 82.9569 168.233 82.9548L169.555 82.6849C169.575 82.6807 169.597 82.6806 169.617 82.6846C169.638 82.6886 169.658 82.6966 169.675 82.7083C169.693 82.7199 169.708 82.7349 169.72 82.7524C169.732 82.7699 169.74 82.7895 169.744 82.8102C169.748 82.8309 169.748 82.8522 169.744 82.8729C169.74 82.8936 169.732 82.9133 169.721 82.931C169.709 82.9486 169.694 82.9637 169.677 82.9755C169.659 82.9873 169.64 82.9956 169.619 82.9998L168.297 83.2697L168.265 83.2761Z" fill="#2F2F2E"/>
<path d="M165.174 83.933C165.136 83.9337 165.099 83.9213 165.07 83.8978C165.041 83.8743 165.021 83.8413 165.013 83.8045C165.009 83.7838 165.009 83.7625 165.013 83.7418C165.017 83.721 165.025 83.7013 165.036 83.6837C165.048 83.6661 165.063 83.651 165.08 83.6392C165.098 83.6273 165.118 83.6191 165.138 83.6149L166.46 83.345C166.481 83.3408 166.503 83.3407 166.524 83.3449C166.545 83.3491 166.565 83.3574 166.583 83.3693C166.601 83.3812 166.616 83.3966 166.628 83.4145C166.64 83.4323 166.648 83.4524 166.653 83.4735C166.657 83.4946 166.657 83.5163 166.653 83.5374C166.649 83.5585 166.64 83.5786 166.628 83.5965C166.616 83.6144 166.601 83.6298 166.583 83.6418C166.565 83.6537 166.545 83.6621 166.524 83.6663L165.203 83.9362L165.174 83.933Z" fill="#2F2F2E"/>
<path d="M254.401 122.005C252.119 105.97 250.192 94.6356 249.734 91.1141C249.64 90.4963 249.635 89.8682 249.718 89.2489C250.161 86.1193 252.737 85.3385 254.704 82.2587C256.937 78.7661 256.217 75.5337 257.266 75.3955C257.997 75.2991 258.612 76.4414 258.915 79.0392C258.915 77.039 259.024 74.3255 260.129 74.3271C261.404 74.3962 261.645 77.5997 261.697 79.5436C261.636 77.19 262.305 75.9192 262.922 76.0735C263.885 76.3161 264.367 78.1315 264.326 81.245C264.953 79.1018 265.424 78.6745 265.931 78.9444C266.866 79.436 266.786 81.9969 266.368 84.246C265.898 86.7812 264.655 88.5837 263.844 89.7083C266.606 100.773 272.699 119.997 271.698 125.581C271.633 125.954 260.433 122.109 254.401 122.005Z" fill="#84524D"/>
<path d="M249.734 91.1125C248.494 84.9032 248.658 81.1727 249.402 80.8064C250.833 80.1012 251.915 83.7079 253.018 87.1266C251.806 88.2994 250.947 89.9381 249.734 91.1125Z" fill="#84524D"/>
<path d="M254.245 120.193C254.206 120.193 254.169 120.18 254.139 120.155C254.11 120.13 254.09 120.095 254.084 120.056C253.699 117.383 253.293 114.618 252.875 111.837C252.872 111.816 252.873 111.795 252.878 111.775C252.883 111.754 252.892 111.735 252.905 111.718C252.917 111.701 252.933 111.686 252.951 111.675C252.969 111.665 252.989 111.657 253.01 111.654C253.031 111.651 253.052 111.652 253.073 111.657C253.093 111.662 253.113 111.671 253.13 111.684C253.147 111.696 253.161 111.712 253.172 111.73C253.183 111.748 253.19 111.768 253.193 111.789C253.611 114.572 254.017 117.337 254.402 120.01C254.408 120.052 254.397 120.095 254.372 120.129C254.346 120.163 254.308 120.185 254.266 120.191L254.245 120.193Z" fill="#2F2F2E"/>
<path d="M257.987 82.3712C257.957 82.371 257.929 82.3627 257.903 82.3472C257.885 82.3361 257.87 82.3216 257.857 82.3045C257.845 82.2874 257.836 82.2679 257.831 82.2473C257.826 82.2267 257.825 82.2053 257.828 82.1844C257.832 82.1635 257.839 82.1435 257.85 82.1254C258.124 81.6809 258.34 81.203 258.493 80.7036C258.65 80.1879 258.736 79.6536 258.751 79.1148C258.751 79.0721 258.768 79.0313 258.798 79.0012C258.829 78.971 258.869 78.9541 258.912 78.9541C258.955 78.9541 258.995 78.971 259.026 79.0012C259.056 79.0313 259.073 79.0721 259.073 79.1148C259.04 80.2367 258.714 81.3304 258.125 82.2861C258.112 82.3113 258.092 82.3324 258.068 82.3474C258.043 82.3624 258.015 82.3706 257.987 82.3712Z" fill="#2F2F2E"/>
<path d="M260.897 83.3115C260.873 83.3113 260.849 83.3058 260.828 83.2954C260.809 83.2862 260.792 83.2732 260.778 83.2574C260.764 83.2416 260.753 83.2231 260.746 83.2031C260.739 83.1831 260.737 83.162 260.738 83.1409C260.739 83.1197 260.745 83.0991 260.754 83.0801C261.016 82.5362 261.207 81.9605 261.321 81.3675C261.438 80.7521 261.473 80.1238 261.425 79.4991C261.424 79.478 261.426 79.4568 261.432 79.4366C261.439 79.4164 261.449 79.3978 261.463 79.3816C261.477 79.3655 261.494 79.3522 261.512 79.3426C261.531 79.333 261.552 79.3272 261.573 79.3256C261.615 79.3225 261.657 79.3363 261.689 79.364C261.722 79.3917 261.742 79.4311 261.745 79.4734C261.846 80.7623 261.604 82.055 261.043 83.2199C261.03 83.2475 261.009 83.2708 260.983 83.287C260.957 83.3032 260.927 83.3117 260.897 83.3115Z" fill="#2F2F2E"/>
<path d="M263.009 85.2276C262.98 85.2275 262.951 85.2195 262.927 85.2046C262.902 85.1897 262.882 85.1683 262.868 85.1428C262.854 85.1173 262.848 85.0886 262.849 85.0597C262.85 85.0308 262.859 85.0028 262.875 84.9786C263.605 83.877 264.031 82.6025 264.112 81.2835C264.115 81.2412 264.134 81.2017 264.166 81.1737C264.198 81.1457 264.24 81.1315 264.282 81.1341C264.324 81.137 264.364 81.1565 264.392 81.1884C264.42 81.2203 264.434 81.262 264.431 81.3044C264.35 82.6804 263.907 84.0105 263.147 85.1602C263.131 85.1821 263.11 85.1997 263.086 85.2115C263.062 85.2233 263.035 85.2288 263.009 85.2276Z" fill="#2F2F2E"/>
<path d="M125.753 262.287C125.714 262.287 125.676 262.273 125.647 262.248C125.617 262.223 125.598 262.188 125.592 262.15C123.776 250.362 119.348 239.129 112.634 229.273C107.116 221.213 100.152 214.246 92.0939 208.726C92.0614 208.7 92.0398 208.664 92.0336 208.623C92.0274 208.582 92.037 208.541 92.0605 208.507C92.084 208.473 92.1195 208.45 92.1598 208.441C92.2001 208.433 92.2421 208.44 92.277 208.462C100.368 214.005 107.361 221.001 112.902 229.095C119.643 238.991 124.087 250.269 125.91 262.105C125.917 262.147 125.906 262.19 125.881 262.224C125.856 262.258 125.819 262.282 125.777 262.288L125.753 262.287Z" fill="#1DC49D"/>
<path d="M130.33 263.154C130.312 263.157 130.294 263.157 130.277 263.154C130.236 263.14 130.203 263.111 130.185 263.073C130.166 263.035 130.163 262.99 130.177 262.95C133.226 253.969 134.56 244.494 134.11 235.02C133.753 227.286 132.181 219.656 129.453 212.411C129.445 212.391 129.442 212.37 129.442 212.349C129.443 212.328 129.448 212.307 129.457 212.288C129.465 212.269 129.478 212.252 129.493 212.237C129.508 212.223 129.526 212.211 129.546 212.204C129.566 212.196 129.587 212.193 129.608 212.193C129.629 212.194 129.65 212.199 129.669 212.207C129.688 212.216 129.705 212.229 129.72 212.244C129.734 212.259 129.746 212.277 129.753 212.297C132.496 219.573 134.077 227.236 134.436 235.004C134.89 244.519 133.55 254.035 130.487 263.055C130.474 263.085 130.452 263.112 130.424 263.13C130.396 263.147 130.363 263.156 130.33 263.154Z" fill="#1DC49D"/>
<path d="M110.957 277.596H148.003V250.406H110.957V277.596Z" fill="#F89D26"/>
<path d="M75.4178 221.068L98.1193 216.946L67.9277 207.862C62.3182 195.249 60.4553 183.336 60.4553 183.336C60.4553 183.336 65.848 183.028 73.5854 183.809L87.3499 206.961L86.0876 185.862C92.4905 187.35 99.3077 189.676 105.547 193.299C106.426 193.809 107.268 194.337 108.073 194.883L110.923 226.792L119.218 206.575C124.563 215.786 124.169 225.822 119.409 231.638C112.109 240.556 93.3416 241.097 79.1002 225.597C77.7879 224.158 76.5585 222.646 75.4178 221.068Z" fill="#009B7C"/>
<path d="M73.5872 184.036C77.7939 184.455 81.9697 185.14 86.0894 186.089L87.3516 207.188L73.5872 184.036Z" fill="#1DC49D"/>
<path d="M108.074 195.11C113.095 198.505 116.766 202.566 119.223 206.802L110.925 227.019L108.074 195.11Z" fill="#1DC49D"/>
<path d="M75.4179 221.295C72.3923 217.141 69.924 212.57 67.9294 208.089L98.121 217.173L75.4179 221.295Z" fill="#1DC49D"/>
<path d="M118.839 239.859C118.809 239.859 118.779 239.851 118.753 239.834C118.727 239.818 118.706 239.795 118.693 239.767C112.707 227.262 103.534 216.554 92.0971 208.722C92.0646 208.697 92.043 208.66 92.0368 208.62C92.0305 208.579 92.0402 208.537 92.0636 208.504C92.0871 208.47 92.1227 208.446 92.163 208.438C92.2033 208.43 92.2452 208.437 92.2802 208.459C103.762 216.322 112.972 227.072 118.984 239.626C119.002 239.664 119.004 239.708 118.99 239.748C118.976 239.788 118.946 239.821 118.908 239.84C118.887 239.851 118.863 239.858 118.839 239.859Z" fill="#1DC49D"/>
<path d="M115.613 214.124L130.029 220.698L115.886 201.957C117.029 190.975 120.074 182.026 120.074 182.026C120.074 182.026 123.268 184.049 127.426 187.791L127.314 209.384L133.874 194.379C137.025 198.053 140.124 202.473 142.445 207.545C142.766 208.258 143.066 208.969 143.344 209.678L133.961 232.761L145.684 222.319C145.563 230.856 141.875 237.581 137.142 239.601C129.885 242.698 118.958 235.295 116.159 218.757C115.905 217.234 115.725 215.682 115.613 214.124Z" fill="#1DC49D"/>
<path d="M127.426 187.563C129.714 189.619 131.868 191.819 133.874 194.15L127.314 209.156L127.426 187.563Z" fill="#009B7C"/>
<path d="M143.344 209.451C145.045 213.861 145.753 218.17 145.689 222.095L133.965 232.537L143.344 209.451Z" fill="#009B7C"/>
<path d="M115.613 213.896C115.316 209.79 115.481 205.632 115.886 201.73L130.029 220.47L115.613 213.896Z" fill="#009B7C"/>
<path d="M134.187 243.909H134.176C134.134 243.906 134.094 243.887 134.066 243.855C134.038 243.823 134.024 243.781 134.027 243.739C134.221 240.837 134.248 237.926 134.11 235.02C133.753 227.286 132.181 219.656 129.453 212.411C129.445 212.391 129.442 212.37 129.442 212.349C129.443 212.328 129.448 212.307 129.457 212.288C129.465 212.269 129.478 212.252 129.493 212.237C129.508 212.223 129.526 212.211 129.546 212.204C129.566 212.196 129.587 212.193 129.608 212.193C129.629 212.194 129.65 212.199 129.669 212.207C129.688 212.216 129.705 212.229 129.72 212.244C129.734 212.259 129.746 212.277 129.753 212.297C132.496 219.573 134.077 227.236 134.436 235.004C134.577 237.922 134.549 240.845 134.353 243.76C134.35 243.801 134.331 243.84 134.3 243.868C134.269 243.896 134.229 243.911 134.187 243.909Z" fill="#1DC49D"/>
<g clip-path="url(#clip1_6880_534248)">
<path d="M191.5 113.029C189.568 113.029 188 111.462 188 109.529C188 107.597 189.568 106.029 191.5 106.029C193.432 106.029 195 107.597 195 109.529C195 111.462 193.432 113.029 191.5 113.029Z" fill="#009B7C"/>
<path d="M191.5 111.029C190.672 111.029 190 110.358 190 109.529C190 108.701 190.672 108.029 191.5 108.029C192.328 108.029 193 108.701 193 109.529C193 110.358 192.328 111.029 191.5 111.029Z" fill="#F89D26"/>
</g>
<g clip-path="url(#clip2_6880_534248)">
<path d="M59.7355 149.804L59.5137 149.742C58.1134 149.35 56.6571 150.162 56.2609 151.556L52.1305 166.084C51.7343 167.477 52.5483 168.925 53.9486 169.316L54.1703 169.379C55.5706 169.77 57.0269 168.958 57.4231 167.565L61.5536 153.037C61.9497 151.643 61.1358 150.196 59.7355 149.804Z" fill="#009B7C"/>
<path d="M113.966 160.044L114.16 159.919C115.383 159.133 115.736 157.51 114.947 156.295L106.728 143.623C105.939 142.408 104.309 142.06 103.086 142.846L102.892 142.971C101.669 143.757 101.316 145.379 102.105 146.595L110.324 159.266C111.112 160.482 112.743 160.83 113.966 160.044Z" fill="#009B7C"/>
<path d="M100.105 55.5756L100.305 55.673C101.556 56.2827 103.07 55.7669 103.684 54.521L119.259 22.9669C119.874 21.721 119.358 20.2169 118.107 19.6072L117.907 19.5098C116.655 18.9002 115.142 19.416 114.527 20.6618L98.9524 52.216C98.3375 53.4618 98.8535 54.966 100.105 55.5756Z" fill="#1DC49D"/>
<path d="M127.528 49.2739L86.8274 29.4569L87.1492 28.8048C89.0892 24.8726 92.519 21.8654 96.684 20.4448C100.849 19.0243 105.408 19.3067 109.358 21.23L120.271 26.5435C124.221 28.4667 127.239 31.8734 128.66 36.0138C130.082 40.1543 129.79 44.6896 127.85 48.6218L127.528 49.2739Z" fill="#009B7C"/>
<path d="M15.6175 39.3449L15.7741 39.1906C16.2507 38.721 16.895 38.4586 17.5653 38.4612C18.2356 38.4638 18.8769 38.7312 19.3483 39.2045L44.1789 64.1377C44.6503 64.611 44.913 65.2514 44.9093 65.9182C44.9055 66.5849 44.6357 67.2233 44.1591 67.6929L44.0025 67.8472C43.5264 68.3163 42.8827 68.5784 42.2131 68.5758C41.5435 68.5732 40.9028 68.3062 40.4319 67.8334L15.5977 42.8965C15.1268 42.4237 14.8644 41.7839 14.8681 41.1178C14.8718 40.4518 15.1414 39.814 15.6175 39.3449Z" fill="#1DC49D"/>
<path d="M15.8352 46.5635L24.4784 38.044C27.6069 34.9603 31.8368 33.237 36.2376 33.2533C40.6384 33.2696 44.8495 35.0242 47.9446 38.131L48.4579 38.6462L16.2189 70.4238L15.7056 69.9086C14.1728 68.3699 12.9602 66.5455 12.1371 64.5395C11.314 62.5335 10.8966 60.3851 10.9086 58.2173C10.9207 56.0494 11.3619 53.9044 12.2073 51.9048C13.0526 49.9052 14.2854 48.0902 15.8352 46.5635Z" fill="#009B7C"/>
<path d="M88.3082 154.155C119.88 149.409 141.643 120.085 136.919 88.6571C132.194 57.2296 102.77 35.6001 71.1992 40.3463C39.6279 45.0924 17.8643 74.417 22.5888 105.844C27.3134 137.272 56.737 158.901 88.3082 154.155Z" fill="#009B7C"/>
<path d="M84.7244 155.488C52.8952 160.273 23.1248 138.389 18.3616 106.705C13.5984 75.02 35.6191 45.3532 67.4483 40.5683C99.2775 35.7834 129.045 57.6673 133.807 89.3394C138.568 121.011 116.551 150.703 84.7244 155.488ZM67.6153 41.6789C36.4015 46.3713 14.8 75.4677 19.4693 106.528C24.1386 137.588 53.3316 159.059 84.5454 154.366C115.759 149.674 137.348 120.579 132.677 89.5092C128.006 58.439 98.8265 36.9869 67.6153 41.6789Z" fill="#2F2F2E"/>
<path d="M87.887 147.721C115.711 143.539 134.892 117.695 130.728 89.9977C126.564 62.3006 100.633 43.2386 72.8087 47.4214C44.9845 51.6042 25.804 77.448 29.9677 105.145C34.1315 132.842 60.0628 151.904 87.887 147.721Z" fill="white"/>
<path d="M80.768 102.553C83.1989 102.188 84.8746 99.9296 84.5108 97.5094C84.1469 95.0892 81.8813 93.4235 79.4504 93.789C77.0195 94.1544 75.3438 96.4126 75.7076 98.8328C76.0714 101.253 78.337 102.919 80.768 102.553Z" fill="#2F2F2E"/>
<path d="M51.9573 77.6379L51.9153 77.6926C51.6409 78.0492 51.7088 78.5591 52.0669 78.8315L78.6586 99.0529C79.0167 99.3252 79.5294 99.2568 79.8038 98.9002L79.8459 98.8455C80.1202 98.4888 80.0524 97.979 79.6942 97.7066L53.1025 77.4852C52.7444 77.2129 52.2317 77.2813 51.9573 77.6379Z" fill="#2F2F2E"/>
<path d="M99.6165 85.5457L99.5518 85.4541C99.1448 84.8778 98.3447 84.7395 97.7647 85.1452L79.0179 98.2581C78.4379 98.6638 78.2975 99.4599 78.7045 100.036L78.7692 100.128C79.1761 100.704 79.9762 100.842 80.5562 100.437L99.303 87.3238C99.8831 86.918 100.023 86.122 99.6165 85.5457Z" fill="#2F2F2E"/>
<path d="M127.11 90.6529C126.93 89.4426 125.798 88.6082 124.583 88.7892C123.367 88.9702 122.527 90.0982 122.708 91.3085C122.888 92.5188 124.019 93.3532 125.235 93.1722C126.451 92.9912 127.29 91.8632 127.11 90.6529Z" fill="#009B7C"/>
<path d="M35.704 106.464C36.9192 106.28 37.7555 105.15 37.5719 103.94C37.3882 102.73 36.2543 101.899 35.0391 102.083C33.8239 102.267 32.9876 103.398 33.1712 104.608C33.3548 105.817 34.4888 106.649 35.704 106.464Z" fill="#009B7C"/>
<path d="M74.101 54.1362C75.3165 53.9535 76.1543 52.8244 75.9724 51.6143C75.7905 50.4042 74.6577 49.5714 73.4423 49.7541C72.2268 49.9368 71.3889 51.0659 71.5708 52.276C71.7528 53.4861 72.8856 54.3189 74.101 54.1362Z" fill="#009B7C"/>
<path d="M89.3775 141.883C89.1972 140.673 88.0656 139.838 86.8499 140.019C85.6342 140.2 84.7948 141.328 84.975 142.538C85.1552 143.749 86.2868 144.583 87.5025 144.402C88.7182 144.221 89.5577 143.093 89.3775 141.883Z" fill="#009B7C"/>
</g>
</g>
<defs>
<clipPath id="clip0_6880_534248">
<rect width="294" height="294" fill="white"/>
</clipPath>
<clipPath id="clip1_6880_534248">
<rect width="7" height="7" fill="white" transform="matrix(-1 0 0 1 195 106)"/>
</clipPath>
<clipPath id="clip2_6880_534248">
<rect width="120.299" height="141.462" fill="white" transform="translate(7 33.8838) rotate(-8.54933)"/>
</clipPath>
</defs>
</svg>
