<svg width="294" height="294" viewBox="0 0 294 294" fill="none" xmlns="http://www.w3.org/2000/svg">
<g clip-path="url(#clip0_6880_534639)">
<path d="M147 294C228.186 294 294 228.186 294 147C294 65.8141 228.186 0 147 0C65.8141 0 0 65.8141 0 147C0 228.186 65.8141 294 147 294Z" fill="#E9FAF6"/>
<path d="M74.9909 178.99L293.537 178.99V24.0164L74.9909 24.0164L74.9909 178.99Z" fill="#A2D8CB"/>
<path d="M286.68 158.85V30.873L81.8476 30.873V158.85H286.68Z" fill="white"/>
<path d="M181.288 146.801H285.9V5.84625H181.288V146.801Z" fill="white"/>
<path d="M281.573 143.665H176.961C176.867 143.664 176.777 143.627 176.711 143.56C176.645 143.494 176.607 143.403 176.607 143.31V2.35505C176.607 2.26116 176.645 2.1711 176.711 2.10456C176.777 2.03802 176.867 2.00042 176.961 2H281.573C281.668 2 281.758 2.0374 281.825 2.10399C281.891 2.17057 281.928 2.26088 281.928 2.35505V143.31C281.928 143.404 281.891 143.494 281.825 143.561C281.758 143.627 281.668 143.665 281.573 143.665ZM177.316 142.956H281.22V2.70367H177.316V142.956Z" fill="#2F2F2E"/>
<path d="M274.264 22.0596H197.106C197.016 22.0535 196.932 22.0136 196.87 21.9478C196.809 21.882 196.774 21.7954 196.774 21.7053C196.774 21.6153 196.809 21.5286 196.87 21.4628C196.932 21.3971 197.016 21.3571 197.106 21.3511H274.267C274.357 21.3571 274.441 21.3971 274.502 21.4628C274.564 21.5286 274.598 21.6153 274.598 21.7053C274.598 21.7954 274.564 21.882 274.502 21.9478C274.441 22.0136 274.357 22.0535 274.267 22.0596H274.264Z" fill="#009B7C"/>
<path d="M274.264 27.9363H197.025C196.977 27.9396 196.928 27.9329 196.882 27.9166C196.837 27.9002 196.795 27.8747 196.759 27.8415C196.724 27.8082 196.695 27.7681 196.676 27.7235C196.656 27.6789 196.646 27.6307 196.646 27.5821C196.646 27.5335 196.656 27.4853 196.676 27.4407C196.695 27.3961 196.724 27.356 196.759 27.3227C196.795 27.2895 196.837 27.264 196.882 27.2476C196.928 27.2313 196.977 27.2246 197.025 27.2279H274.264C274.354 27.2339 274.438 27.2739 274.499 27.3396C274.561 27.4054 274.595 27.4921 274.595 27.5821C274.595 27.6721 274.561 27.7588 274.499 27.8246C274.438 27.8903 274.354 27.9303 274.264 27.9363Z" fill="#009B7C"/>
<path d="M274.264 33.8143H197.025C196.977 33.8176 196.928 33.8108 196.882 33.7945C196.837 33.7782 196.795 33.7526 196.759 33.7194C196.724 33.6862 196.695 33.646 196.676 33.6014C196.656 33.5568 196.646 33.5087 196.646 33.46C196.646 33.4114 196.656 33.3633 196.676 33.3187C196.695 33.2741 196.724 33.2339 196.759 33.2007C196.795 33.1675 196.837 33.1419 196.882 33.1256C196.928 33.1092 196.977 33.1025 197.025 33.1058H274.264C274.354 33.1118 274.438 33.1518 274.499 33.2176C274.561 33.2833 274.595 33.37 274.595 33.46C274.595 33.5501 274.561 33.6367 274.499 33.7025C274.438 33.7683 274.354 33.8082 274.264 33.8143Z" fill="#009B7C"/>
<path d="M250.029 43.7344H191.592V67.2415H250.029V43.7344Z" fill="#D2F7EE"/>
<path d="M250.733 91.4805H191.698V97.5259H250.733V91.4805Z" fill="#D2F7EE"/>
<path d="M250.733 100.375H191.698V106.42H250.733V100.375Z" fill="#D2F7EE"/>
<path d="M250.733 109.269H191.698V115.314H250.733V109.269Z" fill="#D2F7EE"/>
<path d="M250.733 118.162H191.698V124.208H250.733V118.162Z" fill="#D2F7EE"/>
<path d="M250.733 127.058H191.698V133.103H250.733V127.058Z" fill="#D2F7EE"/>
<path d="M275.073 91.4805H253.188V133.103H275.073V91.4805Z" fill="#D2F7EE"/>
<path d="M275.18 71.7832H191.698V77.3564H275.18V71.7832Z" fill="#D2F7EE"/>
<path d="M275.18 81.1328H191.698V86.706H275.18V81.1328Z" fill="#D2F7EE"/>
<path d="M275.276 43.8369H252.759V66.8974H275.276V43.8369Z" fill="#D2F7EE"/>
<path d="M255.833 61.4819L272.109 61.4659C269.699 53.4588 268.176 51.4329 267.18 51.5454C265.734 51.706 265.317 56.3329 263.339 56.4663C262.15 56.5466 261.673 54.9176 260.476 54.8597C259.44 54.8099 257.912 55.9249 255.833 61.4819Z" fill="white"/>
<path d="M263.008 50.9707C263.447 49.8965 262.933 48.6695 261.859 48.2301C260.784 47.7906 259.557 48.3051 259.118 49.3793C258.679 50.4534 259.193 51.6805 260.267 52.1199C261.341 52.5593 262.568 52.0448 263.008 50.9707Z" fill="white"/>
<path d="M144.494 104.171H90.3534C90.3069 104.171 90.2608 104.161 90.2178 104.144C90.1748 104.126 90.1358 104.1 90.103 104.067C90.0701 104.034 90.0441 103.994 90.0264 103.951C90.0088 103.908 89.9998 103.862 90 103.816V54.5136C90.0004 54.4549 90.0153 54.3972 90.0433 54.3456C90.0713 54.294 90.1116 54.2502 90.1607 54.2179L99.7486 47.8319L106.199 38.2407C106.231 38.1917 106.274 38.1514 106.326 38.1234C106.377 38.0953 106.434 38.0804 106.493 38.0801H144.494C144.589 38.0801 144.679 38.1175 144.745 38.1841C144.812 38.2507 144.849 38.341 144.849 38.4351V103.816C144.849 103.91 144.812 104 144.745 104.067C144.679 104.133 144.589 104.171 144.494 104.171ZM90.7005 103.462H144.141V38.7918H106.673L100.29 48.2881C100.264 48.3264 100.231 48.3592 100.192 48.3845L90.7005 54.7047V103.462Z" fill="#5B9788"/>
<path d="M106.484 54.8759H90.39C90.3199 54.8762 90.2513 54.8556 90.1929 54.8168C90.1345 54.778 90.089 54.7227 90.0621 54.6579C90.0353 54.5931 90.0283 54.5219 90.042 54.4531C90.0558 54.3844 90.0897 54.3213 90.1394 54.2718L106.234 38.1677C106.283 38.1181 106.346 38.0842 106.415 38.0704C106.483 38.0566 106.555 38.0635 106.619 38.0901C106.684 38.1168 106.739 38.1621 106.778 38.2202C106.817 38.2784 106.838 38.3467 106.838 38.4167V54.5144C106.839 54.5616 106.831 54.6085 106.814 54.6524C106.797 54.6963 106.771 54.7363 106.738 54.77C106.705 54.8038 106.665 54.8305 106.622 54.8487C106.578 54.8669 106.532 54.8761 106.484 54.8759ZM91.2447 54.1674H106.129V39.2746L91.2447 54.1674Z" fill="#5B9788"/>
<path d="M165.014 115.758H110.865V66.4541L120.516 60.0295L127.005 50.3789H165.014V115.758Z" fill="white"/>
<path d="M137.626 77.4906H118.482C118.434 77.4938 118.385 77.4871 118.339 77.4708C118.294 77.4545 118.252 77.4289 118.216 77.3957C118.181 77.3625 118.152 77.3223 118.133 77.2777C118.114 77.2331 118.104 77.1849 118.104 77.1363C118.104 77.0877 118.114 77.0396 118.133 76.9949C118.152 76.9503 118.181 76.9102 118.216 76.8769C118.252 76.8437 118.294 76.8182 118.339 76.8018C118.385 76.7855 118.434 76.7788 118.482 76.7821H137.626C137.675 76.7788 137.723 76.7855 137.769 76.8018C137.815 76.8182 137.857 76.8437 137.893 76.8769C137.928 76.9102 137.956 76.9503 137.976 76.9949C137.995 77.0396 138.005 77.0877 138.005 77.1363C138.005 77.1849 137.995 77.2331 137.976 77.2777C137.956 77.3223 137.928 77.3625 137.893 77.3957C137.857 77.4289 137.815 77.4545 137.769 77.4708C137.723 77.4871 137.675 77.4938 137.626 77.4906Z" fill="#5B9788"/>
<path d="M152.773 77.4906H141.802C141.712 77.4845 141.628 77.4446 141.566 77.3788C141.505 77.313 141.471 77.2263 141.471 77.1363C141.471 77.0463 141.505 76.9596 141.566 76.8938C141.628 76.8281 141.712 76.7881 141.802 76.7821H152.773C152.822 76.7788 152.87 76.7855 152.916 76.8018C152.962 76.8182 153.004 76.8437 153.039 76.8769C153.075 76.9102 153.103 76.9503 153.123 76.9949C153.142 77.0396 153.152 77.0877 153.152 77.1363C153.152 77.1849 153.142 77.2331 153.123 77.2777C153.103 77.3223 153.075 77.3625 153.039 77.3957C153.004 77.4289 152.962 77.4545 152.916 77.4708C152.87 77.4871 152.822 77.4938 152.773 77.4906Z" fill="#5B9788"/>
<path d="M128.104 85.1409H118.482C118.434 85.1442 118.385 85.1375 118.339 85.1211C118.294 85.1048 118.252 85.0793 118.216 85.046C118.181 85.0128 118.152 84.9727 118.133 84.9281C118.114 84.8834 118.104 84.8353 118.104 84.7867C118.104 84.7381 118.114 84.6899 118.133 84.6453C118.152 84.6007 118.181 84.5605 118.216 84.5273C118.252 84.4941 118.294 84.4686 118.339 84.4522C118.385 84.4359 118.434 84.4292 118.482 84.4324H128.104C128.153 84.4292 128.201 84.4359 128.247 84.4522C128.293 84.4686 128.335 84.4941 128.37 84.5273C128.406 84.5605 128.434 84.6007 128.454 84.6453C128.473 84.6899 128.483 84.7381 128.483 84.7867C128.483 84.8353 128.473 84.8834 128.454 84.9281C128.434 84.9727 128.406 85.0128 128.37 85.046C128.335 85.0793 128.293 85.1048 128.247 85.1211C128.201 85.1375 128.153 85.1442 128.104 85.1409Z" fill="#5B9788"/>
<path d="M152.773 85.1409H132.279C132.19 85.1349 132.105 85.0949 132.044 85.0292C131.982 84.9634 131.948 84.8767 131.948 84.7867C131.948 84.6967 131.982 84.61 132.044 84.5442C132.105 84.4785 132.19 84.4385 132.279 84.4324H152.773C152.821 84.4292 152.87 84.4359 152.916 84.4522C152.962 84.4686 153.003 84.4941 153.039 84.5273C153.075 84.5605 153.103 84.6007 153.122 84.6453C153.142 84.6899 153.152 84.7381 153.152 84.7867C153.152 84.8353 153.142 84.8834 153.122 84.9281C153.103 84.9727 153.075 85.0128 153.039 85.046C153.003 85.0793 152.962 85.1048 152.916 85.1211C152.87 85.1375 152.821 85.1442 152.773 85.1409Z" fill="#5B9788"/>
<path d="M152.772 92.7903H124.744C124.654 92.7843 124.57 92.7443 124.509 92.6786C124.447 92.6128 124.413 92.5261 124.413 92.4361C124.413 92.3461 124.447 92.2594 124.509 92.1936C124.57 92.1279 124.654 92.0879 124.744 92.0819H152.772C152.821 92.0786 152.869 92.0853 152.915 92.1016C152.961 92.118 153.003 92.1435 153.039 92.1767C153.074 92.21 153.102 92.2501 153.122 92.2947C153.141 92.3393 153.151 92.3875 153.151 92.4361C153.151 92.4847 153.141 92.5328 153.122 92.5775C153.102 92.6221 153.074 92.6622 153.039 92.6955C153.003 92.7287 152.961 92.7542 152.915 92.7706C152.869 92.7869 152.821 92.7936 152.772 92.7903Z" fill="#5B9788"/>
<path d="M127.005 66.4539H110.91L127.005 50.3594V66.4539Z" fill="#A2D8CB"/>
<path d="M165.016 116.111H110.865C110.772 116.111 110.682 116.073 110.616 116.007C110.55 115.941 110.512 115.851 110.512 115.758V103.816C110.518 103.726 110.558 103.642 110.623 103.58C110.689 103.519 110.776 103.485 110.866 103.485C110.956 103.485 111.043 103.519 111.108 103.58C111.174 103.642 111.214 103.726 111.22 103.816V115.402H164.661V50.3771C164.667 50.2872 164.707 50.2031 164.773 50.1416C164.838 50.0801 164.925 50.0459 165.015 50.0459C165.105 50.0459 165.192 50.0801 165.257 50.1416C165.323 50.2031 165.363 50.2872 165.369 50.3771V115.764C165.367 115.856 165.329 115.944 165.263 116.009C165.197 116.074 165.108 116.111 165.016 116.111Z" fill="#5B9788"/>
<path d="M161.26 182.272H167.725C167.725 184.603 168.65 186.838 170.298 188.486C171.947 190.134 174.182 191.06 176.512 191.06H192.006C194.337 191.06 196.572 190.134 198.22 188.486C199.868 186.838 200.794 184.603 200.794 182.272H207.264L213.735 216.652V219.528H154.789V216.652L161.26 182.272Z" fill="#A2D8CB"/>
<path d="M213.74 223.482H154.789C154.699 223.476 154.615 223.436 154.553 223.37C154.492 223.304 154.458 223.218 154.458 223.128C154.458 223.038 154.492 222.951 154.553 222.885C154.615 222.819 154.699 222.779 154.789 222.773H213.74C213.83 222.779 213.914 222.819 213.975 222.885C214.037 222.951 214.071 223.038 214.071 223.128C214.071 223.218 214.037 223.304 213.975 223.37C213.914 223.436 213.83 223.476 213.74 223.482Z" fill="#E6D0BE"/>
<path d="M68.3123 256.962C68.3123 256.962 62.2797 260.47 57.4343 274.511C79.8812 286.156 91.2202 291.796 91.4516 291.43C91.455 291.421 91.455 291.412 91.4516 291.404C92.2711 289.857 92.8148 288.179 93.0581 286.446C94.9234 272.79 76.0816 261.665 74.5136 260.764L68.3123 256.962Z" fill="#2F2F2E"/>
<path d="M73.9017 246.991L66.6915 259.119C65.1589 261.689 66.2095 264.933 69.0435 266.313C71.614 267.566 74.7886 266.856 76.4337 264.661L82.9836 255.954L73.9017 246.991Z" fill="#E2A18D"/>
<path d="M83.1875 125.472C83.1875 125.472 103.207 167.646 103.636 206.39C104.045 243.39 81.7352 261.964 81.7352 261.964L69.2281 250.462C69.2281 250.462 84.7812 189.754 54.4108 163.04L50.6836 128.775L83.1875 125.472Z" fill="#2F2F2E"/>
<path d="M50.6934 270.062C50.6934 270.062 47.159 280.153 47.2778 291.481L74.6712 291.773C74.6712 291.759 73.9579 277.604 57.8152 270.138L50.6934 270.062Z" fill="#2F2F2E"/>
<path d="M45.5974 260.172C45.7581 260.587 48.5294 268.044 50.0411 272.123C50.928 274.519 53.7057 275.892 56.3421 275.176L56.4706 275.139C58.9543 274.418 60.397 272.035 59.8749 269.686L57.1437 257.428L45.5974 260.172Z" fill="#E2A18D"/>
<path d="M44.7234 265.304C44.7234 265.304 53.108 267.574 62.7939 263.191C62.7939 263.191 58.7422 182.462 67.906 151.725L65.072 130.519L29.8675 135.594C29.8675 135.594 17.6256 192.538 44.7234 265.304Z" fill="#2F2F2E"/>
<path d="M63.9555 173.669C63.9341 173.671 63.9126 173.671 63.8912 173.669C63.8455 173.66 63.8019 173.643 63.7629 173.618C63.7239 173.593 63.6902 173.56 63.6638 173.522C63.6374 173.484 63.6188 173.441 63.609 173.395C63.5992 173.35 63.5985 173.303 63.6068 173.257L65.268 164.229C65.2764 164.183 65.2936 164.139 65.3188 164.1C65.344 164.061 65.3766 164.028 65.4148 164.001C65.453 163.975 65.496 163.956 65.5414 163.946C65.5868 163.937 65.6336 163.936 65.6793 163.944C65.725 163.953 65.7686 163.97 65.8076 163.995C65.8466 164.02 65.8803 164.053 65.9067 164.091C65.9331 164.129 65.9517 164.172 65.9615 164.218C65.9713 164.263 65.972 164.31 65.9637 164.356L64.3025 173.384C64.2868 173.465 64.2435 173.537 64.1802 173.589C64.1168 173.641 64.0374 173.669 63.9555 173.669Z" fill="white"/>
<path d="M4.07422 117.632C4.49032 117.442 3.83002 79.8053 60.7568 72.8826C117.684 65.9599 124.055 89.7193 124.055 89.7193L124.19 99.974L92.8494 107.444L98.2394 151.697L23.4172 157.498L29.8161 125.888L4.07422 117.632Z" fill="#009B7C"/>
<path d="M125.006 69.1357C127.747 74.6125 125.149 78.6482 119.673 81.389C114.196 84.1297 107.914 84.5394 105.173 79.0627L112.661 94.0213C113.313 95.3239 114.215 96.4854 115.315 97.4394C116.416 98.3934 117.693 99.1212 119.075 99.5811C120.457 100.041 121.916 100.224 123.369 100.12C124.821 100.016 126.239 99.6267 127.541 98.9743C128.844 98.3229 130.006 97.4212 130.96 96.3207C131.913 95.2202 132.641 93.9426 133.101 92.5607C133.561 91.1788 133.744 89.7199 133.64 88.2672C133.536 86.8145 133.147 85.3965 132.494 84.0944L125.006 69.1357Z" fill="#009B7C"/>
<path d="M4.07423 117.631C4.07423 117.631 -0.671537 143.222 34.8045 140.168L51.6219 121.439L23.2051 111.73L4.07423 117.631Z" fill="#009B7C"/>
<path d="M37.5821 117.462C37.541 117.461 37.5002 117.454 37.4616 117.439L26.6447 113.508C26.56 113.473 26.492 113.407 26.455 113.323C26.418 113.239 26.4149 113.144 26.4462 113.058C26.4775 112.972 26.5409 112.902 26.6231 112.861C26.7053 112.821 26.8 112.814 26.8873 112.841L37.7042 116.774C37.782 116.803 37.8471 116.859 37.8883 116.931C37.9294 117.003 37.944 117.087 37.9295 117.169C37.9149 117.251 37.8723 117.325 37.8088 117.378C37.7453 117.432 37.6651 117.461 37.5821 117.462Z" fill="#2F2F2E"/>
<path d="M92.9313 106.308C92.9088 106.31 92.8862 106.31 92.8638 106.308C92.818 106.299 92.7743 106.281 92.7353 106.256C92.6964 106.23 92.6629 106.197 92.6369 106.158C92.6109 106.119 92.5929 106.076 92.5838 106.03C92.5748 105.984 92.5749 105.937 92.5843 105.892L93.9595 98.8694C93.966 98.8215 93.9823 98.7754 94.0073 98.734C94.0323 98.6926 94.0655 98.6568 94.1048 98.6287C94.1441 98.6006 94.1888 98.5808 94.2361 98.5705C94.2833 98.5603 94.3322 98.5598 94.3796 98.5692C94.4271 98.5785 94.4721 98.5974 94.512 98.6247C94.5519 98.652 94.5857 98.6872 94.6115 98.7281C94.6373 98.769 94.6545 98.8148 94.662 98.8625C94.6695 98.9103 94.6671 98.9591 94.6551 99.0059L93.2783 106.028C93.2616 106.108 93.2179 106.179 93.1547 106.23C93.0914 106.281 93.0125 106.308 92.9313 106.308Z" fill="#2F2F2E"/>
<path d="M114.535 96.9833C114.466 96.9822 114.398 96.961 114.341 96.9221C114.284 96.8833 114.24 96.8286 114.213 96.7648L109.301 84.8618C109.271 84.7762 109.275 84.6825 109.313 84.6C109.35 84.5175 109.417 84.4523 109.501 84.4179C109.585 84.3834 109.679 84.3822 109.763 84.4146C109.848 84.4469 109.917 84.5103 109.956 84.5919L114.869 96.4933C114.904 96.5805 114.904 96.678 114.868 96.7649C114.832 96.8518 114.763 96.921 114.676 96.9576C114.631 96.9754 114.583 96.9841 114.535 96.9833Z" fill="#2F2F2E"/>
<path d="M69.315 66.3623C62.304 66.4201 51.6011 67.4306 39.2483 71.7442C37.0654 72.5102 35.1237 73.8395 33.62 75.5974C32.1163 77.3554 31.1038 79.4795 30.6853 81.7547C30.6853 81.7547 47.6248 78.8629 54.9202 83.4721C58.3342 85.6313 62.471 86.3237 66.3525 85.2104L66.6465 85.1268C71.0292 83.8705 74.5829 80.6863 76.1059 76.4514C77.0297 73.8809 79.1262 71.929 83.5892 71.8952C81.1312 67.7969 74.5106 66.3189 69.315 66.3623Z" fill="#F89D26"/>
<path d="M59.8813 99.6853C59.832 99.6854 59.7832 99.675 59.7383 99.6548C59.6958 99.6361 59.6573 99.6093 59.6252 99.5757C59.593 99.5422 59.5678 99.5027 59.551 99.4594C59.5341 99.4162 59.5259 99.37 59.5269 99.3236C59.5279 99.2772 59.5381 99.2314 59.5567 99.1889C61.5958 94.5753 62.157 89.4437 61.1633 84.4985L60.6074 81.7015C60.5914 81.61 60.6118 81.5159 60.6644 81.4393C60.717 81.3627 60.7974 81.3098 60.8886 81.2918C60.9342 81.2825 60.9812 81.2823 61.0268 81.2912C61.0725 81.3002 61.116 81.3181 61.1547 81.3439C61.1934 81.3698 61.2265 81.4031 61.2523 81.4418C61.278 81.4806 61.2959 81.5241 61.3047 81.5698L61.8606 84.3652C62.8794 89.4546 62.2991 94.7346 60.1994 99.4813C60.1709 99.5418 60.126 99.593 60.0697 99.6291C60.0134 99.6652 59.9481 99.6847 59.8813 99.6853Z" fill="#C5F0E6"/>
<path d="M70.8186 98.0914H70.7865C70.74 98.0875 70.6948 98.0745 70.6535 98.0531C70.6121 98.0317 70.5755 98.0022 70.5456 97.9665C70.5157 97.9308 70.4932 97.8895 70.4794 97.845C70.4656 97.8005 70.4607 97.7538 70.4651 97.7074C70.9202 92.6833 69.809 87.6415 67.2842 83.2741L65.8688 80.8096C65.8456 80.7693 65.8305 80.7249 65.8245 80.6788C65.8185 80.6326 65.8216 80.5858 65.8337 80.5409C65.8458 80.496 65.8666 80.4539 65.8949 80.417C65.9233 80.3802 65.9586 80.3493 65.9989 80.3261C66.0392 80.3029 66.0837 80.2878 66.1298 80.2818C66.1759 80.2758 66.2227 80.2789 66.2676 80.291C66.3126 80.3031 66.3546 80.3239 66.3915 80.3522C66.4284 80.3806 66.4593 80.4159 66.4825 80.4562L67.9059 82.9255C70.4992 87.4179 71.6394 92.6025 71.1704 97.7685C71.1628 97.8565 71.1224 97.9385 71.0573 97.9983C70.9922 98.0581 70.907 98.0913 70.8186 98.0914Z" fill="#C5F0E6"/>
<path d="M22.1704 133.561C25.6486 141.433 43.5842 142.168 55.1434 142.365C56.6857 142.903 59.0746 143.474 61.7014 142.836C64.6944 142.108 65.1298 140.506 68.1694 139.247C73.3007 137.12 77.1805 139.729 77.8569 137.875C78.3212 136.606 76.1266 134.993 73.7409 134.04C71.2925 133.065 69.2972 133.463 69.2425 133.034C69.1847 132.565 71.2636 132.421 73.8325 132.006C75.0245 131.813 78.6281 133.301 79.5181 131.662C80.2282 130.355 76.8689 127.871 73.2364 127.572C70.666 127.36 68.6401 128.825 68.4441 128.396C68.2995 128.075 69.5285 127.231 70.8057 126.82C72.9135 126.142 76.615 127.623 77.4055 126.1C78.1782 124.606 75.2077 122.489 71.8837 122.002C69.0835 121.591 66.9034 123.334 66.6544 122.805C66.4825 122.431 67.297 121.448 69.5462 119.989C71.4178 118.771 75.8439 117.61 74.8623 115.46C74.0365 113.653 69.3598 114.763 65.2374 116.585C63.8156 117.213 61.8909 118.497 60.1543 119.701C59.1179 120.418 57.9423 120.908 56.7039 121.141C55.4655 121.373 54.1921 121.342 52.9665 121.049C47.9203 119.849 38.62 118.243 34.3803 117.468C30.2144 117.165 16.7772 121.356 22.1704 133.561Z" fill="#E2A18D"/>
<path d="M55.3394 74.9299L59.3027 63.2085L69.3309 65.8593L66.1804 75.5677L55.3394 74.9299Z" fill="#E2A18D"/>
<path d="M71.3311 48.6788C71.1129 48.1349 70.7834 47.6427 70.3637 47.2337C69.9441 46.8246 69.4436 46.5078 68.8943 46.3036C68.345 46.0994 67.7591 46.0122 67.1742 46.0478C66.5892 46.0833 66.0182 46.2407 65.4977 46.5099L56.4656 51.1802C55.9323 51.393 55.4548 51.7251 55.0699 52.1512C54.6849 52.5772 54.4027 53.0859 54.245 53.638C54.0872 54.1901 54.0581 54.771 54.1598 55.3361C54.2615 55.9012 54.4914 56.4355 54.8317 56.8979L58.6393 62.0598L73.6831 54.5299L71.3311 48.6788Z" fill="#2F2F2E"/>
<path d="M72.557 51.4579C74.9668 55.7523 76.5429 63.7995 70.9986 66.9066C65.4544 70.0137 59.4121 64.4694 57.0055 60.1751C54.5989 55.8808 58.7631 50.6482 63.0574 48.24C67.3518 45.8318 70.1504 47.162 72.557 51.4579Z" fill="#E2A18D"/>
<path d="M58.0867 59.2046C59.7576 60.4545 60.4355 62.3711 59.6033 63.4845C58.7711 64.5978 56.7405 64.487 55.0696 63.2371C53.3988 61.9872 52.7208 60.0722 53.5546 58.9572C54.3884 57.8423 56.4175 57.9547 58.0867 59.2046Z" fill="#E2A18D"/>
<path d="M57.2255 63.1636H57.2062C56.6336 63.1074 56.0872 62.8957 55.6262 62.5514C55.1652 62.207 54.8072 61.7432 54.5908 61.21C54.3948 60.659 54.4478 60.1433 54.7386 59.7561C54.7994 59.6739 54.8701 59.5994 54.949 59.5344C54.9846 59.5015 55.0264 59.4763 55.072 59.4602C55.1177 59.4441 55.1661 59.4375 55.2144 59.4408C55.2627 59.4441 55.3098 59.4572 55.3528 59.4794C55.3958 59.5016 55.4339 59.5323 55.4646 59.5697C55.4953 59.6071 55.518 59.6504 55.5314 59.6969C55.5448 59.7434 55.5485 59.7921 55.5423 59.8401C55.5362 59.8881 55.5203 59.9344 55.4956 59.976C55.4709 60.0176 55.438 60.0538 55.3989 60.0822C55.3638 60.1108 55.3325 60.1438 55.3057 60.1802C55.1113 60.4389 55.1916 60.7891 55.2575 60.9739C55.4271 61.3756 55.7006 61.7249 56.0498 61.9861C56.3991 62.2472 56.8115 62.4108 57.2448 62.4599C57.3385 62.4625 57.4274 62.5022 57.4919 62.5703C57.5564 62.6384 57.5912 62.7293 57.5886 62.823C57.5861 62.9167 57.5464 63.0056 57.4783 63.0701C57.4102 63.1346 57.3193 63.1694 57.2255 63.1668V63.1636Z" fill="#2F2F2E"/>
<path d="M60.5447 64.9419C60.4561 64.9418 60.3707 64.9086 60.3053 64.8488C59.026 63.6784 57.9135 62.3377 56.999 60.8645C56.9748 60.8248 56.9586 60.7808 56.9513 60.7349C56.9441 60.6889 56.946 60.642 56.9569 60.5968C56.9678 60.5516 56.9875 60.509 57.0148 60.4714C57.0422 60.4338 57.0767 60.402 57.1163 60.3777C57.156 60.3534 57.2 60.3372 57.246 60.33C57.2919 60.3228 57.3388 60.3246 57.384 60.3355C57.4292 60.3464 57.4718 60.3661 57.5094 60.3935C57.547 60.4208 57.5788 60.4553 57.6031 60.495C58.4825 61.9112 59.5523 63.2 60.7825 64.325C60.8352 64.3732 60.8721 64.4362 60.8884 64.5057C60.9047 64.5752 60.8997 64.648 60.874 64.7146C60.8484 64.7812 60.8032 64.8385 60.7445 64.8791C60.6857 64.9196 60.6161 64.9415 60.5447 64.9419Z" fill="#2F2F2E"/>
<path d="M74.7773 49.458C74.7425 50.0539 74.6296 50.6426 74.4415 51.2092C74.2311 51.8518 73.0856 51.9016 72.5362 52.5073C71.8486 53.2623 71.7682 54.3677 71.0533 54.6247C70.6432 54.7739 70.219 54.8816 69.7874 54.946C69.806 54.5884 69.8554 54.2331 69.9352 53.8841C70.1038 53.1178 71.0324 52.8912 71.7939 52.0542C72.4366 51.3473 72.6792 50.0958 73.3652 49.8323C73.8205 49.6556 74.2942 49.53 74.7773 49.458Z" fill="white"/>
<path d="M71.2235 51.2492C70.462 52.0878 70.0989 53.1321 69.9382 53.8984C70.2406 54.2337 70.6231 54.4869 71.05 54.6342C71.921 54.3399 72.7076 53.8388 73.3425 53.1739C73.8442 52.602 74.2197 51.9309 74.4446 51.2042C74.247 50.644 73.8675 50.1661 73.3666 49.8467C72.5532 50.1418 71.8195 50.6219 71.2235 51.2492Z" fill="#2F2F2E"/>
<path d="M60.5464 57.4347C61.1517 57.7564 61.8014 57.9865 62.4743 58.1174C63.0719 58.2331 63.6454 57.3286 64.3459 57.1953C65.2777 57.017 66.1838 57.5021 66.767 57.0555C67.1594 56.7586 67.5177 56.4192 67.8353 56.0434C67.5374 55.8824 67.2268 55.7459 66.9067 55.6353C66.1645 55.3718 65.3195 56.4386 64.1756 56.6587C63.2358 56.837 62.1787 55.9839 61.5955 56.4338C61.2098 56.7275 60.8579 57.0632 60.5464 57.4347Z" fill="white"/>
<path d="M66.8891 55.6286C66.1453 55.3683 65.0528 55.1177 63.9234 55.3329C63.0737 55.515 62.2782 55.8929 61.6003 56.4367C61.6624 57.0162 61.9123 57.5596 62.312 57.9838C62.3538 58.0271 62.3988 58.0673 62.4422 58.1075C63.1062 58.2494 63.7913 58.2619 64.46 58.1444C65.3099 57.9622 66.1057 57.5849 66.7847 57.0423C66.9449 56.5888 66.981 56.1007 66.8891 55.6286Z" fill="#2F2F2E"/>
<path d="M68.0217 68.118C66.7573 68.118 65.5203 67.8433 64.4503 67.5461C64.3652 67.5164 64.2945 67.4554 64.2527 67.3755C64.2108 67.2956 64.201 67.2028 64.2251 67.1159C64.2492 67.0289 64.3055 66.9545 64.3826 66.9076C64.4596 66.8607 64.5516 66.8448 64.6399 66.8633C66.6079 67.4095 68.8892 67.8272 70.8878 66.7364C72.8864 65.6455 73.7619 63.4205 74.2985 61.5954C74.3092 61.5481 74.3296 61.5034 74.3582 61.4642C74.3869 61.4251 74.4233 61.3922 74.4652 61.3676C74.5071 61.3431 74.5536 61.3273 74.6018 61.3215C74.65 61.3156 74.6988 61.3196 74.7454 61.3334C74.792 61.3472 74.8352 61.3703 74.8725 61.4015C74.9097 61.4326 74.9402 61.471 74.962 61.5144C74.9838 61.5578 74.9965 61.6052 74.9993 61.6537C75.002 61.7021 74.9948 61.7507 74.9781 61.7962C74.4029 63.7498 73.4551 66.1468 71.2268 67.3565C70.2396 67.8762 69.1371 68.1381 68.0217 68.118Z" fill="#2F2F2E"/>
<path d="M70.9376 59.253C70.8703 59.253 70.8044 59.2335 70.748 59.1968C70.6704 59.1467 70.6155 59.068 70.5954 58.9778C70.5753 58.8877 70.5914 58.7932 70.6404 58.7148C70.8251 58.4256 70.8958 58.1862 70.8428 58.0417C70.8074 57.9501 70.7239 57.8938 70.5102 57.7701C70.2874 57.6502 70.0797 57.5041 69.8917 57.3348C69.5515 57.0128 69.2974 56.6107 69.1527 56.1652C69.1377 56.1212 69.1315 56.0747 69.1345 56.0283C69.1375 55.9819 69.1496 55.9366 69.1701 55.8949C69.1906 55.8532 69.2192 55.816 69.2541 55.7853C69.289 55.7546 69.3296 55.7311 69.3736 55.7162C69.4176 55.7012 69.4641 55.695 69.5104 55.698C69.5568 55.701 69.6021 55.7131 69.6438 55.7336C69.6855 55.7541 69.7228 55.7826 69.7535 55.8176C69.7841 55.8525 69.8076 55.8931 69.8226 55.9371C69.9294 56.2679 70.1165 56.567 70.3672 56.8078C70.517 56.9414 70.682 57.0568 70.8588 57.1516C71.1111 57.2978 71.3729 57.4488 71.5015 57.7942C71.6396 58.1621 71.5481 58.5975 71.2316 59.0972C71.1991 59.1453 71.1553 59.1847 71.1041 59.2118C71.0528 59.239 70.9956 59.2532 70.9376 59.253Z" fill="#2F2F2E"/>
<path d="M66.8329 64.2316C66.7422 64.2313 66.6551 64.1964 66.5894 64.1339C66.5237 64.0715 66.4843 63.9863 66.4794 63.8958C66.4715 63.5919 66.536 63.2905 66.6676 63.0165C66.7992 62.7424 66.994 62.5036 67.2361 62.3198C67.5295 62.0931 67.8873 61.9654 68.2579 61.9551C68.351 61.9562 68.4402 61.993 68.5071 62.0578C68.5741 62.1226 68.6136 62.2106 68.6177 62.3037C68.6186 62.3502 68.6102 62.3965 68.5931 62.4398C68.5761 62.4831 68.5506 62.5226 68.5182 62.5561C68.4858 62.5895 68.4471 62.6162 68.4044 62.6347C68.3616 62.6531 68.3157 62.6629 68.2691 62.6636C68.0495 62.6711 67.838 62.7482 67.665 62.8837C67.5129 62.9958 67.3898 63.1426 67.306 63.312C67.2222 63.4814 67.18 63.6683 67.1831 63.8572C67.1857 63.9037 67.1791 63.9502 67.1637 63.994C67.1483 64.0379 67.1244 64.0783 67.0934 64.113C67.0623 64.1476 67.0247 64.1757 66.9828 64.1958C66.9409 64.2159 66.8953 64.2275 66.8489 64.23L66.8329 64.2316Z" fill="#2F2F2E"/>
<path d="M53.3827 53.6944L69.6169 45.5685C69.0835 44.5023 68.3452 43.5517 67.4443 42.7709C66.5434 41.9901 65.4975 41.3944 64.3664 41.0179C63.2353 40.6413 62.041 40.4913 60.8519 40.5763C59.6628 40.6614 58.5021 40.9798 57.436 41.5135C55.2834 42.5915 53.6471 44.4803 52.887 46.7646C52.1269 49.0489 52.3052 51.5416 53.3827 53.6944Z" fill="#D87355"/>
<path d="M54.3498 55.0278C58.9991 50.9487 64.1707 48.2128 70.0073 47.191C70.2013 47.0939 70.3743 46.9595 70.5164 46.7955C70.6585 46.6315 70.7669 46.4412 70.8354 46.2353C70.9039 46.0294 70.9311 45.812 70.9155 45.5956C70.9 45.3792 70.8419 45.1679 70.7447 44.9739C70.6477 44.78 70.5135 44.607 70.3497 44.4649C70.1858 44.3228 69.9956 44.2145 69.7898 44.146C69.5841 44.0775 69.3668 44.0502 69.1505 44.0658C68.9342 44.0813 68.7231 44.1393 68.5292 44.2365L52.8701 52.0749C52.4787 52.271 52.1811 52.6146 52.0428 53.03C51.9045 53.4454 51.9368 53.8988 52.1327 54.2904C52.2298 54.4844 52.3642 54.6574 52.5282 54.7995C52.6922 54.9416 52.8825 55.05 53.0884 55.1185C53.2943 55.187 53.5117 55.2142 53.7281 55.1986C53.9445 55.1831 54.1558 55.125 54.3498 55.0278Z" fill="#D87355"/>
<path d="M53.5707 52.0073C53.4951 52.0088 53.4209 51.9862 53.3591 51.9426C53.2972 51.899 53.2509 51.8368 53.2269 51.7651C53.2029 51.6934 53.2024 51.6158 53.2255 51.5438C53.2486 51.4718 53.2941 51.409 53.3554 51.3647C53.5321 51.2313 57.706 48.0729 59.8539 47.0896C59.9387 47.0533 60.0344 47.0515 60.1205 47.0847C60.2066 47.118 60.2763 47.1835 60.3146 47.2674C60.353 47.3513 60.3571 47.4469 60.3259 47.5338C60.2948 47.6207 60.2309 47.6919 60.1479 47.7323C58.0707 48.6833 53.8261 51.8948 53.7844 51.9286C53.7237 51.9776 53.6486 52.0052 53.5707 52.0073Z" fill="#FFD092"/>
<path d="M61.1209 77.3744C65.3703 77.0086 68.733 75.7583 68.6317 74.5817C68.5305 73.405 65.0035 72.7477 60.7541 73.1135C56.5047 73.4793 53.1419 74.7297 53.2432 75.9063C53.3445 77.0829 56.8714 77.7402 61.1209 77.3744Z" fill="#E2A18D"/>
<path d="M121.346 52.7754C122.392 58.1734 118.712 65.0126 114.043 65.4142C109.374 65.8158 104.266 59.2418 103.87 54.5731C103.475 49.9045 107.067 46.6014 111.593 45.3933C117.982 43.6984 120.456 48.1871 121.346 52.7754Z" fill="#E2A18D"/>
<path d="M121.08 83.936C123.469 82.7389 125.285 80.6419 126.128 78.1061C126.972 75.5704 126.774 72.8035 125.578 70.4136L113.596 50.6899L98.5542 58.2183L107.551 79.4361C108.144 80.62 108.964 81.6757 109.964 82.5426C110.965 83.4096 112.127 84.0709 113.383 84.4888C114.639 84.9067 115.966 85.0729 117.286 84.9781C118.607 84.8832 119.896 84.5292 121.08 83.936Z" fill="#E2A18D"/>
<path d="M99.4315 45.2871C98.7889 45.3434 97.5952 45.7193 97.5952 45.7193L90.3576 48.5693C88.5503 49.2425 87.3405 51.3583 87.5462 53.7457C87.7518 56.133 89.3134 58.0175 91.2123 58.3677L98.813 59.8618C99.4258 60.04 100.066 60.1032 100.702 60.0482C104.086 59.7574 106.544 56.2166 106.193 52.1407C105.843 48.0649 102.82 44.9964 99.4315 45.2871Z" fill="#E0AA63"/>
<path d="M108.197 40.9673C107.233 41.0508 105.477 41.6099 105.477 41.6099L94.7676 45.8287C92.0911 46.8248 90.3013 49.9576 90.6066 53.4904C90.9118 57.0232 93.2172 59.8138 96.0303 60.3312L107.276 62.5402C108.184 62.8041 109.133 62.8978 110.075 62.8165C115.081 62.3859 118.72 57.1453 118.201 51.1127C117.682 45.0801 113.203 40.5319 108.197 40.9673Z" fill="#F89D26"/>
<path d="M109.407 63.194C107.122 63.194 104.918 62.2204 103.141 60.4114C101.192 58.437 99.9777 55.6978 99.7191 52.7C99.4604 49.7021 100.19 46.7926 101.771 44.5145C103.351 42.2364 105.639 40.8291 108.168 40.6122C110.697 40.3953 113.171 41.3721 115.136 43.3642C117.1 45.3564 118.299 48.0779 118.558 51.0757C118.816 54.0752 118.087 56.983 116.506 59.2692C114.925 61.5553 112.639 62.953 110.11 63.1715C109.876 63.1827 109.644 63.194 109.407 63.194ZM108.857 41.2886C108.648 41.2886 108.438 41.2982 108.227 41.3159C105.912 41.5151 103.825 42.7939 102.352 44.9162C100.879 47.0384 100.179 49.8017 100.424 52.6373C100.67 55.4729 101.812 58.0578 103.637 59.915C105.463 61.7722 107.733 62.6558 110.049 62.4582C112.366 62.2606 114.45 60.9801 115.924 58.8563C117.399 56.7324 118.096 53.9723 117.852 51.1368C117.608 48.3012 116.464 45.7162 114.639 43.8591C112.981 42.1882 110.952 41.2886 108.857 41.2886Z" fill="#B9DFD6"/>
<path d="M109.901 60.8223C113.994 60.47 116.968 56.187 116.543 51.256C116.119 46.325 112.457 42.6132 108.364 42.9656C104.271 43.3179 101.297 47.6009 101.721 52.5319C102.146 57.4629 105.808 61.1746 109.901 60.8223Z" fill="#2F2F2E"/>
<path d="M77.1789 47.2039C76.5363 47.2601 75.341 47.6344 75.341 47.6344L68.1115 50.4861C66.3042 51.1592 65.0944 53.275 65.3001 55.6624C65.5057 58.0497 67.0673 59.9342 68.9646 60.2844L76.5652 61.7785C77.1788 61.9559 77.8198 62.0191 78.4562 61.9649C81.8396 61.6741 84.2976 58.1333 83.9474 54.0558C83.5971 49.9784 80.5624 46.9115 77.1789 47.2039Z" fill="#E0AA63"/>
<path d="M85.9508 42.8788C84.9869 42.9624 83.2326 43.5214 83.2326 43.5214L72.5216 47.7403C69.8467 48.7363 68.057 51.8691 68.3607 55.4019C68.6643 58.9347 70.9729 61.7253 73.786 62.2427L85.0319 64.4533C85.9392 64.7171 86.8875 64.8108 87.8289 64.7296C92.8366 64.299 96.4754 59.0585 95.9549 53.0258C95.4344 46.9932 90.9505 42.4483 85.9508 42.8788Z" fill="#F89D26"/>
<path d="M87.1605 65.1091C84.876 65.1091 82.6718 64.1452 80.8853 62.3282C78.9381 60.3537 77.7236 57.6146 77.4649 54.6167C77.2063 51.6189 77.9356 48.7094 79.5165 46.4233C81.0973 44.1371 83.3835 42.7378 85.9122 42.5209C88.4409 42.3041 90.9166 43.2792 92.8815 45.2714C94.8463 47.2635 96.0448 49.985 96.3034 52.9828C96.5621 55.9823 95.8327 58.8902 94.2502 61.1683C92.6678 63.4464 90.3833 64.8521 87.8545 65.0706C87.6232 65.0963 87.3919 65.1091 87.1605 65.1091ZM86.6046 43.2053C86.3942 43.2053 86.1837 43.215 85.9733 43.2326C83.6582 43.4319 81.5729 44.7107 80.0981 46.8329C78.6232 48.9552 77.926 51.7185 78.1702 54.5541C78.4144 57.3896 79.5583 59.973 81.3833 61.8302C83.2084 63.6873 85.4736 64.5742 87.7871 64.3733C90.1005 64.1725 92.189 62.8953 93.6622 60.7731C95.1355 58.6508 95.8359 55.8891 95.5901 53.0616C95.3443 50.234 94.2021 47.641 92.377 45.7839C90.7287 44.1034 88.698 43.2053 86.6046 43.2053Z" fill="#B9DFD6"/>
<path d="M87.649 62.7363C91.742 62.384 94.7159 58.101 94.2914 53.17C93.8669 48.239 90.2048 44.5273 86.1119 44.8796C82.0189 45.232 79.045 49.5149 79.4695 54.4459C79.894 59.3769 83.5561 63.0887 87.649 62.7363Z" fill="#2F2F2E"/>
<path d="M100.304 54.2054C98.7247 53.2318 97.3623 53.4294 96.1719 54.562L96.0337 52.9683L100.167 52.6133L100.304 54.2054Z" fill="#B9DFD6"/>
<path d="M104.169 61.9232C101.936 61.3509 99.9599 60.0465 98.5559 58.2185C96.5091 55.5564 94.1812 60.8324 99.0378 63.7611C103.894 66.6899 104.169 61.9232 104.169 61.9232Z" fill="#E2A18D"/>
<path d="M110.497 64.1291C110.407 64.1257 110.322 64.0881 110.258 64.0238C110.195 63.9595 110.158 63.8735 110.156 63.7832C110.154 63.6929 110.186 63.6051 110.246 63.5377C110.306 63.4704 110.39 63.4285 110.48 63.4206C110.525 63.4206 115.046 63.1539 116.745 59.5408C116.765 59.4981 116.793 59.4597 116.827 59.4279C116.862 59.396 116.902 59.3713 116.946 59.3552C116.99 59.339 117.037 59.3318 117.084 59.3338C117.131 59.3359 117.177 59.3473 117.219 59.3672C117.262 59.3872 117.3 59.4154 117.331 59.4501C117.363 59.4849 117.387 59.5256 117.403 59.5698C117.419 59.614 117.425 59.6609 117.423 59.7078C117.42 59.7547 117.408 59.8005 117.388 59.8428C115.512 63.8463 110.724 64.1195 110.522 64.1291H110.497Z" fill="#2F2F2E"/>
<path d="M127.721 252.4C127.275 250.991 126.115 247.307 126.115 247.307C126.115 247.307 129.604 246.343 131.015 245.893C133.235 245.186 135.132 244.21 136.707 242.966C138.231 241.785 139.353 240.161 139.92 238.318C140.494 236.466 140.387 234.294 139.599 231.8C139.014 229.959 138.05 228.476 136.707 227.35C135.356 226.221 133.728 225.471 131.992 225.18C130.189 224.858 128.312 225.007 126.361 225.626C124.896 226.081 123.534 226.818 122.352 227.795C121.208 228.747 120.222 229.876 119.433 231.138C118.93 232.025 118.473 232.936 118.063 233.87L108.868 229.898C109.157 228.922 109.539 227.975 110.007 227.071C111.321 224.446 113.152 222.115 115.389 220.215C117.697 218.253 120.378 216.778 123.271 215.878C127.011 214.69 130.653 214.472 134.196 215.222C137.659 215.931 140.885 217.509 143.572 219.806C146.272 222.11 148.2 225.076 149.355 228.706C150.212 231.417 150.568 233.944 150.422 236.286C150.297 238.538 149.701 240.74 148.672 242.747C147.646 244.723 146.268 246.495 144.606 247.977C142.858 249.535 140.909 250.852 138.811 251.894C138.588 251.984 138.352 252.091 138.35 252.08L140.998 260.402L131.325 263.335L127.721 252.4ZM140.352 276.659C138.781 277.158 137.442 277.121 136.336 276.548C135.229 275.975 134.426 274.904 133.926 273.335L133.487 271.953C132.987 270.384 133.024 269.045 133.598 267.937C134.172 266.828 135.243 266.025 136.811 265.527L137.868 265.191C139.437 264.693 140.776 264.73 141.885 265.302C142.993 265.874 143.797 266.945 144.295 268.515L144.733 269.897C145.232 271.469 145.195 272.808 144.622 273.913C144.049 275.018 142.978 275.822 141.409 276.323L140.352 276.659Z" fill="#B9DFD6"/>
<path d="M135.658 279.199C134.916 279.208 134.183 279.037 133.523 278.701C132.335 278.087 131.465 276.933 130.939 275.277L130.499 273.895C129.974 272.237 130.017 270.796 130.632 269.608C131.248 268.419 132.4 267.551 134.056 267.024L135.111 266.688C136.768 266.163 138.209 266.206 139.399 266.822C140.59 267.437 141.456 268.589 141.983 270.245L142.421 271.627C142.948 273.283 142.903 274.726 142.288 275.915C141.673 277.104 140.521 277.971 138.864 278.498L137.807 278.834C137.114 279.065 136.389 279.188 135.658 279.199ZM137.259 267.034C136.604 267.041 135.954 267.15 135.331 267.355L134.274 267.691C132.803 268.158 131.791 268.91 131.265 269.926C130.74 270.941 130.709 272.202 131.177 273.672L131.617 275.054C132.085 276.527 132.837 277.539 133.85 278.063C134.864 278.587 136.125 278.619 137.598 278.151L138.654 277.815C140.125 277.348 141.138 276.596 141.663 275.581C142.188 274.565 142.219 273.304 141.751 271.834L141.313 270.453C140.845 268.983 140.093 267.97 139.078 267.443C138.514 267.162 137.89 267.021 137.259 267.034ZM128.68 265.519C128.606 265.519 128.533 265.495 128.473 265.452C128.413 265.408 128.368 265.347 128.345 265.276L124.735 254.352C124.288 252.944 123.128 249.259 123.128 249.259C123.114 249.214 123.109 249.166 123.113 249.119C123.118 249.071 123.132 249.026 123.155 248.984C123.177 248.942 123.208 248.905 123.245 248.876C123.282 248.846 123.325 248.824 123.371 248.812C123.406 248.803 126.871 247.84 128.258 247.4C130.43 246.711 132.308 245.745 133.837 244.532C135.307 243.395 136.39 241.833 136.94 240.058C137.491 238.291 137.381 236.164 136.618 233.752C136.056 231.985 135.121 230.539 133.837 229.466C132.531 228.38 130.961 227.66 129.286 227.378C127.549 227.067 125.713 227.217 123.824 227.813C122.403 228.254 121.082 228.968 119.936 229.916C118.82 230.845 117.859 231.945 117.089 233.176C116.595 234.045 116.146 234.939 115.743 235.854C115.705 235.939 115.635 236.006 115.548 236.04C115.461 236.074 115.364 236.073 115.278 236.035L106.074 232.069C105.996 232.035 105.932 231.974 105.895 231.897C105.858 231.82 105.85 231.732 105.872 231.649C106.169 230.651 106.559 229.683 107.038 228.758C108.374 226.094 110.232 223.727 112.501 221.796C114.846 219.805 117.569 218.306 120.506 217.39C124.286 216.188 128.025 215.965 131.619 216.724C135.138 217.449 138.417 219.052 141.15 221.383C143.882 223.721 145.872 226.769 147.04 230.446C147.911 233.177 148.274 235.778 148.121 238.158C147.992 240.459 147.383 242.707 146.333 244.759C145.285 246.771 143.882 248.577 142.19 250.089C140.417 251.668 138.442 253.002 136.316 254.058L136.133 254.135L138.683 262.143C138.697 262.188 138.702 262.235 138.698 262.282C138.694 262.329 138.68 262.374 138.659 262.416C138.637 262.457 138.607 262.494 138.571 262.524C138.535 262.554 138.493 262.576 138.448 262.59L128.774 265.524C128.744 265.525 128.714 265.524 128.685 265.519H128.68ZM125.408 254.125L128.908 264.728L137.905 261.997L135.365 254.017C135.344 253.95 135.343 253.879 135.363 253.811C135.383 253.743 135.422 253.683 135.476 253.638C135.518 253.603 135.567 253.578 135.621 253.566L135.762 253.507C135.842 253.471 135.939 253.431 136.032 253.394C138.091 252.367 140.005 251.07 141.722 249.538C143.351 248.084 144.702 246.346 145.71 244.409C146.714 242.444 147.297 240.291 147.421 238.088C147.567 235.799 147.215 233.293 146.37 230.637C145.246 227.09 143.335 224.15 140.697 221.899C138.053 219.647 134.882 218.1 131.479 217.401C128.007 216.665 124.389 216.883 120.726 218.043C117.88 218.932 115.241 220.384 112.968 222.314C110.766 224.184 108.963 226.479 107.667 229.061C107.259 229.855 106.916 230.681 106.642 231.53L115.235 235.226C115.61 234.391 116.026 233.576 116.483 232.784C117.293 231.488 118.304 230.329 119.478 229.35C120.696 228.344 122.098 227.585 123.607 227.116C125.604 226.483 127.554 226.328 129.407 226.659C131.204 226.965 132.888 227.741 134.287 228.909C135.675 230.073 136.684 231.625 137.288 233.524C138.1 236.075 138.209 238.344 137.61 240.254C137.019 242.166 135.853 243.849 134.271 245.074C132.674 246.34 130.721 247.345 128.467 248.06C127.332 248.422 124.831 249.124 123.907 249.381C124.217 250.337 125.045 252.98 125.408 254.125Z" fill="#A2D8CB"/>
<path d="M23.2516 37.6273C22.8902 36.4899 21.9664 33.5162 21.9664 33.5162C21.9664 33.5162 24.7843 32.7354 25.9217 32.3739C27.585 31.8719 29.1427 31.0705 30.5181 30.009C31.7514 29.0569 32.6599 27.7466 33.1191 26.2577C33.5829 24.7583 33.495 23.0039 32.8556 20.9946C32.4418 19.5968 31.6322 18.3486 30.5245 17.4008C29.4334 16.4889 28.1192 15.884 26.717 15.648C25.344 15.438 23.9422 15.5174 22.6017 15.8813C21.2612 16.2451 20.0116 16.8853 18.9332 17.7606C18.0084 18.5286 17.2127 19.4398 16.5764 20.4597C16.1677 21.1712 15.7955 21.9031 15.4614 22.6526L8.03271 19.4556C8.26623 18.6673 8.57392 17.9029 8.95167 17.1726C10.0134 15.0539 11.492 13.1714 13.299 11.6381C15.1623 10.0521 17.3275 8.86015 19.6642 8.13416C22.6834 7.17022 25.6256 6.99404 28.4906 7.6056C31.2864 8.17581 33.8913 9.44732 36.0607 11.3007C38.2403 13.1611 39.7965 15.5565 40.7294 18.4868C41.4234 20.6749 41.7104 22.7153 41.5905 24.6078C41.4887 26.4268 41.0071 28.2043 40.1767 29.8259C39.3487 31.4254 38.2352 32.86 36.8913 34.0592C35.4789 35.3166 33.9051 36.3799 32.2114 37.2209C32.0315 37.2932 31.8403 37.3815 31.8387 37.3719L33.977 44.0921L26.1659 46.4602L23.2516 37.6273ZM33.4501 57.2177C32.1809 57.6204 31.0997 57.591 30.2064 57.1293C29.3132 56.6677 28.6652 55.8018 28.2625 54.5315L27.9074 53.4166C27.5047 52.1474 27.5347 51.0662 27.9974 50.1729C28.4601 49.2797 29.3255 48.6312 30.5936 48.2274L31.4467 47.9559C32.7159 47.5532 33.7971 47.5832 34.6903 48.0459C35.5836 48.5085 36.2299 49.3745 36.6294 50.6437L36.9845 51.7586C37.3872 53.0278 37.3572 54.109 36.8945 55.0023C36.4318 55.8955 35.5659 56.544 34.2967 56.9478L33.4501 57.2177Z" fill="#B9DFD6"/>
<path d="M29.662 59.3336C29.0521 59.3416 28.4494 59.201 27.906 58.9239C26.9308 58.421 26.2175 57.478 25.7853 56.1204L25.4319 54.9958C25.0013 53.6415 25.0383 52.4591 25.5444 51.4823C26.0504 50.5055 26.9903 49.7938 28.3478 49.3633L29.2009 49.0918C30.5552 48.6612 31.7376 48.6998 32.7144 49.2042C33.6912 49.7087 34.4045 50.6501 34.8351 52.0093L35.1885 53.1242C35.6207 54.4801 35.5821 55.661 35.0777 56.6377C34.5732 57.6145 33.6318 58.3262 32.2726 58.7568L31.4195 59.0283C30.8529 59.2201 30.2601 59.3231 29.662 59.3336ZM30.9552 49.5046C30.4318 49.5125 29.9127 49.6008 29.4162 49.7665L28.5631 50.038C27.3919 50.4107 26.5886 51.002 26.1725 51.8052C25.7564 52.6085 25.7355 53.6078 26.1066 54.779L26.4617 55.8939C26.8328 57.0651 27.4256 57.87 28.2289 58.2845C29.0322 58.699 30.0315 58.7231 31.2026 58.3503L32.0557 58.0788C33.2269 57.7077 34.0302 57.1149 34.4463 56.3116C34.8624 55.5083 34.8849 54.5091 34.5122 53.3395L34.1587 52.2229C33.786 51.0534 33.1948 50.2501 32.3915 49.8324C31.9455 49.6116 31.4528 49.5019 30.9552 49.5127V49.5046ZM24.0278 48.2804C23.9534 48.2805 23.8809 48.257 23.8206 48.2135C23.7603 48.1699 23.7153 48.1085 23.692 48.0379L20.7761 39.2114C20.4146 38.074 19.4908 35.097 19.4908 35.097C19.4765 35.0518 19.4716 35.0041 19.4763 34.9569C19.481 34.9096 19.4952 34.8639 19.5182 34.8223C19.5408 34.7808 19.5715 34.7441 19.6084 34.7146C19.6454 34.6851 19.6879 34.6633 19.7334 34.6504C19.7623 34.6424 22.5594 33.8664 23.6775 33.5114C25.2993 33.0212 26.8186 32.2406 28.1614 31.2076C29.3339 30.2983 30.1983 29.0503 30.6371 27.633C31.0773 26.2144 30.989 24.5162 30.3737 22.582C29.9783 21.2488 29.2062 20.0583 28.1502 19.1536C27.1057 18.2828 25.8489 17.7046 24.5081 17.4779C23.0423 17.2365 21.5396 17.3584 20.1319 17.833C18.9927 18.1867 17.9335 18.7591 17.0135 19.5182C16.1186 20.2634 15.348 21.1463 14.7306 22.1337C14.2486 22.937 13.6526 24.2737 13.6462 24.2881C13.6078 24.373 13.5378 24.4395 13.451 24.4735C13.3643 24.5074 13.2677 24.506 13.1819 24.4697L5.74996 21.2662C5.67178 21.2324 5.60842 21.1716 5.57152 21.0948C5.53463 21.0181 5.52668 20.9306 5.54914 20.8485C5.7887 20.036 6.10556 19.2484 6.4954 18.4965C7.57826 16.3371 9.08459 14.4177 10.9247 12.8526C12.8256 11.2381 15.0325 10.0234 17.4136 9.28126C20.4773 8.30608 23.5072 8.12615 26.4199 8.74307C29.2731 9.33018 31.9314 10.6295 34.1475 12.5201C36.3693 14.4158 37.9759 16.8883 38.9222 19.8685C39.629 22.0887 39.923 24.1917 39.7993 26.1196C39.6955 27.9867 39.2031 29.8116 38.3534 31.4775C37.5039 33.1096 36.3652 34.5739 34.9925 35.7991C33.5567 37.0769 31.957 38.1574 30.2355 39.0122L30.1407 39.0524L32.1762 45.4658C32.1907 45.5103 32.1961 45.5573 32.1919 45.604C32.1878 45.6506 32.1743 45.696 32.1521 45.7373C32.1303 45.7789 32.1005 45.8158 32.0644 45.8458C32.0282 45.8759 31.9865 45.8985 31.9417 45.9124L24.1306 48.274C24.0971 48.2835 24.0625 48.2884 24.0278 48.2885V48.2804ZM21.4573 38.9913L24.2591 47.4948L31.3954 45.3308L29.3663 38.9544C29.3451 38.8871 29.3443 38.815 29.364 38.7472C29.3837 38.6794 29.4231 38.619 29.4772 38.5736C29.5182 38.5404 29.5659 38.5163 29.617 38.5029C29.6411 38.5029 29.678 38.4772 29.723 38.458L29.9447 38.3664C31.5998 37.541 33.1378 36.4994 34.5186 35.2689C35.828 34.1011 36.914 32.7047 37.7237 31.1481C38.5304 29.5701 38.9982 27.8409 39.0973 26.0714C39.2162 24.2319 38.9366 22.2157 38.2522 20.0805C37.3461 17.2273 35.8119 14.8641 33.6928 13.0551C31.5661 11.2421 29.0157 9.99591 26.2785 9.43228C23.488 8.84107 20.5785 9.01619 17.6321 9.95281C15.3418 10.6665 13.219 11.8347 11.3906 13.3876C9.62125 14.8924 8.17238 16.7373 7.12999 18.813C6.81154 19.4333 6.54293 20.0779 6.32671 20.7408L13.1465 23.6808C13.3586 23.223 13.7651 22.3667 14.1298 21.7626C14.7878 20.7096 15.6094 19.7681 16.5637 18.9736C17.5543 18.1546 18.6947 17.5358 19.9214 17.1518C21.439 16.6438 23.0582 16.5164 24.6366 16.7807C26.0995 17.0286 27.4704 17.66 28.6097 18.6105C29.7692 19.6019 30.6182 20.9066 31.0548 22.3683C31.7135 24.4423 31.8019 26.2835 31.3183 27.8434C30.836 29.4003 29.8858 30.7707 28.5968 31.7682C27.1873 32.8545 25.5924 33.6759 23.8896 34.1925C22.998 34.4753 21.0669 35.0183 20.2732 35.24C20.5255 36.0578 21.1649 38.0997 21.4508 38.9994L21.4573 38.9913Z" fill="#A2D8CB"/>
<g clip-path="url(#clip1_6880_534639)">
<path d="M78.05 93.5293C78.05 95.4339 79.5954 96.9793 81.5 96.9793C83.4046 96.9793 84.95 95.4339 84.95 93.5293C84.95 91.6247 83.4046 90.0793 81.5 90.0793C79.5954 90.0793 78.05 91.6247 78.05 93.5293Z" fill="#009B7C" stroke="white" stroke-width="0.1"/>
<path d="M81.5 95.0293C80.6716 95.0293 80 94.3577 80 93.5293C80 92.7009 80.6716 92.0293 81.5 92.0293C82.3284 92.0293 83 92.7009 83 93.5293C83 94.3577 82.3284 95.0293 81.5 95.0293Z" fill="#F89D26"/>
</g>
<g clip-path="url(#clip2_6880_534639)">
<path d="M286.529 240.48L280.416 228.868C276.641 221.863 275.13 213.862 276.091 205.965L279.022 181.877C280.165 172.49 277.903 163.004 272.646 155.14C267.389 147.276 259.486 141.555 250.371 139.015L251.769 127.527C251.94 126.122 251.545 124.706 250.672 123.591C249.798 122.476 248.518 121.754 247.111 121.583C246.417 121.498 245.712 121.552 245.038 121.741C244.365 121.929 243.735 122.249 243.186 122.682C242.636 123.115 242.178 123.653 241.837 124.264C241.497 124.874 241.28 125.546 241.201 126.241L239.848 137.359C230.149 137.329 220.776 140.854 213.504 147.267C206.232 153.68 201.566 162.536 200.39 172.157L197.355 197.097C196.304 205.672 192.405 213.646 186.282 219.743L178.787 227.217L286.529 240.48Z" fill="#F89D26"/>
<path d="M224.81 250.719C227.598 252.264 230.763 252.999 233.947 252.841C237.131 252.684 240.208 251.64 242.83 249.829C245.086 248.209 246.901 246.051 248.11 243.552L216.729 239.507C217.223 241.834 218.197 244.033 219.588 245.963C220.98 247.893 222.758 249.513 224.81 250.719Z" fill="#F89D26"/>
</g>
</g>
<defs>
<clipPath id="clip0_6880_534639">
<rect width="294" height="294" fill="white"/>
</clipPath>
<clipPath id="clip1_6880_534639">
<rect width="7" height="7" fill="white" transform="matrix(-1 0 0 1 85 90)"/>
</clipPath>
<clipPath id="clip2_6880_534639">
<rect width="108.63" height="132.117" fill="white" transform="translate(192.378 114.922) rotate(6.93888)"/>
</clipPath>
</defs>
</svg>
