<svg width="294" height="294" viewBox="0 0 294 294" fill="none" xmlns="http://www.w3.org/2000/svg">
<g clip-path="url(#clip0_6880_535164)">
<path d="M294 147C294 228.186 228.182 294 147 294C73.2389 294 12.173 239.677 1.61503 168.859C0.538188 161.622 -0.00162756 154.316 3.68593e-06 147C3.68593e-06 95.9532 26.0173 50.9889 65.5124 24.6366C68.4393 22.6798 71.439 20.8306 74.5116 19.0891C95.8975 6.93872 120.645 0 147 0C228.182 0 294 65.8142 294 147Z" fill="#E8F5F2"/>
<path opacity="0.5" d="M149.806 21.0269V166.922C149.806 167.177 149.756 167.429 149.658 167.665C149.561 167.9 149.418 168.114 149.238 168.294C149.057 168.475 148.843 168.618 148.608 168.715C148.372 168.812 148.12 168.863 147.865 168.862H121.982L123.504 195.276L111.325 168.859H1.61503C0.538188 161.623 -0.00162756 154.316 3.68593e-06 147C3.68593e-06 95.9535 26.0173 50.9892 65.5124 24.6368C68.4393 22.68 71.439 20.8309 74.5116 19.0894H147.866C148.121 19.0891 148.373 19.1391 148.608 19.2364C148.844 19.3337 149.057 19.4763 149.238 19.6563C149.418 19.8362 149.561 20.0499 149.658 20.285C149.756 20.5202 149.806 20.7723 149.806 21.0269Z" fill="white"/>
<path d="M126.032 204.717L110.532 172.223H5.58428C5.54166 172.223 5.50079 172.206 5.47065 172.176C5.44052 172.146 5.42358 172.105 5.42358 172.062C5.42358 172.02 5.44052 171.979 5.47065 171.949C5.50079 171.919 5.54166 171.902 5.58428 171.902H110.728L125.645 203.17L124.468 171.902H150.961C151.433 171.901 151.885 171.714 152.219 171.38C152.552 171.047 152.74 170.595 152.74 170.123V129.092C152.74 129.049 152.757 129.008 152.787 128.978C152.817 128.948 152.858 128.931 152.901 128.931C152.943 128.931 152.984 128.948 153.014 128.978C153.045 129.008 153.062 129.049 153.062 129.092V170.135C153.061 170.691 152.839 171.225 152.445 171.618C152.052 172.012 151.518 172.233 150.961 172.234H124.801L126.032 204.717Z" fill="white"/>
<path d="M42.8041 112.853H14.3699V116.221H42.8041V112.853Z" fill="#C6ECE3"/>
<path d="M20.2676 104.698H14.3699V108.066H20.2676V104.698Z" fill="#C6ECE3"/>
<path d="M55.3547 124.076H14.3699V127.444H55.3547V124.076Z" fill="#C6ECE3"/>
<path d="M71.8779 135.301H14.3699V138.67H71.8779V135.301Z" fill="#C6ECE3"/>
<path d="M30.3418 146.524H14.3699V149.893H30.3418V146.524Z" fill="#C6ECE3"/>
<path d="M71.868 146.524H34.8315V149.893H71.868V146.524Z" fill="#C6ECE3"/>
<path d="M149.806 21.0269V24.5613C149.806 24.6047 148.938 24.6368 147.865 24.6368H65.5125C68.4393 22.68 71.4391 20.8309 74.5116 19.0894H147.866C148.121 19.0891 148.373 19.1391 148.608 19.2364C148.844 19.3337 149.057 19.4763 149.238 19.6563C149.418 19.8362 149.561 20.0499 149.658 20.285C149.756 20.5202 149.806 20.7723 149.806 21.0269Z" fill="white"/>
<path d="M85.1097 159.583H121.838C127.066 159.583 131.304 155.345 131.304 150.118V150.105C131.304 144.879 127.066 140.641 121.838 140.641H85.1097C79.8813 140.641 75.6429 144.879 75.6429 150.105V150.118C75.6429 155.345 79.8813 159.583 85.1097 159.583Z" fill="#F89D26"/>
<path d="M124.151 124.29C149.087 124.29 169.302 104.075 169.302 79.1401C169.302 54.2048 149.087 33.9907 124.151 33.9907C99.2148 33.9907 79 54.2048 79 79.1401C79 104.075 99.2148 124.29 124.151 124.29Z" fill="white"/>
<path d="M134.31 95.563H96.4415C96.409 95.563 96.3768 95.5566 96.3467 95.5441C96.3166 95.5316 96.2893 95.5133 96.2663 95.4902C96.2434 95.4672 96.2252 95.4398 96.2128 95.4097C96.2005 95.3796 96.1942 95.3473 96.1943 95.3148V60.8406C96.1946 60.7996 96.205 60.7592 96.2246 60.7232C96.2442 60.6871 96.2724 60.6565 96.3067 60.6339L103.013 56.1685L107.524 49.4619C107.547 49.4277 107.577 49.3995 107.613 49.3799C107.649 49.3603 107.689 49.3499 107.73 49.3496H134.31C134.375 49.3496 134.439 49.3758 134.485 49.4223C134.532 49.4689 134.558 49.532 134.558 49.5979V95.3148C134.558 95.3806 134.532 95.4437 134.485 95.4903C134.439 95.5369 134.375 95.563 134.31 95.563ZM96.6843 95.0676H134.062V49.8473H107.856L103.392 56.4875C103.373 56.5143 103.35 56.5372 103.323 56.5549L96.6843 60.9743V95.0676Z" fill="#C5C5C5"/>
<path d="M107.725 60.841H96.4678L107.725 49.5859V60.841Z" fill="#F2F2F2"/>
<path d="M107.724 61.0944H96.4674C96.4184 61.0946 96.3704 61.0802 96.3296 61.053C96.2887 61.0259 96.2569 60.9872 96.2381 60.9419C96.2193 60.8966 96.2144 60.8468 96.224 60.7987C96.2337 60.7507 96.2574 60.7065 96.2921 60.672L107.549 49.4113C107.584 49.3766 107.628 49.3529 107.676 49.3432C107.724 49.3336 107.773 49.3384 107.819 49.357C107.864 49.3757 107.903 49.4073 107.93 49.448C107.957 49.4886 107.972 49.5365 107.972 49.5854V60.8416C107.973 60.8746 107.967 60.9074 107.955 60.9381C107.943 60.9688 107.925 60.9968 107.902 61.0203C107.879 61.0439 107.851 61.0626 107.821 61.0753C107.79 61.0881 107.757 61.0945 107.724 61.0944ZM97.0652 60.599H107.476V50.1853L97.0652 60.599Z" fill="#009B7C"/>
<path d="M148.662 103.666H110.789V69.1907L117.539 64.6983L122.077 57.9502H148.662V103.666Z" fill="#F2F2F2"/>
<path d="M129.506 76.9082H116.116C116.082 76.9105 116.048 76.9058 116.016 76.8944C115.984 76.883 115.955 76.8651 115.93 76.8419C115.905 76.8186 115.885 76.7905 115.872 76.7593C115.858 76.7281 115.851 76.6945 115.851 76.6604C115.851 76.6264 115.858 76.5928 115.872 76.5616C115.885 76.5304 115.905 76.5023 115.93 76.479C115.955 76.4558 115.984 76.4379 116.016 76.4265C116.048 76.4151 116.082 76.4104 116.116 76.4127H129.506C129.54 76.4104 129.574 76.4151 129.606 76.4265C129.638 76.4379 129.667 76.4558 129.692 76.479C129.717 76.5023 129.737 76.5304 129.75 76.5616C129.764 76.5928 129.771 76.6264 129.771 76.6604C129.771 76.6945 129.764 76.7281 129.75 76.7593C129.737 76.7905 129.717 76.8186 129.692 76.8419C129.667 76.8651 129.638 76.883 129.606 76.8944C129.574 76.9058 129.54 76.9105 129.506 76.9082Z" fill="#009B7C"/>
<path d="M140.1 76.9082H132.426C132.364 76.904 132.305 76.876 132.262 76.83C132.219 76.784 132.195 76.7234 132.195 76.6604C132.195 76.5975 132.219 76.5369 132.262 76.4909C132.305 76.4448 132.364 76.4169 132.426 76.4127H140.1C140.134 76.4104 140.168 76.4151 140.2 76.4265C140.232 76.4379 140.262 76.4558 140.286 76.479C140.311 76.5023 140.331 76.5304 140.345 76.5616C140.358 76.5928 140.365 76.6264 140.365 76.6604C140.365 76.6945 140.358 76.7281 140.345 76.7593C140.331 76.7905 140.311 76.8186 140.286 76.8419C140.262 76.8651 140.232 76.883 140.2 76.8944C140.168 76.9058 140.134 76.9105 140.1 76.9082Z" fill="#009B7C"/>
<path d="M122.846 82.2578H116.116C116.082 82.2601 116.048 82.2554 116.016 82.244C115.984 82.2326 115.955 82.2147 115.93 82.1915C115.905 82.1682 115.885 82.1401 115.872 82.1089C115.858 82.0777 115.851 82.0441 115.851 82.0101C115.851 81.976 115.858 81.9424 115.872 81.9112C115.885 81.88 115.905 81.8519 115.93 81.8286C115.955 81.8054 115.984 81.7875 116.016 81.7761C116.048 81.7647 116.082 81.76 116.116 81.7623H122.846C122.88 81.76 122.914 81.7647 122.946 81.7761C122.978 81.7875 123.007 81.8054 123.032 81.8286C123.057 81.8519 123.077 81.88 123.09 81.9112C123.104 81.9424 123.111 81.976 123.111 82.0101C123.111 82.0441 123.104 82.0777 123.09 82.1089C123.077 82.1401 123.057 82.1682 123.032 82.1915C123.007 82.2147 122.978 82.2326 122.946 82.244C122.914 82.2554 122.88 82.2601 122.846 82.2578Z" fill="#009B7C"/>
<path d="M140.1 82.2578H125.767C125.704 82.2536 125.645 82.2256 125.602 82.1796C125.559 82.1336 125.535 82.073 125.535 82.0101C125.535 81.9471 125.559 81.8865 125.602 81.8405C125.645 81.7945 125.704 81.7665 125.767 81.7623H140.1C140.134 81.76 140.168 81.7647 140.2 81.7761C140.232 81.7875 140.262 81.8054 140.287 81.8286C140.311 81.8519 140.331 81.88 140.345 81.9112C140.358 81.9424 140.365 81.976 140.365 82.0101C140.365 82.0441 140.358 82.0777 140.345 82.1089C140.331 82.1401 140.311 82.1682 140.287 82.1915C140.262 82.2147 140.232 82.2326 140.2 82.244C140.168 82.2554 140.134 82.2601 140.1 82.2578Z" fill="#009B7C"/>
<path d="M140.1 87.6055H120.496C120.433 87.6012 120.375 87.5733 120.332 87.5273C120.289 87.4813 120.265 87.4207 120.265 87.3577C120.265 87.2947 120.289 87.2341 120.332 87.1881C120.375 87.1421 120.433 87.1142 120.496 87.1099H140.1C140.134 87.1076 140.168 87.1124 140.2 87.1238C140.232 87.1352 140.261 87.1531 140.286 87.1763C140.311 87.1995 140.331 87.2276 140.345 87.2588C140.358 87.29 140.365 87.3237 140.365 87.3577C140.365 87.3917 140.358 87.4254 140.345 87.4566C140.331 87.4878 140.311 87.5159 140.286 87.5391C140.261 87.5623 140.232 87.5802 140.2 87.5916C140.168 87.6031 140.134 87.6078 140.1 87.6055Z" fill="#009B7C"/>
<path d="M122.077 69.1895H110.82L122.077 57.9355V69.1895Z" fill="#009B7C"/>
<path d="M148.664 103.913H110.789C110.723 103.913 110.661 103.886 110.614 103.84C110.568 103.794 110.542 103.731 110.542 103.666V95.3157C110.546 95.2529 110.574 95.194 110.62 95.151C110.666 95.108 110.727 95.0841 110.79 95.0841C110.852 95.0841 110.913 95.108 110.959 95.151C111.005 95.194 111.033 95.2529 111.037 95.3157V103.417H148.415V57.9489C148.42 57.886 148.448 57.8272 148.494 57.7842C148.54 57.7412 148.6 57.7173 148.663 57.7173C148.726 57.7173 148.787 57.7412 148.833 57.7842C148.879 57.8272 148.907 57.886 148.911 57.9489V103.67C148.91 103.735 148.883 103.796 148.837 103.842C148.791 103.887 148.729 103.913 148.664 103.913Z" fill="#009B7C"/>
<path d="M69.7581 47.951C69.7155 47.951 69.6746 47.9341 69.6445 47.904C69.6143 47.8738 69.5974 47.8329 69.5974 47.7903V47.1475C69.5974 47.1049 69.6143 47.064 69.6445 47.0339C69.6746 47.0037 69.7155 46.9868 69.7581 46.9868C69.8007 46.9868 69.8416 47.0037 69.8717 47.0339C69.9019 47.064 69.9188 47.1049 69.9188 47.1475V47.7903C69.9188 47.8329 69.9019 47.8738 69.8717 47.904C69.8416 47.9341 69.8007 47.951 69.7581 47.951Z" fill="#009B7C"/>
<path d="M69.7581 28.5662C69.7155 28.5662 69.6746 28.5493 69.6445 28.5192C69.6143 28.489 69.5974 28.4482 69.5974 28.4055V27.7628C69.5974 27.7201 69.6143 27.6793 69.6445 27.6491C69.6746 27.619 69.7155 27.6021 69.7581 27.6021H70.4009C70.4435 27.6021 70.4844 27.619 70.5145 27.6491C70.5447 27.6793 70.5616 27.7201 70.5616 27.7628C70.5616 27.8054 70.5447 27.8462 70.5145 27.8764C70.4844 27.9065 70.4435 27.9234 70.4009 27.9234H69.9188V28.4055C69.9188 28.4482 69.9019 28.489 69.8717 28.5192C69.8416 28.5493 69.8007 28.5662 69.7581 28.5662Z" fill="#009B7C"/>
<path d="M227.761 28.5662C227.719 28.5662 227.678 28.5493 227.648 28.5192C227.617 28.489 227.601 28.4482 227.601 28.4055V27.9234H227.118C227.076 27.9234 227.035 27.9065 227.005 27.8764C226.975 27.8462 226.958 27.8054 226.958 27.7628C226.958 27.7201 226.975 27.6793 227.005 27.6491C227.035 27.619 227.076 27.6021 227.118 27.6021H227.761C227.804 27.6021 227.845 27.619 227.875 27.6491C227.905 27.6793 227.922 27.7201 227.922 27.7628V28.4055C227.922 28.4482 227.905 28.489 227.875 28.5192C227.845 28.5493 227.804 28.5662 227.761 28.5662Z" fill="#009B7C"/>
<path d="M227.761 50.4749C227.719 50.4749 227.678 50.458 227.648 50.4279C227.618 50.3977 227.601 50.3569 227.601 50.3142V49.6714C227.601 49.6288 227.618 49.5879 227.648 49.5578C227.678 49.5277 227.719 49.5107 227.761 49.5107C227.804 49.5107 227.845 49.5277 227.875 49.5578C227.905 49.5879 227.922 49.6288 227.922 49.6714V50.3142C227.922 50.3569 227.905 50.3977 227.875 50.4279C227.845 50.458 227.804 50.4749 227.761 50.4749Z" fill="#009B7C"/>
<path d="M141.292 252.024L132.243 241.16C106.664 212.313 98.1296 202.217 92.4457 195.962C91.4705 194.839 90.3395 193.862 89.0871 193.06C82.7266 189.044 77.3447 192.941 68.8164 191.237C63.8572 190.245 55.1007 182.993 53.0453 184.913C51.7597 186.11 52.9023 190.557 56.3927 194.019C52.7705 190.931 47.6764 186.95 45.9762 188.963C44.1362 191.386 49.5742 196.757 53.0212 199.846C48.843 196.108 45.5101 195.369 44.84 196.723C43.7874 198.857 46.349 202.507 52.057 207.236C47.2039 205.074 45.703 205.272 45.4041 206.615C44.8561 209.065 49.6224 212.863 54.3502 215.574C59.6742 218.627 64.86 219.147 68.1383 219.398C87.1506 242.648 92.7414 247.8 106.968 261.928C116.885 271.78 142.573 268.424 141.292 252.024Z" fill="#E2A18D"/>
<path d="M64.6367 197.494H64.6077C63.4269 197.285 62.2681 196.967 61.1463 196.543C59.303 195.849 56.3864 194.084 55.0268 192.838C55.0112 192.824 54.9986 192.807 54.9897 192.788C54.9807 192.768 54.9756 192.748 54.9748 192.726C54.9739 192.705 54.9772 192.684 54.9844 192.664C54.9917 192.644 55.0028 192.626 55.0172 192.61C55.0315 192.595 55.0488 192.582 55.0681 192.573C55.0873 192.564 55.1081 192.559 55.1293 192.558C55.1505 192.557 55.1716 192.561 55.1916 192.568C55.2115 192.575 55.2298 192.586 55.2454 192.601C56.449 193.704 59.2773 195.492 61.2588 196.243C62.3626 196.659 63.5025 196.972 64.664 197.178C64.7066 197.181 64.746 197.202 64.7736 197.234C64.8012 197.267 64.8146 197.309 64.811 197.352C64.8074 197.395 64.787 197.434 64.7543 197.462C64.7216 197.489 64.6793 197.503 64.6367 197.499V197.494Z" fill="#363E44"/>
<path d="M60.7413 202.818H60.714C59.5329 202.608 58.3737 202.29 57.2509 201.867C55.3804 201.162 52.4781 199.583 51.3227 198.744C51.3033 198.733 51.2865 198.718 51.2734 198.699C51.2603 198.681 51.2512 198.66 51.2466 198.638C51.242 198.616 51.242 198.594 51.2467 198.572C51.2514 198.55 51.2607 198.529 51.2739 198.511C51.2871 198.493 51.3039 198.478 51.3233 198.466C51.3427 198.455 51.3643 198.448 51.3866 198.446C51.4089 198.443 51.4315 198.446 51.4529 198.452C51.4742 198.459 51.4939 198.471 51.5107 198.485C52.6501 199.311 55.5154 200.87 57.3634 201.567C58.4677 201.983 59.6082 202.296 60.7702 202.502C60.8129 202.506 60.8522 202.526 60.8796 202.559C60.9071 202.592 60.9203 202.634 60.9165 202.677C60.9126 202.72 60.892 202.759 60.8592 202.786C60.8263 202.814 60.7839 202.827 60.7413 202.823V202.818Z" fill="#363E44"/>
<path d="M60.1677 210.822H60.1387C58.9573 210.613 57.798 210.295 56.6757 209.871C54.691 209.124 51.0512 206.899 49.9697 206.12C49.9355 206.094 49.9126 206.057 49.906 206.015C49.8994 205.973 49.9096 205.931 49.9343 205.896C49.9591 205.862 49.9965 205.839 50.0384 205.832C50.0802 205.825 50.1231 205.835 50.1577 205.859C51.191 206.61 54.8614 208.844 56.7881 209.57C57.8925 209.986 59.033 210.299 60.195 210.505C60.2376 210.509 60.277 210.529 60.3046 210.562C60.3322 210.595 60.3456 210.637 60.342 210.68C60.3384 210.722 60.318 210.762 60.2853 210.789C60.2526 210.817 60.2103 210.83 60.1677 210.827V210.822Z" fill="#363E44"/>
<path d="M78.7027 195.576C73.0348 191.478 69.0864 182.113 72.2747 180.536C73.9122 179.732 79.3455 181.39 90.7375 194.268C86.6718 197.02 82.5755 198.383 78.7027 195.576Z" fill="#E2A18D"/>
<path d="M74.4361 192.061C74.3935 192.063 74.3517 192.048 74.3199 192.02C74.2881 191.991 74.2689 191.952 74.2666 191.909C74.2643 191.866 74.2789 191.824 74.3074 191.793C74.3359 191.761 74.3758 191.742 74.4185 191.739L75.4534 191.619C79.2427 191.175 83.1669 190.717 86.5063 191.572C86.5267 191.577 86.546 191.587 86.5629 191.599C86.5798 191.612 86.5941 191.628 86.6049 191.646C86.6158 191.664 86.6229 191.684 86.626 191.705C86.629 191.726 86.6279 191.747 86.6228 191.768C86.6176 191.788 86.6084 191.807 86.5958 191.824C86.5832 191.841 86.5674 191.855 86.5493 191.866C86.5311 191.877 86.511 191.884 86.4902 191.887C86.4693 191.89 86.448 191.889 86.4275 191.884C83.138 191.044 79.2507 191.498 75.4903 191.939L74.4554 192.058L74.4361 192.061Z" fill="#363E44"/>
<path d="M81.5808 211.894C81.5584 211.894 81.5362 211.889 81.5158 211.88C81.4953 211.871 81.4769 211.857 81.4619 211.841C79.9388 210.163 77.9634 208.96 75.7731 208.377C73.4001 207.76 70.8945 207.89 68.5979 208.748C68.5782 208.756 68.5571 208.759 68.5361 208.759C68.515 208.758 68.4942 208.753 68.4749 208.745C68.4557 208.736 68.4383 208.724 68.4239 208.708C68.4094 208.693 68.3981 208.675 68.3906 208.655C68.3831 208.635 68.3796 208.614 68.3802 208.593C68.3808 208.572 68.3856 208.551 68.3943 208.532C68.4029 208.513 68.4153 208.496 68.4306 208.481C68.446 208.467 68.4641 208.455 68.4838 208.448C70.843 207.565 73.4174 207.432 75.8551 208.067C78.1058 208.665 80.1355 209.901 81.6998 211.626C81.7284 211.657 81.7435 211.698 81.7417 211.741C81.7399 211.783 81.7214 211.823 81.6901 211.852C81.6602 211.879 81.6212 211.894 81.5808 211.894Z" fill="#363E44"/>
<path d="M265.876 188.422C258.162 182.1 235.485 171.735 208.175 173.651C155.553 177.346 126.292 229.866 126.292 229.866L111.24 212.887C111.24 212.887 87.9494 233.526 78.9277 241.045C78.9277 241.045 103.393 286.743 133.46 276.281C148.382 271.089 169.863 235.274 169.863 235.274C169.863 235.274 173.356 272.818 179.344 290.427C225.716 280.013 263.8 247.693 282.155 204.896C279.826 197.928 270.554 192.254 265.876 188.422Z" fill="#009B7C"/>
<path d="M254.384 243.286C254.342 243.286 254.301 243.269 254.271 243.239C254.241 243.209 254.224 243.168 254.224 243.125L255.694 211.759C255.696 211.716 255.715 211.676 255.746 211.647C255.778 211.618 255.819 211.603 255.862 211.605C255.905 211.607 255.945 211.626 255.974 211.657C256.002 211.689 256.017 211.73 256.015 211.773L254.545 243.14C254.541 243.18 254.523 243.217 254.493 243.244C254.463 243.271 254.425 243.286 254.384 243.286Z" fill="#363E44"/>
<path d="M170.208 235.321C170.166 235.321 170.125 235.304 170.095 235.274C170.065 235.243 170.048 235.203 170.048 235.16L170.417 209.799C170.417 209.756 170.434 209.715 170.464 209.685C170.494 209.655 170.535 209.638 170.578 209.638C170.621 209.638 170.661 209.655 170.692 209.685C170.722 209.715 170.739 209.756 170.739 209.799L170.369 235.16C170.369 235.203 170.352 235.243 170.322 235.274C170.292 235.304 170.251 235.321 170.208 235.321Z" fill="#363E44"/>
<path d="M138.996 243.993C138.974 243.993 138.952 243.988 138.932 243.979C138.911 243.971 138.893 243.958 138.878 243.941L125.895 230.059C125.879 230.044 125.866 230.026 125.858 230.006C125.849 229.986 125.844 229.964 125.844 229.942C125.845 229.92 125.849 229.898 125.858 229.878C125.867 229.858 125.88 229.839 125.896 229.824C125.912 229.809 125.931 229.798 125.952 229.79C125.972 229.783 125.994 229.78 126.016 229.782C126.038 229.783 126.06 229.789 126.079 229.799C126.099 229.81 126.116 229.824 126.13 229.841L139.113 243.717C139.128 243.731 139.14 243.749 139.148 243.769C139.156 243.788 139.16 243.809 139.16 243.831C139.16 243.852 139.156 243.873 139.148 243.892C139.14 243.912 139.128 243.93 139.113 243.945C139.098 243.96 139.079 243.973 139.059 243.981C139.039 243.989 139.017 243.993 138.996 243.993Z" fill="#363E44"/>
<path d="M200.56 188.191L208.791 211.502L223.178 186.883L200.56 188.191Z" fill="white"/>
<path d="M201.598 171.227C201.598 171.227 205.152 188.085 210.022 188.596L201.23 192.204L194.641 200.423C194.641 200.423 190.697 188.965 192.256 176.267L201.598 171.227Z" fill="white"/>
<path d="M209.474 188.509C209.474 188.509 222.023 189.703 222.833 171.343L232.179 175.038C232.179 175.038 233.842 190.901 223.871 200.582L218.619 191.709L209.474 188.509Z" fill="white"/>
<path d="M208.759 211.237C208.716 211.237 208.675 211.22 208.645 211.19C208.615 211.159 208.598 211.119 208.598 211.076L209.122 191.057C209.122 191.014 209.139 190.973 209.169 190.943C209.199 190.913 209.24 190.896 209.282 190.896C209.325 190.896 209.366 190.913 209.396 190.943C209.426 190.973 209.443 191.014 209.443 191.057L208.919 211.076C208.919 211.119 208.902 211.159 208.872 211.19C208.842 211.22 208.801 211.237 208.759 211.237Z" fill="#363E44"/>
<path d="M205.652 196.322C206.412 196.322 207.028 195.706 207.028 194.946C207.028 194.187 206.412 193.571 205.652 193.571C204.892 193.571 204.277 194.187 204.277 194.946C204.277 195.706 204.892 196.322 205.652 196.322Z" fill="#363E44"/>
<path d="M104.039 203.993L70.1714 235.095L83.6005 249.71L117.468 218.609L104.039 203.993Z" fill="white"/>
<path d="M211.579 188.766H212.251C218.083 188.766 222.812 184.039 222.812 178.207V152.983C222.812 147.152 218.083 142.424 212.251 142.424H211.579C205.746 142.424 201.018 147.152 201.018 152.983V178.207C201.018 184.039 205.746 188.766 211.579 188.766Z" fill="#E2A18D"/>
<path d="M207.526 125.461C206.722 125.384 199.055 124.756 194.435 130.001C190.998 133.903 190.579 138.913 191.163 147.418C191.843 157.435 193.649 163.323 196.534 165.305C201.09 168.43 214.254 165.805 219.389 157.059C223.095 150.747 223.159 138.252 219.243 132.006C215.326 125.76 208.035 125.511 207.526 125.461Z" fill="#E2A18D"/>
<path d="M201.776 166.732C201.532 166.732 201.294 166.732 201.053 166.716C201.012 166.714 200.973 166.696 200.945 166.666C200.916 166.636 200.9 166.596 200.9 166.555C200.9 166.513 200.917 166.472 200.947 166.442C200.978 166.411 201.018 166.395 201.061 166.395C206.686 166.648 214.523 163.842 218.6 157.983C218.625 157.95 218.662 157.928 218.702 157.922C218.743 157.916 218.785 157.926 218.819 157.949C218.852 157.973 218.876 158.008 218.884 158.049C218.893 158.089 218.885 158.131 218.863 158.166C214.899 163.869 207.423 166.732 201.776 166.732Z" fill="#363E44"/>
<path d="M184.589 138.505C184.589 138.505 185.444 141.347 187.678 143.538C188.125 143.977 190.317 139.09 189.386 138.844C187.821 138.444 186.196 138.329 184.589 138.505Z" fill="white"/>
<path d="M196.786 146.287C196.786 146.287 192.557 146.896 189.187 144.746C188.64 144.393 188.131 143.985 187.668 143.528C187.628 143.27 187.607 143.01 187.604 142.749C187.604 142.01 187.762 141.279 188.067 140.605C188.371 139.931 188.816 139.33 189.372 138.842C190.369 139.093 191.321 139.499 192.192 140.045C195.557 142.195 196.786 146.287 196.786 146.287Z" fill="#363E44"/>
<path d="M206.669 142.638C203.443 143.912 201.445 146.748 201.445 146.748C202.949 147.439 204.568 147.846 206.219 147.948C207.147 147.999 207.026 142.502 206.669 142.638Z" fill="white"/>
<path d="M206.671 142.638C207.033 142.495 207.404 142.375 207.782 142.278C211.656 141.305 215.478 143.218 215.478 143.218C215.478 143.218 213.017 146.714 209.143 147.687C208.185 147.921 207.198 148.008 206.215 147.946C205.807 147.102 205.635 146.163 205.715 145.229C205.796 144.296 206.126 143.4 206.671 142.638Z" fill="#363E44"/>
<path d="M219.249 124.677C221.714 124.479 227.581 126.51 229.301 130.46C232.949 138.84 230.86 148.393 222.776 155.491C222.505 152.237 218.674 145.082 217.129 142.865C215.201 140.105 214.666 137.393 215.503 134.337C205.096 135.238 201.464 134.956 201.307 134.139C201.146 133.288 204.659 131.569 204.659 131.569C204.659 131.569 196.624 134.782 195.981 133.738C195.78 133.417 195.673 132.372 198.806 129.664C191.875 134.29 191.162 133.966 190.855 133.64C189.947 132.676 191.371 127.042 195.39 122.5C197.657 119.93 201.603 118.13 206.036 117.965C213.927 117.677 218.46 122.408 219.249 124.677Z" fill="#363E44"/>
<path d="M224.629 150.084C226.005 147.17 225.124 143.867 222.662 142.705C220.199 141.543 217.088 142.962 215.712 145.876C214.337 148.789 215.218 152.093 217.68 153.255C220.142 154.417 223.254 152.997 224.629 150.084Z" fill="#E2A18D"/>
<path d="M222.129 149.72C222.095 149.72 222.063 149.71 222.035 149.691C222.001 149.666 221.977 149.629 221.97 149.587C221.963 149.546 221.972 149.503 221.997 149.468C222.107 149.311 222.203 149.146 222.284 148.973C222.945 147.575 222.532 145.988 221.364 145.439C221.079 145.305 220.768 145.24 220.454 145.247C220.412 145.247 220.371 145.23 220.341 145.2C220.31 145.17 220.293 145.129 220.293 145.087C220.293 145.044 220.31 145.003 220.341 144.973C220.371 144.943 220.412 144.926 220.454 144.926C220.818 144.917 221.179 144.993 221.508 145.148C222.837 145.776 223.319 147.558 222.583 149.113C222.491 149.302 222.384 149.484 222.262 149.656C222.246 149.676 222.226 149.693 222.203 149.704C222.18 149.715 222.154 149.721 222.129 149.72Z" fill="#363E44"/>
<path d="M196.103 151.728C196.077 151.728 196.051 151.721 196.028 151.709C196.004 151.696 195.984 151.678 195.97 151.656C195.631 151.147 195.501 150.66 195.586 150.21C195.676 149.728 195.988 149.436 196.349 149.108C196.65 148.851 196.92 148.559 197.153 148.239C197.502 147.728 197.736 147.147 197.836 146.536C197.843 146.493 197.867 146.455 197.903 146.43C197.938 146.406 197.982 146.396 198.025 146.403C198.067 146.411 198.105 146.435 198.13 146.47C198.155 146.506 198.165 146.549 198.157 146.592C198.048 147.248 197.797 147.873 197.421 148.422C197.176 148.763 196.89 149.073 196.571 149.346C196.227 149.657 195.98 149.884 195.907 150.269C195.835 150.655 195.952 151.041 196.243 151.478C196.255 151.495 196.263 151.515 196.267 151.536C196.271 151.556 196.271 151.578 196.267 151.599C196.263 151.619 196.255 151.639 196.243 151.657C196.231 151.674 196.216 151.689 196.198 151.701C196.17 151.72 196.137 151.729 196.103 151.728Z" fill="#363E44"/>
<path d="M200.955 156.892C200.035 156.871 199.155 156.51 198.485 155.878C198.455 155.848 198.438 155.807 198.438 155.764C198.437 155.722 198.454 155.681 198.484 155.65C198.514 155.62 198.555 155.603 198.598 155.603C198.64 155.603 198.681 155.62 198.712 155.65C198.829 155.767 199.914 156.791 201.456 156.529C201.91 156.442 202.34 156.26 202.719 155.995C203.097 155.73 203.415 155.388 203.651 154.991C203.662 154.972 203.676 154.956 203.693 154.943C203.709 154.93 203.729 154.921 203.749 154.915C203.77 154.91 203.791 154.908 203.812 154.911C203.833 154.914 203.853 154.921 203.872 154.931C203.89 154.942 203.906 154.956 203.919 154.973C203.931 154.99 203.941 155.009 203.946 155.029C203.952 155.05 203.953 155.071 203.95 155.092C203.947 155.113 203.94 155.133 203.929 155.151C203.793 155.389 203.031 156.587 201.509 156.845C201.326 156.876 201.141 156.892 200.955 156.892Z" fill="#363E44"/>
<path d="M201.08 283.731L189.865 236.095C189.808 235.852 189.671 235.636 189.476 235.482C189.281 235.327 189.039 235.243 188.79 235.243H104.715C104.549 235.243 104.385 235.281 104.235 235.353C104.085 235.425 103.954 235.531 103.851 235.661C103.747 235.791 103.675 235.943 103.639 236.105C103.603 236.267 103.604 236.436 103.642 236.597L116.396 290.808C144.71 296.79 174.158 294.329 201.085 283.731H201.08Z" fill="#A2D8CB"/>
<path d="M152.893 269.773C155.626 269.242 157.376 266.415 156.802 263.457C156.228 260.499 153.547 258.53 150.814 259.061C148.081 259.591 146.331 262.418 146.905 265.376C147.479 268.335 150.16 270.303 152.893 269.773Z" fill="#009B7C"/>
<g clip-path="url(#clip1_6880_535164)">
<path d="M233.05 221.546C233.05 224.555 235.491 226.996 238.5 226.996C241.509 226.996 243.95 224.555 243.95 221.546C243.95 218.538 241.509 216.096 238.5 216.096C235.491 216.096 233.05 218.538 233.05 221.546Z" fill="#009B7C" stroke="white" stroke-width="0.1"/>
<path d="M238.5 223.903C237.198 223.903 236.143 222.848 236.143 221.546C236.143 220.244 237.198 219.189 238.5 219.189C239.802 219.189 240.857 220.244 240.857 221.546C240.857 222.848 239.802 223.903 238.5 223.903Z" fill="#F89D26"/>
</g>
</g>
<defs>
<clipPath id="clip0_6880_535164">
<rect width="294" height="294" fill="white"/>
</clipPath>
<clipPath id="clip1_6880_535164">
<rect width="11" height="11" fill="white" transform="matrix(-1 0 0 1 244 216)"/>
</clipPath>
</defs>
</svg>
