<svg width="294" height="294" viewBox="0 0 294 294" fill="none" xmlns="http://www.w3.org/2000/svg">
<g clip-path="url(#clip0_6880_534352)">
<path d="M146.999 294C228.185 294 293.998 228.186 293.998 147C293.998 65.8141 228.185 0 146.999 0C65.8138 0 0 65.8141 0 147C0 228.186 65.8138 294 146.999 294Z" fill="#E9FAF6"/>
<path d="M87.4138 162.237C130.794 162.237 165.961 127.077 165.961 83.7064C165.961 40.3354 130.794 5.17627 87.4138 5.17627C44.0337 5.17627 8.86719 40.3354 8.86719 83.7064C8.86719 127.077 44.0337 162.237 87.4138 162.237Z" fill="#A2D8CB"/>
<path d="M103.657 49.8871C99.5394 39.4139 87.1618 29.789 87.1618 29.789C87.1618 29.789 63.4825 24.8087 61.4271 40.7795C59.3716 56.7503 45.279 65.4867 24.1273 68.2789C2.97556 71.0711 5.41639 93.2191 5.41639 93.2191L7.50395 95.4442L9.75208 85.5703L9.79865 97.8926L12.7533 101.021L15.9425 90.3771C15.9425 90.3771 17.0103 100.327 17.3444 105.905L26.4846 115.627L103.082 74.8096C103.082 74.8096 108.62 62.4953 103.657 49.8871Z" fill="#363E44"/>
<path d="M13.1323 91.5738H13.113C13.0709 91.5686 13.0325 91.5469 13.0064 91.5135C12.9802 91.48 12.9683 91.4376 12.9733 91.3955C13.7216 85.1925 19.0497 80.6556 23.7852 78.4787C28.4806 76.3211 33.7156 75.5082 38.7803 74.7226C39.4917 74.6117 40.2014 74.5025 40.9112 74.3884C46.2971 73.5241 52.4554 72.3095 57.374 68.8394C61.6149 65.848 65.4737 59.9583 63.9241 54.0976C63.9132 54.0563 63.9192 54.0123 63.9408 53.9754C63.9623 53.9385 63.9976 53.9117 64.0389 53.9008C64.0802 53.8899 64.1241 53.8959 64.161 53.9175C64.1979 53.939 64.2247 53.9743 64.2356 54.0157C64.9406 56.6842 64.6033 59.5872 63.2609 62.4115C61.9549 65.0881 59.9919 67.3898 57.5554 69.1012C52.5774 72.61 46.3806 73.8342 40.9578 74.7033C40.2501 74.8179 39.5393 74.9298 38.8252 75.0391C33.7894 75.8295 28.5737 76.6328 23.9185 78.7695C19.2632 80.9062 14.0251 85.3564 13.2912 91.4324C13.2865 91.4713 13.2678 91.5072 13.2385 91.5332C13.2092 91.5592 13.1714 91.5737 13.1323 91.5738Z" fill="#40484C"/>
<path d="M23.3516 93.4393C23.3404 93.4409 23.3291 93.4409 23.3179 93.4393C23.2764 93.4304 23.2402 93.4055 23.217 93.37C23.1939 93.3345 23.1857 93.2912 23.1942 93.2497C23.782 90.4382 25.4424 87.9481 28.1144 85.8322C30.4172 84.0232 33.343 82.603 36.5899 81.7307C39.2684 81.0093 42.0625 80.59 44.7651 80.1836C48.0972 79.6823 51.5432 79.165 54.7725 78.079C60.4202 76.1816 66.1593 71.5467 66.2509 65.4707C66.2509 65.4281 66.2678 65.3872 66.2979 65.3571C66.328 65.327 66.3689 65.3101 66.4114 65.3101C66.454 65.3101 66.4949 65.327 66.525 65.3571C66.5551 65.3872 66.572 65.4281 66.572 65.4707C66.4773 71.7042 60.6305 76.4451 54.8753 78.3794C51.6139 79.4783 48.1582 80.0069 44.8133 80.5017C42.1187 80.9065 39.3342 81.3242 36.6734 82.0407C31.1382 83.53 24.7744 87.2717 23.5058 93.3124C23.4982 93.3478 23.4788 93.3797 23.4508 93.4027C23.4228 93.4258 23.3878 93.4386 23.3516 93.4393Z" fill="#40484C"/>
<path d="M69.2376 125.616L41.6289 137.68C32.9576 141.468 22.7671 138.379 17.7987 130.45C15.5111 126.813 14.5804 122.484 15.1705 118.227C15.7607 113.97 17.8339 110.058 21.0248 107.181C27.9185 100.901 36.3169 93.4996 41.1488 90.1435C50.3613 83.7511 69.2376 125.616 69.2376 125.616Z" fill="#009B7C"/>
<path d="M179.905 70.7829C179.905 70.7829 173.261 56.0781 131.119 57.0549L129.552 74.727L179.905 70.7829Z" fill="#009B7C"/>
<path d="M131.119 57.0581C131.119 57.0581 73.4949 64.0643 39.9912 91.0625L66.0664 127.952L63.3959 178.238C63.3959 178.238 160.777 148.561 160.759 147.65C160.742 146.739 139.081 95.4372 139.081 95.4372L131.119 57.0581Z" fill="#009B7C"/>
<path d="M90.4023 30.1182C95.2631 38.3646 93.813 49.3487 86.0521 53.7346C78.2912 58.1205 65.5893 53.8952 60.7269 45.6536C55.8645 37.412 58.217 27.1621 65.9795 22.773C73.742 18.3839 85.5415 21.8701 90.4023 30.1182Z" fill="#363E44"/>
<path d="M78.293 52.2051L84.4593 72.8541L96.6008 69.6587L91.8123 53.3297L78.293 52.2051Z" fill="#E2A18D"/>
<path d="M75.3494 73.402C75.3494 73.402 87.7462 64.1274 103.072 63.9233L100.882 88.6515L75.3494 73.402Z" fill="#E2A18D"/>
<path d="M74.8614 28.4779C75.4331 28.1357 80.9635 24.9435 86.3334 27.1525C90.3302 28.7976 92.4611 32.3304 95.1204 38.7888C98.2501 46.3926 99.0369 51.3665 97.5933 53.847C95.3099 57.7654 82.5276 57.4907 75.4957 52.8911C70.4198 49.572 67.7878 43.4446 68.4494 37.4601C69.111 31.4757 74.4969 28.6964 74.8614 28.4779Z" fill="#E2A18D"/>
<path d="M93.3506 31.842C93.3682 31.8934 93.4196 31.9191 93.4373 31.9705C93.8927 32.6142 94.4061 33.2149 94.9709 33.7651C95.2246 33.998 95.4976 34.0687 95.7625 34.2599C95.9552 34.3997 96.1399 34.5346 96.3374 34.6664C97.2029 32.2694 96.8191 29.8965 96.8191 29.8965C95.5607 30.3426 94.3876 31.0006 93.3506 31.842Z" fill="white"/>
<path d="M96.0949 34.0898C96.3432 34.5957 96.4878 35.1462 96.5204 35.7088C96.553 36.2714 96.4729 36.8349 96.2847 37.3661C96.0965 37.8973 95.804 38.3855 95.4245 38.802C95.045 39.2186 94.5861 39.555 94.0748 39.7915C93.0381 40.287 91.8488 40.3573 90.761 39.9871C89.6733 39.6169 88.7734 38.8358 88.2537 37.8106C88.0057 37.3047 87.8613 36.7543 87.829 36.1917C87.7967 35.6292 87.877 35.0659 88.0654 34.5348C88.2537 34.0038 88.5462 33.5158 88.9258 33.0995C89.3053 32.6831 89.7642 32.3469 90.2754 32.1105C91.3116 31.6145 92.5007 31.5439 93.5883 31.9138C94.6759 32.2837 95.5756 33.0647 96.0949 34.0898Z" fill="#363E44"/>
<path d="M82.4456 42.7139C82.8326 43.5364 83.2822 44.0875 84.0514 44.5148C85.2313 43.8572 86.2825 42.9912 87.1539 41.9588C87.1539 41.9588 84.6054 40.6093 81.7471 40.7973C81.8145 41.4608 82.1758 42.1307 82.4456 42.7139Z" fill="white"/>
<path d="M75.5936 43.0254C76.4479 40.8228 78.9658 39.7158 81.2139 40.5529C81.7443 40.744 82.2312 41.0391 82.6463 41.4207C83.0613 41.8024 83.3962 42.263 83.6312 42.7756C83.8662 43.2882 83.9968 43.8426 84.0152 44.4063C84.0335 44.97 83.9394 45.5317 83.7383 46.0585C83.3109 47.1243 82.4831 47.9801 81.4324 48.4423C80.3817 48.9046 79.1918 48.9364 78.1179 48.531C77.5874 48.3401 77.1004 48.0451 76.6852 47.6635C76.27 47.2819 75.9351 46.8213 75.7 46.3086C75.4649 45.7959 75.3345 45.2415 75.3162 44.6777C75.2979 44.1139 75.3922 43.5522 75.5936 43.0254Z" fill="#363E44"/>
<path d="M92.9219 43.7582H92.8994C92.8572 43.7522 92.8192 43.7298 92.7936 43.6957C92.768 43.6617 92.757 43.6188 92.7629 43.5767C92.8207 43.1606 92.7629 42.8296 92.5798 42.5918C92.3968 42.3541 92.127 42.2705 91.7609 42.1581C91.4211 42.0715 91.0928 41.9447 90.783 41.7805C90.2997 41.5111 89.881 41.1393 89.5561 40.6913C89.5306 40.657 89.5197 40.6139 89.5259 40.5716C89.532 40.5293 89.5548 40.4911 89.589 40.4656C89.6233 40.44 89.6664 40.4291 89.7087 40.4353C89.751 40.4415 89.7891 40.4642 89.8147 40.4985C90.1115 40.9105 90.4953 41.2522 90.9387 41.4994C91.2285 41.6504 91.5345 41.7679 91.8508 41.8496C92.2458 41.9637 92.5863 42.0633 92.8384 42.3991C93.0712 42.7059 93.1595 43.1172 93.0825 43.6216C93.0767 43.66 93.0572 43.6949 93.0277 43.72C92.9982 43.7451 92.9606 43.7586 92.9219 43.7582Z" fill="#363E44"/>
<path d="M92.347 49.0613C92.2038 49.6011 91.8539 50.0628 91.3731 50.3466C90.8923 50.6304 90.3192 50.7135 89.7777 50.5779C89.5095 50.5164 89.2563 50.4021 89.0328 50.2418C88.8092 50.0815 88.6197 49.8782 88.4754 49.644C88.331 49.4097 88.2347 49.1491 88.1919 48.8772C88.1492 48.6053 88.1609 48.3277 88.2264 48.0604C88.5091 46.9455 89.1482 48.2837 90.2867 48.56C91.4252 48.8364 92.6296 47.9463 92.347 49.0613Z" fill="#363E44"/>
<path d="M89.6621 56.7117C86.6935 56.6799 83.7409 56.2712 80.8751 55.4955C80.8343 55.4836 80.7998 55.4559 80.7793 55.4185C80.7588 55.3812 80.754 55.3372 80.7659 55.2963C80.7718 55.2759 80.7817 55.2568 80.795 55.2402C80.8084 55.2236 80.8248 55.2099 80.8435 55.1997C80.8622 55.1895 80.8827 55.1832 80.9038 55.181C80.925 55.1788 80.9463 55.1809 80.9667 55.187C81.0165 55.2031 86.0362 56.6651 91.1732 56.3454C91.2156 56.3427 91.2572 56.3569 91.2891 56.3849C91.321 56.4129 91.3405 56.4524 91.3434 56.4948C91.3447 56.5159 91.3419 56.537 91.335 56.557C91.3281 56.577 91.3173 56.5955 91.3033 56.6113C91.2893 56.6271 91.2723 56.64 91.2533 56.6492C91.2342 56.6585 91.2136 56.6638 91.1925 56.6651C90.6802 56.6924 90.168 56.7117 89.6621 56.7117Z" fill="#363E44"/>
<path d="M69.2377 25.673C69.2377 25.673 71.3252 17.3189 64.3929 10.0572C57.4606 2.79558 50.8383 3.03496 45.1328 9.0724C39.4274 15.1098 41.0653 28.0683 61.2937 33.868L69.2377 25.673Z" fill="#363E44"/>
<path d="M56.4859 26.2547C54.0063 26.2665 51.5858 25.4983 49.5665 24.0585C46.4416 21.7772 44.6447 17.846 44.9915 14.0416C44.9956 13.999 45.0163 13.9598 45.0493 13.9325C45.0823 13.9052 45.1248 13.8922 45.1673 13.8962C45.2099 13.9003 45.2492 13.9211 45.2764 13.9541C45.3037 13.9871 45.3167 14.0295 45.3127 14.0721C44.9771 17.7672 46.721 21.5828 49.7576 23.7983C52.7941 26.0137 57.0319 26.5583 60.5518 25.1847C60.5716 25.1759 60.593 25.1712 60.6147 25.1709C60.6364 25.1706 60.6579 25.1747 60.6779 25.183C60.698 25.1912 60.7161 25.2034 60.7313 25.2189C60.7466 25.2343 60.7585 25.2527 60.7664 25.2729C60.7743 25.2931 60.7781 25.3146 60.7774 25.3363C60.7768 25.358 60.7718 25.3793 60.7627 25.399C60.7536 25.4187 60.7406 25.4363 60.7245 25.4508C60.7084 25.4654 60.6896 25.4765 60.6691 25.4835C59.3347 25.9983 57.9161 26.2599 56.4859 26.2547Z" fill="#40484C"/>
<path d="M55.6397 29.3598C54.2303 29.3665 52.8445 28.9972 51.6252 28.2898C51.606 28.2798 51.5891 28.266 51.5753 28.2492C51.5616 28.2324 51.5515 28.213 51.5454 28.1922C51.5394 28.1714 51.5376 28.1496 51.5402 28.1281C51.5428 28.1066 51.5498 28.0858 51.5606 28.0671C51.5715 28.0483 51.586 28.0319 51.6033 28.0189C51.6206 28.0059 51.6404 27.9966 51.6614 27.9914C51.6825 27.9863 51.7043 27.9854 51.7257 27.9889C51.7471 27.9925 51.7675 28.0003 51.7858 28.0119C52.7877 28.5883 53.9068 28.931 55.0596 29.0145C56.2123 29.0979 57.3691 28.92 58.4435 28.4939C58.4823 28.4808 58.5245 28.4831 58.5617 28.5002C58.5988 28.5173 58.6281 28.5479 58.6434 28.5858C58.6588 28.6237 58.6591 28.6661 58.6443 28.7042C58.6296 28.7423 58.6008 28.7734 58.5639 28.7911C57.6347 29.1664 56.6419 29.3595 55.6397 29.3598Z" fill="#40484C"/>
<path d="M83.9357 26.5085C83.9357 26.5085 78.2913 25.4096 73.2796 31.6703C69.4674 36.4354 68.4204 41.676 73.559 46.5551L68.8331 49.14C68.8331 49.14 61.0417 36.5993 70.8708 29.2091C73.6136 27.1382 77.8208 25.8048 83.9357 26.5085Z" fill="#363E44"/>
<path d="M71.8553 55.5435C74.6206 55.5435 76.8622 53.3476 76.8622 50.6387C76.8622 47.9298 74.6206 45.7339 71.8553 45.7339C69.0901 45.7339 66.8484 47.9298 66.8484 50.6387C66.8484 53.3476 69.0901 55.5435 71.8553 55.5435Z" fill="#E2A18D"/>
<path d="M74.2334 51.2897C74.2089 51.2896 74.1847 51.284 74.1627 51.2731C74.1407 51.2622 74.1215 51.2465 74.1065 51.227C74.0262 51.1226 72.1105 48.6919 69.3341 50.7676C69.3 50.7931 69.2572 50.8041 69.215 50.7981C69.1729 50.7921 69.1348 50.7695 69.1093 50.7354C69.0837 50.7014 69.0727 50.6585 69.0788 50.6163C69.0848 50.5742 69.1073 50.5361 69.1414 50.5105C72.1747 48.2421 74.3394 51.0037 74.3618 51.0311C74.3876 51.0649 74.3988 51.1077 74.3931 51.1498C74.3874 51.192 74.3652 51.2302 74.3313 51.256C74.3033 51.2777 74.2689 51.2896 74.2334 51.2897Z" fill="#363E44"/>
<path d="M293.478 267.331H120.503C120.461 267.331 120.42 267.314 120.39 267.284C120.36 267.254 120.343 267.213 120.343 267.171V135.839C120.343 135.797 120.36 135.756 120.39 135.726C120.42 135.696 120.461 135.679 120.503 135.679H293.478C293.521 135.679 293.562 135.696 293.592 135.726C293.622 135.756 293.639 135.797 293.639 135.839V267.171C293.639 267.213 293.622 267.254 293.592 267.284C293.562 267.314 293.521 267.331 293.478 267.331ZM120.664 267.01H293.318V136H120.664V267.01Z" fill="#F9CD92"/>
<path d="M288.052 251.205V141.276H125.937V251.205H288.052Z" fill="#F9CD92"/>
<path d="M126.437 141.776H287.552V250.705H126.437V141.776Z" fill="#FDEEDB" stroke="#FDEEDB"/>
<path d="M280.524 188.647V154.26H133.464V188.647H280.524Z" fill="#F2E6DC"/>
<path d="M206.994 261.804C208.792 261.804 210.251 260.344 210.251 258.543C210.251 256.742 208.792 255.282 206.994 255.282C205.195 255.282 203.737 256.742 203.737 258.543C203.737 260.344 205.195 261.804 206.994 261.804Z" fill="white"/>
<path d="M279.891 284.505H101.951C98.3045 284.498 94.809 283.045 92.2319 280.463C89.6547 277.881 88.2062 274.383 88.2041 270.734C88.2041 270.691 88.221 270.65 88.2511 270.62C88.2813 270.59 88.3221 270.573 88.3647 270.573H293.478C293.521 270.573 293.562 270.59 293.592 270.62C293.622 270.65 293.639 270.691 293.639 270.734C293.637 274.383 292.188 277.881 289.611 280.463C287.034 283.045 283.538 284.498 279.891 284.505ZM88.5269 270.895C88.5707 274.43 90.0036 277.806 92.5158 280.293C95.0279 282.78 98.4174 284.177 101.951 284.184H279.891C283.426 284.178 286.815 282.78 289.328 280.293C291.84 277.806 293.273 274.43 293.316 270.895H88.5269Z" fill="#F9CD92"/>
<path d="M247.95 283.095C247.908 283.095 247.867 283.078 247.837 283.048C247.806 283.018 247.79 282.977 247.79 282.934C247.79 282.892 247.806 282.851 247.837 282.821C247.867 282.79 247.908 282.774 247.95 282.774C250.765 282.768 253.463 281.646 255.452 279.654C257.441 277.661 258.558 274.961 258.56 272.145C258.56 272.102 258.577 272.061 258.607 272.031C258.637 272.001 258.678 271.984 258.72 271.984C258.763 271.984 258.804 272.001 258.834 272.031C258.864 272.061 258.881 272.102 258.881 272.145C258.879 275.046 257.727 277.828 255.678 279.881C253.629 281.933 250.85 283.089 247.95 283.095Z" fill="#F9CD92"/>
<path d="M185.611 271.468C185.611 273.002 185.002 274.473 183.918 275.557C182.834 276.642 181.363 277.251 179.83 277.251H159.512C157.978 277.251 156.508 276.642 155.424 275.557C154.34 274.473 153.731 273.002 153.731 271.468H185.611Z" fill="#F9CD92"/>
<path d="M281.82 106.789L270.91 126.712L89.8965 106.789L185.858 35.9658L281.82 106.789Z" fill="#F89D26"/>
<path d="M281.82 107.173H89.8965V239.719H281.82V107.173Z" fill="#F89D26"/>
<path d="M281.82 107.173H89.8965L185.858 204.286L281.82 107.173Z" fill="#C67D1E"/>
<path d="M258.208 131.07V67.6603V56.0706L238.158 45.4224L227.739 27.5205H113.508V131.07L185.858 206.411L258.208 131.07Z" fill="white"/>
<path d="M231.675 102.177H180.516C180.473 102.177 180.432 102.16 180.402 102.13C180.372 102.1 180.355 102.059 180.355 102.017C180.355 101.974 180.372 101.933 180.402 101.903C180.432 101.873 180.473 101.856 180.516 101.856H231.675C231.718 101.856 231.759 101.873 231.789 101.903C231.819 101.933 231.836 101.974 231.836 102.017C231.836 102.059 231.819 102.1 231.789 102.13C231.759 102.16 231.718 102.177 231.675 102.177Z" fill="#F9CD92"/>
<path d="M169.358 102.177H140.039C139.997 102.177 139.956 102.16 139.926 102.13C139.896 102.1 139.879 102.059 139.879 102.017C139.879 101.974 139.896 101.933 139.926 101.903C139.956 101.873 139.997 101.856 140.039 101.856H169.358C169.401 101.856 169.442 101.873 169.472 101.903C169.502 101.933 169.519 101.974 169.519 102.017C169.519 102.059 169.502 102.1 169.472 102.13C169.442 102.16 169.401 102.177 169.358 102.177Z" fill="#F9CD92"/>
<path d="M231.675 118.461H205.961C205.919 118.461 205.878 118.444 205.848 118.414C205.818 118.384 205.801 118.343 205.801 118.3C205.801 118.258 205.818 118.217 205.848 118.187C205.878 118.157 205.919 118.14 205.961 118.14H231.675C231.718 118.14 231.759 118.157 231.789 118.187C231.819 118.217 231.836 118.258 231.836 118.3C231.836 118.343 231.819 118.384 231.789 118.414C231.759 118.444 231.718 118.461 231.675 118.461Z" fill="#F9CD92"/>
<path d="M194.804 118.461H140.046C140.003 118.461 139.963 118.444 139.933 118.414C139.902 118.384 139.885 118.343 139.885 118.3C139.885 118.258 139.902 118.217 139.933 118.187C139.963 118.157 140.003 118.14 140.046 118.14H194.804C194.847 118.14 194.888 118.157 194.918 118.187C194.948 118.217 194.965 118.258 194.965 118.3C194.965 118.343 194.948 118.384 194.918 118.414C194.888 118.444 194.847 118.461 194.804 118.461Z" fill="#F9CD92"/>
<path d="M214.939 134.751H140.039C139.997 134.751 139.956 134.735 139.926 134.704C139.896 134.674 139.879 134.633 139.879 134.591C139.879 134.548 139.896 134.507 139.926 134.477C139.956 134.447 139.997 134.43 140.039 134.43H214.939C214.982 134.43 215.023 134.447 215.053 134.477C215.083 134.507 215.1 134.548 215.1 134.591C215.1 134.633 215.083 134.674 215.053 134.704C215.023 134.735 214.982 134.751 214.939 134.751Z" fill="#F9CD92"/>
<path d="M227.739 56.0705H258.208L227.739 27.5332V56.0705Z" fill="#F9CD92"/>
<path d="M261.877 123.865C261.835 123.865 261.794 123.848 261.764 123.818C261.734 123.788 261.717 123.747 261.717 123.705V23.9214H110V87.3258C110 87.3684 109.983 87.4093 109.953 87.4394C109.922 87.4695 109.882 87.4865 109.839 87.4865C109.796 87.4865 109.756 87.4695 109.725 87.4394C109.695 87.4093 109.678 87.3684 109.678 87.3258V23.7608C109.678 23.7181 109.695 23.6773 109.725 23.6472C109.756 23.617 109.796 23.6001 109.839 23.6001H261.877C261.92 23.6001 261.961 23.617 261.991 23.6472C262.021 23.6773 262.038 23.7181 262.038 23.7608V123.705C262.038 123.747 262.021 123.788 261.991 123.818C261.961 123.848 261.92 123.865 261.877 123.865Z" fill="#F9CD92"/>
<path d="M281.82 239.719H89.8965L185.858 142.607L281.82 239.719Z" fill="#F89D26"/>
<path d="M101.217 228.422C101.175 228.422 101.135 228.405 101.105 228.375C101.075 228.345 101.058 228.305 101.058 228.262C101.058 228.22 101.075 228.179 101.105 228.149L185.744 142.502C185.759 142.487 185.777 142.475 185.796 142.466C185.816 142.458 185.837 142.454 185.858 142.454C185.879 142.454 185.9 142.458 185.92 142.466C185.94 142.475 185.957 142.487 185.972 142.502L245.227 202.465C245.242 202.48 245.253 202.498 245.261 202.517C245.269 202.537 245.273 202.557 245.273 202.579C245.273 202.6 245.269 202.621 245.261 202.64C245.253 202.66 245.241 202.677 245.226 202.692C245.211 202.707 245.193 202.719 245.174 202.727C245.154 202.735 245.133 202.739 245.112 202.739C245.091 202.739 245.07 202.734 245.051 202.726C245.031 202.718 245.014 202.706 244.999 202.691L185.86 142.836L101.331 228.375C101.316 228.39 101.299 228.402 101.279 228.41C101.26 228.418 101.239 228.422 101.217 228.422Z" fill="white"/>
<path d="M164.05 160.5C164.05 172.342 173.658 181.95 185.5 181.95C197.342 181.95 206.95 172.342 206.95 160.5C206.95 148.658 197.342 139.05 185.5 139.05C173.658 139.05 164.05 148.658 164.05 160.5Z" fill="#009B7C" stroke="white" stroke-width="0.1"/>
<path d="M185.499 169.713C180.41 169.713 176.285 165.588 176.285 160.499C176.285 155.41 180.41 151.285 185.499 151.285C190.588 151.285 194.713 155.41 194.713 160.499C194.713 165.588 190.588 169.713 185.499 169.713Z" fill="#F89D26"/>
<path d="M116.664 95.0727C113.462 93.9272 100.916 87.0399 95.398 90.7832C89.8419 94.5586 87.7704 101.688 88.053 108.399L88.1141 108.458C88.9651 110.113 90.4907 112.456 93.1611 113.988C96.2041 115.733 97.818 114.751 101.319 116.094C107.223 118.36 108.384 123.549 110.396 122.554C111.774 121.87 111.227 118.818 110.001 116.162C108.746 113.431 106.79 112.202 107.077 111.807C107.398 111.373 109.226 112.885 111.673 114.554C112.81 115.33 114.62 119.383 116.64 118.731C118.245 118.209 117.425 113.524 114.658 110.43C112.702 108.242 109.878 107.859 110.053 107.356C110.184 106.976 111.862 107.244 113.239 107.904C115.512 108.995 117.414 113.122 119.256 112.483C121.065 111.855 120.272 107.777 117.908 104.771C115.915 102.236 112.746 101.965 112.961 101.333C113.11 100.89 114.555 100.716 117.552 101.269C120.054 101.73 124.617 104.24 125.494 101.695C126.228 99.5485 121.496 96.7997 116.664 95.0727Z" fill="#E2A18D"/>
<path d="M34.9778 100.869C27.9797 103.578 23.424 110.549 24.0583 118.026C24.4694 122.927 27.1093 127.877 34.9023 130.557C53.867 137.081 94.1568 108.324 94.1568 108.324L98.5487 89.7325C77.0597 89.7116 54.2395 93.4099 34.9778 100.869Z" fill="#E2A18D"/>
<path d="M38.5458 162.701C44.2979 162.401 51.41 166.245 51.6525 170.907C51.895 175.57 45.1811 179.284 39.429 179.583C33.677 179.882 28.8178 176.349 28.5738 171.687C28.3297 167.024 32.7954 163.001 38.5458 162.701Z" fill="white"/>
<path d="M48.1503 189.574C53.1909 189.31 59.4231 192.681 59.6366 196.766C59.8502 200.852 53.9649 204.108 48.9243 204.372C43.8836 204.635 39.625 201.534 39.4098 197.446C39.1947 193.357 43.1032 189.837 48.1503 189.574Z" fill="white"/>
<path d="M51.7538 216.885C57.1557 215.299 64.7914 217.349 66.076 221.731C67.3607 226.112 61.8126 231.159 56.409 232.745C51.0055 234.331 45.5843 232.065 44.2996 227.686C43.015 223.307 46.3502 218.468 51.7538 216.885Z" fill="white"/>
<path d="M72.329 180.171C70.463 184.859 71.6594 191.842 75.4619 193.354C79.2645 194.866 84.2345 190.334 86.1004 185.643C87.9664 180.951 86.3943 175.926 82.5917 174.414C78.7892 172.903 74.1998 175.481 72.329 180.171Z" fill="white"/>
<path d="M91.1731 195.565C86.0104 197.814 81.4708 204.282 83.2934 208.467C85.116 212.652 92.6151 212.965 97.7778 210.716C102.941 208.467 105.646 203.252 103.822 199.069C101.998 194.885 96.3358 193.316 91.1731 195.565Z" fill="white"/>
<path d="M65.7099 198.289C65.6778 198.289 65.6465 198.28 65.6199 198.262C57.3516 192.698 46.7276 196.721 46.6216 196.761C46.6016 196.771 46.5799 196.776 46.5579 196.777C46.5358 196.778 46.5138 196.774 46.4933 196.766C46.4727 196.757 46.4541 196.745 46.4386 196.729C46.423 196.714 46.4109 196.695 46.4029 196.674C46.3949 196.654 46.3913 196.632 46.3922 196.61C46.3932 196.588 46.3986 196.566 46.4083 196.546C46.418 196.526 46.4316 196.509 46.4484 196.494C46.4653 196.48 46.4848 196.469 46.506 196.463C48.5898 195.731 50.7577 195.267 52.9581 195.081C56.3881 194.777 61.4015 195.036 65.8046 197.995C65.8332 198.015 65.8548 198.042 65.8664 198.075C65.8779 198.107 65.8787 198.143 65.8686 198.176C65.8585 198.209 65.8381 198.237 65.8104 198.258C65.7827 198.278 65.7491 198.289 65.7147 198.289H65.7099Z" fill="#F9CD92"/>
<path d="M53.2649 224.658C53.2421 224.658 53.2195 224.653 53.1988 224.643C53.178 224.634 53.1595 224.62 53.1444 224.603C53.1164 224.571 53.1021 224.529 53.1048 224.487C53.1075 224.444 53.127 224.405 53.1589 224.377C53.2568 224.29 63.5822 215.934 77.3199 221.992C77.3589 222.01 77.3894 222.042 77.4048 222.081C77.4201 222.121 77.4191 222.165 77.4018 222.204C77.3846 222.243 77.3525 222.274 77.3128 222.289C77.273 222.305 77.2288 222.304 77.1898 222.286C63.632 216.307 53.4672 224.536 53.3708 224.618C53.3416 224.643 53.3039 224.658 53.2649 224.658Z" fill="#F9CD92"/>
<path d="M74.6478 219.051H74.6141C74.5934 219.046 74.5738 219.038 74.5564 219.026C74.539 219.014 74.5241 218.999 74.5126 218.981C74.5011 218.963 74.4932 218.943 74.4894 218.922C74.4856 218.902 74.486 218.88 74.4905 218.86C74.4905 218.827 75.242 215.536 78.1517 211.932C80.8318 208.611 85.9543 204.331 95.1315 202.797C95.1526 202.794 95.1742 202.794 95.1951 202.799C95.2159 202.804 95.2356 202.813 95.2531 202.825C95.2705 202.837 95.2854 202.853 95.2968 202.871C95.3081 202.889 95.3158 202.909 95.3194 202.931C95.323 202.952 95.3224 202.973 95.3177 202.994C95.3129 203.015 95.3041 203.035 95.2917 203.052C95.2793 203.07 95.2636 203.084 95.2455 203.096C95.2274 203.107 95.2072 203.115 95.1862 203.119C86.1149 204.635 81.055 208.854 78.4118 212.125C75.5455 215.671 74.8116 218.901 74.8052 218.933C74.7956 218.968 74.775 218.998 74.7465 219.019C74.718 219.04 74.6833 219.051 74.6478 219.051Z" fill="#F9CD92"/>
<path d="M67.1277 199.605C66.815 199.609 66.5025 199.588 66.1931 199.542C66.1505 199.535 66.1125 199.512 66.0874 199.477C66.0622 199.441 66.052 199.398 66.0591 199.355C66.0661 199.313 66.0897 199.275 66.1248 199.249C66.1599 199.224 66.2035 199.214 66.2461 199.221C66.2734 199.221 69.0274 199.668 72.1523 197.881C75.0428 196.226 78.8614 192.273 80.6101 182.821C80.6178 182.779 80.642 182.741 80.6776 182.716C80.7131 182.692 80.757 182.682 80.7996 182.69C80.8422 182.697 80.88 182.722 80.9047 182.757C80.9294 182.793 80.9389 182.837 80.9313 182.879C79.1552 192.467 75.2563 196.487 72.2984 198.17C70.7277 199.088 68.9462 199.582 67.1277 199.605Z" fill="#F9CD92"/>
<path d="M91.6357 233.905C91.6074 233.905 91.5797 233.897 91.5554 233.882C90.8938 233.502 90.2338 233.106 89.5931 232.706C79.083 226.142 71.3286 216.837 67.754 206.505C66.585 203.117 65.8351 199.552 65.1125 196.104C64.5681 193.516 64.0061 190.84 63.2706 188.259C61.183 180.966 57.867 175.794 53.3949 172.888C48.4168 169.654 40.4825 169.557 36.5965 174.57C36.5835 174.587 36.5674 174.601 36.549 174.611C36.5307 174.621 36.5104 174.628 36.4895 174.631C36.4685 174.633 36.4473 174.632 36.4269 174.626C36.4066 174.621 36.3875 174.611 36.3708 174.598C36.3542 174.585 36.3402 174.569 36.3298 174.551C36.3194 174.532 36.3127 174.512 36.3101 174.491C36.3075 174.47 36.309 174.449 36.3146 174.428C36.3202 174.408 36.3298 174.389 36.3427 174.372C38.1702 172.015 41.0446 170.574 44.4344 170.316C47.6478 170.081 50.8512 170.888 53.5699 172.618C58.1095 175.568 61.4769 180.8 63.5789 188.171C64.3192 190.762 64.8812 193.444 65.4256 196.043C66.1482 199.481 66.8949 203.035 68.0591 206.405C71.6032 216.668 79.3094 225.914 89.7585 232.432C90.4008 232.83 91.0528 233.224 91.7111 233.603C91.7294 233.614 91.7454 233.628 91.7582 233.644C91.771 233.661 91.7803 233.68 91.7857 233.701C91.7911 233.721 91.7924 233.743 91.7895 233.764C91.7866 233.785 91.7796 233.805 91.7689 233.823C91.7556 233.847 91.7363 233.867 91.7129 233.881C91.6896 233.896 91.663 233.904 91.6357 233.905Z" fill="#F9CD92"/>
<rect x="136.5" y="63.5" width="99" height="11" fill="#FDEEDB" stroke="#FDEEDB"/>
</g>
<defs>
<clipPath id="clip0_6880_534352">
<rect width="294" height="294" fill="white"/>
</clipPath>
</defs>
</svg>
