<svg width="294" height="294" viewBox="0 0 294 294" fill="none" xmlns="http://www.w3.org/2000/svg">
<path d="M147 294C228.186 294 294 228.186 294 147C294 65.8141 228.186 0 147 0C65.8141 0 0 65.8141 0 147C0 228.186 65.8141 294 147 294Z" fill="#E8F5F2"/>
<path d="M5.75798 184.368L238.545 184.368L238.545 19.2125L5.75798 19.2125L5.75798 184.368Z" fill="#A2D8CB"/>
<path d="M231.241 162.903V26.5195L13.0613 26.5195V162.903H231.241Z" fill="#E6E6E6"/>
<path d="M126.55 172.797C126.555 170.375 124.596 168.409 122.176 168.404C119.755 168.399 117.789 170.358 117.785 172.78C117.78 175.201 119.739 177.168 122.159 177.172C124.58 177.177 126.546 175.218 126.55 172.797Z" fill="white"/>
<path d="M97.648 187.868H104.54C104.54 190.351 105.526 192.732 107.281 194.488C109.036 196.244 111.417 197.231 113.9 197.232H130.404C131.634 197.232 132.851 196.99 133.987 196.519C135.123 196.048 136.155 195.358 137.024 194.489C137.893 193.619 138.582 192.587 139.052 191.451C139.523 190.315 139.764 189.097 139.764 187.868H146.656L153.548 224.512V227.575H90.7559V224.512L97.648 187.868Z" fill="#D6D6D6"/>
<path d="M153.548 231.76H90.756C90.6662 231.754 90.582 231.714 90.5205 231.648C90.459 231.583 90.4248 231.496 90.4248 231.406C90.4248 231.316 90.459 231.229 90.5205 231.164C90.582 231.098 90.6662 231.058 90.756 231.052H153.548C153.638 231.058 153.722 231.098 153.784 231.164C153.845 231.229 153.879 231.316 153.879 231.406C153.879 231.496 153.845 231.583 153.784 231.648C153.722 231.714 153.638 231.754 153.548 231.76Z" fill="#D6D6D6"/>
<path d="M112.064 147.03H216.676L216.676 6.07574H112.064L112.064 147.03Z" fill="white"/>
<path d="M212.35 143.895H107.737C107.643 143.894 107.553 143.857 107.487 143.79C107.421 143.723 107.384 143.633 107.384 143.54V2.58503C107.384 2.49114 107.421 2.40108 107.487 2.33454C107.553 2.268 107.643 2.23041 107.737 2.22998H212.35C212.444 2.22998 212.534 2.26738 212.601 2.33397C212.667 2.40055 212.705 2.49086 212.705 2.58503V143.54C212.705 143.634 212.667 143.724 212.601 143.791C212.534 143.857 212.444 143.895 212.35 143.895ZM108.092 143.186H211.996V2.93365H108.092V143.186Z" fill="#009B7C"/>
<path d="M205.04 22.5161H127.882C127.792 22.5101 127.708 22.4701 127.646 22.4043C127.585 22.3386 127.551 22.2519 127.551 22.1619C127.551 22.0718 127.585 21.9852 127.646 21.9194C127.708 21.8536 127.792 21.8137 127.882 21.8076H205.043C205.133 21.8137 205.217 21.8536 205.279 21.9194C205.34 21.9852 205.374 22.0718 205.374 22.1619C205.374 22.2519 205.34 22.3386 205.279 22.4043C205.217 22.4701 205.133 22.5101 205.043 22.5161H205.04Z" fill="#009B7C"/>
<path d="M205.04 28.3929H127.802C127.753 28.3962 127.705 28.3894 127.659 28.3731C127.613 28.3568 127.571 28.3312 127.535 28.298C127.5 28.2648 127.472 28.2246 127.452 28.18C127.433 28.1354 127.423 28.0873 127.423 28.0386C127.423 27.99 127.433 27.9419 127.452 27.8973C127.472 27.8527 127.5 27.8125 127.535 27.7793C127.571 27.7461 127.613 27.7205 127.659 27.7042C127.705 27.6879 127.753 27.6811 127.802 27.6844H205.04C205.13 27.6904 205.214 27.7304 205.276 27.7962C205.337 27.8619 205.371 27.9486 205.371 28.0386C205.371 28.1287 205.337 28.2153 205.276 28.2811C205.214 28.3469 205.13 28.3868 205.04 28.3929Z" fill="#009B7C"/>
<path d="M205.04 34.2708H127.802C127.753 34.2741 127.705 34.2674 127.659 34.251C127.613 34.2347 127.571 34.2091 127.535 34.1759C127.5 34.1427 127.472 34.1026 127.452 34.0579C127.433 34.0133 127.423 33.9652 127.423 33.9166C127.423 33.8679 127.433 33.8198 127.452 33.7752C127.472 33.7306 127.5 33.6904 127.535 33.6572C127.571 33.624 127.613 33.5984 127.659 33.5821C127.705 33.5658 127.753 33.5591 127.802 33.5623H205.04C205.13 33.5684 205.214 33.6083 205.276 33.6741C205.337 33.7399 205.371 33.8265 205.371 33.9166C205.371 34.0066 205.337 34.0933 205.276 34.159C205.214 34.2248 205.13 34.2648 205.04 34.2708Z" fill="#009B7C"/>
<path d="M180.805 43.9639H122.368V67.471H180.805V43.9639Z" fill="#D6D6D6"/>
<path d="M181.509 91.71H122.474V97.7554H181.509V91.71Z" fill="#D6D6D6"/>
<path d="M181.509 100.604H122.474V106.65H181.509V100.604Z" fill="#D6D6D6"/>
<path d="M181.509 109.498H122.474V115.544H181.509V109.498Z" fill="#D6D6D6"/>
<path d="M181.509 118.392H122.474V124.438H181.509V118.392Z" fill="#D6D6D6"/>
<path d="M181.509 127.288H122.474V133.333H181.509V127.288Z" fill="#D6D6D6"/>
<path d="M205.85 91.71H183.965V133.333H205.85V91.71Z" fill="#D6D6D6"/>
<path d="M205.956 72.0127H122.474V77.5858H205.956V72.0127Z" fill="#D6D6D6"/>
<path d="M205.956 81.3623H122.474V86.9355H205.956V81.3623Z" fill="#D6D6D6"/>
<path d="M206.052 44.0664H183.535V67.1269H206.052V44.0664Z" fill="#D6D6D6"/>
<path d="M186.61 61.7114L202.886 61.6954C200.476 53.6883 198.953 51.6624 197.957 51.7749C196.511 51.9355 196.093 56.5624 194.115 56.6958C192.927 56.7761 192.449 55.147 191.253 55.0892C190.216 55.0394 188.689 56.1543 186.61 61.7114Z" fill="white"/>
<path d="M193.784 51.1997C194.223 50.1255 193.709 48.8985 192.634 48.4591C191.56 48.0196 190.333 48.5342 189.894 49.6083C189.454 50.6824 189.969 51.9095 191.043 52.3489C192.117 52.7883 193.344 52.2738 193.784 51.1997Z" fill="white"/>
<path d="M75.2703 104.401H21.1293C21.0828 104.401 21.0367 104.391 20.9937 104.374C20.9507 104.356 20.9117 104.33 20.8788 104.297C20.846 104.264 20.82 104.224 20.8023 104.181C20.7847 104.138 20.7757 104.092 20.7759 104.046V54.7435C20.7763 54.6848 20.7911 54.6272 20.8192 54.5756C20.8472 54.524 20.8875 54.4802 20.9365 54.4479L30.5245 48.0619L36.9748 38.4707C37.0067 38.4217 37.0502 38.3814 37.1016 38.3533C37.1529 38.3253 37.2103 38.3104 37.2688 38.3101H75.2703C75.3645 38.3101 75.4548 38.3475 75.5214 38.414C75.588 38.4806 75.6254 38.5709 75.6254 38.6651V104.046C75.6254 104.14 75.588 104.23 75.5214 104.297C75.4548 104.363 75.3645 104.401 75.2703 104.401ZM21.4763 103.692H74.9169V39.0218H37.4487L31.0659 48.5181C31.0399 48.5564 31.0066 48.5892 30.9679 48.6145L21.4763 54.9347V103.692Z" fill="#C5C5C5"/>
<path d="M37.261 54.7436H21.1665L37.261 38.6475V54.7436Z" fill="white"/>
<path d="M37.2609 55.1049H21.1664C21.0963 55.1052 21.0277 55.0846 20.9693 55.0458C20.9109 55.007 20.8654 54.9517 20.8385 54.8869C20.8116 54.8222 20.8046 54.7509 20.8184 54.6821C20.8321 54.6134 20.866 54.5503 20.9158 54.5008L37.0102 38.3967C37.0596 38.3471 37.1225 38.3132 37.1911 38.2994C37.2597 38.2856 37.3309 38.2925 37.3956 38.3191C37.4603 38.3458 37.5156 38.3911 37.5545 38.4492C37.5935 38.5074 37.6143 38.5757 37.6143 38.6457V54.7434C37.6156 54.7906 37.6074 54.8375 37.5902 54.8814C37.573 54.9253 37.5471 54.9653 37.5142 54.999C37.4812 55.0328 37.4418 55.0595 37.3983 55.0777C37.3548 55.0959 37.308 55.1051 37.2609 55.1049ZM22.0211 54.3964H36.9058V39.5036L22.0211 54.3964Z" fill="#D6D6D6"/>
<path d="M95.7909 115.987H41.6418V66.6836L51.2924 60.259L57.7813 50.6084H95.7909V115.987Z" fill="white"/>
<path d="M68.4023 77.7205H49.2586C49.21 77.7238 49.1613 77.7171 49.1155 77.7007C49.0697 77.6844 49.0277 77.6589 48.9922 77.6256C48.9567 77.5924 48.9284 77.5523 48.909 77.5077C48.8896 77.463 48.8796 77.4149 48.8796 77.3663C48.8796 77.3176 48.8896 77.2695 48.909 77.2249C48.9284 77.1803 48.9567 77.1401 48.9922 77.1069C49.0277 77.0737 49.0697 77.0481 49.1155 77.0318C49.1613 77.0155 49.21 77.0088 49.2586 77.012H68.4023C68.4508 77.0088 68.4995 77.0155 68.5453 77.0318C68.5911 77.0481 68.6331 77.0737 68.6686 77.1069C68.7042 77.1401 68.7325 77.1803 68.7519 77.2249C68.7712 77.2695 68.7812 77.3176 68.7812 77.3663C68.7812 77.4149 68.7712 77.463 68.7519 77.5077C68.7325 77.5523 68.7042 77.5924 68.6686 77.6256C68.6331 77.6589 68.5911 77.6844 68.5453 77.7007C68.4995 77.7171 68.4508 77.7238 68.4023 77.7205Z" fill="#D6D6D6"/>
<path d="M83.5489 77.7205H72.5778C72.4879 77.7145 72.4038 77.6745 72.3423 77.6088C72.2808 77.543 72.2466 77.4563 72.2466 77.3663C72.2466 77.2762 72.2808 77.1896 72.3423 77.1238C72.4038 77.058 72.4879 77.0181 72.5778 77.012H83.5489C83.5975 77.0088 83.6462 77.0155 83.692 77.0318C83.7378 77.0481 83.7798 77.0737 83.8153 77.1069C83.8508 77.1401 83.8791 77.1803 83.8985 77.2249C83.9179 77.2695 83.9279 77.3176 83.9279 77.3663C83.9279 77.4149 83.9179 77.463 83.8985 77.5077C83.8791 77.5523 83.8508 77.5924 83.8153 77.6256C83.7798 77.6589 83.7378 77.6844 83.692 77.7007C83.6462 77.7171 83.5975 77.7238 83.5489 77.7205Z" fill="#D6D6D6"/>
<path d="M58.8802 85.3704H49.2586C49.21 85.3737 49.1613 85.367 49.1155 85.3506C49.0697 85.3343 49.0277 85.3088 48.9922 85.2755C48.9567 85.2423 48.9284 85.2022 48.909 85.1576C48.8896 85.1129 48.8796 85.0648 48.8796 85.0162C48.8796 84.9675 48.8896 84.9194 48.909 84.8748C48.9284 84.8302 48.9567 84.79 48.9922 84.7568C49.0277 84.7236 49.0697 84.698 49.1155 84.6817C49.1613 84.6654 49.21 84.6587 49.2586 84.6619H58.8802C58.9288 84.6587 58.9774 84.6654 59.0233 84.6817C59.0691 84.698 59.111 84.7236 59.1466 84.7568C59.1821 84.79 59.2104 84.8302 59.2298 84.8748C59.2492 84.9194 59.2592 84.9675 59.2592 85.0162C59.2592 85.0648 59.2492 85.1129 59.2298 85.1576C59.2104 85.2022 59.1821 85.2423 59.1466 85.2755C59.111 85.3088 59.0691 85.3343 59.0233 85.3506C58.9774 85.367 58.9288 85.3737 58.8802 85.3704Z" fill="#D6D6D6"/>
<path d="M83.549 85.3704H63.0558C62.966 85.3644 62.8818 85.3244 62.8203 85.2587C62.7588 85.1929 62.7246 85.1062 62.7246 85.0162C62.7246 84.9262 62.7588 84.8395 62.8203 84.7737C62.8818 84.7079 62.966 84.668 63.0558 84.6619H83.549C83.5976 84.6587 83.6462 84.6654 83.6921 84.6817C83.7379 84.698 83.7798 84.7236 83.8154 84.7568C83.8509 84.79 83.8792 84.8302 83.8986 84.8748C83.918 84.9194 83.9279 84.9675 83.9279 85.0162C83.9279 85.0648 83.918 85.1129 83.8986 85.1576C83.8792 85.2022 83.8509 85.2423 83.8154 85.2755C83.7798 85.3088 83.7379 85.3343 83.6921 85.3506C83.6462 85.367 83.5976 85.3737 83.549 85.3704Z" fill="#D6D6D6"/>
<path d="M83.5491 93.0198H55.5211C55.4313 93.0138 55.3471 92.9738 55.2856 92.9081C55.2241 92.8423 55.1899 92.7556 55.1899 92.6656C55.1899 92.5756 55.2241 92.4889 55.2856 92.4231C55.3471 92.3574 55.4313 92.3174 55.5211 92.3114H83.5491C83.5976 92.3081 83.6463 92.3148 83.6921 92.3311C83.738 92.3475 83.7799 92.373 83.8155 92.4062C83.851 92.4394 83.8793 92.4796 83.8987 92.5242C83.918 92.5688 83.928 92.617 83.928 92.6656C83.928 92.7142 83.918 92.7623 83.8987 92.807C83.8793 92.8516 83.851 92.8917 83.8155 92.9249C83.7799 92.9582 83.738 92.9837 83.6921 93C83.6463 93.0164 83.5976 93.0231 83.5491 93.0198Z" fill="#D6D6D6"/>
<path d="M57.7815 66.6834H41.687L57.7815 50.5889V66.6834Z" fill="#D6D6D6"/>
<path d="M95.7926 116.34H41.642C41.5484 116.34 41.4588 116.303 41.3926 116.236C41.3264 116.17 41.289 116.081 41.2886 115.987V104.045C41.2946 103.956 41.3346 103.871 41.4003 103.81C41.4661 103.749 41.5528 103.714 41.6428 103.714C41.7329 103.714 41.8195 103.749 41.8853 103.81C41.9511 103.871 41.991 103.956 41.9971 104.045V115.632H95.4376V50.6066C95.4436 50.5167 95.4836 50.4326 95.5494 50.3711C95.6151 50.3096 95.7018 50.2754 95.7918 50.2754C95.8819 50.2754 95.9685 50.3096 96.0343 50.3711C96.1001 50.4326 96.14 50.5167 96.1461 50.6066V115.993C96.144 116.086 96.1059 116.174 96.0399 116.239C95.9739 116.304 95.8852 116.34 95.7926 116.34Z" fill="#D6D6D6"/>
<path d="M243.173 246.132L222.229 255.23L207.305 248.672C192.157 242.016 179.274 231.094 170.228 217.238C161.183 203.383 156.366 187.195 156.366 170.648L157.131 103.592L222.813 86.4404L289.624 104.358L288.859 176.482C288.859 191.28 284.535 205.756 276.419 218.13C268.302 230.504 256.747 240.237 243.173 246.132Z" fill="#F89D26"/>
<path d="M240.159 236.44L222.121 244.473L209.269 238.69C182.609 226.676 165.397 199.637 165.397 169.768L166.057 110.539L222.585 96.0273L280.164 111.216L279.506 174.919C279.506 201.631 264.051 225.797 240.159 236.44Z" fill="white"/>
<path d="M222.585 96.0273L221.756 96.2394V244.311L222.121 244.472L240.159 236.439C264.051 225.795 279.506 201.63 279.506 174.917L280.164 111.214L222.585 96.0273Z" fill="#E6E6E6"/>
<path d="M222.327 259.006C222.277 259.006 222.229 258.996 222.184 258.977L206.701 252.173C190.924 245.238 177.507 233.86 168.085 219.43C158.664 204.999 153.646 188.138 153.643 170.904L154.446 101.34C154.447 101.262 154.474 101.187 154.522 101.126C154.57 101.065 154.636 101.022 154.711 101.003L222.85 83.2083C222.91 83.1923 222.972 83.1923 223.032 83.2083L292.336 101.791C292.411 101.812 292.478 101.857 292.526 101.919C292.573 101.982 292.598 102.058 292.597 102.137L291.804 176.959C291.807 192.381 287.303 207.467 278.845 220.362C270.386 233.257 258.343 243.398 244.197 249.538L222.468 258.977C222.423 258.996 222.375 259.006 222.327 259.006ZM155.144 101.613L154.352 170.909C154.355 188.005 159.333 204.73 168.68 219.045C178.026 233.359 191.337 244.645 206.987 251.524L222.327 258.272L243.914 248.896L244.055 249.217L243.914 248.896C257.934 242.81 269.869 232.758 278.252 219.978C286.635 207.198 291.099 192.246 291.095 176.962L291.886 102.41L222.931 83.9104L155.144 101.613Z" fill="#009B7C"/>
<path d="M221.988 197.287L194.907 168.668L204.206 160.034L220.516 177.052L246.205 139.75L256.656 146.947L221.988 197.287Z" fill="#F89D26"/>
<path d="M25.8737 249.866L23.8558 260.294C20.6009 277.115 33.4855 292.732 50.6195 292.732H167.256L175.782 274.313C181.033 262.968 172.755 250 160.253 249.988L25.8737 249.866Z" fill="#009B7C"/>
<path d="M142.54 226.091L125.332 187.955C123.308 183.453 120.147 179.556 116.161 176.645C112.175 173.735 107.5 171.911 102.596 171.354C79.266 168.732 52.8943 171.421 39.78 173.163C37.4275 173.475 35.2542 174.587 33.6261 176.314C31.998 178.04 31.0145 180.275 30.8411 182.642L25.8752 250.168H127.57L125.263 238.431L138.588 235.297C139.478 234.986 140.293 234.494 140.983 233.852C141.672 233.209 142.22 232.43 142.591 231.564C142.963 230.698 143.151 229.764 143.142 228.822C143.133 227.88 142.928 226.95 142.54 226.091Z" fill="#009B7C"/>
<path d="M30.8346 260.744L19.2449 260.466C8.16932 260.201 -0.250645 250.372 1.25149 239.395C4.00834 219.252 12.4122 173.293 42.9754 173.021L48.3413 187.419L37.3701 227.988L54.9153 229.503L50.3848 246.168C49.2263 250.434 46.6706 254.189 43.1264 256.832C39.5822 259.474 35.2542 260.852 30.8346 260.744Z" fill="#009B7C"/>
<path d="M124.409 221.948C122.143 214.334 126.124 206.256 133.507 203.323C143.091 199.517 157.258 193.916 164.711 191.103C177.242 186.372 196.427 181.213 197.115 183.906C197.507 185.44 195.026 186.685 188.208 189.574C188.7 189.771 190.038 190.743 190.167 192.226C190.359 194.419 188.629 195.062 188.504 195.19C188.676 195.243 190.602 195.965 190.98 197.411C191.405 199.041 190.645 200.253 189.603 201.064C190.025 201.212 191.714 202.132 192.013 203.54C192.392 205.369 190.861 206.753 189.408 207.284C186.746 208.248 179.404 210.687 175.687 212.475C172.486 214.016 147.231 231.707 135.317 231.224C128.93 230.965 125.84 226.762 124.409 221.948Z" fill="#E2A18D"/>
<path d="M170.202 204.947C170.129 204.947 170.058 204.925 169.998 204.884C169.939 204.842 169.893 204.783 169.868 204.715C169.843 204.646 169.84 204.572 169.859 204.501C169.878 204.431 169.918 204.368 169.974 204.322C172.168 202.482 173.083 200.336 173.818 198.611C174.594 196.795 175.218 195.357 176.937 195.426C178.007 195.465 179.332 194.973 180.765 193.998C180.911 193.901 181.023 193.76 181.085 193.597C181.147 193.433 181.157 193.254 181.112 193.084C181.073 192.91 180.979 192.752 180.846 192.634C180.712 192.515 180.544 192.442 180.367 192.424L171.719 191.428C171.625 191.417 171.54 191.37 171.482 191.296C171.423 191.223 171.396 191.129 171.407 191.036C171.418 190.942 171.465 190.857 171.538 190.799C171.612 190.74 171.706 190.713 171.799 190.724L180.447 191.72C180.766 191.756 181.067 191.889 181.308 192.1C181.55 192.312 181.721 192.592 181.799 192.904C181.877 193.215 181.858 193.543 181.744 193.844C181.631 194.144 181.428 194.402 181.164 194.585C179.581 195.659 178.156 196.191 176.909 196.133C175.717 196.088 175.256 197.049 174.471 198.888C173.706 200.683 172.753 202.916 170.43 204.865C170.366 204.918 170.285 204.947 170.202 204.947Z" fill="#2F2F2E"/>
<path d="M184.272 207.707C184.2 207.707 184.129 207.684 184.069 207.643C184.01 207.601 183.964 207.542 183.94 207.474C183.598 206.524 183.57 205.49 183.859 204.523C184.148 203.556 184.74 202.707 185.546 202.1L184.913 202.233C184.14 202.398 183.332 202.264 182.653 201.859C181.974 201.454 181.472 200.808 181.249 200.049C181.026 199.29 181.097 198.475 181.449 197.767C181.8 197.058 182.407 196.509 183.146 196.228L184.171 195.839C183.646 195.704 183.178 195.406 182.832 194.989C182.487 194.571 182.282 194.055 182.247 193.515C182.212 192.974 182.349 192.436 182.639 191.978C182.928 191.519 183.355 191.164 183.858 190.963L186.809 189.757C186.895 189.724 186.991 189.727 187.075 189.764C187.16 189.801 187.227 189.87 187.261 189.955C187.296 190.041 187.297 190.136 187.262 190.222C187.228 190.307 187.161 190.376 187.077 190.414L184.126 191.62C183.695 191.806 183.35 192.146 183.159 192.574C182.967 193.002 182.943 193.486 183.092 193.931C183.241 194.376 183.551 194.748 183.962 194.975C184.372 195.202 184.853 195.266 185.308 195.155L187.434 194.597C187.522 194.575 187.615 194.587 187.694 194.631C187.773 194.675 187.833 194.747 187.861 194.833C187.889 194.92 187.882 195.013 187.843 195.095C187.803 195.177 187.734 195.24 187.649 195.272L183.398 196.879C182.825 197.094 182.354 197.519 182.081 198.067C181.807 198.615 181.751 199.246 181.923 199.834C182.095 200.422 182.483 200.923 183.009 201.237C183.535 201.551 184.16 201.655 184.759 201.528L188.102 200.826C188.188 200.806 188.279 200.819 188.356 200.863C188.433 200.907 188.49 200.977 188.517 201.061C188.545 201.146 188.539 201.237 188.503 201.317C188.466 201.398 188.4 201.461 188.319 201.496L186.732 202.203C185.81 202.618 185.079 203.365 184.685 204.295C184.29 205.225 184.26 206.27 184.602 207.222C184.618 207.265 184.625 207.311 184.623 207.358C184.621 207.404 184.61 207.45 184.591 207.492C184.571 207.534 184.543 207.572 184.509 207.603C184.475 207.635 184.435 207.659 184.391 207.675C184.354 207.692 184.313 207.703 184.272 207.707Z" fill="#2F2F2E"/>
<path d="M58.6586 172.176C58.6586 172.176 76.3051 168.213 99.4266 173.462L113.527 251.277L46.1548 272.644L47.9445 251.831L58.6586 172.176Z" fill="white"/>
<path d="M100.587 239.538C98.0465 237.931 88.5486 229.595 83.075 231.773C77.5629 233.966 74.4125 239.718 73.373 245.559L73.4132 245.622C73.8309 247.211 74.6984 249.522 76.7083 251.354C78.9976 253.442 80.5785 252.904 83.3369 254.728C87.9959 257.811 88.0072 262.508 89.9238 262.033C91.2412 261.711 91.3536 258.971 90.8058 256.447C90.2435 253.855 88.7896 252.417 89.1173 252.132C89.4756 251.818 90.764 253.471 92.5553 255.38C93.3859 256.265 94.1715 260.106 96.0384 259.927C97.5276 259.784 97.7108 255.589 95.9179 252.39C94.6503 250.13 92.287 249.262 92.5361 248.856C92.7208 248.552 94.1169 249.105 95.1772 249.939C96.9284 251.314 97.7734 255.24 99.4876 255.036C101.168 254.84 101.264 251.18 99.8089 248.128C98.5767 245.557 95.8954 244.719 96.2022 244.216C96.4159 243.863 97.6947 243.989 100.172 245.04C102.241 245.916 105.697 248.952 106.937 246.926C107.977 245.22 104.426 241.948 100.587 239.538Z" fill="#E2A18D"/>
<path d="M28.3492 229.02C25.8449 229.412 23.4915 230.469 21.5338 232.079C19.5762 233.69 18.0857 235.795 17.2174 238.177C15.4084 243.202 15.3907 249.64 23.3094 254.49C38.4111 263.741 78.6457 246.648 78.6457 246.648L85.9877 231.458C67.2263 227.283 46.5547 226.131 28.3492 229.02Z" fill="#E2A18D"/>
<path d="M32.7994 228.756C32.7089 228.754 32.623 228.716 32.5591 228.652C32.4952 228.588 32.4581 228.502 32.4555 228.412C32.4528 228.322 32.4848 228.233 32.5448 228.166C32.6048 228.098 32.6884 228.056 32.7785 228.048L49.0754 227.069C49.1691 227.064 49.2612 227.096 49.3314 227.158C49.4016 227.221 49.4442 227.308 49.4497 227.402C49.4553 227.496 49.4233 227.588 49.361 227.658C49.2986 227.728 49.2109 227.771 49.1172 227.776L32.8202 228.755L32.7994 228.756Z" fill="#009B7C"/>
<path d="M34.2984 225.101C34.276 225.103 34.2534 225.103 34.2309 225.101C34.1388 225.083 34.0575 225.029 34.0048 224.952C33.9521 224.874 33.9323 224.779 33.9498 224.687L36.9621 208.978C36.9682 208.929 36.9842 208.883 37.009 208.841C37.0338 208.8 37.0669 208.763 37.1062 208.735C37.1456 208.706 37.1903 208.686 37.2377 208.676C37.2852 208.665 37.3342 208.665 37.3819 208.674C37.4296 208.683 37.4748 208.702 37.5149 208.73C37.555 208.757 37.589 208.792 37.6148 208.834C37.6407 208.875 37.6578 208.921 37.6652 208.969C37.6726 209.017 37.67 209.066 37.6577 209.113L34.6454 224.82C34.6291 224.9 34.5855 224.971 34.5222 225.023C34.459 225.074 34.3798 225.102 34.2984 225.101Z" fill="#009B7C"/>
<path d="M122.468 219.091C122.392 219.091 122.319 219.066 122.258 219.021C122.197 218.976 122.153 218.913 122.13 218.841L113.776 191.529C113.755 191.441 113.768 191.348 113.813 191.269C113.857 191.19 113.931 191.132 114.017 191.105C114.104 191.079 114.198 191.087 114.279 191.127C114.36 191.167 114.423 191.237 114.454 191.322L122.808 218.633C122.822 218.678 122.827 218.724 122.822 218.771C122.818 218.817 122.804 218.862 122.783 218.903C122.761 218.944 122.731 218.98 122.695 219.01C122.66 219.039 122.618 219.062 122.574 219.075C122.54 219.086 122.504 219.092 122.468 219.091Z" fill="#009B7C"/>
<path d="M70.2275 175.169L87.0562 178.514L97.4474 158.803L83.3772 150.681L70.2275 175.169Z" fill="#E2A18D"/>
<path d="M69.2893 175.002C68.8748 177.052 73.4407 179.71 79.491 180.937C85.5412 182.164 90.7818 181.494 91.1963 179.443C91.6108 177.391 87.0466 174.736 80.9963 173.508C74.946 172.281 69.7054 172.951 69.2893 175.002Z" fill="#E2A18D"/>
<path d="M104.492 161.205C102.341 164.702 91.1127 162.463 91.1127 162.463L81.7063 154.165C80.6209 151.612 80.5939 148.733 81.6314 146.16C82.6689 143.588 84.6858 141.533 87.2385 140.447C89.7912 139.362 92.6705 139.335 95.2431 140.372C97.8156 141.41 99.8706 143.427 100.956 145.979C100.956 145.979 106.675 157.641 104.492 161.205Z" fill="#E2A18D"/>
<path d="M100.926 148.983C100.926 148.983 104.828 150.663 105.001 151.469C105.209 152.433 102.431 154.257 102.431 154.257C102.431 154.257 100.999 148.958 100.926 148.983Z" fill="#E2A18D"/>
<path d="M92.0637 152.263C92.9371 151.245 94.0251 150.433 95.2495 149.885C95.6624 149.71 96.289 153.349 95.8182 153.328C94.5044 153.248 93.2235 152.885 92.0637 152.263Z" fill="white"/>
<path d="M101.958 152.349C102.649 150.499 101.71 148.44 99.8603 147.749C98.0109 147.058 95.9517 147.998 95.2609 149.847C94.5702 151.697 95.5095 153.756 97.3589 154.446C99.2083 155.137 101.268 154.198 101.958 152.349Z" fill="#363E44"/>
<path d="M100.185 157.407C100.081 157.408 99.977 157.399 99.8747 157.38C99.54 157.32 99.2287 157.168 98.9754 156.941C98.7221 156.714 98.5367 156.421 98.4401 156.095C98.427 156.05 98.4228 156.003 98.4278 155.957C98.4328 155.911 98.4469 155.866 98.4692 155.825C98.4915 155.785 98.5216 155.749 98.5578 155.719C98.594 155.69 98.6356 155.668 98.6803 155.655C98.7249 155.642 98.7716 155.638 98.8179 155.643C98.8641 155.648 98.9089 155.662 98.9497 155.684C98.9905 155.707 99.0265 155.737 99.0557 155.773C99.0848 155.809 99.1066 155.851 99.1196 155.896C99.1766 156.1 99.291 156.284 99.4491 156.425C99.6073 156.566 99.8027 156.66 100.012 156.693C100.222 156.727 100.436 156.7 100.631 156.616C100.825 156.531 100.992 156.393 101.11 156.217C101.135 156.175 101.168 156.139 101.207 156.11C101.247 156.082 101.291 156.061 101.339 156.051C101.386 156.04 101.435 156.04 101.483 156.049C101.531 156.058 101.576 156.077 101.616 156.104C101.657 156.132 101.691 156.167 101.716 156.208C101.742 156.25 101.76 156.296 101.767 156.344C101.774 156.392 101.772 156.441 101.759 156.488C101.747 156.535 101.725 156.579 101.695 156.617C101.526 156.861 101.3 157.061 101.037 157.198C100.774 157.336 100.482 157.408 100.185 157.407Z" fill="#2F2F2E"/>
<path d="M75.5983 139.77C72.9651 135.663 65.6489 140.252 63.6439 135.523C63.2824 134.668 63.3402 133.651 62.8406 132.87C62.2124 131.894 60.9127 131.6 59.7448 131.649C58.5254 131.701 57.2353 132.091 56.4883 133.057C55.7412 134.022 55.8103 135.65 56.8578 136.27C57.449 136.623 58.18 136.591 58.8579 136.71C59.5359 136.829 60.2846 137.192 60.397 137.875C60.5577 138.863 59.3431 139.448 58.7905 140.285C57.9695 141.533 59.1391 143.507 60.6268 143.387C61.2983 143.334 61.8927 142.951 62.537 142.755C63.1812 142.559 64.0198 142.632 64.3379 143.225C64.656 143.817 64.2624 144.545 63.7403 144.955C63.2181 145.365 62.5643 145.597 62.0694 146.034C60.8051 147.159 61.173 149.526 62.6671 150.318C64.1612 151.11 66.2401 150.215 66.8088 148.621C67.1124 147.771 67.3149 146.55 68.2194 146.532C68.9118 146.523 69.3182 147.35 69.3054 148.043C69.2925 148.735 69.0435 149.434 69.1913 150.112C69.4452 151.28 70.8589 151.911 72.0253 151.648C76.1509 150.729 77.6691 143.004 75.5983 139.77Z" fill="#363E44"/>
<path d="M95.8377 142.341C97.6242 142.167 97.4025 140.709 95.9855 139.61C80.2413 127.345 70.1007 141.621 73.0439 148.979C74.6504 153.01 81.7739 158.821 81.7739 158.821L89.0645 154.255L87.1848 150.02C86.8524 149.273 86.7024 148.457 86.7471 147.639C86.7918 146.822 87.03 146.028 87.4419 145.321C87.8539 144.614 88.4278 144.015 89.1166 143.573C89.8054 143.131 90.5892 142.859 91.4036 142.78L95.8377 142.341Z" fill="#363E44"/>
<path d="M83.639 130.756C83.0992 129.13 81.8445 127.623 80.1608 127.309C78.4771 126.994 76.5268 128.327 76.6264 130.04C76.6601 130.592 76.8898 131.127 76.8561 131.68C76.8224 132.233 76.342 132.832 75.8102 132.679C74.6583 132.358 75.9163 129.964 74.7917 129.551C74.2294 129.346 73.6847 129.996 73.6671 130.594C73.6494 131.192 73.9257 131.759 73.9884 132.361C74.051 132.964 73.7635 133.691 73.1674 133.743C72.5409 133.797 72.1376 133.06 72.1071 132.432C72.0493 131.19 72.7497 130.057 73.169 128.897C73.5884 127.737 73.651 126.205 72.6582 125.463C71.8436 124.857 70.5134 125.162 70.0459 126.065C69.6957 126.74 69.8162 127.548 69.8049 128.314C69.7937 129.081 69.5463 129.955 68.841 130.224C68.0473 130.523 67.2007 129.855 66.7958 129.111C66.391 128.367 66.2014 127.49 65.6391 126.862C64.6591 125.757 62.6911 125.859 61.7271 126.978C60.7632 128.096 60.8725 129.934 61.8589 131.034C62.6798 131.95 64.0197 132.458 64.4294 133.618C64.7282 134.467 64.4165 135.394 64.2687 136.284C64.0959 137.45 64.2098 138.64 64.6006 139.751C64.9914 140.862 65.6473 141.862 66.5115 142.662C70.5745 146.358 74.7579 143.806 78.4594 141.247C80.3777 139.922 82.2943 138.415 83.2968 136.31C84.1156 134.57 84.238 132.583 83.639 130.756Z" fill="#363E44"/>
<path d="M87.5815 151.034C82.2252 151.034 78.5575 147.003 78.3968 146.825C78.3406 146.754 78.3136 146.664 78.3214 146.574C78.3291 146.484 78.371 146.4 78.4385 146.34C78.506 146.279 78.594 146.247 78.6845 146.25C78.775 146.252 78.8612 146.289 78.9254 146.353C78.9639 146.396 82.8518 150.66 88.2434 150.305C88.3371 150.299 88.4295 150.33 88.5001 150.392C88.5708 150.454 88.614 150.541 88.6201 150.635C88.6263 150.729 88.595 150.821 88.5331 150.892C88.4712 150.962 88.3837 151.006 88.29 151.012C88.049 151.028 87.8128 151.034 87.5815 151.034Z" fill="#E2A18D"/>
<path d="M89.2909 149.731C82.8294 149.731 79.1696 145.468 79.009 145.286C78.9541 145.214 78.9292 145.123 78.9392 145.033C78.9492 144.942 78.9934 144.859 79.0628 144.801C79.1322 144.742 79.2214 144.712 79.3121 144.717C79.4028 144.722 79.4881 144.762 79.5504 144.828C79.5857 144.872 83.17 149.023 89.2925 149.023C89.3006 149.023 89.307 149.023 89.3183 149.023C89.4121 149.023 89.502 149.061 89.5683 149.128C89.6345 149.194 89.6717 149.284 89.6717 149.378C89.6707 149.427 89.6599 149.474 89.6401 149.518C89.6203 149.563 89.5917 149.602 89.5562 149.635C89.5207 149.668 89.4789 149.694 89.4333 149.71C89.3878 149.727 89.3393 149.734 89.2909 149.731Z" fill="#E2A18D"/>
<path d="M89.8516 148.004C83.39 148.004 79.7207 143.739 79.5696 143.557C79.5091 143.485 79.4796 143.393 79.4876 143.299C79.4956 143.205 79.5404 143.119 79.6122 143.058C79.684 142.998 79.7769 142.968 79.8705 142.976C79.964 142.984 80.0506 143.029 80.1111 143.101C80.1464 143.143 83.7306 147.296 89.8548 147.296C89.8629 147.296 89.8741 147.296 89.8789 147.296C89.9727 147.296 90.0625 147.333 90.1289 147.4C90.1954 147.466 90.2331 147.555 90.234 147.649C90.2327 147.698 90.2218 147.746 90.2018 147.79C90.1818 147.834 90.1532 147.874 90.1176 147.907C90.0819 147.94 90.04 147.966 89.9944 147.983C89.9487 147.999 89.9002 148.007 89.8516 148.004Z" fill="#E2A18D"/>
<path d="M83.9793 159.143C86.2716 158.861 87.901 156.774 87.6188 154.482C87.3365 152.19 85.2494 150.56 82.9572 150.842C80.6649 151.125 79.0355 153.212 79.3177 155.504C79.6 157.796 81.6871 159.426 83.9793 159.143Z" fill="#E2A18D"/>
<path d="M143.952 247.988H101.088V249.675L145.369 251.001L143.952 247.988Z" fill="white"/>
<path d="M172.027 252.859H127.569L145.634 214.246H190.093L172.027 252.859Z" fill="#A2D8CB"/>
<path d="M101.088 248.983C101.09 250.015 101.501 251.004 102.231 251.733C102.962 252.462 103.952 252.872 104.984 252.872H142.18L144.002 248.976L101.088 248.983Z" fill="#A2D8CB"/>
<g clip-path="url(#clip0_6880_534491)">
<path d="M91.05 194.546C91.05 197.555 93.4912 199.996 96.5 199.996C99.5088 199.996 101.95 197.555 101.95 194.546C101.95 191.538 99.5088 189.096 96.5 189.096C93.4912 189.096 91.05 191.538 91.05 194.546Z" fill="#009B7C" stroke="white" stroke-width="0.1"/>
<path d="M96.4998 196.903C95.198 196.903 94.1427 195.848 94.1427 194.546C94.1427 193.244 95.198 192.189 96.4998 192.189C97.8016 192.189 98.8569 193.244 98.8569 194.546C98.8569 195.848 97.8016 196.903 96.4998 196.903Z" fill="#F89D26"/>
</g>
<defs>
<clipPath id="clip0_6880_534491">
<rect width="11" height="11" fill="white" transform="matrix(-1 0 0 1 102 189)"/>
</clipPath>
</defs>
</svg>
