<svg width="294" height="294" viewBox="0 0 294 294" fill="none" xmlns="http://www.w3.org/2000/svg">
<g clip-path="url(#clip0_6880_535506)">
<path d="M147 294C228.186 294 294 228.186 294 147C294 65.8141 228.186 0 147 0C65.8141 0 0 65.8141 0 147C0 228.186 65.8141 294 147 294Z" fill="#E9FAF6"/>
<path d="M26.9532 268.737H220.076L220.076 122.359L26.9532 122.359L26.9532 268.737Z" fill="#A2D8CB"/>
<path d="M214.016 250.938V128.415H33.0115V250.938H214.016Z" fill="#F3F3F3"/>
<path d="M124.477 262.629C126.412 262.094 127.546 260.09 127.011 258.155C126.475 256.22 124.472 255.086 122.536 255.622C120.601 256.158 119.467 258.161 120.003 260.096C120.539 262.031 122.542 263.165 124.477 262.629Z" fill="white"/>
<path d="M26.9531 272.705C26.9531 276.728 28.5515 280.587 31.3965 283.432C34.2416 286.277 38.1003 287.875 42.1238 287.875H244.55C246.542 287.875 248.515 287.483 250.355 286.72C252.196 285.958 253.868 284.841 255.277 283.432C256.685 282.023 257.803 280.351 258.565 278.51C259.327 276.669 259.719 274.697 259.719 272.705H26.9531Z" fill="#A2D8CB"/>
<path d="M77.7863 286.464C74.5554 286.46 71.4578 285.175 69.1734 282.89C66.8889 280.605 65.604 277.507 65.6006 274.276C65.6006 274.234 65.6175 274.193 65.6476 274.163C65.6778 274.133 65.7186 274.116 65.7612 274.116C65.8039 274.116 65.8447 274.133 65.8748 274.163C65.905 274.193 65.9219 274.234 65.9219 274.276C65.9253 277.422 67.1763 280.438 69.4006 282.663C71.6248 284.887 74.6406 286.139 77.7863 286.142C77.8289 286.142 77.8698 286.159 77.8999 286.189C77.93 286.22 77.947 286.26 77.947 286.303C77.947 286.346 77.93 286.387 77.8999 286.417C77.8698 286.447 77.8289 286.464 77.7863 286.464Z" fill="#F2E6DC"/>
<path d="M148.576 276.291C148.576 278 149.255 279.639 150.464 280.848C151.673 282.057 153.312 282.736 155.021 282.736H177.716C179.425 282.736 181.065 282.057 182.273 280.848C183.482 279.639 184.161 278 184.161 276.291H148.576Z" fill="white"/>
<path d="M159.13 244.451L147.82 233.825H77.6714V204.743H159.13V244.451Z" fill="#009B7C"/>
<path d="M99.5706 218.185C99.5706 215.181 96.1872 212.746 92.0198 212.746C87.8524 212.746 84.469 215.181 84.469 218.185C84.469 221.19 87.8524 223.627 92.0198 223.627C92.8708 223.628 93.7186 223.523 94.5437 223.315L97.5673 226.44L97.8484 221.649C98.9216 220.709 99.5706 219.501 99.5706 218.185Z" fill="white"/>
<path d="M142.574 225.163L136.71 221.909L131.341 225.163V212.746H142.574V225.163Z" fill="white"/>
<path d="M106.338 222.533C106.295 222.533 106.254 222.516 106.224 222.486C106.194 222.456 106.177 222.415 106.177 222.373V214.385C106.177 214.342 106.194 214.301 106.224 214.271C106.254 214.241 106.295 214.224 106.338 214.224C106.38 214.224 106.421 214.241 106.451 214.271C106.481 214.301 106.498 214.342 106.498 214.385V222.373C106.498 222.415 106.481 222.456 106.451 222.486C106.421 222.516 106.38 222.533 106.338 222.533Z" fill="white"/>
<path d="M110.332 218.539H102.337C102.295 218.539 102.254 218.522 102.224 218.492C102.194 218.461 102.177 218.421 102.177 218.378C102.177 218.335 102.194 218.294 102.224 218.264C102.254 218.234 102.295 218.217 102.337 218.217H110.325C110.368 218.217 110.409 218.234 110.439 218.264C110.469 218.294 110.486 218.335 110.486 218.378C110.486 218.421 110.469 218.461 110.439 218.492C110.409 218.522 110.368 218.539 110.325 218.539H110.332Z" fill="white"/>
<path d="M117.408 222.533C117.366 222.533 117.325 222.516 117.295 222.486C117.265 222.456 117.248 222.415 117.248 222.373V214.385C117.248 214.342 117.265 214.301 117.295 214.271C117.325 214.241 117.366 214.224 117.408 214.224C117.451 214.224 117.492 214.241 117.522 214.271C117.552 214.301 117.569 214.342 117.569 214.385V222.373C117.569 222.415 117.552 222.456 117.522 222.486C117.492 222.516 117.451 222.533 117.408 222.533Z" fill="white"/>
<path d="M121.403 218.539H113.423C113.38 218.539 113.34 218.522 113.309 218.492C113.279 218.461 113.262 218.421 113.262 218.378C113.262 218.335 113.279 218.294 113.309 218.264C113.34 218.234 113.38 218.217 113.423 218.217H121.411C121.454 218.217 121.494 218.234 121.525 218.264C121.555 218.294 121.572 218.335 121.572 218.378C121.572 218.421 121.555 218.461 121.525 218.492C121.494 218.522 121.454 218.539 121.411 218.539H121.403Z" fill="white"/>
<path d="M149.288 222.533C149.245 222.533 149.205 222.516 149.174 222.486C149.144 222.456 149.127 222.415 149.127 222.373V214.385C149.127 214.342 149.144 214.301 149.174 214.271C149.205 214.241 149.245 214.224 149.288 214.224C149.331 214.224 149.372 214.241 149.402 214.271C149.432 214.301 149.449 214.342 149.449 214.385V222.373C149.449 222.415 149.432 222.456 149.402 222.486C149.372 222.516 149.331 222.533 149.288 222.533Z" fill="white"/>
<path d="M153.282 218.539H145.294C145.251 218.539 145.21 218.522 145.18 218.492C145.15 218.461 145.133 218.421 145.133 218.378C145.133 218.335 145.15 218.294 145.18 218.264C145.21 218.234 145.251 218.217 145.294 218.217H153.282C153.324 218.217 153.365 218.234 153.395 218.264C153.426 218.294 153.442 218.335 153.442 218.378C153.442 218.421 153.426 218.461 153.395 218.492C153.365 218.522 153.324 218.539 153.282 218.539Z" fill="white"/>
<path d="M114.303 157.856H62.4194V160.161H114.303V157.856Z" fill="#DDDDDD"/>
<path d="M155.469 157.856H120.737V160.161H155.469V157.856Z" fill="#DDDDDD"/>
<path d="M90.29 165.305H62.4194V167.61H90.29V165.305Z" fill="#DDDDDD"/>
<path d="M152.038 165.305H96.7241V167.61H152.038V165.305Z" fill="#DDDDDD"/>
<path d="M90.29 187.654H62.4194V189.959H90.29V187.654Z" fill="#DDDDDD"/>
<path d="M152.038 187.654H96.7241V189.959H152.038V187.654Z" fill="#DDDDDD"/>
<path d="M138.318 172.755H79.5723V175.06H138.318V172.755Z" fill="#DDDDDD"/>
<path d="M110.873 180.205H79.5723V182.51H110.873V180.205Z" fill="#DDDDDD"/>
<path d="M251.334 50.5898H174.877C170.211 50.5898 166.429 54.3718 166.429 59.0371V203.007C166.429 207.672 170.211 211.454 174.877 211.454H251.334C256 211.454 259.782 207.672 259.782 203.007V59.0371C259.782 54.3718 256 50.5898 251.334 50.5898Z" fill="#F89D26"/>
<path d="M250.811 59.5439H175.403C172.864 59.5439 170.806 61.6018 170.806 64.1403V199.673C170.806 202.211 172.864 204.269 175.403 204.269H250.811C253.35 204.269 255.408 202.211 255.408 199.673V64.1403C255.408 61.6018 253.35 59.5439 250.811 59.5439Z" fill="#F3F3F3"/>
<path d="M223.964 55.5596H202.248C202.205 55.5596 202.164 55.5427 202.134 55.5125C202.104 55.4824 202.087 55.4415 202.087 55.3989C202.087 55.3563 202.104 55.3155 202.134 55.2853C202.164 55.2552 202.205 55.2383 202.248 55.2383H223.964C224.006 55.2383 224.047 55.2552 224.077 55.2853C224.107 55.3155 224.124 55.3563 224.124 55.3989C224.124 55.4415 224.107 55.4824 224.077 55.5125C224.047 55.5427 224.006 55.5596 223.964 55.5596Z" fill="#F2E6DC"/>
<path opacity="0.5" d="M272.495 179.047H185.28V155.133H193.5V141.074L206.955 155.133H272.495V179.047Z" fill="white"/>
<path d="M275.194 176.509H187.979C187.936 176.509 187.895 176.493 187.865 176.462C187.835 176.432 187.818 176.391 187.818 176.349V152.435C187.818 152.393 187.835 152.352 187.865 152.322C187.895 152.291 187.936 152.275 187.979 152.275H196.039V138.376C196.039 138.344 196.048 138.314 196.066 138.287C196.084 138.261 196.109 138.24 196.138 138.228C196.168 138.216 196.201 138.213 196.232 138.22C196.264 138.226 196.293 138.242 196.315 138.265L209.722 152.275H275.194C275.236 152.275 275.277 152.291 275.307 152.322C275.338 152.352 275.354 152.393 275.354 152.435V176.349C275.354 176.391 275.338 176.432 275.307 176.462C275.277 176.493 275.236 176.509 275.194 176.509ZM188.139 176.188H275.033V152.596H209.656C209.634 152.596 209.612 152.592 209.592 152.583C209.572 152.575 209.554 152.562 209.539 152.546L196.365 138.778V152.434C196.365 152.476 196.348 152.517 196.318 152.547C196.288 152.577 196.247 152.594 196.204 152.594H188.144L188.139 176.188Z" fill="white"/>
<path d="M198.151 167.362L202.036 166.87L199.282 164.086L200.015 160.24L196.518 161.998L193.086 160.113L193.676 163.983L190.822 166.663L194.686 167.298L196.354 170.84L198.151 167.362Z" fill="#009B7C"/>
<path d="M214.342 167.362L218.227 166.87L215.475 164.086L216.207 160.24L212.708 161.998L209.277 160.113L209.868 163.983L207.015 166.663L210.878 167.298L212.546 170.84L214.342 167.362Z" fill="#009B7C"/>
<path d="M230.534 167.362L234.417 166.87L231.665 164.086L232.398 160.24L228.9 161.998L225.469 160.113L226.058 163.983L223.205 166.663L227.069 167.298L228.736 170.84L230.534 167.362Z" fill="#009B7C"/>
<path d="M246.725 167.362L250.61 166.87L247.858 164.086L248.59 160.24L245.091 161.998L241.659 160.113L242.251 163.983L239.397 166.663L243.261 167.298L244.929 170.84L246.725 167.362Z" fill="#009B7C"/>
<path d="M262.918 167.362L266.801 166.87L264.049 164.086L264.782 160.24L261.284 161.998L257.852 160.113L258.442 163.983L255.589 166.663L259.453 167.298L261.12 170.84L262.918 167.362Z" fill="#009B7C"/>
<path d="M237.904 89.8226H188.438C185.933 89.7767 183.546 88.7494 181.791 86.9617C180.036 85.1741 179.053 82.7689 179.053 80.2636C179.053 77.7583 180.036 75.3531 181.791 73.5655C183.546 71.7778 185.933 70.7505 188.438 70.7046H237.904C240.409 70.7505 242.796 71.7778 244.551 73.5655C246.306 75.3531 247.289 77.7583 247.289 80.2636C247.289 82.7689 246.306 85.1741 244.551 86.9617C242.796 88.7494 240.409 89.7767 237.904 89.8226Z" fill="#009B7C"/>
<path d="M212.848 136.21C208.813 136.209 204.869 135.011 201.515 132.768C198.161 130.525 195.547 127.338 194.004 123.61C192.461 119.881 192.058 115.779 192.846 111.822C193.634 107.864 195.578 104.23 198.432 101.377C201.285 98.5243 204.921 96.5819 208.879 95.7953C212.836 95.0087 216.938 95.4132 220.666 96.9577C224.394 98.5022 227.58 101.117 229.821 104.472C232.063 107.828 233.259 111.772 233.259 115.807C233.251 121.217 231.098 126.403 227.272 130.228C223.445 134.053 218.258 136.204 212.848 136.21ZM212.848 95.7091C208.877 95.7107 204.995 96.8898 201.693 99.0974C198.392 101.305 195.819 104.442 194.301 108.112C192.782 111.781 192.385 115.819 193.161 119.714C193.937 123.609 195.85 127.186 198.659 129.994C201.468 132.802 205.046 134.714 208.941 135.488C212.837 136.262 216.874 135.864 220.543 134.344C224.212 132.823 227.348 130.249 229.554 126.947C231.761 123.645 232.938 119.763 232.938 115.791C232.93 110.466 230.81 105.362 227.044 101.597C223.278 97.833 218.173 95.7154 212.848 95.7091Z" fill="white"/>
<path d="M212.848 115.926C206.407 115.926 202.227 118.392 202.227 122.352C203.244 124.289 204.771 125.911 206.643 127.042C208.515 128.173 210.661 128.771 212.849 128.771C215.036 128.771 217.182 128.173 219.054 127.042C220.926 125.911 222.453 124.289 223.47 122.352C223.472 118.6 218.874 115.926 212.848 115.926Z" fill="white"/>
<path d="M212.848 112.851C215.873 112.851 218.326 110.398 218.326 107.372C218.326 104.347 215.873 101.894 212.848 101.894C209.822 101.894 207.369 104.347 207.369 107.372C207.369 110.398 209.822 112.851 212.848 112.851Z" fill="white"/>
<path d="M114.797 60.8324C113.782 54.8158 108.831 50.454 105.446 47.4739C103.487 45.75 102.626 45.1428 100.933 43.3129C98.1069 40.2604 97.7406 38.7519 95.0576 38.1237C89.719 36.8738 84.3804 41.2452 83.4808 41.9794C78.2016 46.3027 79.0226 50.7577 75.4657 51.924C71.4493 53.2398 68.5976 48.147 61.8099 45.244C54.529 42.1305 43.2028 41.7449 36.2817 47.7679C31.4862 51.9449 29.3735 58.7037 29.5599 65.3532C31.4315 62.9145 34.831 59.5793 39.723 58.9993C39.723 58.9993 32.0404 62.8743 30.3375 71.1963C31.3673 75.4489 33.3899 79.2885 36.2817 81.904C37.4754 82.982 40.5568 85.4191 55.4287 86.208C63.5177 86.6369 65.3781 85.922 98.6178 80.1223C101.633 79.597 105.791 78.8756 109.367 75.5806C113.024 72.2165 115.745 66.4602 114.797 60.8324Z" fill="#2F2F2E"/>
<path d="M81.4199 68.5278C80.503 68.5271 79.5921 68.3812 78.7208 68.0956C76.2371 67.2698 74.2225 65.5749 72.2095 63.7579C71.5106 63.1281 70.8037 62.4823 70.1209 61.8573C67.5761 59.5278 64.9446 57.1196 62.0994 55.0841C57.9786 52.1344 53.9172 50.3962 50.0293 49.9174C45.3301 49.3374 40.7499 50.6885 37.7729 53.5305C37.7581 53.547 37.7401 53.5602 37.72 53.5693C37.6999 53.5785 37.6781 53.5834 37.656 53.5838C37.6339 53.5841 37.612 53.5799 37.5916 53.5714C37.5712 53.5629 37.5528 53.5502 37.5375 53.5343C37.5222 53.5183 37.5103 53.4994 37.5027 53.4786C37.4951 53.4579 37.4918 53.4358 37.4931 53.4137C37.4944 53.3917 37.5002 53.3701 37.5102 53.3504C37.5202 53.3307 37.5342 53.3133 37.5512 53.2992C40.6037 50.3897 45.2755 49.0065 50.0679 49.6041C54.0104 50.0861 58.1216 51.8533 62.2777 54.8286C65.139 56.8754 67.7786 59.2917 70.3298 61.626C71.0126 62.2509 71.7179 62.8968 72.4183 63.5265C74.4056 65.3146 76.3913 66.9855 78.8156 67.792C81.0375 68.531 84.0948 68.4073 85.915 66.4633C85.9289 66.4462 85.9461 66.4322 85.9657 66.422C85.9852 66.4118 86.0066 66.4058 86.0286 66.4043C86.0506 66.4027 86.0726 66.4057 86.0934 66.4131C86.1141 66.4204 86.1332 66.432 86.1493 66.447C86.1654 66.462 86.1783 66.4801 86.1871 66.5003C86.1959 66.5205 86.2004 66.5423 86.2004 66.5643C86.2005 66.5864 86.196 66.6082 86.1872 66.6284C86.1785 66.6486 86.1656 66.6668 86.1496 66.6818C84.9141 68.0024 83.1437 68.5278 81.4199 68.5278Z" fill="white"/>
<path d="M77.6475 73.0042C76.4753 73.006 75.3089 72.8399 74.1838 72.511C71.3273 71.6708 68.8821 69.8441 66.5333 68.0769C66.1012 67.7556 65.6706 67.4343 65.2384 67.113C62.5716 65.1642 59.3729 63.1866 55.8304 63.3071C55.8093 63.3078 55.7883 63.3044 55.7685 63.297C55.7488 63.2896 55.7306 63.2784 55.7152 63.264C55.6997 63.2496 55.6873 63.2323 55.6785 63.2131C55.6698 63.1939 55.6649 63.1731 55.6642 63.152C55.6634 63.1309 55.6668 63.1099 55.6742 63.0901C55.6816 63.0704 55.6929 63.0522 55.7072 63.0368C55.7216 63.0213 55.7389 63.0089 55.7581 63.0001C55.7774 62.9914 55.7981 62.9865 55.8192 62.9858C59.4773 62.8604 62.8752 64.9875 65.428 66.8543C65.8618 67.1757 66.2923 67.497 66.7261 67.8183C69.0604 69.5678 71.4735 71.3768 74.2769 72.201C75.9439 72.6802 77.6935 72.8007 79.4104 72.5545C81.1273 72.3083 82.7725 71.7011 84.2376 70.7727C84.2553 70.76 84.2754 70.751 84.2967 70.7463C84.318 70.7415 84.34 70.7412 84.3615 70.7453C84.3829 70.7493 84.4033 70.7577 84.4214 70.7699C84.4394 70.7821 84.4548 70.7979 84.4666 70.8162C84.4784 70.8346 84.4864 70.8551 84.49 70.8766C84.4936 70.8982 84.4927 70.9202 84.4875 70.9414C84.4823 70.9625 84.4729 70.9825 84.4597 70.9999C84.4466 71.0173 84.43 71.0318 84.4111 71.0426C82.3894 72.3273 80.0428 73.0078 77.6475 73.0042Z" fill="white"/>
<path d="M107.158 91.699C114.9 101.245 144.938 141.597 158.312 131.615C168.204 124.235 158.357 113.722 132.691 82.585C125.366 87.546 114.482 86.7379 107.158 91.699Z" fill="#E2A18D"/>
<path d="M51.6347 84.873C41.5214 88.9216 8.66573 108.146 12.9585 120.654C15.3072 127.501 21.1262 129.14 35.0261 123.986C42.1303 121.352 59.2594 112.022 62.7441 110.883C60.4692 103.381 53.9112 92.3773 51.6347 84.873Z" fill="#E2A18D"/>
<path d="M35.7631 119.009C41.6784 127.667 56.6162 147.365 57.9979 149.346C60.5812 153.049 74.5679 171.118 70.4519 173.357C68.5096 174.413 62.4496 165.688 61.0873 163.748C62.2392 166.198 68.3907 176.178 65.7736 177.351C63.0794 178.558 56.2033 166.427 56.1021 166.358C56.6998 167.665 61.9644 176.903 59.2108 178.397C56.5584 179.843 52.4022 169.452 51.3837 168.276C51.9299 170.032 55.1591 176.352 53.4288 177.287C51.1105 178.54 47.2693 170.191 46.2395 169.241C43.9421 165.954 39.5224 161.414 34.5694 155.661C22.9331 142.15 18.3111 135.637 13.8722 128.093C12.1499 125.167 10.2638 118.935 14.5806 112.745C21.7025 114.837 28.6412 116.921 35.7631 119.009Z" fill="#E2A18D"/>
<path d="M39.788 124.83C39.7621 124.83 39.7366 124.824 39.7136 124.812C39.6907 124.8 39.671 124.782 39.6562 124.761C38.9638 123.776 37.8424 122.212 36.8528 120.832C35.9531 119.574 35.1756 118.489 34.8944 118.083C34.8701 118.048 34.8608 118.004 34.8685 117.962C34.8762 117.92 34.9002 117.883 34.9354 117.859C34.9705 117.834 35.0139 117.825 35.0559 117.833C35.0979 117.84 35.1352 117.864 35.1595 117.9C35.4374 118.304 36.215 119.389 37.1147 120.644C38.1043 122.025 39.2273 123.59 39.9197 124.578C39.9439 124.613 39.9533 124.656 39.9458 124.698C39.9383 124.74 39.9144 124.777 39.8795 124.801C39.8527 124.82 39.8207 124.83 39.788 124.83Z" fill="#2F2F2E"/>
<path d="M59.3722 158.795C59.3445 158.795 59.3172 158.788 59.293 158.774C59.2688 158.761 59.2485 158.741 59.2341 158.718C59.2122 158.681 59.2057 158.638 59.2159 158.596C59.2262 158.555 59.2523 158.52 59.2887 158.498L60.9884 157.469C61.0065 157.458 61.0267 157.451 61.0476 157.448C61.0686 157.444 61.0901 157.445 61.1107 157.45C61.1313 157.456 61.1507 157.465 61.1678 157.477C61.1848 157.49 61.1992 157.506 61.2101 157.524C61.232 157.56 61.2385 157.604 61.2283 157.645C61.218 157.687 61.1919 157.722 61.1555 157.744L59.4542 158.772C59.4294 158.787 59.4011 158.795 59.3722 158.795Z" fill="#2F2F2E"/>
<path d="M55.0599 161.409C55.0246 161.41 54.9901 161.398 54.9619 161.377C54.9336 161.356 54.9132 161.326 54.9036 161.292C54.8941 161.258 54.8961 161.222 54.9092 161.189C54.9224 161.156 54.946 161.128 54.9764 161.11L56.6777 160.084C56.714 160.062 56.7575 160.055 56.7987 160.065C56.8399 160.075 56.8756 160.101 56.8978 160.137C56.9089 160.155 56.9163 160.175 56.9195 160.196C56.9228 160.217 56.9218 160.239 56.9168 160.259C56.9117 160.28 56.9026 160.299 56.8899 160.316C56.8773 160.333 56.8614 160.348 56.8432 160.359L55.1435 161.385C55.1184 161.401 55.0895 161.409 55.0599 161.409Z" fill="#2F2F2E"/>
<path d="M50.7001 164.118C50.6724 164.118 50.6451 164.111 50.6209 164.097C50.5966 164.084 50.5763 164.064 50.5619 164.041C50.5508 164.022 50.5435 164.002 50.5402 163.981C50.537 163.96 50.5379 163.939 50.543 163.918C50.5481 163.898 50.5572 163.878 50.5698 163.861C50.5824 163.844 50.5983 163.83 50.6165 163.819L52.3163 162.792C52.3343 162.778 52.3552 162.768 52.3775 162.762C52.3998 162.757 52.423 162.756 52.4456 162.761C52.4682 162.765 52.4896 162.774 52.5083 162.787C52.5271 162.8 52.5428 162.818 52.5544 162.837C52.566 162.857 52.5732 162.879 52.5755 162.902C52.5779 162.925 52.5753 162.948 52.568 162.97C52.5606 162.992 52.5487 163.012 52.533 163.028C52.5173 163.045 52.4982 163.058 52.4769 163.067L50.7756 164.094C50.7528 164.108 50.7269 164.116 50.7001 164.118Z" fill="#2F2F2E"/>
<path d="M46.6947 166.492C46.667 166.492 46.6397 166.485 46.6155 166.472C46.5913 166.458 46.571 166.439 46.5566 166.415C46.5347 166.379 46.5282 166.335 46.5384 166.294C46.5487 166.252 46.5748 166.217 46.6112 166.195L48.3109 165.167C48.3291 165.156 48.3492 165.148 48.3702 165.145C48.3911 165.142 48.4126 165.143 48.4332 165.148C48.4538 165.153 48.4732 165.162 48.4903 165.175C48.5073 165.187 48.5218 165.203 48.5326 165.221C48.5545 165.258 48.561 165.301 48.5508 165.343C48.5406 165.384 48.5144 165.419 48.478 165.441L46.7767 166.47C46.7519 166.484 46.7236 166.492 46.6947 166.492Z" fill="#2F2F2E"/>
<path d="M46.6952 84.9098C51.5698 80.5549 57.8328 78.0731 64.3673 77.9068L118.597 76.6377C123.234 76.5289 127.828 77.5628 131.971 79.6483L137.454 82.4164L125.449 122.363H64.144L46.6952 84.9098Z" fill="#009B7C"/>
<path d="M106.455 107.736C104.798 107.732 103.17 107.294 101.735 106.465C100.3 105.637 99.1074 104.446 98.276 103.013C98.2549 102.976 98.2492 102.932 98.26 102.891C98.2708 102.85 98.2974 102.815 98.3338 102.794C98.3521 102.783 98.3722 102.776 98.3932 102.773C98.4141 102.771 98.4354 102.772 98.4559 102.777C98.4763 102.783 98.4955 102.792 98.5123 102.805C98.5292 102.818 98.5433 102.834 98.5539 102.852C99.3544 104.239 100.506 105.391 101.893 106.192C103.28 106.993 104.853 107.415 106.455 107.415C108.057 107.415 109.63 106.993 111.017 106.192C112.404 105.391 113.556 104.239 114.356 102.852C114.367 102.834 114.381 102.818 114.398 102.805C114.414 102.792 114.434 102.783 114.454 102.777C114.475 102.772 114.496 102.771 114.517 102.773C114.538 102.776 114.558 102.783 114.576 102.794C114.613 102.815 114.639 102.85 114.65 102.891C114.661 102.932 114.655 102.976 114.634 103.013C113.803 104.446 112.61 105.637 111.175 106.465C109.74 107.294 108.112 107.732 106.455 107.736Z" fill="#2F2F2E"/>
<path d="M81.8639 107.736C80.2064 107.732 78.5788 107.295 77.1433 106.466C75.7079 105.637 74.5149 104.446 73.6833 103.012C73.6641 102.976 73.6599 102.933 73.6714 102.893C73.6829 102.853 73.7094 102.82 73.7453 102.799C73.7812 102.778 73.8237 102.772 73.8639 102.782C73.9042 102.792 73.939 102.817 73.9613 102.852C74.762 104.239 75.9138 105.391 77.3008 106.192C78.6879 106.993 80.2614 107.415 81.8631 107.415C83.4648 107.415 85.0383 106.993 86.4254 106.192C87.8125 105.391 88.9643 104.239 89.765 102.852C89.7872 102.817 89.8221 102.792 89.8623 102.782C89.9026 102.772 89.9451 102.778 89.981 102.799C90.0168 102.82 90.0433 102.853 90.0549 102.893C90.0664 102.933 90.0621 102.976 90.0429 103.012C89.2115 104.446 88.0187 105.637 86.5836 106.465C85.1485 107.294 83.5212 107.732 81.8639 107.736Z" fill="#2F2F2E"/>
<path d="M191.202 93.4176C190.541 92.3749 188.906 92.1452 188.522 92.1548C189.113 91.1909 189.357 89.9828 188.522 88.802C187.781 87.7545 186.014 87.7577 185.86 87.7673C185.921 87.626 187.118 86.5865 186.298 84.8755C185.746 83.722 184.371 83.3477 183.921 83.3364C188.533 78.9489 190.141 77.1994 189.362 76.0844C187.995 74.1293 173.08 83.5116 165.5 92.1629C152.827 106.622 145.879 110.413 145.694 110.564C145.909 111.041 146.128 111.518 146.353 111.994C149.555 118.88 152.982 125.661 156.237 132.521C156.633 132.145 160.357 132.643 180.79 105.531C182.921 102.702 188.395 98.7835 190.244 97.2026C191.251 96.3544 192.063 94.7719 191.202 93.4176Z" fill="#E2A18D"/>
<path d="M173.998 101.026C173.97 101.026 173.943 101.019 173.919 101.006C173.882 100.985 173.855 100.95 173.843 100.909C173.832 100.868 173.837 100.824 173.858 100.787C175.081 98.615 175.167 96.5939 175.236 94.9697C175.306 93.3455 175.363 92.0361 176.682 91.5959C177.598 91.2907 178.512 90.4954 179.399 89.2359C179.504 89.0895 179.561 88.914 179.561 88.7338C179.561 88.5537 179.504 88.3781 179.399 88.2318C179.298 88.0795 179.152 87.9627 178.981 87.8978C178.81 87.833 178.623 87.8234 178.446 87.8703L171.194 89.6889C171.154 89.6973 171.111 89.6897 171.076 89.6675C171.041 89.6454 171.016 89.6105 171.006 89.5702C170.996 89.5299 171.002 89.4873 171.023 89.4513C171.043 89.4153 171.077 89.3888 171.117 89.3773L178.369 87.557C178.609 87.4951 178.863 87.5091 179.095 87.5972C179.327 87.6852 179.526 87.8429 179.664 88.0486C179.808 88.2482 179.885 88.4879 179.885 88.7338C179.885 88.9798 179.808 89.2195 179.664 89.419C178.737 90.7364 177.77 91.5718 176.788 91.8996C175.68 92.2691 175.635 93.3455 175.564 94.9825C175.494 96.6196 175.404 98.7049 174.144 100.943C174.13 100.969 174.109 100.991 174.083 101.005C174.057 101.02 174.028 101.027 173.998 101.026Z" fill="#2F2F2E"/>
<path d="M186.136 98.986C186.113 98.9862 186.09 98.9815 186.069 98.972C186.048 98.9626 186.029 98.9488 186.014 98.9314C185.376 98.1836 185.042 97.2228 185.081 96.2404C185.119 95.258 185.525 94.326 186.22 93.6298L185.019 94.3961C184.478 94.7434 183.825 94.8732 183.192 94.7595C182.558 94.6458 181.991 94.297 181.604 93.783C181.217 93.269 181.039 92.6277 181.105 91.9877C181.17 91.3477 181.475 90.7561 181.959 90.3315L183.084 89.3338C182.634 89.5062 182.139 89.5169 181.683 89.364C181.227 89.2112 180.838 88.9043 180.584 88.496C180.33 88.0878 180.225 87.6037 180.289 87.1269C180.352 86.6501 180.58 86.2103 180.932 85.883L182.939 84.0193C182.97 83.9904 183.012 83.975 183.054 83.9767C183.097 83.9783 183.137 83.9969 183.166 84.0282C183.195 84.0595 183.211 84.1011 183.209 84.1437C183.207 84.1863 183.189 84.2265 183.157 84.2555L181.152 86.1191C180.828 86.4215 180.63 86.836 180.6 87.2786C180.569 87.7211 180.708 88.1588 180.988 88.503C181.267 88.8472 181.668 89.0723 182.107 89.1325C182.547 89.1928 182.993 89.0839 183.355 88.8278L184.894 87.7369C184.928 87.7127 184.969 87.7023 185.01 87.708C185.051 87.7137 185.089 87.735 185.114 87.7675C185.14 87.7998 185.152 87.8407 185.148 87.8817C185.144 87.9226 185.124 87.9605 185.093 87.9875L182.166 90.5725C181.746 90.9442 181.482 91.4605 181.426 92.0183C181.37 92.5762 181.526 93.1348 181.863 93.5828C182.2 94.0308 182.694 94.3353 183.245 94.4357C183.797 94.5362 184.366 94.4251 184.839 94.1246L187.314 92.5486C187.347 92.5272 187.387 92.519 187.426 92.5255C187.466 92.5321 187.501 92.5529 187.526 92.5839C187.55 92.6149 187.562 92.6538 187.56 92.6932C187.558 92.7326 187.541 92.7698 187.513 92.7976L186.451 93.8467C185.81 94.4843 185.433 95.3405 185.396 96.244C185.359 97.1474 185.665 98.0315 186.252 98.7194C186.272 98.7427 186.284 98.7713 186.289 98.8017C186.293 98.8321 186.288 98.8631 186.275 98.891C186.263 98.9189 186.242 98.9425 186.216 98.9591C186.19 98.9756 186.16 98.9844 186.13 98.9844L186.136 98.986Z" fill="#2F2F2E"/>
<path d="M102.126 58.0638C106.741 53.4493 106.741 45.9677 102.126 41.3532C97.5118 36.7386 90.0302 36.7386 85.4156 41.3532C80.8011 45.9677 80.8011 53.4493 85.4156 58.0638C90.0302 62.6784 97.5118 62.6784 102.126 58.0638Z" fill="#2F2F2E"/>
<path d="M99.7755 59.4263H88.0171V79.6705H99.7755V59.4263Z" fill="#E2A18D"/>
<path d="M103.525 54.005C103.525 60.2995 99.1664 66.9394 93.7876 66.9394C88.4089 66.9394 84.0503 60.2995 84.0503 54.005C84.0503 47.7105 88.4105 42.6064 93.7876 42.6064C99.1648 42.6064 103.525 47.7153 103.525 54.005Z" fill="#E2A18D"/>
<path d="M93.787 67.0989C91.8334 67.0989 89.912 66.241 88.2315 64.62C88.2016 64.5899 88.1848 64.5492 88.1848 64.5068C88.1848 64.4643 88.2016 64.4236 88.2315 64.3935C88.2465 64.3784 88.2642 64.3665 88.2838 64.3583C88.3034 64.3502 88.3244 64.346 88.3456 64.346C88.3668 64.346 88.3878 64.3502 88.4074 64.3583C88.427 64.3665 88.4447 64.3784 88.4597 64.3935C90.0791 65.9567 91.9234 66.7824 93.7918 66.7824C95.8257 66.7824 97.8082 65.8185 99.516 63.9983C99.5459 63.9708 99.5852 63.9558 99.6258 63.9561C99.6664 63.9564 99.7054 63.972 99.7349 63.9999C99.7644 64.0278 99.7823 64.0659 99.7849 64.1064C99.7875 64.1469 99.7746 64.1869 99.7489 64.2184C97.9721 66.1013 95.9109 67.0989 93.787 67.0989Z" fill="#2F2F2E"/>
<path d="M85.8066 53.7818C86.687 55.7096 86.348 57.7516 85.0499 58.3428C83.7519 58.934 81.9975 57.8608 81.1091 55.933C80.2206 54.0051 80.5693 51.9631 81.8658 51.3703C83.1622 50.7775 84.9278 51.8539 85.8066 53.7818Z" fill="#E2A18D"/>
<path d="M82.8157 56.5147C82.7774 56.5147 82.7404 56.501 82.7113 56.4762C82.3867 56.1917 82.1275 55.8404 81.9514 55.4464C81.4389 54.3218 81.659 53.1185 82.4333 52.7618C82.5886 52.696 82.7555 52.6621 82.9241 52.6621C83.0928 52.6621 83.2597 52.696 83.4149 52.7618C83.4358 52.7683 83.4552 52.779 83.4718 52.7932C83.4884 52.8074 83.5019 52.8249 83.5116 52.8445C83.5212 52.8642 83.5267 52.8856 83.5278 52.9074C83.5289 52.9292 83.5255 52.9511 83.5178 52.9716C83.5101 52.992 83.4983 53.0108 83.4832 53.0265C83.468 53.0423 83.4498 53.0548 83.4297 53.0633C83.4095 53.0718 83.3878 53.0761 83.366 53.0759C83.3441 53.0757 83.3225 53.0711 83.3025 53.0622C83.1861 53.0128 83.061 52.9874 82.9346 52.9874C82.8082 52.9874 82.683 53.0128 82.5667 53.0622C81.9449 53.345 81.7971 54.3587 82.2357 55.321C82.3921 55.6726 82.6229 55.9862 82.9121 56.24C82.9371 56.2613 82.9549 56.2898 82.9632 56.3216C82.9714 56.3534 82.9698 56.387 82.9584 56.4178C82.947 56.4486 82.9265 56.4751 82.8995 56.4939C82.8726 56.5127 82.8405 56.5228 82.8077 56.5228L82.8157 56.5147Z" fill="#2F2F2E"/>
<path d="M84.7058 58.2862C84.6706 58.2879 84.6358 58.278 84.6067 58.258C84.5777 58.238 84.5561 58.2089 84.5452 58.1754C84.1017 56.8275 83.8777 55.4172 83.8817 53.9983C83.8794 53.2867 83.9331 52.576 84.0423 51.8728C84.0491 51.8302 84.0726 51.7921 84.1075 51.7668C84.1425 51.7415 84.1861 51.7311 84.2287 51.7379C84.2713 51.7447 84.3094 51.7682 84.3347 51.8031C84.3601 51.8381 84.3704 51.8816 84.3636 51.9243C84.2552 52.6103 84.2015 53.3038 84.203 53.9983C84.1984 55.3804 84.4154 56.7543 84.8456 58.0677C84.8588 58.108 84.8556 58.1519 84.8367 58.1898C84.8177 58.2277 84.7845 58.2566 84.7444 58.2702C84.7324 58.2773 84.7194 58.2827 84.7058 58.2862Z" fill="#2F2F2E"/>
<path d="M106.369 55.9367C107.249 54.0091 106.911 51.9666 105.613 51.3747C104.316 50.7827 102.552 51.8654 101.672 53.793C100.792 55.7206 101.131 57.7631 102.428 58.3551C103.725 58.947 105.49 57.8643 106.369 55.9367Z" fill="#E2A18D"/>
<path d="M104.658 56.5159C104.634 56.5159 104.611 56.5108 104.59 56.5011C104.569 56.4914 104.551 56.4773 104.535 56.4596C104.522 56.4436 104.511 56.425 104.505 56.4049C104.498 56.3849 104.496 56.3637 104.497 56.3427C104.499 56.3217 104.505 56.3012 104.514 56.2824C104.524 56.2636 104.537 56.2468 104.553 56.2331C104.842 55.9796 105.073 55.666 105.228 55.3141C105.441 54.8754 105.519 54.3837 105.454 53.9004C105.385 53.4875 105.188 53.1871 104.899 53.0553C104.782 53.006 104.657 52.9805 104.53 52.9805C104.403 52.9805 104.278 53.006 104.161 53.0553C104.122 53.0675 104.08 53.0642 104.043 53.0461C104.006 53.0281 103.977 52.9966 103.963 52.9582C103.949 52.9198 103.95 52.8773 103.965 52.8395C103.981 52.8017 104.011 52.7715 104.049 52.7549C104.204 52.6892 104.371 52.6553 104.54 52.6553C104.709 52.6553 104.876 52.6892 105.032 52.7549C105.422 52.9316 105.684 53.3172 105.771 53.8393C105.847 54.3878 105.76 54.9467 105.52 55.4459C105.345 55.8398 105.086 56.1911 104.762 56.4757C104.733 56.5012 104.696 56.5154 104.658 56.5159Z" fill="#2F2F2E"/>
<path d="M102.765 58.2861C102.748 58.2861 102.731 58.2828 102.715 58.2765C102.674 58.2633 102.641 58.2345 102.622 58.1966C102.602 58.1586 102.599 58.1145 102.612 58.0741C103.043 56.7608 103.26 55.3868 103.255 54.0047C103.256 53.3102 103.202 52.6167 103.094 51.9306C103.091 51.9095 103.092 51.8879 103.096 51.8672C103.101 51.8464 103.11 51.8268 103.123 51.8095C103.136 51.7922 103.151 51.7775 103.17 51.7663C103.188 51.7551 103.208 51.7476 103.229 51.7442C103.25 51.7409 103.272 51.7417 103.292 51.7466C103.313 51.7516 103.333 51.7606 103.35 51.7731C103.367 51.7856 103.382 51.8015 103.393 51.8197C103.405 51.8379 103.412 51.8581 103.415 51.8792C103.524 52.5824 103.578 53.2931 103.576 54.0047C103.58 55.4236 103.356 56.8339 102.913 58.1817C102.901 58.2119 102.881 58.2381 102.855 58.2567C102.828 58.2753 102.797 58.2856 102.765 58.2861Z" fill="#2F2F2E"/>
<path d="M93.9836 59.5759C93.9491 59.5755 93.9157 59.5639 93.8882 59.543C93.8608 59.5221 93.8408 59.4929 93.8312 59.4597C93.8217 59.4266 93.8231 59.3912 93.8352 59.3589C93.8473 59.3266 93.8695 59.299 93.8985 59.2803C94.17 59.1332 94.3735 58.8859 94.4656 58.5911C94.5282 58.3244 94.4318 58.1091 94.3049 57.7974C94.1702 57.5158 94.0693 57.2192 94.0045 56.9138C93.9138 56.4254 93.9313 55.9231 94.0559 55.4422C94.0674 55.4023 94.094 55.3685 94.1299 55.3477C94.1659 55.3269 94.2085 55.3209 94.2488 55.3309C94.2891 55.3408 94.324 55.3661 94.3462 55.4012C94.3683 55.4363 94.376 55.4787 94.3676 55.5193C94.2545 55.955 94.2381 56.4101 94.3194 56.8528C94.3805 57.1348 94.4743 57.4087 94.5989 57.6689C94.7467 58.0047 94.8736 58.2939 94.7853 58.6666C94.6757 59.0439 94.4209 59.3622 94.0768 59.5518C94.0489 59.5692 94.0164 59.5776 93.9836 59.5759Z" fill="#2F2F2E"/>
<path d="M92.6675 61.7124C92.475 61.7159 92.2845 61.6729 92.1122 61.5871C91.9399 61.5012 91.7909 61.375 91.6778 61.2191C91.5503 61.0236 91.4808 60.7959 91.4774 60.5624C91.474 60.329 91.5368 60.0994 91.6586 59.9002C91.6808 59.8652 91.7157 59.8402 91.7559 59.8303C91.7962 59.8204 91.8387 59.8265 91.8745 59.8473C91.9104 59.868 91.9369 59.9018 91.9484 59.9416C91.96 59.9814 91.9557 60.0241 91.9365 60.0608C91.8446 60.2065 91.7958 60.3753 91.7958 60.5476C91.7958 60.7199 91.8446 60.8887 91.9365 61.0344C92.0796 61.2166 92.2847 61.3399 92.5128 61.3808C92.7409 61.4217 92.976 61.3773 93.1735 61.2561C93.2106 61.2348 93.2546 61.2291 93.2959 61.2402C93.3372 61.2514 93.3723 61.2785 93.3936 61.3155C93.4149 61.3526 93.4206 61.3966 93.4095 61.4379C93.3984 61.4792 93.3713 61.5143 93.3342 61.5356C93.1308 61.6508 92.9012 61.7117 92.6675 61.7124Z" fill="#2F2F2E"/>
<path d="M109.355 78.6227C109.355 78.6227 102.337 85.9309 93.689 85.9309C85.0409 85.9309 78.0234 78.6227 78.0234 78.6227C78.0234 78.6227 85.0377 76.1084 93.689 76.1084C102.34 76.1084 109.355 78.6227 109.355 78.6227Z" fill="#E2A18D"/>
<path d="M100.792 52.3735H100.766C100.754 52.4266 100.718 52.494 100.662 52.4924C100.606 52.584 100.558 52.6808 100.521 52.7816C100.44 52.9326 100.211 52.7993 100.291 52.6483C100.346 52.547 99.9856 52.7414 99.8266 52.8089C99.3232 53.0017 98.8129 53.1747 98.2955 53.3278C98.0546 53.4001 97.8136 53.474 97.5694 53.5383C97.375 53.5897 96.7292 53.7937 96.6793 53.7632C96.2943 54.1114 95.9519 54.504 95.6592 54.9328C96.3481 55.2111 97.0781 55.3739 97.82 55.4147L97.8296 55.3649C97.8586 55.2043 100.667 54.5392 100.742 54.6645C101.48 54.1834 102.117 53.5629 102.617 52.8378C102.034 52.5982 101.419 52.4419 100.792 52.3735Z" fill="white"/>
<path d="M98.7342 52.5345C97.9675 52.7823 97.2656 53.1977 96.6794 53.7507C96.7442 54.296 97.0114 54.7971 97.4281 55.1548C97.538 55.2485 97.6563 55.3318 97.7815 55.4038C98.3771 55.4455 98.9753 55.3819 99.5487 55.2158C99.9668 55.0879 100.365 54.903 100.733 54.6664C100.95 54.3241 101.069 53.9288 101.076 53.5236C101.083 53.1184 100.979 52.7189 100.775 52.369C100.09 52.2895 99.3968 52.3457 98.7342 52.5345Z" fill="#2F2F2E"/>
<path d="M87.0211 52.5552H87.0468C87.0597 52.6082 87.095 52.6741 87.1496 52.6725C87.2072 52.7642 87.2551 52.8616 87.2926 52.9632C87.3729 53.1143 87.6011 52.9793 87.5207 52.8283C87.4677 52.7271 87.8276 52.9215 87.985 52.9889C88.4895 53.1833 89.0004 53.3536 89.5177 53.5095C89.7587 53.5818 89.9997 53.6557 90.2422 53.7199C90.4382 53.7697 91.0825 53.9738 91.1339 53.9432C91.5188 54.2922 91.8612 54.6853 92.154 55.1144C91.465 55.3923 90.735 55.5551 89.9932 55.5964C89.9932 55.5803 89.9932 55.5643 89.9836 55.5482C89.9547 55.3875 87.1448 54.7224 87.0693 54.8461C86.3314 54.3644 85.695 53.7427 85.196 53.0163C85.7798 52.7778 86.3941 52.6225 87.0211 52.5552Z" fill="white"/>
<path d="M89.079 52.7173C89.8455 52.9647 90.547 53.3802 91.1322 53.9335C91.0681 54.4791 90.8015 54.9807 90.3852 55.3392C90.2754 55.4333 90.1564 55.5162 90.0301 55.5866C89.4373 55.6287 88.8418 55.5656 88.271 55.4003C87.8537 55.271 87.4559 55.0856 87.0885 54.8492C86.8708 54.5075 86.7516 54.1123 86.7443 53.7072C86.7369 53.3021 86.8416 52.9028 87.0468 52.5534C87.7284 52.4736 88.419 52.5293 89.079 52.7173Z" fill="#2F2F2E"/>
<path d="M84.0503 47.5444C84.0503 47.5444 85.2616 43.5376 89.9753 46.3571C94.6889 49.1766 107.705 50.8105 109.36 40.8659C111.015 30.9213 102.825 31.2732 99.7753 34.761C96.726 38.2488 95.4135 42.8693 89.9753 42.5978C84.5371 42.3263 84.0503 47.5444 84.0503 47.5444Z" fill="#2F2F2E"/>
<path d="M99.9564 48.6126C97.7747 48.6126 95.3937 48.092 92.8441 47.0558C92.8234 47.0488 92.8042 47.0377 92.7879 47.023C92.7716 47.0084 92.7585 46.9905 92.7493 46.9706C92.7401 46.9507 92.7352 46.9291 92.7347 46.9072C92.7342 46.8852 92.7382 46.8635 92.7464 46.8431C92.7546 46.8228 92.7669 46.8044 92.7826 46.789C92.7982 46.7736 92.8168 46.7616 92.8372 46.7537C92.8577 46.7458 92.8795 46.7421 92.9014 46.743C92.9234 46.7438 92.9449 46.7491 92.9646 46.7586C96.6597 48.2575 99.9756 48.6591 102.835 47.9522C105.82 47.2132 108.964 44.6974 109.194 41.3188C109.196 41.2977 109.201 41.277 109.211 41.2581C109.22 41.2391 109.233 41.2222 109.249 41.2083C109.265 41.1945 109.284 41.1839 109.304 41.1772C109.324 41.1705 109.345 41.1678 109.366 41.1694C109.387 41.1708 109.408 41.1764 109.427 41.1858C109.446 41.1952 109.463 41.2083 109.476 41.2243C109.49 41.2402 109.501 41.2588 109.508 41.2789C109.514 41.299 109.517 41.3202 109.515 41.3413C109.274 44.8757 106.01 47.4976 102.912 48.2639C101.945 48.5 100.952 48.6171 99.9564 48.6126Z" fill="white"/>
<path d="M187.646 27.5353C187.618 27.5352 187.591 27.528 187.567 27.5142C187.543 27.5004 187.522 27.4805 187.508 27.4565C187.486 27.4199 187.48 27.3761 187.491 27.3348C187.501 27.2936 187.528 27.2582 187.564 27.2364C190.816 25.3086 192.209 21.4528 190.877 18.0598C189.592 14.784 186.057 12.877 182.481 13.5229C182.439 13.5305 182.395 13.521 182.359 13.4962C182.324 13.4715 182.299 13.4337 182.292 13.3911C182.284 13.3485 182.294 13.3046 182.318 13.269C182.343 13.2335 182.381 13.2092 182.423 13.2015C186.154 12.5268 189.836 14.5173 191.176 17.9361C192.566 21.4801 191.115 25.5046 187.728 27.5063C187.704 27.5238 187.676 27.5338 187.646 27.5353Z" fill="#2F2F2E"/>
<path d="M140.099 29.2872L145.997 44.3294L191.014 39.5547L176.369 2.1958L140.099 29.2872Z" fill="#009B7C"/>
<path d="M140.107 29.2934L130.078 33.2256L135.96 48.2274L145.989 44.2952L140.107 29.2934Z" fill="#E9FAF6"/>
<path d="M142.502 40.1949L135.369 42.9917L136.405 45.6346L143.538 42.8378L142.502 40.1949Z" fill="#009B7C"/>
<path d="M140.899 36.1129L133.766 38.9097L134.802 41.5526L141.935 38.7557L140.899 36.1129Z" fill="#009B7C"/>
<path d="M139.299 32.0313L132.166 34.8281L133.202 37.471L140.335 34.6742L139.299 32.0313Z" fill="#009B7C"/>
<path d="M188.449 10.1116C188.418 10.1116 188.388 10.1026 188.362 10.0859C188.326 10.0629 188.301 10.0266 188.292 9.98504C188.283 9.94348 188.291 9.90003 188.314 9.86423L193.134 2.43872C193.147 2.41805 193.165 2.40072 193.186 2.38807C193.207 2.37542 193.231 2.36779 193.255 2.36577C193.28 2.36376 193.305 2.3674 193.327 2.37643C193.35 2.38545 193.371 2.39962 193.387 2.41783L198.207 7.65521L206.211 0.29718C206.242 0.268207 206.284 0.252859 206.327 0.254516C206.369 0.256173 206.409 0.274698 206.438 0.306015C206.467 0.337333 206.483 0.378879 206.481 0.421511C206.479 0.464143 206.461 0.504371 206.43 0.533345L198.307 8.00062C198.291 8.01484 198.273 8.02585 198.253 8.03301C198.233 8.04018 198.212 8.04337 198.191 8.04239C198.17 8.04168 198.149 8.03676 198.13 8.02794C198.11 8.01911 198.093 8.00655 198.079 7.99098L193.296 2.78734L188.582 10.0393C188.568 10.0614 188.548 10.0796 188.525 10.0922C188.501 10.1048 188.475 10.1115 188.449 10.1116Z" fill="#A2D8CB"/>
<path d="M199.199 30.9855C199.176 30.9858 199.153 30.981 199.132 30.9716C199.111 30.9621 199.092 30.9482 199.077 30.9308C199.061 30.9134 199.05 30.893 199.043 30.8708C199.037 30.8486 199.035 30.8253 199.038 30.8024L199.726 25.6518L192.89 24.9111C192.847 24.9065 192.808 24.885 192.782 24.8516C192.755 24.8182 192.742 24.7754 192.747 24.7328C192.752 24.6902 192.773 24.6512 192.807 24.6244C192.84 24.5976 192.883 24.5851 192.925 24.5898L199.924 25.3481C199.945 25.3505 199.966 25.3571 199.984 25.3676C200.003 25.3781 200.02 25.3922 200.033 25.4092C200.046 25.4259 200.055 25.445 200.061 25.4654C200.066 25.4858 200.068 25.5071 200.065 25.5281L199.382 30.6562L209.041 30.3783C209.083 30.3783 209.124 30.3952 209.154 30.4253C209.184 30.4554 209.201 30.4963 209.201 30.5389C209.201 30.5815 209.184 30.6224 209.154 30.6525C209.124 30.6827 209.083 30.6996 209.041 30.6996L199.194 30.9823L199.199 30.9855Z" fill="#A2D8CB"/>
<path d="M204.676 19.5336C204.655 19.5339 204.635 19.5301 204.616 19.5224C204.595 19.514 204.576 19.5011 204.56 19.4848C204.545 19.4685 204.532 19.449 204.525 19.4276L202.637 14.2866L197.745 16.0313C197.725 16.04 197.703 16.0445 197.681 16.0445C197.659 16.0444 197.637 16.0399 197.617 16.0311C197.597 16.0223 197.579 16.0095 197.564 15.9935C197.549 15.9774 197.537 15.9584 197.53 15.9377C197.523 15.917 197.52 15.895 197.521 15.8731C197.523 15.8512 197.529 15.8298 197.539 15.8103C197.549 15.7907 197.563 15.7735 197.58 15.7595C197.597 15.7456 197.616 15.7353 197.637 15.7293L202.679 13.9299C202.719 13.916 202.762 13.9183 202.801 13.9363C202.839 13.9543 202.868 13.9867 202.883 14.0263L204.766 19.1513L212.596 15.3357C212.634 15.3169 212.679 15.3142 212.719 15.3281C212.759 15.3419 212.793 15.3712 212.811 15.4096C212.83 15.4479 212.833 15.4922 212.819 15.5325C212.805 15.5729 212.776 15.6061 212.737 15.6249L204.746 19.5176C204.724 19.5282 204.7 19.5337 204.676 19.5336Z" fill="#A2D8CB"/>
<path d="M255.743 250.745L236.275 256.419L253.213 228.268L255.743 250.745Z" fill="white"/>
<path d="M268.967 250.848C276.395 243.42 276.395 231.378 268.967 223.95C261.54 216.522 249.497 216.522 242.069 223.95C234.641 231.378 234.641 243.42 242.069 250.848C249.497 258.276 261.54 258.276 268.967 250.848Z" fill="white"/>
<path d="M255.518 256.58C252.883 256.585 250.275 256.044 247.86 254.99C247.823 254.971 247.795 254.939 247.781 254.901C247.767 254.862 247.768 254.819 247.784 254.782C247.801 254.744 247.831 254.714 247.869 254.698C247.907 254.682 247.95 254.681 247.988 254.695C251.719 256.318 255.875 256.691 259.836 255.758C263.796 254.825 267.349 252.637 269.964 249.52C272.579 246.403 274.117 242.524 274.347 238.462C274.577 234.4 273.488 230.372 271.241 226.979C271.23 226.962 271.222 226.942 271.217 226.921C271.213 226.9 271.213 226.879 271.218 226.858C271.222 226.837 271.23 226.818 271.242 226.8C271.254 226.783 271.269 226.768 271.286 226.756C271.322 226.733 271.365 226.724 271.407 226.733C271.448 226.741 271.485 226.766 271.508 226.801C273.423 229.691 274.519 233.047 274.679 236.511C274.839 239.974 274.057 243.417 272.417 246.471C270.777 249.526 268.339 252.079 265.364 253.859C262.388 255.639 258.985 256.58 255.518 256.58Z" fill="#D3BBA3"/>
<path d="M245.04 233.863C245.363 232.823 245.954 231.887 246.754 231.148C247.554 230.409 248.535 229.894 249.597 229.655C250.659 229.415 251.766 229.46 252.805 229.784C253.845 230.108 254.781 230.701 255.518 231.502C256.097 230.871 256.801 230.368 257.584 230.024C258.368 229.68 259.214 229.503 260.07 229.503C260.885 229.502 261.692 229.662 262.445 229.974C263.198 230.286 263.883 230.743 264.459 231.319C265.035 231.895 265.493 232.579 265.804 233.332C266.116 234.085 266.276 234.892 266.276 235.708C266.276 239.134 262.223 244.952 255.512 247.484C248.808 244.952 244.748 239.13 244.748 235.708C244.752 235.082 244.851 234.46 245.04 233.863Z" fill="#009B7C"/>
<g clip-path="url(#clip1_6880_535506)">
<path d="M111.05 93.5293C111.05 95.4339 112.595 96.9793 114.5 96.9793C116.405 96.9793 117.95 95.4339 117.95 93.5293C117.95 91.6247 116.405 90.0793 114.5 90.0793C112.595 90.0793 111.05 91.6247 111.05 93.5293Z" fill="#009B7C" stroke="white" stroke-width="0.1"/>
<path d="M114.5 95.0293C113.672 95.0293 113 94.3577 113 93.5293C113 92.7009 113.672 92.0293 114.5 92.0293C115.328 92.0293 116 92.7009 116 93.5293C116 94.3577 115.328 95.0293 114.5 95.0293Z" fill="#F89D26"/>
</g>
</g>
<defs>
<clipPath id="clip0_6880_535506">
<rect width="294" height="294" fill="white"/>
</clipPath>
<clipPath id="clip1_6880_535506">
<rect width="7" height="7" fill="white" transform="matrix(-1 0 0 1 118 90)"/>
</clipPath>
</defs>
</svg>
