<svg width="294" height="294" viewBox="0 0 294 294" fill="none" xmlns="http://www.w3.org/2000/svg">
<path d="M147 294C228.186 294 294 228.186 294 147C294 65.8141 228.186 0 147 0C65.8141 0 0 65.8141 0 147C0 228.186 65.8141 294 147 294Z" fill="#E8F5F2"/>
<path d="M11.3064 93.3799C16.1001 95.874 38.1364 96.7124 38.1364 96.7124C38.1364 96.7124 25.7566 79.6401 20.963 77.1439C18.6637 75.9858 15.9691 75.7208 13.4624 76.4062C10.9557 77.0916 8.83839 78.6723 7.56857 80.8063C6.29875 82.9403 5.97855 85.456 6.67724 87.8091C7.37593 90.1622 9.03733 92.1635 11.302 93.3799H11.3064Z" fill="#A2D8CB"/>
<path d="M55.9592 106.444C55.8757 106.444 55.7936 106.424 55.7199 106.388L16.016 85.7257C15.9053 85.6643 15.8246 85.5649 15.791 85.4487C15.7575 85.3324 15.7737 85.2086 15.8364 85.1034C15.899 84.9982 16.0031 84.9201 16.1264 84.8856C16.2497 84.8511 16.3826 84.863 16.4967 84.9187L56.2029 105.581C56.3168 105.64 56.4007 105.74 56.4364 105.857C56.472 105.975 56.4564 106.101 56.3929 106.208C56.3503 106.28 56.2875 106.34 56.2111 106.382C56.1347 106.424 56.0476 106.445 55.9592 106.444Z" fill="#F7F1EB"/>
<path d="M37.2428 6.81122C40.7553 13.0393 41.321 41.3718 41.321 41.3718C41.321 41.3718 16.6239 24.956 13.1047 18.7238C12.2679 17.2412 11.7516 15.619 11.5853 13.9499C11.4189 12.2808 11.6058 10.5973 12.1352 8.9957C12.6646 7.39409 13.5262 5.90566 14.6708 4.61541C15.8154 3.32515 17.2206 2.25834 18.8061 1.47588C20.3916 0.693416 22.1264 0.210623 23.9115 0.0550731C25.6966 -0.100477 27.4969 0.0742637 29.2097 0.569308C30.9226 1.06435 32.5143 1.87001 33.8942 2.94028C35.274 4.01055 36.4149 5.32448 37.2517 6.80705L37.2428 6.81122Z" fill="#A2D8CB"/>
<path d="M86.4695 121.812C86.378 121.814 86.2877 121.792 86.2087 121.749C86.1297 121.706 86.0652 121.643 86.0224 121.567L23.8036 11.3334C23.7682 11.2795 23.745 11.2194 23.7354 11.1569C23.7259 11.0943 23.7301 11.0306 23.748 10.9696C23.7658 10.9086 23.7968 10.8517 23.8391 10.8024C23.8814 10.7531 23.934 10.7124 23.9938 10.6829C24.0536 10.6534 24.1192 10.6356 24.1866 10.6308C24.254 10.6259 24.3217 10.634 24.3856 10.6546C24.4496 10.6752 24.5083 10.7079 24.5581 10.7505C24.608 10.7932 24.648 10.845 24.6756 10.9027L86.9055 121.137C86.9366 121.19 86.956 121.249 86.9625 121.31C86.9689 121.371 86.9624 121.432 86.9433 121.491C86.9241 121.549 86.8927 121.603 86.8509 121.65C86.8091 121.697 86.7578 121.736 86.6998 121.764C86.6282 121.797 86.5493 121.813 86.4695 121.812Z" fill="#F7F1EB"/>
<path d="M16.6055 40.4519C22.0744 43.2158 36.3479 62.3934 36.3479 62.3934C36.3479 62.3934 11.3692 61.7306 5.90258 58.9668C3.27686 57.6396 1.3225 55.3915 0.469438 52.717C0.0470431 51.3927 -0.0922626 50.0036 0.0594721 48.6289C0.211207 47.2543 0.651004 45.9211 1.35377 44.7054C2.05653 43.4897 3.0085 42.4153 4.1553 41.5436C5.30211 40.6719 6.6213 40.02 8.03755 39.625C10.8978 38.8273 13.9798 39.1248 16.6055 40.4519Z" fill="#A2D8CB"/>
<path d="M59.8918 74.7444C59.8098 74.7438 59.7292 74.7244 59.657 74.688L10.5269 49.8531C10.4699 49.8244 10.4195 49.7855 10.3787 49.7386C10.3378 49.6917 10.3072 49.6378 10.2886 49.5798C10.27 49.5219 10.2638 49.4611 10.2704 49.4009C10.2769 49.3407 10.2961 49.2823 10.3267 49.229C10.3574 49.1758 10.399 49.1287 10.4492 49.0904C10.4993 49.0522 10.557 49.0236 10.619 49.0062C10.681 48.9889 10.746 48.9831 10.8104 48.9892C10.8747 48.9953 10.9372 49.0132 10.9941 49.0419L60.1266 73.8747C60.2221 73.9233 60.2977 74.0001 60.3418 74.093C60.3859 74.1859 60.396 74.2898 60.3706 74.3887C60.3451 74.4875 60.2855 74.5757 60.201 74.6397C60.1164 74.7036 60.0117 74.7397 59.903 74.7423L59.8918 74.7444Z" fill="#F7F1EB"/>
<path d="M68.4404 46.7129C67.7406 52.9849 77.3837 76.6803 77.3837 76.6803C77.3837 76.6803 92.0374 55.3556 92.7372 49.0837C93.0728 46.0718 92.1152 43.0585 90.0748 40.7069C88.0345 38.3552 85.0787 36.8578 81.8576 36.5439C78.6366 36.2301 75.4141 37.1256 72.8991 39.0334C70.3842 40.9413 68.7827 43.7052 68.4471 46.7171L68.4404 46.7129Z" fill="#A2D8CB"/>
<path d="M74.7782 100.454H74.7267C74.5957 100.443 74.475 100.383 74.3911 100.288C74.3072 100.193 74.2671 100.071 74.2796 99.9485L80.0704 48.0041C80.0771 47.9439 80.0965 47.8857 80.1273 47.8325C80.1582 47.7794 80.1999 47.7325 80.2502 47.6944C80.3004 47.6564 80.3582 47.6279 80.4202 47.6108C80.4822 47.5936 80.5472 47.588 80.6115 47.5943C80.6758 47.6006 80.7381 47.6187 80.7949 47.6476C80.8517 47.6764 80.9019 47.7154 80.9426 47.7624C80.9833 47.8094 81.0137 47.8634 81.0321 47.9214C81.0504 47.9793 81.0564 48.0401 81.0497 48.1003L75.2678 100.04C75.2556 100.154 75.1987 100.259 75.1083 100.336C75.0178 100.412 74.9001 100.454 74.7782 100.454Z" fill="#F7F1EB"/>
<path d="M29.5343 221.07L262.321 221.07V55.9146L29.5343 55.9146L29.5343 221.07Z" fill="#009B7C"/>
<path d="M255.018 199.605V63.2212L36.8375 63.2212V199.605H255.018Z" fill="#D2F3EB"/>
<path d="M150.326 209.499C150.33 207.077 148.372 205.111 145.951 205.106C143.531 205.101 141.565 207.061 141.56 209.482C141.556 211.903 143.514 213.87 145.934 213.875C148.355 213.879 150.321 211.92 150.326 209.499Z" fill="white"/>
<path d="M121.425 224.569H128.317C128.317 227.052 129.303 229.434 131.058 231.19C132.813 232.946 135.194 233.933 137.677 233.934H154.181C155.411 233.934 156.628 233.691 157.764 233.221C158.9 232.75 159.932 232.06 160.801 231.19C161.67 230.321 162.36 229.288 162.83 228.152C163.3 227.016 163.542 225.799 163.541 224.569H170.433L177.325 261.213V264.277H114.533V261.213L121.425 224.569Z" fill="#009B7C"/>
<path d="M177.325 268.462H114.533C114.443 268.456 114.359 268.416 114.297 268.35C114.236 268.284 114.202 268.198 114.202 268.108C114.202 268.018 114.236 267.931 114.297 267.865C114.359 267.799 114.443 267.759 114.533 267.753H177.325C177.415 267.759 177.499 267.799 177.561 267.865C177.622 267.931 177.656 268.018 177.656 268.108C177.656 268.198 177.622 268.284 177.561 268.35C177.499 268.416 177.415 268.456 177.325 268.462Z" fill="#009B7C"/>
<path d="M135.841 183.732H240.454L240.454 42.7779H135.841V183.732Z" fill="white"/>
<path d="M236.127 180.596H131.514C131.42 180.596 131.33 180.558 131.264 180.492C131.198 180.425 131.161 180.335 131.161 180.241V39.2867C131.161 39.1928 131.198 39.1027 131.264 39.0362C131.33 38.9697 131.42 38.9321 131.514 38.9316H236.127C236.221 38.9316 236.311 38.969 236.378 39.0356C236.444 39.1022 236.482 39.1925 236.482 39.2867V180.241C236.482 180.335 236.444 180.426 236.378 180.492C236.311 180.559 236.221 180.596 236.127 180.596ZM131.869 179.888H235.773V39.6353H131.869V179.888Z" fill="#179D7D"/>
<path d="M228.732 64.9989H166.306C166.267 65.0035 166.228 64.994 166.191 64.971C166.154 64.948 166.12 64.912 166.091 64.8652C166.062 64.8185 166.039 64.7619 166.024 64.6991C166.008 64.6362 166 64.5685 166 64.5C166 64.4315 166.008 64.3637 166.024 64.3009C166.039 64.2381 166.062 64.1815 166.091 64.1348C166.12 64.088 166.154 64.052 166.191 64.029C166.228 64.006 166.267 63.9965 166.306 64.0011H228.732C228.805 64.0097 228.873 64.0659 228.923 64.1585C228.972 64.2512 229 64.3732 229 64.5C229 64.6268 228.972 64.7488 228.923 64.8415C228.873 64.9341 228.805 64.9903 228.732 64.9989Z" fill="#179D7D"/>
<path d="M228.732 59.9989H166.306C166.267 60.0035 166.228 59.994 166.191 59.971C166.154 59.948 166.12 59.912 166.091 59.8652C166.062 59.8185 166.039 59.7619 166.024 59.6991C166.008 59.6362 166 59.5685 166 59.5C166 59.4315 166.008 59.3637 166.024 59.3009C166.039 59.2381 166.062 59.1815 166.091 59.1348C166.12 59.088 166.154 59.052 166.191 59.029C166.228 59.006 166.267 58.9965 166.306 59.0011H228.732C228.805 59.0097 228.873 59.0659 228.923 59.1585C228.972 59.2512 229 59.3732 229 59.5C229 59.6268 228.972 59.7488 228.923 59.8415C228.873 59.9341 228.805 59.9903 228.732 59.9989Z" fill="#179D7D"/>
<path d="M228.732 70.9989H166.306C166.267 71.0035 166.228 70.994 166.191 70.971C166.154 70.948 166.12 70.912 166.091 70.8652C166.062 70.8185 166.039 70.7619 166.024 70.6991C166.008 70.6363 166 70.5685 166 70.5C166 70.4315 166.008 70.3637 166.024 70.3009C166.039 70.2381 166.062 70.1815 166.091 70.1348C166.12 70.088 166.154 70.052 166.191 70.029C166.228 70.006 166.267 69.9965 166.306 70.0011H228.732C228.805 70.0097 228.873 70.0659 228.923 70.1585C228.972 70.2512 229 70.3732 229 70.5C229 70.6268 228.972 70.7488 228.923 70.8415C228.873 70.9341 228.805 70.9903 228.732 70.9989V70.9989Z" fill="#179D7D"/>
<path d="M204.581 80.6655H146.144V104.173H204.581V80.6655Z" fill="#FDEEDB"/>
<path d="M205.286 128.412H146.252V134.458H205.286V128.412Z" fill="#FDEEDB"/>
<path d="M205.286 137.306H146.252V143.352H205.286V137.306Z" fill="#FDEEDB"/>
<path d="M205.286 146.2H146.252V152.245H205.286V146.2Z" fill="#FDEEDB"/>
<path d="M205.286 155.094H146.252V161.139H205.286V155.094Z" fill="#FDEEDB"/>
<path d="M205.286 163.989H146.252V170.035H205.286V163.989Z" fill="#FDEEDB"/>
<path d="M229.627 128.412H207.743V170.035H229.627V128.412Z" fill="#FDEEDB"/>
<path d="M229.733 108.714H146.252V114.288H229.733V108.714Z" fill="#FDEEDB"/>
<path d="M229.733 118.064H146.252V123.638H229.733V118.064Z" fill="#FDEEDB"/>
<path d="M229.828 80.7681H207.31V103.829H229.828V80.7681Z" fill="#FDEEDB"/>
<path d="M210.386 98.4131L226.662 98.397C224.252 90.3899 222.729 88.3641 221.733 88.4765C220.287 88.6372 219.87 93.2641 217.892 93.3974C216.703 93.4777 216.226 91.8487 215.029 91.7909C213.993 91.7411 212.465 92.856 210.386 98.4131Z" fill="white"/>
<path d="M217.561 87.9013C218 86.8272 217.486 85.6002 216.412 85.1607C215.338 84.7213 214.111 85.2358 213.671 86.31C213.232 87.3841 213.746 88.6111 214.82 89.0506C215.895 89.49 217.122 88.9755 217.561 87.9013Z" fill="white"/>
<path d="M99.0464 141.102H44.9054C44.8589 141.102 44.8128 141.093 44.7698 141.075C44.7268 141.057 44.6878 141.031 44.655 140.998C44.6221 140.965 44.5961 140.926 44.5784 140.883C44.5608 140.84 44.5518 140.794 44.552 140.747V91.4452C44.5524 91.3865 44.5673 91.3288 44.5953 91.2772C44.6233 91.2257 44.6636 91.1818 44.7127 91.1496L54.3006 84.7635L60.7509 75.1724C60.7828 75.1234 60.8264 75.083 60.8777 75.055C60.929 75.027 60.9864 75.0121 61.0449 75.0117H99.0464C99.1406 75.0117 99.2309 75.0491 99.2975 75.1157C99.3641 75.1823 99.4015 75.2726 99.4015 75.3668V140.747C99.4015 140.841 99.3641 140.932 99.2975 140.998C99.2309 141.065 99.1406 141.102 99.0464 141.102ZM45.2525 140.394H98.693V75.7234H61.2249L54.842 85.2198C54.816 85.2581 54.7827 85.2908 54.744 85.3162L45.2525 91.6364V140.394Z" fill="#C5C5C5"/>
<path d="M61.0386 91.4452H44.9441L61.0386 75.3491V91.4452Z" fill="white"/>
<path d="M61.0355 91.8066H44.941C44.8709 91.8068 44.8023 91.7863 44.7439 91.7474C44.6856 91.7086 44.64 91.6533 44.6132 91.5886C44.5863 91.5238 44.5793 91.4525 44.593 91.3838C44.6068 91.315 44.6407 91.2519 44.6904 91.2025L60.7849 75.0984C60.8342 75.0487 60.8972 75.0149 60.9658 75.0011C61.0344 74.9873 61.1055 74.9941 61.1702 75.0208C61.2349 75.0475 61.2902 75.0927 61.3292 75.1509C61.3681 75.209 61.3889 75.2774 61.389 75.3474V91.4451C61.3903 91.4922 61.3821 91.5391 61.3649 91.5831C61.3477 91.627 61.3218 91.667 61.2888 91.7007C61.2559 91.7344 61.2164 91.7612 61.1729 91.7794C61.1294 91.7975 61.0827 91.8068 61.0355 91.8066ZM45.7957 91.0981H60.6805V76.2053L45.7957 91.0981Z" fill="#FDEEDB"/>
<path d="M119.567 152.689H65.418V103.385L75.0686 96.9606L81.5574 87.3101H119.567V152.689Z" fill="white"/>
<path d="M92.1787 114.422H73.0349C72.9864 114.425 72.9377 114.419 72.8919 114.402C72.8461 114.386 72.8041 114.361 72.7686 114.327C72.7331 114.294 72.7047 114.254 72.6854 114.209C72.666 114.165 72.656 114.117 72.656 114.068C72.656 114.019 72.666 113.971 72.6854 113.927C72.7047 113.882 72.7331 113.842 72.7686 113.809C72.8041 113.775 72.8461 113.75 72.8919 113.733C72.9377 113.717 72.9864 113.71 73.0349 113.714H92.1787C92.2272 113.71 92.2759 113.717 92.3217 113.733C92.3675 113.75 92.4095 113.775 92.445 113.809C92.4806 113.842 92.5089 113.882 92.5282 113.927C92.5476 113.971 92.5576 114.019 92.5576 114.068C92.5576 114.117 92.5476 114.165 92.5282 114.209C92.5089 114.254 92.4806 114.294 92.445 114.327C92.4095 114.361 92.3675 114.386 92.3217 114.402C92.2759 114.419 92.2272 114.425 92.1787 114.422Z" fill="#FDEEDB"/>
<path d="M107.327 114.422H96.3558C96.266 114.416 96.1818 114.376 96.1204 114.31C96.0589 114.245 96.0247 114.158 96.0247 114.068C96.0247 113.978 96.0589 113.891 96.1204 113.825C96.1818 113.76 96.266 113.72 96.3558 113.714H107.327C107.376 113.71 107.424 113.717 107.47 113.733C107.516 113.75 107.558 113.775 107.593 113.809C107.629 113.842 107.657 113.882 107.677 113.927C107.696 113.971 107.706 114.019 107.706 114.068C107.706 114.117 107.696 114.165 107.677 114.209C107.657 114.254 107.629 114.294 107.593 114.327C107.558 114.361 107.516 114.386 107.47 114.402C107.424 114.419 107.376 114.425 107.327 114.422Z" fill="#FDEEDB"/>
<path d="M82.6566 122.073H73.0349C72.9864 122.076 72.9377 122.069 72.8919 122.053C72.8461 122.036 72.8041 122.011 72.7686 121.978C72.7331 121.944 72.7047 121.904 72.6854 121.86C72.666 121.815 72.656 121.767 72.656 121.718C72.656 121.67 72.666 121.622 72.6854 121.577C72.7047 121.532 72.7331 121.492 72.7686 121.459C72.8041 121.426 72.8461 121.4 72.8919 121.384C72.9377 121.368 72.9864 121.361 73.0349 121.364H82.6566C82.7051 121.361 82.7538 121.368 82.7996 121.384C82.8454 121.4 82.8874 121.426 82.9229 121.459C82.9585 121.492 82.9868 121.532 83.0062 121.577C83.0255 121.622 83.0355 121.67 83.0355 121.718C83.0355 121.767 83.0255 121.815 83.0062 121.86C82.9868 121.904 82.9585 121.944 82.9229 121.978C82.8874 122.011 82.8454 122.036 82.7996 122.053C82.7538 122.069 82.7051 122.076 82.6566 122.073Z" fill="#FDEEDB"/>
<path d="M107.325 122.073H86.8314C86.7416 122.067 86.6574 122.027 86.5959 121.961C86.5344 121.895 86.5002 121.808 86.5002 121.718C86.5002 121.628 86.5344 121.542 86.5959 121.476C86.6574 121.41 86.7416 121.37 86.8314 121.364H107.325C107.373 121.361 107.422 121.368 107.468 121.384C107.514 121.4 107.555 121.426 107.591 121.459C107.627 121.492 107.655 121.532 107.674 121.577C107.694 121.622 107.704 121.67 107.704 121.718C107.704 121.767 107.694 121.815 107.674 121.86C107.655 121.904 107.627 121.944 107.591 121.978C107.555 122.011 107.514 122.036 107.468 122.053C107.422 122.069 107.373 122.076 107.325 122.073Z" fill="#FDEEDB"/>
<path d="M107.325 129.721H79.297C79.2072 129.715 79.123 129.675 79.0615 129.61C79 129.544 78.9658 129.457 78.9658 129.367C78.9658 129.277 79 129.191 79.0615 129.125C79.123 129.059 79.2072 129.019 79.297 129.013H107.325C107.374 129.01 107.422 129.016 107.468 129.033C107.514 129.049 107.556 129.075 107.591 129.108C107.627 129.141 107.655 129.181 107.675 129.226C107.694 129.27 107.704 129.319 107.704 129.367C107.704 129.416 107.694 129.464 107.675 129.509C107.655 129.553 107.627 129.593 107.591 129.627C107.556 129.66 107.514 129.685 107.468 129.702C107.422 129.718 107.374 129.725 107.325 129.721Z" fill="#FDEEDB"/>
<path d="M81.5583 103.385H65.4639L81.5583 87.2905V103.385Z" fill="#FDEEDB"/>
<path d="M118.994 153.317H64.8437C64.7501 153.317 64.6604 153.279 64.5942 153.213C64.528 153.147 64.4907 153.057 64.4902 152.964V141.022C64.4963 140.932 64.5362 140.848 64.602 140.787C64.6678 140.725 64.7545 140.691 64.8445 140.691C64.9345 140.691 65.0212 140.725 65.0869 140.787C65.1527 140.848 65.1927 140.932 65.1987 141.022V152.609H118.639V87.5831C118.645 87.4933 118.685 87.4091 118.751 87.3476C118.817 87.2862 118.903 87.252 118.993 87.252C119.084 87.252 119.17 87.2862 119.236 87.3476C119.302 87.4091 119.342 87.4933 119.348 87.5831V152.97C119.346 153.062 119.308 153.151 119.242 153.215C119.176 153.28 119.087 153.317 118.994 153.317Z" fill="#FDEEDB"/>
<g clip-path="url(#clip0_6880_535755)">
<path d="M153 73.0674C148.583 73.0674 145 69.484 145 65.0674C145 60.6508 148.583 57.0674 153 57.0674C157.417 57.0674 161 60.6508 161 65.0674C161 69.484 157.417 73.0674 153 73.0674Z" fill="#009B7C"/>
<path d="M153 68.4958C151.106 68.4958 149.571 66.9608 149.571 65.0672C149.571 63.1737 151.106 61.6387 153 61.6387C154.893 61.6387 156.428 63.1737 156.428 65.0672C156.428 66.9608 154.893 68.4958 153 68.4958Z" fill="#F89D26"/>
</g>
<path d="M244.843 156.242C230.67 134.362 201.449 128.123 179.566 142.293C157.682 156.463 151.443 185.695 165.617 207.574C179.79 229.452 209.019 235.696 230.899 221.52C252.779 207.343 259.022 178.117 244.843 156.242ZM228.244 217.428C208.618 230.14 182.42 224.541 169.712 204.924C157.003 185.306 162.604 159.103 182.216 146.391C201.828 133.679 228.041 139.282 240.748 158.896C253.455 178.51 247.861 204.716 228.244 217.425V217.428Z" fill="#F89D26"/>
<path d="M205.324 229.292C201.966 229.29 198.617 228.934 195.334 228.23C183.547 225.684 173.185 218.714 166.383 208.757C159.58 198.8 156.855 186.614 158.768 174.708C160.682 162.802 167.088 152.082 176.667 144.758C186.247 137.434 198.271 134.062 210.262 135.337C222.253 136.612 233.299 142.436 241.125 151.611C248.95 160.786 252.959 172.613 252.326 184.655C251.693 196.697 246.466 208.038 237.722 216.342C228.978 224.646 217.382 229.281 205.324 229.292ZM205.136 134.856C196.088 134.861 187.236 137.493 179.655 142.433C157.886 156.534 151.653 185.716 165.756 207.486C169.102 212.68 173.446 217.159 178.535 220.663C183.624 224.168 189.357 226.628 195.404 227.902C198.664 228.599 201.989 228.952 205.324 228.954C216.935 228.927 228.126 224.607 236.744 216.825C245.361 209.044 250.797 198.35 252.004 186.802C253.212 175.253 250.106 163.666 243.285 154.27C236.464 144.874 226.408 138.332 215.054 135.904C211.794 135.207 208.469 134.856 205.136 134.856ZM205.315 224.409C202.303 224.407 199.299 224.088 196.353 223.457C185.778 221.174 176.481 214.923 170.376 205.99C164.272 197.058 161.825 186.125 163.54 175.443C165.255 164.76 171.001 155.142 179.595 148.57C188.189 141.997 198.976 138.971 209.735 140.113C220.493 141.255 230.404 146.48 237.426 154.711C244.448 162.941 248.046 173.551 247.48 184.356C246.913 195.16 242.225 205.335 234.381 212.787C226.537 220.238 216.134 224.398 205.315 224.409ZM205.164 139.761C197.051 139.755 189.111 142.104 182.307 146.523C162.802 159.164 157.214 185.319 169.851 204.826C175.93 214.209 185.489 220.793 196.423 223.129C207.357 225.466 218.772 223.362 228.155 217.282C237.539 211.203 244.123 201.644 246.459 190.71C248.795 179.776 246.692 168.361 240.612 158.978C232.55 146.543 218.991 139.763 205.164 139.763V139.761Z" fill="#F89D26"/>
<path d="M261.358 267.592L260.552 268.116C259.611 268.727 258.467 268.94 257.37 268.708C256.272 268.476 255.312 267.817 254.7 266.877L239.173 243.002C239.042 242.8 238.951 242.574 238.907 242.338C238.863 242.101 238.866 241.858 238.916 241.622C238.966 241.387 239.062 241.163 239.198 240.965C239.335 240.766 239.509 240.596 239.711 240.465L244.535 237.332C244.942 237.067 245.438 236.975 245.914 237.076C246.39 237.176 246.806 237.462 247.071 237.869L262.597 261.743C263.208 262.683 263.42 263.827 263.188 264.924C262.956 266.021 262.298 266.98 261.358 267.592Z" fill="#F89D26"/>
<path d="M258.252 268.966C257.52 268.967 256.798 268.785 256.153 268.436C255.509 268.087 254.962 267.583 254.562 266.968L239.034 243.094C238.746 242.65 238.645 242.109 238.756 241.591C238.866 241.072 239.177 240.619 239.621 240.33L244.444 237.197C244.888 236.908 245.429 236.808 245.947 236.918C246.465 237.028 246.919 237.34 247.208 237.784L262.735 261.658C263.05 262.142 263.266 262.683 263.371 263.25C263.477 263.817 263.47 264.4 263.35 264.964C263.231 265.529 263.001 266.064 262.674 266.54C262.348 267.016 261.931 267.422 261.447 267.737L260.642 268.261C259.931 268.723 259.1 268.968 258.252 268.966ZM245.53 237.198C245.208 237.199 244.893 237.293 244.623 237.469L239.799 240.602C239.615 240.721 239.456 240.876 239.332 241.056C239.207 241.237 239.119 241.44 239.074 241.654C239.028 241.869 239.024 242.09 239.064 242.306C239.104 242.521 239.185 242.727 239.305 242.911L254.832 266.785C255.42 267.689 256.343 268.322 257.397 268.545C258.452 268.768 259.552 268.564 260.456 267.976L261.261 267.453C262.164 266.866 262.798 265.943 263.021 264.888C263.245 263.834 263.041 262.733 262.453 261.829L246.932 237.96C246.814 237.776 246.66 237.617 246.479 237.492C246.298 237.368 246.095 237.281 245.88 237.236C245.765 237.211 245.648 237.197 245.53 237.195V237.198Z" fill="#F89D26"/>
<path d="M244.375 237.459L239.894 240.373L230.31 225.682L234.791 222.766L244.375 237.459Z" fill="#F89D26"/>
<path d="M239.846 240.599L230.081 225.631L234.839 222.537L244.604 237.505L239.846 240.599ZM230.537 225.728L239.938 240.144L244.143 237.408L234.743 222.992L230.537 225.728Z" fill="#F89D26"/>
<path d="M250.042 247.874C250.015 247.874 249.989 247.868 249.965 247.855C249.941 247.843 249.921 247.824 249.905 247.802L244.692 239.97C244.68 239.952 244.672 239.931 244.668 239.91C244.663 239.889 244.664 239.867 244.668 239.846C244.672 239.824 244.681 239.804 244.693 239.786C244.705 239.768 244.72 239.753 244.738 239.741C244.756 239.729 244.777 239.72 244.798 239.716C244.819 239.712 244.841 239.712 244.863 239.716C244.884 239.72 244.904 239.729 244.922 239.741C244.94 239.753 244.956 239.769 244.968 239.787L250.181 247.619C250.205 247.655 250.213 247.699 250.205 247.742C250.196 247.785 250.171 247.822 250.135 247.846C250.107 247.865 250.075 247.874 250.042 247.874Z" fill="#F89D26"/>
<path d="M247.317 249.671C247.29 249.671 247.263 249.664 247.24 249.652C247.216 249.639 247.195 249.621 247.18 249.598L241.967 241.766C241.955 241.748 241.947 241.728 241.943 241.707C241.938 241.685 241.938 241.663 241.943 241.642C241.947 241.621 241.955 241.6 241.968 241.582C241.98 241.564 241.995 241.549 242.013 241.537C242.031 241.525 242.052 241.517 242.073 241.512C242.094 241.508 242.116 241.508 242.137 241.513C242.159 241.517 242.179 241.525 242.197 241.537C242.215 241.549 242.23 241.565 242.243 241.583L247.454 249.415C247.47 249.44 247.48 249.469 247.481 249.498C247.482 249.528 247.476 249.558 247.462 249.584C247.448 249.61 247.427 249.632 247.401 249.647C247.376 249.663 247.347 249.671 247.317 249.671Z" fill="#F89D26"/>
<defs>
<clipPath id="clip0_6880_535755">
<rect width="16" height="16" fill="white" transform="matrix(-1 0 0 1 161 57)"/>
</clipPath>
</defs>
</svg>
