<svg width="294" height="294" viewBox="0 0 294 294" fill="none" xmlns="http://www.w3.org/2000/svg">
<g clip-path="url(#clip0_6880_533183)">
<path d="M146.999 294.005C228.182 294.005 293.993 228.188 293.993 147C293.993 65.8114 228.182 -0.00488281 146.999 -0.00488281C65.8163 -0.00488281 0.00463867 65.8114 0.00463867 147C0.00463867 228.188 65.8163 294.005 146.999 294.005Z" fill="#E9FAF6"/>
<path d="M53.6134 72.777C53.5195 72.7766 53.4296 72.739 53.3634 72.6725C53.2972 72.6059 53.26 72.5159 53.26 72.422L53.2327 53.3602C53.2641 50.5355 54.4075 47.837 56.4149 45.8496C58.4223 43.8623 61.1319 42.7461 63.9566 42.7432C66.7813 42.7402 69.4933 43.8507 71.5049 45.8338C73.5164 47.817 74.6654 50.5131 74.7028 53.3377L74.7301 72.3995C74.7301 72.4937 74.6927 72.584 74.6261 72.6505C74.5595 72.7171 74.4692 72.7545 74.3751 72.7545L53.615 72.777H53.6134ZM63.9685 43.3192H63.9541C61.2958 43.326 58.7488 44.387 56.8717 46.2693C54.9946 48.1517 53.9407 50.7017 53.9411 53.3602L53.9684 72.0669L74.02 72.038L73.9975 53.3377C73.9929 50.6813 72.9346 48.1352 71.055 46.2582C69.1754 44.3811 66.628 43.3265 63.9717 43.3256L63.9685 43.3192Z" fill="#E0AA63"/>
<path d="M48.9049 72.7879C48.811 72.787 48.7211 72.7495 48.6543 72.6835C48.5877 72.6171 48.5501 72.5269 48.5499 72.4328L48.5242 53.371C48.5047 51.9503 48.7675 50.5398 49.2971 49.2213C49.8268 47.9028 50.6129 46.7026 51.6099 45.6902C52.6069 44.6778 53.7949 43.8734 55.105 43.3236C56.4151 42.7738 57.8214 42.4896 59.2422 42.4873C60.663 42.4851 62.0701 42.7649 63.382 43.3106C64.6939 43.8563 65.8844 44.6569 66.8845 45.6662C67.8846 46.6754 68.6745 47.8732 69.2083 49.19C69.7422 50.5068 70.0093 51.9165 69.9943 53.3373L70.0216 72.3975C70.0218 72.4442 70.0128 72.4905 69.995 72.5336C69.9773 72.5768 69.9511 72.616 69.9181 72.649C69.8851 72.682 69.8459 72.7082 69.8027 72.726C69.7595 72.7437 69.7133 72.7528 69.6666 72.7526L48.9049 72.7831V72.7879ZM59.2585 43.3301H59.244C57.9274 43.332 56.624 43.5932 55.4084 44.0988C54.1927 44.6045 53.0885 45.3446 52.1589 46.277C51.2293 47.2094 50.4924 48.3158 49.9903 49.533C49.4882 50.7502 49.2307 52.0543 49.2326 53.371L49.2583 72.0778L69.31 72.0489L69.2843 53.3373C69.2804 50.6806 68.2225 48.134 66.3427 46.2568C64.4629 44.3796 61.915 43.3252 59.2585 43.3252V43.3301Z" fill="#E0AA63"/>
<path d="M94.968 152.907L27.7239 153.002L31.8974 67.2279L90.5551 67.146L94.968 152.907Z" fill="#EFBC73"/>
<path d="M31.8975 67.2275L21.2773 143.946L27.724 153.002L31.8975 67.2275Z" fill="#E0AA63"/>
<path d="M31.8976 67.2275L21.2774 143.945L13.4187 142.707L31.8976 67.2275Z" fill="#EFBC73"/>
<path d="M61.0175 90.9598C60.9465 90.9594 60.8772 90.9378 60.8185 90.8977C60.7598 90.8576 60.7144 90.8009 60.6882 90.7349L53.4351 72.3896C52.3517 69.6522 52.3999 66.5965 53.5693 63.8947C54.7387 61.1929 56.9333 59.0663 59.6705 57.9828C62.4077 56.8992 65.4632 56.9475 68.1648 58.117C70.8664 59.2864 72.9928 61.4812 74.0763 64.2186L81.3374 82.5639C81.3553 82.607 81.3645 82.6531 81.3645 82.6997C81.3645 82.7463 81.3553 82.7924 81.3374 82.8354C81.2995 82.9219 81.2291 82.99 81.1414 83.025L61.146 90.9309C61.1055 90.9487 61.0618 90.9585 61.0175 90.9598ZM63.734 57.9129C62.0396 57.9146 60.3712 58.3308 58.8745 59.125C57.3777 59.9193 56.0978 61.0676 55.1465 62.4699C54.1951 63.8722 53.6011 65.4859 53.4162 67.1703C53.2313 68.8548 53.4612 70.5589 54.0857 72.1342L61.2167 90.1437L80.5406 82.4948L73.408 64.4789C72.6386 62.5413 71.3051 60.8795 69.5802 59.7088C67.8553 58.5381 65.8186 57.9124 63.734 57.9129Z" fill="#1DC49D"/>
<path d="M56.4874 92.7528C56.4179 92.7509 56.3504 92.7288 56.2934 92.6891C56.2363 92.6494 56.192 92.5939 56.1661 92.5295L48.9033 74.1826C47.9111 71.4658 48.0185 68.469 49.2026 65.8303C50.3866 63.1915 52.5538 61.1191 55.2428 60.0544C57.9318 58.9896 60.9301 59.0166 63.5995 60.1296C66.2689 61.2425 68.3985 63.3536 69.5349 66.0132L76.7976 84.3585C76.8319 84.4459 76.8301 84.5433 76.7928 84.6294C76.7555 84.7155 76.6856 84.7833 76.5984 84.818L56.6175 92.7287C56.5758 92.7442 56.5318 92.7524 56.4874 92.7528ZM59.2022 59.7075C57.5085 59.7093 55.8408 60.1252 54.3445 60.919C52.8482 61.7128 51.5687 62.8605 50.6174 64.262C49.6661 65.6635 49.0719 67.2764 48.8866 68.9601C48.7012 70.6439 48.9303 72.3474 49.5539 73.9223L56.6849 91.9382L76.0072 84.2894L68.8762 66.2735C68.1068 64.336 66.7733 62.6742 65.0484 61.5034C63.3235 60.3327 61.2868 59.7071 59.2022 59.7075Z" fill="#1DC49D"/>
<path d="M131.396 152.407L66.6755 178.027L38.1306 93.8434L94.5875 71.4946L131.396 152.407Z" fill="#77DCC4"/>
<path d="M38.1306 93.8438L57.0288 171.754L66.6755 178.027L38.1306 93.8438Z" fill="#1DC49D"/>
<path d="M38.1306 93.6167L57.0288 171.527L48.9918 173.316L38.1306 93.6167Z" fill="#009B7C"/>
<path d="M181.825 127.487C181.775 127.487 181.726 127.477 181.68 127.456C181.635 127.436 181.594 127.407 181.56 127.369C174.322 119.277 173.669 107.437 174.399 98.9333C174.899 93.2797 176.016 87.6979 177.732 82.2878C177.763 82.1988 177.828 82.1255 177.912 82.0843C177.997 82.043 178.094 82.037 178.184 82.0677C178.273 82.0984 178.346 82.1632 178.387 82.2478C178.428 82.3325 178.434 82.4301 178.404 82.5191C178.302 82.8099 168.537 111.75 182.089 126.9C182.134 126.951 182.164 127.014 182.175 127.082C182.186 127.149 182.176 127.218 182.149 127.281C182.121 127.343 182.075 127.396 182.018 127.433C181.961 127.47 181.894 127.49 181.825 127.49V127.487Z" fill="#363E44"/>
<path d="M193.506 111.182L226.449 120.686L293.555 78.3501L266.213 35.0132L199.116 77.3492L193.506 111.182ZM212.508 99.2096C212.993 99.978 213.238 100.873 213.214 101.781C213.19 102.689 212.897 103.569 212.373 104.311C211.849 105.052 211.116 105.622 210.268 105.947C209.42 106.272 208.495 106.339 207.609 106.139C206.723 105.938 205.917 105.479 205.292 104.821C204.666 104.162 204.251 103.332 204.097 102.437C203.943 101.542 204.058 100.621 204.427 99.7915C204.796 98.9616 205.403 98.2599 206.171 97.775C206.681 97.4528 207.25 97.2343 207.845 97.1321C208.439 97.0298 209.048 97.0457 209.637 97.179C210.226 97.3122 210.782 97.5601 211.275 97.9086C211.767 98.257 212.187 98.6991 212.508 99.2096Z" fill="#EFBC73"/>
<path d="M279.96 74.8559C279.936 74.8555 279.912 74.8528 279.889 74.8479L236.74 65.9973C236.694 65.988 236.651 65.9697 236.612 65.9435C236.574 65.9174 236.541 65.8839 236.515 65.8449C236.489 65.806 236.471 65.7624 236.463 65.7166C236.454 65.6708 236.454 65.6237 236.464 65.578C236.473 65.5324 236.491 65.489 236.517 65.4504C236.544 65.4118 236.577 65.3787 236.616 65.353C236.655 65.3274 236.699 65.3096 236.744 65.3008C236.79 65.292 236.837 65.2923 236.883 65.3017L280.03 74.1538C280.116 74.1723 280.191 74.2215 280.242 74.292C280.294 74.3626 280.317 74.4496 280.309 74.5365C280.3 74.6233 280.259 74.7039 280.195 74.7628C280.131 74.8217 280.047 74.8549 279.96 74.8559Z" fill="#363E44"/>
<path d="M254.856 89.3322C253.344 89.3322 251.882 88.7863 250.741 87.7947C249.599 86.8031 248.854 85.4326 248.642 83.9354C248.431 82.4381 248.767 80.9147 249.589 79.6455C250.411 78.3764 251.663 77.4467 253.116 77.0276C254.569 76.6085 256.124 76.7281 257.496 77.3645C258.868 78.0008 259.963 79.1111 260.582 80.4911C261.2 81.8711 261.299 83.4279 260.861 84.8752C260.423 86.3225 259.477 87.5629 258.197 88.3682C257.196 88.9975 256.038 89.3317 254.856 89.3322ZM254.836 77.4806C253.601 77.4828 252.401 77.8956 251.426 78.6541C250.451 79.4126 249.756 80.4737 249.449 81.6705C249.143 82.8674 249.243 84.1321 249.734 85.2659C250.225 86.3996 251.079 87.3381 252.161 87.9336C253.243 88.5291 254.493 88.748 255.713 88.5558C256.934 88.3636 258.055 87.7712 258.902 86.8718C259.749 85.9724 260.273 84.817 260.392 83.5872C260.511 82.3575 260.217 81.1232 259.558 80.0784C259.057 79.2793 258.36 78.6212 257.534 78.1666C256.708 77.712 255.779 77.4759 254.836 77.4806Z" fill="#363E44"/>
<path d="M261.691 63.1618C260.179 63.1614 258.718 62.6152 257.577 61.6234C256.436 60.6316 255.691 59.261 255.479 57.7638C255.268 56.2665 255.604 54.7433 256.426 53.4743C257.249 52.2053 258.501 51.2759 259.954 50.857C261.407 50.438 262.962 50.5578 264.334 51.1943C265.705 51.8308 266.801 52.9411 267.419 54.3211C268.037 55.701 268.136 57.2578 267.698 58.705C267.26 60.1522 266.314 61.3925 265.034 62.1978C264.033 62.8276 262.874 63.1617 261.691 63.1618ZM261.674 51.3102C260.438 51.3122 259.238 51.725 258.262 52.4836C257.286 53.2422 256.591 54.3036 256.284 55.5009C255.978 56.6982 256.078 57.9634 256.569 59.0975C257.06 60.2317 257.914 61.1705 258.996 61.7662C260.079 62.362 261.329 62.5809 262.55 62.3886C263.771 62.1962 264.893 61.6036 265.74 60.7038C266.587 59.804 267.111 58.6481 267.23 57.4179C267.348 56.1877 267.055 54.953 266.395 53.908C265.893 53.1098 265.196 52.4525 264.37 51.998C263.544 51.5435 262.616 51.3068 261.674 51.3102Z" fill="#363E44"/>
<path d="M178.495 99.5933L212.619 96.1938L259.22 31.9781L217.755 1.88086L171.15 66.0966L178.495 99.5933ZM191.698 81.4247C192.434 81.9584 192.995 82.6982 193.31 83.5506C193.625 84.4031 193.68 85.3298 193.469 86.2136C193.257 87.0975 192.788 87.8987 192.121 88.516C191.454 89.1333 190.619 89.5389 189.722 89.6816C188.824 89.8243 187.905 89.6977 187.079 89.3177C186.254 88.9376 185.56 88.3213 185.084 87.5467C184.609 86.7721 184.374 85.8739 184.41 84.9658C184.445 84.0577 184.748 83.1804 185.282 82.4449C185.998 81.4588 187.076 80.7974 188.279 80.6061C189.482 80.4148 190.712 80.7093 191.698 81.4247Z" fill="#F89D26"/>
<path d="M201.812 41.5966C201.725 41.5955 201.64 41.5618 201.576 41.5021C201.511 41.4423 201.471 41.3607 201.463 41.2731C201.456 41.1855 201.48 41.0981 201.533 41.0279C201.586 40.9577 201.663 40.9096 201.75 40.893L245.103 33.1028C245.149 33.0945 245.196 33.0954 245.241 33.1053C245.287 33.1152 245.33 33.134 245.368 33.1606C245.406 33.1871 245.439 33.2209 245.464 33.2601C245.489 33.2992 245.506 33.3429 245.514 33.3887C245.522 33.4345 245.522 33.4815 245.512 33.5269C245.502 33.5724 245.483 33.6154 245.456 33.6536C245.43 33.6918 245.396 33.7244 245.357 33.7495C245.318 33.7746 245.274 33.7918 245.228 33.8L201.87 41.5918L201.812 41.5966Z" fill="white"/>
<path d="M225.003 56.994C223.378 56.9922 221.816 56.3614 220.645 55.2338C219.475 54.1062 218.785 52.5692 218.723 50.9449C218.66 49.3206 219.228 47.7349 220.307 46.52C221.387 45.3051 222.896 44.5553 224.516 44.4277C226.136 44.3 227.743 44.8044 229 45.8351C230.257 46.8659 231.066 48.3431 231.259 49.9573C231.451 51.5714 231.011 53.1973 230.031 54.4944C229.051 55.7914 227.608 56.6589 226.002 56.9153C225.672 56.9678 225.338 56.9941 225.003 56.994ZM225.029 45.1376C224.147 45.1374 223.277 45.3456 222.491 45.7455C221.705 46.1453 221.025 46.7253 220.505 47.4382C219.77 48.4495 219.396 49.6788 219.444 50.9282C219.492 52.1777 219.96 53.3746 220.77 54.3264C221.581 55.2781 222.689 55.9293 223.915 56.1751C225.141 56.421 226.414 56.2471 227.529 55.6816C228.644 55.1161 229.536 54.1918 230.062 53.0575C230.588 51.9232 230.717 50.6448 230.429 49.4282C230.14 48.2116 229.451 47.1275 228.471 46.3504C227.492 45.5732 226.279 45.1483 225.029 45.144V45.1376Z" fill="white"/>
<path d="M221.646 30.1516C220.49 30.1492 219.357 29.8278 218.372 29.2228C217.387 28.6177 216.589 27.7526 216.064 26.7227C215.539 25.6927 215.309 24.5379 215.398 23.3854C215.488 22.233 215.894 21.1276 216.571 20.191C217.201 19.3187 218.045 18.623 219.021 18.1705C219.998 17.7181 221.074 17.5241 222.147 17.6071C223.22 17.6902 224.253 18.0475 225.148 18.6448C226.044 19.2421 226.77 20.0594 227.259 21.0183C227.747 21.9771 227.981 23.0455 227.938 24.1208C227.895 25.1961 227.577 26.2423 227.013 27.1592C226.45 28.076 225.66 28.8327 224.721 29.3567C223.781 29.8807 222.722 30.1545 221.646 30.1516ZM217.148 20.5991C216.5 21.4911 216.132 22.5552 216.089 23.6566C216.047 24.7581 216.331 25.8475 216.908 26.787C217.484 27.7265 218.326 28.4741 219.327 28.935C220.329 29.396 221.444 29.5497 222.532 29.3766C223.621 29.2036 224.634 28.7117 225.443 27.963C226.252 27.2144 226.821 26.2426 227.077 25.1707C227.334 24.0987 227.267 22.9747 226.885 21.9408C226.503 20.9068 225.823 20.0094 224.931 19.362C224.34 18.9272 223.67 18.614 222.957 18.4407C222.245 18.2674 221.505 18.2374 220.781 18.3525C220.056 18.4676 219.362 18.7255 218.739 19.1112C218.115 19.4968 217.574 20.0026 217.148 20.5991Z" fill="white"/>
<path d="M177.613 131.906C177.534 131.905 177.459 131.877 177.397 131.828C177.336 131.779 177.293 131.711 177.274 131.634C177.256 131.558 177.263 131.477 177.296 131.406C177.328 131.334 177.383 131.275 177.452 131.238C188.537 125.433 193.729 115.222 192.865 100.89C192.222 90.163 188.237 81.0458 188.196 80.9542C188.17 80.9111 188.152 80.8628 188.146 80.8124C188.139 80.7621 188.144 80.711 188.158 80.6625C188.173 80.614 188.198 80.5692 188.232 80.5312C188.266 80.4933 188.307 80.4629 188.353 80.4423C188.4 80.4217 188.45 80.4112 188.501 80.4116C188.552 80.4121 188.602 80.4234 188.648 80.4448C188.694 80.4662 188.734 80.4972 188.767 80.5357C188.8 80.5743 188.825 80.6195 188.839 80.6682C188.879 80.7598 192.913 89.9862 193.567 100.848C194.436 115.278 188.975 126.004 177.775 131.866C177.725 131.892 177.67 131.906 177.613 131.906Z" fill="#363E44"/>
<path d="M185.35 133.254C185.27 133.254 185.193 133.227 185.13 133.178C185.068 133.128 185.023 133.059 185.005 132.982C184.986 132.904 184.994 132.822 185.028 132.75C185.061 132.678 185.118 132.619 185.189 132.583C205.538 122.301 208.757 97.3073 208.788 97.0567C208.793 97.0102 208.807 96.9653 208.83 96.9244C208.852 96.8836 208.883 96.8477 208.919 96.8188C208.956 96.7899 208.998 96.7686 209.043 96.7562C209.088 96.7438 209.135 96.7406 209.181 96.7466C209.275 96.7579 209.36 96.8056 209.418 96.8794C209.476 96.9532 209.502 97.0469 209.492 97.1402C209.492 97.2045 208.688 103.605 205.355 111.204C202.274 118.225 196.33 127.752 185.509 133.214C185.46 133.24 185.405 133.254 185.35 133.254Z" fill="#363E44"/>
<path d="M259.652 208.809C259.559 208.808 259.469 208.771 259.403 208.705C259.337 208.639 259.299 208.549 259.299 208.455C259.259 184.654 266.313 164.124 272.237 151.092C278.663 136.972 285.177 128.357 285.25 128.279C285.276 128.238 285.311 128.203 285.352 128.177C285.393 128.15 285.438 128.132 285.486 128.124C285.534 128.116 285.583 128.118 285.631 128.129C285.678 128.141 285.722 128.162 285.761 128.192C285.799 128.221 285.832 128.258 285.855 128.301C285.879 128.343 285.894 128.39 285.899 128.438C285.904 128.487 285.899 128.535 285.884 128.582C285.869 128.628 285.845 128.671 285.813 128.708C285.748 128.793 279.267 137.357 272.882 151.411C266.989 164.375 259.975 184.796 260.014 208.46C260.014 208.507 260.005 208.553 259.987 208.596C259.97 208.639 259.944 208.678 259.911 208.711C259.878 208.744 259.839 208.77 259.796 208.788C259.753 208.806 259.707 208.815 259.66 208.815L259.652 208.809Z" fill="#D2F3EB"/>
<path d="M281.585 134.338C281.585 134.338 279.804 126.704 292.509 118.054C292.504 118.054 292.57 133.183 281.585 134.338Z" fill="#D2F3EB"/>
<path d="M277.961 138.806C278.122 138.9 280.233 131.416 272.674 123C272.674 122.995 271.723 135.328 277.961 138.806Z" fill="#D2F3EB"/>
<path d="M273.828 145.833C273.828 145.833 273.73 139.126 263.448 132.324C263.448 132.324 267.993 145.936 273.828 145.833Z" fill="#D2F3EB"/>
<path d="M270.126 154.518C270.318 154.504 267.945 147.107 256.992 144.257C256.992 144.257 263.008 155.066 270.126 154.518Z" fill="#D2F3EB"/>
<path d="M267.452 161.219C267.452 161.219 263.781 156.465 252.753 157.061C252.753 157.061 263.323 164.395 267.452 161.219Z" fill="#D2F3EB"/>
<path d="M264.424 170.579C264.424 170.579 259.89 167.954 251.183 172.076C251.188 172.076 262.139 174.507 264.424 170.579Z" fill="#D2F3EB"/>
<path d="M279.06 139.835C278.915 139.746 283.756 134.845 293.561 136.977C293.561 136.977 284.474 143.117 279.06 139.835Z" fill="#D2F3EB"/>
<path d="M275.678 146.924C275.678 146.924 281.556 143.69 292.546 149.262C292.553 149.262 278.474 152.046 275.678 146.924Z" fill="#D2F3EB"/>
<path d="M271.968 156.091C271.887 155.92 279.489 154.324 287.39 162.431C287.383 162.431 275.015 162.55 271.968 156.091Z" fill="#D2F3EB"/>
<path d="M269.152 162.41C269.152 162.41 275.095 163.25 280.035 173.129C280.035 173.129 268.434 167.564 269.152 162.41Z" fill="#D2F3EB"/>
<path d="M266.022 171.355C266.022 171.355 270.546 173.997 271.269 183.602C271.269 183.602 263.738 175.284 266.022 171.355Z" fill="#D2F3EB"/>
<path d="M236.361 187.967C236.32 187.967 236.28 187.96 236.242 187.946C236.154 187.914 236.081 187.849 236.041 187.764C236.001 187.679 235.996 187.582 236.027 187.493C246.79 157.306 237.763 128.499 237.672 128.211C237.654 128.166 237.646 128.118 237.647 128.069C237.649 128.021 237.661 127.973 237.682 127.93C237.702 127.886 237.732 127.847 237.768 127.815C237.805 127.783 237.847 127.759 237.894 127.744C237.94 127.729 237.988 127.724 238.037 127.729C238.085 127.733 238.132 127.748 238.174 127.771C238.216 127.795 238.254 127.827 238.283 127.865C238.313 127.903 238.334 127.947 238.346 127.994C238.439 128.284 247.532 157.311 236.696 187.731C236.672 187.8 236.626 187.86 236.566 187.902C236.506 187.945 236.434 187.967 236.361 187.967Z" fill="white"/>
<path d="M239.254 132.938C239.254 132.938 242.25 128.261 235.818 119.483C235.818 119.483 232.195 129.562 239.254 132.938Z" fill="white"/>
<path d="M240.618 136.774C240.484 136.797 240.849 131.312 247.887 127.472C247.887 127.472 245.604 135.931 240.618 136.774Z" fill="white"/>
<path d="M241.71 142.447C241.71 142.447 243.362 137.992 251.831 135.882C251.84 135.882 245.585 143.896 241.71 142.447Z" fill="white"/>
<path d="M242.13 149.12C242.006 149.066 245.342 144.689 253.326 145.377C253.326 145.377 246.753 151.177 242.13 149.12Z" fill="white"/>
<path d="M242.33 154.229C242.33 154.229 245.906 151.925 253.127 154.933C253.127 154.93 244.335 157.325 242.33 154.229Z" fill="white"/>
<path d="M242.137 161.192C242.137 161.192 245.786 160.513 250.623 165.324C250.623 165.324 242.733 164.351 242.137 161.192Z" fill="white"/>
<path d="M239.639 137.2C239.758 137.176 237.686 132.758 230.643 131.861C230.635 131.865 235.249 138.114 239.639 137.2Z" fill="white"/>
<path d="M240.221 142.736C240.221 142.736 237.061 139.187 228.401 140.305C228.401 140.305 237.143 145.495 240.221 142.736Z" fill="white"/>
<path d="M240.528 149.731C240.624 149.635 235.925 146.77 228.737 150.316C228.737 150.321 236.966 153.326 240.528 149.731Z" fill="white"/>
<path d="M240.907 154.62C240.907 154.62 236.73 153.773 231.108 159.202C231.108 159.21 240.173 158.234 240.907 154.62Z" fill="white"/>
<path d="M240.888 161.332C240.888 161.332 237.243 162.026 234.488 168.268C234.481 168.268 241.482 164.495 240.888 161.332Z" fill="white"/>
<path d="M267.392 190.293L173.798 229.853L185.98 258.673L192.935 263.554L191.949 272.797L197.266 285.378L290.861 245.819L285.544 233.238L279.002 228.566L279.574 219.113L267.392 190.293Z" fill="white"/>
<path d="M198.592 283.255L198.454 282.934L174.839 227.082L175.16 226.943L269.082 187.247L269.219 187.568L292.834 243.419L292.512 243.557L198.592 283.255ZM175.78 227.453L198.972 282.325L291.913 243.043L268.721 188.171L175.78 227.453Z" fill="#363E44"/>
<path d="M279.572 218.889L185.978 258.446L191.947 272.571L285.541 233.014L279.572 218.889Z" fill="#009B7C"/>
<path d="M141.362 292.885L144.249 271.717L148.111 292.524H209.32L182.069 193.271L100.265 207.525L82.9407 292.885H141.362Z" fill="#363E44"/>
<path d="M72.8602 137.505C63.9235 147.334 25.7095 186.002 38.553 198.663C48.0519 208.028 86.0378 175.971 95.5448 166.786C89.0515 159.769 79.3534 144.522 72.8602 137.505Z" fill="#9D6C5B"/>
<path d="M200.29 133.124C209.226 142.951 247.439 181.62 234.597 194.281C225.098 203.645 187.11 171.588 177.604 162.404C184.097 155.388 193.796 140.14 200.29 133.124Z" fill="#9D6C5B"/>
<path d="M226.806 155.049C226.806 155.049 196.421 112.071 139.247 112.071C96.7337 112.071 57.4304 147.977 57.4304 147.977L91.5464 171.915L94.6517 168.943L91.2782 225.049L197.212 226.779L196.137 176.081L226.806 155.049Z" fill="#009B7C"/>
<path d="M93.1641 171.41L84.8379 180.08L51.6504 151.615L59.7501 144.058L93.1641 171.41Z" fill="white"/>
<path d="M189.2 170.422L197.71 181.562L229.439 154.282L219.504 144.948L189.2 170.422Z" fill="white"/>
<path d="M196.59 180.577C196.535 180.577 196.481 180.564 196.432 180.54C196.383 180.516 196.341 180.481 196.307 180.437L175.79 153.395C175.74 153.32 175.72 153.229 175.735 153.139C175.751 153.05 175.799 152.97 175.871 152.916C175.944 152.861 176.034 152.836 176.124 152.846C176.214 152.856 176.297 152.899 176.355 152.968L196.873 180.008C196.901 180.045 196.922 180.087 196.934 180.132C196.946 180.178 196.949 180.225 196.942 180.271C196.936 180.317 196.92 180.361 196.896 180.402C196.873 180.442 196.841 180.477 196.804 180.505C196.742 180.551 196.667 180.576 196.59 180.577Z" fill="#363E44"/>
<path d="M186.19 160.021H102.403V234.095H186.19V160.021Z" fill="#F89D26"/>
<path d="M189.199 152.438H99.5496V160.542H189.199V152.438Z" fill="#F89D26"/>
<path d="M184.616 161.192H104.47C104.376 161.192 104.286 161.155 104.219 161.088C104.153 161.021 104.115 160.931 104.115 160.837C104.115 160.743 104.153 160.653 104.219 160.586C104.286 160.519 104.376 160.482 104.47 160.482H184.616C184.71 160.482 184.8 160.519 184.867 160.586C184.933 160.653 184.971 160.743 184.971 160.837C184.971 160.931 184.933 161.021 184.867 161.088C184.8 161.155 184.71 161.192 184.616 161.192Z" fill="#363E44"/>
<path d="M148.901 152.438H139.851V234.095H148.901V152.438Z" fill="white"/>
<path d="M169.155 132.478L144.907 151.259L146.032 153.545L178.63 147.761L169.155 132.478ZM146.034 151.908L165.862 140.782L166.959 143.599L146.034 151.908Z" fill="white"/>
<path d="M106.706 145.122L144.803 154.675L146.326 152.062L119.193 127.819L106.706 145.122ZM120.867 141.163L122.4 137.92L144.94 152.737L120.867 141.163Z" fill="white"/>
<path d="M62.6899 184.708C73.7904 191.052 100.671 204.698 103.243 206.134C108.048 208.819 133.017 221.184 129.695 225.834C128.128 228.025 116.832 221.686 114.303 220.285C116.874 222.359 128.938 230.025 126.692 232.707C124.381 235.467 110.374 225.824 110.228 225.798C111.58 226.923 122.276 234.243 120.051 237.348C117.91 240.338 107.818 231.164 106.075 230.419C107.612 232.054 114.52 237.266 113.121 239.213C111.245 241.822 102.583 234.715 100.949 234.22C96.6774 231.838 89.4114 229.212 80.9118 225.545C60.9501 216.925 52.4118 212.246 43.5218 206.335C40.0744 204.044 34.6864 198.222 36.1209 189.126C45.0447 187.623 53.7645 186.211 62.6899 184.708Z" fill="#9D6C5B"/>
<path d="M70.1181 189.126C70.0579 189.126 69.9987 189.11 69.9462 189.081C68.6611 188.369 66.5968 187.249 64.7751 186.261C63.1188 185.363 61.6891 184.589 61.1638 184.291C61.0864 184.243 61.0307 184.166 61.0083 184.078C60.986 183.989 60.9987 183.895 61.0438 183.816C61.089 183.736 61.1631 183.677 61.2506 183.651C61.3382 183.624 61.4326 183.633 61.514 183.675C62.0329 183.969 63.4594 184.741 65.1124 185.638C66.9373 186.626 69.0032 187.747 70.2916 188.46C70.3603 188.499 70.4143 188.559 70.4452 188.631C70.476 188.704 70.482 188.784 70.4622 188.86C70.4423 188.936 70.3978 189.004 70.3355 189.052C70.2732 189.1 70.1967 189.126 70.1181 189.126Z" fill="#363E44"/>
<path d="M215.059 174.115C202.312 175.119 172.18 176.001 169.242 176.204C163.749 176.585 135.892 177.123 136.915 182.744C137.397 185.395 150.32 184.476 153.203 184.288C149.99 185.069 135.812 186.858 136.7 190.242C137.614 193.723 154.395 190.974 154.532 191.016C152.834 191.448 140.034 193.518 140.716 197.282C141.378 200.9 154.416 196.906 156.313 196.975C154.225 197.799 145.756 199.566 146.193 201.925C146.776 205.085 157.643 202.346 159.332 202.599C164.21 202.265 171.902 202.988 181.155 203.293C202.886 204.008 212.606 203.416 223.165 201.86C227.262 201.258 234.353 198.856 236.934 190.015C229.512 184.842 222.491 179.28 215.059 174.115Z" fill="#9D6C5B"/>
<path d="M205.933 174.846C205.843 174.844 205.756 174.807 205.692 174.744C205.628 174.68 205.59 174.594 205.587 174.503C205.584 174.413 205.615 174.324 205.675 174.256C205.735 174.189 205.819 174.146 205.909 174.138C207.491 174.032 212.108 173.852 216.182 173.693C219.249 173.574 221.898 173.471 222.447 173.429C222.541 173.422 222.634 173.453 222.706 173.514C222.777 173.576 222.821 173.663 222.828 173.757C222.835 173.851 222.805 173.944 222.743 174.015C222.682 174.087 222.594 174.131 222.5 174.138C221.945 174.178 219.288 174.282 216.216 174.401C212.147 174.562 207.541 174.74 205.964 174.845L205.933 174.846Z" fill="#363E44"/>
<path d="M129.341 86.9623L158.5 89.7085L160.644 66.9367L131.486 64.1905L129.341 86.9623Z" fill="#363E44"/>
<path d="M143.606 125.114L133.132 112.542L134.128 96.427L153.125 95.5273L153.936 113.373L143.606 125.114Z" fill="#9D6C5B"/>
<path d="M159.086 84.3876C158.704 92.4911 153.889 105.112 143.428 104.63C132.967 104.148 129.36 91.1143 129.741 83.0108C130.122 74.9073 137.066 70.7753 145.163 71.1576C153.259 71.54 159.468 76.2842 159.086 84.3876Z" fill="#9D6C5B"/>
<path d="M131.13 93.796C133.266 92.9661 133.988 89.6959 132.744 86.4919C131.499 83.2878 128.759 81.3632 126.622 82.1931C124.486 83.023 123.764 86.2932 125.008 89.4972C126.253 92.7013 128.993 94.6259 131.13 93.796Z" fill="#9D6C5B"/>
<path d="M163.109 91.2875C164.649 88.2146 164.237 84.891 162.188 83.8641C160.139 82.8372 157.23 84.4958 155.69 87.5688C154.15 90.6417 154.562 93.9653 156.611 94.9922C158.66 96.0191 161.569 94.3604 163.109 91.2875Z" fill="#9D6C5B"/>
<path d="M159.758 92.618C159.679 92.6182 159.603 92.5924 159.541 92.5447C159.478 92.497 159.434 92.4301 159.414 92.3543C159.393 92.2786 159.399 92.1982 159.429 92.1259C159.459 92.0536 159.513 91.9933 159.581 91.9545C160.223 91.5412 160.743 90.9629 161.085 90.2801C161.427 89.5972 161.579 88.835 161.526 88.073C161.447 87.4401 161.171 86.9758 160.747 86.7621C160.663 86.7203 160.575 86.6891 160.484 86.6689C160.392 86.6476 160.312 86.5907 160.262 86.5107C160.213 86.4307 160.196 86.3342 160.218 86.2424C160.239 86.1506 160.296 86.071 160.376 86.0211C160.456 85.9712 160.552 85.9552 160.644 85.9765C160.791 86.0128 160.933 86.0667 161.067 86.1371C161.709 86.4584 162.124 87.1187 162.231 87.9943C162.302 88.8953 162.126 89.7985 161.721 90.6065C161.316 91.4145 160.698 92.0967 159.934 92.5794C159.879 92.6068 159.819 92.6201 159.758 92.618Z" fill="#363E44"/>
<path d="M128.39 91.1396C128.318 91.1395 128.247 91.1171 128.188 91.0753C127.461 90.5348 126.907 89.7939 126.594 88.9434C125.842 87.0155 126.313 85.0876 127.664 84.5543C127.805 84.4999 127.952 84.4627 128.101 84.4434C128.193 84.4349 128.284 84.4623 128.356 84.5197C128.427 84.5771 128.474 84.66 128.486 84.7511C128.498 84.8422 128.474 84.9344 128.419 85.0082C128.364 85.0821 128.283 85.1318 128.193 85.1471C128.1 85.1589 128.008 85.1821 127.921 85.2162C126.973 85.5841 126.668 87.173 127.256 88.6863C127.518 89.4066 127.983 90.0352 128.596 90.4953C128.656 90.5392 128.702 90.6011 128.725 90.6722C128.748 90.7432 128.749 90.8199 128.726 90.8911C128.703 90.9624 128.658 91.0246 128.598 91.0689C128.538 91.1133 128.465 91.1374 128.39 91.1379V91.1396Z" fill="#363E44"/>
<path d="M157.402 93.0968C157.362 93.0968 157.322 93.0903 157.284 93.0775C157.195 93.0459 157.123 92.9805 157.082 92.8955C157.042 92.8106 157.037 92.7131 157.068 92.6245C157.835 90.4545 158.352 88.2042 158.609 85.9171C158.612 85.8694 158.625 85.8227 158.647 85.7801C158.668 85.7374 158.698 85.6996 158.735 85.6688C158.772 85.6381 158.814 85.6151 158.86 85.6012C158.906 85.5873 158.954 85.5828 159.002 85.588C159.049 85.5932 159.095 85.608 159.137 85.6315C159.179 85.6549 159.215 85.6866 159.244 85.7245C159.274 85.7625 159.295 85.8059 159.307 85.8523C159.319 85.8986 159.321 85.9469 159.314 85.9942C159.051 88.3356 158.522 90.6394 157.737 92.8607C157.712 92.9298 157.667 92.9897 157.607 93.032C157.547 93.0743 157.476 93.097 157.402 93.0968Z" fill="#363E44"/>
<path d="M130.84 92.6148C130.763 92.6149 130.687 92.5897 130.625 92.543C130.564 92.4963 130.519 92.4307 130.498 92.3562C129.736 89.6244 129.354 86.801 129.36 83.9651C129.363 83.8715 129.402 83.7825 129.469 83.7168C129.535 83.6512 129.625 83.6141 129.719 83.6133C129.765 83.6137 129.811 83.6233 129.854 83.6415C129.897 83.6598 129.936 83.6863 129.969 83.7195C130.001 83.7528 130.027 83.7922 130.045 83.8354C130.062 83.8787 130.071 83.9249 130.071 83.9715C130.064 86.7406 130.437 89.4976 131.181 92.165C131.193 92.2097 131.197 92.2565 131.192 92.3027C131.186 92.3489 131.172 92.3936 131.149 92.4341C131.126 92.4747 131.096 92.5105 131.06 92.5393C131.023 92.5681 130.981 92.5894 130.936 92.602C130.905 92.611 130.873 92.6153 130.84 92.6148Z" fill="#363E44"/>
<path d="M157.661 84.5819C157.092 85.3838 156.42 86.1075 155.663 86.7347C154.813 87.4448 152.137 87.4078 152.137 87.4078C152.137 87.4078 149.163 88.8184 147.939 88.5533C147.238 88.4077 146.553 88.1924 145.894 87.9107C146.23 87.4327 146.606 86.9845 147.019 86.5708C147.921 85.6438 151.695 85.5024 151.695 85.5024C151.695 85.5024 154.166 83.6533 155.354 83.883C156.147 84.03 156.921 84.2644 157.661 84.5819Z" fill="white"/>
<path d="M151.137 83.9745C149.34 84.4821 147.925 85.6292 147.025 86.5546C147.157 87.287 147.471 87.9744 147.939 88.5531C149.163 88.8182 150.794 88.9708 152.418 88.5114C153.618 88.1494 154.729 87.5385 155.677 86.7185C155.889 85.7639 155.776 84.7658 155.356 83.8829C154.159 83.6515 152.649 83.5407 151.137 83.9745Z" fill="#363E44"/>
<path d="M130.81 83.3157C131.362 84.2733 132.052 85.1447 132.858 85.9023C133.6 86.6027 136.111 86.3842 136.111 86.3842C136.111 86.3842 138.673 88.3266 139.884 88.2045C140.676 88.1295 141.456 87.9678 142.212 87.7225C141.931 87.225 141.609 86.752 141.248 86.3087C140.445 85.2966 136.911 84.5977 136.911 84.5977C136.911 84.5977 134.352 82.7068 133.139 82.8305C132.347 82.9074 131.566 83.0701 130.81 83.3157Z" fill="white"/>
<path d="M141.25 86.3251C140.438 85.313 139.127 84.0101 137.362 83.3257C135.887 82.7553 134.363 82.7184 133.152 82.8437C132.73 83.708 132.604 84.6867 132.793 85.6295C132.813 85.7291 132.84 85.8222 132.866 85.9186C133.673 86.6915 134.622 87.3023 135.659 87.718C137.134 88.2883 138.66 88.3253 139.871 88.1999C140.489 87.7083 140.965 87.0612 141.25 86.3251Z" fill="#363E44"/>
<path d="M143.931 105.247C143.743 105.247 143.553 105.247 143.364 105.231C139.267 104.98 136.146 102.119 133.886 99.653C133.822 99.5836 133.788 99.4916 133.792 99.3973C133.796 99.303 133.837 99.2141 133.907 99.1502C133.976 99.0862 134.068 99.0525 134.162 99.0565C134.257 99.0604 134.346 99.1016 134.409 99.171C136.715 101.685 139.587 104.286 143.406 104.519C147.224 104.752 150.447 102.363 152.819 100.255C152.89 100.194 152.982 100.163 153.075 100.169C153.168 100.175 153.255 100.217 153.317 100.287C153.379 100.357 153.412 100.448 153.407 100.542C153.402 100.635 153.361 100.723 153.292 100.786C150.933 102.885 147.762 105.247 143.931 105.247Z" fill="#363E44"/>
<path d="M144.244 94.0089C144.163 94.0103 144.084 93.9841 144.02 93.9344C143.956 93.8848 143.911 93.8149 143.892 93.7361C143.874 93.6574 143.882 93.5746 143.917 93.5014C143.952 93.4283 144.011 93.3693 144.084 93.3341C144.493 93.1381 144.998 92.82 145.08 92.4071C145.129 92.1661 145.028 91.9605 144.831 91.5878C144.633 91.24 144.477 90.8701 144.366 90.4857C144.181 89.7757 144.177 89.0306 144.353 88.3184C144.378 88.2307 144.436 88.156 144.515 88.1097C144.593 88.0634 144.687 88.0491 144.775 88.0698C144.864 88.0904 144.942 88.1444 144.992 88.2206C145.042 88.2968 145.061 88.3894 145.044 88.4791C144.892 89.0763 144.892 89.7021 145.044 90.2993C145.141 90.6329 145.278 90.9538 145.451 91.2552C145.666 91.6617 145.87 92.0456 145.772 92.5405C145.659 93.1028 145.192 93.5831 144.386 93.9671C144.342 93.9912 144.294 94.0054 144.244 94.0089Z" fill="#363E44"/>
<path d="M143.259 97.2209C142.819 97.212 142.386 97.1041 141.992 96.9053C141.599 96.7065 141.255 96.4217 140.986 96.0722C140.641 95.6286 140.445 95.0869 140.427 94.525C140.431 94.4349 140.47 94.3498 140.534 94.287C140.599 94.2241 140.685 94.1882 140.775 94.1866C140.866 94.1849 140.953 94.2177 141.02 94.2782C141.087 94.3386 141.128 94.4223 141.136 94.5122C141.152 94.921 141.297 95.3143 141.549 95.6368C141.758 95.9149 142.031 96.139 142.344 96.2907C142.658 96.4424 143.003 96.5173 143.351 96.5091C143.443 96.5067 143.533 96.5402 143.6 96.6026C143.668 96.6649 143.709 96.7512 143.715 96.8432C143.72 96.9352 143.69 97.0257 143.63 97.0956C143.569 97.1655 143.485 97.2092 143.393 97.2176C143.353 97.2209 143.306 97.2209 143.259 97.2209Z" fill="#363E44"/>
<path d="M154.882 70.905C155.089 71.434 155.398 71.9172 155.791 72.3268C156.185 72.7365 156.655 73.0645 157.175 73.2924C157.696 73.5202 158.256 73.6432 158.824 73.6545C159.392 73.6658 159.956 73.5651 160.485 73.3582C162.71 72.489 167.244 69.9844 166.374 67.7513C165.505 65.5182 159.562 64.4321 157.337 65.3013C156.268 65.719 155.409 66.5439 154.949 67.5948C154.489 68.6457 154.465 69.8363 154.882 70.905Z" fill="#363E44"/>
<path d="M123.715 71.7874C124.777 74.5041 131.616 74.2696 134.332 73.2076C135.637 72.6978 136.686 71.6906 137.248 70.4076C137.81 69.1245 137.839 67.6708 137.329 66.3661C136.819 65.0614 135.812 64.0127 134.529 63.4507C133.246 62.8886 131.793 62.8593 130.488 63.3691C127.772 64.431 122.653 69.0707 123.715 71.7874Z" fill="#363E44"/>
<path d="M151.705 65.9022C151.957 66.5481 152.334 67.1379 152.814 67.6381C153.295 68.1382 153.869 68.5388 154.504 68.817C155.139 69.0953 155.823 69.2457 156.516 69.2596C157.21 69.2736 157.899 69.1508 158.545 68.8984C161.261 67.8365 165.798 61.5548 163.995 59.4647C162.092 57.2557 157.409 57.9995 154.701 59.0615C154.055 59.3137 153.465 59.6908 152.964 60.1712C152.464 60.6515 152.064 61.2257 151.785 61.861C151.507 62.4963 151.357 63.1802 151.343 63.8736C151.329 64.567 151.452 65.2563 151.705 65.9022Z" fill="#363E44"/>
<path d="M133.499 64.3087C133.658 64.7159 133.895 65.0877 134.198 65.4031C134.501 65.7184 134.863 65.971 135.263 66.1464C135.663 66.3218 136.095 66.4167 136.532 66.4255C136.969 66.4344 137.403 66.3571 137.81 66.198C138.217 66.0389 138.589 65.8012 138.904 65.4984C139.22 65.1956 139.472 64.8337 139.648 64.4333C139.823 64.0329 139.918 63.6018 139.927 63.1648C139.936 62.7277 139.858 62.2932 139.699 61.886C139.031 60.1734 135.804 57.7089 134.091 58.3837C132.379 59.0585 132.83 62.5961 133.499 64.3087Z" fill="#363E44"/>
<path d="M138.311 65.4684C138.821 66.773 139.828 67.8218 141.111 68.3838C142.394 68.9459 143.848 68.9752 145.152 68.4654C146.457 67.9556 147.506 66.9484 148.068 65.6653C148.63 64.3823 148.659 62.9286 148.149 61.6239C147.087 58.9072 141.563 51.0527 138.848 52.1147C136.133 53.1766 137.25 62.7517 138.311 65.4684Z" fill="#363E44"/>
<path d="M138.991 75.174C140.053 77.8907 146.079 77.2336 148.79 76.1717C149.436 75.9192 150.026 75.5419 150.526 75.0614C151.026 74.5809 151.427 74.0066 151.705 73.3713C151.983 72.736 152.133 72.0522 152.147 71.3588C152.161 70.6654 152.038 69.9761 151.786 69.3302C151.533 68.6843 151.156 68.0944 150.675 67.5943C150.195 67.0942 149.621 66.6937 148.985 66.4155C148.35 66.1374 147.666 65.9871 146.973 65.9732C146.28 65.9594 145.59 66.0822 144.945 66.3347C142.233 67.3967 137.934 72.4557 138.991 75.174Z" fill="#363E44"/>
<path d="M145.3 63.2096C145.552 63.8556 145.929 64.4455 146.41 64.9458C146.89 65.446 147.464 65.8467 148.099 66.125C148.735 66.4033 149.419 66.5537 150.112 66.5677C150.805 66.5817 151.495 66.459 152.141 66.2066C152.787 65.9542 153.377 65.577 153.877 65.0965C154.377 64.6161 154.778 64.0418 155.056 63.4065C155.334 62.7712 155.485 62.0873 155.499 61.3939C155.513 60.7005 155.39 60.0111 155.137 59.3651C154.076 56.6484 149.778 52.9276 147.062 53.9879C144.345 55.0482 144.239 60.4929 145.3 63.2096Z" fill="#363E44"/>
<path d="M149.804 76.4717C150.472 78.1843 153.06 80.668 154.773 80.0061C156.485 79.3442 156.675 75.768 156.005 74.0619C155.684 73.2395 155.049 72.5785 154.24 72.2242C153.432 71.8699 152.516 71.8513 151.693 72.1726C150.871 72.4938 150.21 73.1286 149.856 73.9373C149.501 74.7459 149.483 75.6622 149.804 76.4846V76.4717Z" fill="#363E44"/>
<path d="M133.547 105.832L140.676 121.598L130.278 131.332L125.052 113.566L133.547 105.832Z" fill="white"/>
<path d="M153.643 106.977L146.514 121.809L156.912 132.48L162.087 114.886L153.643 106.977Z" fill="white"/>
<path d="M143.653 140.734C143.559 140.734 143.47 140.697 143.403 140.632C143.337 140.566 143.299 140.476 143.298 140.383L143.158 124.595C143.158 124.548 143.167 124.502 143.184 124.459C143.202 124.416 143.227 124.377 143.26 124.344C143.293 124.31 143.332 124.284 143.375 124.266C143.417 124.248 143.463 124.238 143.51 124.238C143.603 124.238 143.693 124.274 143.76 124.34C143.826 124.406 143.864 124.495 143.865 124.589L144.005 140.376C144.005 140.423 143.996 140.469 143.979 140.512C143.962 140.556 143.936 140.595 143.903 140.628C143.87 140.661 143.832 140.688 143.789 140.706C143.746 140.724 143.7 140.734 143.653 140.734Z" fill="#363E44"/>
<g clip-path="url(#clip1_6880_533183)">
<path d="M216.05 152.529C216.05 154.434 217.595 155.979 219.5 155.979C221.405 155.979 222.95 154.434 222.95 152.529C222.95 150.625 221.405 149.079 219.5 149.079C217.595 149.079 216.05 150.625 216.05 152.529Z" fill="#009B7C" stroke="white" stroke-width="0.1"/>
<path d="M219.5 154.029C218.672 154.029 218 153.358 218 152.529C218 151.701 218.672 151.029 219.5 151.029C220.328 151.029 221 151.701 221 152.529C221 153.358 220.328 154.029 219.5 154.029Z" fill="#F89D26"/>
</g>
</g>
<defs>
<clipPath id="clip0_6880_533183">
<rect width="294" height="294" fill="white"/>
</clipPath>
<clipPath id="clip1_6880_533183">
<rect width="7" height="7" fill="white" transform="matrix(-1 0 0 1 223 149)"/>
</clipPath>
</defs>
</svg>
