<svg width="294" height="294" viewBox="0 0 294 294" fill="none" xmlns="http://www.w3.org/2000/svg">
<g clip-path="url(#clip0_6880_535595)">
<path d="M147 294C228.186 294 294 228.186 294 147C294 65.8141 228.186 0 147 0C65.8141 0 0 65.8141 0 147C0 228.186 65.8141 294 147 294Z" fill="#E9FAF6"/>
<path d="M196.993 57.8809H192.843C192.475 55.8795 191.948 53.9106 191.267 51.9929L194.859 49.9188L187.837 37.754L184.239 39.8425C182.919 38.294 181.48 36.8517 179.935 35.5289L182.012 31.9286L169.85 24.9079L167.778 28.4986C165.86 27.8182 163.891 27.2917 161.89 26.9241V22.7744H147.847V26.9241C145.845 27.2917 143.875 27.8182 141.957 28.4986L139.881 24.9015L127.72 31.9222L129.799 35.5224C128.251 36.8468 126.81 38.2913 125.49 39.8425L121.891 37.754L114.871 49.9156L118.461 51.9897C117.781 53.9074 117.254 55.8763 116.887 57.8777H112.737V71.9206H116.887C117.254 73.922 117.781 75.8909 118.461 77.8086L114.869 79.8859L121.89 92.0476L125.488 89.9687C126.809 91.5154 128.25 92.9556 129.797 94.2758L127.721 97.8745L139.883 104.897L141.956 101.306C143.874 101.987 145.843 102.513 147.845 102.881V107.03H161.888V102.881C163.889 102.513 165.858 101.987 167.776 101.306L169.849 104.897L182.01 97.8745L179.935 94.2758C181.48 92.9546 182.919 91.5139 184.239 89.9671L187.837 92.0459L194.859 79.8843L191.267 77.8102C191.948 75.8925 192.475 73.9236 192.843 71.9222H196.993V57.8809ZM176.371 73.871C175.287 76.727 173.61 79.3207 171.45 81.4807C169.29 83.6408 166.696 85.3182 163.84 86.4021C144.24 93.8132 125.954 75.5289 133.364 55.9273C134.448 53.0705 136.127 50.4763 138.288 48.3161C140.45 46.156 143.045 44.4791 145.903 43.3962C165.498 35.9867 183.79 54.2694 176.371 73.871Z" fill="white"/>
<path d="M154.872 95.7814C137.843 95.7814 123.994 81.9297 123.994 64.9018C123.994 57.5132 126.643 50.3696 131.461 44.7673C136.278 39.165 142.943 35.4752 150.248 34.3675C150.27 34.3644 150.291 34.3654 150.312 34.3705C150.333 34.3757 150.352 34.3849 150.369 34.3975C150.386 34.4102 150.401 34.4262 150.412 34.4444C150.423 34.4627 150.43 34.483 150.433 34.5041C150.436 34.5252 150.435 34.5467 150.43 34.5674C150.425 34.5881 150.416 34.6076 150.403 34.6247C150.391 34.6419 150.375 34.6564 150.356 34.6674C150.338 34.6784 150.318 34.6857 150.297 34.6888C135.484 36.9123 124.315 49.9029 124.315 64.905C124.315 81.7546 138.023 95.4633 154.872 95.4633C161.638 95.4661 168.213 93.2232 173.566 89.0863C178.92 84.9495 182.748 79.1527 184.452 72.6052C184.456 72.5837 184.465 72.5633 184.478 72.5453C184.49 72.5272 184.506 72.512 184.525 72.5004C184.543 72.4888 184.564 72.4811 184.586 72.4778C184.607 72.4745 184.629 72.4757 184.651 72.4813C184.672 72.4869 184.692 72.4968 184.709 72.5104C184.726 72.5239 184.74 72.5409 184.751 72.5602C184.761 72.5794 184.768 72.6006 184.77 72.6225C184.772 72.6443 184.769 72.6663 184.762 72.6871C183.04 79.3027 179.171 85.1595 173.761 89.3391C168.352 93.5186 161.708 95.7845 154.872 95.7814Z" fill="#C5E8E0"/>
<path d="M252.38 210.574H20.6265C20.5839 210.574 20.543 210.557 20.5129 210.527C20.4827 210.497 20.4658 210.456 20.4658 210.414V61.9468C20.4658 61.9042 20.4827 61.8633 20.5129 61.8332C20.543 61.8031 20.5839 61.7861 20.6265 61.7861H252.38C252.423 61.7861 252.464 61.8031 252.494 61.8332C252.524 61.8633 252.541 61.9042 252.541 61.9468V210.42C252.539 210.461 252.522 210.501 252.492 210.529C252.462 210.558 252.422 210.574 252.38 210.574ZM20.7871 210.253H252.22V62.1074H20.7871V210.253Z" fill="#009B7C"/>
<path d="M245.077 231.645H27.9316C24.2156 231.642 20.6529 230.164 18.0253 227.536C15.3977 224.909 13.9198 221.346 13.916 217.63C13.916 217.587 13.9329 217.546 13.9631 217.516C13.9932 217.486 14.0341 217.469 14.0767 217.469H258.932C258.975 217.469 259.016 217.486 259.046 217.516C259.076 217.546 259.093 217.587 259.093 217.63C259.088 221.346 257.61 224.908 254.983 227.536C252.355 230.163 248.793 231.641 245.077 231.645ZM14.2373 217.791C14.2838 221.393 15.7465 224.833 18.3092 227.366C20.8719 229.898 24.3286 231.32 27.9316 231.324H245.077C248.68 231.321 252.137 229.899 254.699 227.366C257.262 224.833 258.724 221.393 258.77 217.791H14.2373Z" fill="#009B7C"/>
<path d="M153.184 222.845H119.823C119.781 222.845 119.74 222.828 119.71 222.798C119.68 222.768 119.663 222.727 119.663 222.684C119.663 222.641 119.68 222.601 119.71 222.57C119.74 222.54 119.781 222.523 119.823 222.523H153.184C153.226 222.523 153.267 222.54 153.297 222.57C153.327 222.601 153.344 222.641 153.344 222.684C153.344 222.727 153.327 222.768 153.297 222.798C153.267 222.828 153.226 222.845 153.184 222.845Z" fill="#009B7C"/>
<path d="M246.729 67.6812H26.3589V82.3972H246.729V67.6812Z" fill="#68C4AE"/>
<path d="M37.9148 73.3875C40.4853 76.713 36.6682 80.4708 33.2864 77.9388C30.7046 74.6133 34.5282 70.8491 37.9148 73.3875Z" fill="white"/>
<path d="M48.1165 73.3875C50.6869 76.7115 46.8698 80.4708 43.488 77.9373C40.9127 74.6133 44.7347 70.8491 48.1165 73.3875Z" fill="white"/>
<path d="M58.3181 73.3875C60.8886 76.713 57.0698 80.4708 53.688 77.9388C51.1191 74.6133 54.9443 70.8491 58.3181 73.3875Z" fill="white"/>
<path d="M246.689 82.1899H26.3186V190.618H246.689V82.1899Z" fill="#A2D8CB"/>
<path d="M107.376 94.0767H38.2729V178.641H107.376V94.0767Z" fill="#C5E8E0"/>
<path d="M186.184 111.561H119.139V116.193H186.184V111.561Z" fill="#C5E8E0"/>
<path d="M234.948 111.561H194.5V116.193H234.948V111.561Z" fill="#C5E8E0"/>
<path d="M155.155 126.524H119.139V131.156H155.155V126.524Z" fill="#C5E8E0"/>
<path d="M234.283 156.45H193.262V161.081H234.283V156.45Z" fill="#C5E8E0"/>
<path d="M234.948 126.524H163.469V131.156H234.948V126.524Z" fill="#C5E8E0"/>
<path d="M155.155 171.413H119.139V176.045H155.155V171.413Z" fill="#C5E8E0"/>
<path d="M234.283 171.413H163.469V176.045H234.283V171.413Z" fill="#C5E8E0"/>
<path d="M234.946 141.486H141.303V146.118H234.946V141.486Z" fill="#C5E8E0"/>
<path d="M217.958 97.0776H142.047V101.709H217.958V97.0776Z" fill="#C5E8E0"/>
<path d="M181.752 156.45H119.139V161.081H181.752V156.45Z" fill="#C5E8E0"/>
<path d="M241.181 283.872H261.392L265.633 230.324H240.474L241.181 283.872Z" fill="#E2A18D"/>
<path d="M226.91 290.834H262.148V274.712H243.03C238.755 274.712 234.655 276.411 231.632 279.434C228.608 282.458 226.91 286.558 226.91 290.834Z" fill="#2F2F2E"/>
<path d="M243.289 278.084C243.268 278.084 243.247 278.079 243.227 278.071C243.208 278.063 243.19 278.051 243.175 278.036L240.066 274.927C240.036 274.897 240.02 274.856 240.02 274.814C240.02 274.771 240.036 274.73 240.066 274.7C240.081 274.685 240.099 274.673 240.119 274.665C240.138 274.657 240.159 274.653 240.18 274.653C240.202 274.653 240.223 274.657 240.242 274.665C240.262 274.673 240.279 274.685 240.294 274.7L243.403 277.809C243.426 277.832 243.441 277.86 243.447 277.892C243.454 277.923 243.451 277.955 243.438 277.985C243.426 278.014 243.405 278.039 243.379 278.057C243.352 278.075 243.321 278.084 243.289 278.084Z" fill="#2F2F2E"/>
<path d="M188.672 140.045C178.115 123.747 156.348 119.1 140.047 129.655C123.746 140.21 119.099 161.985 129.657 178.282C140.214 194.58 161.987 199.231 178.285 188.671C194.584 178.11 199.234 156.34 188.672 140.045ZM176.307 185.623C161.688 195.092 142.174 190.921 132.707 176.308C123.24 161.695 127.412 142.177 142.021 132.708C156.631 123.238 176.156 127.412 185.622 142.022C195.087 156.633 190.92 176.153 176.307 185.62V185.623Z" fill="white"/>
<path d="M159.234 194.46C156.733 194.459 154.239 194.194 151.793 193.669C143.013 191.772 135.295 186.581 130.227 179.164C125.16 171.747 123.13 162.669 124.555 153.8C125.98 144.931 130.752 136.947 137.888 131.491C145.024 126.035 153.981 123.523 162.913 124.473C171.845 125.423 180.073 129.761 185.902 136.596C191.731 143.43 194.718 152.24 194.246 161.21C193.775 170.18 189.881 178.628 183.368 184.814C176.854 191 168.217 194.452 159.234 194.46ZM159.094 124.115C152.354 124.119 145.761 126.079 140.114 129.759C123.898 140.263 119.255 162.001 129.76 178.217C132.253 182.086 135.488 185.422 139.279 188.033C143.07 190.643 147.341 192.476 151.845 193.424C154.274 193.944 156.75 194.207 159.234 194.208C167.883 194.188 176.219 190.97 182.639 185.174C189.058 179.377 193.107 171.411 194.007 162.809C194.906 154.207 192.593 145.576 187.512 138.576C182.43 131.577 174.94 126.704 166.482 124.895C164.054 124.376 161.577 124.115 159.094 124.115ZM159.228 190.823C156.984 190.821 154.747 190.584 152.552 190.114C144.675 188.413 137.749 183.757 133.202 177.103C128.655 170.449 126.832 162.305 128.11 154.348C129.387 146.391 133.668 139.226 140.069 134.33C146.471 129.434 154.506 127.18 162.52 128.031C170.534 128.882 177.917 132.774 183.147 138.905C188.378 145.036 191.058 152.939 190.636 160.987C190.214 169.035 186.722 176.615 180.879 182.165C175.036 187.716 167.287 190.814 159.228 190.823ZM159.115 127.769C153.072 127.764 147.157 129.514 142.089 132.806C127.56 142.222 123.398 161.705 132.81 176.235C137.339 183.225 144.459 188.13 152.604 189.87C160.749 191.61 169.252 190.043 176.241 185.514C183.231 180.985 188.136 173.865 189.876 165.72C191.616 157.576 190.049 149.073 185.52 142.083C179.515 132.82 169.415 127.77 159.115 127.77V127.769Z" fill="#2F2F2E"/>
<path d="M200.974 222.99L200.374 223.38C199.673 223.836 198.821 223.994 198.003 223.821C197.186 223.648 196.471 223.158 196.015 222.458L184.449 204.673C184.351 204.522 184.283 204.354 184.251 204.178C184.218 204.002 184.22 203.82 184.257 203.645C184.294 203.469 184.366 203.303 184.467 203.155C184.569 203.007 184.699 202.881 184.849 202.783L188.442 200.449C188.746 200.252 189.116 200.183 189.47 200.258C189.824 200.333 190.134 200.546 190.332 200.85L201.897 218.633C202.352 219.333 202.51 220.186 202.337 221.002C202.164 221.819 201.674 222.534 200.974 222.99Z" fill="#F89D26"/>
<path d="M198.661 224.013C198.115 224.014 197.577 223.878 197.097 223.618C196.617 223.358 196.209 222.983 195.911 222.525L184.345 204.742C184.13 204.41 184.055 204.008 184.137 203.622C184.219 203.235 184.451 202.898 184.782 202.683L188.374 200.348C188.706 200.134 189.108 200.059 189.494 200.141C189.881 200.223 190.218 200.455 190.433 200.786L202 218.57C202.234 218.93 202.395 219.333 202.474 219.755C202.552 220.178 202.547 220.612 202.458 221.032C202.369 221.453 202.198 221.852 201.955 222.206C201.711 222.56 201.401 222.863 201.04 223.098L200.441 223.488C199.911 223.832 199.292 224.014 198.661 224.013ZM189.184 200.35C188.944 200.35 188.709 200.42 188.508 200.551L184.915 202.885C184.778 202.974 184.659 203.089 184.567 203.223C184.474 203.358 184.409 203.509 184.374 203.669C184.34 203.829 184.338 203.993 184.367 204.154C184.397 204.315 184.458 204.468 184.546 204.605L196.113 222.389C196.551 223.062 197.238 223.534 198.024 223.7C198.809 223.866 199.629 223.714 200.302 223.276L200.901 222.886C201.575 222.449 202.047 221.761 202.213 220.976C202.38 220.19 202.227 219.371 201.79 218.697L190.228 200.917C190.14 200.78 190.025 200.661 189.891 200.569C189.756 200.476 189.604 200.411 189.444 200.378C189.359 200.359 189.272 200.349 189.184 200.347V200.35Z" fill="#2F2F2E"/>
<path d="M188.323 200.544L184.985 202.715L177.847 191.771L181.184 189.599L188.323 200.544Z" fill="#F89D26"/>
<path d="M184.949 202.883L177.676 191.733L181.22 189.428L188.494 200.578L184.949 202.883ZM178.016 191.805L185.018 202.544L188.151 200.506L181.148 189.767L178.016 191.805Z" fill="#2F2F2E"/>
<path d="M192.545 208.302C192.525 208.302 192.505 208.297 192.487 208.288C192.469 208.278 192.454 208.265 192.443 208.248L188.56 202.414C188.551 202.401 188.544 202.385 188.541 202.37C188.538 202.354 188.538 202.337 188.541 202.322C188.545 202.306 188.551 202.291 188.56 202.277C188.569 202.264 188.581 202.252 188.594 202.243C188.608 202.234 188.623 202.228 188.639 202.225C188.654 202.222 188.671 202.222 188.687 202.225C188.702 202.228 188.717 202.235 188.731 202.244C188.744 202.253 188.756 202.264 188.765 202.278L192.648 208.112C192.666 208.139 192.672 208.172 192.666 208.204C192.659 208.235 192.641 208.263 192.614 208.281C192.593 208.295 192.569 208.302 192.545 208.302Z" fill="#2F2F2E"/>
<path d="M190.515 209.641C190.495 209.641 190.475 209.636 190.457 209.626C190.44 209.617 190.424 209.603 190.413 209.587L186.53 203.752C186.521 203.739 186.515 203.724 186.512 203.708C186.508 203.692 186.509 203.676 186.512 203.66C186.515 203.644 186.521 203.629 186.53 203.616C186.539 203.602 186.551 203.591 186.564 203.582C186.578 203.573 186.593 203.566 186.609 203.563C186.625 203.56 186.641 203.56 186.657 203.563C186.673 203.567 186.688 203.573 186.701 203.582C186.715 203.591 186.726 203.603 186.735 203.616L190.617 209.45C190.629 209.469 190.636 209.49 190.637 209.512C190.638 209.534 190.633 209.556 190.623 209.576C190.612 209.595 190.597 209.612 190.578 209.623C190.559 209.634 190.537 209.64 190.515 209.641Z" fill="#2F2F2E"/>
<path d="M239.755 279.144C239.733 279.144 239.712 279.14 239.693 279.132C239.673 279.123 239.655 279.111 239.641 279.096L236.532 275.987C236.505 275.957 236.492 275.917 236.493 275.877C236.495 275.836 236.512 275.798 236.54 275.769C236.569 275.741 236.607 275.724 236.648 275.722C236.688 275.721 236.728 275.734 236.758 275.761L239.869 278.87C239.891 278.892 239.907 278.921 239.913 278.952C239.919 278.983 239.916 279.016 239.904 279.045C239.892 279.075 239.871 279.1 239.844 279.117C239.818 279.135 239.786 279.144 239.755 279.144Z" fill="#2F2F2E"/>
<path d="M190.724 277.173L210.265 280.616L221.88 234.869L197.083 230.623L190.724 277.173Z" fill="#E2A18D"/>
<path d="M176.561 290.834H211.797V274.712H192.679C188.404 274.713 184.304 276.412 181.281 279.435C178.259 282.458 176.561 286.559 176.561 290.834Z" fill="#2F2F2E"/>
<path d="M192.936 278.084C192.915 278.084 192.894 278.08 192.875 278.071C192.855 278.063 192.837 278.051 192.822 278.036L189.714 274.927C189.697 274.913 189.683 274.895 189.673 274.875C189.664 274.855 189.658 274.834 189.658 274.811C189.657 274.789 189.66 274.767 189.669 274.747C189.677 274.726 189.689 274.707 189.705 274.692C189.72 274.676 189.739 274.664 189.76 274.656C189.78 274.648 189.802 274.644 189.824 274.645C189.846 274.646 189.868 274.651 189.888 274.661C189.908 274.67 189.926 274.684 189.94 274.701L193.05 277.809C193.073 277.832 193.089 277.861 193.095 277.892C193.101 277.923 193.098 277.956 193.086 277.985C193.073 278.015 193.053 278.04 193.026 278.057C193 278.075 192.968 278.084 192.936 278.084Z" fill="#2F2F2E"/>
<path d="M189.402 279.144C189.381 279.144 189.359 279.14 189.34 279.132C189.32 279.123 189.303 279.111 189.288 279.096L186.179 275.987C186.153 275.957 186.139 275.917 186.141 275.877C186.142 275.836 186.159 275.798 186.187 275.769C186.216 275.741 186.254 275.724 186.295 275.722C186.335 275.721 186.375 275.734 186.406 275.761L189.516 278.87C189.546 278.9 189.563 278.94 189.563 278.983C189.563 279.025 189.546 279.066 189.516 279.096C189.501 279.111 189.483 279.123 189.464 279.132C189.444 279.14 189.423 279.144 189.402 279.144Z" fill="#2F2F2E"/>
<path d="M264.316 142.616C269.529 156.516 272.348 173.14 272.752 188.684C273.073 200.699 269.63 227.376 265.467 268.065H239.555C238.752 246.538 240.771 214.394 239.967 192.859C233.172 214.278 219.512 252.71 213.574 267.725H191.943C193.15 247.733 193.924 225.273 198.464 211.385C201.114 203.276 216.247 156.058 223.665 141.629C239.006 141.891 250.522 142.524 264.316 142.616Z" fill="#2F2F2E"/>
<path d="M229.693 88.1518C230.442 87.1482 230.883 85.9479 230.96 84.6977C230.029 85.8582 228.793 86.737 227.391 87.2361C226.772 87.4521 226.128 87.5903 225.476 87.6473C224.303 86.1697 223.381 84.5102 222.744 82.7345C227.082 83.7627 228.746 83.0269 229.473 82.169C230.631 80.797 229.431 79.0458 230.719 77.5694C232.279 75.7813 234.986 77.2674 236.617 75.407C237.719 74.1507 237.721 71.6187 238.564 70.1777C239.339 68.8555 240.54 68.931 245.713 69.0756C245.155 76.9702 244.599 84.8653 244.044 92.761C243.08 93.1032 236.424 95.362 229.927 91.5449C229.109 91.0626 228.336 90.5077 227.617 89.8869C228.43 89.471 229.139 88.8781 229.693 88.1518Z" fill="#2F2F2E"/>
<path d="M248.374 71.0984C247.98 70.8912 244.177 68.9537 240.704 70.6711C238.119 71.9563 236.848 74.432 235.359 78.9175C233.592 84.1999 233.285 87.6026 234.349 89.2236C236.027 91.7941 244.502 91.076 248.968 87.6701C252.199 85.212 253.693 80.9514 252.999 76.9238C252.305 72.8962 248.62 71.2318 248.374 71.0984Z" fill="#E2A18D"/>
<path d="M243.303 105.686H243.666C246.287 105.686 248.411 103.562 248.411 100.941V86.3185C248.411 83.6984 246.287 81.5743 243.666 81.5743H243.303C240.683 81.5743 238.559 83.6984 238.559 86.3185V100.941C238.559 103.562 240.683 105.686 243.303 105.686Z" fill="#E2A18D"/>
<path d="M238.464 91.2719C238.368 91.2719 238.272 91.2719 238.175 91.2719C238.133 91.2719 238.092 91.255 238.062 91.2249C238.032 91.1948 238.015 91.1539 238.015 91.1113C238.015 91.0687 238.032 91.0278 238.062 90.9977C238.092 90.9676 238.133 90.9506 238.175 90.9506C241.549 91.0374 246.239 89.5417 248.864 87.5448C248.898 87.5212 248.939 87.5116 248.98 87.5181C249.021 87.5246 249.058 87.5466 249.083 87.5795C249.108 87.6124 249.12 87.6537 249.115 87.6949C249.11 87.736 249.09 87.7737 249.058 87.8002C246.468 89.7762 241.874 91.2719 238.464 91.2719Z" fill="#2F2F2E"/>
<path d="M244.859 80.511C244.007 79.8678 243.023 79.4212 241.978 79.2033C241.628 79.1358 241.756 82.0726 242.121 81.9762C243.129 81.691 244.062 81.1911 244.859 80.511Z" fill="white"/>
<path d="M240.876 79.1115C241.245 79.1021 241.613 79.1333 241.975 79.2047C242.235 79.6151 242.385 80.0854 242.41 80.5704C242.436 81.0555 242.336 81.5389 242.121 81.9744C241.744 82.0759 241.356 82.1342 240.966 82.1479C238.792 82.2122 236.983 80.7486 236.983 80.7486C236.983 80.7486 238.701 79.1774 240.876 79.1115Z" fill="#2F2F2E"/>
<path d="M237.351 85.8322C237.161 85.8302 236.973 85.7859 236.802 85.7025C236.631 85.6191 236.48 85.4988 236.361 85.3502C236.335 85.3173 236.322 85.2752 236.326 85.2331C236.331 85.191 236.351 85.1523 236.384 85.1253C236.4 85.1118 236.419 85.1018 236.439 85.0956C236.46 85.0895 236.481 85.0874 236.502 85.0895C236.523 85.0916 236.543 85.0978 236.562 85.1078C236.581 85.1178 236.597 85.1314 236.611 85.1478C236.735 85.3047 236.906 85.4177 237.099 85.47C237.292 85.5224 237.497 85.5113 237.684 85.4386C238.14 85.2426 238.215 84.706 238.215 84.7011C238.218 84.6801 238.225 84.6598 238.235 84.6414C238.246 84.623 238.26 84.6068 238.276 84.5938C238.293 84.5809 238.312 84.5713 238.333 84.5657C238.353 84.5601 238.374 84.5587 238.395 84.5614C238.416 84.5639 238.437 84.5707 238.455 84.5811C238.474 84.5916 238.49 84.6056 238.503 84.6223C238.516 84.639 238.525 84.6581 238.531 84.6785C238.536 84.699 238.538 84.7203 238.535 84.7413C238.535 84.7718 238.434 85.4675 237.809 85.7342C237.665 85.7976 237.509 85.8309 237.351 85.8322Z" fill="#2F2F2E"/>
<path d="M234.842 82.829C234.819 82.8288 234.796 82.8236 234.774 82.8136C234.753 82.8036 234.735 82.7891 234.72 82.7712C234.288 82.2667 234.138 81.8635 234.262 81.5422C234.349 81.3582 234.499 81.212 234.686 81.1309C234.84 81.0464 234.983 80.944 235.113 80.8257C235.349 80.598 235.525 80.3161 235.626 80.0047C235.641 79.9659 235.67 79.9344 235.708 79.9169C235.746 79.8993 235.789 79.8971 235.828 79.9106C235.867 79.9241 235.9 79.9524 235.919 79.9894C235.938 80.0264 235.942 80.0693 235.929 80.1091C235.812 80.4697 235.607 80.7957 235.333 81.0586C235.187 81.1935 235.025 81.3105 234.851 81.4072C234.691 81.5052 234.601 81.5566 234.564 81.6563C234.488 81.8539 234.627 82.1671 234.966 82.5639C234.986 82.5873 234.998 82.6159 235.003 82.6463C235.007 82.6767 235.002 82.7077 234.989 82.7356C234.977 82.7635 234.956 82.7871 234.93 82.8037C234.904 82.8202 234.874 82.829 234.843 82.829H234.842Z" fill="#2F2F2E"/>
<path d="M251.611 104.631C251.611 104.631 253.362 96.4553 251.918 88.1108C251.918 88.1108 243.842 95.8609 233.004 95.983C233.004 95.983 233.844 103.442 237.43 105.661C241.016 107.88 251.611 104.631 251.611 104.631Z" fill="#009B7C"/>
<path d="M239.698 67.9687C243.355 66.9228 246.076 69.0435 246.276 69.217C249.442 68.2948 252.495 68.584 253.838 69.9657C256.374 72.5747 255.105 75.4569 256.601 78.1029C257.907 80.4115 260.364 79.5488 261.438 81.9281C262.311 83.856 261.278 86.4056 262.129 88.2804C262.984 90.1794 264.586 90.5794 266.658 91.1176C265.718 92.5217 263.949 93.9082 261.999 95.0006C261.178 94.6629 260.448 94.1381 259.866 93.468C259.061 92.5297 258.577 91.359 258.484 90.1263C257.96 91.1907 257.804 92.3987 258.04 93.5612C258.259 94.563 258.767 95.4786 259.501 96.1943C258.379 96.6634 257.199 96.9821 255.994 97.1422C252.207 97.5438 248.433 97.9455 244.574 95.2143C249.11 92.7386 246.905 90.573 247.05 88.0169C247.191 85.5043 248.888 85.2521 248.555 82.5755C248.358 80.9786 245.964 81.3979 246.512 75.828C246.091 76.5574 245.669 77.2867 245.246 78.0161C243.614 77.8535 242.019 77.4259 240.524 76.7502C240.364 76.6779 240.216 76.604 240.065 76.5301C239.985 75.9082 240.04 75.2766 240.225 74.6777C240.505 73.7705 241.068 72.9767 241.832 72.4124C240.924 72.5049 240.073 72.8966 239.412 73.5258C238.861 74.0641 238.476 74.7503 238.306 75.5019C236.907 74.5505 235.674 73.3772 234.654 72.0285C234.696 71.8486 235.875 69.0628 239.698 67.9687Z" fill="#2F2F2E"/>
<path d="M245.238 81.2373C243.806 82.5402 243.54 84.5773 244.64 85.7871C245.741 86.9968 247.795 86.9213 249.225 85.6184C250.655 84.3155 250.925 82.2784 249.823 81.0686C248.721 79.8589 246.669 79.9344 245.238 81.2373Z" fill="#E2A18D"/>
<path d="M247.959 84.9212C247.924 84.9216 247.89 84.9106 247.862 84.8897C247.833 84.8688 247.813 84.8393 247.803 84.8055C247.793 84.7718 247.794 84.7358 247.807 84.703C247.82 84.6702 247.843 84.6424 247.872 84.6239C247.966 84.564 248.055 84.4963 248.138 84.4215C248.452 84.1428 248.658 83.7623 248.721 83.3467C248.749 83.1673 248.738 82.9837 248.688 82.8091C248.638 82.6344 248.549 82.473 248.43 82.3362C248.309 82.2044 248.16 82.1026 247.993 82.039C247.972 82.0326 247.952 82.0218 247.935 82.0075C247.919 81.9931 247.905 81.9755 247.895 81.9556C247.886 81.9357 247.88 81.9141 247.879 81.892C247.878 81.8699 247.882 81.8479 247.89 81.8273C247.898 81.8067 247.91 81.7879 247.925 81.7722C247.941 81.7565 247.96 81.7442 247.98 81.736C248.001 81.7278 248.023 81.724 248.045 81.7247C248.067 81.7254 248.089 81.7307 248.109 81.7402C248.322 81.8217 248.514 81.9521 248.668 82.1209C248.819 82.2917 248.931 82.494 248.995 82.7131C249.059 82.9323 249.074 83.1629 249.039 83.3885C248.967 83.8798 248.724 84.33 248.353 84.6593C248.257 84.7466 248.155 84.8256 248.046 84.8955C248.02 84.9115 247.99 84.9203 247.959 84.9212Z" fill="#2F2F2E"/>
<path d="M291.057 135.517C293.361 119.794 273.427 98.9406 243.697 97.5076C228.043 96.7525 205.909 108.954 205.909 108.954L200.569 96.0713L174.771 117.201C174.771 117.201 193.74 130.214 200.569 132.506C206.851 134.616 220.282 123.992 220.282 123.992L218.05 147.875L273.247 142.546L269.07 125.176L256.683 126.84L269.606 160.817C269.606 160.817 289.69 144.845 291.057 135.517Z" fill="#009B7C"/>
<path d="M207.815 115.511C207.779 115.513 207.744 115.503 207.715 115.483C207.686 115.462 207.665 115.433 207.654 115.399C207.289 114.218 207.011 113.285 206.777 112.461C206.396 111.153 206.121 110.211 205.75 109.247C205.743 109.228 205.739 109.207 205.74 109.186C205.74 109.165 205.745 109.144 205.754 109.125C205.763 109.105 205.775 109.088 205.79 109.074C205.806 109.059 205.824 109.048 205.843 109.04C205.863 109.033 205.884 109.029 205.905 109.03C205.926 109.03 205.947 109.035 205.966 109.044C205.986 109.053 206.003 109.065 206.017 109.08C206.032 109.096 206.043 109.114 206.051 109.133C206.427 110.113 206.703 111.061 207.085 112.379C207.325 113.201 207.598 114.135 207.961 115.311C207.967 115.331 207.97 115.352 207.968 115.373C207.966 115.395 207.96 115.415 207.95 115.434C207.94 115.453 207.927 115.47 207.91 115.483C207.894 115.497 207.875 115.507 207.855 115.513C207.841 115.514 207.828 115.514 207.815 115.511Z" fill="#2F2F2E"/>
<path d="M256.667 129.689C256.624 129.693 256.582 129.68 256.549 129.653C256.516 129.625 256.495 129.586 256.492 129.543C256.488 129.501 256.501 129.458 256.528 129.425C256.556 129.393 256.595 129.372 256.638 129.368C260.208 128.726 280.227 124.944 282.561 124.462C282.604 124.453 282.648 124.462 282.684 124.486C282.72 124.51 282.746 124.548 282.754 124.59C282.763 124.633 282.754 124.677 282.73 124.713C282.706 124.749 282.668 124.774 282.626 124.783C280.29 125.265 260.265 129.04 256.696 129.691L256.667 129.689Z" fill="#2F2F2E"/>
<path d="M200.569 96.2987C200.569 96.2987 198.94 91.9883 198.506 90.9312C198.277 90.3286 197.962 89.7621 197.571 89.2491C195.581 86.6642 192.869 87.2747 189.538 85.5107C185.755 83.5105 184.757 80.2412 183.744 80.6508C183.04 80.9352 183.069 82.2751 184.118 84.762C183.103 82.9643 181.621 80.585 180.628 81.1489C179.518 81.8606 180.93 84.86 181.875 86.632C180.733 84.4873 179.483 83.6872 179.009 84.1403C178.262 84.852 178.76 86.722 180.379 89.4981C178.725 87.8916 178.085 87.7502 177.762 88.2531C177.174 89.1688 178.548 91.426 180.069 93.2334C181.782 95.2705 183.816 96.2569 185.114 96.8481C186.118 100.468 187.827 106.663 187.827 106.663L200.569 96.2987Z" fill="#E2A18D"/>
<path d="M192.215 87.8353C190.93 83.8029 191.312 82.0742 191.956 81.891C193.042 81.581 195.557 84.5724 198.188 90.2275C196.464 89.7102 193.939 88.3607 192.215 87.8353Z" fill="#E2A18D"/>
<path d="M191.646 95.0279C191.611 95.0295 191.576 95.0193 191.547 94.999C191.518 94.9786 191.496 94.9492 191.486 94.9154C191.175 93.9301 190.582 93.058 189.779 92.4076C188.74 91.5888 187.437 91.178 186.116 91.2524C186.074 91.255 186.032 91.2405 186 91.2122C185.968 91.1839 185.949 91.144 185.946 91.1014C185.944 91.0588 185.958 91.0169 185.986 90.985C186.015 90.9531 186.054 90.9337 186.097 90.9311C187.498 90.8515 188.88 91.287 189.982 92.1553C190.833 92.8462 191.463 93.7718 191.792 94.8174C191.805 94.8579 191.801 94.9017 191.782 94.9393C191.762 94.9769 191.728 95.0053 191.688 95.0182C191.674 95.0231 191.66 95.0263 191.646 95.0279Z" fill="#2F2F2E"/>
<path d="M195.86 88.0876C195.833 88.0877 195.807 88.0811 195.783 88.0683C194.98 87.6329 194.091 87.3936 193.142 87.1381C192.687 87.0176 192.218 86.8907 191.73 86.7381C191.689 86.7253 191.655 86.6969 191.635 86.6591C191.616 86.6212 191.612 86.5771 191.625 86.5365C191.637 86.4958 191.666 86.4618 191.704 86.4421C191.741 86.4223 191.786 86.4184 191.826 86.4312C192.308 86.5822 192.774 86.7076 193.226 86.828C194.189 87.0883 195.108 87.3325 195.937 87.792C195.975 87.8124 196.002 87.8466 196.014 87.8872C196.026 87.9278 196.022 87.9716 196.002 88.0089C195.987 88.0333 195.966 88.0535 195.942 88.0673C195.917 88.0812 195.889 88.0882 195.86 88.0876Z" fill="#2F2F2E"/>
<path d="M186.976 87.4964C186.948 87.4961 186.92 87.4883 186.896 87.4739C185.778 86.8249 184.822 85.9299 184.102 84.8568C184.09 84.8393 184.082 84.8196 184.077 84.7989C184.073 84.7782 184.073 84.7569 184.077 84.7361C184.081 84.7154 184.089 84.6957 184.101 84.678C184.113 84.6604 184.128 84.6453 184.145 84.6335C184.163 84.6217 184.182 84.6134 184.203 84.6092C184.224 84.605 184.245 84.6049 184.266 84.6089C184.286 84.6129 184.306 84.621 184.324 84.6327C184.341 84.6443 184.357 84.6593 184.368 84.6769C185.062 85.7097 185.981 86.5711 187.056 87.1959C187.087 87.2135 187.111 87.2408 187.125 87.2736C187.139 87.3064 187.141 87.3428 187.132 87.3772C187.123 87.4116 187.103 87.4419 187.074 87.4635C187.046 87.485 187.011 87.4966 186.976 87.4964Z" fill="#2F2F2E"/>
<path d="M184.593 89.0836C184.565 89.0833 184.537 89.0755 184.513 89.0611C183.395 88.4121 182.44 87.5171 181.719 86.444C181.707 86.4264 181.699 86.4067 181.695 86.3859C181.691 86.3651 181.691 86.3438 181.695 86.323C181.699 86.3022 181.708 86.2825 181.72 86.265C181.731 86.2474 181.747 86.2324 181.764 86.2207C181.799 86.1973 181.842 86.1887 181.884 86.1968C181.925 86.205 181.962 86.2291 181.986 86.2641C182.393 86.8723 182.879 87.4239 183.432 87.9044C183.815 88.235 184.229 88.5292 184.667 88.7832C184.698 88.8008 184.723 88.8282 184.736 88.8612C184.75 88.8942 184.753 88.9308 184.743 88.9652C184.734 88.9997 184.713 89.03 184.685 89.0515C184.656 89.0729 184.621 89.0842 184.585 89.0836H184.593Z" fill="#2F2F2E"/>
<path d="M183.167 92.2565C183.139 92.2567 183.111 92.2495 183.087 92.2356C181.97 91.5853 181.015 90.6906 180.293 89.6186C180.281 89.6011 180.273 89.5814 180.268 89.5607C180.264 89.54 180.264 89.5187 180.268 89.4979C180.272 89.4772 180.28 89.4574 180.292 89.4398C180.304 89.4222 180.319 89.4071 180.336 89.3953C180.354 89.3834 180.373 89.3752 180.394 89.3709C180.415 89.3667 180.436 89.3666 180.457 89.3706C180.477 89.3747 180.497 89.3827 180.515 89.3944C180.532 89.4061 180.548 89.4211 180.559 89.4386C181.253 90.4715 182.172 91.3329 183.247 91.9577C183.277 91.9756 183.301 92.0029 183.314 92.0353C183.327 92.0678 183.33 92.1037 183.32 92.1376C183.311 92.1715 183.291 92.2014 183.264 92.2229C183.236 92.2444 183.202 92.2562 183.167 92.2565Z" fill="#2F2F2E"/>
<path d="M256.667 129.529C256.667 129.529 237.035 134.053 237.335 136.5C237.48 137.669 240.699 137.065 241.781 136.821C241.001 137.443 239.353 138.601 239.853 139.825C240.436 141.263 243.083 140.307 243.169 140.317C242.312 140.866 241.014 142.004 241.35 142.936C241.787 144.148 243.414 144.131 244.549 143.798C244.475 143.988 243.189 145.257 243.488 145.988C243.819 146.791 245.256 146.952 246.701 146.767C249.453 146.197 262.632 143.748 262.632 143.748L256.667 129.529Z" fill="#E2A18D"/>
<path d="M241.72 136.879C241.685 136.879 241.65 136.867 241.623 136.846C241.595 136.825 241.574 136.796 241.565 136.762C241.555 136.729 241.557 136.693 241.569 136.66C241.582 136.627 241.605 136.6 241.634 136.581C242.205 136.228 242.8 135.914 243.414 135.643C244.518 135.157 245.678 134.807 246.867 134.604C246.888 134.6 246.91 134.601 246.93 134.606C246.951 134.611 246.971 134.62 246.988 134.632C247.006 134.645 247.02 134.66 247.032 134.678C247.043 134.697 247.051 134.717 247.054 134.738C247.058 134.759 247.057 134.781 247.052 134.801C247.047 134.822 247.038 134.842 247.026 134.859C247.013 134.877 246.998 134.891 246.979 134.903C246.961 134.914 246.941 134.922 246.92 134.925C245.758 135.125 244.625 135.467 243.546 135.942C242.946 136.207 242.364 136.514 241.806 136.859C241.78 136.874 241.75 136.88 241.72 136.879Z" fill="#2F2F2E"/>
<path d="M243.085 140.413C243.049 140.413 243.014 140.4 242.985 140.378C242.957 140.355 242.937 140.323 242.929 140.288C242.921 140.253 242.925 140.216 242.941 140.183C242.957 140.15 242.983 140.124 243.016 140.108C243.143 140.047 243.273 139.987 243.406 139.928C244.51 139.441 245.669 139.093 246.857 138.89C246.878 138.886 246.899 138.887 246.92 138.891C246.941 138.896 246.96 138.905 246.977 138.917C246.995 138.929 247.009 138.944 247.021 138.962C247.032 138.98 247.04 139 247.044 139.02C247.047 139.041 247.047 139.063 247.042 139.083C247.037 139.104 247.029 139.124 247.017 139.141C247.004 139.158 246.989 139.173 246.971 139.184C246.953 139.196 246.933 139.203 246.912 139.207C245.75 139.405 244.617 139.747 243.538 140.222C243.408 140.28 243.281 140.338 243.157 140.397C243.135 140.408 243.11 140.414 243.085 140.413Z" fill="#2F2F2E"/>
<path d="M244.611 143.917C244.574 143.916 244.537 143.903 244.509 143.878C244.48 143.854 244.461 143.82 244.455 143.783C244.448 143.746 244.455 143.708 244.474 143.675C244.493 143.643 244.523 143.618 244.558 143.605C245.305 143.35 246.071 143.154 246.849 143.02C246.87 143.017 246.892 143.017 246.913 143.022C246.934 143.027 246.953 143.036 246.971 143.048C246.988 143.06 247.003 143.076 247.015 143.094C247.026 143.112 247.034 143.133 247.037 143.154C247.041 143.175 247.04 143.196 247.035 143.217C247.031 143.238 247.022 143.258 247.009 143.275C246.997 143.293 246.981 143.308 246.963 143.319C246.945 143.33 246.925 143.338 246.904 143.342C246.143 143.472 245.393 143.663 244.663 143.914C244.646 143.918 244.628 143.919 244.611 143.917Z" fill="#2F2F2E"/>
<g clip-path="url(#clip1_6880_535595)">
<path d="M248.05 111.529C248.05 113.434 249.595 114.979 251.5 114.979C253.405 114.979 254.95 113.434 254.95 111.529C254.95 109.625 253.405 108.079 251.5 108.079C249.595 108.079 248.05 109.625 248.05 111.529Z" fill="#009B7C" stroke="white" stroke-width="0.1"/>
<path d="M251.5 113.029C250.672 113.029 250 112.358 250 111.529C250 110.701 250.672 110.029 251.5 110.029C252.328 110.029 253 110.701 253 111.529C253 112.358 252.328 113.029 251.5 113.029Z" fill="#F89D26"/>
</g>
<g clip-path="url(#clip2_6880_535595)">
<path d="M44.3442 255.329L44.1451 255.274C42.888 254.922 41.5806 255.651 41.2249 256.902L37.5167 269.945C37.161 271.196 37.8918 272.495 39.1489 272.847L39.348 272.902C40.6051 273.254 41.9126 272.525 42.2682 271.274L45.9764 258.231C46.3321 256.98 45.6013 255.681 44.3442 255.329Z" fill="#F89D26"/>
<path d="M93.0308 264.522L93.2047 264.41C94.3029 263.704 94.6193 262.247 93.9116 261.156L86.5324 249.78C85.8247 248.689 84.3607 248.376 83.2625 249.082L83.0886 249.194C81.9905 249.9 81.674 251.357 82.3818 252.448L89.7609 263.824C90.4687 264.915 91.9327 265.227 93.0308 264.522Z" fill="#F89D26"/>
<path d="M80.5866 170.53L80.7661 170.617C81.8897 171.165 83.2481 170.702 83.8002 169.583L97.7827 141.255C98.3348 140.136 97.8715 138.786 96.7479 138.239L96.5684 138.151C95.4448 137.604 94.0864 138.067 93.5344 139.186L79.5518 167.514C78.9998 168.632 79.4631 169.983 80.5866 170.53Z" fill="#F5AB49"/>
<path d="M105.206 165.076L68.6664 147.285L68.9552 146.7C70.697 143.169 73.7761 140.47 77.5153 139.194C81.2545 137.919 85.3474 138.173 88.8937 139.899L98.691 144.67C102.237 146.396 104.946 149.455 106.222 153.172C107.498 156.889 107.237 160.96 105.495 164.491L105.206 165.076Z" fill="#F89D26"/>
<path d="M4.73643 155.959L4.877 155.82C5.30488 155.399 5.88334 155.163 6.48511 155.165C7.08688 155.168 7.66268 155.408 8.08584 155.833L30.3779 178.217C30.8011 178.642 31.037 179.217 31.0336 179.815C31.0303 180.414 30.788 180.987 30.3602 181.409L30.2196 181.547C29.7921 181.968 29.2143 182.204 28.6131 182.201C28.0119 182.199 27.4367 181.959 27.014 181.535L4.71866 159.147C4.29593 158.723 4.06032 158.148 4.06365 157.551C4.06699 156.953 4.30899 156.38 4.73643 155.959Z" fill="#F5AB49"/>
<path d="M4.93202 162.643L12.6916 154.994C15.5002 152.226 19.2977 150.679 23.2486 150.693C27.1994 150.708 30.98 152.283 33.7587 155.072L34.2195 155.535L5.27644 184.064L4.81565 183.601C3.43952 182.22 2.3509 180.582 1.61196 178.781C0.873029 176.98 0.498261 175.051 0.509067 173.105C0.519872 171.159 0.916031 169.233 1.67493 167.438C2.43383 165.643 3.5406 164.013 4.93202 162.643Z" fill="#F89D26"/>
<path d="M69.9959 259.235C98.3395 254.974 117.878 228.648 113.637 200.433C109.395 172.219 82.9795 152.8 54.6359 157.061C26.2923 161.322 6.75363 187.649 10.9952 215.863C15.2367 244.078 41.6522 263.496 69.9959 259.235Z" fill="#F89D26"/>
<path d="M66.7784 260.228C38.2032 264.523 11.4763 244.877 7.20007 216.432C2.92382 187.986 22.6933 161.352 51.2685 157.057C79.8437 152.761 106.568 172.407 110.843 200.842C115.117 229.276 95.3513 255.932 66.7784 260.228ZM51.4184 158.054C23.3957 162.266 4.00262 188.388 8.19457 216.273C12.3865 244.158 38.595 263.433 66.6177 259.221C94.6404 255.008 114.022 228.888 109.829 200.994C105.635 173.1 79.4388 153.841 51.4184 158.054Z" fill="#2F2F2E"/>
<path d="M69.6177 253.255C94.5973 249.5 111.817 226.299 108.079 201.433C104.341 176.567 81.0606 159.454 56.0809 163.209C31.1013 166.965 13.8816 190.166 17.6197 215.032C21.3578 239.897 44.6381 257.011 69.6177 253.255Z" fill="#F7F1EB"/>
<path d="M68.4757 243.772C48.6791 246.748 30.1624 233.136 27.1995 213.427C24.2366 193.718 37.9339 175.271 57.7305 172.295C77.5272 169.319 96.0461 182.93 99.0087 202.637C101.971 222.343 88.2746 240.795 68.4757 243.772ZM57.8797 173.288C38.6356 176.181 25.3222 194.119 28.2022 213.277C31.0821 232.434 49.0813 245.665 68.3255 242.772C87.5696 239.879 100.885 221.94 98.0053 202.783C95.1254 183.626 77.1239 170.395 57.8797 173.288Z" fill="#DDDDDD"/>
<path d="M63.2265 212.705C65.4089 212.377 66.9133 210.349 66.5866 208.177C66.26 206.004 64.226 204.509 62.0436 204.837C59.8612 205.165 58.3568 207.192 58.6835 209.365C59.0101 211.538 61.0441 213.033 63.2265 212.705Z" fill="#363E44"/>
<path d="M37.3612 190.336L37.3234 190.386C37.0771 190.706 37.1381 191.164 37.4596 191.408L61.3327 209.562C61.6542 209.807 62.1145 209.745 62.3609 209.425L62.3986 209.376C62.6449 209.056 62.584 208.598 62.2625 208.354L38.3893 190.199C38.0678 189.955 37.6075 190.016 37.3612 190.336Z" fill="#363E44"/>
<path d="M80.148 197.436L80.09 197.354C79.7246 196.836 79.0063 196.712 78.4856 197.076L61.6553 208.849C61.1346 209.213 61.0086 209.928 61.3739 210.445L61.432 210.527C61.7974 211.045 62.5157 211.169 63.0364 210.805L79.8667 199.032C80.3874 198.668 80.5134 197.953 80.148 197.436Z" fill="#363E44"/>
<path d="M104.831 201.998C104.669 200.911 103.653 200.162 102.562 200.325C101.47 200.487 100.717 201.5 100.878 202.586C101.04 203.673 102.056 204.422 103.148 204.259C104.239 204.097 104.993 203.084 104.831 201.998Z" fill="#009B7C"/>
<path d="M22.7693 216.193C23.8603 216.028 24.6111 215.013 24.4463 213.927C24.2814 212.841 23.2634 212.094 22.1724 212.26C21.0814 212.425 20.3307 213.44 20.4955 214.526C20.6603 215.612 21.6784 216.359 22.7693 216.193Z" fill="#009B7C"/>
<path d="M57.2411 169.215C58.3323 169.051 59.0845 168.037 58.9211 166.951C58.7578 165.864 57.7408 165.117 56.6496 165.281C55.5584 165.445 54.8062 166.458 54.9695 167.545C55.1329 168.631 56.1498 169.379 57.2411 169.215Z" fill="#009B7C"/>
<path d="M70.9559 247.99C70.7941 246.904 69.7781 246.155 68.6867 246.317C67.5953 246.48 66.8417 247.492 67.0034 248.579C67.1652 249.666 68.1812 250.415 69.2726 250.252C70.364 250.09 71.1176 249.077 70.9559 247.99Z" fill="#009B7C"/>
</g>
</g>
<defs>
<clipPath id="clip0_6880_535595">
<rect width="294" height="294" fill="white"/>
</clipPath>
<clipPath id="clip1_6880_535595">
<rect width="7" height="7" fill="white" transform="matrix(-1 0 0 1 255 108)"/>
</clipPath>
<clipPath id="clip2_6880_535595">
<rect width="108" height="127" fill="white" transform="translate(-3 151.056) rotate(-8.54933)"/>
</clipPath>
</defs>
</svg>
