<svg width="326" height="278" viewBox="0 0 326 278" fill="none" xmlns="http://www.w3.org/2000/svg">
<g clip-path="url(#clip0_9240_23307)">
<path d="M154.066 278.019C77.2189 278.019 14.922 215.783 14.922 139.01C14.922 62.2368 77.2189 0 154.066 0C230.913 0 293.21 62.2368 293.21 139.01C293.21 215.783 230.913 278.019 154.066 278.019Z" fill="#E9FAF6"/>
<path d="M250.517 39.3213C250.517 39.3213 260.207 -1.80078 265.226 1.45181C270.246 4.70441 268.017 21.3546 268.017 21.3546C268.017 21.3546 283.268 15.314 288.85 14.9655C294.431 14.617 308.016 9.91243 312.977 13.4942C317.938 17.0759 302.725 21.3546 302.725 21.3546C302.725 21.3546 320.399 18.1988 324.043 21.3546C327.686 24.5104 324.043 26.5432 324.043 26.5432C324.043 26.5432 326.736 25.9817 325.709 31.1123C324.682 36.2429 309.198 38.1016 309.198 38.1016C309.198 38.1016 321.582 38.7211 320.341 43.0385C319.101 47.3559 282.455 53.8999 282.455 53.8999L267.959 68.8657L248.211 50.9764L250.517 39.3213Z" fill="#E2A18D"/>
<path d="M300.439 38.6054C300.596 38.6033 300.751 38.5655 300.892 38.4951C301.033 38.4247 301.156 38.3234 301.253 38.1988C301.332 38.0938 301.389 37.9741 301.421 37.8467C301.453 37.7194 301.459 37.5869 301.439 37.4571C301.419 37.3273 301.374 37.2028 301.305 37.0908C301.236 36.9788 301.146 36.8816 301.039 36.8049L280.982 22.0907C280.768 21.9752 280.519 21.941 280.282 21.9942C280.045 22.0474 279.835 22.1845 279.691 22.3803C279.547 22.5761 279.479 22.8172 279.499 23.0593C279.519 23.3015 279.626 23.5282 279.8 23.6977L299.857 38.4118C300.029 38.5298 300.23 38.597 300.439 38.6054Z" fill="#2F2F2E"/>
<path d="M173.833 39.6118C173.833 39.6118 184.802 45.9428 187.127 53.8225L189.453 61.7024C189.453 61.7024 200.926 61.2183 207.321 69.4466C213.716 77.6749 207.321 94.7123 207.321 94.7123L106.16 131.498C102.026 128.73 98.5961 125.036 96.1434 120.71C93.6907 116.384 92.283 111.546 92.0328 106.58C91.4708 89.7173 100.191 82.7668 100.191 82.7668C98.6301 75.5642 98.6301 68.1111 100.191 60.9086C102.788 49.1179 116.78 45.207 116.78 45.207L173.833 39.6118Z" fill="#2F2F2E"/>
<path d="M22.2668 122.069C22.2668 122.069 2.20918 119.939 2.20918 122.631C2.20918 125.322 17.5769 130.375 17.5769 130.375C27.8092 135.989 45.3283 142.94 45.3283 142.94L48.0221 147.161L56.5297 160.5L79.4554 146.948L79.5715 135.079C79.5715 135.079 79.5716 132.969 79.3584 129.717C78.8158 118.429 77.0912 93.3378 72.7502 95.0416C67.1302 97.2293 66.0254 113.976 66.0254 113.976C66.0254 113.976 52.2854 105.032 46.8979 103.56C41.5104 102.089 29.1076 94.7899 23.6427 97.3261C18.5265 99.6494 29.9797 105.942 31.8595 107.006C27.2539 105.206 22.5099 103.782 17.6739 102.747C17.6739 102.747 4.65104 100.172 3.72083 102.941C2.5193 106.561 16.8987 112.621 17.6739 112.621C18.4491 112.621 -9.91821e-05 107.142 -9.91821e-05 112.95C-9.91821e-05 118.042 22.2668 122.069 22.2668 122.069Z" fill="#E2A18D"/>
<path d="M93.0405 152.581C93.0405 152.581 113.04 215.465 118.718 234.051C124.396 252.637 232.669 257.013 232.553 234.051C232.339 219.957 232.223 205.184 230.847 189.251C229.909 176.859 227.813 164.583 224.588 152.581C224.588 152.581 252.688 152.465 274.974 126.27C299.663 97.2292 290.846 56.049 290.846 56.049L286.02 53.2418L251.99 33.61L250.498 32.7388C250.498 32.7388 243.696 62.8447 226.177 74.1126C221.196 77.2994 215.804 79.794 210.15 81.5277C203.395 83.6982 196.354 84.8468 189.259 84.9352C189.259 84.9352 184.879 85.245 178.019 86.2711C175.926 86.5809 173.62 86.968 171.12 87.4327L170.287 87.5876C166.411 88.304 162.051 89.2333 157.535 90.3949C156.024 90.7628 154.493 91.1887 152.923 91.6146C150.404 92.331 147.884 93.1248 145.345 93.996L143.136 94.7511C142.032 95.1383 140.946 95.5448 139.861 95.9708C137.923 96.7258 135.888 97.539 133.95 98.4296C130.212 100.073 126.587 101.962 123.098 104.083C113.866 109.799 106.342 117.89 101.316 127.509C99.3121 131.233 97.6264 135.119 96.2767 139.126C94.7397 143.488 93.6553 147.997 93.0405 152.581Z" fill="#1DC49D"/>
<path d="M46.5299 147.916C46.5299 147.916 50.7739 208.727 77.9632 234.051C105.152 259.375 147.942 234.051 147.942 234.051C152.394 226.488 155.717 218.315 157.806 209.792L129.241 175.64L103.059 144.334L96.238 139.106L81.9749 128.129L79.4554 129.542L48.1189 146.967L46.5299 147.916Z" fill="#1DC49D"/>
<path d="M30.4644 129.058C30.5995 129.004 30.7194 128.918 30.8133 128.806L47.8671 110.724C47.9764 110.632 48.0653 110.519 48.1277 110.391C48.1902 110.264 48.2247 110.124 48.2292 109.982C48.2337 109.84 48.208 109.698 48.1538 109.567C48.0996 109.435 48.0182 109.317 47.9148 109.219C47.8115 109.121 47.6885 109.046 47.5541 109C47.4197 108.953 47.2769 108.935 47.1351 108.947C46.9933 108.959 46.8556 109.002 46.7313 109.071C46.607 109.14 46.4986 109.235 46.4136 109.349L29.3599 127.451C29.1741 127.639 29.0699 127.893 29.0699 128.158C29.0699 128.422 29.1741 128.676 29.3599 128.864C29.5027 129.005 29.6847 129.098 29.882 129.133C30.0792 129.168 30.2823 129.141 30.4644 129.058Z" fill="#2F2F2E"/>
<path d="M134.939 237.227C135.178 237.252 135.418 237.189 135.614 237.05C135.81 236.911 135.949 236.705 136.004 236.471C146.101 194.013 102.691 145.922 102.265 145.476C102.076 145.291 101.822 145.187 101.558 145.187C101.293 145.187 101.039 145.291 100.85 145.476C100.756 145.568 100.681 145.678 100.63 145.799C100.578 145.921 100.552 146.051 100.552 146.183C100.552 146.315 100.578 146.445 100.63 146.566C100.681 146.688 100.756 146.798 100.85 146.89C101.277 147.374 143.969 194.691 134.125 236.104C134.093 236.231 134.087 236.363 134.107 236.492C134.127 236.622 134.172 236.746 134.241 236.858C134.31 236.97 134.4 237.067 134.506 237.143C134.613 237.22 134.733 237.274 134.861 237.304L134.939 237.227Z" fill="#009B7C"/>
<path d="M124.222 139.068H124.474C124.73 139 124.949 138.833 125.083 138.605C125.217 138.377 125.256 138.105 125.191 137.848C124.997 137.151 120.559 120.675 118.233 116.551C118.093 116.328 117.873 116.166 117.618 116.098C117.362 116.029 117.091 116.06 116.858 116.184C116.63 116.321 116.465 116.54 116.396 116.797C116.327 117.053 116.361 117.326 116.489 117.558C118.699 121.43 123.214 138.139 123.253 138.313C123.305 138.53 123.429 138.722 123.605 138.859C123.781 138.996 123.999 139.07 124.222 139.068Z" fill="#009B7C"/>
<path d="M143.349 95.9126C143.349 95.9126 130.307 115.273 137.536 125.999L145.423 130.2L135.985 132.504C135.985 132.504 163.116 134.324 168.93 170.2C168.93 175.098 188.038 192.464 188.038 192.464L162.031 111.653L143.349 95.9126Z" fill="#009B7C"/>
<path d="M169.547 95C169.547 95 192.636 105.788 193.429 114.231L189.567 120.75L198 119.385C198 119.385 189.567 154.865 192.249 165.538C194.93 176.212 188 192.5 188 192.5L167 110.481L169.547 95Z" fill="#009B7C"/>
<path d="M143.369 101.566C142.826 101.566 168.872 138.352 178.562 166.812C182.437 178.002 187.922 192.465 187.922 192.465C187.922 192.465 188.271 193.123 186.817 172.852C185.015 147.916 170.422 105.632 170.422 105.632C170.422 105.632 149.376 101.315 143.369 101.566Z" fill="#E9FAF6"/>
<path d="M173.426 52.5643C173.426 52.5643 179.57 38.2374 178.387 31.9451C177.205 25.6529 152.283 7.16344 131.373 17.2116C110.463 27.2598 109.397 54.8682 114.261 66.2329C126.838 95.5062 152.031 81.7214 152.031 81.7214C152.031 81.7214 192.321 68.8659 173.426 52.5643Z" fill="#2F2F2E"/>
<path d="M170.209 85.8645L170.228 86.4454L170.325 97.2099L170.442 105.632L162.69 113.279L143.369 101.566L142.07 82.1279L146.082 82.6894L170.209 85.8645Z" fill="#E2A18D"/>
<path d="M170.228 86.4262L170.325 97.1907C163.891 96.7648 152.109 94.6351 146.876 84.8386C146.513 84.1694 146.246 83.4525 146.082 82.709L170.17 86.2713L170.228 86.4262Z" fill="#2F2F2E"/>
<path d="M171.624 34.83C171.624 34.83 185.344 62.1286 181.798 78.0624C178.251 93.9962 163.775 92.3119 155.054 89.6788C150.11 88.3554 145.617 85.7195 142.051 82.0507C139.655 82.8961 137.054 82.9637 134.617 82.244C132.181 81.5243 130.035 80.054 128.485 78.0431C122.671 70.899 125.559 62.1866 130.035 59.9795C134.512 57.7724 140.113 60.7927 140.113 60.7927L135.404 52.8935C135.404 52.8935 151.062 10.7066 171.624 34.83Z" fill="#E2A18D"/>
<path d="M172.205 70.5308C172.427 70.5293 172.643 70.4545 172.818 70.3179C172.993 70.1813 173.119 69.9907 173.174 69.7757C174.744 63.6578 170.209 57.7334 170.015 57.4818C169.851 57.2768 169.614 57.1438 169.353 57.1113C169.093 57.0787 168.83 57.1491 168.62 57.3075C168.516 57.3871 168.429 57.4865 168.364 57.5999C168.299 57.7133 168.258 57.8384 168.241 57.9681C168.225 58.0977 168.235 58.2293 168.27 58.3552C168.305 58.4811 168.365 58.5988 168.446 58.7014C168.446 58.7014 172.573 64.1225 171.236 69.2724C171.201 69.3996 171.192 69.5324 171.21 69.6631C171.227 69.7938 171.27 69.9197 171.337 70.0333C171.404 70.147 171.493 70.2462 171.599 70.325C171.705 70.4038 171.825 70.4606 171.953 70.4921L172.205 70.5308Z" fill="#2F2F2E"/>
<path d="M139.454 74.1318C139.724 74.1249 139.981 74.0139 140.171 73.822C140.357 73.6337 140.461 73.3799 140.461 73.1154C140.461 72.8509 140.357 72.5971 140.171 72.4088L132.187 64.6645C132.095 64.5702 131.985 64.4953 131.863 64.4442C131.742 64.393 131.611 64.3667 131.479 64.3667C131.347 64.3667 131.217 64.393 131.096 64.4442C130.974 64.4953 130.864 64.5702 130.772 64.6645C130.586 64.8528 130.482 65.1067 130.482 65.3711C130.482 65.6356 130.586 65.8894 130.772 66.0778L138.756 73.822C138.846 73.9173 138.954 73.9938 139.074 74.047C139.194 74.1002 139.323 74.129 139.454 74.1318Z" fill="#2F2F2E"/>
<path d="M131.295 72.3509H131.508L136.722 71.3054C136.851 71.2801 136.974 71.2292 137.083 71.1558C137.192 71.0824 137.286 70.9879 137.358 70.8778C137.43 70.7678 137.48 70.6445 137.504 70.5151C137.527 70.3857 137.525 70.2529 137.497 70.1244C137.474 69.9961 137.425 69.8737 137.354 69.7646C137.282 69.6556 137.189 69.562 137.081 69.4897C136.972 69.4174 136.85 69.3677 136.721 69.3437C136.593 69.3197 136.461 69.3218 136.334 69.3499L131.102 70.3954C130.973 70.4184 130.85 70.4671 130.741 70.5386C130.632 70.61 130.539 70.7028 130.466 70.8113C130.394 70.9198 130.344 71.0417 130.32 71.1699C130.296 71.298 130.298 71.4298 130.326 71.5571C130.371 71.7809 130.492 71.9823 130.669 72.127C130.846 72.2717 131.067 72.3508 131.295 72.3509Z" fill="#2F2F2E"/>
<path d="M167.399 81.7796C167.892 81.7789 168.377 81.6593 168.814 81.4311C171.004 80.2889 171.759 76.7458 171.856 76.3393C171.904 76.0935 171.856 75.8389 171.723 75.6268C171.59 75.4148 171.381 75.2611 171.139 75.197L160.015 72.0606C159.826 72.0155 159.627 72.0243 159.442 72.0859C159.258 72.1474 159.094 72.2594 158.969 72.4091C158.861 72.5691 158.803 72.7579 158.803 72.9512C158.803 73.1444 158.861 73.3332 158.969 73.4932C159.105 73.7643 162.399 79.8435 166.023 81.4505C166.454 81.654 166.923 81.7661 167.399 81.7796ZM169.647 76.8427C169.398 77.9531 168.784 78.9483 167.903 79.6693C167.722 79.7568 167.523 79.8022 167.321 79.8022C167.12 79.8022 166.922 79.7568 166.74 79.6693C164.754 78.4319 163.098 76.731 161.915 74.713L169.647 76.8427Z" fill="#2F2F2E"/>
<path d="M153.698 50.938C153.891 50.9359 154.08 50.8781 154.241 50.7717C154.403 50.6653 154.53 50.5147 154.609 50.3379C155.733 47.8984 159.085 48.4018 159.221 48.4018C159.483 48.4409 159.749 48.3755 159.963 48.2197C160.177 48.0639 160.321 47.8302 160.364 47.5692C160.389 47.4405 160.388 47.3081 160.36 47.1799C160.332 47.0518 160.278 46.9306 160.202 46.8238C160.126 46.717 160.029 46.6268 159.917 46.5585C159.805 46.4903 159.68 46.4456 159.55 46.427C159.337 46.427 154.55 45.6332 152.787 49.486C152.732 49.6053 152.702 49.7343 152.698 49.8654C152.693 49.9966 152.715 50.1273 152.762 50.2499C152.809 50.3725 152.88 50.4845 152.971 50.5793C153.062 50.6742 153.17 50.7501 153.291 50.8025C153.416 50.8753 153.554 50.9214 153.698 50.938Z" fill="#2F2F2E"/>
<path d="M170.655 47.0079C170.827 47.0103 170.997 46.9667 171.147 46.8816C171.297 46.7965 171.421 46.6731 171.508 46.5239C171.67 46.2212 171.896 45.9571 172.171 45.7499C172.445 45.5427 172.761 45.3972 173.097 45.3235C174.331 45.2858 175.536 45.6988 176.488 46.4852C176.59 46.5671 176.706 46.6281 176.832 46.6647C176.957 46.7012 177.088 46.7126 177.218 46.6982C177.348 46.6838 177.473 46.6439 177.587 46.5808C177.702 46.5176 177.802 46.4325 177.883 46.3303C178.05 46.1222 178.127 45.8566 178.098 45.5916C178.069 45.3267 177.936 45.084 177.728 44.9169C176.327 43.7971 174.558 43.2381 172.767 43.3487C172.149 43.4648 171.565 43.716 171.056 44.0842C170.546 44.4523 170.125 44.9284 169.822 45.4784C169.683 45.7025 169.638 45.972 169.696 46.229C169.754 46.486 169.91 46.71 170.132 46.853C170.29 46.9483 170.47 47.0017 170.655 47.0079Z" fill="#2F2F2E"/>
<path d="M140.074 60.8507C140.074 60.8507 151.993 54.0164 155.985 45.0137C159.977 36.011 159.861 31.6161 159.861 31.6161C159.861 31.6161 161.915 37.2888 166.43 38.431C168.817 39.0814 171.266 39.4773 173.736 39.6121L176.953 47.6661L174.182 28.2086C174.182 28.2086 161.818 22.4004 160.19 22.4004C158.562 22.4004 138.369 27.0857 137.245 28.3635C136.121 29.6413 130.443 45.7881 130.443 45.7881V52.9515L140.074 60.8507Z" fill="#2F2F2E"/>
<path d="M155.035 57.5981C155.258 57.6 155.475 57.5264 155.651 57.3893C155.827 57.2522 155.951 57.0596 156.004 56.843C156.047 56.4319 156.195 56.0385 156.432 55.6999C156.669 55.3612 156.989 55.0884 157.36 54.9069C158.032 54.7866 158.721 54.8017 159.387 54.9513C160.052 55.101 160.681 55.3821 161.236 55.7782C161.461 55.9195 161.732 55.9682 161.993 55.9141C162.253 55.8599 162.482 55.7071 162.632 55.4877C162.769 55.2616 162.814 54.9923 162.76 54.7337C162.707 54.4751 162.557 54.2465 162.341 54.0938C161.529 53.5454 160.613 53.1695 159.649 52.9897C158.686 52.8098 157.696 52.8298 156.74 53.0483C156.073 53.3321 155.487 53.7785 155.037 54.3467C154.587 54.9149 154.286 55.5868 154.163 56.3009C154.128 56.428 154.119 56.5608 154.136 56.6915C154.154 56.8222 154.197 56.9482 154.264 57.0619C154.331 57.1756 154.42 57.2747 154.525 57.3535C154.631 57.4323 154.752 57.4891 154.88 57.5206L155.035 57.5981Z" fill="#2F2F2E"/>
<path d="M171.314 54.4034C171.522 54.4 171.725 54.3335 171.894 54.2124C172.064 54.0914 172.193 53.9217 172.263 53.7258C172.554 52.9127 173.271 51.7897 173.833 51.7897C174.395 51.7897 174.802 52.1769 175.597 53.4934C175.733 53.7165 175.952 53.8765 176.207 53.9382C176.461 53.9999 176.729 53.9583 176.953 53.8226C177.067 53.7586 177.167 53.6722 177.247 53.5685C177.327 53.4649 177.385 53.3461 177.417 53.2195C177.45 53.0928 177.457 52.9608 177.437 52.8316C177.417 52.7023 177.371 52.5784 177.302 52.4673C176.178 50.5312 174.938 49.6794 173.639 49.7956C171.546 50.0086 170.5 52.8158 170.384 53.1449C170.338 53.2681 170.317 53.3993 170.322 53.5307C170.327 53.6621 170.359 53.7911 170.415 53.9101C170.471 54.0291 170.55 54.1358 170.648 54.2238C170.746 54.3119 170.86 54.3795 170.984 54.4228L171.314 54.4034Z" fill="#2F2F2E"/>
<path d="M187.166 214.845C186.246 214.845 185.5 213.06 185.5 210.857C185.5 208.654 186.246 206.869 187.166 206.869C188.087 206.869 188.833 208.654 188.833 210.857C188.833 213.06 188.087 214.845 187.166 214.845Z" fill="#009B7C"/>
<path d="M202.495 96.9C202.689 96.8964 202.878 96.8358 203.038 96.7258C203.247 96.5808 203.391 96.3594 203.438 96.1094C203.485 95.8594 203.432 95.6009 203.29 95.3899C199.685 90.1625 191.662 86.058 191.313 85.8838C191.2 85.8242 191.077 85.788 190.95 85.7773C190.823 85.7666 190.695 85.7816 190.573 85.8213C190.452 85.8611 190.34 85.9248 190.244 86.0087C190.148 86.0926 190.07 86.195 190.015 86.3097C189.905 86.5392 189.888 86.8021 189.967 87.0438C190.047 87.2854 190.217 87.4872 190.441 87.6069C190.441 87.6069 198.367 91.6726 201.681 96.4741C201.773 96.6044 201.895 96.711 202.037 96.7851C202.178 96.8591 202.335 96.8985 202.495 96.9Z" fill="#009B7C"/>
<path d="M199 125C200.582 125 202.127 125.469 203.443 126.347C204.758 127.225 205.783 128.473 206.389 129.934C206.995 131.395 207.155 133.002 206.848 134.554C206.541 136.105 205.781 137.53 204.664 138.65C203.547 139.77 202.123 140.533 200.573 140.844C199.022 141.155 197.414 140.999 195.952 140.397C194.49 139.794 193.239 138.772 192.358 137.459C191.477 136.146 191.004 134.601 191 133.02C190.992 131.966 191.194 130.921 191.593 129.946C191.992 128.971 192.581 128.085 193.325 127.339C194.069 126.593 194.954 126.002 195.928 125.6C196.902 125.199 197.947 124.995 199 125ZM199 136.473C199.68 136.473 200.345 136.271 200.91 135.893C201.475 135.515 201.915 134.977 202.175 134.349C202.434 133.72 202.501 133.029 202.367 132.362C202.233 131.695 201.904 131.083 201.421 130.604C200.939 130.124 200.326 129.799 199.658 129.669C198.991 129.538 198.3 129.609 197.672 129.872C197.045 130.135 196.51 130.578 196.135 131.145C195.76 131.713 195.562 132.379 195.566 133.059C195.571 133.966 195.935 134.834 196.579 135.474C197.222 136.114 198.093 136.473 199 136.473Z" fill="#009B7C"/>
<path d="M195.469 133.059C195.469 133.743 195.672 134.411 196.052 134.979C196.432 135.548 196.973 135.99 197.605 136.251C198.237 136.512 198.933 136.579 199.603 136.444C200.274 136.31 200.889 135.979 201.371 135.494C201.854 135.009 202.181 134.392 202.312 133.72C202.443 133.049 202.372 132.354 202.107 131.723C201.843 131.093 201.397 130.555 200.827 130.178C200.256 129.8 199.587 129.601 198.903 129.605C198.45 129.602 198 129.69 197.581 129.863C197.162 130.036 196.781 130.29 196.462 130.612C196.142 130.933 195.89 131.315 195.719 131.735C195.549 132.156 195.464 132.605 195.469 133.059Z" fill="#F89D26"/>
<path d="M194.414 244.487C194.671 244.487 194.918 244.385 195.099 244.203C195.281 244.021 195.383 243.775 195.383 243.519C195.388 235.439 195.978 227.37 197.147 219.376C198.968 209.695 193.406 196.046 193.271 195.485C193.224 195.366 193.154 195.259 193.065 195.168C192.976 195.077 192.869 195.006 192.752 194.957C192.634 194.908 192.508 194.883 192.381 194.884C192.254 194.885 192.128 194.912 192.011 194.962C191.893 195.009 191.785 195.079 191.693 195.167C191.602 195.256 191.529 195.362 191.479 195.479C191.428 195.596 191.401 195.721 191.399 195.849C191.398 195.976 191.421 196.102 191.469 196.22C191.469 196.356 197.05 209.87 195.344 219.008C194.151 227.124 193.548 235.316 193.542 243.519C193.541 243.759 193.629 243.992 193.791 244.171C193.952 244.35 194.174 244.463 194.414 244.487Z" fill="#009B7C"/>
<path d="M223.193 153.937C223.878 153.953 224.553 153.765 225.131 153.394C225.462 153.244 225.732 152.986 225.897 152.663C226.062 152.339 226.113 151.969 226.041 151.613C225.751 150.2 222.631 148.98 216.797 147.973C216.216 147.393 215.712 146.851 215.325 146.386C215.153 146.195 214.915 146.077 214.66 146.055C214.404 146.034 214.15 146.11 213.949 146.27C213.779 146.418 213.666 146.62 213.627 146.842C213.588 147.064 213.626 147.292 213.736 147.489L212.902 147.373C212.775 147.351 212.646 147.356 212.521 147.387C212.396 147.417 212.279 147.474 212.177 147.552C212.075 147.63 211.99 147.729 211.928 147.841C211.866 147.954 211.828 148.078 211.817 148.206C211.784 148.46 211.853 148.717 212.009 148.92C212.166 149.123 212.396 149.256 212.65 149.29C213.697 149.425 214.801 149.6 215.867 149.793C217.766 151.633 220.673 153.937 223.193 153.937ZM223.793 151.846C223.098 151.921 222.395 151.852 221.727 151.642C221.06 151.432 220.444 151.086 219.917 150.626C221.26 150.875 222.568 151.285 223.813 151.846H223.793Z" fill="#009B7C"/>
<path d="M288.598 75.1001C288.746 75.0983 288.892 75.0645 289.026 75.001C289.16 74.9375 289.278 74.8458 289.373 74.7323C289.53 74.5261 289.6 74.2665 289.568 74.0093C289.535 73.7521 289.402 73.518 289.199 73.3577L252.572 44.3167C252.473 44.2358 252.359 44.1755 252.237 44.1395C252.115 44.1034 251.987 44.0923 251.86 44.1067C251.734 44.1212 251.611 44.1609 251.501 44.2236C251.39 44.2863 251.293 44.3706 251.215 44.4716C251.134 44.5699 251.074 44.6834 251.038 44.8055C251.001 44.9275 250.99 45.0555 251.005 45.182C251.019 45.3085 251.059 45.4307 251.122 45.5415C251.185 45.6522 251.269 45.7493 251.37 45.8268L287.997 74.8678C288.166 75.0101 288.377 75.0919 288.598 75.1001Z" fill="#009B7C"/>
<path d="M54.6886 165.185C54.8702 165.186 55.0482 165.135 55.2024 165.039C55.3566 164.943 55.4809 164.806 55.5608 164.643L59.0684 157.46L64.8822 159.396L83.6609 137.558C83.8305 137.362 83.9154 137.108 83.8972 136.85C83.8791 136.592 83.7592 136.352 83.5639 136.183C83.3686 136.014 83.1139 135.929 82.8559 135.947C82.5978 135.965 82.3577 136.085 82.1881 136.28L64.1845 157.17L58.08 155.098L53.8166 163.811C53.7604 163.925 53.7272 164.049 53.7192 164.177C53.7111 164.304 53.7284 164.431 53.7698 164.552C53.8112 164.672 53.8759 164.783 53.9604 164.879C54.045 164.974 54.1476 165.052 54.2623 165.108C54.3948 165.172 54.5421 165.198 54.6886 165.185Z" fill="#009B7C"/>
</g>
<defs>
<clipPath id="clip0_9240_23307">
<rect width="326" height="278" fill="white" transform="matrix(-1 0 0 1 326 0)"/>
</clipPath>
</defs>
</svg>
