<svg width="264" height="244" viewBox="0 0 264 244" fill="none" xmlns="http://www.w3.org/2000/svg">
<g clip-path="url(#clip0_8749_18498)">
<path d="M122.235 244.017C54.7171 244.017 -0.0170288 189.392 -0.0170288 122.009C-0.0170288 54.6251 54.7171 0 122.235 0C189.753 0 244.487 54.6251 244.487 122.009C244.487 189.392 189.753 244.017 122.235 244.017Z" fill="#E9FAF6"/>
<path d="M112.155 36.2627C112.155 36.2627 121.009 43.0599 122.15 50.1289L123.291 57.2489C123.291 57.2489 133.336 58.1155 137.985 66.0512C142.633 73.9868 135.158 88.0569 135.158 88.0569L42.8733 108.788C39.5794 105.897 37.0092 102.276 35.3683 98.2161C33.7274 94.156 33.0614 89.769 33.4235 85.406C34.8197 70.6562 43.1968 65.5924 43.1968 65.5924C42.6501 59.141 43.4859 52.6474 45.6487 46.5434C49.2413 36.5856 61.8582 34.7334 61.8582 34.7334L112.155 36.2627Z" fill="#2F2F2E"/>
<path d="M96.2694 48.5147C96.2694 48.5147 108.58 42.4822 111.389 37.6053C114.199 32.7283 108.154 6.18553 88.4712 0.951743C68.7883 -4.28205 52.2383 13.5094 48.9861 23.8581C40.609 50.5198 65.3488 55.6856 65.3488 55.6856C65.3488 55.6856 99.5385 70.1465 96.2694 48.5147Z" fill="#2F2F2E"/>
<path d="M221.876 65.7963C221.876 65.7963 242.036 125.628 216.155 151.134C190.274 176.641 132.366 154.091 132.366 154.091L170.489 104.183C173.072 104.03 175.503 102.914 177.3 101.056C181.029 97.6579 196.029 64.8447 196.029 64.8447L221.876 65.7963Z" fill="#E2A18D"/>
<path d="M150.21 159.087L155.233 198.783L68.9585 207.075L58.453 170.643L150.21 159.087Z" fill="#1DC49D"/>
<path d="M170.353 103.844C170.353 103.844 136.589 87.4795 121.282 80.6314C105.975 73.7833 69.8779 73.8342 47.5898 92.7303C25.3018 111.626 16.7373 134.261 15.5114 157.847C14.2854 181.433 19.4786 189.199 19.4786 189.199L89.6629 180.345L167.986 164.831C167.986 164.831 162.997 124.915 170.353 103.844Z" fill="#1DC49D"/>
<path d="M101.786 64.6578V65.1506L102.62 74.5647L103.301 81.9396C103.301 81.9396 104.153 83.5539 95.5201 84.1316C83.9589 84.8793 79.6001 80.4442 79.6001 80.4442L76.8248 63.3154L80.3834 63.5193L101.786 64.6578Z" fill="#E2A18D"/>
<path d="M101.837 65.1506L102.671 74.5646C97.0015 74.5646 86.547 73.562 81.2858 65.3545C80.9221 64.7973 80.6412 64.1906 80.4515 63.5532L101.786 65.0146L101.837 65.1506Z" fill="black"/>
<path d="M99.5045 19.8985C99.5045 19.8985 113.415 42.8388 111.423 57.0278C109.431 71.2168 96.627 70.724 88.7947 69.0757C84.3732 68.2655 80.2543 66.2748 76.8759 63.3152C74.8272 64.2196 72.5449 64.4569 70.3534 63.9932C68.1619 63.5295 66.1724 62.3885 64.6677 60.7322C59.134 54.8867 61.0239 47.053 64.7869 44.827C68.5498 42.6009 73.6578 44.827 73.6578 44.827L69.0096 38.2507C69.0096 38.2507 79.8385 0.203765 99.5045 19.8985Z" fill="#E2A18D"/>
<path d="M102.518 51.0806C102.704 51.0605 102.879 50.9796 103.014 50.8506C103.149 50.7215 103.239 50.5515 103.267 50.3669C104.238 44.9122 99.862 40.0353 99.6747 39.8314C99.5166 39.6579 99.296 39.5541 99.0613 39.543C98.8266 39.5318 98.5971 39.6142 98.4232 39.7719C98.2494 39.9297 98.1454 40.1499 98.1342 40.3841C98.1231 40.6183 98.2056 40.8474 98.3637 41.0209C98.3637 41.0209 102.348 45.456 101.548 50.0611C101.508 50.2908 101.561 50.5268 101.695 50.7178C101.829 50.9088 102.033 51.0392 102.263 51.0806H102.518Z" fill="black"/>
<path d="M74.0835 56.484C74.193 56.4734 74.2991 56.4409 74.3957 56.3883C74.4922 56.3357 74.5772 56.2643 74.6454 56.1782C74.7938 55.9976 74.8645 55.7658 74.8421 55.5334C74.8198 55.3009 74.7063 55.0868 74.5262 54.9377L67.0003 48.7693C66.912 48.6967 66.8102 48.6423 66.7008 48.609C66.5914 48.5758 66.4766 48.5643 66.3627 48.5754C66.2489 48.5864 66.1383 48.6198 66.0374 48.6734C65.9364 48.7271 65.8471 48.8001 65.7744 48.8882C65.7018 48.9764 65.6472 49.0779 65.6139 49.1871C65.5805 49.2963 65.569 49.411 65.5801 49.5246C65.5912 49.6382 65.6246 49.7485 65.6784 49.8493C65.7322 49.95 65.8053 50.0392 65.8936 50.1117L73.4194 56.2801C73.5095 56.3588 73.6152 56.4176 73.7296 56.4528C73.8441 56.4879 73.9647 56.4985 74.0835 56.484Z" fill="black"/>
<path d="M66.8131 55.4986H66.9493L71.4614 54.2242C71.6825 54.1609 71.8695 54.0126 71.9813 53.8119C72.093 53.6112 72.1204 53.3744 72.0574 53.1536C72.0279 53.0409 71.976 52.9352 71.9048 52.843C71.8336 52.7507 71.7444 52.6738 71.6427 52.6167C71.541 52.5596 71.4288 52.5235 71.3128 52.5107C71.1969 52.4978 71.0794 52.5084 70.9676 52.5418L66.4725 53.8163C66.2836 53.8949 66.1278 54.0363 66.0316 54.2166C65.9354 54.3969 65.9048 54.605 65.9449 54.8053C65.985 55.0056 66.0935 55.1858 66.2518 55.3153C66.4101 55.4448 66.6084 55.5156 66.8131 55.5156V55.4986Z" fill="black"/>
<path d="M103.676 40.5959H103.863C103.976 40.5665 104.082 40.5147 104.174 40.4436C104.267 40.3725 104.344 40.2836 104.401 40.1821C104.458 40.0805 104.495 39.9686 104.507 39.8528C104.52 39.7371 104.51 39.6199 104.476 39.5083L103.335 35.447L104.595 33.4079C104.657 33.3101 104.699 33.201 104.718 33.0869C104.736 32.9729 104.732 32.8562 104.705 32.7438C104.678 32.6314 104.629 32.5254 104.561 32.4323C104.492 32.3391 104.405 32.2606 104.306 32.2014C104.107 32.0814 103.868 32.0445 103.642 32.0985C103.416 32.1526 103.22 32.2933 103.097 32.4903L101.65 34.8523C101.584 34.9513 101.541 35.0635 101.523 35.1809C101.506 35.2983 101.514 35.4181 101.548 35.532L102.791 39.9841C102.845 40.1723 102.963 40.336 103.124 40.4474C103.285 40.5589 103.48 40.6113 103.676 40.5959Z" fill="black"/>
<path d="M90.2419 43.3827H90.3611C90.5861 43.3228 90.7783 43.1768 90.8962 42.9765C91.0142 42.7761 91.0483 42.5374 90.9911 42.3122L89.9525 38.2679L91.9446 35.7699C92.0151 35.6795 92.067 35.5762 92.0974 35.4658C92.1278 35.3554 92.1361 35.2401 92.1219 35.1265C92.1077 35.0129 92.0712 34.9032 92.0145 34.8037C91.9578 34.7042 91.8819 34.6168 91.7913 34.5465C91.7008 34.4762 91.5973 34.4244 91.4866 34.394C91.376 34.3636 91.2605 34.3553 91.1467 34.3695C91.0329 34.3837 90.9229 34.4202 90.8232 34.4768C90.7235 34.5334 90.6359 34.609 90.5655 34.6994L88.352 37.5032C88.2666 37.609 88.2068 37.7331 88.1773 37.8657C88.1478 37.9983 88.1492 38.1359 88.1817 38.2679L89.3395 42.737C89.3907 42.9329 89.509 43.1047 89.6738 43.2226C89.8386 43.3406 90.0396 43.3972 90.2419 43.3827Z" fill="black"/>
<path d="M74.0494 40.9697L74.9858 48.3616L67.5452 42.754L74.0494 40.9697Z" fill="#2F2F2E"/>
<path d="M103.608 28.3101C103.766 28.2882 103.916 28.2247 104.041 28.1262C104.167 28.0277 104.264 27.8977 104.323 27.7494C104.399 27.5285 104.384 27.2865 104.282 27.0764C104.18 26.8662 103.999 26.705 103.778 26.6278L100.032 25.2854C99.9203 25.2463 99.802 25.2297 99.6837 25.2363C99.5654 25.2429 99.4497 25.2727 99.3429 25.324C99.2362 25.3753 99.1406 25.447 99.0617 25.5352C98.9828 25.6233 98.922 25.7261 98.8829 25.8377C98.8437 25.9493 98.827 26.0674 98.8336 26.1854C98.8402 26.3035 98.8701 26.419 98.9215 26.5255C98.9729 26.6321 99.0448 26.7274 99.1331 26.8062C99.2214 26.885 99.3245 26.9456 99.4363 26.9847L103.199 28.3101C103.333 28.3439 103.474 28.3439 103.608 28.3101Z" fill="black"/>
<path d="M95.52 60.7835C95.7719 60.7474 96.0181 60.6788 96.2523 60.5796C98.1123 59.6174 99.5629 58.0188 100.339 56.0765C100.381 55.9596 100.398 55.8352 100.389 55.7113C100.381 55.5874 100.347 55.4666 100.289 55.3565C100.231 55.2463 100.152 55.1493 100.055 55.0714C99.9579 54.9936 99.8458 54.9366 99.7257 54.904C91.689 52.9498 90.9058 53.7315 90.5994 54.0204C90.4666 54.147 90.3698 54.3065 90.319 54.4826C90.2681 54.6588 90.265 54.8452 90.3098 55.023C90.5312 56.0595 91.8764 59.4411 93.9026 60.4776C94.3976 60.7426 94.9622 60.8493 95.52 60.7835ZM98.2444 56.3654C97.6413 57.4908 96.7006 58.3999 95.5541 58.9653C95.4219 59.0311 95.2762 59.0654 95.1284 59.0654C94.9807 59.0654 94.835 59.0311 94.7028 58.9653C93.5513 58.0391 92.6937 56.7996 92.2339 55.3968C94.2593 55.5649 96.2688 55.8887 98.2444 56.3654Z" fill="black"/>
<path d="M130.051 186.53C130.051 186.53 82.5118 185.001 77.5399 182.231C65.7234 175.621 17.6739 184.678 17.6739 184.678C17.6739 184.678 21.7774 211.476 41.8689 222.759C61.9605 234.042 129.08 212.75 129.08 212.75L130.051 186.53Z" fill="#E2A18D"/>
<path d="M64.8373 82.5347C64.8373 82.5347 35.4151 90.0625 22.4407 114.328C9.46634 138.594 13.059 192.41 13.059 192.41L77.4031 181.892L64.8373 82.5347Z" fill="#1DC49D"/>
<path d="M150.653 170.455C150.769 170.44 150.882 170.403 150.984 170.344C151.086 170.286 151.175 170.207 151.247 170.114C151.318 170.021 151.37 169.914 151.4 169.801C151.429 169.687 151.436 169.569 151.419 169.452C148.478 149.504 143.865 129.836 137.627 110.657C137.546 110.44 137.384 110.261 137.175 110.16C136.965 110.059 136.725 110.042 136.503 110.114C136.394 110.151 136.294 110.211 136.208 110.288C136.122 110.365 136.052 110.459 136.003 110.563C135.954 110.668 135.926 110.781 135.922 110.897C135.917 111.012 135.935 111.127 135.976 111.235C142.14 130.313 146.696 149.872 149.597 169.707C149.613 169.827 149.654 169.943 149.717 170.047C149.78 170.15 149.863 170.24 149.962 170.31C150.061 170.38 150.174 170.429 150.292 170.454C150.411 170.479 150.534 170.479 150.653 170.455Z" fill="#2F2F2E"/>
<path d="M100.458 85.2528C103.212 84.9191 105.927 84.3158 108.563 83.4515C108.789 83.3727 108.974 83.2076 109.077 82.9924C109.181 82.7773 109.195 82.5299 109.116 82.3046C109.037 82.0792 108.872 81.8944 108.656 81.7908C108.441 81.6873 108.193 81.6734 107.967 81.7523C107.796 81.7523 91.8424 87.3769 80.0939 79.6622C79.8962 79.5381 79.658 79.4953 79.4294 79.5429C79.2008 79.5904 78.9996 79.7245 78.868 79.9171C78.8047 80.0128 78.7611 80.1201 78.7397 80.2328C78.7183 80.3455 78.7194 80.4613 78.7431 80.5735C78.7669 80.6858 78.8127 80.7922 78.878 80.8866C78.9433 80.981 79.0267 81.0615 79.1234 81.1235C86.2576 85.8306 94.5326 86.0175 100.458 85.2528Z" fill="#2F2F2E"/>
<path d="M77.6592 183.098C77.8143 183.08 77.9615 183.019 78.0846 182.923C78.2077 182.827 78.3021 182.7 78.3573 182.554C80.06 178.221 88.2498 156.47 82.035 153.87C81.672 153.702 81.2708 153.634 80.8727 153.673C80.4746 153.712 80.0941 153.856 79.7705 154.091C75.5648 157.048 76.3652 178.085 76.6717 182.282C76.681 182.481 76.7589 182.671 76.8923 182.82C77.0257 182.968 77.2064 183.066 77.4038 183.098H77.6592ZM81.0645 155.416C81.1829 155.396 81.3038 155.396 81.4221 155.416C84.3848 156.657 81.6775 168.11 78.3062 177.728C78.1019 168.586 78.5786 157.048 80.8261 155.45C80.8867 155.431 80.9498 155.419 81.0135 155.416H81.0645Z" fill="#2F2F2E"/>
<path d="M130.05 186.53C130.05 186.53 166.488 185.46 171.034 188.06C175.58 190.66 190.615 211.034 188.503 214.518C186.392 218.001 182.289 215.843 182.289 215.843C182.289 215.843 185.694 219.598 183.48 221.774C181.267 223.949 176.568 221.774 176.568 221.774C176.568 221.774 179.496 224.713 174.592 225.325C169.689 225.937 158.86 218.528 158.86 218.528C152.257 221.102 144.958 221.276 138.24 219.021C126.322 215.35 123.223 211.459 123.223 211.459L130.05 186.53Z" fill="#E2A18D"/>
<path d="M182.918 216.522C183.086 216.503 183.245 216.439 183.378 216.335C183.468 216.262 183.542 216.171 183.596 216.068C183.65 215.965 183.683 215.853 183.692 215.737C183.702 215.621 183.688 215.505 183.652 215.394C183.615 215.284 183.557 215.182 183.48 215.095L170.148 199.258C169.997 199.08 169.781 198.97 169.548 198.951C169.315 198.932 169.084 199.006 168.905 199.156C168.732 199.31 168.624 199.524 168.605 199.755C168.586 199.987 168.657 200.216 168.803 200.396L182.186 216.217C182.272 216.325 182.385 216.411 182.513 216.464C182.641 216.518 182.78 216.538 182.918 216.522Z" fill="black"/>
<path d="M176.67 222.589C176.862 222.571 177.043 222.487 177.18 222.351C177.344 222.186 177.435 221.963 177.435 221.731C177.435 221.499 177.344 221.276 177.18 221.111L162.282 206.021C162.201 205.938 162.105 205.873 161.998 205.828C161.891 205.783 161.776 205.76 161.661 205.76C161.545 205.76 161.43 205.783 161.323 205.828C161.217 205.873 161.12 205.938 161.039 206.021C160.876 206.186 160.784 206.409 160.784 206.641C160.784 206.873 160.876 207.096 161.039 207.262L175.921 222.351C176.018 222.447 176.136 222.518 176.267 222.56C176.397 222.601 176.535 222.611 176.67 222.589Z" fill="black"/>
<path d="M173.435 121.635H173.537C174.422 121.551 175.272 121.247 176.01 120.752C176.747 120.256 177.349 119.584 177.76 118.797C180.331 113.699 175.103 103.69 174.882 103.282C174.805 103.13 174.685 103.004 174.537 102.919C174.388 102.834 174.218 102.795 174.048 102.807C173.879 102.814 173.715 102.871 173.579 102.97C173.442 103.07 173.339 103.208 173.281 103.367C172.413 105.695 168.173 117.437 170.915 120.734C171.216 121.095 171.609 121.369 172.052 121.527C172.495 121.685 172.972 121.722 173.435 121.635ZM174.235 105.95C175.75 109.349 177.64 115.058 176.176 117.981C175.896 118.518 175.483 118.975 174.977 119.308C174.47 119.641 173.887 119.84 173.281 119.884C173.106 119.941 172.917 119.946 172.739 119.897C172.56 119.849 172.4 119.75 172.277 119.613C170.881 117.896 172.532 110.997 174.235 105.95Z" fill="#2F2F2E"/>
<path d="M197.698 56.2802C197.698 56.2802 206.211 20.1874 210.604 23.0422C214.997 25.897 213.056 40.5108 213.056 40.5108C213.056 40.5108 226.473 35.209 231.36 34.9032C236.247 34.5973 248.216 30.4681 252.558 33.6117C256.9 36.7554 243.551 40.5108 243.551 40.5108C243.551 40.5108 259.079 37.741 262.28 40.5108C265.481 43.2806 262.28 45.0479 262.28 45.0479C262.28 45.0479 264.63 44.5551 263.728 49.0752C262.825 53.5953 249.238 55.2096 249.238 55.2096C249.238 55.2096 260.101 55.7534 259.011 59.5428C257.922 63.3322 225.724 69.0758 225.724 69.0758L212.988 82.2112L195.723 66.4759L197.698 56.2802Z" fill="#E2A18D"/>
<path d="M241.559 55.5665C241.696 55.5687 241.831 55.5373 241.952 55.4751C242.074 55.4128 242.179 55.3217 242.257 55.2097C242.326 55.1175 242.376 55.0124 242.404 54.9006C242.433 54.7889 242.438 54.6726 242.421 54.5587C242.403 54.4448 242.363 54.3354 242.303 54.2371C242.243 54.1388 242.163 54.0535 242.07 53.9862L224.464 41.0886C224.276 40.9873 224.058 40.9572 223.849 41.0039C223.641 41.0506 223.456 41.171 223.33 41.3428C223.203 41.5146 223.143 41.7263 223.161 41.9388C223.178 42.1513 223.272 42.3503 223.425 42.4991L241.031 55.3966C241.184 55.5082 241.369 55.5677 241.559 55.5665Z" fill="black"/>
<path d="M73.7089 43.8417C73.7089 43.8417 83.0055 36.161 85.1169 27.7665C87.2282 19.3721 86.5301 15.5827 86.5301 15.5827C86.5301 15.5827 89.1693 20.1877 93.2387 20.4936C95.4031 20.7068 97.5847 20.6783 99.7429 20.4086L103.744 26.8999L98.4148 10.5018C98.4148 10.5018 86.8195 7.27316 85.4404 7.57903C84.0612 7.8849 67.2558 14.9029 66.4725 16.1774C65.6893 17.4519 63.2034 32.2526 63.2034 32.2526L64.191 38.455L73.7089 43.8417Z" fill="#2F2F2E"/>
<g clip-path="url(#clip1_8749_18498)">
<path d="M123.668 118.633C119.113 118.633 115.418 114.945 115.418 110.399C115.418 105.854 119.113 102.166 123.668 102.166C128.222 102.166 131.918 105.854 131.918 110.399C131.918 114.945 128.222 118.633 123.668 118.633Z" fill="#009B7C"/>
<path d="M123.667 113.927C121.715 113.927 120.132 112.348 120.132 110.399C120.132 108.45 121.715 106.87 123.667 106.87C125.62 106.87 127.203 108.45 127.203 110.399C127.203 112.348 125.62 113.927 123.667 113.927Z" fill="#F89D26"/>
</g>
</g>
<defs>
<clipPath id="clip0_8749_18498">
<rect width="264" height="244" fill="white" transform="matrix(-1 0 0 1 264 0)"/>
</clipPath>
<clipPath id="clip1_8749_18498">
<rect width="16.5" height="16.4671" fill="white" transform="matrix(-1 0 0 1 131.918 102.096)"/>
</clipPath>
</defs>
</svg>
