<svg width="24" height="24" viewBox="0 0 24 24" fill="none" xmlns="http://www.w3.org/2000/svg">
<path d="M6.00004 4.8001C6.00004 4.48184 5.87361 4.17661 5.64857 3.95157C5.42353 3.72653 5.1183 3.6001 4.80004 3.6001C4.48178 3.6001 4.17656 3.72653 3.95151 3.95157C3.72647 4.17661 3.60004 4.48184 3.60004 4.8001V13.5217C3.23522 13.7323 2.93228 14.0353 2.72166 14.4002C2.51103 14.765 2.40015 15.1788 2.40015 15.6001C2.40015 16.0214 2.51103 16.4352 2.72166 16.8C2.93228 17.1649 3.23522 17.4678 3.60004 17.6785V19.2001C3.60004 19.5184 3.72647 19.8236 3.95151 20.0486C4.17656 20.2737 4.48178 20.4001 4.80004 20.4001C5.1183 20.4001 5.42353 20.2737 5.64857 20.0486C5.87361 19.8236 6.00004 19.5184 6.00004 19.2001V17.6785C6.36486 17.4678 6.6678 17.1649 6.87843 16.8C7.08905 16.4352 7.19994 16.0214 7.19994 15.6001C7.19994 15.1788 7.08905 14.765 6.87843 14.4002C6.6678 14.0353 6.36486 13.7323 6.00004 13.5217V4.8001ZM13.2 4.8001C13.2 4.48184 13.0736 4.17661 12.8486 3.95157C12.6235 3.72653 12.3183 3.6001 12 3.6001C11.6818 3.6001 11.3766 3.72653 11.1515 3.95157C10.9265 4.17661 10.8 4.48184 10.8 4.8001V6.3217C10.4352 6.53235 10.1323 6.83532 9.92166 7.20015C9.71103 7.56498 9.60015 7.97883 9.60015 8.4001C9.60015 8.82137 9.71103 9.23521 9.92166 9.60005C10.1323 9.96488 10.4352 10.2678 10.8 10.4785V19.2001C10.8 19.5184 10.9265 19.8236 11.1515 20.0486C11.3766 20.2737 11.6818 20.4001 12 20.4001C12.3183 20.4001 12.6235 20.2737 12.8486 20.0486C13.0736 19.8236 13.2 19.5184 13.2 19.2001V10.4785C13.5649 10.2678 13.8678 9.96488 14.0784 9.60005C14.2891 9.23521 14.3999 8.82137 14.3999 8.4001C14.3999 7.97883 14.2891 7.56498 14.0784 7.20015C13.8678 6.83532 13.5649 6.53235 13.2 6.3217V4.8001ZM19.2 3.6001C19.5183 3.6001 19.8235 3.72653 20.0486 3.95157C20.2736 4.17661 20.4 4.48184 20.4 4.8001V13.5217C20.7649 13.7323 21.0678 14.0353 21.2784 14.4002C21.4891 14.765 21.5999 15.1788 21.5999 15.6001C21.5999 16.0214 21.4891 16.4352 21.2784 16.8C21.0678 17.1649 20.7649 17.4678 20.4 17.6785V19.2001C20.4 19.5184 20.2736 19.8236 20.0486 20.0486C19.8235 20.2737 19.5183 20.4001 19.2 20.4001C18.8818 20.4001 18.5766 20.2737 18.3515 20.0486C18.1265 19.8236 18 19.5184 18 19.2001V17.6785C17.6352 17.4678 17.3323 17.1649 17.1217 16.8C16.911 16.4352 16.8001 16.0214 16.8001 15.6001C16.8001 15.1788 16.911 14.765 17.1217 14.4002C17.3323 14.0353 17.6352 13.7323 18 13.5217V4.8001C18 4.48184 18.1265 4.17661 18.3515 3.95157C18.5766 3.72653 18.8818 3.6001 19.2 3.6001Z" fill="#6F6F6D"/>
</svg>
