<svg width="24" height="24" viewBox="0 0 24 24" fill="none" xmlns="http://www.w3.org/2000/svg">
<path d="M19.4475 12.8937C19.6134 12.8106 19.7528 12.6829 19.8503 12.525C19.9478 12.3671 19.9994 12.1853 19.9994 11.9997C19.9994 11.8142 19.9478 11.6323 19.8503 11.4744C19.7528 11.3165 19.6134 11.1888 19.4475 11.1057L5.44747 4.1057C5.27388 4.01885 5.07877 3.98439 4.88593 4.00653C4.69309 4.02867 4.51087 4.10645 4.36148 4.23039C4.2121 4.35433 4.10201 4.51907 4.04466 4.70451C3.9873 4.88994 3.98515 5.08806 4.03847 5.2747L5.46747 10.2747C5.52724 10.4837 5.65347 10.6675 5.82706 10.7983C6.00064 10.9291 6.21211 10.9998 6.42947 10.9997L11.0005 10.9997C11.2657 10.9997 11.52 11.1051 11.7076 11.2926C11.8951 11.4801 12.0005 11.7345 12.0005 11.9997C12.0005 12.2649 11.8951 12.5193 11.7076 12.7068C11.52 12.8943 11.2657 12.9997 11.0005 12.9997H6.42947C6.21211 12.9996 6.00064 13.0703 5.82706 13.2011C5.65347 13.3319 5.52724 13.5157 5.46747 13.7247L4.03947 18.7247C3.98604 18.9113 3.98806 19.1094 4.04528 19.2948C4.10251 19.4803 4.21246 19.6451 4.36172 19.7691C4.51099 19.8931 4.69313 19.9711 4.88592 19.9934C5.07871 20.0157 5.27383 19.9814 5.44747 19.8947L19.4475 12.8947V12.8937Z" fill="#6F6F6D"/>
</svg>
