<svg width="24" height="24" viewBox="0 0 24 24" fill="none" xmlns="http://www.w3.org/2000/svg">
<path d="M4.7999 3.6001C4.16338 3.6001 3.55293 3.85295 3.10285 4.30304C2.65276 4.75313 2.3999 5.36358 2.3999 6.0001C2.3999 6.63662 2.65276 7.24707 3.10285 7.69715C3.55293 8.14724 4.16338 8.4001 4.7999 8.4001H19.1999C19.8364 8.4001 20.4469 8.14724 20.897 7.69715C21.347 7.24707 21.5999 6.63662 21.5999 6.0001C21.5999 5.36358 21.347 4.75313 20.897 4.30304C20.4469 3.85295 19.8364 3.6001 19.1999 3.6001H4.7999Z" fill="#6F6F6D"/>
<path fill-rule="evenodd" clip-rule="evenodd" d="M3.6001 9.6001H20.4001V18.0001C20.4001 18.6366 20.1472 19.2471 19.6972 19.6972C19.2471 20.1472 18.6366 20.4001 18.0001 20.4001H6.0001C5.36358 20.4001 4.75313 20.1472 4.30304 19.6972C3.85295 19.2471 3.6001 18.6366 3.6001 18.0001V9.6001ZM9.6001 13.2001C9.6001 12.8818 9.72653 12.5766 9.95157 12.3516C10.1766 12.1265 10.4818 12.0001 10.8001 12.0001H13.2001C13.5184 12.0001 13.8236 12.1265 14.0486 12.3516C14.2737 12.5766 14.4001 12.8818 14.4001 13.2001C14.4001 13.5184 14.2737 13.8236 14.0486 14.0486C13.8236 14.2737 13.5184 14.4001 13.2001 14.4001H10.8001C10.4818 14.4001 10.1766 14.2737 9.95157 14.0486C9.72653 13.8236 9.6001 13.5184 9.6001 13.2001Z" fill="#6F6F6D"/>
</svg>
