<svg width="24" height="24" viewBox="0 0 24 24" fill="none" xmlns="http://www.w3.org/2000/svg">
<path fill-rule="evenodd" clip-rule="evenodd" d="M10.8284 5C10.298 5 9.78929 5.21071 9.41421 5.58579L3 12L9.41421 18.4142C9.78929 18.7893 10.298 19 10.8284 19H19C20.1046 19 21 18.1046 21 17V7C21 5.89543 20.1046 5 19 5H10.8284ZM12.7071 9.29289C12.3166 8.90237 11.6834 8.90237 11.2929 9.29289C10.9024 9.68342 10.9024 10.3166 11.2929 10.7071L12.5858 12L11.2929 13.2929C10.9024 13.6834 10.9024 14.3166 11.2929 14.7071C11.6834 15.0976 12.3166 15.0976 12.7071 14.7071L14 13.4142L15.2929 14.7071C15.6834 15.0976 16.3166 15.0976 16.7071 14.7071C17.0976 14.3166 17.0976 13.6834 16.7071 13.2929L15.4142 12L16.7071 10.7071C17.0976 10.3166 17.0976 9.68342 16.7071 9.29289C16.3166 8.90237 15.6834 8.90237 15.2929 9.29289L14 10.5858L12.7071 9.29289Z" fill="#6F6F6D"/>
</svg>
