<svg width="24" height="24" viewBox="0 0 24 24" fill="none" xmlns="http://www.w3.org/2000/svg">
<path d="M9.59792 20H14.1423C13.648 20.585 12.8936 21 11.8705 21C10.8478 21 10.0931 20.5852 9.59792 20Z" stroke="#6F6F6D" stroke-width="2" stroke-linecap="round" stroke-linejoin="round"/>
<path fill-rule="evenodd" clip-rule="evenodd" d="M9.0185 4.66519C9.18499 3.16592 10.4564 2 12 2C13.5437 2 14.8151 3.16592 14.9816 4.6652C17.3554 5.78439 19 8.19905 19 11V14.1585C19 14.4321 19.1087 14.6945 19.3022 14.888L20.7071 16.2929C20.9931 16.5789 21.0787 17.009 20.9239 17.3827C20.7691 17.7564 20.4045 18 20 18H4.00003C3.59557 18 3.23093 17.7564 3.07615 17.3827C2.92137 17.009 3.00692 16.5789 3.29292 16.2929L4.69785 14.888C4.89133 14.6945 5.00003 14.4321 5.00003 14.1585V11C5.00003 8.19905 6.64464 5.78439 9.0185 4.66519Z" fill="#6F6F6D"/>
</svg>
