<svg width="24" height="24" viewBox="0 0 24 24" fill="none" xmlns="http://www.w3.org/2000/svg">
<path fill-rule="evenodd" clip-rule="evenodd" d="M10.7618 3H11.364C11.5591 3.17198 11.8313 3.41465 12.1291 3.68264C12.7061 4.20177 13.2332 4.65521 13.3004 4.6902C13.4556 4.77092 13.7818 4.77222 13.9346 4.69272C13.9992 4.6591 14.501 4.22752 15.0497 3.73367C15.3717 3.44381 15.6692 3.17685 15.8671 3H16.4596C16.6203 3.13673 16.8575 3.34861 17.2122 3.66856C17.7831 4.18361 18.3149 4.63936 18.3941 4.68135C18.4766 4.72519 18.6152 4.75775 18.7191 4.75775C18.824 4.75775 18.9598 4.72555 19.0415 4.68135C19.1192 4.63936 19.4784 4.34119 19.8399 4.01871L20.497 3.43243L20.5072 10.5649C20.5141 15.4511 20.5044 17.7608 20.4762 17.8987C20.2677 18.9168 19.2453 19.6339 18.2122 19.4865C17.3637 19.3654 16.6266 18.6403 16.4937 17.7957C16.4715 17.6551 16.4533 17.0813 16.4531 16.5205C16.4528 15.3538 16.4339 15.268 16.1325 15.0578L15.9711 14.9453L6.72339 14.9247V9.18259C6.72339 5.43403 6.73671 3.44882 6.76176 3.46439C6.78286 3.47752 7.06861 3.7282 7.39671 4.02151C8.16331 4.70667 8.23231 4.75291 8.4918 4.75562C8.61195 4.75684 8.75317 4.72944 8.83339 4.68934C8.9086 4.65171 9.4361 4.19804 10.0056 3.68122C10.3 3.41403 10.5691 3.17179 10.7618 3ZM8.53218 3H8.51746C8.52225 3.00292 8.52526 3.00423 8.52638 3.00384C8.52723 3.00354 8.52918 3.00225 8.53218 3ZM18.7361 3H18.7014C18.7117 3.00827 18.7175 3.01257 18.7186 3.01256C18.7198 3.01256 18.7258 3.00826 18.7361 3ZM13.6324 3H13.5981C13.6084 3.00834 13.6142 3.01268 13.6153 3.01268C13.6163 3.01268 13.6222 3.00834 13.6324 3ZM9.30442 8.9899C8.79677 8.72931 8.78966 7.96114 9.29243 7.69406C9.43395 7.61889 9.52406 7.61614 11.8922 7.61445C14.1494 7.61284 14.4537 7.60655 14.6235 7.75455C14.6572 7.78387 14.6856 7.81924 14.7228 7.86191C15.0269 8.21049 14.9466 8.74193 14.5547 8.97299L14.3946 9.06743H11.925C9.54422 9.06743 9.45001 9.06464 9.30442 8.9899ZM9.3131 12.4444C8.71339 12.1523 8.82592 11.2336 9.48061 11.0769C9.57192 11.055 11.2929 11.0427 13.7176 11.0465C17.5621 11.0526 17.89 11.0403 18.0524 11.1982C18.0802 11.2252 18.1031 11.2572 18.138 11.2951C18.295 11.4659 18.3387 11.5785 18.3367 11.8076C18.3344 12.0557 18.2544 12.2123 18.0415 12.3855L17.8913 12.5076L9.48541 12.5283L9.3131 12.4444Z" fill="#6F6F6D"/>
<path fill-rule="evenodd" clip-rule="evenodd" d="M3 19.9214C3.02599 19.9479 3.05249 19.9741 3.07952 20.0001H3V19.9214ZM15.5847 19.4386C15.1345 18.7451 14.9693 18.0543 14.9684 16.862L14.968 16.4197H3.48026V17.0798C3.48026 17.5376 3.49808 17.8088 3.53844 17.9647C3.71533 18.6479 4.23709 19.1989 4.92885 19.433C5.12922 19.5008 5.43045 19.5054 10.392 19.5166L15.643 19.5284L15.5847 19.4386Z" fill="#6F6F6D"/>
</svg>
