<svg width="24" height="24" viewBox="0 0 24 24" fill="none" xmlns="http://www.w3.org/2000/svg">
<path d="M17.6003 2.3999H6.46025C5.55298 2.3999 4.75635 3.14628 4.75635 4.02974V20.5092C4.75635 20.8049 4.83865 21.0514 4.97131 21.2418C5.12994 21.4695 5.38537 21.5999 5.65928 21.5999C5.91824 21.5999 6.19396 21.4846 6.44857 21.2671L11.4326 17.0354C11.5865 16.9039 11.8077 16.8286 12.0376 16.8286C12.2674 16.8286 12.488 16.9039 12.6424 17.0358L17.6098 21.2665C17.8653 21.4846 18.122 21.5999 18.3805 21.5999C18.8177 21.5999 19.2438 21.2628 19.2438 20.5093V4.02974C19.2438 3.14628 18.5076 2.3999 17.6003 2.3999Z" fill="#6F6F6D"/>
</svg>
