<svg width="24" height="24" viewBox="0 0 24 24" fill="none" xmlns="http://www.w3.org/2000/svg">
<path d="M10.7999 5.76486C9.49156 5.12785 8.05508 4.79787 6.5999 4.80006C5.0939 4.80006 3.6683 5.14806 2.3999 5.76486V17.7649C3.70826 17.1279 5.14473 16.7979 6.5999 16.8001C8.6027 16.8001 10.4615 17.4121 11.9999 18.4621C13.5912 17.3763 15.4735 16.797 17.3999 16.8001C18.9059 16.8001 20.3315 17.1481 21.5999 17.7649V5.76486C20.2916 5.12785 18.8551 4.79787 17.3999 4.80006C15.8939 4.80006 14.4683 5.14806 13.1999 5.76486V14.4001C13.1999 14.7183 13.0735 15.0235 12.8484 15.2486C12.6234 15.4736 12.3182 15.6001 11.9999 15.6001C11.6816 15.6001 11.3764 15.4736 11.1514 15.2486C10.9263 15.0235 10.7999 14.7183 10.7999 14.4001V5.76486Z" fill="#6F6F6D"/>
</svg>
