<svg width="24" height="24" viewBox="0 0 24 24" fill="none" xmlns="http://www.w3.org/2000/svg">
<path d="M8.46464 7.29842L10.0891 7.27737V5.59767L9.30247 5.58716C8.86985 5.58138 8.50434 5.58869 8.49026 5.60341C8.47618 5.61818 8.46464 6.00556 8.46464 6.46432V7.29842Z" fill="#6F6F6D"/>
<path d="M13.6367 7.27737L15.2625 7.29842L15.2424 5.59767L14.448 5.58712C13.8242 5.57884 13.6496 5.58748 13.635 5.62724C13.6247 5.65509 13.6209 6.03779 13.6265 6.47764L13.6367 7.27737Z" fill="#6F6F6D"/>
<path d="M8.46464 11.0469V12.7266H10.1077V11.0469H8.46464Z" fill="#6F6F6D"/>
<path d="M13.618 11.0469V12.7266H15.2611V11.0469H13.618Z" fill="#6F6F6D"/>
<path fill-rule="evenodd" clip-rule="evenodd" d="M14.8876 20.6564H17.7257V4C17.7257 3.44772 17.278 3 16.7257 3H7C6.44772 3 6 3.44771 6 4V20.6564H8.83807L8.83822 18.2833C8.83833 15.9843 8.84065 15.9062 8.91257 15.7829C8.95339 15.7129 9.04152 15.6207 9.10847 15.578C9.22689 15.5025 9.30157 15.5003 11.8629 15.5003C14.4241 15.5003 14.4988 15.5025 14.6172 15.578C14.6842 15.6207 14.7723 15.7129 14.8131 15.7829C14.8851 15.9062 14.8874 15.9843 14.8875 18.2833L14.8876 20.6564ZM7.36268 4.88591C7.39006 4.72935 7.5469 4.52993 7.69724 4.46056C7.78765 4.4188 8.12422 4.40981 9.33018 4.41688C10.7993 4.42552 10.8526 4.42845 10.9523 4.50634C11.009 4.55063 11.09 4.6354 11.1324 4.69474C11.2073 4.79966 11.2094 4.8472 11.2094 6.43752C11.2094 8.02784 11.2073 8.07538 11.1324 8.1803C11.09 8.23964 11.009 8.32441 10.9522 8.3687C10.8519 8.44706 10.8065 8.44925 9.28619 8.44925C7.76588 8.44925 7.72043 8.44706 7.62013 8.3687C7.5634 8.32441 7.48237 8.23964 7.44002 8.18034C7.36578 8.07644 7.36261 8.01737 7.35186 6.54213C7.34569 5.70041 7.35059 4.95513 7.36268 4.88591ZM12.516 4.88591C12.5434 4.72935 12.7002 4.52993 12.8506 4.46056C12.941 4.4188 13.2776 4.40981 14.4835 4.41688C15.9526 4.42552 16.006 4.42845 16.1056 4.50634C16.1623 4.55063 16.2433 4.6354 16.2857 4.69474C16.3606 4.79966 16.3627 4.8472 16.3627 6.43752C16.3627 8.02784 16.3606 8.07538 16.2857 8.1803C16.2433 8.23964 16.1623 8.32441 16.1056 8.3687C16.0053 8.44706 15.9598 8.44925 14.4395 8.44925C12.9192 8.44925 12.8738 8.44706 12.7735 8.3687C12.7167 8.32441 12.6357 8.23964 12.5934 8.18034C12.5191 8.07644 12.5159 8.01737 12.5052 6.54213C12.499 5.70041 12.5039 4.95513 12.516 4.88591ZM7.4175 10.2104C7.46418 10.1095 7.54679 10.0145 7.63346 9.96192C7.77122 9.8784 7.80132 9.87684 9.28111 9.87594C10.7624 9.87504 10.7909 9.87652 10.9335 9.96035C11.0268 10.0152 11.1058 10.1043 11.1546 10.2097C11.2276 10.3676 11.2301 10.433 11.2199 11.9506L11.2094 13.5274L11.1224 13.6549C11.0841 13.7111 11.055 13.7552 11.0172 13.7899C10.8756 13.9202 10.612 13.918 9.28619 13.918C7.96038 13.918 7.69681 13.9202 7.55513 13.7899C7.51736 13.7552 7.48825 13.7111 7.44999 13.6549L7.36302 13.5274L7.35245 11.9506C7.3423 10.4351 7.34483 10.3674 7.4175 10.2104ZM12.5708 10.2104C12.6175 10.1095 12.7001 10.0145 12.7868 9.96192C12.9246 9.8784 12.9547 9.87684 14.4344 9.87594C15.9157 9.87504 15.9443 9.87652 16.0869 9.96035C16.1802 10.0152 16.2591 10.1043 16.3079 10.2097C16.381 10.3676 16.3834 10.433 16.3733 11.9506L16.3627 13.5274L16.2757 13.6549C16.2375 13.7111 16.2084 13.7552 16.1706 13.7899C16.0289 13.9202 15.7653 13.918 14.4395 13.918C13.1137 13.918 12.8502 13.9202 12.7085 13.7899C12.6707 13.7552 12.6416 13.7111 12.6033 13.6549L12.5164 13.5274L12.5058 11.9506C12.4956 10.4351 12.4982 10.3674 12.5708 10.2104Z" fill="#6F6F6D"/>
<path d="M9.95836 20.6564H13.7674V16.672H9.95836V20.6564Z" fill="#6F6F6D"/>
<path d="M17.7257 20.6564V20.9064H17.9757V20.6564H17.7257ZM14.8876 20.6564L14.6376 20.6564L14.6377 20.9064H14.8876V20.6564ZM6 20.6564H5.75V20.9064H6V20.6564ZM8.83807 20.6564V20.9064H9.08806L9.08807 20.6564L8.83807 20.6564ZM8.83822 18.2833L9.08822 18.2833V18.2833L8.83822 18.2833ZM8.91257 15.7829L9.12853 15.9089L9.12857 15.9088L8.91257 15.7829ZM9.10847 15.578L9.24289 15.7888L9.24293 15.7888L9.10847 15.578ZM14.6172 15.578L14.4828 15.7888L14.4828 15.7888L14.6172 15.578ZM14.8131 15.7829L14.5971 15.9088L14.5972 15.9089L14.8131 15.7829ZM14.8875 18.2833L14.6375 18.2833V18.2833L14.8875 18.2833ZM7.69724 4.46056L7.80199 4.68755L7.80207 4.68752L7.69724 4.46056ZM7.36268 4.88591L7.11642 4.84285L7.11642 4.84286L7.36268 4.88591ZM9.33018 4.41688L9.33165 4.16689H9.33164L9.33018 4.41688ZM10.9523 4.50634L10.7983 4.70332L10.7984 4.70333L10.9523 4.50634ZM11.1324 4.69474L10.9289 4.83996L10.9289 4.84L11.1324 4.69474ZM11.1324 8.1803L10.9289 8.03504L10.9289 8.03508L11.1324 8.1803ZM10.9522 8.3687L10.7984 8.17167L10.7983 8.17169L10.9522 8.3687ZM7.62013 8.3687L7.77404 8.17169L7.774 8.17167L7.62013 8.3687ZM7.44002 8.18034L7.64347 8.03505L7.64344 8.03501L7.44002 8.18034ZM7.35186 6.54213L7.60185 6.54031V6.5403L7.35186 6.54213ZM12.8506 4.46056L12.9553 4.68755L12.9554 4.68752L12.8506 4.46056ZM12.516 4.88591L12.2698 4.84285L12.2698 4.84286L12.516 4.88591ZM14.4835 4.41688L14.485 4.16689H14.485L14.4835 4.41688ZM16.1056 4.50634L15.9517 4.70332L15.9517 4.70332L16.1056 4.50634ZM16.2857 4.69474L16.0822 4.83996L16.0822 4.84L16.2857 4.69474ZM16.2857 8.1803L16.0822 8.03504L16.0822 8.03508L16.2857 8.1803ZM16.1056 8.3687L15.9517 8.17167L15.9517 8.17169L16.1056 8.3687ZM12.7735 8.3687L12.9274 8.17169L12.9273 8.17167L12.7735 8.3687ZM12.5934 8.18034L12.7968 8.03505L12.7968 8.03501L12.5934 8.18034ZM12.5052 6.54213L12.7552 6.54031V6.5403L12.5052 6.54213ZM10.0891 7.27737L10.0923 7.52735L10.3391 7.52415V7.27737H10.0891ZM8.46464 7.29842H8.21464V7.55169L8.46788 7.5484L8.46464 7.29842ZM10.0891 5.59767H10.3391V5.35099L10.0924 5.34769L10.0891 5.59767ZM9.30247 5.58716L9.29913 5.83714H9.29913L9.30247 5.58716ZM8.49026 5.60341L8.30955 5.43066L8.30932 5.4309L8.49026 5.60341ZM15.2625 7.29842L15.2593 7.5484L15.5155 7.55172L15.5125 7.29547L15.2625 7.29842ZM13.6367 7.27737L13.3867 7.28053L13.3898 7.52419L13.6334 7.52735L13.6367 7.27737ZM15.2424 5.59767L15.4924 5.59471L15.4895 5.35093L15.2457 5.34769L15.2424 5.59767ZM14.448 5.58712L14.4446 5.8371L14.448 5.58712ZM13.635 5.62724L13.8696 5.71345L13.8697 5.71341L13.635 5.62724ZM13.6265 6.47764L13.8765 6.47447L13.8765 6.47445L13.6265 6.47764ZM7.63346 9.96192L7.76305 10.1757L7.76306 10.1757L7.63346 9.96192ZM7.4175 10.2104L7.64438 10.3154L7.64438 10.3154L7.4175 10.2104ZM9.28111 9.87594L9.28096 9.62594H9.28096L9.28111 9.87594ZM10.9335 9.96035L11.0602 9.74484L11.0602 9.74483L10.9335 9.96035ZM11.1546 10.2097L11.3815 10.1047L11.3815 10.1047L11.1546 10.2097ZM11.2199 11.9506L11.4699 11.9523V11.9523L11.2199 11.9506ZM11.2094 13.5274L11.4159 13.6683L11.4588 13.6053L11.4593 13.5291L11.2094 13.5274ZM11.1224 13.6549L10.9158 13.5141L10.9158 13.5141L11.1224 13.6549ZM11.0172 13.7899L10.848 13.6059H10.848L11.0172 13.7899ZM7.55513 13.7899L7.72436 13.6059L7.72436 13.6059L7.55513 13.7899ZM7.44999 13.6549L7.65656 13.5141L7.65654 13.5141L7.44999 13.6549ZM7.36302 13.5274L7.11303 13.5291L7.11354 13.6053L7.15647 13.6683L7.36302 13.5274ZM7.35245 11.9506L7.10246 11.9523L7.35245 11.9506ZM12.7868 9.96192L12.9164 10.1757L12.9164 10.1757L12.7868 9.96192ZM12.5708 10.2104L12.7977 10.3154L12.7977 10.3154L12.5708 10.2104ZM14.4344 9.87594L14.4343 9.62594L14.4344 9.87594ZM16.0869 9.96035L16.2136 9.74484L16.2136 9.74483L16.0869 9.96035ZM16.3079 10.2097L16.5348 10.1047L16.5348 10.1047L16.3079 10.2097ZM16.3733 11.9506L16.6233 11.9523V11.9523L16.3733 11.9506ZM16.3627 13.5274L16.5692 13.6683L16.6122 13.6053L16.6127 13.5291L16.3627 13.5274ZM16.2757 13.6549L16.0692 13.5141L16.0692 13.5141L16.2757 13.6549ZM16.1706 13.7899L16.0014 13.6059L16.0014 13.6059L16.1706 13.7899ZM12.7085 13.7899L12.8777 13.6059H12.8777L12.7085 13.7899ZM12.6033 13.6549L12.8099 13.5141L12.8099 13.5141L12.6033 13.6549ZM12.5164 13.5274L12.2664 13.5291L12.2669 13.6053L12.3098 13.6683L12.5164 13.5274ZM12.5058 11.9506L12.2558 11.9523L12.5058 11.9506ZM8.46464 12.7266H8.21464V12.9766H8.46464V12.7266ZM8.46464 11.0469V10.7969H8.21464V11.0469H8.46464ZM10.1077 12.7266V12.9766H10.3577V12.7266H10.1077ZM10.1077 11.0469H10.3577V10.7969H10.1077V11.0469ZM13.618 12.7266H13.368V12.9766H13.618V12.7266ZM13.618 11.0469V10.7969H13.368V11.0469H13.618ZM15.2611 12.7266V12.9766H15.5111V12.7266H15.2611ZM15.2611 11.0469H15.5111V10.7969H15.2611V11.0469ZM13.7674 20.6564V20.9064H14.0174V20.6564H13.7674ZM9.95836 20.6564H9.70836V20.9064H9.95836V20.6564ZM13.7674 16.672H14.0174V16.422H13.7674V16.672ZM9.95836 16.672V16.422H9.70836V16.672H9.95836ZM17.7257 20.4064H14.8876V20.9064H17.7257V20.4064ZM17.4757 4V20.6564H17.9757V4H17.4757ZM7 3.25H16.7257V2.75H7V3.25ZM6.25 20.6564V4H5.75V20.6564H6.25ZM8.83807 20.4064H6V20.9064H8.83807V20.4064ZM8.58822 18.2833L8.58807 20.6563L9.08807 20.6564L9.08822 18.2833L8.58822 18.2833ZM8.69661 15.657C8.66565 15.7101 8.64023 15.7662 8.62419 15.8603C8.61065 15.9397 8.60338 16.0482 8.59858 16.2098C8.58885 16.5368 8.58828 17.1362 8.58822 18.2833L9.08822 18.2833C9.08828 17.1313 9.08891 16.5422 9.09836 16.2246C9.10313 16.0639 9.10994 15.9862 9.11707 15.9444C9.12169 15.9173 9.12353 15.9174 9.12853 15.9089L8.69661 15.657ZM8.97406 15.3672C8.87282 15.4318 8.757 15.5534 8.69657 15.6571L9.12857 15.9088C9.14977 15.8724 9.21022 15.8096 9.24289 15.7888L8.97406 15.3672ZM11.8629 15.2503C10.5846 15.2503 9.92071 15.2508 9.56254 15.2609C9.38587 15.2659 9.26956 15.2735 9.18673 15.2875C9.08704 15.3045 9.02901 15.3322 8.97401 15.3672L9.24293 15.7888C9.24714 15.7861 9.24285 15.7852 9.27051 15.7805C9.31503 15.7729 9.39968 15.7657 9.57663 15.7607C9.92574 15.7509 10.5798 15.7503 11.8629 15.7503V15.2503ZM14.7517 15.3672C14.6967 15.3322 14.6387 15.3045 14.539 15.2875C14.4562 15.2735 14.3398 15.2659 14.1632 15.2609C13.805 15.2508 13.1411 15.2503 11.8629 15.2503V15.7503C13.1459 15.7503 13.8 15.7509 14.1491 15.7607C14.326 15.7657 14.4107 15.7729 14.4552 15.7805C14.4829 15.7852 14.4786 15.7861 14.4828 15.7888L14.7517 15.3672ZM15.0291 15.6571C14.9687 15.5534 14.8529 15.4318 14.7517 15.3672L14.4828 15.7888C14.5155 15.8096 14.5759 15.8724 14.5971 15.9088L15.0291 15.6571ZM15.1375 18.2833C15.1374 17.1362 15.1369 16.5368 15.1271 16.2098C15.1223 16.0482 15.1151 15.9397 15.1015 15.8603C15.0855 15.7662 15.0601 15.7101 15.0291 15.657L14.5972 15.9089C14.6022 15.9174 14.604 15.9173 14.6086 15.9444C14.6158 15.9862 14.6226 16.0639 14.6274 16.2246C14.6368 16.5422 14.6374 17.1313 14.6375 18.2833L15.1375 18.2833ZM15.1376 20.6563L15.1375 18.2833L14.6375 18.2833L14.6376 20.6564L15.1376 20.6563ZM7.59249 4.23356C7.47076 4.28973 7.36471 4.38763 7.28735 4.48598C7.21053 4.58365 7.1396 4.71029 7.11642 4.84285L7.60895 4.92896C7.61314 4.90497 7.63432 4.85361 7.68035 4.79509C7.72584 4.73726 7.77338 4.70075 7.80199 4.68755L7.59249 4.23356ZM9.33164 4.16689C8.72925 4.16336 8.33961 4.16379 8.0887 4.1705C7.96363 4.17384 7.86776 4.17886 7.79492 4.18648C7.72936 4.19334 7.65541 4.2045 7.59241 4.2336L7.80207 4.68752C7.78427 4.69574 7.7863 4.69011 7.84696 4.68376C7.90035 4.67818 7.98093 4.67356 8.10206 4.67032C8.34353 4.66386 8.72515 4.66334 9.32871 4.66688L9.33164 4.16689ZM11.1062 4.30935C11.0651 4.27725 11.0133 4.2423 10.9287 4.2194C10.8597 4.20073 10.7755 4.19192 10.6685 4.18602C10.4512 4.17404 10.0622 4.17118 9.33165 4.16689L9.32871 4.66688C10.0672 4.67122 10.4394 4.67415 10.641 4.68526C10.7434 4.69091 10.7831 4.69797 10.798 4.70203C10.8024 4.7032 10.7999 4.70287 10.7947 4.70004C10.7905 4.69777 10.7895 4.69644 10.7983 4.70332L11.1062 4.30935ZM11.3358 4.54951C11.2797 4.47086 11.182 4.3686 11.1062 4.30935L10.7984 4.70333C10.8359 4.73267 10.9003 4.79994 10.9289 4.83996L11.3358 4.54951ZM11.4594 6.43752C11.4594 5.64602 11.4589 5.22895 11.4487 4.99807C11.4437 4.88444 11.4358 4.79801 11.4189 4.72852C11.3981 4.64319 11.3657 4.5913 11.3358 4.54947L10.9289 4.84C10.9365 4.85063 10.9324 4.84403 10.9331 4.84683C10.9376 4.86545 10.9443 4.90998 10.9492 5.02014C10.9588 5.23684 10.9594 5.6387 10.9594 6.43752H11.4594ZM11.3358 8.32557C11.3657 8.28374 11.3981 8.23185 11.4189 8.14652C11.4358 8.07703 11.4437 7.9906 11.4487 7.87697C11.4589 7.64609 11.4594 7.22902 11.4594 6.43752H10.9594C10.9594 7.23634 10.9588 7.6382 10.9492 7.8549C10.9443 7.96506 10.9376 8.00959 10.9331 8.02821C10.9324 8.03101 10.9365 8.02441 10.9289 8.03504L11.3358 8.32557ZM11.1061 8.56574C11.182 8.50646 11.2797 8.40418 11.3358 8.32553L10.9289 8.03508C10.9003 8.0751 10.8359 8.14235 10.7984 8.17167L11.1061 8.56574ZM9.28619 8.69925C10.0423 8.69925 10.4421 8.69879 10.6638 8.68807C10.7727 8.6828 10.8581 8.67448 10.9278 8.65592C11.014 8.63293 11.066 8.5971 11.1062 8.56571L10.7983 8.17169C10.7887 8.17925 10.7898 8.17776 10.7942 8.17536C10.7999 8.17225 10.8029 8.17174 10.799 8.17278C10.7844 8.17667 10.7446 8.18358 10.6396 8.18865C10.4335 8.19862 10.0503 8.19925 9.28619 8.19925V8.69925ZM7.46622 8.56571C7.50639 8.5971 7.55835 8.63293 7.6446 8.65592C7.71424 8.67448 7.79963 8.6828 7.90858 8.68807C8.13027 8.69879 8.53004 8.69925 9.28619 8.69925V8.19925C8.52203 8.19925 8.13891 8.19862 7.93273 8.18865C7.82774 8.18358 7.78794 8.17667 7.77335 8.17278C7.76945 8.17174 7.77251 8.17225 7.77818 8.17536C7.78258 8.17776 7.7837 8.17925 7.77404 8.17169L7.46622 8.56571ZM7.23658 8.32563C7.29268 8.40419 7.39034 8.50646 7.46626 8.56574L7.774 8.17167C7.73647 8.14236 7.67206 8.07509 7.64347 8.03505L7.23658 8.32563ZM7.10186 6.54395C7.10721 7.27788 7.11068 7.66933 7.12249 7.88892C7.12833 7.99731 7.13684 8.08103 7.15404 8.14918C7.17483 8.23153 7.20617 8.28307 7.23661 8.32568L7.64344 8.03501C7.63676 8.02566 7.63986 8.03085 7.63884 8.0268C7.63423 8.00856 7.62736 7.96582 7.62177 7.86205C7.61075 7.65732 7.60725 7.28162 7.60185 6.54031L7.10186 6.54395ZM7.11642 4.84286C7.11159 4.87046 7.10983 4.90686 7.10874 4.93127C7.10734 4.9626 7.10613 5.00278 7.10508 5.04997C7.10298 5.1446 7.10141 5.27203 7.10043 5.42269C7.09845 5.72428 7.09878 6.12221 7.10186 6.54396L7.60185 6.5403C7.59877 6.12032 7.59846 5.72476 7.60042 5.42597C7.6014 5.27645 7.60294 5.15197 7.60496 5.06109C7.60597 5.01552 7.60708 4.97954 7.60824 4.95358C7.60971 4.9207 7.61075 4.91866 7.60895 4.92896L7.11642 4.84286ZM12.7458 4.23356C12.6241 4.28973 12.518 4.38762 12.4407 4.48598C12.3639 4.58365 12.2929 4.71029 12.2698 4.84285L12.7623 4.92896C12.7665 4.90497 12.7877 4.85361 12.8337 4.79509C12.8792 4.73726 12.9267 4.70075 12.9553 4.68755L12.7458 4.23356ZM14.485 4.16689C13.8826 4.16336 13.4929 4.16379 13.242 4.1705C13.117 4.17384 13.0211 4.17886 12.9483 4.18648C12.8827 4.19334 12.8088 4.2045 12.7458 4.2336L12.9554 4.68752C12.9376 4.69574 12.9396 4.69011 13.0003 4.68376C13.0537 4.67818 13.1343 4.67356 13.2554 4.67032C13.4969 4.66386 13.8785 4.66334 14.4821 4.66688L14.485 4.16689ZM16.2596 4.30935C16.2185 4.27725 16.1666 4.2423 16.082 4.2194C16.0131 4.20073 15.9289 4.19192 15.8219 4.18602C15.6046 4.17404 15.2156 4.17118 14.485 4.16689L14.482 4.66688C15.2206 4.67122 15.5928 4.67415 15.7943 4.68526C15.8968 4.69091 15.9364 4.69797 15.9514 4.70203C15.9557 4.7032 15.9532 4.70287 15.948 4.70004C15.9438 4.69777 15.9429 4.69644 15.9517 4.70332L16.2596 4.30935ZM16.4892 4.54951C16.4331 4.47086 16.3354 4.3686 16.2596 4.30935L15.9517 4.70332C15.9892 4.73266 16.0536 4.79994 16.0822 4.83996L16.4892 4.54951ZM16.6127 6.43752C16.6127 5.64602 16.6122 5.22895 16.602 4.99807C16.597 4.88444 16.5892 4.79801 16.5722 4.72852C16.5514 4.64319 16.519 4.5913 16.4892 4.54947L16.0822 4.84C16.0898 4.85063 16.0857 4.84404 16.0864 4.84683C16.091 4.86545 16.0977 4.90998 16.1025 5.02014C16.1121 5.23684 16.1127 5.6387 16.1127 6.43752H16.6127ZM16.4892 8.32557C16.519 8.28374 16.5514 8.23185 16.5722 8.14652C16.5892 8.07703 16.597 7.9906 16.602 7.87697C16.6122 7.64609 16.6127 7.22902 16.6127 6.43752H16.1127C16.1127 7.23634 16.1121 7.6382 16.1025 7.8549C16.0977 7.96506 16.091 8.00959 16.0864 8.02821C16.0857 8.03101 16.0898 8.02441 16.0822 8.03504L16.4892 8.32557ZM16.2595 8.56574C16.3354 8.50646 16.4331 8.40418 16.4892 8.32553L16.0822 8.03508C16.0536 8.0751 15.9893 8.14235 15.9517 8.17167L16.2595 8.56574ZM14.4395 8.69925C15.1957 8.69925 15.5954 8.69879 15.8171 8.68807C15.9261 8.6828 16.0115 8.67448 16.0811 8.65592C16.1674 8.63293 16.2193 8.5971 16.2595 8.56571L15.9517 8.17169C15.942 8.17925 15.9431 8.17776 15.9475 8.17536C15.9532 8.17225 15.9563 8.17174 15.9524 8.17278C15.9378 8.17667 15.898 8.18358 15.793 8.18865C15.5868 8.19862 15.2037 8.19925 14.4395 8.19925V8.69925ZM12.6196 8.56571C12.6597 8.5971 12.7117 8.63293 12.7979 8.65592C12.8676 8.67448 12.953 8.6828 13.0619 8.68807C13.2836 8.69879 13.6834 8.69925 14.4395 8.69925V8.19925C13.6754 8.19925 13.2923 8.19862 13.0861 8.18865C12.9811 8.18358 12.9413 8.17667 12.9267 8.17278C12.9228 8.17174 12.9258 8.17225 12.9315 8.17536C12.9359 8.17776 12.937 8.17925 12.9274 8.17169L12.6196 8.56571ZM12.3899 8.32563C12.446 8.40419 12.5437 8.50646 12.6196 8.56574L12.9273 8.17167C12.8898 8.14236 12.8254 8.07509 12.7968 8.03505L12.3899 8.32563ZM12.2552 6.54395C12.2606 7.27788 12.264 7.66933 12.2758 7.88892C12.2817 7.99731 12.2902 8.08103 12.3074 8.14918C12.3282 8.23153 12.3595 8.28307 12.3899 8.32568L12.7968 8.03501C12.7901 8.02566 12.7932 8.03085 12.7922 8.0268C12.7876 8.00856 12.7807 7.96582 12.7751 7.86205C12.7641 7.65732 12.7606 7.28162 12.7552 6.54031L12.2552 6.54395ZM12.2698 4.84286C12.2649 4.87046 12.2632 4.90686 12.2621 4.93127C12.2607 4.9626 12.2595 5.00278 12.2584 5.04997C12.2563 5.1446 12.2548 5.27203 12.2538 5.42269C12.2518 5.72428 12.2521 6.12221 12.2552 6.54396L12.7552 6.5403C12.7521 6.12032 12.7518 5.72476 12.7538 5.42597C12.7547 5.27645 12.7563 5.15197 12.7583 5.06109C12.7593 5.01552 12.7604 4.97954 12.7616 4.95358C12.7631 4.9207 12.7641 4.91866 12.7623 4.92896L12.2698 4.84286ZM10.0858 7.02739L8.4614 7.04844L8.46788 7.5484L10.0923 7.52735L10.0858 7.02739ZM9.83906 5.59767V7.27737H10.3391V5.59767H9.83906ZM9.29913 5.83714L10.0857 5.84765L10.0924 5.34769L9.30581 5.33719L9.29913 5.83714ZM8.67097 5.77617C8.63311 5.81577 8.59243 5.83139 8.58517 5.83428C8.57114 5.83988 8.56008 5.84268 8.55578 5.84372C8.54667 5.84593 8.54143 5.84646 8.54396 5.84613C8.54768 5.84564 8.55815 5.84458 8.57773 5.84337C8.6156 5.84102 8.6721 5.83899 8.74441 5.83755C8.88815 5.83467 9.0848 5.83428 9.29913 5.83714L9.30581 5.33719C9.08752 5.33427 8.88511 5.33463 8.73441 5.33765C8.6595 5.33915 8.59495 5.34134 8.5468 5.34433C8.52338 5.34578 8.4996 5.34766 8.47896 5.35037C8.4693 5.35164 8.45433 5.35383 8.43811 5.35776C8.43025 5.35967 8.4163 5.36334 8.40002 5.36983C8.39053 5.37361 8.34829 5.39013 8.30955 5.43066L8.67097 5.77617ZM8.71464 6.46432C8.71464 6.23671 8.71751 6.02774 8.72206 5.87481C8.72435 5.79795 8.727 5.73739 8.72975 5.69641C8.73117 5.67533 8.73237 5.66313 8.73306 5.65779C8.73349 5.6545 8.73313 5.65843 8.73139 5.66608C8.73058 5.66964 8.72824 5.67953 8.72353 5.6923C8.72159 5.69759 8.7078 5.73754 8.6712 5.77593L8.30932 5.4309C8.27184 5.47021 8.25718 5.51181 8.25436 5.51946C8.24878 5.5346 8.24558 5.54755 8.24391 5.55487C8.24045 5.57004 8.2384 5.58426 8.23717 5.59387C8.23453 5.61433 8.23252 5.6384 8.23088 5.66289C8.22751 5.71303 8.22464 5.78075 8.22228 5.85993C8.21754 6.01907 8.21464 6.23317 8.21464 6.46432H8.71464ZM8.71464 7.29842V6.46432H8.21464V7.29842H8.71464ZM15.2658 7.04844L13.6399 7.02739L13.6334 7.52735L15.2593 7.5484L15.2658 7.04844ZM14.9924 5.60063L15.0125 7.30138L15.5125 7.29547L15.4924 5.59471L14.9924 5.60063ZM14.4446 5.8371L15.2391 5.84765L15.2457 5.34769L14.4513 5.33715L14.4446 5.8371ZM13.8697 5.71341C13.8427 5.7868 13.7898 5.82149 13.7681 5.83331C13.7462 5.84522 13.7311 5.84788 13.7348 5.84706C13.7412 5.84564 13.7662 5.84178 13.8254 5.83886C13.9397 5.83322 14.1316 5.83295 14.4446 5.8371L14.4513 5.33715C14.1406 5.33302 13.9333 5.33293 13.8007 5.33947C13.7364 5.34264 13.6761 5.34789 13.6261 5.35901C13.6016 5.36446 13.5656 5.37425 13.5289 5.39421C13.4924 5.41409 13.4309 5.45774 13.4003 5.54107L13.8697 5.71341ZM13.8765 6.47445C13.8737 6.25594 13.8733 6.05225 13.8748 5.90042C13.8756 5.82428 13.8768 5.7626 13.8784 5.71916C13.8792 5.69715 13.88 5.68199 13.8807 5.67285C13.8811 5.66808 13.8812 5.66741 13.881 5.6694C13.8808 5.67039 13.8803 5.67405 13.8793 5.67934C13.8786 5.68282 13.8759 5.69632 13.8696 5.71345L13.4003 5.54103C13.3891 5.57164 13.3858 5.59991 13.3853 5.6037C13.3839 5.61457 13.3829 5.62541 13.3822 5.63463C13.3807 5.65346 13.3796 5.67621 13.3787 5.70087C13.3769 5.75076 13.3756 5.81747 13.3748 5.89546C13.3733 6.05191 13.3737 6.25949 13.3766 6.48082L13.8765 6.47445ZM13.8866 7.27421L13.8765 6.47447L13.3766 6.4808L13.3867 7.28053L13.8866 7.27421ZM7.50387 9.74813C7.37053 9.82895 7.25606 9.964 7.19062 10.1054L7.64438 10.3154C7.67231 10.2551 7.72304 10.2 7.76305 10.1757L7.50387 9.74813ZM9.28096 9.62594C8.54542 9.62639 8.15899 9.62691 7.94099 9.63829C7.83225 9.64396 7.74839 9.65293 7.6774 9.67158C7.59689 9.69273 7.54463 9.72341 7.50385 9.74813L7.76306 10.1757C7.79117 10.1587 7.79433 10.1578 7.80445 10.1552C7.82409 10.15 7.86608 10.1429 7.96705 10.1376C8.16849 10.1271 8.53701 10.1264 9.28126 10.1259L9.28096 9.62594ZM11.0602 9.74483C11.0189 9.72056 10.9664 9.6905 10.8863 9.6697C10.8151 9.6512 10.7312 9.64228 10.6221 9.6367C10.4036 9.62554 10.0172 9.62549 9.28096 9.62594L9.28126 10.1259C10.0263 10.1255 10.3947 10.1257 10.5966 10.136C10.6976 10.1412 10.7401 10.1483 10.7606 10.1536C10.7723 10.1567 10.7768 10.1582 10.8069 10.1759L11.0602 9.74483ZM11.3815 10.1047C11.3129 9.95668 11.2007 9.82741 11.0602 9.74484L10.8068 10.1759C10.853 10.203 10.8986 10.2518 10.9277 10.3147L11.3815 10.1047ZM11.4699 11.9523C11.475 11.1969 11.477 10.7937 11.4683 10.5609C11.4639 10.4443 11.4565 10.358 11.4422 10.2862C11.4265 10.2072 11.404 10.1535 11.3815 10.1047L10.9277 10.3147C10.9417 10.3449 10.9468 10.3586 10.9518 10.3837C10.9582 10.4159 10.9645 10.4704 10.9686 10.5796C10.9768 10.7984 10.975 11.1867 10.9699 11.9489L11.4699 11.9523ZM11.4593 13.5291L11.4699 11.9523L10.9699 11.9489L10.9594 13.5257L11.4593 13.5291ZM11.3289 13.7958L11.4159 13.6683L11.0028 13.3866L10.9158 13.5141L11.3289 13.7958ZM11.1865 13.974C11.2503 13.9153 11.2971 13.8425 11.3289 13.7958L10.9158 13.5141C10.8712 13.5796 10.8597 13.5951 10.848 13.6059L11.1865 13.974ZM9.28619 14.168C9.94391 14.168 10.3521 14.1687 10.6115 14.1524C10.8625 14.1365 11.0455 14.1036 11.1865 13.974L10.848 13.6059C10.8473 13.6066 10.8277 13.6377 10.58 13.6533C10.3408 13.6684 9.95427 13.668 9.28619 13.668V14.168ZM7.38589 13.974C7.52689 14.1036 7.70992 14.1365 7.96087 14.1524C8.22029 14.1687 8.62847 14.168 9.28619 14.168V13.668C8.6181 13.668 8.23159 13.6684 7.99236 13.6533C7.74464 13.6377 7.72505 13.6066 7.72436 13.6059L7.38589 13.974ZM7.24343 13.7958C7.27528 13.8425 7.32209 13.9153 7.38589 13.974L7.72436 13.6059C7.71263 13.5951 7.70122 13.5796 7.65656 13.5141L7.24343 13.7958ZM7.15647 13.6683L7.24345 13.7958L7.65654 13.5141L7.56957 13.3866L7.15647 13.6683ZM7.10246 11.9523L7.11303 13.5291L7.61302 13.5257L7.60245 11.9489L7.10246 11.9523ZM7.19063 10.1054C7.16802 10.1542 7.14562 10.2079 7.13 10.2869C7.1158 10.3588 7.10845 10.4451 7.10409 10.5617C7.09538 10.7947 7.0974 11.1979 7.10246 11.9523L7.60245 11.9489C7.59735 11.1878 7.59556 10.7994 7.60374 10.5804C7.60783 10.4711 7.61411 10.4163 7.62051 10.3839C7.62549 10.3587 7.63065 10.3451 7.64438 10.3154L7.19063 10.1054ZM12.6572 9.74813C12.5239 9.82895 12.4094 9.964 12.344 10.1054L12.7977 10.3154C12.8256 10.2551 12.8764 10.2 12.9164 10.1757L12.6572 9.74813ZM14.4343 9.62594C13.6988 9.62639 13.3123 9.62691 13.0943 9.63829C12.9856 9.64396 12.9017 9.65293 12.8307 9.67158C12.7502 9.69273 12.698 9.72341 12.6572 9.74813L12.9164 10.1757C12.9445 10.1587 12.9477 10.1578 12.9578 10.1552C12.9774 10.15 13.0194 10.1429 13.1204 10.1376C13.3218 10.1271 13.6903 10.1264 14.4346 10.1259L14.4343 9.62594ZM16.2136 9.74483C16.1723 9.72056 16.1197 9.6905 16.0397 9.6697C15.9684 9.6512 15.8845 9.64228 15.7754 9.6367C15.557 9.62554 15.1706 9.62549 14.4343 9.62594L14.4346 10.1259C15.1796 10.1255 15.5481 10.1257 15.7499 10.136C15.8509 10.1412 15.8935 10.1483 15.914 10.1536C15.9257 10.1567 15.9302 10.1582 15.9602 10.1759L16.2136 9.74483ZM16.5348 10.1047C16.4663 9.95668 16.354 9.82741 16.2136 9.74484L15.9602 10.1759C16.0063 10.203 16.0519 10.2518 16.081 10.3147L16.5348 10.1047ZM16.6233 11.9523C16.6283 11.1969 16.6304 10.7937 16.6216 10.5609C16.6172 10.4443 16.6099 10.358 16.5956 10.2862C16.5799 10.2072 16.5573 10.1535 16.5348 10.1047L16.081 10.3147C16.095 10.3449 16.1002 10.3586 16.1052 10.3837C16.1116 10.4159 16.1179 10.4704 16.122 10.5796C16.1302 10.7984 16.1284 11.1867 16.1233 11.9489L16.6233 11.9523ZM16.6127 13.5291L16.6233 11.9523L16.1233 11.9489L16.1127 13.5257L16.6127 13.5291ZM16.4823 13.7958L16.5692 13.6683L16.1561 13.3866L16.0692 13.5141L16.4823 13.7958ZM16.3398 13.974C16.4036 13.9153 16.4504 13.8425 16.4823 13.7958L16.0692 13.5141C16.0245 13.5796 16.0131 13.5951 16.0014 13.6059L16.3398 13.974ZM14.4395 14.168C15.0972 14.168 15.5054 14.1687 15.7648 14.1524C16.0158 14.1365 16.1988 14.1036 16.3398 13.974L16.0014 13.6059C16.0007 13.6066 15.9811 13.6377 15.7334 13.6533C15.4941 13.6684 15.1076 13.668 14.4395 13.668V14.168ZM12.5392 13.974C12.6802 14.1036 12.8633 14.1365 13.1142 14.1524C13.3736 14.1687 13.7818 14.168 14.4395 14.168V13.668C13.7714 13.668 13.3849 13.6684 13.1457 13.6533C12.898 13.6377 12.8784 13.6066 12.8777 13.6059L12.5392 13.974ZM12.3968 13.7958C12.4286 13.8425 12.4754 13.9153 12.5392 13.974L12.8777 13.6059C12.866 13.5951 12.8546 13.5796 12.8099 13.5141L12.3968 13.7958ZM12.3098 13.6683L12.3968 13.7958L12.8099 13.5141L12.7229 13.3866L12.3098 13.6683ZM12.2558 11.9523L12.2664 13.5291L12.7664 13.5257L12.7558 11.9489L12.2558 11.9523ZM12.344 10.1054C12.3214 10.1542 12.299 10.2079 12.2833 10.2869C12.2691 10.3588 12.2618 10.4451 12.2574 10.5617C12.2487 10.7947 12.2507 11.1979 12.2558 11.9523L12.7558 11.9489C12.7507 11.1878 12.7489 10.7994 12.7571 10.5804C12.7612 10.4711 12.7674 10.4163 12.7738 10.3839C12.7788 10.3587 12.784 10.3451 12.7977 10.3154L12.344 10.1054ZM8.71464 12.7266V11.0469H8.21464V12.7266H8.71464ZM10.1077 12.4766H8.46464V12.9766H10.1077V12.4766ZM9.85773 11.0469V12.7266H10.3577V11.0469H9.85773ZM8.46464 11.2969H10.1077V10.7969H8.46464V11.2969ZM13.868 12.7266V11.0469H13.368V12.7266H13.868ZM15.2611 12.4766H13.618V12.9766H15.2611V12.4766ZM15.0111 11.0469V12.7266H15.5111V11.0469H15.0111ZM13.618 11.2969H15.2611V10.7969H13.618V11.2969ZM13.7674 20.4064H9.95836V20.9064H13.7674V20.4064ZM13.5174 16.672V20.6564H14.0174V16.672H13.5174ZM9.95836 16.922H13.7674V16.422H9.95836V16.922ZM10.2084 20.6564V16.672H9.70836V20.6564H10.2084ZM7 2.75C6.30964 2.75 5.75 3.30964 5.75 4H6.25C6.25 3.58579 6.58579 3.25 7 3.25V2.75ZM17.9757 4C17.9757 3.30964 17.4161 2.75 16.7257 2.75V3.25C17.1399 3.25 17.4757 3.58579 17.4757 4H17.9757Z" fill="#6F6F6D"/>
<path fill-rule="evenodd" clip-rule="evenodd" d="M3 21.2563C3 20.9249 3.26863 20.6562 3.6 20.6562H20.6C20.9314 20.6562 21.2 20.9249 21.2 21.2563C21.2 21.5876 20.9314 21.8563 20.6 21.8563H3.6C3.26863 21.8563 3 21.5876 3 21.2563Z" fill="#6F6F6D"/>
</svg>
