<svg width="24" height="24" viewBox="0 0 24 24" fill="none" xmlns="http://www.w3.org/2000/svg">
<path fill-rule="evenodd" clip-rule="evenodd" d="M1 12C1 8.13401 4.13401 5 8 5H16C19.866 5 23 8.13401 23 12C23 15.866 19.866 19 16 19H8C4.13401 19 1 15.866 1 12ZM16.1664 14.236C14.9604 14.236 14.0424 13.354 14.0424 12.1C14.0424 10.846 14.9604 9.95801 16.1664 9.95801C17.0964 9.95801 17.8524 10.456 18.1344 11.314H17.1684C16.9704 10.912 16.6104 10.714 16.1604 10.714C15.4284 10.714 14.9064 11.248 14.9064 12.1C14.9064 12.946 15.4284 13.486 16.1604 13.486C16.6104 13.486 16.9704 13.288 17.1684 12.88H18.1344C17.8524 13.744 17.0964 14.236 16.1664 14.236ZM8.82002 14.2H9.70802L8.20202 10.006H7.22402L5.71802 14.2H6.60002L6.87602 13.402H8.54402L8.82002 14.2ZM7.10402 12.73L7.71002 10.978L8.31602 12.73H7.10402ZM12.6649 12.964C12.6649 13.318 12.4249 13.516 12.0169 13.516H11.1709V12.388H11.9989C12.4069 12.388 12.6649 12.604 12.6649 12.964ZM12.5629 11.218C12.5629 11.56 12.3349 11.74 11.9389 11.74H11.1709V10.69H11.9389C12.3349 10.69 12.5629 10.882 12.5629 11.218ZM13.5169 13.066C13.5169 12.574 13.1809 12.136 12.7069 12.052C13.1149 11.92 13.4209 11.602 13.4209 11.092C13.4209 10.468 12.9349 10.012 12.0589 10.012H10.3309V14.2H12.1369C13.0069 14.2 13.5169 13.732 13.5169 13.066Z" fill="#6F6F6D"/>
</svg>
