<svg width="24" height="24" viewBox="0 0 24 24" fill="none" xmlns="http://www.w3.org/2000/svg">
<path fill-rule="evenodd" clip-rule="evenodd" d="M9 3C9 2.44772 8.55228 2 8 2C7.44772 2 7 2.44772 7 3V4H5C3.34315 4 2 5.34315 2 7V19C2 20.6569 3.34315 22 5 22H19C20.6569 22 22 20.6569 22 19V7C22 5.34315 20.6569 4 19 4H17V3C17 2.44772 16.5523 2 16 2C15.4477 2 15 2.44772 15 3V4H9V3ZM7 9.5C6.44772 9.5 6 9.94772 6 10.5C6 11.0523 6.44772 11.5 7 11.5H17C17.5523 11.5 18 11.0523 18 10.5C18 9.94772 17.5523 9.5 17 9.5H7ZM7 13C6.44772 13 6 13.4477 6 14C6 14.5523 6.44772 15 7 15H8C8.55228 15 9 14.5523 9 14C9 13.4477 8.55228 13 8 13H7ZM11.5 13C10.9477 13 10.5 13.4477 10.5 14C10.5 14.5523 10.9477 15 11.5 15H12.5C13.0523 15 13.5 14.5523 13.5 14C13.5 13.4477 13.0523 13 12.5 13H11.5ZM16 13C15.4477 13 15 13.4477 15 14C15 14.5523 15.4477 15 16 15H17C17.5523 15 18 14.5523 18 14C18 13.4477 17.5523 13 17 13H16ZM7 16C6.44772 16 6 16.4477 6 17C6 17.5523 6.44772 18 7 18H8C8.55228 18 9 17.5523 9 17C9 16.4477 8.55228 16 8 16H7ZM11.5 16C10.9477 16 10.5 16.4477 10.5 17C10.5 17.5523 10.9477 18 11.5 18H12.5C13.0523 18 13.5 17.5523 13.5 17C13.5 16.4477 13.0523 16 12.5 16H11.5ZM16 16C15.4477 16 15 16.4477 15 17C15 17.5523 15.4477 18 16 18H17C17.5523 18 18 17.5523 18 17C18 16.4477 17.5523 16 17 16H16Z" fill="#6F6F6D"/>
</svg>
