<svg width="24" height="24" viewBox="0 0 24 24" fill="none" xmlns="http://www.w3.org/2000/svg">
<path fill-rule="evenodd" clip-rule="evenodd" d="M4.7999 6.0001C3.47442 6.0001 2.3999 7.07461 2.3999 8.4001V18.0001C2.3999 19.3256 3.47442 20.4001 4.7999 20.4001H19.1999C20.5254 20.4001 21.5999 19.3256 21.5999 18.0001V8.4001C21.5999 7.07461 20.5254 6.0001 19.1999 6.0001H17.297C16.9787 6.0001 16.6735 5.87367 16.4484 5.64863L15.1028 4.30304C14.6528 3.85295 14.0423 3.6001 13.4058 3.6001H10.594C9.95749 3.6001 9.34705 3.85295 8.89696 4.30304L7.55137 5.64863C7.32633 5.87367 7.02111 6.0001 6.70285 6.0001H4.7999ZM11.9999 16.8001C13.9881 16.8001 15.5999 15.1883 15.5999 13.2001C15.5999 11.2119 13.9881 9.6001 11.9999 9.6001C10.0117 9.6001 8.3999 11.2119 8.3999 13.2001C8.3999 15.1883 10.0117 16.8001 11.9999 16.8001Z" fill="#6F6F6D"/>
</svg>
