<svg width="24" height="24" viewBox="0 0 24 24" fill="none" xmlns="http://www.w3.org/2000/svg">
<path d="M2.3999 13.2001C2.3999 12.8818 2.52633 12.5766 2.75137 12.3516C2.97642 12.1265 3.28164 12.0001 3.5999 12.0001H5.9999C6.31816 12.0001 6.62339 12.1265 6.84843 12.3516C7.07347 12.5766 7.1999 12.8818 7.1999 13.2001V19.2001C7.1999 19.5184 7.07347 19.8236 6.84843 20.0486C6.62339 20.2737 6.31816 20.4001 5.9999 20.4001H3.5999C3.28164 20.4001 2.97642 20.2737 2.75137 20.0486C2.52633 19.8236 2.3999 19.5184 2.3999 19.2001V13.2001ZM9.5999 8.4001C9.5999 8.08184 9.72633 7.77661 9.95137 7.55157C10.1764 7.32653 10.4816 7.2001 10.7999 7.2001H13.1999C13.5182 7.2001 13.8234 7.32653 14.0484 7.55157C14.2735 7.77661 14.3999 8.08184 14.3999 8.4001V19.2001C14.3999 19.5184 14.2735 19.8236 14.0484 20.0486C13.8234 20.2737 13.5182 20.4001 13.1999 20.4001H10.7999C10.4816 20.4001 10.1764 20.2737 9.95137 20.0486C9.72633 19.8236 9.5999 19.5184 9.5999 19.2001V8.4001ZM16.7999 4.8001C16.7999 4.48184 16.9263 4.17661 17.1514 3.95157C17.3764 3.72653 17.6816 3.6001 17.9999 3.6001H20.3999C20.7182 3.6001 21.0234 3.72653 21.2484 3.95157C21.4735 4.17661 21.5999 4.48184 21.5999 4.8001V19.2001C21.5999 19.5184 21.4735 19.8236 21.2484 20.0486C21.0234 20.2737 20.7182 20.4001 20.3999 20.4001H17.9999C17.6816 20.4001 17.3764 20.2737 17.1514 20.0486C16.9263 19.8236 16.7999 19.5184 16.7999 19.2001V4.8001Z" fill="#6F6F6D"/>
</svg>
