<svg width="24" height="24" viewBox="0 0 24 24" fill="none" xmlns="http://www.w3.org/2000/svg">
<path fill-rule="evenodd" clip-rule="evenodd" d="M3 5C3 3.89543 3.89543 3 5 3H19C20.1046 3 21 3.89543 21 5V19C21 20.1046 20.1046 21 19 21H5C3.89543 21 3 20.1046 3 19V5ZM16.5054 10.2044C16.9096 9.82812 16.9323 9.19536 16.5561 8.7911C16.1798 8.38683 15.547 8.36415 15.1427 8.74043L10.5802 12.9871L8.87644 11.3412C8.47924 10.9575 7.84617 10.9684 7.46244 11.3656C7.07871 11.7628 7.08964 12.3959 7.48684 12.7796L9.87258 15.0844C10.255 15.4538 10.8595 15.4594 11.2487 15.0972L16.5054 10.2044Z" fill="#6F6F6D"/>
</svg>
