<svg width="24" height="24" viewBox="0 0 24 24" fill="none" xmlns="http://www.w3.org/2000/svg">
<path fill-rule="evenodd" clip-rule="evenodd" d="M11.9999 21.6C14.546 21.6 16.9878 20.5886 18.7881 18.7882C20.5885 16.9879 21.5999 14.5461 21.5999 12C21.5999 9.45395 20.5885 7.01215 18.7881 5.2118C16.9878 3.41145 14.546 2.40002 11.9999 2.40002C9.45382 2.40002 7.01203 3.41145 5.21168 5.2118C3.41133 7.01215 2.3999 9.45395 2.3999 12C2.3999 14.5461 3.41133 16.9879 5.21168 18.7882C7.01203 20.5886 9.45382 21.6 11.9999 21.6ZM13.1999 7.20002C13.1999 6.88176 13.0735 6.57654 12.8484 6.3515C12.6234 6.12645 12.3182 6.00002 11.9999 6.00002C11.6816 6.00002 11.3764 6.12645 11.1514 6.3515C10.9263 6.57654 10.7999 6.88176 10.7999 7.20002V12C10.8 12.3183 10.9264 12.6234 11.1515 12.8484L14.5451 16.2432C14.6566 16.3547 14.789 16.4432 14.9346 16.5035C15.0803 16.5638 15.2364 16.5949 15.3941 16.5949C15.5518 16.5949 15.7079 16.5638 15.8536 16.5035C15.9992 16.4432 16.1316 16.3547 16.2431 16.2432C16.3546 16.1317 16.443 15.9994 16.5034 15.8537C16.5637 15.708 16.5948 15.5519 16.5948 15.3942C16.5948 15.2365 16.5637 15.0804 16.5034 14.9347C16.443 14.7891 16.3546 14.6567 16.2431 14.5452L13.1999 11.5032V7.20002Z" fill="#6F6F6D"/>
</svg>
