<svg width="24" height="24" viewBox="0 0 24 24" fill="none" xmlns="http://www.w3.org/2000/svg">
<g clip-path="url(#clip0_1198_103543)">
<path fill-rule="evenodd" clip-rule="evenodd" d="M7 21C5.89543 21 5 20.1046 5 19V5C5 3.89543 5.89543 3 7 3H17C18.1046 3 19 3.89543 19 5V8.00548C18.1783 8.06936 17.4486 8.64098 17.2232 9.48237L17.0459 10.1442L17 10.144C16.7785 10.144 16.5595 10.156 16.3438 10.1796L15.8196 9.39857C15.2041 8.4814 13.9616 8.23688 13.0444 8.85242C12.1273 9.46795 11.8827 10.7104 12.4983 11.6276L12.7125 11.9468C11.6542 13.028 11 14.5097 11 16.144C11 16.2193 11.0014 16.2943 11.0042 16.369L10.5057 16.4962C9.43537 16.7692 8.78903 17.8581 9.06204 18.9284C9.33505 19.9987 10.424 20.6451 11.4943 20.372L12.502 20.115C12.7271 20.3698 12.9735 20.6053 13.2385 20.8187L13.1899 21H7ZM8 6C7.44772 6 7 6.44772 7 7C7 7.55228 7.44772 8 8 8H14C14.5523 8 15 7.55228 15 7C15 6.44772 14.5523 6 14 6H8ZM8 10C7.44772 10 7 10.4477 7 11C7 11.5523 7.44772 12 8 12H11C11.5523 12 12 11.5523 12 11C12 10.4477 11.5523 10 11 10H8Z" fill="#6F6F6D"/>
<path fill-rule="evenodd" clip-rule="evenodd" d="M19.4139 9.03408C19.9473 9.17702 20.2639 9.72536 20.121 10.2588L19.676 11.9196C20.2636 12.2926 20.7681 12.7848 21.1554 13.3622L22.8083 12.9406C23.3435 12.8041 23.8879 13.1272 24.0244 13.6624C24.1609 14.1975 23.8378 14.742 23.3026 14.8785L21.917 15.232C21.9715 15.5277 22 15.8325 22 16.144C22 17.789 21.2056 19.2485 19.9795 20.1597L20.7268 21.2733C21.0346 21.7319 20.9123 22.3531 20.4538 22.6609C19.9952 22.9687 19.3739 22.8464 19.0662 22.3878L18.1433 21.0127C17.7761 21.0986 17.3934 21.144 17 21.144C16.7525 21.144 16.5092 21.126 16.2713 21.0913L15.8663 22.6025C15.7234 23.1359 15.1751 23.4525 14.6416 23.3096C14.1081 23.1666 13.7915 22.6183 13.9345 22.0848L14.3843 20.406C13.7914 20.0414 13.2804 19.5564 12.8852 18.9852L11.2472 19.4031C10.712 19.5396 10.1675 19.2164 10.031 18.6813C9.89452 18.1461 10.2177 17.6016 10.7528 17.4651L12.0957 17.1226C12.0329 16.8061 12 16.4789 12 16.144C12 14.4936 12.7997 13.0299 14.0326 12.1193L13.3286 11.0703C13.0209 10.6118 13.1431 9.99052 13.6017 9.68275C14.0603 9.37498 14.6815 9.49724 14.9893 9.95583L15.8724 11.2717C16.2348 11.1881 16.6122 11.144 17 11.144C17.271 11.144 17.537 11.1656 17.7963 11.2071L18.1891 9.74119C18.3321 9.20772 18.8804 8.89114 19.4139 9.03408ZM15.4592 15.5573C15.767 16.0158 16.3882 16.1381 16.8468 15.8303L17.6654 15.281C18.124 14.9732 18.2462 14.352 17.9385 13.8934C17.6307 13.4348 17.0095 13.3125 16.5509 13.6203L15.7323 14.1697C15.2737 14.4774 15.1515 15.0987 15.4592 15.5573ZM17.5573 18.5144C17.0987 18.8222 16.4774 18.6999 16.1697 18.2413C15.8619 17.7828 15.9842 17.1615 16.4428 16.8537L17.2613 16.3044C17.7199 15.9966 18.3412 16.1189 18.6489 16.5775C18.9567 17.036 18.8344 17.6573 18.3758 17.9651L17.5573 18.5144Z" fill="#6F6F6D"/>
</g>
<defs>
<clipPath id="clip0_1198_103543">
<rect width="24" height="24" fill="white"/>
</clipPath>
</defs>
</svg>
