<svg width="24" height="24" viewBox="0 0 24 24" fill="none" xmlns="http://www.w3.org/2000/svg">
<path fill-rule="evenodd" clip-rule="evenodd" d="M18.9613 6.82611L12.5001 3.13398C12.348 3.04621 12.1756 3 12.0001 3C11.8245 3 11.6521 3.04621 11.5001 3.13397L11.4962 3.1362L9.56079 4.24214L16.5053 8.24682L18.9613 6.82611Z" fill="#6F6F6D"/>
<path fill-rule="evenodd" clip-rule="evenodd" d="M14.5066 9.40285L12.0001 10.8528L5.03882 6.82596L7.54981 5.39111L14.5066 9.40285Z" fill="#6F6F6D"/>
<path fill-rule="evenodd" clip-rule="evenodd" d="M4 8.53564L11 12.5849V20.5762L4.5 16.8619L4.49842 16.861C4.34726 16.7733 4.22169 16.6476 4.13423 16.4963C4.04654 16.3446 4.00026 16.1725 4 15.9973V8.53564Z" fill="#6F6F6D"/>
<path fill-rule="evenodd" clip-rule="evenodd" d="M19.5 16.8618L13 20.5761V12.5849L20 8.53564V15.9968C19.9998 16.1722 19.9535 16.3444 19.8658 16.4962C19.7783 16.6475 19.6527 16.7733 19.5016 16.8609L19.5 16.8618Z" fill="#6F6F6D"/>
</svg>
