<svg width="24" height="24" viewBox="0 0 24 24" fill="none" xmlns="http://www.w3.org/2000/svg">
<path fill-rule="evenodd" clip-rule="evenodd" d="M20 15.2129C19.6284 15.069 19.1843 15.0732 18.7668 15.3142C18.7013 15.352 18.624 15.3558 18.5553 15.3289C18.4872 15.3022 18.4524 15.2564 18.4409 15.2113C18.2594 14.5035 17.6328 14.1748 17.0735 14.1748C16.5142 14.1748 15.8876 14.5035 15.7062 15.2113C15.6946 15.2564 15.6598 15.3022 15.5917 15.3289C15.5231 15.3558 15.4457 15.352 15.3802 15.3142C14.7632 14.9581 14.0883 15.119 13.6747 15.5108C13.256 15.9074 13.0637 16.5894 13.4639 17.2115C13.4922 17.2554 13.4932 17.2976 13.4754 17.3384C13.4568 17.3809 13.4136 17.4272 13.3341 17.4455C11.8892 17.7777 11.8892 19.7719 13.3341 20.1042C13.4136 20.1224 13.4568 20.1687 13.4754 20.2112C13.4932 20.252 13.4922 20.2942 13.4639 20.3381C13.0765 20.9404 13.2443 21.5987 13.6353 22H7C5.34315 22 4 20.6569 4 19V5C4 3.34315 5.34315 2 7 2H12.5858C13.1162 2 13.6249 2.21071 14 2.58579L19.4142 8C19.7893 8.37507 20 8.88378 20 9.41421V15.2129ZM16.8576 22C16.6013 21.1095 15.5525 20.7505 14.7804 21.1961C14.7178 21.2322 14.667 21.2364 14.6268 21.2305C14.5814 21.2238 14.5357 21.2015 14.4999 21.1676C14.464 21.1335 14.4498 21.0995 14.4462 21.0778C14.4439 21.0637 14.4418 21.0361 14.4731 20.9873C15.0022 20.1649 14.5053 19.1421 13.603 18.9347C13.5273 18.9173 13.4952 18.8866 13.4802 18.8672C13.4621 18.8437 13.4504 18.8116 13.4504 18.7748C13.4504 18.738 13.4621 18.7059 13.4802 18.6824C13.4952 18.663 13.5273 18.6324 13.603 18.6149C14.5053 18.4075 15.0022 17.3847 14.4731 16.5623C14.4418 16.5135 14.4439 16.4859 14.4462 16.4718C14.4498 16.4502 14.464 16.4161 14.4999 16.382C14.5357 16.3481 14.5814 16.3258 14.6268 16.3191C14.667 16.3132 14.7178 16.3174 14.7804 16.3535C15.5641 16.8058 16.6328 16.4292 16.8686 15.5092C16.8815 15.4587 16.9043 15.4328 16.9305 15.4147C16.9625 15.3926 17.0126 15.3748 17.0735 15.3748C17.1344 15.3748 17.1845 15.3926 17.2165 15.4147C17.2427 15.4328 17.2655 15.4587 17.2784 15.5092C17.5142 16.4292 18.5829 16.8058 19.3666 16.3535C19.4292 16.3174 19.48 16.3132 19.5202 16.3191C19.5657 16.3258 19.6113 16.3481 19.6471 16.382C19.6831 16.4161 19.6972 16.4502 19.7008 16.4718C19.7031 16.4859 19.7053 16.5135 19.6739 16.5623C19.2648 17.1982 19.4691 17.9539 20 18.3599V19.1897C19.4691 19.5957 19.2648 20.3514 19.6739 20.9873C19.7053 21.0361 19.7031 21.0637 19.7008 21.0778C19.6972 21.0995 19.6831 21.1336 19.6471 21.1676C19.6113 21.2015 19.5657 21.2238 19.5202 21.2305C19.48 21.2364 19.4292 21.2322 19.3666 21.1961C18.5945 20.7505 17.5457 21.1095 17.2894 22H16.8576ZM8 12C8 11.4477 8.44772 11 9 11H15C15.5523 11 16 11.4477 16 12C16 12.5523 15.5523 13 15 13H9C8.44772 13 8 12.5523 8 12ZM8 16C8 15.4477 8.44772 15 9 15H11.3348C11.8871 15 12.3348 15.4477 12.3348 16C12.3348 16.5523 11.8871 17 11.3348 17H9C8.44772 17 8 16.5523 8 16ZM16.2658 18.7748C16.2658 18.4001 16.5963 18.0415 17.0735 18.0415C17.5507 18.0415 17.8812 18.4001 17.8812 18.7748C17.8812 19.1495 17.5507 19.5081 17.0735 19.5081C16.5963 19.5081 16.2658 19.1495 16.2658 18.7748ZM17.0735 16.8415C15.9958 16.8415 15.0658 17.6768 15.0658 18.7748C15.0658 19.8728 15.9958 20.7081 17.0735 20.7081C18.1512 20.7081 19.0812 19.8728 19.0812 18.7748C19.0812 17.6768 18.1512 16.8415 17.0735 16.8415Z" fill="#6F6F6D"/>
</svg>
