<svg width="24" height="24" viewBox="0 0 24 24" fill="none" xmlns="http://www.w3.org/2000/svg">
<path fill-rule="evenodd" clip-rule="evenodd" d="M7.20005 2.3999C6.56353 2.3999 5.95308 2.65276 5.50299 3.10285C5.05291 3.55293 4.80005 4.16338 4.80005 4.7999V19.1999C4.80005 19.8364 5.05291 20.4469 5.50299 20.897C5.95308 21.347 6.56353 21.5999 7.20005 21.5999H16.8C17.4366 21.5999 18.047 21.347 18.4971 20.897C18.9472 20.4469 19.2 19.8364 19.2 19.1999V8.8967C19.1999 8.26023 18.947 7.64988 18.4968 7.1999L14.4 3.1031C13.9501 2.65298 13.3397 2.40004 12.7032 2.3999H7.20005ZM13.2 9.5999C13.2 9.28164 13.0736 8.97642 12.8486 8.75137C12.6235 8.52633 12.3183 8.3999 12 8.3999C11.6818 8.3999 11.3766 8.52633 11.1515 8.75137C10.9265 8.97642 10.8 9.28164 10.8 9.5999V11.9999H8.40005C8.08179 11.9999 7.77656 12.1263 7.55152 12.3514C7.32648 12.5764 7.20005 12.8816 7.20005 13.1999C7.20005 13.5182 7.32648 13.8234 7.55152 14.0484C7.77656 14.2735 8.08179 14.3999 8.40005 14.3999H10.8V16.7999C10.8 17.1182 10.9265 17.4234 11.1515 17.6484C11.3766 17.8735 11.6818 17.9999 12 17.9999C12.3183 17.9999 12.6235 17.8735 12.8486 17.6484C13.0736 17.4234 13.2 17.1182 13.2 16.7999V14.3999H15.6C15.9183 14.3999 16.2235 14.2735 16.4486 14.0484C16.6736 13.8234 16.8 13.5182 16.8 13.1999C16.8 12.8816 16.6736 12.5764 16.4486 12.3514C16.2235 12.1263 15.9183 11.9999 15.6 11.9999H13.2V9.5999Z" fill="#6F6F6D"/>
</svg>
