<svg width="24" height="24" viewBox="0 0 24 24" fill="none" xmlns="http://www.w3.org/2000/svg">
<path fill-rule="evenodd" clip-rule="evenodd" d="M4.80005 4.7999C4.80005 4.16338 5.05291 3.55293 5.50299 3.10285C5.95308 2.65276 6.56353 2.3999 7.20005 2.3999H12.7032C13.3397 2.40004 13.9501 2.65298 14.4 3.1031L18.4968 7.1999C18.947 7.64988 19.1999 8.26023 19.2 8.8967V19.1999C19.2 19.8364 18.9472 20.4469 18.4971 20.897C18.047 21.347 17.4366 21.5999 16.8 21.5999H7.20005C6.56353 21.5999 5.95308 21.347 5.50299 20.897C5.05291 20.4469 4.80005 19.8364 4.80005 19.1999V4.7999ZM7.20005 11.9999C7.20005 11.6816 7.32648 11.3764 7.55152 11.1514C7.77656 10.9263 8.08179 10.7999 8.40005 10.7999H15.6C15.9183 10.7999 16.2235 10.9263 16.4486 11.1514C16.6736 11.3764 16.8 11.6816 16.8 11.9999C16.8 12.3182 16.6736 12.6234 16.4486 12.8484C16.2235 13.0735 15.9183 13.1999 15.6 13.1999H8.40005C8.08179 13.1999 7.77656 13.0735 7.55152 12.8484C7.32648 12.6234 7.20005 12.3182 7.20005 11.9999ZM8.40005 15.5999C8.08179 15.5999 7.77656 15.7263 7.55152 15.9514C7.32648 16.1764 7.20005 16.4816 7.20005 16.7999C7.20005 17.1182 7.32648 17.4234 7.55152 17.6484C7.77656 17.8735 8.08179 17.9999 8.40005 17.9999H15.6C15.9183 17.9999 16.2235 17.8735 16.4486 17.6484C16.6736 17.4234 16.8 17.1182 16.8 16.7999C16.8 16.4816 16.6736 16.1764 16.4486 15.9514C16.2235 15.7263 15.9183 15.5999 15.6 15.5999H8.40005Z" fill="#6F6F6D"/>
</svg>
