<svg width="24" height="24" viewBox="0 0 24 24" fill="none" xmlns="http://www.w3.org/2000/svg">
<path fill-rule="evenodd" clip-rule="evenodd" d="M1 6C1 4.89543 1.89543 4 3 4H21C22.1046 4 23 4.89543 23 6V18C23 19.1046 22.1046 20 21 20H3C1.89543 20 1 19.1046 1 18V6ZM13.6136 10.2197C13.3208 9.92678 12.8459 9.92678 12.553 10.2197C12.2601 10.5126 12.2601 10.9874 12.553 11.2803L15.4697 14.197C15.7625 14.4899 16.2374 14.4899 16.5303 14.197L19.447 11.2803C19.7399 10.9874 19.7399 10.5126 19.447 10.2197C19.1541 9.92678 18.6792 9.92678 18.3863 10.2197L16 12.606L13.6136 10.2197Z" fill="#6F6F6D"/>
</svg>
