<svg width="24" height="24" viewBox="0 0 24 24" fill="none" xmlns="http://www.w3.org/2000/svg">
<path fill-rule="evenodd" clip-rule="evenodd" d="M11.9999 21.5999C14.546 21.5999 16.9878 20.5885 18.7881 18.7881C20.5885 16.9878 21.5999 14.546 21.5999 11.9999C21.5999 9.45382 20.5885 7.01203 18.7881 5.21168C16.9878 3.41133 14.546 2.3999 11.9999 2.3999C9.45382 2.3999 7.01203 3.41133 5.21168 5.21168C3.41133 7.01203 2.3999 9.45382 2.3999 11.9999C2.3999 14.546 3.41133 16.9878 5.21168 18.7881C7.01203 20.5885 9.45382 21.5999 11.9999 21.5999ZM8.3999 10.7999C8.71816 10.7999 9.02339 10.6735 9.24843 10.4484C9.47347 10.2234 9.5999 9.91816 9.5999 9.5999C9.5999 9.28164 9.47347 8.97642 9.24843 8.75137C9.02339 8.52633 8.71816 8.3999 8.3999 8.3999C8.08164 8.3999 7.77642 8.52633 7.55137 8.75137C7.32633 8.97642 7.1999 9.28164 7.1999 9.5999C7.1999 9.91816 7.32633 10.2234 7.55137 10.4484C7.77642 10.6735 8.08164 10.7999 8.3999 10.7999ZM16.7999 9.5999C16.7999 9.91816 16.6735 10.2234 16.4484 10.4484C16.2234 10.6735 15.9182 10.7999 15.5999 10.7999C15.2816 10.7999 14.9764 10.6735 14.7514 10.4484C14.5263 10.2234 14.3999 9.91816 14.3999 9.5999C14.3999 9.28164 14.5263 8.97642 14.7514 8.75137C14.9764 8.52633 15.2816 8.3999 15.5999 8.3999C15.9182 8.3999 16.2234 8.52633 16.4484 8.75137C16.6735 8.97642 16.7999 9.28164 16.7999 9.5999ZM16.2431 16.2419C16.3545 16.1304 16.4429 15.9981 16.5031 15.8524C16.5634 15.7068 16.5944 15.5507 16.5943 15.3931C16.5943 15.2355 16.5632 15.0794 16.5028 14.9338C16.4424 14.7882 16.354 14.6559 16.2425 14.5445C16.131 14.4331 15.9987 14.3447 15.853 14.2845C15.7074 14.2242 15.5513 14.1932 15.3937 14.1933C15.2361 14.1933 15.08 14.2244 14.9344 14.2848C14.7888 14.3452 14.6565 14.4336 14.5451 14.5451C13.87 15.22 12.9545 15.5991 11.9999 15.5991C11.0453 15.5991 10.1298 15.22 9.4547 14.5451C9.22969 14.3199 8.92445 14.1934 8.60613 14.1933C8.2878 14.1931 7.98247 14.3195 7.7573 14.5445C7.53213 14.7695 7.40557 15.0748 7.40546 15.3931C7.40535 15.7114 7.53169 16.0167 7.7567 16.2419C8.31387 16.7992 8.97538 17.2413 9.70344 17.5429C10.4315 17.8446 11.2118 17.9998 11.9999 17.9998C12.788 17.9998 13.5683 17.8446 14.2964 17.5429C15.0244 17.2413 15.6859 16.7992 16.2431 16.2419Z" fill="#6F6F6D"/>
</svg>
