<svg width="32" height="24" viewBox="0 0 32 24" fill="none" xmlns="http://www.w3.org/2000/svg">
<path d="M16.6 2.40002C17.5938 2.40002 18.4 3.2059 18.4 4.20002V16.1925C16.9675 16.995 16 18.525 16 20.2838C16 20.7675 16.135 21.2175 16.3713 21.6H13V18.6C13 17.6063 12.1938 16.8 11.2 16.8C10.2063 16.8 9.4 17.6063 9.4 18.6V21.6H5.8C4.80588 21.6 4 20.7938 4 19.8V4.20002C4 3.2059 4.80588 2.40002 5.8 2.40002H16.6ZM6.4 12.6C6.4 12.93 6.6685 13.2 7 13.2H8.2C8.53 13.2 8.8 12.93 8.8 12.6V11.4C8.8 11.07 8.53 10.8 8.2 10.8H7C6.6685 10.8 6.4 11.07 6.4 11.4V12.6ZM10.6 10.8C10.27 10.8 10 11.07 10 11.4V12.6C10 12.93 10.27 13.2 10.6 13.2H11.8C12.13 13.2 12.4 12.93 12.4 12.6V11.4C12.4 11.07 12.13 10.8 11.8 10.8H10.6ZM13.6 12.6C13.6 12.93 13.87 13.2 14.2 13.2H15.4C15.73 13.2 16 12.93 16 12.6V11.4C16 11.07 15.73 10.8 15.4 10.8H14.2C13.87 10.8 13.6 11.07 13.6 11.4V12.6ZM7 6.00002C6.6685 6.00002 6.4 6.27002 6.4 6.60002V7.80002C6.4 8.13002 6.6685 8.40002 7 8.40002H8.2C8.53 8.40002 8.8 8.13002 8.8 7.80002V6.60002C8.8 6.27002 8.53 6.00002 8.2 6.00002H7ZM10 7.80002C10 8.13002 10.27 8.40002 10.6 8.40002H11.8C12.13 8.40002 12.4 8.13002 12.4 7.80002V6.60002C12.4 6.27002 12.13 6.00002 11.8 6.00002H10.6C10.27 6.00002 10 6.27002 10 6.60002V7.80002ZM14.2 6.00002C13.87 6.00002 13.6 6.27002 13.6 6.60002V7.80002C13.6 8.13002 13.87 8.40002 14.2 8.40002H15.4C15.73 8.40002 16 8.13002 16 7.80002V6.60002C16 6.27002 15.73 6.00002 15.4 6.00002H14.2ZM25.6 12.6C25.6 14.2575 24.2575 15.6 22.6 15.6C20.9425 15.6 19.6 14.2575 19.6 12.6C19.6 10.9425 20.9425 9.60002 22.6 9.60002C24.2575 9.60002 25.6 10.9425 25.6 12.6ZM17.2 20.2913C17.2 18.3638 18.7638 16.8 20.6913 16.8H24.5088C26.4363 16.8 28 18.3638 28 20.2913C28 21.015 27.415 21.6 26.6912 21.6H18.5087C17.785 21.6 17.2 21.015 17.2 20.2913Z" fill="#6F6F6D"/>
</svg>
