<svg width="24" height="24" viewBox="0 0 24 24" fill="none" xmlns="http://www.w3.org/2000/svg">
<path fill-rule="evenodd" clip-rule="evenodd" d="M21.5999 11.9999C21.5999 17.3018 17.3018 21.5999 11.9999 21.5999C6.69797 21.5999 2.3999 17.3018 2.3999 11.9999C2.3999 6.69797 6.69797 2.3999 11.9999 2.3999C17.3018 2.3999 21.5999 6.69797 21.5999 11.9999ZM13.1999 16.7999C13.1999 17.4626 12.6626 17.9999 11.9999 17.9999C11.3372 17.9999 10.7999 17.4626 10.7999 16.7999C10.7999 16.1372 11.3372 15.5999 11.9999 15.5999C12.6626 15.5999 13.1999 16.1372 13.1999 16.7999ZM11.9999 5.9999C11.3372 5.9999 10.7999 6.53716 10.7999 7.1999V11.9999C10.7999 12.6626 11.3372 13.1999 11.9999 13.1999C12.6626 13.1999 13.1999 12.6626 13.1999 11.9999V7.1999C13.1999 6.53716 12.6626 5.9999 11.9999 5.9999Z" fill="#6F6F6D"/>
</svg>
