<svg width="24" height="24" viewBox="0 0 24 24" fill="none" xmlns="http://www.w3.org/2000/svg">
<path d="M13.2 3.6001C12.8817 3.6001 12.5765 3.72653 12.3515 3.95157C12.1264 4.17661 12 4.48184 12 4.8001C12 5.11836 12.1264 5.42358 12.3515 5.64863C12.5765 5.87367 12.8817 6.0001 13.2 6.0001H16.3032L8.7516 13.5517C8.63699 13.6624 8.54557 13.7948 8.48268 13.9412C8.41979 14.0876 8.38668 14.2451 8.3853 14.4044C8.38391 14.5638 8.41428 14.7218 8.47461 14.8692C8.53495 15.0167 8.62405 15.1507 8.73673 15.2634C8.8494 15.376 8.98338 15.4651 9.13085 15.5255C9.27833 15.5858 9.43635 15.6162 9.59568 15.6148C9.75502 15.6134 9.91248 15.5803 10.0589 15.5174C10.2053 15.4545 10.3377 15.3631 10.4484 15.2485L18 7.6969V10.8001C18 11.1184 18.1264 11.4236 18.3515 11.6486C18.5765 11.8737 18.8817 12.0001 19.2 12.0001C19.5183 12.0001 19.8235 11.8737 20.0485 11.6486C20.2736 11.4236 20.4 11.1184 20.4 10.8001V4.8001C20.4 4.48184 20.2736 4.17661 20.0485 3.95157C19.8235 3.72653 19.5183 3.6001 19.2 3.6001H13.2Z" fill="#6F6F6D"/>
<path d="M6.0001 6C5.36358 6 4.75313 6.25286 4.30304 6.70294C3.85295 7.15303 3.6001 7.76348 3.6001 8.4V18C3.6001 18.6365 3.85295 19.247 4.30304 19.6971C4.75313 20.1471 5.36358 20.4 6.0001 20.4H15.6001C16.2366 20.4 16.8471 20.1471 17.2972 19.6971C17.7472 19.247 18.0001 18.6365 18.0001 18V14.4C18.0001 14.0817 17.8737 13.7765 17.6486 13.5515C17.4236 13.3264 17.1184 13.2 16.8001 13.2C16.4818 13.2 16.1766 13.3264 15.9516 13.5515C15.7265 13.7765 15.6001 14.0817 15.6001 14.4V18H6.0001V8.4H9.6001C9.91836 8.4 10.2236 8.27357 10.4486 8.04853C10.6737 7.82348 10.8001 7.51826 10.8001 7.2C10.8001 6.88174 10.6737 6.57652 10.4486 6.35147C10.2236 6.12643 9.91836 6 9.6001 6H6.0001Z" fill="#6F6F6D"/>
</svg>
