<svg width="24" height="24" viewBox="0 0 24 24" fill="none" xmlns="http://www.w3.org/2000/svg">
<path fill-rule="evenodd" clip-rule="evenodd" d="M4.44845 2.75165C4.22213 2.53306 3.919 2.41211 3.60437 2.41484C3.28973 2.41757 2.98876 2.54378 2.76627 2.76627C2.54378 2.98876 2.41757 3.28973 2.41484 3.60437C2.41211 3.919 2.53306 4.22213 2.75165 4.44845L19.5516 21.2484C19.778 21.467 20.0811 21.588 20.3957 21.5853C20.7104 21.5825 21.0113 21.4563 21.2338 21.2338C21.4563 21.0113 21.5825 20.7104 21.5853 20.3957C21.588 20.0811 21.467 19.778 21.2484 19.5516L19.4808 17.784C21.3499 16.2938 22.732 14.28 23.4504 12C21.9216 7.13165 17.3736 3.60005 12 3.60005C10.119 3.5975 8.26385 4.03907 6.58565 4.88885L4.44965 2.75165H4.44845ZM9.56165 7.86365L11.3784 9.68165C11.7854 9.57359 12.2135 9.57431 12.6201 9.68372C13.0266 9.79314 13.3973 10.0074 13.695 10.3051C13.9927 10.6028 14.207 10.9735 14.3164 11.38C14.4258 11.7866 14.4265 12.2147 14.3184 12.6216L16.1352 14.4384C16.6764 13.5217 16.8975 12.451 16.7636 11.3949C16.6298 10.3387 16.1486 9.35704 15.3958 8.60426C14.6431 7.85148 13.6614 7.37032 12.6052 7.23647C11.5491 7.10261 10.4784 7.32367 9.56165 7.86485V7.86365Z" fill="#6F6F6D"/>
<path d="M14.9448 20.0364L11.7 16.7904C10.5332 16.7173 9.43319 16.2209 8.60643 15.3943C7.77967 14.5678 7.28297 13.4679 7.20956 12.3012L2.80196 7.89355C1.78821 9.10077 1.02278 10.4963 0.549561 12C2.07836 16.8684 6.62756 20.4 12 20.4C13.0164 20.4 14.0028 20.274 14.9448 20.0364Z" fill="#6F6F6D"/>
</svg>
