<svg width="24" height="24" viewBox="0 0 24 24" fill="none" xmlns="http://www.w3.org/2000/svg">
<path fill-rule="evenodd" clip-rule="evenodd" d="M3.6001 7.2001C3.6001 5.21187 5.21187 3.6001 7.20009 3.6001H19.2001C19.6546 3.6001 20.0701 3.8569 20.2734 4.26344C20.4766 4.66998 20.4328 5.15648 20.1601 5.5201L17.1001 9.6001L20.1601 13.6801C20.4328 14.0437 20.4766 14.5302 20.2734 14.9368C20.0701 15.3433 19.6546 15.6001 19.2001 15.6001H7.20009C6.53735 15.6001 6.00009 16.1374 6.00009 16.8001V20.4001C6.00009 21.0628 5.46284 21.6001 4.80009 21.6001C4.13735 21.6001 3.6001 21.0628 3.6001 20.4001V7.2001Z" fill="#6F6F6D"/>
</svg>
