<svg width="24" height="24" viewBox="0 0 24 24" fill="none" xmlns="http://www.w3.org/2000/svg">
<path fill-rule="evenodd" clip-rule="evenodd" d="M2.3999 7.20005C2.3999 6.56353 2.65276 5.95308 3.10285 5.50299C3.55293 5.05291 4.16338 4.80005 4.7999 4.80005H9.5999L11.9999 7.20005H16.7999C17.4364 7.20005 18.0469 7.4529 18.497 7.90299C18.947 8.35308 19.1999 8.96353 19.1999 9.60005V10.8H9.5999C8.64512 10.8 7.72945 11.1793 7.05432 11.8545C6.37919 12.5296 5.9999 13.4453 5.9999 14.4V16.2C5.9999 16.6774 5.81026 17.1353 5.47269 17.4728C5.13513 17.8104 4.67729 18 4.1999 18C3.72251 18 3.26468 17.8104 2.92711 17.4728C2.58954 17.1353 2.3999 16.6774 2.3999 16.2V7.20005Z" fill="#6F6F6D"/>
<path d="M7.1999 14.4C7.1999 13.7635 7.45276 13.153 7.90285 12.7029C8.35293 12.2529 8.96338 12 9.5999 12H19.1999C19.8364 12 20.4469 12.2529 20.897 12.7029C21.347 13.153 21.5999 13.7635 21.5999 14.4V16.8C21.5999 17.4365 21.347 18.047 20.897 18.4971C20.4469 18.9471 19.8364 19.2 19.1999 19.2H2.3999H4.7999C5.43642 19.2 6.04687 18.9471 6.49696 18.4971C6.94705 18.047 7.1999 17.4365 7.1999 16.8V14.4Z" fill="#6F6F6D"/>
</svg>
