<svg width="24" height="24" viewBox="0 0 24 24" fill="none" xmlns="http://www.w3.org/2000/svg">
<path fill-rule="evenodd" clip-rule="evenodd" d="M4 5C2.34315 5 1 6.34315 1 8V16C1 17.6569 2.34315 19 4 19H20C21.6569 19 23 17.6569 23 16V8C23 6.34315 21.6569 5 20 5H4ZM12 11C11.4477 11 11 11.4477 11 12C11 12.5523 11.4477 13 12 13H12.01C12.5623 13 13.01 12.5523 13.01 12C13.01 11.4477 12.5623 11 12.01 11H12ZM16 12C16 11.4477 16.4477 11 17 11H17.01C17.5623 11 18.01 11.4477 18.01 12C18.01 12.5523 17.5623 13 17.01 13H17C16.4477 13 16 12.5523 16 12ZM7 11C6.44772 11 6 11.4477 6 12C6 12.5523 6.44772 13 7 13H7.01C7.56228 13 8.01 12.5523 8.01 12C8.01 11.4477 7.56228 11 7.01 11H7Z" fill="#6F6F6D"/>
</svg>
