<svg width="24" height="24" viewBox="0 0 24 24" fill="none" xmlns="http://www.w3.org/2000/svg">
<path fill-rule="evenodd" clip-rule="evenodd" d="M11.9999 21.5999C14.546 21.5999 16.9878 20.5885 18.7881 18.7881C20.5885 16.9878 21.5999 14.546 21.5999 11.9999C21.5999 9.45382 20.5885 7.01203 18.7881 5.21168C16.9878 3.41133 14.546 2.3999 11.9999 2.3999C9.45382 2.3999 7.01203 3.41133 5.21168 5.21168C3.41133 7.01203 2.3999 9.45382 2.3999 11.9999C2.3999 14.546 3.41133 16.9878 5.21168 18.7881C7.01203 20.5885 9.45382 21.5999 11.9999 21.5999ZM5.1983 9.6323C5.64385 8.35636 6.43885 7.23123 7.4927 6.3851C7.8143 6.8759 8.3687 7.1999 8.9999 7.1999C9.47729 7.1999 9.93513 7.38954 10.2727 7.72711C10.6103 8.06467 10.7999 8.52251 10.7999 8.9999V9.5999C10.7999 10.2364 11.0528 10.8469 11.5028 11.297C11.9529 11.747 12.5634 11.9999 13.1999 11.9999C13.8364 11.9999 14.4469 11.747 14.897 11.297C15.347 10.8469 15.5999 10.2364 15.5999 9.5999C15.5997 9.06281 15.7797 8.54117 16.111 8.11846C16.4424 7.69575 16.9059 7.3964 17.4275 7.2683C18.5727 8.5783 19.2026 10.2599 19.1999 11.9999C19.1999 12.4079 19.1663 12.8099 19.1003 13.1999H17.9999C17.3634 13.1999 16.7529 13.4528 16.3028 13.9028C15.8528 14.3529 15.5999 14.9634 15.5999 15.5999V18.2363C14.5059 18.8693 13.2639 19.2017 11.9999 19.1999V16.7999C11.9999 16.1634 11.747 15.5529 11.297 15.1028C10.8469 14.6528 10.2364 14.3999 9.5999 14.3999C8.96338 14.3999 8.35293 14.147 7.90285 13.697C7.45276 13.2469 7.1999 12.6364 7.1999 11.9999C7.20011 11.4323 6.99915 10.883 6.6327 10.4495C6.26625 10.0161 5.75803 9.72652 5.1983 9.6323Z" fill="#6F6F6D"/>
</svg>
