<svg width="16" height="20" viewBox="0 0 16 20" fill="none" xmlns="http://www.w3.org/2000/svg">
<path d="M9.46961 8.10919V1.32399C9.46961 1.08927 9.37637 0.864158 9.21039 0.698183C9.04442 0.532208 8.81931 0.438965 8.58458 0.438965C8.34986 0.438965 8.12475 0.532208 7.95878 0.698183C7.7928 0.864158 7.69956 1.08927 7.69956 1.32399V8.10919C7.69956 8.26567 7.6374 8.41575 7.52675 8.5264C7.4161 8.63705 7.26602 8.69921 7.10954 8.69921C6.95306 8.69921 6.80298 8.63705 6.69233 8.5264C6.58168 8.41575 6.51952 8.26567 6.51952 8.10919V2.50403C6.51952 2.2693 6.42628 2.04419 6.2603 1.87822C6.09433 1.71224 5.86922 1.619 5.6345 1.619C5.39977 1.619 5.17466 1.71224 5.00869 1.87822C4.84271 2.04419 4.74947 2.2693 4.74947 2.50403V10.1743C3.96829 9.67156 3.10686 9.28923 2.3894 9.28923C1.24359 9.28923 0.280677 9.67156 0.0482101 10.6061C0.0351212 10.6618 0.0287821 10.7189 0.0293295 10.7761C0.0293295 10.9531 0.111932 11.1206 0.254716 11.2268L1.80292 12.3892C3.0573 13.3285 4.23851 14.5899 5.06218 15.9151C5.50087 16.6358 5.91529 17.371 6.30476 18.1194C6.72957 18.9195 6.99862 19.3195 8.28958 19.3195H11.884C13.0097 19.3195 13.4381 18.6906 14.1898 16.9595C14.9414 15.2283 15.3698 13.4854 15.3698 12.8293V4.27408C15.3698 4.03936 15.2765 3.81424 15.1106 3.64827C14.9446 3.4823 14.7195 3.38905 14.4848 3.38905C14.25 3.38905 14.0249 3.4823 13.859 3.64827C13.693 3.81424 13.5997 4.03936 13.5997 4.27408V8.69921C13.5997 8.85569 13.5376 9.00577 13.4269 9.11642C13.3163 9.22707 13.1662 9.28923 13.0097 9.28923C12.8532 9.28923 12.7032 9.22707 12.5925 9.11642C12.4819 9.00577 12.4197 8.85569 12.4197 8.69921V2.50403C12.4197 2.2693 12.3265 2.04419 12.1605 1.87822C11.9945 1.71224 11.7694 1.619 11.5347 1.619C11.2999 1.619 11.0748 1.71224 10.9089 1.87822C10.7429 2.04419 10.6496 2.2693 10.6496 2.50403V8.10919C10.6496 8.26567 10.5875 8.41575 10.4768 8.5264C10.3662 8.63705 10.2161 8.69921 10.0596 8.69921C9.90315 8.69921 9.75307 8.63705 9.64242 8.5264C9.53177 8.41575 9.46961 8.26567 9.46961 8.10919Z" fill="white"/>
</svg>
