<svg width="24" height="24" viewBox="0 0 24 24" fill="none" xmlns="http://www.w3.org/2000/svg">
<path fill-rule="evenodd" clip-rule="evenodd" d="M12.6187 2.21436C12.2557 1.92855 11.7443 1.92855 11.3813 2.21436L3.38131 8.51436C3.14053 8.70398 3 8.99353 3 9.3V19.2C3 19.9386 3.28968 20.6495 3.80921 21.1755C4.32916 21.7019 5.03703 22 5.77778 22H10V13C10 12.4477 10.4477 12 11 12H13C13.5523 12 14 12.4477 14 13V22H18.2222C18.963 22 19.6708 21.7019 20.1908 21.1755C20.7103 20.6495 21 19.9386 21 19.2V9.3C21 8.99353 20.8595 8.70398 20.6187 8.51436L12.6187 2.21436Z" fill="#6F6F6D"/>
</svg>
