<svg width="24" height="24" viewBox="0 0 24 24" fill="none" xmlns="http://www.w3.org/2000/svg">
<path fill-rule="evenodd" clip-rule="evenodd" d="M6.0001 3.6001C5.36358 3.6001 4.75313 3.85295 4.30304 4.30304C3.85295 4.75313 3.6001 5.36358 3.6001 6.0001V18.0001C3.6001 18.6366 3.85295 19.2471 4.30304 19.6972C4.75313 20.1472 5.36358 20.4001 6.0001 20.4001H18.0001C18.6366 20.4001 19.2471 20.1472 19.6972 19.6972C20.1472 19.2471 20.4001 18.6366 20.4001 18.0001V6.0001C20.4001 5.36358 20.1472 4.75313 19.6972 4.30304C19.2471 3.85295 18.6366 3.6001 18.0001 3.6001H6.0001ZM6.0001 6.0001H18.0001V14.4001H15.6001L14.4001 16.8001H9.6001L8.4001 14.4001H6.0001V6.0001Z" fill="#6F6F6D"/>
</svg>
