<svg width="24" height="24" viewBox="0 0 24 24" fill="none" xmlns="http://www.w3.org/2000/svg">
<path fill-rule="evenodd" clip-rule="evenodd" d="M7 7.41748V17.1854H19.3333V7.41748H7ZM4 5.41748C3.44772 5.41748 3 5.8652 3 6.41748V18.1854C3 18.7377 3.44772 19.1854 4 19.1854H20.3333C20.8856 19.1854 21.3333 18.7377 21.3333 18.1854V6.41748C21.3333 5.8652 20.8856 5.41748 20.3333 5.41748H4Z" fill="#6F6F6D"/>
<path d="M8 2.30151V21.6984" stroke="#6F6F6D" stroke-width="2"/>
<path fill-rule="evenodd" clip-rule="evenodd" d="M3.83325 2.83333C3.83325 2.3731 4.20635 2 4.66659 2H11.3333C11.7935 2 12.1666 2.3731 12.1666 2.83333C12.1666 3.29357 11.7935 3.66667 11.3333 3.66667H4.66659C4.20635 3.66667 3.83325 3.29357 3.83325 2.83333Z" fill="#6F6F6D"/>
<path fill-rule="evenodd" clip-rule="evenodd" d="M3.83325 21.1666C3.83325 20.7063 4.20635 20.3333 4.66659 20.3333H11.3333C11.7935 20.3333 12.1666 20.7063 12.1666 21.1666C12.1666 21.6268 11.7935 21.9999 11.3333 21.9999H4.66659C4.20635 21.9999 3.83325 21.6268 3.83325 21.1666Z" fill="#6F6F6D"/>
</svg>
