<svg width="24" height="24" viewBox="0 0 24 24" fill="none" xmlns="http://www.w3.org/2000/svg">
<path fill-rule="evenodd" clip-rule="evenodd" d="M3.2407 7.287L11.7617 11.923C11.9087 12.003 12.0907 12.003 12.2387 11.923L20.7597 7.287C21.1027 7.1 21.0727 6.622 20.7077 6.475L12.1877 3.036C12.0677 2.988 11.9317 2.988 11.8117 3.036L3.2917 6.475C2.9277 6.622 2.8977 7.1 3.2407 7.287ZM20.708 10.6562L18.878 9.8762L12.239 13.4882C12.091 13.5682 11.909 13.5682 11.761 13.4882L5.122 9.8762L3.292 10.6562C2.927 10.8112 2.897 11.3172 3.241 11.5142L11.761 16.4112C11.909 16.4962 12.091 16.4962 12.239 16.4112L20.759 11.5142C21.103 11.3172 21.073 10.8112 20.708 10.6562ZM19.151 14.4226L20.708 15.0966C21.073 15.2546 21.103 15.7676 20.759 15.9676L12.239 20.9356C12.091 21.0216 11.909 21.0216 11.761 20.9356L3.241 15.9676C2.897 15.7676 2.927 15.2546 3.292 15.0966L4.849 14.4226L11.761 18.1836C11.909 18.2636 12.091 18.2636 12.239 18.1836L19.151 14.4226Z" fill="#6F6F6D"/>
</svg>
