<svg width="24" height="24" viewBox="0 0 24 24" fill="none" xmlns="http://www.w3.org/2000/svg">
<path fill-rule="evenodd" clip-rule="evenodd" d="M6.0001 10.7999V8.3999C6.0001 6.8086 6.63224 5.28248 7.75746 4.15726C8.88268 3.03204 10.4088 2.3999 12.0001 2.3999C13.5914 2.3999 15.1175 3.03204 16.2427 4.15726C17.368 5.28248 18.0001 6.8086 18.0001 8.3999V10.7999C18.6366 10.7999 19.2471 11.0528 19.6972 11.5028C20.1472 11.9529 20.4001 12.5634 20.4001 13.1999V19.1999C20.4001 19.8364 20.1472 20.4469 19.6972 20.897C19.2471 21.347 18.6366 21.5999 18.0001 21.5999H6.0001C5.36358 21.5999 4.75313 21.347 4.30304 20.897C3.85295 20.4469 3.6001 19.8364 3.6001 19.1999V13.1999C3.6001 12.5634 3.85295 11.9529 4.30304 11.5028C4.75313 11.0528 5.36358 10.7999 6.0001 10.7999ZM15.6001 8.3999V10.7999H8.4001V8.3999C8.4001 7.44512 8.77938 6.52945 9.45451 5.85432C10.1296 5.17919 11.0453 4.7999 12.0001 4.7999C12.9549 4.7999 13.8706 5.17919 14.5457 5.85432C15.2208 6.52945 15.6001 7.44512 15.6001 8.3999Z" fill="#6F6F6D"/>
</svg>
