<svg width="24" height="24" viewBox="0 0 24 24" fill="none" xmlns="http://www.w3.org/2000/svg">
<path d="M12.0001 2.40002C10.4088 2.40002 8.88268 3.03217 7.75746 4.15738C6.63224 5.2826 6.0001 6.80873 6.0001 8.40002V10.8C5.36358 10.8 4.75313 11.0529 4.30304 11.503C3.85295 11.9531 3.6001 12.5635 3.6001 13.2V19.2C3.6001 19.8365 3.85295 20.447 4.30304 20.8971C4.75313 21.3472 5.36358 21.6 6.0001 21.6H18.0001C18.6366 21.6 19.2471 21.3472 19.6972 20.8971C20.1472 20.447 20.4001 19.8365 20.4001 19.2V13.2C20.4001 12.5635 20.1472 11.9531 19.6972 11.503C19.2471 11.0529 18.6366 10.8 18.0001 10.8H8.4001V8.40002C8.3998 7.52359 8.71923 6.67716 9.2985 6.01944C9.87776 5.36173 10.6771 4.93792 11.5465 4.82749C12.4159 4.71706 13.2958 4.9276 14.0211 5.41962C14.7464 5.91164 15.2673 6.65135 15.4861 7.50002C15.5657 7.80826 15.7644 8.07226 16.0386 8.23396C16.1744 8.31402 16.3246 8.36655 16.4807 8.38856C16.6368 8.41057 16.7957 8.40162 16.9483 8.36222C17.1009 8.32283 17.2443 8.25376 17.3702 8.15895C17.4961 8.06415 17.6022 7.94547 17.6822 7.80969C17.7623 7.67391 17.8148 7.5237 17.8368 7.36761C17.8588 7.21153 17.8499 7.05265 17.8105 6.90002C17.4775 5.61214 16.7262 4.47134 15.6745 3.65683C14.6228 2.84231 13.3303 2.40023 12.0001 2.40002Z" fill="#6F6F6D"/>
</svg>
