<svg width="24" height="24" viewBox="0 0 24 24" fill="none" xmlns="http://www.w3.org/2000/svg">
<path d="M16.7071 6.29289C16.3166 5.90237 15.6834 5.90237 15.2929 6.29289C14.9024 6.68342 14.9024 7.31658 15.2929 7.70711L18.5858 11H8.92857C8.41574 11 8 11.4477 8 12C8 12.5523 8.41574 13 8.92857 13H18.5858L15.2929 16.2929C14.9024 16.6834 14.9024 17.3166 15.2929 17.7071C15.6834 18.0976 16.3166 18.0976 16.7071 17.7071L21.7071 12.7071C22.0976 12.3166 22.0976 11.6834 21.7071 11.2929L16.7071 6.29289Z" fill="#6F6F6D"/>
<mask id="path-2-inside-1_1198_103746" fill="white">
<path fill-rule="evenodd" clip-rule="evenodd" d="M3.58579 20.4142C3.96086 20.7893 4.46957 21 5 21H9V14H8.92857C7.79495 14 7 13.0335 7 12C7 10.9665 7.79495 10 8.92857 10H9V3H5C4.46957 3 3.96086 3.21071 3.58579 3.58579C3.21071 3.96086 3 4.46957 3 5V19C3 19.5304 3.21071 20.0391 3.58579 20.4142ZM9 11H8.92857C8.41574 11 8 11.4477 8 12C8 12.5523 8.41574 13 8.92857 13H9V11Z"/>
</mask>
<path fill-rule="evenodd" clip-rule="evenodd" d="M3.58579 20.4142C3.96086 20.7893 4.46957 21 5 21H9V14H8.92857C7.79495 14 7 13.0335 7 12C7 10.9665 7.79495 10 8.92857 10H9V3H5C4.46957 3 3.96086 3.21071 3.58579 3.58579C3.21071 3.96086 3 4.46957 3 5V19C3 19.5304 3.21071 20.0391 3.58579 20.4142ZM9 11H8.92857C8.41574 11 8 11.4477 8 12C8 12.5523 8.41574 13 8.92857 13H9V11Z" fill="#6F6F6D"/>
<path d="M3.58579 20.4142L5 19L3.58579 20.4142ZM9 21V23C10.1046 23 11 22.1046 11 21H9ZM9 14H11C11 12.8954 10.1046 12 9 12V14ZM9 10V12C10.1046 12 11 11.1046 11 10H9ZM9 3H11C11 1.89543 10.1046 1 9 1V3ZM3.58579 3.58579L5 5L5 5L3.58579 3.58579ZM9 11H11C11 9.89543 10.1046 9 9 9V11ZM9 13V15C10.1046 15 11 14.1046 11 13H9ZM5 19L5 19L2.17157 21.8284C2.92172 22.5786 3.93913 23 5 23V19ZM9 19H5V23H9V19ZM7 14V21H11V14H7ZM9 12H8.92857V16H9V12ZM8.92857 12C8.92963 12 8.93633 12.0002 8.94704 12.0025C8.95762 12.0048 8.96872 12.0085 8.97931 12.0133C9.00088 12.0232 9.01097 12.0334 9.01244 12.035C9.01315 12.0357 9.00876 12.0308 9.00464 12.0203C9.00065 12.0101 9 12.0025 9 12H5C5 13.9737 6.53292 16 8.92857 16V12ZM9 12C9 11.9975 9.00065 11.9899 9.00464 11.9797C9.00876 11.9692 9.01315 11.9643 9.01244 11.965C9.01097 11.9666 9.00088 11.9768 8.97931 11.9867C8.96872 11.9915 8.95762 11.9952 8.94704 11.9975C8.93633 11.9998 8.92963 12 8.92857 12V8C6.53292 8 5 10.0263 5 12H9ZM8.92857 12H9V8H8.92857V12ZM7 3V10H11V3H7ZM5 5H9V1H5V5ZM5 5V5V1C3.93913 1 2.92172 1.42143 2.17157 2.17157L5 5ZM5 5H5L2.17157 2.17157C1.42143 2.92172 1 3.93913 1 5H5ZM5 19V5H1V19H5ZM5 19L5 19H1C1 20.0609 1.42143 21.0783 2.17157 21.8284L5 19ZM8.92857 13H9V9H8.92857V13ZM10 12C10 12.4101 9.6573 13 8.92857 13V9C7.17417 9 6 10.4853 6 12H10ZM8.92857 11C9.6573 11 10 11.5899 10 12H6C6 13.5147 7.17417 15 8.92857 15V11ZM9 11H8.92857V15H9V11ZM7 11V13H11V11H7Z" fill="#6F6F6D" mask="url(#path-2-inside-1_1198_103746)"/>
</svg>
