<svg width="24" height="24" viewBox="0 0 24 24" fill="none" xmlns="http://www.w3.org/2000/svg">
<path d="M2.4035 7.06085L11.9999 11.8584L21.5963 7.06085C21.5608 6.44938 21.2928 5.87463 20.8473 5.45432C20.4018 5.03401 19.8124 4.79994 19.1999 4.80005H4.7999C4.1874 4.79994 3.59804 5.03401 3.15252 5.45432C2.70699 5.87463 2.43903 6.44938 2.4035 7.06085Z" fill="#6F6F6D"/>
<path d="M21.5999 9.74165L11.9999 14.5416L2.3999 9.74165V16.8C2.3999 17.4366 2.65276 18.047 3.10285 18.4971C3.55293 18.9472 4.16338 19.2 4.7999 19.2H19.1999C19.8364 19.2 20.4469 18.9472 20.897 18.4971C21.347 18.047 21.5999 17.4366 21.5999 16.8V9.74165Z" fill="#6F6F6D"/>
</svg>
