<svg width="24" height="24" viewBox="0 0 24 24" fill="none" xmlns="http://www.w3.org/2000/svg">
<path fill-rule="evenodd" clip-rule="evenodd" d="M3.5279 7.6944C3.18272 7.91013 2.89808 8.21012 2.70076 8.56615C2.50343 8.92218 2.3999 9.32254 2.3999 9.7296V19.2C2.3999 19.8365 2.65276 20.447 3.10285 20.8971C3.55293 21.3471 4.16338 21.6 4.7999 21.6H19.1999C19.8364 21.6 20.4469 21.3471 20.897 20.8971C21.347 20.447 21.5999 19.8365 21.5999 19.2V9.7296C21.5999 9.32254 21.4964 8.92218 21.299 8.56615C21.1017 8.21012 20.8171 7.91013 20.4719 7.6944L13.2719 3.1944C12.8905 2.956 12.4497 2.82959 11.9999 2.82959C11.5501 2.82959 11.1093 2.956 10.7279 3.1944L3.5279 7.6944ZM6.6659 10.602C6.53479 10.5145 6.38774 10.4538 6.23313 10.4231C6.07853 10.3925 5.91941 10.3926 5.76486 10.4235C5.61031 10.4544 5.46335 10.5154 5.33237 10.603C5.20139 10.6907 5.08896 10.8033 5.0015 10.9344C4.91404 11.0655 4.85326 11.2126 4.82263 11.3672C4.79201 11.5218 4.79213 11.6809 4.82299 11.8354C4.88533 12.1476 5.06911 12.4222 5.3339 12.5988L11.3339 16.5984C11.5311 16.73 11.7628 16.8002 11.9999 16.8002C12.237 16.8002 12.4687 16.73 12.6659 16.5984L18.6659 12.5988C18.9307 12.4222 19.1145 12.1476 19.1768 11.8354C19.2391 11.5233 19.1749 11.1992 18.9983 10.9344C18.8217 10.6696 18.5471 10.4858 18.2349 10.4235C17.9228 10.3612 17.5987 10.4254 17.3339 10.602L11.9999 14.1576L6.6659 10.602Z" fill="#6F6F6D"/>
</svg>
