<svg width="24" height="24" viewBox="0 0 24 24" fill="none" xmlns="http://www.w3.org/2000/svg">
<path fill-rule="evenodd" clip-rule="evenodd" d="M8.4001 4.79995C8.4001 3.84517 8.77938 2.9295 9.45451 2.25437C10.1296 1.57924 11.0453 1.19995 12.0001 1.19995C12.9549 1.19995 13.8706 1.57924 14.5457 2.25437C15.2208 2.9295 15.6001 3.84517 15.6001 4.79995V9.59995C15.6001 10.5547 15.2208 11.4704 14.5457 12.1455C13.8706 12.8207 12.9549 13.2 12.0001 13.2C11.0453 13.2 10.1296 12.8207 9.45451 12.1455C8.77938 11.4704 8.4001 10.5547 8.4001 9.59995V4.79995ZM13.2001 17.916C15.1996 17.6271 17.028 16.6274 18.3503 15.1001C19.6727 13.5728 20.4004 11.6202 20.4001 9.59995C20.4001 9.28169 20.2737 8.97647 20.0486 8.75142C19.8236 8.52638 19.5184 8.39995 19.2001 8.39995C18.8818 8.39995 18.5766 8.52638 18.3516 8.75142C18.1265 8.97647 18.0001 9.28169 18.0001 9.59995C18.0001 11.1912 17.368 12.7174 16.2427 13.8426C15.1175 14.9678 13.5914 15.5999 12.0001 15.6C10.4088 15.5999 8.88268 14.9678 7.75746 13.8426C6.63224 12.7174 6.0001 11.1912 6.0001 9.59995C6.0001 9.28169 5.87367 8.97647 5.64863 8.75142C5.42358 8.52638 5.11836 8.39995 4.8001 8.39995C4.48184 8.39995 4.17661 8.52638 3.95157 8.75142C3.72653 8.97647 3.6001 9.28169 3.6001 9.59995C3.59983 11.6202 4.32754 13.5728 5.64988 15.1001C6.97223 16.6274 8.80064 17.6271 10.8001 17.916V20.4H7.2001C6.88184 20.4 6.57661 20.5264 6.35157 20.7514C6.12653 20.9765 6.0001 21.2817 6.0001 21.6C6.0001 21.9182 6.12653 22.2234 6.35157 22.4485C6.57661 22.6735 6.88184 22.7999 7.2001 22.7999H16.8001C17.1184 22.7999 17.4236 22.6735 17.6486 22.4485C17.8737 22.2234 18.0001 21.9182 18.0001 21.6C18.0001 21.2817 17.8737 20.9765 17.6486 20.7514C17.4236 20.5264 17.1184 20.4 16.8001 20.4H13.2001V17.916Z" fill="#6F6F6D"/>
</svg>
