<svg width="24" height="24" viewBox="0 0 24 24" fill="none" xmlns="http://www.w3.org/2000/svg">
<path fill-rule="evenodd" clip-rule="evenodd" d="M11.9999 21.5999C14.546 21.5999 16.9878 20.5885 18.7881 18.7881C20.5885 16.9878 21.5999 14.546 21.5999 11.9999C21.5999 9.45382 20.5885 7.01203 18.7881 5.21168C16.9878 3.41133 14.546 2.3999 11.9999 2.3999C9.45382 2.3999 7.01203 3.41133 5.21168 5.21168C3.41133 7.01203 2.3999 9.45382 2.3999 11.9999C2.3999 14.546 3.41133 16.9878 5.21168 18.7881C7.01203 20.5885 9.45382 21.5999 11.9999 21.5999ZM8.3999 10.7999C8.08164 10.7999 7.77642 10.9263 7.55137 11.1514C7.32633 11.3764 7.1999 11.6816 7.1999 11.9999C7.1999 12.3182 7.32633 12.6234 7.55137 12.8484C7.77642 13.0735 8.08164 13.1999 8.3999 13.1999H15.5999C15.9182 13.1999 16.2234 13.0735 16.4484 12.8484C16.6735 12.6234 16.7999 12.3182 16.7999 11.9999C16.7999 11.6816 16.6735 11.3764 16.4484 11.1514C16.2234 10.9263 15.9182 10.7999 15.5999 10.7999H8.3999Z" fill="#6F6F6D"/>
</svg>
