<svg width="24" height="24" viewBox="0 0 24 24" fill="none" xmlns="http://www.w3.org/2000/svg">
<path fill-rule="evenodd" clip-rule="evenodd" d="M23 12C23 18.0751 18.0751 23 12 23C5.92487 23 1 18.0751 1 12C1 5.92487 5.92487 1 12 1C18.0751 1 23 5.92487 23 12ZM7.49019 16.9169C7.2273 17.0607 6.93925 16.7726 7.08303 16.5098L9.99425 11.1868C10.2696 10.6834 10.6834 10.2696 11.1868 9.99425L16.5098 7.08303C16.7726 6.93925 17.0607 7.22729 16.9169 7.49019L14.0057 12.8131C13.7304 13.3165 13.3165 13.7304 12.8131 14.0057L7.49019 16.9169ZM12.9014 12C12.9014 12.4978 12.4978 12.9014 12 12.9014C11.5021 12.9014 11.0986 12.4978 11.0986 12C11.0986 11.5021 11.5021 11.0986 12 11.0986C12.4978 11.0986 12.9014 11.5021 12.9014 12Z" fill="#6F6F6D"/>
</svg>
