<svg width="24" height="24" viewBox="0 0 24 24" fill="none" xmlns="http://www.w3.org/2000/svg">
<path fill-rule="evenodd" clip-rule="evenodd" d="M2.3999 6.0001C2.3999 5.36358 2.65276 4.75313 3.10285 4.30304C3.55293 3.85295 4.16338 3.6001 4.7999 3.6001H14.3999C15.0364 3.6001 15.6469 3.85295 16.097 4.30304C16.547 4.75313 16.7999 5.36358 16.7999 6.0001V18.0001C16.7999 18.6366 17.0528 19.2471 17.5028 19.6972C17.9529 20.1472 18.5634 20.4001 19.1999 20.4001H4.7999C4.16338 20.4001 3.55293 20.1472 3.10285 19.6972C2.65276 19.2471 2.3999 18.6366 2.3999 18.0001V6.0001ZM5.9999 7.2001H13.1999V12.0001H5.9999V7.2001ZM13.1999 14.4001H5.9999V16.8001H13.1999V14.4001Z" fill="#6F6F6D"/>
<path d="M18 8.3999H19.2C19.8365 8.3999 20.447 8.65276 20.8971 9.10285C21.3471 9.55293 21.6 10.1634 21.6 10.7999V17.3999C21.6 17.8773 21.4104 18.3351 21.0728 18.6727C20.7352 19.0103 20.2774 19.1999 19.8 19.1999C19.3226 19.1999 18.8648 19.0103 18.5272 18.6727C18.1896 18.3351 18 17.8773 18 17.3999V8.3999Z" fill="#6F6F6D"/>
</svg>
