<svg width="24" height="24" viewBox="0 0 24 24" fill="none" xmlns="http://www.w3.org/2000/svg">
<path fill-rule="evenodd" clip-rule="evenodd" d="M4.7999 3.59998C4.16338 3.59998 3.55293 3.85283 3.10285 4.30292C2.65276 4.75301 2.3999 5.36346 2.3999 5.99998V18C2.3999 18.6365 2.65276 19.2469 3.10285 19.697C3.55293 20.1471 4.16338 20.4 4.7999 20.4H19.1999C19.8364 20.4 20.4469 20.1471 20.897 19.697C21.347 19.2469 21.5999 18.6365 21.5999 18V5.99998C21.5999 5.36346 21.347 4.75301 20.897 4.30292C20.4469 3.85283 19.8364 3.59998 19.1999 3.59998H4.7999ZM19.1999 18H4.7999L9.5999 8.39998L13.1999 15.6L15.5999 10.8L19.1999 18Z" fill="#6F6F6D"/>
</svg>
