<svg width="24" height="24" viewBox="0 0 24 24" fill="none" xmlns="http://www.w3.org/2000/svg">
<path d="M12.0761 3.81503L12 3.78374L11.9239 3.81503C10.708 4.31512 9.32386 4.59 8 4.59C6.97987 4.59 5.9396 4.43296 4.97854 4.13876L4.47827 3.98561L4.74882 4.43342C5.31853 5.37639 5.8 6.55006 5.8 7.79C5.8 9.04264 5.29649 10.5778 4.74575 12.2491L4.71026 12.3568L4.71004 12.3574L4.70953 12.359C4.51001 12.9575 4.28394 13.6357 4.10778 14.2485C3.93374 14.8539 3.8 15.4226 3.8 15.79C3.8 15.9747 3.87833 16.1577 3.99572 16.3294C4.1144 16.503 4.28385 16.681 4.49258 16.8601C4.91031 17.2185 5.50706 17.5995 6.23609 17.9741C7.69572 18.7242 9.71254 19.4622 11.9579 19.9455L12 19.9546L12.042 19.9455C14.2924 19.4622 16.3093 18.7242 17.7677 17.9741C18.4962 17.5995 19.092 17.2184 19.509 16.8599C19.7173 16.6808 19.8864 16.5028 20.0048 16.3292C20.1219 16.1575 20.2 15.9746 20.2 15.79C20.2 15.4226 20.0663 14.8539 19.8922 14.2485C19.7161 13.6357 19.49 12.9575 19.2905 12.3589L19.29 12.3574L19.2897 12.3568L19.2543 12.2491C18.7035 10.5778 18.2 9.04264 18.2 7.79C18.2 6.55006 18.6815 5.37639 19.2512 4.43342L19.5217 3.98561L19.0215 4.13876C18.0603 4.43299 17.03 4.59 16 4.59C14.6761 4.59 13.292 4.31512 12.0761 3.81503ZM12.0734 14.2088L11.9698 14.1463L11.8664 14.2089L9.20325 15.8224L9.91473 12.7856L9.9424 12.6675L9.85043 12.5884L7.49063 10.5583L10.5973 10.2893L10.7175 10.2788L10.7643 10.1676L11.9709 7.30299L13.186 10.1583L13.233 10.2689L13.3527 10.2793L16.4594 10.5483L14.0996 12.5784L14.0077 12.6574L14.0352 12.7755L14.7473 15.8236L12.0734 14.2088Z" fill="#6F6F6D" stroke="#6F6F6D" stroke-width="0.4"/>
</svg>
