<svg width="24" height="24" viewBox="0 0 24 24" fill="none" xmlns="http://www.w3.org/2000/svg">
<path fill-rule="evenodd" clip-rule="evenodd" d="M5.9999 4.7999V8.3999H4.7999C4.16338 8.3999 3.55293 8.65276 3.10285 9.10285C2.65276 9.55293 2.3999 10.1634 2.3999 10.7999V14.3999C2.3999 15.0364 2.65276 15.6469 3.10285 16.097C3.55293 16.547 4.16338 16.7999 4.7999 16.7999H5.9999V19.1999C5.9999 19.8364 6.25276 20.4469 6.70285 20.897C7.15293 21.347 7.76338 21.5999 8.3999 21.5999H15.5999C16.2364 21.5999 16.8469 21.347 17.297 20.897C17.747 20.4469 17.9999 19.8364 17.9999 19.1999V16.7999H19.1999C19.8364 16.7999 20.4469 16.547 20.897 16.097C21.347 15.6469 21.5999 15.0364 21.5999 14.3999V10.7999C21.5999 10.1634 21.347 9.55293 20.897 9.10285C20.4469 8.65276 19.8364 8.3999 19.1999 8.3999H17.9999V4.7999C17.9999 4.16338 17.747 3.55293 17.297 3.10285C16.8469 2.65276 16.2364 2.3999 15.5999 2.3999H8.3999C7.76338 2.3999 7.15293 2.65276 6.70285 3.10285C6.25276 3.55293 5.9999 4.16338 5.9999 4.7999ZM15.5999 4.7999H8.3999V8.3999H15.5999V4.7999ZM15.5999 14.3999H8.3999V19.1999H15.5999V14.3999Z" fill="#6F6F6D"/>
</svg>
