<svg width="24" height="24" viewBox="0 0 24 24" fill="none" xmlns="http://www.w3.org/2000/svg">
<path d="M11.9999 4.1999C11.9999 3.72251 12.1895 3.26468 12.5271 2.92711C12.8647 2.58954 13.3225 2.3999 13.7999 2.3999C14.2773 2.3999 14.7351 2.58954 15.0727 2.92711C15.4103 3.26468 15.5999 3.72251 15.5999 4.1999V4.7999C15.5999 5.11816 15.7263 5.42339 15.9514 5.64843C16.1764 5.87347 16.4816 5.9999 16.7999 5.9999H20.3999C20.7182 5.9999 21.0234 6.12633 21.2484 6.35137C21.4735 6.57642 21.5999 6.88164 21.5999 7.1999V10.7999C21.5999 11.1182 21.4735 11.4234 21.2484 11.6484C21.0234 11.8735 20.7182 11.9999 20.3999 11.9999H19.7999C19.3225 11.9999 18.8647 12.1895 18.5271 12.5271C18.1895 12.8647 17.9999 13.3225 17.9999 13.7999C17.9999 14.2773 18.1895 14.7351 18.5271 15.0727C18.8647 15.4103 19.3225 15.5999 19.7999 15.5999H20.3999C20.7182 15.5999 21.0234 15.7263 21.2484 15.9514C21.4735 16.1764 21.5999 16.4816 21.5999 16.7999V20.3999C21.5999 20.7182 21.4735 21.0234 21.2484 21.2484C21.0234 21.4735 20.7182 21.5999 20.3999 21.5999H16.7999C16.4816 21.5999 16.1764 21.4735 15.9514 21.2484C15.7263 21.0234 15.5999 20.7182 15.5999 20.3999V19.7999C15.5999 19.3225 15.4103 18.8647 15.0727 18.5271C14.7351 18.1895 14.2773 17.9999 13.7999 17.9999C13.3225 17.9999 12.8647 18.1895 12.5271 18.5271C12.1895 18.8647 11.9999 19.3225 11.9999 19.7999V20.3999C11.9999 20.7182 11.8735 21.0234 11.6484 21.2484C11.4234 21.4735 11.1182 21.5999 10.7999 21.5999H7.1999C6.88164 21.5999 6.57642 21.4735 6.35137 21.2484C6.12633 21.0234 5.9999 20.7182 5.9999 20.3999V16.7999C5.9999 16.4816 5.87347 16.1764 5.64843 15.9514C5.42339 15.7263 5.11816 15.5999 4.7999 15.5999H4.1999C3.72251 15.5999 3.26468 15.4103 2.92711 15.0727C2.58954 14.7351 2.3999 14.2773 2.3999 13.7999C2.3999 13.3225 2.58954 12.8647 2.92711 12.5271C3.26468 12.1895 3.72251 11.9999 4.1999 11.9999H4.7999C5.11816 11.9999 5.42339 11.8735 5.64843 11.6484C5.87347 11.4234 5.9999 11.1182 5.9999 10.7999V7.1999C5.9999 6.88164 6.12633 6.57642 6.35137 6.35137C6.57642 6.12633 6.88164 5.9999 7.1999 5.9999H10.7999C11.1182 5.9999 11.4234 5.87347 11.6484 5.64843C11.8735 5.42339 11.9999 5.11816 11.9999 4.7999V4.1999Z" fill="#6F6F6D"/>
</svg>
