<svg width="24" height="24" viewBox="0 0 24 24" fill="none" xmlns="http://www.w3.org/2000/svg">
<path fill-rule="evenodd" clip-rule="evenodd" d="M21.5999 12C21.5999 17.302 17.3018 21.6 11.9999 21.6C6.69797 21.6 2.3999 17.302 2.3999 12C2.3999 6.69809 6.69797 2.40002 11.9999 2.40002C17.3018 2.40002 21.5999 6.69809 21.5999 12ZM11.9999 8.40002C11.5573 8.40002 11.169 8.63908 10.9597 9.0009C10.6279 9.57457 9.8938 9.7706 9.32012 9.43875C8.74645 9.1069 8.55042 8.37283 8.88227 7.79915C9.50291 6.72624 10.6659 6.00002 11.9999 6.00002C13.9881 6.00002 15.5999 7.6118 15.5999 9.60002C15.5999 11.1675 14.5981 12.501 13.1999 12.9952V13.2C13.1999 13.8628 12.6627 14.4 11.9999 14.4C11.3372 14.4 10.7999 13.8628 10.7999 13.2V12C10.7999 11.3373 11.3372 10.8 11.9999 10.8C12.6627 10.8 13.1999 10.2628 13.1999 9.60002C13.1999 8.93728 12.6627 8.40002 11.9999 8.40002ZM11.9999 18C12.6626 18 13.1999 17.4628 13.1999 16.8C13.1999 16.1373 12.6626 15.6 11.9999 15.6C11.3372 15.6 10.7999 16.1373 10.7999 16.8C10.7999 17.4628 11.3372 18 11.9999 18Z" fill="#6F6F6D"/>
</svg>
