<svg width="32" height="32" viewBox="0 0 32 32" fill="none" xmlns="http://www.w3.org/2000/svg">
<path d="M7 7C7 6.20435 7.31607 5.44129 7.87868 4.87868C8.44129 4.31607 9.20435 4 10 4H22C22.7956 4 23.5587 4.31607 24.1213 4.87868C24.6839 5.44129 25 6.20435 25 7V25C25 25.7956 24.6839 26.5587 24.1213 27.1213C23.5587 27.6839 22.7956 28 22 28H10C9.20435 28 8.44129 27.6839 7.87868 27.1213C7.31607 26.5587 7 25.7956 7 25V7ZM13.75 7C13.5511 7 13.3603 7.07902 13.2197 7.21967C13.079 7.36032 13 7.55109 13 7.75C13 7.94891 13.079 8.13968 13.2197 8.28033C13.3603 8.42098 13.5511 8.5 13.75 8.5H18.25C18.4489 8.5 18.6397 8.42098 18.7803 8.28033C18.921 8.13968 19 7.94891 19 7.75C19 7.55109 18.921 7.36032 18.7803 7.21967C18.6397 7.07902 18.4489 7 18.25 7H13.75ZM16 20.5C17.1935 20.5 18.3381 20.0259 19.182 19.182C20.0259 18.3381 20.5 17.1935 20.5 16C20.5 14.8065 20.0259 13.6619 19.182 12.818C18.3381 11.9741 17.1935 11.5 16 11.5C14.8065 11.5 13.6619 11.9741 12.818 12.818C11.9741 13.6619 11.5 14.8065 11.5 16C11.5 17.1935 11.9741 18.3381 12.818 19.182C13.6619 20.0259 14.8065 20.5 16 20.5ZM23.5 24.6325C22.219 23.2375 19.9345 22 16 22C12.0655 22 9.781 23.239 8.5 24.6325V25C8.5 25.3978 8.65804 25.7794 8.93934 26.0607C9.22064 26.342 9.60218 26.5 10 26.5H22C22.3978 26.5 22.7794 26.342 23.0607 26.0607C23.342 25.7794 23.5 25.3978 23.5 25V24.6325Z" fill="#6F6F6D"/>
</svg>
