<svg width="28" height="24" viewBox="0 0 28 24" fill="none" xmlns="http://www.w3.org/2000/svg">
<path d="M11.5 12C12.4946 12 13.4484 11.6049 14.1517 10.9017C14.8549 10.1984 15.25 9.24456 15.25 8.25C15.25 7.25544 14.8549 6.30161 14.1517 5.59835C13.4484 4.89509 12.4946 4.5 11.5 4.5C10.5054 4.5 9.55161 4.89509 8.84835 5.59835C8.14509 6.30161 7.75 7.25544 7.75 8.25C7.75 9.24456 8.14509 10.1984 8.84835 10.9017C9.55161 11.6049 10.5054 12 11.5 12ZM5.25 19.5C5.25 19.5 4 19.5 4 18.25C4 17 5.25 13.25 11.5 13.25C17.75 13.25 19 17 19 18.25C19 19.5 17.75 19.5 17.75 19.5H5.25ZM17.75 6.375C17.75 6.20924 17.8158 6.05027 17.9331 5.93306C18.0503 5.81585 18.2092 5.75 18.375 5.75H23.375C23.5408 5.75 23.6997 5.81585 23.8169 5.93306C23.9342 6.05027 24 6.20924 24 6.375C24 6.54076 23.9342 6.69973 23.8169 6.81694C23.6997 6.93415 23.5408 7 23.375 7H18.375C18.2092 7 18.0503 6.93415 17.9331 6.81694C17.8158 6.69973 17.75 6.54076 17.75 6.375ZM18.375 9.5C18.2092 9.5 18.0503 9.56585 17.9331 9.68306C17.8158 9.80027 17.75 9.95924 17.75 10.125C17.75 10.2908 17.8158 10.4497 17.9331 10.5669C18.0503 10.6842 18.2092 10.75 18.375 10.75H23.375C23.5408 10.75 23.6997 10.6842 23.8169 10.5669C23.9342 10.4497 24 10.2908 24 10.125C24 9.95924 23.9342 9.80027 23.8169 9.68306C23.6997 9.56585 23.5408 9.5 23.375 9.5H18.375ZM20.875 13.25C20.7092 13.25 20.5503 13.3158 20.4331 13.4331C20.3158 13.5503 20.25 13.7092 20.25 13.875C20.25 14.0408 20.3158 14.1997 20.4331 14.3169C20.5503 14.4342 20.7092 14.5 20.875 14.5H23.375C23.5408 14.5 23.6997 14.4342 23.8169 14.3169C23.9342 14.1997 24 14.0408 24 13.875C24 13.7092 23.9342 13.5503 23.8169 13.4331C23.6997 13.3158 23.5408 13.25 23.375 13.25H20.875ZM20.875 17C20.7092 17 20.5503 17.0658 20.4331 17.1831C20.3158 17.3003 20.25 17.4592 20.25 17.625C20.25 17.7908 20.3158 17.9497 20.4331 18.0669C20.5503 18.1842 20.7092 18.25 20.875 18.25H23.375C23.5408 18.25 23.6997 18.1842 23.8169 18.0669C23.9342 17.9497 24 17.7908 24 17.625C24 17.4592 23.9342 17.3003 23.8169 17.1831C23.6997 17.0658 23.5408 17 23.375 17H20.875Z" fill="#6F6F6D"/>
</svg>
