<svg width="24" height="24" viewBox="0 0 24 24" fill="none" xmlns="http://www.w3.org/2000/svg">
<path fill-rule="evenodd" clip-rule="evenodd" d="M13.7881 3.80402C13.3321 1.93202 10.6681 1.93202 10.2121 3.80402C10.144 4.08532 10.0105 4.34657 9.82236 4.56652C9.63424 4.78646 9.39685 4.95888 9.1295 5.06975C8.86216 5.18062 8.57242 5.2268 8.28386 5.20453C7.99529 5.18227 7.71606 5.09219 7.46889 4.94162C5.82249 3.93842 3.93849 5.82242 4.94169 7.46882C5.58969 8.53202 5.01489 9.91922 3.80529 10.2132C1.93209 10.668 1.93209 13.3332 3.80529 13.7868C4.08666 13.855 4.34796 13.9886 4.5679 14.1769C4.78785 14.3652 4.96022 14.6027 5.07098 14.8702C5.18174 15.1377 5.22776 15.4276 5.20529 15.7162C5.18283 16.0048 5.09251 16.2841 4.94169 16.5312C3.93849 18.1776 5.82249 20.0616 7.46889 19.0584C7.71602 18.9076 7.99527 18.8173 8.28391 18.7948C8.57255 18.7724 8.86242 18.8184 9.12991 18.9291C9.39739 19.0399 9.63494 19.2123 9.8232 19.4322C10.0115 19.6522 10.1451 19.9135 10.2133 20.1948C10.6681 22.068 13.3333 22.068 13.7869 20.1948C13.8553 19.9136 13.9891 19.6525 14.1774 19.4327C14.3657 19.2129 14.6032 19.0406 14.8706 18.9299C15.138 18.8192 15.4278 18.7731 15.7163 18.7954C16.0049 18.8178 16.2841 18.9079 16.5313 19.0584C18.1777 20.0616 20.0617 18.1776 19.0585 16.5312C18.9079 16.284 18.8178 16.0048 18.7955 15.7163C18.7732 15.4277 18.8192 15.1379 18.93 14.8705C19.0407 14.6031 19.213 14.3656 19.4328 14.1773C19.6525 13.989 19.9137 13.8552 20.1949 13.7868C22.0681 13.332 22.0681 10.6668 20.1949 10.2132C19.9135 10.1451 19.6522 10.0114 19.4323 9.82314C19.2123 9.63488 19.04 9.39733 18.9292 9.12984C18.8184 8.86235 18.7724 8.57249 18.7949 8.28385C18.8174 7.99521 18.9077 7.71595 19.0585 7.46882C20.0617 5.82242 18.1777 3.93842 16.5313 4.94162C16.2842 5.09244 16.0049 5.18276 15.7163 5.20523C15.4276 5.22769 15.1378 5.18167 14.8703 5.07091C14.6028 4.96015 14.3652 4.78778 14.177 4.56784C13.9887 4.3479 13.8551 4.0866 13.7869 3.80522L13.7881 3.80402ZM12.0001 15.6C12.9549 15.6 13.8705 15.2207 14.5457 14.5456C15.2208 13.8705 15.6001 12.9548 15.6001 12C15.6001 11.0452 15.2208 10.1296 14.5457 9.45444C13.8705 8.77931 12.9549 8.40002 12.0001 8.40002C11.0453 8.40002 10.1296 8.77931 9.45451 9.45444C8.77938 10.1296 8.40009 11.0452 8.40009 12C8.40009 12.9548 8.77938 13.8705 9.45451 14.5456C10.1296 15.2207 11.0453 15.6 12.0001 15.6Z" fill="#6F6F6D"/>
</svg>
