<svg width="24" height="24" viewBox="0 0 24 24" fill="none" xmlns="http://www.w3.org/2000/svg">
<path d="M18 9.59991C18.7309 9.59993 19.4446 9.37743 20.0461 8.96198C20.6475 8.54654 21.1083 7.95785 21.367 7.27419C21.6257 6.59053 21.6702 5.84431 21.4946 5.13475C21.3189 4.42518 20.9314 3.78591 20.3836 3.30194C19.8357 2.81797 19.1536 2.51224 18.4278 2.4254C17.702 2.33856 16.9669 2.47473 16.3204 2.81579C15.6738 3.15686 15.1464 3.68667 14.8083 4.33475C14.4702 4.98284 14.3374 5.7185 14.4276 6.44391L8.49956 9.40791C7.99104 8.91753 7.34948 8.58761 6.6548 8.45924C5.96011 8.33087 5.24301 8.40973 4.59283 8.68599C3.94264 8.96225 3.3881 9.4237 2.99829 10.0129C2.60848 10.602 2.40063 11.2929 2.40063 11.9993C2.40063 12.7058 2.60848 13.3966 2.99829 13.9857C3.3881 14.5749 3.94264 15.0364 4.59283 15.3126C5.24301 15.5889 5.96011 15.6677 6.6548 15.5394C7.34948 15.411 7.99104 15.0811 8.49956 14.5907L14.4276 17.5547C14.3226 18.3974 14.5188 19.2501 14.9817 19.962C15.4446 20.674 16.1442 21.1994 16.957 21.4455C17.7698 21.6915 18.6434 21.6422 19.4234 21.3065C20.2034 20.9707 20.8396 20.37 21.2195 19.6105C21.5995 18.8511 21.6987 17.9817 21.4997 17.1562C21.3007 16.3306 20.8162 15.602 20.132 15.0991C19.4477 14.5962 18.6077 14.3513 17.7604 14.4078C16.913 14.4643 16.113 14.8186 15.5016 15.4079L9.57356 12.4439C9.60988 12.149 9.60988 11.8508 9.57356 11.5559L15.5016 8.59191C16.1472 9.21591 17.028 9.59991 18 9.59991Z" fill="#6F6F6D"/>
</svg>
