<svg width="24" height="24" viewBox="0 0 24 24" fill="none" xmlns="http://www.w3.org/2000/svg">
<path fill-rule="evenodd" clip-rule="evenodd" d="M2.5991 5.99876C6.07326 5.95556 9.41368 4.65292 11.9999 2.33276C14.586 4.65335 17.9264 5.95643 21.4007 5.99996C21.5327 6.77996 21.5999 7.58396 21.5999 8.40116C21.5999 14.6712 17.5919 20.0052 11.9999 21.9816C6.4079 20.004 2.3999 14.67 2.3999 8.39996C2.3999 7.58156 2.4683 6.77996 2.5991 5.99876ZM16.4483 10.4484C16.6669 10.222 16.7878 9.91892 16.7851 9.60428C16.7824 9.28965 16.6562 8.98867 16.4337 8.76618C16.2112 8.54369 15.9102 8.41749 15.5956 8.41476C15.2809 8.41202 14.9778 8.53297 14.7515 8.75156L10.7999 12.7032L9.2483 11.1516C9.02198 10.933 8.71886 10.812 8.40422 10.8148C8.08958 10.8175 7.78861 10.9437 7.56612 11.1662C7.34363 11.3887 7.21743 11.6896 7.21469 12.0043C7.21196 12.3189 7.33291 12.622 7.5515 12.8484L9.9515 15.2484C10.1765 15.4733 10.4817 15.5997 10.7999 15.5997C11.1181 15.5997 11.4233 15.4733 11.6483 15.2484L16.4483 10.4484Z" fill="#6F6F6D"/>
</svg>
