<svg width="24" height="24" viewBox="0 0 24 24" fill="none" xmlns="http://www.w3.org/2000/svg">
<path d="M5.74191 4.33582C9.80206 4.33582 12.5382 4.33582 15.9158 4.33582C18.0322 4.33582 19.7485 6.0515 19.7485 8.16791V8.16791C19.7485 10.2843 18.0328 12 15.9164 12H7.91644C5.61457 12 3.74854 13.866 3.74854 16.1679V16.1679C3.74854 18.4698 5.61457 20.3358 7.91644 20.3358H17.7462" stroke="#6F6F6D" stroke-width="2" stroke-linecap="round" stroke-linejoin="round"/>
<path d="M9 4.33582C9 5.44038 8.10457 6.33582 7 6.33582C5.89543 6.33582 5 5.44038 5 4.33582C5 3.23125 5.89543 2.33582 7 2.33582C8.10457 2.33582 9 3.23125 9 4.33582Z" fill="white"/>
<path fill-rule="evenodd" clip-rule="evenodd" d="M4 4.33582C4 2.67896 5.34315 1.33582 7 1.33582C8.65685 1.33582 10 2.67896 10 4.33582C10 5.99267 8.65685 7.33582 7 7.33582C5.34315 7.33582 4 5.99267 4 4.33582Z" fill="#6F6F6D"/>
<path d="M13.7485 12.8943C13.7485 13.9989 12.8531 14.8943 11.7485 14.8943C10.644 14.8943 9.74854 13.9989 9.74854 12.8943C9.74854 11.7897 10.644 10.8943 11.7485 10.8943C12.8531 10.8943 13.7485 11.7897 13.7485 12.8943Z" fill="white"/>
<path fill-rule="evenodd" clip-rule="evenodd" d="M8.74854 12.8943C8.74854 11.2374 10.0917 9.89429 11.7485 9.89429C13.4054 9.89429 14.7485 11.2374 14.7485 12.8943C14.7485 14.5511 13.4054 15.8943 11.7485 15.8943C10.0917 15.8943 8.74854 14.5511 8.74854 12.8943Z" fill="#6F6F6D"/>
<path d="M18 20C18 21.1046 17.1046 22 16 22C14.8954 22 14 21.1046 14 20C14 18.8954 14.8954 18 16 18C17.1046 18 18 18.8954 18 20Z" fill="white"/>
<path fill-rule="evenodd" clip-rule="evenodd" d="M13 20C13 18.3431 14.3431 17 16 17C17.6569 17 19 18.3431 19 20C19 21.6569 17.6569 23 16 23C14.3431 23 13 21.6569 13 20Z" fill="#6F6F6D"/>
</svg>
