<svg width="24" height="24" viewBox="0 0 24 24" fill="none" xmlns="http://www.w3.org/2000/svg">
<mask id="path-1-inside-1_1198_103728" fill="white">
<path fill-rule="evenodd" clip-rule="evenodd" d="M2 12C2 8.13401 5.13401 5 9 5H15C18.866 5 22 8.13401 22 12C22 15.866 18.866 19 15 19H9C5.13401 19 2 15.866 2 12ZM13.0449 12C13.0449 14.2091 11.254 16 9.04491 16C6.83577 16 5.04491 14.2091 5.04491 12C5.04491 9.79086 6.83577 8 9.04491 8C11.254 8 13.0449 9.79086 13.0449 12Z"/>
</mask>
<path fill-rule="evenodd" clip-rule="evenodd" d="M2 12C2 8.13401 5.13401 5 9 5H15C18.866 5 22 8.13401 22 12C22 15.866 18.866 19 15 19H9C5.13401 19 2 15.866 2 12ZM13.0449 12C13.0449 14.2091 11.254 16 9.04491 16C6.83577 16 5.04491 14.2091 5.04491 12C5.04491 9.79086 6.83577 8 9.04491 8C11.254 8 13.0449 9.79086 13.0449 12Z" fill="#6F6F6D"/>
<path d="M9 3C4.02944 3 0 7.02944 0 12H4C4 9.23858 6.23858 7 9 7V3ZM15 3H9V7H15V3ZM24 12C24 7.02944 19.9706 3 15 3V7C17.7614 7 20 9.23858 20 12H24ZM15 21C19.9706 21 24 16.9706 24 12H20C20 14.7614 17.7614 17 15 17V21ZM9 21H15V17H9V21ZM0 12C0 16.9706 4.02944 21 9 21V17C6.23858 17 4 14.7614 4 12H0ZM9.04491 18C12.3586 18 15.0449 15.3137 15.0449 12H11.0449C11.0449 13.1046 10.1495 14 9.04491 14V18ZM3.04491 12C3.04491 15.3137 5.7312 18 9.04491 18V14C7.94034 14 7.04491 13.1046 7.04491 12H3.04491ZM9.04491 6C5.7312 6 3.04491 8.68629 3.04491 12H7.04491C7.04491 10.8954 7.94034 10 9.04491 10V6ZM15.0449 12C15.0449 8.68629 12.3586 6 9.04491 6V10C10.1495 10 11.0449 10.8954 11.0449 12H15.0449Z" fill="#6F6F6D" mask="url(#path-1-inside-1_1198_103728)"/>
<circle cx="9" cy="12" r="2" fill="#6F6F6D"/>
</svg>
