<svg width="24" height="24" viewBox="0 0 24 24" fill="none" xmlns="http://www.w3.org/2000/svg">
<path fill-rule="evenodd" clip-rule="evenodd" d="M10.8001 2.3999C10.3456 2.3999 9.93006 2.65671 9.72679 3.06325L8.85846 4.7999H4.8001C4.13736 4.7999 3.6001 5.33716 3.6001 5.9999C3.6001 6.66264 4.13736 7.1999 4.8001 7.1999L4.8001 19.1999C4.8001 20.5254 5.87461 21.5999 7.2001 21.5999H16.8001C18.1256 21.5999 19.2001 20.5254 19.2001 19.1999V7.1999C19.8628 7.1999 20.4001 6.66264 20.4001 5.9999C20.4001 5.33716 19.8628 4.7999 19.2001 4.7999H15.1417L14.2734 3.06325C14.0701 2.65671 13.6546 2.3999 13.2001 2.3999H10.8001ZM8.4001 9.5999C8.4001 8.93716 8.93736 8.3999 9.6001 8.3999C10.2628 8.3999 10.8001 8.93716 10.8001 9.5999V16.7999C10.8001 17.4626 10.2628 17.9999 9.6001 17.9999C8.93736 17.9999 8.4001 17.4626 8.4001 16.7999V9.5999ZM14.4001 8.3999C13.7374 8.3999 13.2001 8.93716 13.2001 9.5999V16.7999C13.2001 17.4626 13.7374 17.9999 14.4001 17.9999C15.0628 17.9999 15.6001 17.4626 15.6001 16.7999V9.5999C15.6001 8.93716 15.0628 8.3999 14.4001 8.3999Z" fill="#6F6F6D"/>
</svg>
