<svg width="24" height="24" viewBox="0 0 24 24" fill="none" xmlns="http://www.w3.org/2000/svg">
<path d="M9.6 19.8C9.6 20.2774 9.41036 20.7352 9.07279 21.0728C8.73523 21.4104 8.27739 21.6 7.8 21.6C7.32261 21.6 6.86477 21.4104 6.52721 21.0728C6.18964 20.7352 6 20.2774 6 19.8C6 19.3226 6.18964 18.8648 6.52721 18.5272C6.86477 18.1896 7.32261 18 7.8 18C8.27739 18 8.73523 18.1896 9.07279 18.5272C9.41036 18.8648 9.6 19.3226 9.6 19.8ZM18 19.8C18 20.2774 17.8104 20.7352 17.4728 21.0728C17.1352 21.4104 16.6774 21.6 16.2 21.6C15.7226 21.6 15.2648 21.4104 14.9272 21.0728C14.5896 20.7352 14.4 20.2774 14.4 19.8C14.4 19.3226 14.5896 18.8648 14.9272 18.5272C15.2648 18.1896 15.7226 18 16.2 18C16.6774 18 17.1352 18.1896 17.4728 18.5272C17.8104 18.8648 18 19.3226 18 19.8Z" fill="#6F6F6D"/>
<path d="M3.5999 4.80005C3.28164 4.80005 2.97642 4.92648 2.75137 5.15152C2.52633 5.37656 2.3999 5.68179 2.3999 6.00005V18C2.3999 18.3183 2.52633 18.6235 2.75137 18.8486C2.97642 19.0736 3.28164 19.2 3.5999 19.2H4.8599C4.99761 18.5219 5.36554 17.9122 5.90135 17.4742C6.43715 17.0363 7.10789 16.797 7.7999 16.797C8.49192 16.797 9.16265 17.0363 9.69846 17.4742C10.2343 17.9122 10.6022 18.5219 10.7399 19.2H11.9999C12.3182 19.2 12.6234 19.0736 12.8484 18.8486C13.0735 18.6235 13.1999 18.3183 13.1999 18V6.00005C13.1999 5.68179 13.0735 5.37656 12.8484 5.15152C12.6234 4.92648 12.3182 4.80005 11.9999 4.80005H3.5999ZM16.7999 8.40005C16.4816 8.40005 16.1764 8.52648 15.9514 8.75152C15.7263 8.97656 15.5999 9.28179 15.5999 9.60005V16.86C15.986 16.7812 16.3838 16.7791 16.7707 16.8541C17.1576 16.929 17.5259 17.0794 17.8547 17.2967C18.1834 17.514 18.4661 17.7939 18.6866 18.1205C18.9072 18.4471 19.0612 18.8139 19.1399 19.2H20.3999C20.7182 19.2 21.0234 19.0736 21.2484 18.8486C21.4735 18.6235 21.5999 18.3183 21.5999 18V12C21.5998 11.6818 21.4734 11.3766 21.2483 11.1516L18.8483 8.75165C18.6233 8.52659 18.3181 8.40012 17.9999 8.40005H16.7999Z" fill="#6F6F6D"/>
</svg>
