<svg width="24" height="24" viewBox="0 0 24 24" fill="none" xmlns="http://www.w3.org/2000/svg">
<path d="M7.50004 15.0001C6.60457 14.9989 5.7436 14.6545 5.09431 14.0378C4.44502 13.4212 4.0568 12.5791 4.00952 11.6848C3.96225 10.7906 4.25952 9.91228 4.84017 9.23057C5.42082 8.54887 6.24068 8.11565 7.13104 8.02007C6.86887 6.99195 7.02586 5.90181 7.56747 4.98944C8.10907 4.07708 8.99093 3.41723 10.019 3.15507C11.0472 2.8929 12.1373 3.04989 13.0497 3.59149C13.962 4.1331 14.6219 5.01495 14.884 6.04307C15.4955 5.95793 16.1179 5.99951 16.7126 6.16523C17.3073 6.33095 17.8615 6.61726 18.3408 7.00635C18.8201 7.39544 19.2142 7.87898 19.4986 8.42691C19.783 8.97484 19.9517 9.57543 19.994 10.1913C20.0364 10.8072 19.9516 11.4252 19.7448 12.0069C19.5381 12.5886 19.2139 13.1216 18.7924 13.5726C18.3709 14.0237 17.8611 14.3832 17.2947 14.6287C16.7283 14.8743 16.1174 15.0007 15.5 15.0001H13V11.4131L14.293 12.7061C14.4816 12.8882 14.7342 12.989 14.9964 12.9867C15.2586 12.9845 15.5095 12.8793 15.6949 12.6939C15.8803 12.5085 15.9854 12.2577 15.9877 11.9955C15.99 11.7333 15.8892 11.4807 15.707 11.2921L12.707 8.29207C12.5195 8.10459 12.2652 7.99928 12 7.99928C11.7349 7.99928 11.4806 8.10459 11.293 8.29207L8.29304 11.2921C8.11088 11.4807 8.01009 11.7333 8.01237 11.9955C8.01464 12.2577 8.11981 12.5085 8.30522 12.6939C8.49063 12.8793 8.74144 12.9845 9.00364 12.9867C9.26584 12.989 9.51844 12.8882 9.70704 12.7061L11 11.4141V15.0001H7.50004Z" fill="#6F6F6D"/>
<path d="M11 15H13V20C13 20.2652 12.8946 20.5196 12.7071 20.7071C12.5196 20.8946 12.2652 21 12 21C11.7348 21 11.4804 20.8946 11.2929 20.7071C11.1054 20.5196 11 20.2652 11 20V15Z" fill="#6F6F6D"/>
</svg>
