<svg width="24" height="24" viewBox="0 0 24 24" fill="none" xmlns="http://www.w3.org/2000/svg">
<path fill-rule="evenodd" clip-rule="evenodd" d="M21.5999 11.9999C21.5999 14.546 20.5885 16.9878 18.7881 18.7881C16.9878 20.5885 14.546 21.5999 11.9999 21.5999C9.45382 21.5999 7.01203 20.5885 5.21168 18.7881C3.41133 16.9878 2.3999 14.546 2.3999 11.9999C2.3999 9.45382 3.41133 7.01203 5.21168 5.21168C7.01203 3.41133 9.45382 2.3999 11.9999 2.3999C14.546 2.3999 16.9878 3.41133 18.7881 5.21168C20.5885 7.01203 21.5999 9.45382 21.5999 11.9999ZM14.3999 8.3999C14.3999 9.03642 14.147 9.64687 13.697 10.097C13.2469 10.547 12.6364 10.7999 11.9999 10.7999C11.3634 10.7999 10.7529 10.547 10.3028 10.097C9.85276 9.64687 9.5999 9.03642 9.5999 8.3999C9.5999 7.76338 9.85276 7.15293 10.3028 6.70285C10.7529 6.25276 11.3634 5.9999 11.9999 5.9999C12.6364 5.9999 13.2469 6.25276 13.697 6.70285C14.147 7.15293 14.3999 7.76338 14.3999 8.3999ZM11.9999 13.1999C10.851 13.1997 9.72623 13.5293 8.7592 14.1496C7.79217 14.7699 7.02355 15.6548 6.5447 16.6991C7.21991 17.4846 8.05703 18.1148 8.99864 18.5465C9.94024 18.9781 10.9641 19.201 11.9999 19.1999C13.0357 19.201 14.0596 18.9781 15.0012 18.5465C15.9428 18.1148 16.7799 17.4846 17.4551 16.6991C16.9762 15.6548 16.2076 14.7699 15.2406 14.1496C14.2736 13.5293 13.1488 13.1997 11.9999 13.1999Z" fill="#6F6F6D"/>
</svg>
