<svg width="24" height="24" viewBox="0 0 24 24" fill="none" xmlns="http://www.w3.org/2000/svg">
<path d="M9.5999 10.8C10.5547 10.8 11.4704 10.4207 12.1455 9.74556C12.8206 9.07043 13.1999 8.15476 13.1999 7.19998C13.1999 6.2452 12.8206 5.32952 12.1455 4.65439C11.4704 3.97926 10.5547 3.59998 9.5999 3.59998C8.64512 3.59998 7.72945 3.97926 7.05432 4.65439C6.37919 5.32952 5.9999 6.2452 5.9999 7.19998C5.9999 8.15476 6.37919 9.07043 7.05432 9.74556C7.72945 10.4207 8.64512 10.8 9.5999 10.8ZM9.5999 13.2C11.5095 13.2 13.3408 13.9585 14.6911 15.3088C16.0413 16.6591 16.7999 18.4904 16.7999 20.4H2.3999C2.3999 18.4904 3.15847 16.6591 4.50873 15.3088C5.859 13.9585 7.69034 13.2 9.5999 13.2ZM19.1999 8.39998C19.1999 8.08172 19.0735 7.77649 18.8484 7.55145C18.6234 7.3264 18.3182 7.19998 17.9999 7.19998C17.6816 7.19998 17.3764 7.3264 17.1514 7.55145C16.9263 7.77649 16.7999 8.08172 16.7999 8.39998V9.59998H15.5999C15.2816 9.59998 14.9764 9.7264 14.7514 9.95145C14.5263 10.1765 14.3999 10.4817 14.3999 10.8C14.3999 11.1182 14.5263 11.4235 14.7514 11.6485C14.9764 11.8735 15.2816 12 15.5999 12H16.7999V13.2C16.7999 13.5182 16.9263 13.8235 17.1514 14.0485C17.3764 14.2735 17.6816 14.4 17.9999 14.4C18.3182 14.4 18.6234 14.2735 18.8484 14.0485C19.0735 13.8235 19.1999 13.5182 19.1999 13.2V12H20.3999C20.7182 12 21.0234 11.8735 21.2484 11.6485C21.4735 11.4235 21.5999 11.1182 21.5999 10.8C21.5999 10.4817 21.4735 10.1765 21.2484 9.95145C21.0234 9.7264 20.7182 9.59998 20.3999 9.59998H19.1999V8.39998Z" fill="#6F6F6D"/>
</svg>
