<svg width="24" height="24" viewBox="0 0 24 24" fill="none" xmlns="http://www.w3.org/2000/svg">
<path d="M13.1999 7.2001C13.1999 8.15488 12.8206 9.07055 12.1455 9.74568C11.4704 10.4208 10.5547 10.8001 9.5999 10.8001C8.64512 10.8001 7.72945 10.4208 7.05432 9.74568C6.37919 9.07055 5.9999 8.15488 5.9999 7.2001C5.9999 6.24532 6.37919 5.32964 7.05432 4.65451C7.72945 3.97938 8.64512 3.6001 9.5999 3.6001C10.5547 3.6001 11.4704 3.97938 12.1455 4.65451C12.8206 5.32964 13.1999 6.24532 13.1999 7.2001ZM16.7999 20.4001C16.7999 18.4905 16.0413 16.6592 14.6911 15.3089C13.3408 13.9587 11.5095 13.2001 9.5999 13.2001C7.69034 13.2001 5.859 13.9587 4.50873 15.3089C3.15847 16.6592 2.3999 18.4905 2.3999 20.4001H16.7999ZM15.5999 9.6001C15.2816 9.6001 14.9764 9.72653 14.7514 9.95157C14.5263 10.1766 14.3999 10.4818 14.3999 10.8001C14.3999 11.1184 14.5263 11.4236 14.7514 11.6486C14.9764 11.8737 15.2816 12.0001 15.5999 12.0001H20.3999C20.7182 12.0001 21.0234 11.8737 21.2484 11.6486C21.4735 11.4236 21.5999 11.1184 21.5999 10.8001C21.5999 10.4818 21.4735 10.1766 21.2484 9.95157C21.0234 9.72653 20.7182 9.6001 20.3999 9.6001H15.5999Z" fill="#6F6F6D"/>
</svg>
