<svg width="22" height="19" viewBox="0 0 22 19" fill="none" xmlns="http://www.w3.org/2000/svg">
<path d="M14.6 4.19998C14.6 5.15475 14.2207 6.07043 13.5455 6.74556C12.8704 7.42069 11.9547 7.79998 11 7.79998C10.0452 7.79998 9.1295 7.42069 8.45437 6.74556C7.77924 6.07043 7.39995 5.15475 7.39995 4.19998C7.39995 3.2452 7.77924 2.32952 8.45437 1.65439C9.1295 0.97926 10.0452 0.599976 11 0.599976C11.9547 0.599976 12.8704 0.97926 13.5455 1.65439C14.2207 2.32952 14.6 3.2452 14.6 4.19998V4.19998ZM20.5999 6.59998C20.5999 7.23649 20.3471 7.84694 19.897 8.29703C19.4469 8.74712 18.8365 8.99998 18.2 8.99998C17.5634 8.99998 16.953 8.74712 16.5029 8.29703C16.0528 7.84694 15.8 7.23649 15.8 6.59998C15.8 5.96346 16.0528 5.35301 16.5029 4.90292C16.953 4.45283 17.5634 4.19998 18.2 4.19998C18.8365 4.19998 19.4469 4.45283 19.897 4.90292C20.3471 5.35301 20.5999 5.96346 20.5999 6.59998V6.59998ZM15.8 15C15.8 13.7269 15.2942 12.506 14.3941 11.6059C13.4939 10.7057 12.273 10.2 11 10.2C9.72691 10.2 8.50601 10.7057 7.60584 11.6059C6.70566 12.506 6.19995 13.7269 6.19995 15V18.6H15.8V15ZM6.19995 6.59998C6.19995 7.23649 5.9471 7.84694 5.49701 8.29703C5.04692 8.74712 4.43647 8.99998 3.79995 8.99998C3.16343 8.99998 2.55298 8.74712 2.10289 8.29703C1.65281 7.84694 1.39995 7.23649 1.39995 6.59998C1.39995 5.96346 1.65281 5.35301 2.10289 4.90292C2.55298 4.45283 3.16343 4.19998 3.79995 4.19998C4.43647 4.19998 5.04692 4.45283 5.49701 4.90292C5.9471 5.35301 6.19995 5.96346 6.19995 6.59998V6.59998ZM18.2 18.6V15C18.2017 13.7799 17.8919 12.5796 17.3 11.5128C17.832 11.3766 18.3881 11.3638 18.9258 11.4752C19.4635 11.5867 19.9687 11.8195 20.4028 12.1559C20.8368 12.4922 21.1884 12.9233 21.4305 13.4162C21.6726 13.9091 21.799 14.4508 21.7999 15V18.6H18.2ZM4.69995 11.5128C4.10805 12.5796 3.79827 13.7799 3.79995 15V18.6H0.199951V15C0.19972 14.4504 0.325307 13.9081 0.567088 13.4146C0.808868 12.9211 1.16042 12.4895 1.59481 12.1529C2.0292 11.8163 2.53489 11.5835 3.07312 11.4726C3.61136 11.3616 4.16785 11.3754 4.69995 11.5128V11.5128Z" fill="#6F6F6D"/>
</svg>
