<svg width="24" height="24" viewBox="0 0 24 24" fill="none" xmlns="http://www.w3.org/2000/svg">
<path fill-rule="evenodd" clip-rule="evenodd" d="M16.2929 2.29289C16.6834 1.90237 17.3166 1.90237 17.7071 2.29289L21.7071 6.29289C22.0976 6.68342 22.0976 7.31658 21.7071 7.70711C21.3166 8.09763 20.6834 8.09763 20.2929 7.70711L19 6.41421L15.9142 9.5L18.2071 11.7929C18.5976 12.1834 18.5976 12.8166 18.2071 13.2071C17.8166 13.5976 17.1834 13.5976 16.7929 13.2071L16.5 12.9142L10.7071 18.7071C10.5196 18.8946 10.2652 19 10 19H6.41421L3.70711 21.7071C3.31658 22.0976 2.68342 22.0976 2.29289 21.7071C1.90237 21.3166 1.90237 20.6834 2.29289 20.2929L5 17.5858V14C5 13.7348 5.10536 13.4804 5.29289 13.2929L6.08579 12.5L8.29289 14.7071C8.68342 15.0976 9.31658 15.0976 9.70711 14.7071C10.0976 14.3166 10.0976 13.6834 9.70711 13.2929L7.5 11.0858L9.08579 9.5L11.2929 11.7071C11.6834 12.0976 12.3166 12.0976 12.7071 11.7071C13.0976 11.3166 13.0976 10.6834 12.7071 10.2929L10.5 8.08579L11.0858 7.5L10.7929 7.20711C10.4024 6.81658 10.4024 6.18342 10.7929 5.79289C11.1834 5.40237 11.8166 5.40237 12.2071 5.79289L14.5 8.08579L17.5858 5L16.2929 3.70711C15.9024 3.31658 15.9024 2.68342 16.2929 2.29289Z" fill="#6F6F6D"/>
</svg>
