<svg width="294" height="294" viewBox="0 0 294 294" fill="none" xmlns="http://www.w3.org/2000/svg">
<g clip-path="url(#clip0_6880_535116)">
<path d="M146.823 294C227.912 294 293.647 228.186 293.647 147C293.647 65.8141 227.912 0 146.823 0C65.7351 0 0 65.8141 0 147C0 228.186 65.7351 294 146.823 294Z" fill="#E9FAF6"/>
<path d="M3.25747 95.4014C3.17178 94.3572 3.29238 93.3064 3.61238 92.3089C3.93237 91.3114 4.4455 90.3869 5.12244 89.588C5.79939 88.7891 6.6269 88.1315 7.55771 87.6528C8.48851 87.1742 9.50439 86.8838 10.5473 86.7983C14.9344 86.4384 31.3288 93.0992 31.3288 93.0992C31.3288 93.0992 16.2341 102.342 11.8487 102.702C9.74253 102.874 7.65427 102.202 6.04315 100.833C4.43204 99.4637 3.43002 97.51 3.25747 95.4014Z" fill="#A2D8CB"/>
<path d="M10.0372 95.1983C9.94356 95.2021 9.85225 95.1686 9.78333 95.105C9.71442 95.0414 9.67356 94.9531 9.66973 94.8593C9.6659 94.7656 9.69942 94.6742 9.76291 94.6052C9.82641 94.5362 9.91468 94.4953 10.0083 94.4914L87.5872 88.1311C87.6335 88.1273 87.68 88.1326 87.7242 88.1468C87.7684 88.1611 87.8094 88.1838 87.8447 88.2139C87.8801 88.244 87.9093 88.2807 87.9305 88.322C87.9517 88.3634 87.9645 88.4085 87.9683 88.4548C87.9721 88.5011 87.9668 88.5477 87.9526 88.5919C87.9384 88.6362 87.9156 88.6772 87.8856 88.7126C87.8556 88.748 87.8189 88.7772 87.7776 88.7984C87.7363 88.8197 87.6913 88.8325 87.645 88.8363L10.0661 95.1967L10.0372 95.1983Z" fill="#F7F1EB"/>
<path d="M24.068 115.397C22.986 114.03 22.4898 112.289 22.6884 110.556C22.8869 108.823 23.764 107.239 25.1271 106.153C27.9689 103.892 42.2565 100.933 42.2565 100.933C42.2565 100.933 36.1429 114.197 33.3011 116.457C31.9355 117.541 30.1965 118.037 28.4656 117.839C26.7346 117.64 25.1531 116.762 24.068 115.397Z" fill="#A2D8CB"/>
<path d="M28.9541 111.865C28.8806 111.865 28.8087 111.842 28.7487 111.8C28.6886 111.757 28.6433 111.697 28.619 111.628C28.5948 111.558 28.5929 111.483 28.6136 111.412C28.6342 111.341 28.6765 111.279 28.7343 111.233L54.2704 90.9264C54.3067 90.8975 54.3484 90.876 54.393 90.8632C54.4377 90.8505 54.4844 90.8466 54.5305 90.8519C54.5766 90.8572 54.6212 90.8715 54.6618 90.8941C54.7024 90.9167 54.7381 90.947 54.767 90.9834C54.7959 91.0198 54.8173 91.0615 54.8301 91.1062C54.8428 91.1509 54.8467 91.1977 54.8414 91.2438C54.8361 91.29 54.8218 91.3347 54.7992 91.3753C54.7767 91.4159 54.7464 91.4517 54.71 91.4806L29.1788 111.788C29.1153 111.839 29.0358 111.866 28.9541 111.865Z" fill="#F7F1EB"/>
<path d="M40.6198 79.8358C44.0602 81.7524 59.8754 82.3966 59.8754 82.3966C59.8754 82.3966 50.9906 69.2775 47.5502 67.3592C45.9 66.4693 43.9662 66.2656 42.1672 66.7924C40.3681 67.3191 38.8486 68.5338 37.9372 70.1736C37.0259 71.8135 36.7961 73.7467 37.2975 75.5549C37.799 77.3632 38.9913 78.901 40.6166 79.8358H40.6198Z" fill="#A2D8CB"/>
<path d="M72.6642 89.8749C72.6043 89.8746 72.5453 89.8597 72.4925 89.8315L43.9975 73.9539C43.918 73.9067 43.8601 73.8303 43.836 73.741C43.8119 73.6517 43.8236 73.5565 43.8685 73.4757C43.9135 73.3949 43.9882 73.3349 44.0767 73.3084C44.1652 73.2818 44.2606 73.291 44.3425 73.3338L72.8391 89.2114C72.9208 89.2573 72.9811 89.3338 73.0066 89.4241C73.0322 89.5145 73.021 89.6112 72.9755 89.6933C72.9449 89.749 72.8998 89.7953 72.8449 89.8273C72.7901 89.8593 72.7276 89.8757 72.6642 89.8749Z" fill="#F7F1EB"/>
<path d="M59.2317 13.3112C61.7526 18.0972 62.1586 39.8692 62.1586 39.8692C62.1586 39.8692 44.4339 27.2545 41.9082 22.4654C41.3076 21.3261 40.937 20.0796 40.8177 18.7969C40.6983 17.5143 40.8324 16.2206 41.2124 14.9899C41.5923 13.7591 42.2107 12.6153 43.0321 11.6238C43.8536 10.6324 44.8621 9.81257 46 9.21128C47.1379 8.61 48.3829 8.239 49.664 8.11947C50.9452 7.99994 52.2372 8.13422 53.4665 8.51463C54.6958 8.89505 55.8382 9.51415 56.8285 10.3366C57.8188 11.159 58.6376 12.1687 59.2382 13.308L59.2317 13.3112Z" fill="#A2D8CB"/>
<path d="M94.5624 101.683C94.4967 101.685 94.4319 101.668 94.3752 101.635C94.3185 101.602 94.2722 101.553 94.2415 101.495L49.5879 16.7861C49.5625 16.7447 49.5458 16.6985 49.539 16.6505C49.5321 16.6024 49.5352 16.5534 49.548 16.5065C49.5607 16.4597 49.583 16.416 49.6134 16.3781C49.6437 16.3402 49.6815 16.3089 49.7244 16.2862C49.7673 16.2635 49.8144 16.2499 49.8628 16.2462C49.9111 16.2424 49.9597 16.2487 50.0056 16.2645C50.0515 16.2803 50.0936 16.3054 50.1294 16.3382C50.1652 16.371 50.1939 16.4108 50.2137 16.4551L94.8753 101.164C94.8976 101.205 94.9115 101.251 94.9162 101.297C94.9208 101.344 94.9161 101.391 94.9024 101.436C94.8887 101.481 94.8661 101.523 94.8361 101.559C94.8061 101.595 94.7693 101.624 94.7277 101.646C94.6763 101.671 94.6196 101.684 94.5624 101.683Z" fill="#F7F1EB"/>
<path d="M44.4227 39.1583C48.3476 41.2822 58.5916 56.0191 58.5916 56.0191C58.5916 56.0191 40.6646 55.5099 36.7413 53.386C34.8569 52.3662 33.4543 50.6386 32.842 48.5834C32.5389 47.5657 32.4389 46.4982 32.5478 45.4419C32.6567 44.3856 32.9723 43.3611 33.4767 42.4269C33.9811 41.4927 34.6643 40.6671 35.4873 39.9972C36.3104 39.3274 37.2571 38.8264 38.2736 38.5229C40.3263 37.9099 42.5382 38.1385 44.4227 39.1583Z" fill="#A2D8CB"/>
<path d="M75.4883 65.5165C75.4294 65.516 75.3716 65.5011 75.3198 65.4731L40.0597 46.3888C40.0188 46.3668 39.9827 46.3369 39.9533 46.3009C39.924 46.2648 39.902 46.2234 39.8887 46.1788C39.8753 46.1343 39.8709 46.0876 39.8756 46.0413C39.8803 45.9951 39.894 45.9502 39.9161 45.9093C39.9381 45.8683 39.9679 45.8322 40.0039 45.8028C40.0399 45.7734 40.0813 45.7514 40.1258 45.7381C40.1703 45.7247 40.217 45.7203 40.2632 45.725C40.3094 45.7297 40.3542 45.7434 40.3951 45.7655L75.6568 64.8482C75.7253 64.8856 75.7796 64.9445 75.8112 65.0159C75.8429 65.0873 75.8502 65.1672 75.8319 65.2431C75.8136 65.3191 75.7708 65.3869 75.7101 65.436C75.6495 65.4852 75.5743 65.5129 75.4963 65.5149L75.4883 65.5165Z" fill="#F7F1EB"/>
<path d="M81.621 43.9744C81.1188 48.794 88.0396 67.0028 88.0396 67.0028C88.0396 67.0028 98.5563 50.6159 99.0586 45.7962C99.2994 43.4817 98.6121 41.1662 97.1478 39.3591C95.6835 37.5519 93.5622 36.4012 91.2504 36.1601C88.9387 35.9189 86.626 36.607 84.821 38.0731C83.0161 39.5392 81.8667 41.6631 81.6259 43.9776L81.621 43.9744Z" fill="#A2D8CB"/>
<path d="M86.1702 85.2705H86.1333C86.0393 85.2616 85.9526 85.2156 85.8924 85.1427C85.8322 85.0698 85.8035 84.9759 85.8124 84.8818L89.9684 44.9653C89.9732 44.919 89.9871 44.8743 90.0093 44.8334C90.0314 44.7926 90.0613 44.7565 90.0974 44.7273C90.1335 44.698 90.1749 44.6762 90.2194 44.663C90.2639 44.6498 90.3106 44.6455 90.3567 44.6504C90.4029 44.6552 90.4476 44.6691 90.4884 44.6913C90.5292 44.7135 90.5652 44.7434 90.5944 44.7795C90.6236 44.8156 90.6454 44.8572 90.6586 44.9017C90.6718 44.9462 90.6761 44.993 90.6712 45.0392L86.5216 84.9525C86.5129 85.0397 86.4721 85.1205 86.4071 85.1793C86.3422 85.2381 86.2578 85.2706 86.1702 85.2705Z" fill="#F7F1EB"/>
<path d="M245.211 257.913H85.2949C85.2083 257.913 85.1253 257.878 85.0641 257.817C85.0029 257.756 84.9685 257.673 84.9685 257.586V136.226C84.9683 136.183 84.9766 136.14 84.9929 136.1C85.0093 136.06 85.0333 136.024 85.0636 135.994C85.0939 135.963 85.1299 135.939 85.1696 135.922C85.2093 135.906 85.2519 135.897 85.2949 135.897H245.211C245.254 135.897 245.297 135.906 245.336 135.922C245.376 135.939 245.412 135.963 245.442 135.994C245.473 136.024 245.497 136.06 245.513 136.1C245.529 136.14 245.538 136.183 245.537 136.226V257.586C245.537 257.673 245.503 257.756 245.442 257.817C245.381 257.878 245.298 257.913 245.211 257.913ZM85.6168 257.258H244.883V136.552H85.6168V257.258Z" fill="#1DC49D"/>
<path d="M240.194 242.831V141.25H90.3077V242.831H240.194Z" fill="#A2D8CB"/>
<path d="M233.234 185.022V153.247H97.265V185.022H233.234Z" fill="#CFF4EB"/>
<path d="M203.05 169.5C203.05 175.821 208.179 180.95 214.5 180.95C220.821 180.95 225.95 175.821 225.95 169.5C225.95 163.179 220.821 158.05 214.5 158.05C208.179 158.05 203.05 163.179 203.05 169.5Z" fill="#009B7C" stroke="white" stroke-width="0.1"/>
<path d="M214.5 174.428C211.778 174.428 209.571 172.221 209.571 169.499C209.571 166.777 211.778 164.571 214.5 164.571C217.222 164.571 219.428 166.777 219.428 169.499C219.428 172.221 217.222 174.428 214.5 174.428Z" fill="#F89D26"/>
<path d="M168.23 250.109C168.496 248.466 167.382 246.918 165.741 246.652C164.1 246.385 162.554 247.501 162.288 249.144C162.021 250.786 163.136 252.334 164.776 252.601C166.417 252.868 167.963 251.752 168.23 250.109Z" fill="#F89D26"/>
<path d="M232.649 273.776H83.9659C80.5502 273.772 77.2755 272.412 74.8594 269.995C72.4433 267.577 71.0828 264.3 71.0762 260.88C71.0762 260.793 71.1107 260.709 71.1722 260.648C71.2337 260.586 71.3171 260.552 71.404 260.552H245.211C245.254 260.552 245.297 260.56 245.337 260.577C245.376 260.593 245.412 260.617 245.443 260.648C245.473 260.678 245.497 260.715 245.513 260.754C245.53 260.794 245.538 260.837 245.538 260.88C245.531 264.3 244.171 267.577 241.755 269.994C239.339 272.412 236.065 273.772 232.649 273.776ZM71.7348 261.199C71.824 264.389 73.1513 267.418 75.4349 269.644C77.7185 271.87 80.7787 273.118 83.9659 273.121H232.649C235.836 273.118 238.896 271.87 241.18 269.644C243.463 267.418 244.79 264.389 244.879 261.199H71.7348Z" fill="#1DC49D"/>
<path d="M203.117 272.477C203.072 272.48 203.027 272.474 202.985 272.459C202.943 272.443 202.904 272.42 202.871 272.389C202.838 272.358 202.812 272.321 202.794 272.28C202.777 272.239 202.767 272.194 202.767 272.149C202.767 272.104 202.777 272.06 202.794 272.019C202.812 271.977 202.838 271.94 202.871 271.91C202.904 271.879 202.943 271.855 202.985 271.84C203.027 271.825 203.072 271.819 203.117 271.822C205.671 271.819 208.119 270.802 209.925 268.994C211.731 267.186 212.747 264.735 212.749 262.178C212.755 262.095 212.792 262.017 212.853 261.961C212.913 261.904 212.993 261.872 213.076 261.872C213.16 261.872 213.24 261.904 213.3 261.961C213.361 262.017 213.398 262.095 213.404 262.178C213.4 264.909 212.316 267.526 210.387 269.457C208.459 271.388 205.844 272.474 203.117 272.477Z" fill="#1DC49D"/>
<path d="M144.499 263.852C144.499 265.27 143.937 266.63 142.935 267.633C141.934 268.636 140.575 269.199 139.159 269.199H120.367C118.95 269.199 117.592 268.636 116.59 267.633C115.589 266.63 115.026 265.27 115.026 263.852H144.499Z" fill="#A2D8CB"/>
<path d="M165.802 121.768L158.672 135.717L40.3845 121.768L103.094 72.1782L165.802 121.768Z" fill="#F89D26"/>
<path d="M165.802 122.038H40.3845V214.845H165.802V122.038Z" fill="#F89D26"/>
<path d="M165.802 122.038H40.3845L103.094 190.035L165.802 122.038Z" fill="#9E6C5A"/>
<path d="M150.373 138.77V94.3711L133.521 83.1377L122.19 66.2656H55.8149V138.77L103.094 191.523L150.373 138.77Z" fill="white"/>
<path d="M137.074 101.6H103.642C103.584 101.596 103.529 101.57 103.488 101.526C103.448 101.483 103.426 101.427 103.426 101.368C103.426 101.309 103.448 101.252 103.488 101.209C103.529 101.166 103.584 101.14 103.642 101.136H137.074C137.106 101.134 137.137 101.138 137.167 101.149C137.197 101.159 137.225 101.176 137.248 101.198C137.271 101.22 137.29 101.246 137.303 101.275C137.315 101.304 137.322 101.336 137.322 101.368C137.322 101.4 137.315 101.431 137.303 101.46C137.29 101.489 137.271 101.516 137.248 101.538C137.225 101.559 137.197 101.576 137.167 101.587C137.137 101.597 137.106 101.602 137.074 101.6Z" fill="#1DC49D"/>
<path d="M96.3514 101.6H77.1926C77.1609 101.602 77.129 101.597 77.0991 101.587C77.0691 101.576 77.0417 101.559 77.0184 101.538C76.9952 101.516 76.9767 101.489 76.964 101.46C76.9514 101.431 76.9448 101.4 76.9448 101.368C76.9448 101.336 76.9514 101.304 76.964 101.275C76.9767 101.246 76.9952 101.22 77.0184 101.198C77.0417 101.176 77.0691 101.159 77.0991 101.149C77.129 101.138 77.1609 101.134 77.1926 101.136H96.3514C96.4102 101.14 96.4652 101.166 96.5054 101.209C96.5456 101.252 96.568 101.309 96.568 101.368C96.568 101.427 96.5456 101.483 96.5054 101.526C96.4652 101.57 96.4102 101.596 96.3514 101.6Z" fill="#1DC49D"/>
<path d="M137.074 114.977H120.271C120.239 114.979 120.208 114.975 120.178 114.964C120.148 114.953 120.12 114.937 120.097 114.915C120.074 114.893 120.055 114.867 120.043 114.838C120.03 114.809 120.023 114.777 120.023 114.745C120.023 114.713 120.03 114.682 120.043 114.653C120.055 114.623 120.074 114.597 120.097 114.575C120.12 114.554 120.148 114.537 120.178 114.526C120.208 114.515 120.239 114.511 120.271 114.513H137.074C137.105 114.511 137.137 114.515 137.167 114.526C137.197 114.537 137.225 114.554 137.248 114.575C137.271 114.597 137.29 114.623 137.302 114.653C137.315 114.682 137.321 114.713 137.321 114.745C137.321 114.777 137.315 114.809 137.302 114.838C137.29 114.867 137.271 114.893 137.248 114.915C137.225 114.937 137.197 114.953 137.167 114.964C137.137 114.975 137.105 114.979 137.074 114.977Z" fill="#1DC49D"/>
<path d="M112.98 114.977H77.1926C77.1609 114.979 77.129 114.975 77.0991 114.964C77.0691 114.953 77.0417 114.937 77.0184 114.915C76.9952 114.893 76.9767 114.867 76.964 114.838C76.9514 114.809 76.9448 114.777 76.9448 114.745C76.9448 114.713 76.9514 114.682 76.964 114.653C76.9767 114.623 76.9952 114.597 77.0184 114.575C77.0417 114.554 77.0691 114.537 77.0991 114.526C77.129 114.515 77.1609 114.511 77.1926 114.513H112.98C113.038 114.517 113.093 114.543 113.133 114.586C113.174 114.629 113.196 114.686 113.196 114.745C113.196 114.804 113.174 114.861 113.133 114.904C113.093 114.947 113.038 114.973 112.98 114.977Z" fill="#1DC49D"/>
<path d="M126.137 128.355H77.1926C77.1609 128.357 77.129 128.352 77.0991 128.342C77.0691 128.331 77.0417 128.314 77.0184 128.292C76.9952 128.271 76.9767 128.244 76.964 128.215C76.9514 128.186 76.9448 128.154 76.9448 128.123C76.9448 128.091 76.9514 128.059 76.964 128.03C76.9767 128.001 76.9952 127.975 77.0184 127.953C77.0417 127.931 77.0691 127.914 77.0991 127.904C77.129 127.893 77.1609 127.889 77.1926 127.891H126.137C126.168 127.889 126.2 127.893 126.23 127.904C126.26 127.914 126.287 127.931 126.311 127.953C126.334 127.975 126.352 128.001 126.365 128.03C126.378 128.059 126.384 128.091 126.384 128.123C126.384 128.154 126.378 128.186 126.365 128.215C126.352 128.244 126.334 128.271 126.311 128.292C126.287 128.314 126.26 128.331 126.23 128.342C126.2 128.352 126.168 128.357 126.137 128.355Z" fill="#1DC49D"/>
<path d="M122.19 94.3701H150.296L122.19 66.231V94.3701Z" fill="#A2D8CB"/>
<path d="M165.802 214.846H40.3845L103.094 146.849L165.802 214.846Z" fill="#F89D26"/>
<path d="M47.7835 207.055C47.725 207.056 47.6686 207.033 47.6259 206.993C47.6036 206.973 47.5856 206.948 47.5729 206.92C47.5602 206.893 47.5531 206.863 47.5519 206.832C47.5508 206.802 47.5556 206.772 47.5661 206.743C47.5766 206.715 47.5927 206.689 47.6133 206.666L102.924 146.692C102.946 146.669 102.972 146.651 103.001 146.639C103.031 146.626 103.062 146.62 103.094 146.62C103.126 146.62 103.157 146.626 103.186 146.639C103.215 146.651 103.242 146.669 103.264 146.692L141.984 188.674C142.026 188.719 142.048 188.779 142.046 188.841C142.043 188.902 142.017 188.96 141.971 189.002C141.926 189.044 141.866 189.066 141.805 189.064C141.743 189.061 141.685 189.035 141.644 188.99L103.089 147.187L47.9537 206.981C47.932 207.004 47.9057 207.023 47.8764 207.036C47.8471 207.049 47.8155 207.055 47.7835 207.055Z" fill="white"/>
<path d="M201.068 125.999C177.488 125.999 158.308 106.791 158.308 83.187C158.308 59.583 177.49 40.375 201.068 40.375C224.646 40.375 243.829 59.5806 243.829 83.187C243.829 106.793 224.649 125.999 201.068 125.999ZM201.068 41.4226C178.068 41.4226 159.359 60.1546 159.359 83.1823C159.359 106.21 178.068 124.944 201.068 124.944C224.068 124.944 242.78 106.205 242.78 83.1823C242.78 60.1594 224.075 41.4226 201.068 41.4226Z" fill="#363E44"/>
<path d="M214.866 113.635C212.861 113.638 210.924 112.91 209.417 111.585L182.946 88.3854L193.859 75.9102L220.327 99.11C221.594 100.221 222.493 101.693 222.902 103.329C223.312 104.965 223.213 106.687 222.62 108.266C222.027 109.844 220.966 111.204 219.581 112.163C218.196 113.122 216.551 113.636 214.866 113.635ZM184.435 88.2826L210.11 110.794C210.821 111.438 211.653 111.935 212.558 112.254C213.463 112.573 214.422 112.709 215.379 112.653C216.337 112.598 217.274 112.352 218.136 111.93C218.998 111.508 219.767 110.919 220.399 110.197C221.031 109.474 221.513 108.633 221.817 107.722C222.121 106.811 222.241 105.849 222.17 104.891C222.099 103.933 221.838 102.999 221.403 102.144C220.967 101.288 220.366 100.527 219.634 99.9064L193.957 77.3954L184.435 88.2826Z" fill="#363E44"/>
<path d="M242.766 63.9671C240.107 63.9694 237.497 63.2596 235.204 61.9115C232.912 60.5634 231.022 58.6259 229.729 56.2999C228.437 53.974 227.789 51.3443 227.854 48.6833C227.918 46.0224 228.692 43.4272 230.096 41.1667C231.499 38.9062 233.481 37.0628 235.836 35.8275C238.191 34.5921 240.833 34.0099 243.488 34.1412C246.144 34.2725 248.715 35.1124 250.937 36.574C253.159 38.0356 254.95 40.0655 256.124 42.4535C257.24 44.7278 257.759 47.2489 257.633 49.7796C257.507 52.3102 256.74 54.7671 255.404 56.919C254.067 59.0708 252.206 60.8469 249.995 62.0799C247.785 63.3129 245.297 63.9624 242.766 63.9671ZM242.73 35.1682C239.72 35.1724 236.793 36.1579 234.392 37.9758C231.991 39.7936 230.247 42.3448 229.423 45.2435C228.599 48.1422 228.74 51.2307 229.826 54.0418C230.911 56.8529 232.881 59.2337 235.438 60.8239C237.995 62.4142 241 63.1275 243.998 62.8559C246.996 62.5843 249.824 61.3426 252.054 59.3186C254.284 57.2947 255.796 54.5985 256.359 51.6381C256.923 48.6776 256.509 45.6138 255.178 42.9103C254.042 40.577 252.271 38.6125 250.069 37.2428C247.867 35.8731 245.323 35.154 242.73 35.1682Z" fill="#363E44"/>
<path d="M186.513 61.8951L198.249 85.779L257.328 78.4746L228.179 19.1572L186.513 61.8951Z" fill="#009B7C"/>
<path d="M186.525 62.1383L171.187 69.6948L182.894 93.5155L198.232 85.959L186.525 62.1383Z" fill="#A2D8CB"/>
<path d="M182.271 85.8761C182.151 85.8771 182.035 85.8375 181.941 85.7637C181.847 85.69 181.78 85.5865 181.753 85.4702C181.725 85.3539 181.737 85.2316 181.788 85.1232C181.839 85.0149 181.925 84.927 182.032 84.8739L190.565 80.6692C190.691 80.6058 190.838 80.5954 190.973 80.6402C191.107 80.6851 191.218 80.7816 191.281 80.9084C191.345 81.0353 191.355 81.1822 191.31 81.3167C191.266 81.4513 191.169 81.5625 191.042 81.6259L182.51 85.8211C182.435 85.8577 182.353 85.8766 182.271 85.8761Z" fill="#363E44"/>
<path d="M179.774 80.8037C179.655 80.8047 179.538 80.7651 179.444 80.6913C179.35 80.6176 179.284 80.5141 179.256 80.3978C179.228 80.2815 179.241 80.1592 179.292 80.0508C179.342 79.9425 179.428 79.8546 179.535 79.8015L188.075 75.5897C188.202 75.5262 188.349 75.5158 188.483 75.5606C188.618 75.6055 188.729 75.702 188.792 75.8288C188.855 75.9557 188.866 76.1026 188.821 76.2371C188.776 76.3717 188.68 76.4829 188.553 76.5464L180.018 80.751C179.942 80.7876 179.858 80.8057 179.774 80.8037Z" fill="#363E44"/>
<path d="M177.282 75.7301C177.163 75.7324 177.046 75.6936 176.951 75.6202C176.856 75.5468 176.789 75.4431 176.761 75.3265C176.733 75.2098 176.746 75.087 176.797 74.9786C176.849 74.8702 176.936 74.7826 177.043 74.7304L185.579 70.5257C185.706 70.4623 185.852 70.4518 185.987 70.4967C186.053 70.5189 186.115 70.554 186.168 70.6C186.221 70.646 186.264 70.7021 186.295 70.7649C186.327 70.8277 186.346 70.8961 186.351 70.9661C186.356 71.0362 186.347 71.1065 186.324 71.1732C186.302 71.2398 186.267 71.3014 186.221 71.3545C186.175 71.4075 186.119 71.451 186.057 71.4824L177.521 75.6871C177.446 75.7197 177.364 75.7345 177.282 75.7301Z" fill="#363E44"/>
<path d="M252.548 35.0182C252.499 35.0181 252.45 35.0108 252.403 34.9967C252.269 34.9578 252.155 34.8672 252.088 34.7448C252.02 34.6224 252.004 34.4782 252.042 34.3437L254.35 26.3386L259.892 29.6033L264.447 21.8421C264.523 21.7309 264.637 21.6527 264.768 21.6232C264.899 21.5938 265.037 21.6153 265.152 21.6836C265.268 21.7518 265.353 21.8616 265.391 21.9906C265.429 22.1195 265.416 22.258 265.355 22.3779L260.257 31.0479L254.976 27.9387L253.045 34.6355C253.014 34.7441 252.949 34.8398 252.86 34.9087C252.77 34.9776 252.661 35.0159 252.548 35.0182Z" fill="#363E44"/>
<path d="M266.251 49.74L265.489 45.0881L260.049 46.1213C259.981 46.1342 259.912 46.1336 259.844 46.1194C259.776 46.1053 259.712 46.078 259.655 46.039C259.598 46 259.549 45.9502 259.511 45.8923C259.473 45.8344 259.447 45.7696 259.434 45.7016C259.421 45.6336 259.422 45.5637 259.436 45.496C259.45 45.4282 259.478 45.3639 259.516 45.3067C259.555 45.2495 259.605 45.2006 259.663 45.1626C259.721 45.1247 259.786 45.0986 259.854 45.0857L266.358 43.8516L267.094 48.3456L274.569 45.8319C274.635 45.808 274.705 45.7975 274.775 45.8011C274.845 45.8047 274.913 45.8222 274.976 45.8527C275.04 45.8832 275.096 45.926 275.142 45.9786C275.189 46.0312 275.224 46.0926 275.246 46.1591C275.269 46.2256 275.277 46.2959 275.272 46.3659C275.267 46.4359 275.248 46.5041 275.216 46.5665C275.184 46.629 275.14 46.6844 275.086 46.7295C275.032 46.7746 274.97 46.8085 274.903 46.8293L266.251 49.74Z" fill="#363E44"/>
<path d="M268.248 38.9814L265.276 35.047L261.984 37.489C261.929 37.5301 261.866 37.5599 261.799 37.5767C261.732 37.5934 261.662 37.5967 261.594 37.5865C261.526 37.5763 261.46 37.5527 261.401 37.5171C261.341 37.4815 261.29 37.4345 261.249 37.379C261.208 37.3234 261.178 37.2602 261.161 37.1931C261.144 37.126 261.141 37.0563 261.151 36.9878C261.161 36.9194 261.185 36.8537 261.221 36.7944C261.256 36.7351 261.303 36.6835 261.359 36.6423L265.489 33.5761L268.387 37.4029L273.58 32.5716C273.682 32.4764 273.818 32.4259 273.958 32.431C274.097 32.4362 274.229 32.4966 274.324 32.5991C274.419 32.7015 274.47 32.8376 274.465 32.9773C274.459 33.117 274.399 33.2489 274.297 33.3441L268.248 38.9814Z" fill="#363E44"/>
</g>
<defs>
<clipPath id="clip0_6880_535116">
<rect width="294" height="294" fill="white"/>
</clipPath>
</defs>
</svg>
