<svg width="24" height="24" viewBox="0 0 24 24" fill="none" xmlns="http://www.w3.org/2000/svg">
<mask id="path-1-outside-1_6880_535814" maskUnits="userSpaceOnUse" x="1" y="1" width="22" height="22" fill="black">
<rect fill="white" x="1" y="1" width="22" height="22"/>
<path fill-rule="evenodd" clip-rule="evenodd" d="M10.937 2.0086C10.8583 2.0222 10.744 2.0662 10.683 2.10634C10.6221 2.14644 10.1189 2.58738 9.56479 3.08615C9.01072 3.58492 8.54347 3.9979 8.5264 4.00384C8.50932 4.00977 8.05712 3.62341 7.52149 3.1452C6.98583 2.667 6.49451 2.23412 6.42965 2.18324C6.24811 2.04084 5.98397 1.98242 5.78836 2.04139C5.59139 2.10076 5.36203 2.29746 5.29138 2.46762C5.24774 2.57271 5.23859 3.7506 5.23859 9.2583V15.9219L3.86123 15.9335C2.49204 15.9452 2.48313 15.9458 2.3568 16.0365C2.2869 16.0866 2.1814 16.1914 2.12236 16.2692L2.01499 16.4108L2.00361 17.5993C1.99361 18.6445 2.00123 18.8322 2.06695 19.1558C2.21684 19.8941 2.55479 20.5033 3.10179 21.0213C3.59979 21.4929 4.15675 21.7889 4.80878 21.9288C5.12219 21.996 5.52704 22 11.9984 22C18.4698 22 18.8746 21.996 19.188 21.9288C19.84 21.7889 20.397 21.4929 20.895 21.0213C21.4377 20.5073 21.7786 19.8961 21.9276 19.1699C21.9971 18.8309 22.0003 18.4616 22 10.7162C21.9996 2.94284 21.9967 2.61054 21.9279 2.45807C21.7346 2.02975 21.2122 1.88786 20.8403 2.16264C20.759 2.22276 20.2528 2.66361 19.7155 3.14221C19.1783 3.62085 18.7297 4.01253 18.7187 4.01256C18.7077 4.01264 18.225 3.58669 17.646 3.06598C17.0671 2.54531 16.5431 2.09313 16.4816 2.06117C16.3329 1.98379 16.0233 1.98489 15.8609 2.06333C15.7889 2.09816 15.2584 2.55101 14.682 3.06968C14.1057 3.58834 13.6256 4.01268 13.6153 4.01268C13.6049 4.01268 13.1324 3.59487 12.5653 3.08422C11.9981 2.57358 11.5002 2.13186 11.4587 2.10265C11.3482 2.0248 11.1009 1.98021 10.937 2.0086ZM12.1291 4.68264C12.7061 5.20177 13.2332 5.65521 13.3005 5.6902C13.4556 5.77092 13.7819 5.77222 13.9346 5.69272C13.9993 5.6591 14.5011 5.22752 15.0497 4.73367C15.5984 4.23981 16.0759 3.81244 16.1107 3.78394C16.1662 3.73865 16.3043 3.8496 17.2122 4.66856C17.7831 5.18361 18.315 5.63936 18.3941 5.68136C18.4766 5.72519 18.6152 5.75775 18.7191 5.75775C18.824 5.75775 18.9598 5.72555 19.0415 5.68136C19.1192 5.63936 19.4785 5.34119 19.8399 5.01871L20.497 4.43243L20.5072 11.5649C20.5142 16.4511 20.5044 18.7608 20.4762 18.8987C20.2678 19.9168 19.2453 20.6339 18.2122 20.4865C17.3637 20.3654 16.6266 19.6403 16.4937 18.7957C16.4715 18.6551 16.4533 18.0813 16.4532 17.5205C16.4528 16.3538 16.434 16.268 16.1325 16.0578L15.9711 15.9453L11.3473 15.935L6.72341 15.9247V10.1826C6.72341 6.43403 6.73673 4.44882 6.76178 4.46439C6.78288 4.47752 7.06862 4.7282 7.39673 5.02151C8.16332 5.70667 8.23233 5.75291 8.49182 5.75562C8.61197 5.75684 8.75318 5.72944 8.8334 5.68934C8.90862 5.65171 9.43612 5.19804 10.0056 4.68122C10.5751 4.16437 11.0499 3.74085 11.0606 3.7401C11.0714 3.73931 11.5522 4.16346 12.1291 4.68264ZM9.29244 8.69406C8.78968 8.96114 8.79679 9.72931 9.30444 9.9899C9.45003 10.0646 9.54424 10.0674 11.925 10.0674H14.3946L14.5547 9.97299C14.9466 9.74193 15.0269 9.21049 14.7228 8.86191C14.4977 8.60387 14.5966 8.61252 11.8922 8.61445C9.52408 8.61614 9.43397 8.61889 9.29244 8.69406ZM9.48063 12.0769C8.82594 12.2336 8.71341 13.1523 9.31311 13.4444L9.48543 13.5283L13.6884 13.518L17.8913 13.5076L18.0415 13.3855C18.2545 13.2123 18.3344 13.0557 18.3367 12.8076C18.3387 12.5785 18.2951 12.4659 18.138 12.2951C17.8992 12.0355 18.2201 12.0536 13.7177 12.0465C11.293 12.0427 9.57194 12.055 9.48063 12.0769ZM14.9684 17.8619C14.9693 19.0542 15.1345 19.745 15.5847 20.4385L15.643 20.5283L10.392 20.5165C5.43045 20.5053 5.12922 20.5007 4.92885 20.4329C4.23709 20.1989 3.71533 19.6479 3.53844 18.9646C3.49808 18.8088 3.48026 18.5375 3.48026 18.0797V17.4196H9.22414H14.968L14.9684 17.8619Z"/>
</mask>
<path fill-rule="evenodd" clip-rule="evenodd" d="M10.937 2.0086C10.8583 2.0222 10.744 2.0662 10.683 2.10634C10.6221 2.14644 10.1189 2.58738 9.56479 3.08615C9.01072 3.58492 8.54347 3.9979 8.5264 4.00384C8.50932 4.00977 8.05712 3.62341 7.52149 3.1452C6.98583 2.667 6.49451 2.23412 6.42965 2.18324C6.24811 2.04084 5.98397 1.98242 5.78836 2.04139C5.59139 2.10076 5.36203 2.29746 5.29138 2.46762C5.24774 2.57271 5.23859 3.7506 5.23859 9.2583V15.9219L3.86123 15.9335C2.49204 15.9452 2.48313 15.9458 2.3568 16.0365C2.2869 16.0866 2.1814 16.1914 2.12236 16.2692L2.01499 16.4108L2.00361 17.5993C1.99361 18.6445 2.00123 18.8322 2.06695 19.1558C2.21684 19.8941 2.55479 20.5033 3.10179 21.0213C3.59979 21.4929 4.15675 21.7889 4.80878 21.9288C5.12219 21.996 5.52704 22 11.9984 22C18.4698 22 18.8746 21.996 19.188 21.9288C19.84 21.7889 20.397 21.4929 20.895 21.0213C21.4377 20.5073 21.7786 19.8961 21.9276 19.1699C21.9971 18.8309 22.0003 18.4616 22 10.7162C21.9996 2.94284 21.9967 2.61054 21.9279 2.45807C21.7346 2.02975 21.2122 1.88786 20.8403 2.16264C20.759 2.22276 20.2528 2.66361 19.7155 3.14221C19.1783 3.62085 18.7297 4.01253 18.7187 4.01256C18.7077 4.01264 18.225 3.58669 17.646 3.06598C17.0671 2.54531 16.5431 2.09313 16.4816 2.06117C16.3329 1.98379 16.0233 1.98489 15.8609 2.06333C15.7889 2.09816 15.2584 2.55101 14.682 3.06968C14.1057 3.58834 13.6256 4.01268 13.6153 4.01268C13.6049 4.01268 13.1324 3.59487 12.5653 3.08422C11.9981 2.57358 11.5002 2.13186 11.4587 2.10265C11.3482 2.0248 11.1009 1.98021 10.937 2.0086ZM12.1291 4.68264C12.7061 5.20177 13.2332 5.65521 13.3005 5.6902C13.4556 5.77092 13.7819 5.77222 13.9346 5.69272C13.9993 5.6591 14.5011 5.22752 15.0497 4.73367C15.5984 4.23981 16.0759 3.81244 16.1107 3.78394C16.1662 3.73865 16.3043 3.8496 17.2122 4.66856C17.7831 5.18361 18.315 5.63936 18.3941 5.68136C18.4766 5.72519 18.6152 5.75775 18.7191 5.75775C18.824 5.75775 18.9598 5.72555 19.0415 5.68136C19.1192 5.63936 19.4785 5.34119 19.8399 5.01871L20.497 4.43243L20.5072 11.5649C20.5142 16.4511 20.5044 18.7608 20.4762 18.8987C20.2678 19.9168 19.2453 20.6339 18.2122 20.4865C17.3637 20.3654 16.6266 19.6403 16.4937 18.7957C16.4715 18.6551 16.4533 18.0813 16.4532 17.5205C16.4528 16.3538 16.434 16.268 16.1325 16.0578L15.9711 15.9453L11.3473 15.935L6.72341 15.9247V10.1826C6.72341 6.43403 6.73673 4.44882 6.76178 4.46439C6.78288 4.47752 7.06862 4.7282 7.39673 5.02151C8.16332 5.70667 8.23233 5.75291 8.49182 5.75562C8.61197 5.75684 8.75318 5.72944 8.8334 5.68934C8.90862 5.65171 9.43612 5.19804 10.0056 4.68122C10.5751 4.16437 11.0499 3.74085 11.0606 3.7401C11.0714 3.73931 11.5522 4.16346 12.1291 4.68264ZM9.29244 8.69406C8.78968 8.96114 8.79679 9.72931 9.30444 9.9899C9.45003 10.0646 9.54424 10.0674 11.925 10.0674H14.3946L14.5547 9.97299C14.9466 9.74193 15.0269 9.21049 14.7228 8.86191C14.4977 8.60387 14.5966 8.61252 11.8922 8.61445C9.52408 8.61614 9.43397 8.61889 9.29244 8.69406ZM9.48063 12.0769C8.82594 12.2336 8.71341 13.1523 9.31311 13.4444L9.48543 13.5283L13.6884 13.518L17.8913 13.5076L18.0415 13.3855C18.2545 13.2123 18.3344 13.0557 18.3367 12.8076C18.3387 12.5785 18.2951 12.4659 18.138 12.2951C17.8992 12.0355 18.2201 12.0536 13.7177 12.0465C11.293 12.0427 9.57194 12.055 9.48063 12.0769ZM14.9684 17.8619C14.9693 19.0542 15.1345 19.745 15.5847 20.4385L15.643 20.5283L10.392 20.5165C5.43045 20.5053 5.12922 20.5007 4.92885 20.4329C4.23709 20.1989 3.71533 19.6479 3.53844 18.9646C3.49808 18.8088 3.48026 18.5375 3.48026 18.0797V17.4196H9.22414H14.968L14.9684 17.8619Z" fill="#6F6F6D"/>
<path fill-rule="evenodd" clip-rule="evenodd" d="M10.937 2.0086C10.8583 2.0222 10.744 2.0662 10.683 2.10634C10.6221 2.14644 10.1189 2.58738 9.56479 3.08615C9.01072 3.58492 8.54347 3.9979 8.5264 4.00384C8.50932 4.00977 8.05712 3.62341 7.52149 3.1452C6.98583 2.667 6.49451 2.23412 6.42965 2.18324C6.24811 2.04084 5.98397 1.98242 5.78836 2.04139C5.59139 2.10076 5.36203 2.29746 5.29138 2.46762C5.24774 2.57271 5.23859 3.7506 5.23859 9.2583V15.9219L3.86123 15.9335C2.49204 15.9452 2.48313 15.9458 2.3568 16.0365C2.2869 16.0866 2.1814 16.1914 2.12236 16.2692L2.01499 16.4108L2.00361 17.5993C1.99361 18.6445 2.00123 18.8322 2.06695 19.1558C2.21684 19.8941 2.55479 20.5033 3.10179 21.0213C3.59979 21.4929 4.15675 21.7889 4.80878 21.9288C5.12219 21.996 5.52704 22 11.9984 22C18.4698 22 18.8746 21.996 19.188 21.9288C19.84 21.7889 20.397 21.4929 20.895 21.0213C21.4377 20.5073 21.7786 19.8961 21.9276 19.1699C21.9971 18.8309 22.0003 18.4616 22 10.7162C21.9996 2.94284 21.9967 2.61054 21.9279 2.45807C21.7346 2.02975 21.2122 1.88786 20.8403 2.16264C20.759 2.22276 20.2528 2.66361 19.7155 3.14221C19.1783 3.62085 18.7297 4.01253 18.7187 4.01256C18.7077 4.01264 18.225 3.58669 17.646 3.06598C17.0671 2.54531 16.5431 2.09313 16.4816 2.06117C16.3329 1.98379 16.0233 1.98489 15.8609 2.06333C15.7889 2.09816 15.2584 2.55101 14.682 3.06968C14.1057 3.58834 13.6256 4.01268 13.6153 4.01268C13.6049 4.01268 13.1324 3.59487 12.5653 3.08422C11.9981 2.57358 11.5002 2.13186 11.4587 2.10265C11.3482 2.0248 11.1009 1.98021 10.937 2.0086ZM12.1291 4.68264C12.7061 5.20177 13.2332 5.65521 13.3005 5.6902C13.4556 5.77092 13.7819 5.77222 13.9346 5.69272C13.9993 5.6591 14.5011 5.22752 15.0497 4.73367C15.5984 4.23981 16.0759 3.81244 16.1107 3.78394C16.1662 3.73865 16.3043 3.8496 17.2122 4.66856C17.7831 5.18361 18.315 5.63936 18.3941 5.68136C18.4766 5.72519 18.6152 5.75775 18.7191 5.75775C18.824 5.75775 18.9598 5.72555 19.0415 5.68136C19.1192 5.63936 19.4785 5.34119 19.8399 5.01871L20.497 4.43243L20.5072 11.5649C20.5142 16.4511 20.5044 18.7608 20.4762 18.8987C20.2678 19.9168 19.2453 20.6339 18.2122 20.4865C17.3637 20.3654 16.6266 19.6403 16.4937 18.7957C16.4715 18.6551 16.4533 18.0813 16.4532 17.5205C16.4528 16.3538 16.434 16.268 16.1325 16.0578L15.9711 15.9453L11.3473 15.935L6.72341 15.9247V10.1826C6.72341 6.43403 6.73673 4.44882 6.76178 4.46439C6.78288 4.47752 7.06862 4.7282 7.39673 5.02151C8.16332 5.70667 8.23233 5.75291 8.49182 5.75562C8.61197 5.75684 8.75318 5.72944 8.8334 5.68934C8.90862 5.65171 9.43612 5.19804 10.0056 4.68122C10.5751 4.16437 11.0499 3.74085 11.0606 3.7401C11.0714 3.73931 11.5522 4.16346 12.1291 4.68264ZM9.29244 8.69406C8.78968 8.96114 8.79679 9.72931 9.30444 9.9899C9.45003 10.0646 9.54424 10.0674 11.925 10.0674H14.3946L14.5547 9.97299C14.9466 9.74193 15.0269 9.21049 14.7228 8.86191C14.4977 8.60387 14.5966 8.61252 11.8922 8.61445C9.52408 8.61614 9.43397 8.61889 9.29244 8.69406ZM9.48063 12.0769C8.82594 12.2336 8.71341 13.1523 9.31311 13.4444L9.48543 13.5283L13.6884 13.518L17.8913 13.5076L18.0415 13.3855C18.2545 13.2123 18.3344 13.0557 18.3367 12.8076C18.3387 12.5785 18.2951 12.4659 18.138 12.2951C17.8992 12.0355 18.2201 12.0536 13.7177 12.0465C11.293 12.0427 9.57194 12.055 9.48063 12.0769ZM14.9684 17.8619C14.9693 19.0542 15.1345 19.745 15.5847 20.4385L15.643 20.5283L10.392 20.5165C5.43045 20.5053 5.12922 20.5007 4.92885 20.4329C4.23709 20.1989 3.71533 19.6479 3.53844 18.9646C3.49808 18.8088 3.48026 18.5375 3.48026 18.0797V17.4196H9.22414H14.968L14.9684 17.8619Z" stroke="#6F6F6D" stroke-width="0.4" mask="url(#path-1-outside-1_6880_535814)"/>
</svg>
