<svg width="24" height="24" viewBox="0 0 24 24" fill="none" xmlns="http://www.w3.org/2000/svg">
<path d="M17.6799 1.94519H6.32014C5.31901 1.94519 4.46875 2.75263 4.46875 3.79658V20.5939C4.4717 21.9189 6.09011 22.5407 7.01021 21.6105L11.3402 17.2817C11.6872 16.9197 12.3128 16.9197 12.6598 17.2817L16.9898 21.6105C17.9103 22.541 19.5286 21.9183 19.5313 20.5939V3.79658C19.5313 2.75263 18.6811 1.94519 17.6799 1.94519ZM18.2105 19.9725C18.2091 20.253 17.8603 20.3456 17.6799 20.1551C16.8143 19.2882 14.4881 16.8204 13.4938 15.8279C12.7117 15.0098 11.2896 15.0096 10.5077 15.8263C9.82089 16.5119 8.47641 17.8559 7.41656 18.9155L6.32018 20.1551C6.14251 20.3436 5.78942 20.2807 5.78373 19.9904L5.78377 4.12514C5.78377 3.74876 5.95224 3.44497 6.32018 3.44497H17.6799C18.0473 3.44497 18.2106 3.7411 18.2106 4.11795L18.2105 19.9725Z" fill="#6F6F6D"/>
</svg>
