<svg width="24" height="24" viewBox="0 0 24 24" fill="none" xmlns="http://www.w3.org/2000/svg">
<path d="M19.2 8H4.8C3.80589 8 3 8.76751 3 9.71429V18.2857C3 19.2325 3.80589 20 4.8 20H19.2C20.1941 20 21 19.2325 21 18.2857V9.71429C21 8.76751 20.1941 8 19.2 8Z" stroke="#6F6F6D" stroke-width="2" stroke-linecap="round" stroke-linejoin="round"/>
<path d="M16 20V5.77778C16 5.30628 15.7893 4.8541 15.4142 4.5207C15.0391 4.1873 14.5304 4 14 4H10C9.46957 4 8.96086 4.1873 8.58579 4.5207C8.21071 4.8541 8 5.30628 8 5.77778V20" stroke="#6F6F6D" stroke-width="2" stroke-linecap="round" stroke-linejoin="round"/>
</svg>
