<svg width="24" height="24" viewBox="0 0 24 24" fill="none" xmlns="http://www.w3.org/2000/svg">
<mask id="path-1-outside-1_212_51369" maskUnits="userSpaceOnUse" x="2" y="1" width="20" height="22" fill="black">
<rect fill="white" x="2" y="1" width="20" height="22"/>
<path fill-rule="evenodd" clip-rule="evenodd" d="M5.31522 2.08789C5.24733 2.13625 5.15663 2.22539 5.11364 2.28606L5.03552 2.39637L5.02596 11.6123L5.0164 20.8282L4.22309 20.8283C3.54232 20.8284 3.41132 20.838 3.29982 20.8967C2.90006 21.1068 2.90006 21.7216 3.29982 21.9317C3.42242 21.9961 3.91523 22 12 22C20.0848 22 20.5776 21.9961 20.7002 21.9317C21.0999 21.7216 21.0999 21.1068 20.7002 20.8967C20.5887 20.838 20.4577 20.8284 19.7769 20.8283L18.9836 20.8282L18.974 11.6123L18.9645 2.39637L18.8864 2.28606C18.8434 2.22539 18.7527 2.13625 18.6848 2.08789L18.5613 2H12H5.43868L5.31522 2.08789ZM17.8629 12.0001V20.8282H16.4438H15.0248L15.0246 18.4552C15.0245 16.1561 15.0222 16.0781 14.9503 15.9548C14.9095 15.8848 14.8213 15.7926 14.7544 15.7499C14.636 15.6743 14.5613 15.6722 12 15.6722C9.43871 15.6722 9.36403 15.6743 9.24561 15.7499C9.17866 15.7926 9.09053 15.8848 9.04971 15.9548C8.97779 16.0781 8.97547 16.1561 8.97536 18.4552L8.97521 20.8282H7.55618H6.13714V12.0001V3.17188H12H17.8629V12.0001ZM7.83438 4.63244C7.68404 4.70181 7.5272 4.90123 7.49983 5.05779C7.48773 5.12701 7.48284 5.87229 7.489 6.71401C7.49975 8.18925 7.50293 8.24832 7.57716 8.35222C7.61951 8.41152 7.70055 8.49629 7.75727 8.54059C7.85757 8.61895 7.90302 8.62113 9.42333 8.62113C10.9436 8.62113 10.9891 8.61895 11.0894 8.54059C11.1461 8.49629 11.2271 8.41152 11.2695 8.35219C11.3444 8.24726 11.3465 8.19972 11.3465 6.6094C11.3465 5.01908 11.3444 4.97154 11.2695 4.86662C11.2271 4.80728 11.1461 4.72252 11.0894 4.67822C10.9898 4.60033 10.9364 4.5974 9.46732 4.58877C8.26136 4.58169 7.92479 4.59068 7.83438 4.63244ZM12.9877 4.63244C12.8374 4.70181 12.6805 4.90123 12.6532 5.05779C12.6411 5.12701 12.6362 5.87229 12.6423 6.71401C12.6531 8.18925 12.6563 8.24832 12.7305 8.35222C12.7729 8.41152 12.8539 8.49629 12.9106 8.54059C13.0109 8.61895 13.0564 8.62113 14.5767 8.62113C16.097 8.62113 16.1424 8.61895 16.2427 8.54059C16.2995 8.49629 16.3805 8.41152 16.4228 8.35219C16.4977 8.24726 16.4998 8.19972 16.4998 6.6094C16.4998 5.01908 16.4977 4.97154 16.4228 4.86662C16.3805 4.80728 16.2995 4.72252 16.2428 4.67822C16.1431 4.60033 16.0897 4.5974 14.6207 4.58877C13.4147 4.58169 13.0781 4.59068 12.9877 4.63244ZM10.2262 6.6094V7.44925L9.41399 7.4598L8.60178 7.47031V6.6362C8.60178 6.17745 8.61332 5.79006 8.6274 5.7753C8.64148 5.76057 9.00699 5.75326 9.43961 5.75905L10.2262 5.76955V6.6094ZM15.3896 6.61995L15.3997 7.47031L14.5868 7.4598L13.7738 7.44925L13.7637 6.64952C13.7581 6.20967 13.7619 5.82698 13.7721 5.79912C13.7867 5.75936 13.9614 5.75073 14.5851 5.75901L15.3795 5.76955L15.3896 6.61995ZM7.7706 10.1338C7.68393 10.1863 7.60133 10.2814 7.55465 10.3823C7.48198 10.5393 7.47944 10.607 7.48959 12.1225L7.50016 13.6993L7.58713 13.8268C7.76892 14.0935 7.74412 14.0899 9.42333 14.0899C11.1025 14.0899 11.0777 14.0935 11.2595 13.8268L11.3465 13.6993L11.3571 12.1225C11.3672 10.6049 11.3648 10.5395 11.2917 10.3816C11.2429 10.2761 11.164 10.1871 11.0707 10.1322C10.9281 10.0484 10.8995 10.0469 9.41825 10.0478C7.93846 10.0487 7.90836 10.0503 7.7706 10.1338ZM12.9239 10.1338C12.8373 10.1863 12.7547 10.2814 12.708 10.3823C12.6353 10.5393 12.6328 10.607 12.6429 12.1225L12.6535 13.6993L12.7405 13.8268C12.9223 14.0935 12.8975 14.0899 14.5767 14.0899C16.2559 14.0899 16.2311 14.0935 16.4129 13.8268L16.4998 13.6993L16.5104 12.1225C16.5206 10.6049 16.5181 10.5395 16.4451 10.3816C16.3962 10.2761 16.3173 10.1871 16.224 10.1322C16.0814 10.0484 16.0528 10.0469 14.5716 10.0478C13.0918 10.0487 13.0617 10.0503 12.9239 10.1338ZM10.2449 12.0587V12.8985H9.42333H8.60178V12.0587V11.2188H9.42333H10.2449V12.0587ZM15.3982 12.0587V12.8985H14.5767H13.7551V12.0587V11.2188H14.5767H15.3982V12.0587ZM13.9045 18.836V20.8282H12H10.0955V18.836V16.8438H12H13.9045V18.836Z"/>
</mask>
<path fill-rule="evenodd" clip-rule="evenodd" d="M5.31522 2.08789C5.24733 2.13625 5.15663 2.22539 5.11364 2.28606L5.03552 2.39637L5.02596 11.6123L5.0164 20.8282L4.22309 20.8283C3.54232 20.8284 3.41132 20.838 3.29982 20.8967C2.90006 21.1068 2.90006 21.7216 3.29982 21.9317C3.42242 21.9961 3.91523 22 12 22C20.0848 22 20.5776 21.9961 20.7002 21.9317C21.0999 21.7216 21.0999 21.1068 20.7002 20.8967C20.5887 20.838 20.4577 20.8284 19.7769 20.8283L18.9836 20.8282L18.974 11.6123L18.9645 2.39637L18.8864 2.28606C18.8434 2.22539 18.7527 2.13625 18.6848 2.08789L18.5613 2H12H5.43868L5.31522 2.08789ZM17.8629 12.0001V20.8282H16.4438H15.0248L15.0246 18.4552C15.0245 16.1561 15.0222 16.0781 14.9503 15.9548C14.9095 15.8848 14.8213 15.7926 14.7544 15.7499C14.636 15.6743 14.5613 15.6722 12 15.6722C9.43871 15.6722 9.36403 15.6743 9.24561 15.7499C9.17866 15.7926 9.09053 15.8848 9.04971 15.9548C8.97779 16.0781 8.97547 16.1561 8.97536 18.4552L8.97521 20.8282H7.55618H6.13714V12.0001V3.17188H12H17.8629V12.0001ZM7.83438 4.63244C7.68404 4.70181 7.5272 4.90123 7.49983 5.05779C7.48773 5.12701 7.48284 5.87229 7.489 6.71401C7.49975 8.18925 7.50293 8.24832 7.57716 8.35222C7.61951 8.41152 7.70055 8.49629 7.75727 8.54059C7.85757 8.61895 7.90302 8.62113 9.42333 8.62113C10.9436 8.62113 10.9891 8.61895 11.0894 8.54059C11.1461 8.49629 11.2271 8.41152 11.2695 8.35219C11.3444 8.24726 11.3465 8.19972 11.3465 6.6094C11.3465 5.01908 11.3444 4.97154 11.2695 4.86662C11.2271 4.80728 11.1461 4.72252 11.0894 4.67822C10.9898 4.60033 10.9364 4.5974 9.46732 4.58877C8.26136 4.58169 7.92479 4.59068 7.83438 4.63244ZM12.9877 4.63244C12.8374 4.70181 12.6805 4.90123 12.6532 5.05779C12.6411 5.12701 12.6362 5.87229 12.6423 6.71401C12.6531 8.18925 12.6563 8.24832 12.7305 8.35222C12.7729 8.41152 12.8539 8.49629 12.9106 8.54059C13.0109 8.61895 13.0564 8.62113 14.5767 8.62113C16.097 8.62113 16.1424 8.61895 16.2427 8.54059C16.2995 8.49629 16.3805 8.41152 16.4228 8.35219C16.4977 8.24726 16.4998 8.19972 16.4998 6.6094C16.4998 5.01908 16.4977 4.97154 16.4228 4.86662C16.3805 4.80728 16.2995 4.72252 16.2428 4.67822C16.1431 4.60033 16.0897 4.5974 14.6207 4.58877C13.4147 4.58169 13.0781 4.59068 12.9877 4.63244ZM10.2262 6.6094V7.44925L9.41399 7.4598L8.60178 7.47031V6.6362C8.60178 6.17745 8.61332 5.79006 8.6274 5.7753C8.64148 5.76057 9.00699 5.75326 9.43961 5.75905L10.2262 5.76955V6.6094ZM15.3896 6.61995L15.3997 7.47031L14.5868 7.4598L13.7738 7.44925L13.7637 6.64952C13.7581 6.20967 13.7619 5.82698 13.7721 5.79912C13.7867 5.75936 13.9614 5.75073 14.5851 5.75901L15.3795 5.76955L15.3896 6.61995ZM7.7706 10.1338C7.68393 10.1863 7.60133 10.2814 7.55465 10.3823C7.48198 10.5393 7.47944 10.607 7.48959 12.1225L7.50016 13.6993L7.58713 13.8268C7.76892 14.0935 7.74412 14.0899 9.42333 14.0899C11.1025 14.0899 11.0777 14.0935 11.2595 13.8268L11.3465 13.6993L11.3571 12.1225C11.3672 10.6049 11.3648 10.5395 11.2917 10.3816C11.2429 10.2761 11.164 10.1871 11.0707 10.1322C10.9281 10.0484 10.8995 10.0469 9.41825 10.0478C7.93846 10.0487 7.90836 10.0503 7.7706 10.1338ZM12.9239 10.1338C12.8373 10.1863 12.7547 10.2814 12.708 10.3823C12.6353 10.5393 12.6328 10.607 12.6429 12.1225L12.6535 13.6993L12.7405 13.8268C12.9223 14.0935 12.8975 14.0899 14.5767 14.0899C16.2559 14.0899 16.2311 14.0935 16.4129 13.8268L16.4998 13.6993L16.5104 12.1225C16.5206 10.6049 16.5181 10.5395 16.4451 10.3816C16.3962 10.2761 16.3173 10.1871 16.224 10.1322C16.0814 10.0484 16.0528 10.0469 14.5716 10.0478C13.0918 10.0487 13.0617 10.0503 12.9239 10.1338ZM10.2449 12.0587V12.8985H9.42333H8.60178V12.0587V11.2188H9.42333H10.2449V12.0587ZM15.3982 12.0587V12.8985H14.5767H13.7551V12.0587V11.2188H14.5767H15.3982V12.0587ZM13.9045 18.836V20.8282H12H10.0955V18.836V16.8438H12H13.9045V18.836Z" fill="#6F6F6D"/>
<path fill-rule="evenodd" clip-rule="evenodd" d="M5.31522 2.08789C5.24733 2.13625 5.15663 2.22539 5.11364 2.28606L5.03552 2.39637L5.02596 11.6123L5.0164 20.8282L4.22309 20.8283C3.54232 20.8284 3.41132 20.838 3.29982 20.8967C2.90006 21.1068 2.90006 21.7216 3.29982 21.9317C3.42242 21.9961 3.91523 22 12 22C20.0848 22 20.5776 21.9961 20.7002 21.9317C21.0999 21.7216 21.0999 21.1068 20.7002 20.8967C20.5887 20.838 20.4577 20.8284 19.7769 20.8283L18.9836 20.8282L18.974 11.6123L18.9645 2.39637L18.8864 2.28606C18.8434 2.22539 18.7527 2.13625 18.6848 2.08789L18.5613 2H12H5.43868L5.31522 2.08789ZM17.8629 12.0001V20.8282H16.4438H15.0248L15.0246 18.4552C15.0245 16.1561 15.0222 16.0781 14.9503 15.9548C14.9095 15.8848 14.8213 15.7926 14.7544 15.7499C14.636 15.6743 14.5613 15.6722 12 15.6722C9.43871 15.6722 9.36403 15.6743 9.24561 15.7499C9.17866 15.7926 9.09053 15.8848 9.04971 15.9548C8.97779 16.0781 8.97547 16.1561 8.97536 18.4552L8.97521 20.8282H7.55618H6.13714V12.0001V3.17188H12H17.8629V12.0001ZM7.83438 4.63244C7.68404 4.70181 7.5272 4.90123 7.49983 5.05779C7.48773 5.12701 7.48284 5.87229 7.489 6.71401C7.49975 8.18925 7.50293 8.24832 7.57716 8.35222C7.61951 8.41152 7.70055 8.49629 7.75727 8.54059C7.85757 8.61895 7.90302 8.62113 9.42333 8.62113C10.9436 8.62113 10.9891 8.61895 11.0894 8.54059C11.1461 8.49629 11.2271 8.41152 11.2695 8.35219C11.3444 8.24726 11.3465 8.19972 11.3465 6.6094C11.3465 5.01908 11.3444 4.97154 11.2695 4.86662C11.2271 4.80728 11.1461 4.72252 11.0894 4.67822C10.9898 4.60033 10.9364 4.5974 9.46732 4.58877C8.26136 4.58169 7.92479 4.59068 7.83438 4.63244ZM12.9877 4.63244C12.8374 4.70181 12.6805 4.90123 12.6532 5.05779C12.6411 5.12701 12.6362 5.87229 12.6423 6.71401C12.6531 8.18925 12.6563 8.24832 12.7305 8.35222C12.7729 8.41152 12.8539 8.49629 12.9106 8.54059C13.0109 8.61895 13.0564 8.62113 14.5767 8.62113C16.097 8.62113 16.1424 8.61895 16.2427 8.54059C16.2995 8.49629 16.3805 8.41152 16.4228 8.35219C16.4977 8.24726 16.4998 8.19972 16.4998 6.6094C16.4998 5.01908 16.4977 4.97154 16.4228 4.86662C16.3805 4.80728 16.2995 4.72252 16.2428 4.67822C16.1431 4.60033 16.0897 4.5974 14.6207 4.58877C13.4147 4.58169 13.0781 4.59068 12.9877 4.63244ZM10.2262 6.6094V7.44925L9.41399 7.4598L8.60178 7.47031V6.6362C8.60178 6.17745 8.61332 5.79006 8.6274 5.7753C8.64148 5.76057 9.00699 5.75326 9.43961 5.75905L10.2262 5.76955V6.6094ZM15.3896 6.61995L15.3997 7.47031L14.5868 7.4598L13.7738 7.44925L13.7637 6.64952C13.7581 6.20967 13.7619 5.82698 13.7721 5.79912C13.7867 5.75936 13.9614 5.75073 14.5851 5.75901L15.3795 5.76955L15.3896 6.61995ZM7.7706 10.1338C7.68393 10.1863 7.60133 10.2814 7.55465 10.3823C7.48198 10.5393 7.47944 10.607 7.48959 12.1225L7.50016 13.6993L7.58713 13.8268C7.76892 14.0935 7.74412 14.0899 9.42333 14.0899C11.1025 14.0899 11.0777 14.0935 11.2595 13.8268L11.3465 13.6993L11.3571 12.1225C11.3672 10.6049 11.3648 10.5395 11.2917 10.3816C11.2429 10.2761 11.164 10.1871 11.0707 10.1322C10.9281 10.0484 10.8995 10.0469 9.41825 10.0478C7.93846 10.0487 7.90836 10.0503 7.7706 10.1338ZM12.9239 10.1338C12.8373 10.1863 12.7547 10.2814 12.708 10.3823C12.6353 10.5393 12.6328 10.607 12.6429 12.1225L12.6535 13.6993L12.7405 13.8268C12.9223 14.0935 12.8975 14.0899 14.5767 14.0899C16.2559 14.0899 16.2311 14.0935 16.4129 13.8268L16.4998 13.6993L16.5104 12.1225C16.5206 10.6049 16.5181 10.5395 16.4451 10.3816C16.3962 10.2761 16.3173 10.1871 16.224 10.1322C16.0814 10.0484 16.0528 10.0469 14.5716 10.0478C13.0918 10.0487 13.0617 10.0503 12.9239 10.1338ZM10.2449 12.0587V12.8985H9.42333H8.60178V12.0587V11.2188H9.42333H10.2449V12.0587ZM15.3982 12.0587V12.8985H14.5767H13.7551V12.0587V11.2188H14.5767H15.3982V12.0587ZM13.9045 18.836V20.8282H12H10.0955V18.836V16.8438H12H13.9045V18.836Z" stroke="#6F6F6D" stroke-width="0.4" mask="url(#path-1-outside-1_212_51369)"/>
</svg>
