<svg width="24" height="24" viewBox="0 0 24 24" fill="none" xmlns="http://www.w3.org/2000/svg">
<path d="M8.44444 7V3M15.5556 7V3M7.55556 10.5H12H16.4444M7.55556 17H8.44444M15.5556 17H16.4444M7.55556 14H8.44444M15.5556 14H16.4444M11.5556 17H12.4444M11.5556 14H12.4444M5.77778 21H18.2222C19.2041 21 20 20.1046 20 19V7C20 5.89543 19.2041 5 18.2222 5H5.77778C4.79594 5 4 5.89543 4 7V19C4 20.1046 4.79594 21 5.77778 21Z" stroke="#6F6F6D" stroke-width="2" stroke-linecap="round" stroke-linejoin="round"/>
</svg>
