<svg width="24" height="24" viewBox="0 0 24 24" fill="none" xmlns="http://www.w3.org/2000/svg">
<rect x="4" y="4" width="16" height="16" rx="1" stroke="#6F6F6D" stroke-width="2" stroke-linejoin="round"/>
<path d="M8.87644 11.3412C8.47924 10.9575 7.84617 10.9684 7.46244 11.3656C7.07871 11.7628 7.08963 12.3959 7.48684 12.7796L8.87644 11.3412ZM10.5674 14.3652L9.87258 15.0844C10.255 15.4538 10.8595 15.4594 11.2487 15.0972L10.5674 14.3652ZM16.5054 10.2044C16.9096 9.82812 16.9323 9.19536 16.5561 8.7911C16.1798 8.38683 15.547 8.36414 15.1427 8.74042L16.5054 10.2044ZM7.48684 12.7796L9.87258 15.0844L11.2622 13.646L8.87644 11.3412L7.48684 12.7796ZM11.2487 15.0972L16.5054 10.2044L15.1427 8.74042L9.88607 13.6332L11.2487 15.0972Z" fill="#6F6F6D"/>
</svg>
