<svg width="24" height="24" viewBox="0 0 24 24" fill="none" xmlns="http://www.w3.org/2000/svg">
<path d="M3 5.33333C3 5.11232 3.09482 4.90036 3.2636 4.74408C3.43239 4.5878 3.66131 4.5 3.9 4.5H20.1C20.3387 4.5 20.5676 4.5878 20.7364 4.74408C20.9052 4.90036 21 5.11232 21 5.33333V9.91667C20.4033 9.91667 19.831 10.1362 19.409 10.5269C18.9871 10.9176 18.75 11.4475 18.75 12C18.75 12.5525 18.9871 13.0824 19.409 13.4731C19.831 13.8638 20.4033 14.0833 21 14.0833V18.6667C21 18.8877 20.9052 19.0996 20.7364 19.2559C20.5676 19.4122 20.3387 19.5 20.1 19.5H3.9C3.66131 19.5 3.43239 19.4122 3.2636 19.2559C3.09482 19.0996 3 18.8877 3 18.6667V5.33333ZM8.4765 17.8333C8.56926 17.5892 8.7416 17.3777 8.96971 17.2281C9.19782 17.0785 9.47046 16.9981 9.75 16.9981C10.0295 16.9981 10.3022 17.0785 10.5303 17.2281C10.7584 17.3777 10.9307 17.5892 11.0235 17.8333H19.2V15.36C18.5239 15.0498 17.9549 14.5708 17.557 13.9771C17.1592 13.3834 16.9484 12.6987 16.9484 12C16.9484 11.3013 17.1592 10.6166 17.557 10.0229C17.9549 9.42921 18.5239 8.95025 19.2 8.64V6.16667H11.0235C10.9307 6.41083 10.7584 6.62231 10.5303 6.77191C10.3022 6.92151 10.0295 7.00186 9.75 7.00186C9.47046 7.00186 9.19782 6.92151 8.96971 6.77191C8.7416 6.62231 8.56926 6.41083 8.4765 6.16667H4.8V17.8333H8.4765ZM9.75 11.1667C9.39196 11.1667 9.04858 11.035 8.79541 10.8005C8.54223 10.5661 8.4 10.2482 8.4 9.91667C8.4 9.58515 8.54223 9.2672 8.79541 9.03278C9.04858 8.79836 9.39196 8.66667 9.75 8.66667C10.108 8.66667 10.4514 8.79836 10.7046 9.03278C10.9578 9.2672 11.1 9.58515 11.1 9.91667C11.1 10.2482 10.9578 10.5661 10.7046 10.8005C10.4514 11.035 10.108 11.1667 9.75 11.1667ZM9.75 15.3333C9.39196 15.3333 9.04858 15.2016 8.79541 14.9672C8.54223 14.7328 8.4 14.4149 8.4 14.0833C8.4 13.7518 8.54223 13.4339 8.79541 13.1994C9.04858 12.965 9.39196 12.8333 9.75 12.8333C10.108 12.8333 10.4514 12.965 10.7046 13.1994C10.9578 13.4339 11.1 13.7518 11.1 14.0833C11.1 14.4149 10.9578 14.7328 10.7046 14.9672C10.4514 15.2016 10.108 15.3333 9.75 15.3333Z" fill="#6F6F6D"/>
</svg>
