<svg width="24" height="24" viewBox="0 0 24 24" fill="none" xmlns="http://www.w3.org/2000/svg">
<g clip-path="url(#clip0_212_51414)">
<path d="M10 21H7C5.89543 21 5 20.1046 5 19V5C5 3.89543 5.89543 3 7 3H12.5858H17C18.1046 3 19 3.89543 19 5V6.5" stroke="#6F6F6D" stroke-width="2" stroke-linecap="round" stroke-linejoin="round"/>
<circle cx="17" cy="16.144" r="4" stroke="#6F6F6D" stroke-width="2"/>
<path d="M14.5107 12.8319C14.8185 13.2904 15.4397 13.4127 15.8983 13.1049C16.3569 12.7972 16.4792 12.1759 16.1714 11.7173L14.5107 12.8319ZM14.9893 9.95592C14.6815 9.49734 14.0603 9.37508 13.6017 9.68285C13.1431 9.99061 13.0208 10.6119 13.3286 11.0704L14.9893 9.95592ZM16.1714 11.7173L14.9893 9.95592L13.3286 11.0704L14.5107 12.8319L16.1714 11.7173Z" fill="#6F6F6D"/>
<path d="M16.5509 13.6203C17.0094 13.3125 17.6307 13.4348 17.9385 13.8934C18.2462 14.352 18.124 14.9732 17.6654 15.281L16.5509 13.6203ZM16.8468 15.8303C16.3882 16.1381 15.767 16.0158 15.4592 15.5573C15.1514 15.0987 15.2737 14.4774 15.7323 14.1697L16.8468 15.8303ZM17.6654 15.281L16.8468 15.8303L15.7323 14.1697L16.5509 13.6203L17.6654 15.281Z" fill="#6F6F6D"/>
<path d="M17.2613 16.3044C17.7199 15.9966 18.3411 16.1189 18.6489 16.5775C18.9567 17.036 18.8344 17.6573 18.3758 17.9651L17.2613 16.3044ZM17.5573 18.5144C17.0987 18.8222 16.4774 18.6999 16.1697 18.2413C15.8619 17.7828 15.9842 17.1615 16.4427 16.8537L17.5573 18.5144ZM18.3758 17.9651L17.5573 18.5144L16.4427 16.8537L17.2613 16.3044L18.3758 17.9651Z" fill="#6F6F6D"/>
<path d="M19.5447 19.5119C19.2369 19.0533 18.6157 18.9311 18.1571 19.2388C17.6985 19.5466 17.5763 20.1678 17.884 20.6264L19.5447 19.5119ZM19.0661 22.3878C19.3739 22.8464 19.9952 22.9687 20.4537 22.6609C20.9123 22.3531 21.0346 21.7319 20.7268 21.2733L19.0661 22.3878ZM17.884 20.6264L19.0661 22.3878L20.7268 21.2733L19.5447 19.5119L17.884 20.6264Z" fill="#6F6F6D"/>
<path d="M17.6401 11.7902C17.4971 12.3237 17.8137 12.872 18.3472 13.015C18.8806 13.1579 19.429 12.8413 19.5719 12.3079L17.6401 11.7902ZM20.121 10.2588C20.2639 9.72535 19.9473 9.17702 19.4138 9.03407C18.8804 8.89113 18.332 9.20771 18.1891 9.74118L20.121 10.2588ZM19.5719 12.3079L20.121 10.2588L18.1891 9.74118L17.6401 11.7902L19.5719 12.3079Z" fill="#6F6F6D"/>
<path d="M16.4154 20.5535C16.5583 20.0201 16.2417 19.4717 15.7082 19.3288C15.1748 19.1858 14.6264 19.5024 14.4835 20.0359L16.4154 20.5535ZM13.9345 22.0849C13.7915 22.6184 14.1081 23.1667 14.6416 23.3097C15.175 23.4526 15.7234 23.136 15.8663 22.6026L13.9345 22.0849ZM14.4835 20.0359L13.9345 22.0849L15.8663 22.6026L16.4154 20.5535L14.4835 20.0359Z" fill="#6F6F6D"/>
<path d="M20.7528 13.465C20.2176 13.6015 19.8944 14.146 20.0309 14.6811C20.1674 15.2163 20.7119 15.5395 21.2471 15.403L20.7528 13.465ZM23.3026 14.8786C23.8377 14.7421 24.1609 14.1977 24.0244 13.6625C23.8879 13.1274 23.3434 12.8042 22.8083 12.9407L23.3026 14.8786ZM21.2471 15.403L23.3026 14.8786L22.8083 12.9407L20.7528 13.465L21.2471 15.403Z" fill="#6F6F6D"/>
<path d="M13.3027 18.8787C13.8378 18.7422 14.161 18.1978 14.0245 17.6626C13.888 17.1275 13.3435 16.8043 12.8083 16.9408L13.3027 18.8787ZM10.7528 17.4651C10.2177 17.6016 9.89452 18.1461 10.031 18.6812C10.1675 19.2164 10.712 19.5396 11.2472 19.4031L10.7528 17.4651ZM12.8083 16.9408L10.7528 17.4651L11.2472 19.4031L13.3027 18.8787L12.8083 16.9408Z" fill="#6F6F6D"/>
<path d="M8 7H14M8 11H11" stroke="#6F6F6D" stroke-width="2" stroke-linecap="round"/>
</g>
<defs>
<clipPath id="clip0_212_51414">
<rect width="24" height="24" fill="white"/>
</clipPath>
</defs>
</svg>
