<svg width="24" height="24" viewBox="0 0 24 24" fill="none" xmlns="http://www.w3.org/2000/svg">
<path fill-rule="evenodd" clip-rule="evenodd" d="M7 4C6.44772 4 6 4.44772 6 5V19C6 19.5523 6.44771 20 7 20H11.3348C11.8871 20 12.3348 20.4477 12.3348 21C12.3348 21.5523 11.8871 22 11.3348 22H7C5.34315 22 4 20.6569 4 19V5C4 3.34315 5.34315 2 7 2H12.5858C13.1162 2 13.6249 2.21071 14 2.58579L19.4142 8C19.7893 8.37507 20 8.88378 20 9.41421V12.6981C20 13.2503 19.5523 13.6981 19 13.6981C18.4477 13.6981 18 13.2503 18 12.6981L18 9.41421L12.5858 4H7ZM8 12C8 11.4477 8.44772 11 9 11H15C15.5523 11 16 11.4477 16 12C16 12.5523 15.5523 13 15 13H9C8.44772 13 8 12.5523 8 12ZM8 16C8 15.4477 8.44772 15 9 15H11.3348C11.8871 15 12.3348 15.4477 12.3348 16C12.3348 16.5523 11.8871 17 11.3348 17H9C8.44772 17 8 16.5523 8 16Z" fill="#6F6F6D"/>
<path d="M16.2873 15.3603C16.4874 14.5797 17.6595 14.5797 17.8596 15.3603C17.9888 15.8646 18.5988 16.1039 19.0666 15.8339C19.7909 15.4159 20.6197 16.2009 20.1784 16.8869C19.8933 17.3301 20.146 17.9078 20.6784 18.0302C21.5026 18.2197 21.5026 19.3299 20.6784 19.5195C20.146 19.6419 19.8933 20.2196 20.1784 20.6628C20.6197 21.3488 19.7909 22.1338 19.0666 21.7158C18.5988 21.4458 17.9888 21.6851 17.8596 22.1894C17.6595 22.97 16.4874 22.97 16.2873 22.1894C16.158 21.6851 15.5481 21.4458 15.0802 21.7158C14.356 22.1338 13.5272 21.3488 13.9685 20.6628C14.2535 20.2196 14.0009 19.6419 13.4685 19.5195C12.6443 19.3299 12.6443 18.2197 13.4685 18.0302C14.0009 17.9078 14.2535 17.3301 13.9685 16.8869C13.5272 16.2009 14.356 15.4159 15.0802 15.8339C15.5481 16.1039 16.158 15.8646 16.2873 15.3603Z" stroke="#6F6F6D" stroke-width="1.2" stroke-linecap="round" stroke-linejoin="round"/>
<path d="M18.4811 18.7748C18.4811 19.5112 17.8509 20.1082 17.0734 20.1082C16.296 20.1082 15.6657 19.5112 15.6657 18.7748C15.6657 18.0385 16.296 17.4415 17.0734 17.4415C17.8509 17.4415 18.4811 18.0385 18.4811 18.7748Z" stroke="#6F6F6D" stroke-width="1.2" stroke-linecap="round" stroke-linejoin="round"/>
</svg>
