<svg width="24" height="24" viewBox="0 0 24 24" fill="none" xmlns="http://www.w3.org/2000/svg">
<path d="M4 14.75C4 14.3358 4.33579 14 4.75 14H9.25C9.66421 14 10 14.3358 10 14.75V19.25C10 19.6642 9.66421 20 9.25 20H4.75C4.33579 20 4 19.6642 4 19.25V14.75Z" stroke="#6F6F6D" stroke-width="2" stroke-linecap="round" stroke-linejoin="round"/>
<path d="M14 14.75C14 14.3358 14.3358 14 14.75 14H19.25C19.6642 14 20 14.3358 20 14.75V19.25C20 19.6642 19.6642 20 19.25 20H14.75C14.3358 20 14 19.6642 14 19.25V14.75Z" stroke="#6F6F6D" stroke-width="2" stroke-linecap="round" stroke-linejoin="round"/>
<path d="M4 4.75C4 4.33579 4.33579 4 4.75 4H9.25C9.66421 4 10 4.33579 10 4.75V9.25C10 9.66421 9.66421 10 9.25 10H4.75C4.33579 10 4 9.66421 4 9.25V4.75Z" stroke="#6F6F6D" stroke-width="2" stroke-linecap="round" stroke-linejoin="round"/>
<path d="M14 4.75C14 4.33579 14.3358 4 14.75 4H19.25C19.6642 4 20 4.33579 20 4.75V9.25C20 9.66421 19.6642 10 19.25 10H14.75C14.3358 10 14 9.66421 14 9.25V4.75Z" stroke="#6F6F6D" stroke-width="2" stroke-linecap="round" stroke-linejoin="round"/>
</svg>
