<svg width="17" height="19" viewBox="0 0 17 19" fill="none" xmlns="http://www.w3.org/2000/svg">
<path d="M8.82163 1.54152C8.9982 1.54152 9.16755 1.61167 9.2924 1.73652C9.41726 1.86138 9.4874 2.03072 9.4874 2.20729V7.53345C9.4874 7.71002 9.55754 7.87936 9.6824 8.00422C9.80725 8.12907 9.9766 8.19922 10.1532 8.19922C10.3297 8.19922 10.4991 8.12907 10.6239 8.00422C10.7488 7.87936 10.8189 7.71002 10.8189 7.53345V3.53883C10.8189 3.36226 10.8891 3.19292 11.0139 3.06806C11.1388 2.94321 11.3081 2.87306 11.4847 2.87306C11.6613 2.87306 11.8306 2.94321 11.9555 3.06806C12.0803 3.19292 12.1505 3.36226 12.1505 3.53883V8.86499C12.1505 9.04156 12.2206 9.2109 12.3455 9.33576C12.4703 9.46061 12.6397 9.53076 12.8162 9.53076C12.9928 9.53076 13.1622 9.46061 13.287 9.33576C13.4119 9.2109 13.482 9.04156 13.482 8.86499V6.20191C13.4818 6.02534 13.5518 5.85593 13.6765 5.73095C13.8013 5.60596 13.9705 5.53565 14.1471 5.53547C14.3237 5.5353 14.4931 5.60527 14.6181 5.73C14.7431 5.85473 14.8134 6.024 14.8136 6.20058V11.5281C14.8136 12.2857 14.4767 13.2471 13.9694 14.2417C13.4714 15.2164 12.8509 16.1432 12.3702 16.8063C12.1998 17.0329 11.9781 17.2157 11.7232 17.3398C11.4683 17.4639 11.1876 17.5256 10.9042 17.52H8.46744C7.49675 17.52 6.59397 16.7743 6.14391 15.7091C5.36629 13.8716 4.13062 12.3603 3.108 11.3177C2.68807 10.8895 2.24677 10.4829 1.78578 10.0993L1.76714 10.0847C1.91361 9.93421 2.04676 9.83435 2.16926 9.76777C2.35403 9.66117 2.56962 9.62078 2.78044 9.65326C3.23316 9.7185 3.76578 10.078 4.35565 10.6679C4.44876 10.7612 4.5675 10.8248 4.6968 10.8506C4.82611 10.8764 4.96016 10.8632 5.08196 10.8127C5.20376 10.7623 5.30782 10.6767 5.38096 10.567C5.4541 10.4573 5.49302 10.3284 5.49278 10.1965V3.53883C5.49155 3.36226 5.56051 3.19243 5.68449 3.0667C5.80847 2.94097 5.97732 2.86964 6.15389 2.8684C6.33047 2.86717 6.5003 2.93612 6.62603 3.06011C6.75176 3.18409 6.82309 3.35294 6.82432 3.52951V7.53345C6.82432 7.71002 6.89447 7.87936 7.01932 8.00422C7.14418 8.12907 7.31352 8.19922 7.49009 8.19922C7.66667 8.19922 7.83601 8.12907 7.96086 8.00422C8.08572 7.87936 8.15586 7.71002 8.15586 7.53345V2.20729C8.15586 2.03072 8.226 1.86138 8.35086 1.73652C8.47572 1.61167 8.64506 1.54152 8.82163 1.54152ZM13.482 4.31778V3.53883C13.4822 3.21285 13.4025 2.8918 13.25 2.60368C13.0975 2.31556 12.8769 2.06915 12.6072 1.88594C12.3376 1.70273 12.0273 1.5883 11.7032 1.55264C11.3792 1.51697 11.0514 1.56116 10.7484 1.68134C10.633 1.25879 10.3818 0.885892 10.0337 0.620076C9.68554 0.354261 9.25966 0.210266 8.82163 0.210266C8.3836 0.210266 7.95772 0.354261 7.60957 0.620076C7.26142 0.885892 7.0103 1.25879 6.89489 1.68134C6.59188 1.56116 6.26405 1.51697 5.94003 1.55264C5.61601 1.5883 5.30564 1.70273 5.03602 1.88594C4.7664 2.06915 4.54571 2.31556 4.39323 2.60368C4.24075 2.8918 4.1611 3.21285 4.16125 3.53883V8.79575C3.80032 8.56202 3.39509 8.40518 2.97085 8.33503C2.4735 8.26144 1.9658 8.35511 1.52746 8.60134C1.06409 8.85433 0.651311 9.26711 0.27848 9.82636C0.182221 9.9702 0.145763 10.1459 0.176834 10.3161C0.207904 10.4864 0.304062 10.6379 0.444922 10.7385L0.450248 10.7425L0.472885 10.7584L0.568755 10.8317C1.12788 11.2701 1.65805 11.7442 2.15595 12.2511C3.11599 13.2284 4.22915 14.6026 4.91756 16.2284C5.49944 17.6052 6.78837 18.8515 8.46744 18.8515H10.9042C11.8882 18.8515 12.8482 18.4161 13.4474 17.5866C13.9494 16.8955 14.6138 15.9075 15.1558 14.8463C15.6884 13.805 16.1451 12.6093 16.1451 11.5281V6.20058C16.145 5.88107 16.0683 5.56624 15.9214 5.28251C15.7745 4.99878 15.5617 4.75443 15.3008 4.56998C15.0399 4.38554 14.7386 4.26637 14.4221 4.22248C14.1056 4.1786 13.7832 4.21128 13.482 4.31778ZM13.482 8.86499V8.87298V8.86499Z" fill="#DDDDDD"/>
</svg>
