<svg width="24" height="24" viewBox="0 0 24 24" fill="none" xmlns="http://www.w3.org/2000/svg">
<path d="M9.59125 17.2796L8.67999 18.1852C8.29823 18.561 7.78406 18.7716 7.2484 18.7716C6.71275 18.7716 6.19857 18.561 5.81682 18.1852C5.63069 18.0009 5.48293 17.7815 5.3821 17.5397C5.28126 17.298 5.22935 17.0386 5.22935 16.7767C5.22935 16.5147 5.28126 16.2554 5.3821 16.0136C5.48293 15.7719 5.63069 15.5525 5.81682 15.3682L9.16937 12.0437C9.8635 11.3541 11.1708 10.3393 12.1237 11.2843C12.2262 11.3937 12.3497 11.4812 12.4869 11.5418C12.624 11.6024 12.7719 11.6347 12.9218 11.6368C13.0717 11.6389 13.2205 11.6109 13.3593 11.5542C13.4981 11.4976 13.624 11.4136 13.7297 11.3072C13.8353 11.2009 13.9184 11.0743 13.974 10.9351C14.0297 10.7959 14.0567 10.6469 14.0535 10.497C14.0503 10.3472 14.0169 10.1995 13.9554 10.0628C13.8938 9.9261 13.8054 9.8032 13.6953 9.70144C12.0775 8.09491 9.6835 8.39192 7.59884 10.4608L4.24629 13.7864C3.85016 14.1769 3.53589 14.6425 3.32186 15.156C3.10782 15.6694 2.99833 16.2204 2.99977 16.7767C2.99839 17.3329 3.10791 17.8839 3.32194 18.3973C3.53597 18.9108 3.85021 19.3764 4.24629 19.767C5.04471 20.5589 6.12439 21.0023 7.24896 21C8.33686 21 9.42475 20.5894 10.2516 19.767L11.164 18.8613C11.2681 18.7584 11.3508 18.636 11.4074 18.5011C11.464 18.3661 11.4934 18.2213 11.494 18.075C11.4945 17.9287 11.4661 17.7837 11.4104 17.6483C11.3548 17.513 11.273 17.3899 11.1697 17.2863C10.9608 17.0769 10.6776 16.9587 10.3818 16.9574C10.0861 16.9561 9.80188 17.0719 9.59125 17.2796ZM19.7524 4.35985C18.012 2.63407 15.5797 2.5407 13.9709 4.13822L12.8358 5.26549C12.626 5.47376 12.5076 5.75682 12.5066 6.0524C12.5055 6.34799 12.6219 6.63188 12.8302 6.84164C13.0384 7.0514 13.3215 7.16983 13.6171 7.17089C13.9127 7.17194 14.1966 7.05553 14.4063 6.84727L15.5426 5.72112C16.3751 4.89311 17.4675 5.23624 18.1819 5.94275C18.5599 6.31963 18.7691 6.81914 18.7691 7.35127C18.7691 7.88341 18.5599 8.38292 18.1819 8.75867L14.6043 12.307C12.9686 13.9281 12.2013 13.1687 11.8739 12.8436C11.7701 12.7405 11.6469 12.6588 11.5115 12.6033C11.3761 12.5478 11.231 12.5195 11.0847 12.52C10.9383 12.5205 10.7935 12.5499 10.6585 12.6064C10.5235 12.6628 10.4009 12.7454 10.2978 12.8492C10.1946 12.9531 10.113 13.0763 10.0575 13.2117C10.0019 13.3471 9.97362 13.4921 9.97414 13.6385C9.97467 13.7848 10.004 13.9297 10.0605 14.0647C10.117 14.1997 10.1995 14.3223 10.3034 14.4254C11.0549 15.1701 11.9122 15.5392 12.8099 15.5392C13.9091 15.5392 15.0712 14.9856 16.1771 13.8888L19.7547 10.3416C20.1499 9.95045 20.4636 9.4847 20.6774 8.97136C20.8911 8.45803 21.0008 7.90735 21.0001 7.35127C21.0011 6.7948 20.8913 6.24369 20.6771 5.7301C20.4628 5.2165 20.1485 4.7507 19.7524 4.35985Z" fill="#6F6F6D"/>
</svg>
