<svg width="32" height="32" viewBox="0 0 32 32" fill="none" xmlns="http://www.w3.org/2000/svg">
<path d="M7 22.7982V13.8686C7 13.1999 7.3342 12.5754 7.8906 12.2045L14.8906 7.5378C15.5624 7.08994 16.4376 7.08994 17.1094 7.5378L24.1094 12.2045C24.6658 12.5754 25 13.1999 25 13.8686V22.7982M7 22.7982C7 23.9028 7.89543 24.7982 9 24.7982H23C24.1046 24.7982 25 23.9028 25 22.7982M7 22.7982L13.75 18.2982M25 22.7982L18.25 18.2982M7 13.7982L13.75 18.2982M25 13.7982L18.25 18.2982M18.25 18.2982L17.1094 19.0586C16.4376 19.5065 15.5624 19.5065 14.8906 19.0586L13.75 18.2982" stroke="#6F6F6D" stroke-width="2" stroke-linecap="round" stroke-linejoin="round"/>
</svg>
