<svg width="24" height="24" viewBox="0 0 24 24" fill="none" xmlns="http://www.w3.org/2000/svg">
<circle cx="12" cy="12" r="10" stroke="#6F6F6D" stroke-width="2"/>
<path fill-rule="evenodd" clip-rule="evenodd" d="M7.08303 16.5098C6.93925 16.7726 7.2273 17.0607 7.49019 16.9169L12.8131 14.0057C13.3165 13.7304 13.7304 13.3165 14.0057 12.8131L16.9169 7.49019C17.0607 7.22729 16.7726 6.93925 16.5098 7.08303L11.1868 9.99425C10.6834 10.2696 10.2696 10.6834 9.99425 11.1868L7.08303 16.5098ZM12 12.9014C12.4978 12.9014 12.9014 12.4978 12.9014 12C12.9014 11.5021 12.4978 11.0986 12 11.0986C11.5021 11.0986 11.0986 11.5021 11.0986 12C11.0986 12.4978 11.5021 12.9014 12 12.9014Z" fill="#6F6F6D"/>
</svg>
