<svg width="24" height="24" viewBox="0 0 24 24" fill="none" xmlns="http://www.w3.org/2000/svg">
<path d="M16.9871 7.33329L21.6537 12L16.9871 16.6666" stroke="#6F6F6D" stroke-width="2" stroke-linecap="round" stroke-linejoin="round"/>
<path d="M7.01343 16.6667L2.34676 12L7.01343 7.33337" stroke="#6F6F6D" stroke-width="2" stroke-linecap="round" stroke-linejoin="round"/>
<path d="M7.01343 11.9933C7.01343 11.6196 7.10913 11.3575 7.30054 11.2072C7.4965 11.0522 7.73348 10.9747 8.01147 10.9747C8.28947 10.9747 8.52645 11.0522 8.72241 11.2072C8.92293 11.3575 9.02319 11.6196 9.02319 11.9933C9.02319 12.3579 8.92293 12.6222 8.72241 12.7863C8.52645 12.9458 8.28947 13.0255 8.01147 13.0255C7.73348 13.0255 7.4965 12.9458 7.30054 12.7863C7.10913 12.6222 7.01343 12.3579 7.01343 11.9933Z" fill="#6F6F6D"/>
<path d="M10.9952 11.9933C10.9952 11.6196 11.0909 11.3575 11.2823 11.2072C11.4783 11.0522 11.7153 10.9747 11.9933 10.9747C12.2713 10.9747 12.5082 11.0522 12.7042 11.2072C12.9047 11.3575 13.005 11.6196 13.005 11.9933C13.005 12.3579 12.9047 12.6222 12.7042 12.7863C12.5082 12.9458 12.2713 13.0255 11.9933 13.0255C11.7153 13.0255 11.4783 12.9458 11.2823 12.7863C11.0909 12.6222 10.9952 12.3579 10.9952 11.9933Z" fill="#6F6F6D"/>
<path d="M14.977 11.9933C14.977 11.6196 15.0727 11.3575 15.2641 11.2072C15.4601 11.0522 15.6971 10.9747 15.9751 10.9747C16.2531 10.9747 16.49 11.0522 16.686 11.2072C16.8865 11.3575 16.9868 11.6196 16.9868 11.9933C16.9868 12.3579 16.8865 12.6222 16.686 12.7863C16.49 12.9458 16.2531 13.0255 15.9751 13.0255C15.6971 13.0255 15.4601 12.9458 15.2641 12.7863C15.0727 12.6222 14.977 12.3579 14.977 11.9933Z" fill="#6F6F6D"/>
</svg>
