<svg width="24" height="24" viewBox="0 0 24 24" fill="none" xmlns="http://www.w3.org/2000/svg">
<path d="M12 3.15C12 2.51487 11.4834 1.99317 10.8525 2.06605C9.28084 2.24759 7.76886 2.80026 6.4443 3.6853C4.79981 4.78412 3.51808 6.3459 2.7612 8.17317C2.00433 10.0004 1.80629 12.0111 2.19215 13.9509C2.578 15.8907 3.53041 17.6725 4.92893 19.0711C6.32746 20.4696 8.10929 21.422 10.0491 21.8079C11.9889 22.1937 13.9996 21.9957 15.8268 21.2388C17.6541 20.4819 19.2159 19.2002 20.3147 17.5557C21.1997 16.2311 21.7524 14.7192 21.934 13.1475C22.0068 12.5166 21.4851 12 20.85 12C20.2149 12 19.7088 12.5177 19.6143 13.1457C19.4464 14.2616 19.0344 15.3318 18.4023 16.2779C17.5562 17.5441 16.3537 18.5311 14.9467 19.1139C13.5397 19.6967 11.9915 19.8492 10.4978 19.552C9.00415 19.2549 7.63214 18.5216 6.55528 17.4447C5.47841 16.3679 4.74506 14.9958 4.44795 13.5022C4.15085 12.0085 4.30333 10.4603 4.88613 9.05334C5.46892 7.64635 6.45585 6.44377 7.72211 5.59768C8.66815 4.96556 9.73837 4.55363 10.8542 4.38571C11.4823 4.29121 12 3.78513 12 3.15Z" fill="#6F6F6D"/>
<path d="M13.3844 3.25896C13.4838 2.63165 14.0756 2.19717 14.6874 2.36784C16.3792 2.83982 17.9174 3.74955 19.1461 5.00468C19.5903 5.45855 19.4947 6.1865 18.9929 6.57577C18.491 6.96505 17.7738 6.86613 17.3142 6.4278C16.4651 5.61795 15.4416 5.01266 14.3228 4.65868C13.7173 4.46709 13.2851 3.88627 13.3844 3.25896Z" fill="#6F6F6D"/>
<path d="M19.5859 7.44192C20.1303 7.1148 20.8436 7.28887 21.1061 7.86722C21.3086 8.31358 21.4781 8.77425 21.6131 9.24547C21.7881 9.85602 21.3578 10.4508 20.7312 10.5546C20.1046 10.6583 19.5207 10.2302 19.3249 9.62604C19.263 9.43487 19.1935 9.24619 19.1168 9.06045C18.8743 8.47342 19.0415 7.76903 19.5859 7.44192Z" fill="#6F6F6D"/>
</svg>
