<svg width="24" height="24" viewBox="0 0 24 24" fill="none" xmlns="http://www.w3.org/2000/svg">
<path fill-rule="evenodd" clip-rule="evenodd" d="M19 6C19 5.44772 18.5523 5 18 5H6C5.44772 5 5 5.44772 5 6L5 18C5 18.5523 5.44772 19 6 19H18C18.5523 19 19 18.5523 19 18V6ZM5 3C3.89543 3 3 3.89543 3 5V19C3 20.1046 3.89543 21 5 21H19C20.1046 21 21 20.1046 21 19V5C21 3.89543 20.1046 3 19 3H5Z" fill="#6F6F6D"/>
<mask id="path-2-inside-1_212_51325" fill="white">
<rect x="7" y="7" width="10" height="10" rx="1"/>
</mask>
<rect x="7" y="7" width="10" height="10" rx="1" stroke="#6F6F6D" stroke-width="4" mask="url(#path-2-inside-1_212_51325)"/>
</svg>
