<svg width="24" height="24" viewBox="0 0 24 24" fill="none" xmlns="http://www.w3.org/2000/svg">
<g clip-path="url(#clip0_6880_535233)">
<path d="M20.2636 13.4465H17.1694V2.1975H17.6152C17.8328 2.1975 18.0098 2.37455 18.0098 2.59219V12.1582C18.0098 12.3523 18.1672 12.5097 18.3614 12.5097C18.5556 12.5097 18.713 12.3523 18.713 12.1582V2.59219C18.713 1.98684 18.2205 1.49438 17.6152 1.49438H17.1694V1.09781C17.1694 0.492469 16.6769 7.43962e-07 16.0716 7.43962e-07H7.36791C7.17375 7.43962e-07 7.01634 0.157407 7.01634 0.351563C7.01634 0.545719 7.17375 0.703126 7.36791 0.703126H16.0716C16.2892 0.703126 16.4662 0.880172 16.4662 1.09781V13.4465H14.3234C13.0515 13.4465 12.0167 14.4812 12.0167 15.7531V19.0702H2.5275C2.30986 19.0702 2.13281 18.8931 2.13281 18.6755V4.63913H4.97775C5.58305 4.63913 6.07542 4.1467 6.07542 3.54145V0.351563C6.07542 0.209438 5.98983 0.081282 5.85853 0.0268132C5.72728 -0.0276086 5.57606 0.0023445 5.47547 0.102751L1.53295 4.03875C1.49152 4.10119 1.44548 4.10452 1.42969 4.28766V18.6755C1.42969 19.2808 1.92216 19.7733 2.5275 19.7733H2.97375V20.1698C2.97375 20.7752 3.46603 21.2677 4.07109 21.2677H12.0167V21.6934C12.0167 22.9653 13.0515 24 14.3234 24H20.2636C21.5355 24 22.5702 22.9653 22.5702 21.6934V15.7531C22.5702 14.4813 21.5355 13.4465 20.2636 13.4465ZM5.37234 1.1993V3.54141C5.37234 3.759 5.19534 3.93595 4.9778 3.93595H2.63105L5.37234 1.1993ZM4.07109 20.5645C3.85373 20.5645 3.67687 20.3875 3.67687 20.1698V19.7733H12.0167V20.5645H4.07109ZM21.8671 21.6934C21.8671 22.5776 21.1478 23.2969 20.2636 23.2969H14.3234C13.4392 23.2969 12.7199 22.5776 12.7199 21.6934C12.7199 21.6934 12.7199 19.4202 12.7199 19.4195V15.7531C12.7199 14.869 13.4392 14.1496 14.3234 14.1496H20.2636C21.1478 14.1496 21.8671 14.8689 21.8671 15.7531V21.6934Z" fill="#6F6F6D"/>
<path d="M18.2655 15.581C17.8187 14.9896 16.8122 14.9557 16.3217 15.581L14.5603 17.776C13.9303 18.4895 14.5314 19.7388 15.4841 19.7011H15.8121V21.5335C15.8121 21.9735 16.17 22.3315 16.6101 22.3315H17.9772C18.4172 22.3315 18.7752 21.9735 18.7752 21.5335V19.7011H19.1031C20.0456 19.7542 20.6533 18.4983 20.027 17.776L18.2655 15.581ZM19.533 18.7253C19.5134 18.7762 19.3754 18.9941 19.1078 18.998H18.4236C18.2295 18.998 18.0721 19.1554 18.0721 19.3496V21.5336C18.0721 21.5859 18.0295 21.6284 17.9772 21.6284H16.6101C16.5578 21.6284 16.5152 21.5859 16.5152 21.5336V19.3496C16.5152 19.1554 16.3578 18.998 16.1637 18.998H15.4795C15.0307 18.9554 14.8954 18.5609 15.106 18.2194L16.8701 16.0211C17.043 15.8069 17.4647 15.7175 17.7171 16.0211L19.4812 18.2194C19.5811 18.3337 19.615 18.5519 19.533 18.7253Z" fill="#6F6F6D"/>
<path d="M11.5312 4.31568C12.1486 4.31568 12.6509 3.81337 12.6509 3.19434C12.6509 2.5769 12.1486 2.07458 11.5312 2.07458H8.22986C7.61242 2.07458 7.11011 2.5769 7.11011 3.19593C7.11011 3.81337 7.61242 4.31568 8.22986 4.31568H11.5312ZM7.81319 3.19429C7.81319 2.96455 8.00008 2.77766 8.22981 2.77766H11.5312C11.7609 2.77766 11.9478 2.96455 11.9478 3.19588C11.9478 3.42562 11.7609 3.61251 11.5312 3.61251H8.22986C8.00008 3.61255 7.81319 3.42562 7.81319 3.19429Z" fill="#6F6F6D"/>
<path d="M4.08447 6.94092C4.08447 7.13507 4.24188 7.29248 4.43604 7.29248H14.1783C14.3724 7.29248 14.5298 7.13507 14.5298 6.94092C14.5298 6.74676 14.3724 6.58936 14.1783 6.58936H4.43604C4.24188 6.58936 4.08447 6.74676 4.08447 6.94092Z" fill="#6F6F6D"/>
<path d="M14.1783 8.67432H4.43604C4.24188 8.67432 4.08447 8.83172 4.08447 9.02588C4.08447 9.22004 4.24188 9.37744 4.43604 9.37744H14.1783C14.3724 9.37744 14.5298 9.22004 14.5298 9.02588C14.5298 8.83172 14.3724 8.67432 14.1783 8.67432Z" fill="#6F6F6D"/>
<path d="M14.1782 10.7585H12.3589C12.1647 10.7585 12.0073 10.916 12.0073 11.1101C12.0073 11.3043 12.1647 11.4617 12.3589 11.4617H14.1782C14.3723 11.4617 14.5297 11.3043 14.5297 11.1101C14.5297 10.916 14.3723 10.7585 14.1782 10.7585Z" fill="#6F6F6D"/>
<path d="M11.0603 11.1101C11.0603 10.916 10.9029 10.7585 10.7088 10.7585H4.43604C4.24188 10.7585 4.08447 10.916 4.08447 11.1101C4.08447 11.3043 4.24188 11.4617 4.43604 11.4617H10.7088C10.9029 11.4617 11.0603 11.3043 11.0603 11.1101Z" fill="#6F6F6D"/>
<path d="M8.68408 12.8434H4.43603C4.24188 12.8434 4.08447 13.0008 4.08447 13.1949C4.08447 13.3891 4.24188 13.5465 4.43603 13.5465H8.68408C8.87823 13.5465 9.03564 13.3891 9.03564 13.1949C9.03564 13.0008 8.87823 12.8434 8.68408 12.8434Z" fill="#6F6F6D"/>
<path d="M8.68408 14.9282H4.43603C4.24188 14.9282 4.08447 15.0856 4.08447 15.2798C4.08447 15.4739 4.24188 15.6313 4.43603 15.6313H8.68408C8.87823 15.6313 9.03564 15.4739 9.03564 15.2798C9.03564 15.0856 8.87823 14.9282 8.68408 14.9282Z" fill="#6F6F6D"/>
</g>
<defs>
<clipPath id="clip0_6880_535233">
<rect width="24" height="24" fill="white"/>
</clipPath>
</defs>
</svg>
