<svg width="24" height="24" viewBox="0 0 24 24" fill="none" xmlns="http://www.w3.org/2000/svg">
<path fill-rule="evenodd" clip-rule="evenodd" d="M8.4 3C8.89706 3 9.3 3.40294 9.3 3.9V5.7C9.3 6.19706 8.89706 6.6 8.4 6.6C7.90294 6.6 7.5 6.19706 7.5 5.7V3.9C7.5 3.40294 7.90294 3 8.4 3ZM13.1636 5.0636C13.9291 4.29808 14.9674 3.86802 16.05 3.86802C17.1326 3.86802 18.1709 4.29808 18.9364 5.0636C19.7019 5.82912 20.132 6.86739 20.132 7.95C20.132 9.03261 19.7019 10.0709 18.9364 10.8364L15.3394 14.4333C14.9631 14.8166 14.5142 15.1211 14.0189 15.3292C13.5222 15.5379 12.9888 15.6455 12.45 15.6455C11.9112 15.6455 11.3778 15.5379 10.8811 15.3292C10.3843 15.1205 9.93423 14.8147 9.55714 14.4299C9.20928 14.0748 9.21509 13.505 9.57013 13.1571C9.92517 12.8093 10.495 12.8151 10.8429 13.1701C11.0524 13.3839 11.3024 13.5538 11.5784 13.6698C11.8543 13.7857 12.1507 13.8455 12.45 13.8455C12.7493 13.8455 13.0457 13.7857 13.3216 13.6698C13.5976 13.5538 13.8476 13.3839 14.0571 13.1701L14.0636 13.1636L14.0636 13.1636L17.6636 9.5636C18.0916 9.13565 18.332 8.55522 18.332 7.95C18.332 7.34478 18.0916 6.76435 17.6636 6.3364C17.2356 5.90844 16.6552 5.66802 16.05 5.66802C15.4448 5.66802 14.8644 5.90844 14.4364 6.3364L13.9864 6.7864C13.6349 7.13787 13.0651 7.13787 12.7136 6.7864C12.3621 6.43492 12.3621 5.86508 12.7136 5.5136L13.1636 5.0636ZM3 8.4C3 7.90294 3.40294 7.5 3.9 7.5H5.7C6.19706 7.5 6.6 7.90294 6.6 8.4C6.6 8.89706 6.19706 9.3 5.7 9.3H3.9C3.40294 9.3 3 8.89706 3 8.4ZM9.98106 8.67079C10.4778 8.46206 11.0112 8.35454 11.55 8.35454C12.0888 8.35454 12.6222 8.46206 13.1189 8.67079C13.5772 8.86334 13.7926 9.39092 13.6 9.84916C13.4075 10.3074 12.8799 10.5228 12.4216 10.3302C12.1457 10.2143 11.8493 10.1545 11.55 10.1545C11.2507 10.1545 10.9543 10.2143 10.6784 10.3302C10.4024 10.4462 10.1523 10.6161 9.94286 10.8299L9.93643 10.8364L9.9364 10.8364L6.3364 14.4364C5.90844 14.8644 5.66802 15.4448 5.66802 16.05C5.66802 16.6552 5.90844 17.2356 6.3364 17.6636C6.76435 18.0916 7.34478 18.332 7.95 18.332C8.55522 18.332 9.13565 18.0916 9.5636 17.6636L10.0136 17.2136C10.3651 16.8621 10.9349 16.8621 11.2864 17.2136C11.6379 17.5651 11.6379 18.1349 11.2864 18.4864L10.8364 18.9364C10.0709 19.7019 9.03261 20.132 7.95 20.132C6.86739 20.132 5.82912 19.7019 5.0636 18.9364C4.29808 18.1709 3.86802 17.1326 3.86802 16.05C3.86802 14.9674 4.29808 13.9291 5.0636 13.1636L8.66053 9.56668C9.03692 9.18344 9.48581 8.87889 9.98106 8.67079ZM20.1 16.5H18.3C17.8029 16.5 17.4 16.0971 17.4 15.6C17.4 15.1029 17.8029 14.7 18.3 14.7H20.1C20.5971 14.7 21 15.1029 21 15.6C21 16.0971 20.5971 16.5 20.1 16.5ZM15.6 17.4C16.0971 17.4 16.5 17.8029 16.5 18.3V20.1C16.5 20.5971 16.0971 21 15.6 21C15.1029 21 14.7 20.5971 14.7 20.1V18.3C14.7 17.8029 15.1029 17.4 15.6 17.4Z" fill="#6F6F6D"/>
</svg>
