<svg width="24" height="24" viewBox="0 0 24 24" fill="none" xmlns="http://www.w3.org/2000/svg">
<g clip-path="url(#clip0_5070_360968)">
<path fill-rule="evenodd" clip-rule="evenodd" d="M2.99782 1.5L3 1.5H18L18.0022 1.5C18.7965 1.50231 19.5577 1.81889 20.1194 2.38059C20.6811 2.94229 20.9977 3.70346 21 4.49782L21 4.5V4.50128H19.5C19.4986 4.10356 19.34 3.72251 19.0587 3.44125C18.7775 3.16002 18.3965 3.00141 17.9988 3H3.0012C2.6035 3.00141 2.22248 3.16002 1.94125 3.44125C1.66002 3.72248 1.50141 4.1035 1.5 4.5012V16.4988C1.50141 16.8965 1.66002 17.2775 1.94125 17.5587C2.2225 17.84 2.60356 17.9986 3.00128 18V19.5H3L2.99782 19.5C2.20346 19.4977 1.44229 19.1811 0.880592 18.6194C0.318891 18.0577 0.00230996 17.2965 3.17395e-06 16.5022L0 16.5V4.5L3.17395e-06 4.49782C0.00230996 3.70346 0.318891 2.94229 0.880592 2.38059C1.44229 1.81889 2.20346 1.50231 2.99782 1.5Z" fill="#6F6F6D"/>
<path fill-rule="evenodd" clip-rule="evenodd" d="M6.65578 6.75C5.87939 6.75 5.25 7.37939 5.25 8.15578V19.5942C5.25 20.3706 5.87939 21 6.65578 21H21.0942C21.8706 21 22.5 20.3706 22.5 19.5942V8.15578C22.5 7.37939 21.8706 6.75 21.0942 6.75H6.65578ZM3.75 8.15578C3.75 6.55096 5.05096 5.25 6.65578 5.25H21.0942C22.699 5.25 24 6.55096 24 8.15578V19.5942C24 21.199 22.699 22.5 21.0942 22.5H6.65578C5.05096 22.5 3.75 21.199 3.75 19.5942V8.15578Z" fill="#6F6F6D"/>
<path fill-rule="evenodd" clip-rule="evenodd" d="M17.4807 9.61365C17.0932 9.61365 16.7883 9.92407 16.7883 10.2957C16.7883 10.6673 17.0932 10.9777 17.4807 10.9777C17.8681 10.9777 18.173 10.6673 18.173 10.2957C18.173 9.92407 17.8681 9.61365 17.4807 9.61365ZM15.2883 10.2957C15.2883 9.08551 16.275 8.11365 17.4807 8.11365C18.6864 8.11365 19.673 9.08551 19.673 10.2957C19.673 11.5058 18.6864 12.4777 17.4807 12.4777C16.275 12.4777 15.2883 11.5058 15.2883 10.2957Z" fill="#6F6F6D"/>
<path fill-rule="evenodd" clip-rule="evenodd" d="M9.48023 12.7763C9.89826 12.4082 10.4404 12.2123 10.9972 12.2283C11.554 12.2443 12.084 12.4709 12.4802 12.8624C12.4907 12.8728 12.5009 12.8834 12.5108 12.8944L16.1792 16.9737L17.4631 15.6991L17.4649 15.6974C17.8527 15.3149 18.3685 15.0896 18.9126 15.0651C19.4568 15.0406 19.9907 15.2185 20.4114 15.5645L20.4131 15.5659L23.7281 18.3085C24.0472 18.5726 24.0919 19.0453 23.8278 19.3645C23.5638 19.6836 23.091 19.7283 22.7719 19.4642L19.4585 16.723C19.4583 16.7227 19.458 16.7225 19.4578 16.7223C19.3236 16.6123 19.1535 16.5558 18.9802 16.5636C18.8068 16.5714 18.6425 16.643 18.5188 16.7647C18.5186 16.7649 18.5184 16.7652 18.5182 16.7654L16.6828 18.5875L16.5472 18.7282C16.457 18.8219 16.3279 18.9561 16.1721 19.118C15.8605 19.4418 15.4424 19.8764 15.0163 20.3198C14.1578 21.213 13.2832 22.1247 13.1622 22.2567C13.0202 22.4117 12.8196 22.5 12.6093 22.5V22.479C12.6093 22.479 12.6093 22.479 12.6093 22.479C12.6093 22.5 12.6093 22.5 12.6093 22.5H12.433C12.4327 22.5 12.4325 22.5 12.4323 22.5H7.42965C6.42678 22.5 5.6404 22.2392 5.04917 21.7858C4.46308 21.3364 4.13284 20.7469 3.94982 20.1972C3.76812 19.6515 3.72255 19.1204 3.71898 18.7368C3.71718 18.5425 3.72613 18.3793 3.73587 18.2622C3.74075 18.2035 3.74587 18.1559 3.75003 18.1213C3.75212 18.104 3.75396 18.0898 3.75543 18.0791C3.75616 18.0738 3.7568 18.0693 3.75732 18.0657L3.75802 18.0609L3.7583 18.059L3.75843 18.0582C3.75848 18.0578 3.75854 18.0575 4.49996 18.1706L3.75854 18.0575C3.78506 17.8836 3.87186 17.7246 4.00376 17.6082L9.48023 12.7763ZM5.22176 18.5339C5.21953 18.5899 5.21827 18.6534 5.21892 18.7229C5.22159 19.0105 5.25674 19.3742 5.373 19.7233C5.48794 20.0685 5.67289 20.3739 5.96196 20.5955C6.2459 20.8133 6.69466 21 7.42965 21H12.1236L15.1134 18.0318L11.4129 13.9168C11.2884 13.8 11.1252 13.7326 10.9542 13.7277C10.7772 13.7226 10.6048 13.7848 10.4719 13.9018C10.4718 13.9019 10.4717 13.902 10.4716 13.902L5.22176 18.5339Z" fill="#6F6F6D"/>
</g>
<defs>
<clipPath id="clip0_5070_360968">
<rect width="24" height="24" fill="white"/>
</clipPath>
</defs>
</svg>
