<svg width="24" height="24" viewBox="0 0 24 24" fill="none" xmlns="http://www.w3.org/2000/svg">
<path fill-rule="evenodd" clip-rule="evenodd" d="M12 2C6.477 2 2 6.477 2 12C2 17.523 6.477 22 12 22C17.522 22 22 17.523 22 12C22 6.477 17.522 2 12 2Z" fill="#D2F3EB"/>
<path d="M7 9.33333C7 8.97971 7.1317 8.64057 7.36612 8.39052C7.60054 8.14048 7.91848 8 8.25 8H11.375L12.625 9.33333H15.75C16.0815 9.33333 16.3995 9.47381 16.6339 9.72386C16.8683 9.97391 17 10.313 17 10.6667V14.6667C17 15.0203 16.8683 15.3594 16.6339 15.6095C16.3995 15.8595 16.0815 16 15.75 16H8.25C7.91848 16 7.60054 15.8595 7.36612 15.6095C7.1317 15.3594 7 15.0203 7 14.6667V9.33333Z" fill="#009B7C"/>
</svg>
