<svg width="32" height="32" viewBox="0 0 32 32" fill="none" xmlns="http://www.w3.org/2000/svg">
<path d="M11.0226 19.5732C10.7773 19.5732 10.6119 19.5972 10.5266 19.6212V21.1919C10.6279 21.2159 10.7546 21.2226 10.9293 21.2226C11.5679 21.2226 11.9613 20.8999 11.9613 20.3546C11.9613 19.8666 11.6226 19.5732 11.0226 19.5732ZM15.6719 19.5892C15.4053 19.5892 15.2319 19.6132 15.1293 19.6372V23.1172C15.2319 23.1412 15.3973 23.1412 15.5466 23.1412C16.6359 23.1492 17.3453 22.5492 17.3453 21.2799C17.3533 20.1732 16.7066 19.5892 15.6719 19.5892Z" fill="#E3503C"/>
<path d="M18.6666 2.66675H7.99992C7.29267 2.66675 6.6144 2.9477 6.1143 3.4478C5.6142 3.94789 5.33325 4.62617 5.33325 5.33341V26.6667C5.33325 27.374 5.6142 28.0523 6.1143 28.5524C6.6144 29.0525 7.29267 29.3334 7.99992 29.3334H23.9999C24.7072 29.3334 25.3854 29.0525 25.8855 28.5524C26.3856 28.0523 26.6666 27.374 26.6666 26.6667V10.6667L18.6666 2.66675ZM12.6639 21.5868C12.2519 21.9734 11.6439 22.1467 10.9359 22.1467C10.7986 22.1482 10.6614 22.1402 10.5253 22.1227V24.0241H9.33325V18.7761C9.87119 18.6958 10.4147 18.6593 10.9586 18.6667C11.7013 18.6667 12.2293 18.8081 12.5853 19.0921C12.9239 19.3614 13.1533 19.8027 13.1533 20.3227C13.1519 20.8454 12.9786 21.2867 12.6639 21.5868ZM17.7399 23.3934C17.1799 23.8587 16.3279 24.0801 15.2866 24.0801C14.6626 24.0801 14.2213 24.0401 13.9213 24.0001V18.7774C14.4594 18.6989 15.0028 18.6619 15.5466 18.6667C16.5559 18.6667 17.2119 18.8481 17.7239 19.2347C18.2773 19.6454 18.6239 20.3001 18.6239 21.2401C18.6239 22.2574 18.2519 22.9601 17.7399 23.3934ZM22.6666 19.6934H20.6239V20.9081H22.5333V21.8867H20.6239V24.0254H19.4159V18.7067H22.6666V19.6934ZM18.6666 12.0001H17.3333V5.33341L23.9999 12.0001H18.6666Z" fill="#E3503C"/>
</svg>
