<svg width="24" height="24" viewBox="0 0 24 24" fill="none" xmlns="http://www.w3.org/2000/svg">
<path d="M10.5 18C9.01664 18 7.5666 17.5601 6.33323 16.736C5.09986 15.9119 4.13856 14.7406 3.57091 13.3701C3.00325 11.9997 2.85473 10.4917 3.14411 9.03683C3.4335 7.58197 4.14781 6.2456 5.1967 5.1967C6.2456 4.14781 7.58197 3.4335 9.03683 3.14411C10.4917 2.85473 11.9997 3.00325 13.3701 3.57091C14.7406 4.13856 15.9119 5.09986 16.736 6.33323C17.5601 7.5666 18 9.01664 18 10.5H19.5C19.5 8.71997 18.9722 6.97991 17.9832 5.49987C16.9943 4.01983 15.5887 2.86628 13.9442 2.18509C12.2996 1.5039 10.49 1.32567 8.74419 1.67294C6.99836 2.0202 5.39472 2.87737 4.13604 4.13604C2.87737 5.39472 2.0202 6.99836 1.67294 8.74419C1.32567 10.49 1.5039 12.2996 2.18509 13.9442C2.86628 15.5887 4.01983 16.9943 5.49987 17.9832C6.97991 18.9722 8.71997 19.5 10.5 19.5V18Z" fill="#F89D26"/>
<path d="M9 11.6925L7.0575 9.75L6 10.8075L9 13.8075L14.25 8.5575L13.1925 7.5L9 11.6925ZM20.535 21H15.4635L18 15.927L20.535 21ZM18 13.5C17.8606 13.4999 17.724 13.5387 17.6054 13.612C17.4869 13.6852 17.391 13.7901 17.3287 13.9147L13.5787 21.4147C13.5216 21.5291 13.4946 21.6562 13.5004 21.7839C13.5062 21.9117 13.5445 22.0358 13.6118 22.1445C13.6791 22.2533 13.773 22.343 13.8847 22.4052C13.9964 22.4674 14.1221 22.5001 14.25 22.5H21.75C21.8739 22.5 21.9958 22.4694 22.1049 22.4108C22.214 22.3522 22.3069 22.2675 22.3754 22.1643C22.4438 22.061 22.4855 21.9424 22.4969 21.8191C22.5084 21.6958 22.4891 21.5715 22.4408 21.4575L18.6713 13.9147C18.609 13.7901 18.5131 13.6852 18.3946 13.612C18.276 13.5387 18.1394 13.4999 18 13.5Z" fill="#F89D26"/>
</svg>
